<?xml version="1.0" encoding="UTF-8" standalone="no"?>
<!-- Created with Inkscape (http://www.inkscape.org/) -->

<svg
   xmlns:dc="http://purl.org/dc/elements/1.1/"
   xmlns:cc="http://creativecommons.org/ns#"
   xmlns:rdf="http://www.w3.org/1999/02/22-rdf-syntax-ns#"
   xmlns:svg="http://www.w3.org/2000/svg"
   xmlns="http://www.w3.org/2000/svg"
   xmlns:sodipodi="http://sodipodi.sourceforge.net/DTD/sodipodi-0.dtd"
   xmlns:inkscape="http://www.inkscape.org/namespaces/inkscape"
   width="68.005356mm"
   height="63.293663mm"
   viewBox="0 0 240.96386 224.26888"
   id="svg14000"
   version="1.1"
   inkscape:version="0.91 r13725"
   sodipodi:docname="pcb-size.svg">
  <defs
     id="defs14002" />
  <sodipodi:namedview
     id="base"
     pagecolor="#ffffff"
     bordercolor="#666666"
     borderopacity="1.0"
     inkscape:pageopacity="0.0"
     inkscape:pageshadow="2"
     inkscape:zoom="1.4"
     inkscape:cx="21.881176"
     inkscape:cy="151.2339"
     inkscape:document-units="px"
     inkscape:current-layer="layer1"
     showgrid="false"
     fit-margin-top="0"
     fit-margin-left="0"
     fit-margin-right="0"
     fit-margin-bottom="0"
     inkscape:window-width="1855"
     inkscape:window-height="1056"
     inkscape:window-x="65"
     inkscape:window-y="24"
     inkscape:window-maximized="1" />
  <metadata
     id="metadata14005">
    <rdf:RDF>
      <cc:Work
         rdf:about="">
        <dc:format>image/svg+xml</dc:format>
        <dc:type
           rdf:resource="http://purl.org/dc/dcmitype/StillImage" />
        <dc:title></dc:title>
      </cc:Work>
    </rdf:RDF>
  </metadata>
  <g
     inkscape:label="Layer 1"
     inkscape:groupmode="layer"
     id="layer1"
     transform="translate(-208.0895,-774.51348)">
    <g
       id="g14116"
       transform="matrix(0.00899999,0,0,0.00899999,-211.24797,577.48476)">
      <g
         id="g14014"
         style="fill:#000000;fill-opacity:1;stroke:#000000;stroke-linecap:round;stroke-linejoin:round;stroke-opacity:1" />
      <g
         id="g14016"
         style="fill:#000000;fill-opacity:0;stroke:#000000;stroke-width:-0.0003937;stroke-linecap:round;stroke-linejoin:round;stroke-opacity:1" />
      <g
         id="g14018"
         style="fill:#000000;fill-opacity:0;stroke:#000000;stroke-width:39.37009811;stroke-linecap:round;stroke-linejoin:round;stroke-opacity:1">
        <path
           id="path14020"
           d="m 46653,46751 0,-19488"
           inkscape:connector-curvature="0" />
        <path
           id="path14022"
           d="m 66141,46751 -19488,0"
           inkscape:connector-curvature="0" />
        <path
           id="path14024"
           d="m 66141,27263 0,19488"
           inkscape:connector-curvature="0" />
        <path
           id="path14026"
           d="m 46653,27263 19488,0"
           inkscape:connector-curvature="0" />
      </g>
      <g
         id="g14028"
         style="fill:#000000;fill-opacity:0;stroke:#000000;stroke-width:118.11000061;stroke-linecap:round;stroke-linejoin:round;stroke-opacity:1">
        <path
           id="path14030"
           d="m 72902,34842 -394,0"
           inkscape:connector-curvature="0" />
        <path
           id="path14032"
           d="m 73127,34701 -422,-140 0,365"
           inkscape:connector-curvature="0" />
        <path
           id="path14034"
           d="m 72508,35179 0,113 28,56 28,28 85,57 112,28 225,0 56,-28 28,-29 28,-56 0,-112 -28,-57 -28,-28 -56,-28 -141,0 -56,28 -28,28 -28,57 0,112 28,56 28,29 56,28"
           inkscape:connector-curvature="0" />
        <path
           id="path14036"
           d="m 72536,35742 -28,0 -56,-28 -28,-28"
           inkscape:connector-curvature="0" />
        <path
           id="path14038"
           d="m 73098,36276 0,-281 -281,-28 28,28 29,56 0,141 -29,56 -28,28 -56,28 -141,0 -56,-28 -28,-28 -28,-56 0,-141 28,-56 28,-28"
           inkscape:connector-curvature="0" />
        <path
           id="path14040"
           d="m 73098,36670 0,56 -28,56 -28,29 -56,28 -112,28 -141,0 -113,-28 -56,-28 -28,-29 -28,-56 0,-56 28,-56 28,-28 56,-29 113,-28 141,0 112,28 56,29 28,28 28,56"
           inkscape:connector-curvature="0" />
        <path
           id="path14042"
           d="m 73098,37232 0,57 -28,56 -28,28 -56,28 -112,28 -141,0 -113,-28 -56,-28 -28,-28 -28,-56 0,-57 28,-56 28,-28 56,-28 113,-28 141,0 112,28 56,28 28,28 28,56"
           inkscape:connector-curvature="0" />
        <path
           id="path14044"
           d="m 72508,38132 394,0"
           inkscape:connector-curvature="0" />
        <path
           id="path14046"
           d="m 72845,38132 29,28 28,57 0,84 -28,56 -57,28 -309,0"
           inkscape:connector-curvature="0" />
        <path
           id="path14048"
           d="m 72817,38385 57,28 28,57 0,84 -28,56 -57,28 -309,0"
           inkscape:connector-curvature="0" />
        <path
           id="path14050"
           d="m 72508,38920 394,0"
           inkscape:connector-curvature="0" />
        <path
           id="path14052"
           d="m 72845,38920 29,28 28,56 0,84 -28,57 -57,28 -309,0"
           inkscape:connector-curvature="0" />
        <path
           id="path14054"
           d="m 72817,39173 57,28 28,56 0,84 -28,57 -57,28 -309,0"
           inkscape:connector-curvature="0" />
        <path
           id="path14056"
           d="m 72244,27263 0,19488"
           inkscape:connector-curvature="0" />
        <path
           id="path14058"
           d="m 66141,27263 7166,0"
           inkscape:connector-curvature="0" />
        <path
           id="path14060"
           d="m 66141,46751 7166,0"
           inkscape:connector-curvature="0" />
        <path
           id="path14062"
           d="m 72244,46751 -231,-443"
           inkscape:connector-curvature="0" />
        <path
           id="path14064"
           d="m 72244,46751 230,-443"
           inkscape:connector-curvature="0" />
        <path
           id="path14066"
           d="m 72244,27263 -231,444"
           inkscape:connector-curvature="0" />
        <path
           id="path14068"
           d="m 72244,27263 230,444"
           inkscape:connector-curvature="0" />
        <path
           id="path14070"
           d="m 54232,22357 0,394"
           inkscape:connector-curvature="0" />
        <path
           id="path14072"
           d="m 54091,22132 -140,422 365,0"
           inkscape:connector-curvature="0" />
        <path
           id="path14074"
           d="m 54569,22751 113,0 56,-28 28,-28 56,-85 28,-112 0,-225 -28,-56 -28,-29 -56,-28 -113,0 -56,28 -28,29 -28,56 0,140 28,57 28,28 56,28 113,0 56,-28 28,-28 28,-57"
           inkscape:connector-curvature="0" />
        <path
           id="path14076"
           d="m 55132,22723 0,28 -28,56 -29,28"
           inkscape:connector-curvature="0" />
        <path
           id="path14078"
           d="m 55666,22160 -281,0 -28,282 28,-29 56,-28 141,0 56,28 28,29 28,56 0,140 -28,57 -28,28 -56,28 -141,0 -56,-28 -28,-28"
           inkscape:connector-curvature="0" />
        <path
           id="path14080"
           d="m 56060,22160 56,0 56,28 28,29 28,56 29,112 0,141 -29,112 -28,57 -28,28 -56,28 -56,0 -57,-28 -28,-28 -28,-57 -28,-112 0,-141 28,-112 28,-56 28,-29 57,-28"
           inkscape:connector-curvature="0" />
        <path
           id="path14082"
           d="m 56622,22160 56,0 57,28 28,29 28,56 28,112 0,141 -28,112 -28,57 -28,28 -57,28 -56,0 -56,-28 -28,-28 -28,-57 -28,-112 0,-141 28,-112 28,-56 28,-29 56,-28"
           inkscape:connector-curvature="0" />
        <path
           id="path14084"
           d="m 57522,22751 0,-394"
           inkscape:connector-curvature="0" />
        <path
           id="path14086"
           d="m 57522,22413 28,-28 56,-28 85,0 56,28 28,57 0,309"
           inkscape:connector-curvature="0" />
        <path
           id="path14088"
           d="m 57775,22442 28,-57 56,-28 85,0 56,28 28,57 0,309"
           inkscape:connector-curvature="0" />
        <path
           id="path14090"
           d="m 58309,22751 0,-394"
           inkscape:connector-curvature="0" />
        <path
           id="path14092"
           d="m 58309,22413 29,-28 56,-28 84,0 56,28 28,57 0,309"
           inkscape:connector-curvature="0" />
        <path
           id="path14094"
           d="m 58562,22442 29,-57 56,-28 84,0 56,28 29,57 0,309"
           inkscape:connector-curvature="0" />
        <path
           id="path14096"
           d="m 46653,23015 19488,0"
           inkscape:connector-curvature="0" />
        <path
           id="path14098"
           d="m 46653,27263 0,-5311"
           inkscape:connector-curvature="0" />
        <path
           id="path14100"
           d="m 66141,27263 0,-5311"
           inkscape:connector-curvature="0" />
        <path
           id="path14102"
           d="m 66141,23015 -443,231"
           inkscape:connector-curvature="0" />
        <path
           id="path14104"
           d="m 66141,23015 -443,-231"
           inkscape:connector-curvature="0" />
        <path
           id="path14106"
           d="m 46653,23015 444,231"
           inkscape:connector-curvature="0" />
        <path
           id="path14108"
           d="m 46653,23015 444,-231"
           inkscape:connector-curvature="0" />
      </g>
    </g>
  </g>
</svg>
