<?xml version="1.0" standalone="no"?>
 <!DOCTYPE svg PUBLIC "-//W3C//DTD SVG 1.1//EN" 
 "http://www.w3.org/Graphics/SVG/1.1/DTD/svg11.dtd"> 
<svg xmlns="http://www.w3.org/2000/svg" version="1.1" 
    width="29.7002cm" height="21.0007cm" viewBox="0 0 116930 82680 ">
<title>SVG Picture created as Sensor-B.SilkS.svg date 2016/08/15 13:14:21 </title>
  <desc>Picture generated by PCBNEW </desc>
<g style="fill:#000000; fill-opacity:1;stroke:#000000; stroke-opacity:1;
stroke-linecap:round; stroke-linejoin:round; "
 transform="translate(0 0) scale(1 1)">
</g>
<g style="fill:#000000; fill-opacity:0.0; 
stroke:#000000; stroke-width:-0.000393701; stroke-opacity:1; 
stroke-linecap:round; stroke-linejoin:round;">
</g>
<g style="fill:#000000; fill-opacity:0.0; 
stroke:#000000; stroke-width:39.3701; stroke-opacity:1; 
stroke-linecap:round; stroke-linejoin:round;">
<path d="M46614 46574
L65905 46574
" />
<path d="M46614 27283
L46614 46574
" />
<path d="M65905 27283
L46614 27283
" />
<path d="M65905 46574
L65905 27283
" />
</g>
<g style="fill:#000000; fill-opacity:0.0; 
stroke:#000000; stroke-width:59.0551; stroke-opacity:1; 
stroke-linecap:round; stroke-linejoin:round;">
<circle cx="52267.7" cy="28523.6" r="236.22" /> 
<circle cx="61322.8" cy="28523.6" r="236.22" /> 
<circle cx="52267.7" cy="35413.4" r="236.22" /> 
<circle cx="61322.8" cy="35413.4" r="236.22" /> 
<path d="M61322 36496
L61322 27440
" />
<path d="M61322 27440
L52267 27440
" />
<path d="M52267 27440
L52267 36496
" />
<path d="M52267 36496
L61322 36496
" />
<path d="M58173 30433
L57976 30629
" />
<path d="M58330 30590
L58173 30433
" />
<path d="M58133 30787
L58330 30590
" />
<circle cx="56795.3" cy="31968.5" r="1772.09" /> 
<circle cx="56795.3" cy="31968.5" r="1000" /> 
<path d="M58393 44401
L58393 41401
" />
<path d="M58393 41401
L56393 41401
" />
<path d="M56393 41401
L56393 45401
" />
<path d="M56393 45401
L57393 45401
" />
<path d="M58503 44901
L58503 45511
" />
<path d="M57393 45401
L57393 44401
" />
<path d="M57393 44401
L58393 44401
" />
<path d="M58503 45511
L57893 45511
" />
<path d="M64094 41348
L63307 41348
" />
<path d="M63307 42194
L64094 42194
" />
<path d="M57657 45482
L57185 45482
" />
<path d="M57185 46171
L57657 46171
" />
<path d="M48740 32509
L49212 32509
" />
<path d="M49212 31820
L48740 31820
" />
<path d="M64744 28848
L64271 28848
" />
<path d="M64271 29537
L64744 29537
" />
<path d="M48740 31683
L49212 31683
" />
<path d="M49212 30994
L48740 30994
" />
<path d="M64960 42037
L65354 42037
" />
<path d="M65354 41505
L64960 41505
" />
<path d="M48139 30944
L48139 30551
" />
<path d="M47608 30551
L47608 30944
" />
<path d="M47568 32775
L47568 33169
" />
<path d="M48100 33169
L48100 32775
" />
<path d="M57095 29390
L57095 29709
L57076 29746
L57057 29765
L57020 29784
L56945 29784
L56907 29765
L56889 29746
L56870 29709
L56870 29390
" />
<path d="M56720 29390
L56476 29390
L56607 29540
L56551 29540
L56514 29559
L56495 29578
L56476 29615
L56476 29709
L56495 29746
L56514 29765
L56551 29784
L56664 29784
L56701 29765
L56720 29746
" />
<path d="M60079 44610
L59685 44610
L59685 44760
L59704 44798
L59723 44817
L59760 44835
L59817 44835
L59854 44817
L59873 44798
L59892 44760
L59892 44610
" />
<path d="M60079 45210
L60079 44985
" />
<path d="M60079 45098
L59685 45098
L59742 45060
L59779 45023
L59798 44985
" />
<path d="M63991 42855
L63991 42461
L63897 42461
L63841 42480
L63803 42517
L63785 42555
L63766 42630
L63766 42686
L63785 42761
L63803 42799
L63841 42836
L63897 42855
L63991 42855
" />
<path d="M63391 42855
L63616 42855
" />
<path d="M63503 42855
L63503 42461
L63541 42517
L63578 42555
L63616 42574
" />
<path d="M57486 46794
L57505 46812
L57561 46831
L57599 46831
L57655 46812
L57693 46775
L57711 46737
L57730 46662
L57730 46606
L57711 46531
L57693 46494
L57655 46456
L57599 46437
L57561 46437
L57505 46456
L57486 46475
" />
<path d="M57355 46437
L57093 46437
L57261 46831
" />
<path d="M49041 31479
L49060 31497
L49116 31516
L49154 31516
L49210 31497
L49248 31460
L49266 31422
L49285 31347
L49285 31291
L49266 31216
L49248 31179
L49210 31141
L49154 31122
L49116 31122
L49060 31141
L49041 31160
" />
<path d="M48817 31291
L48854 31272
L48873 31254
L48892 31216
L48892 31197
L48873 31160
L48854 31141
L48817 31122
L48742 31122
L48704 31141
L48685 31160
L48667 31197
L48667 31216
L48685 31254
L48704 31272
L48742 31291
L48817 31291
L48854 31310
L48873 31329
L48892 31366
L48892 31441
L48873 31479
L48854 31497
L48817 31516
L48742 31516
L48704 31497
L48685 31479
L48667 31441
L48667 31366
L48685 31329
L48704 31310
L48742 31291
" />
<path d="M64573 30160
L64592 30179
L64648 30197
L64685 30197
L64742 30179
L64779 30141
L64798 30104
L64817 30029
L64817 29972
L64798 29897
L64779 29860
L64742 29822
L64685 29804
L64648 29804
L64592 29822
L64573 29841
" />
<path d="M64386 30197
L64311 30197
L64273 30179
L64254 30160
L64217 30104
L64198 30029
L64198 29879
L64217 29841
L64236 29822
L64273 29804
L64348 29804
L64386 29822
L64404 29841
L64423 29879
L64423 29972
L64404 30010
L64386 30029
L64348 30047
L64273 30047
L64236 30029
L64217 30010
L64198 29972
" />
<path d="M49229 30652
L49248 30671
L49304 30689
L49341 30689
L49398 30671
L49435 30633
L49454 30596
L49473 30521
L49473 30464
L49454 30389
L49435 30352
L49398 30314
L49341 30296
L49304 30296
L49248 30314
L49229 30333
" />
<path d="M48854 30689
L49079 30689
" />
<path d="M48967 30689
L48967 30296
L49004 30352
L49041 30389
L49079 30408
" />
<path d="M48610 30296
L48573 30296
L48535 30314
L48517 30333
L48498 30371
L48479 30446
L48479 30539
L48498 30614
L48517 30652
L48535 30671
L48573 30689
L48610 30689
L48648 30671
L48667 30652
L48685 30614
L48704 30539
L48704 30446
L48685 30371
L48667 30333
L48648 30314
L48610 30296
" />
<path d="M65223 41201
L65354 41014
" />
<path d="M65448 41201
L65448 40808
L65298 40808
L65260 40826
L65241 40845
L65223 40883
L65223 40939
L65241 40976
L65260 40995
L65298 41014
L65448 41014
" />
<path d="M64885 40939
L64885 41201
" />
<path d="M64979 40789
L65073 41070
L64829 41070
" />
<path d="M47304 30682
L47116 30551
" />
<path d="M47304 30457
L46910 30457
L46910 30607
L46929 30644
L46947 30663
L46985 30682
L47041 30682
L47079 30663
L47097 30644
L47116 30607
L47116 30457
" />
<path d="M46910 31038
L46910 30851
L47097 30832
L47079 30851
L47060 30888
L47060 30982
L47079 31019
L47097 31038
L47135 31057
L47229 31057
L47266 31038
L47285 31019
L47304 30982
L47304 30888
L47285 30851
L47266 30832
" />
<path d="M48760 32719
L48573 32588
" />
<path d="M48760 32494
L48367 32494
L48367 32644
L48385 32681
L48404 32700
L48442 32719
L48498 32719
L48535 32700
L48554 32681
L48573 32644
L48573 32494
" />
<path d="M48760 33094
L48760 32869
" />
<path d="M48760 32981
L48367 32981
L48423 32944
L48460 32906
L48479 32869
" />
<path d="M48367 33225
L48367 33488
L48760 33319
" />
</g> 
</svg>
