<?xml version="1.0" standalone="no"?>
 <!DOCTYPE svg PUBLIC "-//W3C//DTD SVG 1.1//EN" 
 "http://www.w3.org/Graphics/SVG/1.1/DTD/svg11.dtd"> 
<svg xmlns="http://www.w3.org/2000/svg" version="1.1" 
    width="29.7002cm" height="21.0007cm" viewBox="0 0 116930 82680 ">
<title>SVG Picture created as Sensor-B.SilkS.svg date 2016/03/06 20:55:44 </title>
  <desc>Picture generated by PCBNEW </desc>
<g style="fill:#000000; fill-opacity:1;stroke:#000000; stroke-opacity:1;
stroke-linecap:round; stroke-linejoin:round; "
 transform="translate(0 0) scale(1 1)">
</g>
<g style="fill:#000000; fill-opacity:0.0; 
stroke:#000000; stroke-width:-0.000393701; stroke-opacity:1; 
stroke-linecap:round; stroke-linejoin:round;">
</g>
<g style="fill:#000000; fill-opacity:0.0; 
stroke:#000000; stroke-width:39.3701; stroke-opacity:1; 
stroke-linecap:round; stroke-linejoin:round;">
<path d="M46653 46751
L46653 27263
" />
<path d="M66141 46751
L46653 46751
" />
<path d="M66141 27263
L66141 46751
" />
<path d="M46653 27263
L66141 27263
" />
</g>
<g style="fill:#000000; fill-opacity:0.0; 
stroke:#000000; stroke-width:59.0551; stroke-opacity:1; 
stroke-linecap:round; stroke-linejoin:round;">
<path d="M52972 45885
L52362 45885
" />
<path d="M50862 45775
L51862 45775
" />
<path d="M51862 45775
L51862 44775
" />
<path d="M52362 44665
L52972 44665
" />
<path d="M52972 44665
L52972 45885
" />
<path d="M51862 44775
L50862 44775
" />
<path d="M50862 44775
L50862 45775
" />
<circle cx="65551.2" cy="39980.3" r="236.22" /> 
<circle cx="56496.1" cy="39980.3" r="236.22" /> 
<circle cx="65551.2" cy="33090.6" r="236.22" /> 
<circle cx="56496.1" cy="33090.6" r="236.22" /> 
<path d="M56496 32007
L56496 41062
" />
<path d="M56496 41062
L65551 41062
" />
<path d="M65551 41062
L65551 32007
" />
<path d="M65551 32007
L56496 32007
" />
<path d="M59645 38070
L59842 37874
" />
<path d="M59488 37913
L59645 38070
" />
<path d="M59685 37716
L59488 37913
" />
<circle cx="61023.6" cy="36535.4" r="1772.09" /> 
<circle cx="61023.6" cy="36535.4" r="1000" /> 
<path d="M55885 37037
L56358 37037
" />
<path d="M56358 36348
L55885 36348
" />
<path d="M54783 36742
L54311 36742
" />
<path d="M54311 37431
L54783 37431
" />
<path d="M55885 37923
L56358 37923
" />
<path d="M56358 37234
L55885 37234
" />
<path d="M54783 35954
L54311 35954
" />
<path d="M54311 36643
L54783 36643
" />
<path d="M54921 34222
L54448 34222
" />
<path d="M54448 34911
L54921 34911
" />
<path d="M43523 35885
L47000 35885
" />
<path d="M43523 36885
L43523 35885
" />
<path d="M47000 36885
L47000 35885
" />
<path d="M47000 37885
L47000 36885
" />
<path d="M43523 37885
L43523 36885
" />
<path d="M43523 36885
L47000 36885
" />
<path d="M43523 37885
L47000 37885
" />
<path d="M43523 38885
L43523 37885
" />
<path d="M47000 38885
L43523 38885
" />
<path d="M47000 38885
L47000 37885
" />
<path d="M47000 39885
L47000 38885
" />
<path d="M48051 39385
L48051 39996
" />
<path d="M48051 39996
L47500 39996
" />
<path d="M47000 39885
L43523 39885
" />
<path d="M43523 39885
L43523 38885
" />
<path d="M43523 38885
L47000 38885
" />
<path d="M55046 45537
L54653 45537
" />
<path d="M54653 46069
L55046 46069
" />
<path d="M56003 46190
L56791 46190
" />
<path d="M56791 45344
L56003 45344
" />
<path d="M52153 44441
L52153 44047
L52003 44047
L51965 44066
L51946 44084
L51928 44122
L51928 44178
L51946 44216
L51965 44234
L52003 44253
L52153 44253
" />
<path d="M51571 44047
L51759 44047
L51778 44234
L51759 44216
L51721 44197
L51628 44197
L51590 44216
L51571 44234
L51553 44272
L51553 44366
L51571 44403
L51590 44422
L51628 44441
L51721 44441
L51759 44422
L51778 44403
" />
<path d="M61323 38682
L61323 39000
L61304 39038
L61286 39056
L61248 39075
L61173 39075
L61136 39056
L61117 39038
L61098 39000
L61098 38682
" />
<path d="M60704 39075
L60929 39075
" />
<path d="M60817 39075
L60817 38682
L60854 38738
L60892 38775
L60929 38794
" />
<path d="M56187 36046
L56206 36064
L56262 36083
L56300 36083
L56356 36064
L56393 36027
L56412 35989
L56431 35914
L56431 35858
L56412 35783
L56393 35746
L56356 35708
L56300 35689
L56262 35689
L56206 35708
L56187 35727
" />
<path d="M55812 36083
L56037 36083
" />
<path d="M55925 36083
L55925 35689
L55962 35746
L56000 35783
L56037 35802
" />
<path d="M54612 38053
L54631 38072
L54687 38091
L54725 38091
L54781 38072
L54819 38035
L54837 37997
L54856 37922
L54856 37866
L54837 37791
L54819 37754
L54781 37716
L54725 37697
L54687 37697
L54631 37716
L54612 37735
" />
<path d="M54462 37735
L54444 37716
L54406 37697
L54312 37697
L54275 37716
L54256 37735
L54237 37772
L54237 37810
L54256 37866
L54481 38091
L54237 38091
" />
<path d="M56187 38506
L56206 38525
L56262 38544
L56300 38544
L56356 38525
L56393 38488
L56412 38450
L56431 38375
L56431 38319
L56412 38244
L56393 38206
L56356 38169
L56300 38150
L56262 38150
L56206 38169
L56187 38188
" />
<path d="M56056 38150
L55812 38150
L55943 38300
L55887 38300
L55850 38319
L55831 38338
L55812 38375
L55812 38469
L55831 38506
L55850 38525
L55887 38544
L56000 38544
L56037 38525
L56056 38506
" />
<path d="M55672 36135
L55690 36116
L55709 36060
L55709 36022
L55690 35966
L55653 35928
L55615 35910
L55540 35891
L55484 35891
L55409 35910
L55372 35928
L55334 35966
L55315 36022
L55315 36060
L55334 36116
L55353 36135
" />
<path d="M55447 36472
L55709 36472
" />
<path d="M55297 36378
L55578 36285
L55578 36528
" />
<path d="M54356 33920
L54375 33938
L54431 33957
L54469 33957
L54525 33938
L54563 33901
L54581 33863
L54600 33788
L54600 33732
L54581 33657
L54563 33620
L54525 33582
L54469 33563
L54431 33563
L54375 33582
L54356 33601
" />
<path d="M54019 33563
L54094 33563
L54131 33582
L54150 33601
L54188 33657
L54206 33732
L54206 33882
L54188 33920
L54169 33938
L54131 33957
L54056 33957
L54019 33938
L54000 33920
L53982 33882
L53982 33788
L54000 33751
L54019 33732
L54056 33713
L54131 33713
L54169 33732
L54188 33751
L54206 33788
" />
<path d="M48662 39095
L48268 39095
L48268 39245
L48287 39282
L48306 39301
L48343 39320
L48399 39320
L48437 39301
L48456 39282
L48474 39245
L48474 39095
" />
<path d="M48399 39657
L48662 39657
" />
<path d="M48249 39563
L48531 39470
L48531 39713
" />
<path d="M54916 46607
L55047 46419
" />
<path d="M55140 46607
L55140 46213
L54991 46213
L54953 46232
L54934 46251
L54916 46288
L54916 46344
L54934 46382
L54953 46401
L54991 46419
L55140 46419
" />
<path d="M54766 46251
L54747 46232
L54709 46213
L54616 46213
L54578 46232
L54559 46251
L54541 46288
L54541 46326
L54559 46382
L54784 46607
L54541 46607
" />
<path d="M56688 45040
L56688 44646
L56594 44646
L56538 44665
L56500 44702
L56482 44740
L56463 44815
L56463 44871
L56482 44946
L56500 44984
L56538 45021
L56594 45040
L56688 45040
" />
<path d="M56088 45040
L56313 45040
" />
<path d="M56200 45040
L56200 44646
L56238 44702
L56275 44740
L56313 44759
" />
</g> 
</svg>
