<?xml version="1.0" standalone="no"?>
 <!DOCTYPE svg PUBLIC "-//W3C//DTD SVG 1.1//EN" 
 "http://www.w3.org/Graphics/SVG/1.1/DTD/svg11.dtd"> 
<svg xmlns="http://www.w3.org/2000/svg" version="1.1" 
    width="29.7002cm" height="21.0007cm" viewBox="0 0 116930 82680 ">
<title>SVG Picture created as Sensor-F.SilkS.svg date 2016/08/15 13:14:11 </title>
  <desc>Picture generated by PCBNEW </desc>
<g style="fill:#000000; fill-opacity:1;stroke:#000000; stroke-opacity:1;
stroke-linecap:round; stroke-linejoin:round; "
 transform="translate(0 0) scale(1 1)">
</g>
<g style="fill:#000000; fill-opacity:0.0; 
stroke:#000000; stroke-width:-0.000393701; stroke-opacity:1; 
stroke-linecap:round; stroke-linejoin:round;">
</g>
<g style="fill:#000000; fill-opacity:0.0; 
stroke:#000000; stroke-width:39.3701; stroke-opacity:1; 
stroke-linecap:round; stroke-linejoin:round;">
<path d="M70315 46574
L51024 46574
" />
<path d="M70315 27283
L70315 46574
" />
<path d="M51024 27283
L70315 27283
" />
<path d="M51024 46574
L51024 27283
" />
</g>
<g style="fill:#000000; fill-opacity:0.0; 
stroke:#000000; stroke-width:59.0551; stroke-opacity:1; 
stroke-linecap:round; stroke-linejoin:round;">
<path d="M61932 38959
L61598 39293
" />
<path d="M62085 39780
L62419 39446
" />
<path d="M58423 36119
L58757 35785
" />
<path d="M58270 35298
L57936 35632
" />
<path d="M53957 46279
L53347 46279
" />
<path d="M51847 46169
L52847 46169
" />
<path d="M52847 46169
L52847 45169
" />
<path d="M53347 45059
L53957 45059
" />
<path d="M53957 45059
L53957 46279
" />
<path d="M52847 45169
L51847 45169
" />
<path d="M51847 45169
L51847 46169
" />
<path d="M62483 39510
L62149 39844
" />
<path d="M62636 40331
L62970 39997
" />
<path d="M59498 34015
L59498 34488
" />
<path d="M60187 34488
L60187 34015
" />
<path d="M60286 34015
L60286 34488
" />
<path d="M60975 34488
L60975 34015
" />
<path d="M54656 32637
L54656 33110
" />
<path d="M55345 33110
L55345 32637
" />
<path d="M60394 30915
L59922 30915
" />
<path d="M59922 31604
L60394 31604
" />
<path d="M65099 30659
L64626 30659
" />
<path d="M64626 31348
L65099 31348
" />
<path d="M65315 29635
L65788 29635
" />
<path d="M65788 28946
L65315 28946
" />
<path d="M67678 36250
L68150 36250
" />
<path d="M68150 35561
L67678 35561
" />
<path d="M65699 33110
L65699 32637
" />
<path d="M65010 32637
L65010 33110
" />
<path d="M65552 35068
L66024 35068
" />
<path d="M66024 34379
L65552 34379
" />
<path d="M66851 37076
L67323 37076
" />
<path d="M67323 36387
L66851 36387
" />
<path d="M68622 36387
L68150 36387
" />
<path d="M68150 37076
L68622 37076
" />
<path d="M58859 27726
L58386 27726
" />
<path d="M58386 28415
L58859 28415
" />
<path d="M59646 28415
L60118 28415
" />
<path d="M60118 27726
L59646 27726
" />
<path d="M68977 28287
L66851 28287
" />
<path d="M66851 28287
L66851 29389
" />
<path d="M66851 29389
L68977 29389
" />
<path d="M68977 29389
L68977 28287
" />
<path d="M56957 44397
L56957 41397
" />
<path d="M56957 41397
L54957 41397
" />
<path d="M54957 41397
L54957 45397
" />
<path d="M54957 45397
L55957 45397
" />
<path d="M57067 44897
L57067 45507
" />
<path d="M55957 45397
L55957 44397
" />
<path d="M55957 44397
L56957 44397
" />
<path d="M57067 45507
L56457 45507
" />
<path d="M57618 29547
L58209 29547
" />
<path d="M58209 29547
L58209 28484
" />
<path d="M58209 28484
L57618 28484
" />
<path d="M57618 28484
L57618 29547
" />
<path d="M55837 33858
L55837 34251
" />
<path d="M56368 34251
L56368 33858
" />
<path d="M56555 30797
L56162 30797
" />
<path d="M56162 31328
L56555 31328
" />
<path d="M56181 32076
L56575 32076
" />
<path d="M56575 31545
L56181 31545
" />
<path d="M61063 33257
L61457 33257
" />
<path d="M61457 32726
L61063 32726
" />
<path d="M62244 33257
L62638 33257
" />
<path d="M62638 32726
L62244 32726
" />
<path d="M65355 30285
L65748 30285
" />
<path d="M65748 29753
L65355 29753
" />
<path d="M64922 32155
L65315 32155
" />
<path d="M65315 31624
L64922 31624
" />
<path d="M67992 34438
L68386 34438
" />
<path d="M68386 33907
L67992 33907
" />
<path d="M66890 34438
L67284 34438
" />
<path d="M67284 33907
L66890 33907
" />
<path d="M65552 34281
L65945 34281
" />
<path d="M65945 33750
L65552 33750
" />
<path d="M56467 28818
L56467 29212
" />
<path d="M56998 29212
L56998 28818
" />
<path d="M68357 37677
L68357 38070
" />
<path d="M68888 38070
L68888 37677
" />
<path d="M52087 34055
L54449 34055
" />
<path d="M54449 34055
L54449 31692
" />
<path d="M54449 31692
L52087 31692
" />
<path d="M52087 31692
L52087 34055
" />
<circle cx="67612.7" cy="33388.2" r="100" /> 
<path d="M67412 33588
L68612 33588
" />
<path d="M68612 33588
L68612 30388
" />
<path d="M68612 30388
L67412 30388
" />
<path d="M67412 30388
L67412 33588
" />
<path d="M68189 37519
L67323 37519
" />
<path d="M67323 37519
L67323 38070
" />
<path d="M67323 38070
L68189 38070
" />
<path d="M68189 38070
L68189 37519
" />
</g>
<g style="fill:#000000; fill-opacity:0.0; 
stroke:#000000; stroke-width:0; stroke-opacity:1; 
stroke-linecap:round; stroke-linejoin:round;">
<path d="M61457 29803
L61457 29015
" />
<path d="M61457 29015
L60670 29015
" />
<path d="M60670 29015
L60670 29803
" />
<path d="M60670 29803
L61457 29803
" />
</g>
<g style="fill:#000000; fill-opacity:0.0; 
stroke:#000000; stroke-width:59.0551; stroke-opacity:1; 
stroke-linecap:round; stroke-linejoin:round;">
<path d="M59843 29429
L59843 28602
" />
<path d="M59843 28602
L59292 28602
" />
<path d="M59292 28602
L59292 29429
" />
<path d="M59292 29429
L59843 29429
" />
<path d="M67992 35108
L68386 35108
" />
<path d="M68386 34576
L67992 34576
" />
<path d="M66772 35108
L67166 35108
" />
<path d="M67166 34576
L66772 34576
" />
<path d="M52008 39527
L54370 39527
" />
<path d="M54370 39527
L54370 37165
" />
<path d="M54370 37165
L52008 37165
" />
<path d="M52008 37165
L52008 39527
" />
<path d="M60582 35276
L60582 34882
" />
<path d="M60169 35239
L60188 35257
L60244 35276
L60282 35276
L60338 35257
L60375 35220
L60394 35182
L60413 35107
L60413 35051
L60394 34976
L60375 34939
L60338 34901
L60282 34882
L60244 34882
L60188 34901
L60169 34920
" />
<path d="M59794 35276
L60019 35276
" />
<path d="M59907 35276
L59907 34882
L59944 34939
L59982 34976
L60019 34995
" />
<path d="M62739 40007
L62765 40007
L62818 39981
L62845 39954
L62871 39901
L62871 39848
L62858 39808
L62818 39742
L62778 39702
L62712 39663
L62672 39649
L62619 39649
L62566 39676
L62540 39702
L62513 39755
L62513 39782
" />
<path d="M62394 39848
L62222 40020
L62421 40034
L62381 40074
L62367 40113
L62367 40140
L62381 40180
L62447 40246
L62487 40259
L62513 40259
L62553 40246
L62633 40166
L62646 40127
L62646 40100
" />
<path d="M57908 35177
L57935 35177
L57988 35150
L58014 35124
L58041 35071
L58041 35017
L58027 34978
L57988 34911
L57948 34872
L57882 34832
L57842 34819
L57789 34819
L57736 34845
L57709 34872
L57683 34925
L57683 34951
" />
<path d="M57418 35163
L57471 35110
L57510 35097
L57537 35097
L57603 35110
L57669 35150
L57775 35256
L57789 35296
L57789 35322
L57775 35362
L57722 35415
L57683 35428
L57656 35428
L57616 35415
L57550 35349
L57537 35309
L57537 35283
L57550 35243
L57603 35190
L57643 35177
L57669 35177
L57709 35190
" />
<path d="M53637 43839
L53637 43445
L53487 43445
L53450 43464
L53431 43483
L53412 43520
L53412 43577
L53431 43614
L53450 43633
L53487 43652
L53637 43652
" />
<path d="M53281 43445
L53037 43445
L53169 43595
L53112 43595
L53075 43614
L53056 43633
L53037 43670
L53037 43764
L53056 43802
L53075 43820
L53112 43839
L53225 43839
L53262 43820
L53281 43802
" />
<path d="M63290 40558
L63316 40558
L63369 40532
L63396 40505
L63422 40452
L63422 40399
L63409 40360
L63369 40293
L63330 40254
L63263 40214
L63224 40200
L63171 40200
L63118 40227
L63091 40254
L63064 40307
L63064 40333
" />
<path d="M63051 40850
L63210 40691
" />
<path d="M63131 40771
L62852 40492
L62919 40505
L62972 40505
L63011 40492
" />
<path d="M60529 34317
L60510 34336
L60492 34392
L60492 34430
L60510 34486
L60548 34523
L60585 34542
L60660 34561
L60717 34561
L60792 34542
L60829 34523
L60867 34486
L60885 34430
L60885 34392
L60867 34336
L60848 34317
" />
<path d="M60848 34167
L60867 34148
L60885 34111
L60885 34017
L60867 33980
L60848 33961
L60810 33942
L60773 33942
L60717 33961
L60492 34186
L60492 33942
" />
<path d="M61316 34317
L61298 34336
L61279 34392
L61279 34430
L61298 34486
L61335 34523
L61373 34542
L61448 34561
L61504 34561
L61579 34542
L61616 34523
L61654 34486
L61673 34430
L61673 34392
L61654 34336
L61635 34317
" />
<path d="M61541 33980
L61279 33980
" />
<path d="M61691 34073
L61410 34167
L61410 33923
" />
<path d="M55687 32939
L55668 32958
L55649 33014
L55649 33052
L55668 33108
L55705 33145
L55743 33164
L55818 33183
L55874 33183
L55949 33164
L55986 33145
L56024 33108
L56043 33052
L56043 33014
L56024 32958
L56005 32939
" />
<path d="M56043 32583
L56043 32770
L55855 32789
L55874 32770
L55893 32733
L55893 32639
L55874 32602
L55855 32583
L55818 32564
L55724 32564
L55687 32583
L55668 32602
L55649 32639
L55649 32733
L55668 32770
L55687 32789
" />
<path d="M60411 32227
L60430 32245
L60486 32264
L60523 32264
L60580 32245
L60617 32208
L60636 32170
L60655 32095
L60655 32039
L60636 31964
L60617 31927
L60580 31889
L60523 31871
L60486 31871
L60430 31889
L60411 31908
" />
<path d="M60036 32264
L60261 32264
" />
<path d="M60148 32264
L60148 31871
L60186 31927
L60223 31964
L60261 31983
" />
<path d="M59661 32264
L59886 32264
" />
<path d="M59774 32264
L59774 31871
L59811 31927
L59849 31964
L59886 31983
" />
<path d="M65116 31971
L65134 31990
L65191 32008
L65228 32008
L65284 31990
L65322 31952
L65341 31915
L65359 31840
L65359 31783
L65341 31708
L65322 31671
L65284 31633
L65228 31615
L65191 31615
L65134 31633
L65116 31652
" />
<path d="M64741 32008
L64966 32008
" />
<path d="M64853 32008
L64853 31615
L64891 31671
L64928 31708
L64966 31727
" />
<path d="M64591 31652
L64572 31633
L64534 31615
L64441 31615
L64403 31633
L64385 31652
L64366 31690
L64366 31727
L64385 31783
L64609 32008
L64366 32008
" />
<path d="M65805 28605
L65823 28623
L65880 28642
L65917 28642
L65973 28623
L66011 28586
L66030 28548
L66048 28473
L66048 28417
L66030 28342
L66011 28305
L65973 28267
L65917 28248
L65880 28248
L65823 28267
L65805 28286
" />
<path d="M65430 28642
L65655 28642
" />
<path d="M65542 28642
L65542 28248
L65580 28305
L65617 28342
L65655 28361
" />
<path d="M65298 28248
L65055 28248
L65186 28398
L65130 28398
L65092 28417
L65073 28436
L65055 28473
L65055 28567
L65073 28605
L65092 28623
L65130 28642
L65242 28642
L65280 28623
L65298 28605
" />
<path d="M68167 35219
L68186 35238
L68242 35256
L68279 35256
L68336 35238
L68373 35200
L68392 35163
L68411 35088
L68411 35031
L68392 34956
L68373 34919
L68336 34881
L68279 34863
L68242 34863
L68186 34881
L68167 34900
" />
<path d="M67792 35256
L68017 35256
" />
<path d="M67904 35256
L67904 34863
L67942 34919
L67979 34956
L68017 34975
" />
<path d="M67454 34994
L67454 35256
" />
<path d="M67548 34844
L67642 35125
L67398 35125
" />
<path d="M64387 33127
L64369 33145
L64350 33202
L64350 33239
L64369 33295
L64406 33333
L64444 33352
L64519 33370
L64575 33370
L64650 33352
L64687 33333
L64725 33295
L64744 33239
L64744 33202
L64725 33145
L64706 33127
" />
<path d="M64350 32752
L64350 32977
" />
<path d="M64350 32864
L64744 32864
L64687 32902
L64650 32939
L64631 32977
" />
<path d="M64744 32395
L64744 32583
L64556 32602
L64575 32583
L64594 32545
L64594 32452
L64575 32414
L64556 32395
L64519 32377
L64425 32377
L64387 32395
L64369 32414
L64350 32452
L64350 32545
L64369 32583
L64387 32602
" />
<path d="M66041 34038
L66060 34056
L66116 34075
L66153 34075
L66210 34056
L66247 34019
L66266 33982
L66285 33907
L66285 33850
L66266 33775
L66247 33738
L66210 33700
L66153 33682
L66116 33682
L66060 33700
L66041 33719
" />
<path d="M65666 34075
L65891 34075
" />
<path d="M65778 34075
L65778 33682
L65816 33738
L65853 33775
L65891 33794
" />
<path d="M65328 33682
L65403 33682
L65441 33700
L65460 33719
L65497 33775
L65516 33850
L65516 34000
L65497 34038
L65478 34056
L65441 34075
L65366 34075
L65328 34056
L65310 34038
L65291 34000
L65291 33907
L65310 33869
L65328 33850
L65366 33832
L65441 33832
L65478 33850
L65497 33869
L65516 33907
" />
<path d="M67340 36046
L67359 36064
L67415 36083
L67453 36083
L67509 36064
L67546 36027
L67565 35989
L67584 35914
L67584 35858
L67565 35783
L67546 35746
L67509 35708
L67453 35689
L67415 35689
L67359 35708
L67340 35727
" />
<path d="M66965 36083
L67190 36083
" />
<path d="M67078 36083
L67078 35689
L67115 35746
L67153 35783
L67190 35802
" />
<path d="M66834 35689
L66571 35689
L66740 36083
" />
<path d="M68639 37699
L68658 37718
L68714 37737
L68752 37737
L68808 37718
L68846 37680
L68864 37643
L68883 37568
L68883 37512
L68864 37437
L68846 37399
L68808 37362
L68752 37343
L68714 37343
L68658 37362
L68639 37380
" />
<path d="M68264 37737
L68489 37737
" />
<path d="M68377 37737
L68377 37343
L68414 37399
L68452 37437
L68489 37455
" />
<path d="M68039 37512
L68077 37493
L68096 37474
L68114 37437
L68114 37418
L68096 37380
L68077 37362
L68039 37343
L67964 37343
L67927 37362
L67908 37380
L67889 37418
L67889 37437
L67908 37474
L67927 37493
L67964 37512
L68039 37512
L68077 37530
L68096 37549
L68114 37587
L68114 37662
L68096 37699
L68077 37718
L68039 37737
L67964 37737
L67927 37718
L67908 37699
L67889 37662
L67889 37587
L67908 37549
L67927 37530
L67964 37512
" />
<path d="M58876 29038
L58894 29056
L58950 29075
L58988 29075
L59044 29056
L59082 29019
L59100 28982
L59119 28907
L59119 28850
L59100 28775
L59082 28738
L59044 28700
L58988 28682
L58950 28682
L58894 28700
L58876 28719
" />
<path d="M58501 29075
L58726 29075
" />
<path d="M58613 29075
L58613 28682
L58651 28738
L58688 28775
L58726 28794
" />
<path d="M58313 29075
L58238 29075
L58201 29056
L58182 29038
L58144 28982
L58126 28907
L58126 28757
L58144 28719
L58163 28700
L58201 28682
L58276 28682
L58313 28700
L58332 28719
L58351 28757
L58351 28850
L58332 28888
L58313 28907
L58276 28925
L58201 28925
L58163 28907
L58144 28888
L58126 28850
" />
<path d="M60135 27384
L60154 27403
L60210 27422
L60248 27422
L60304 27403
L60342 27365
L60360 27328
L60379 27253
L60379 27197
L60360 27122
L60342 27084
L60304 27047
L60248 27028
L60210 27028
L60154 27047
L60135 27065
" />
<path d="M59985 27065
L59967 27047
L59929 27028
L59835 27028
L59798 27047
L59779 27065
L59760 27103
L59760 27140
L59779 27197
L60004 27422
L59760 27422
" />
<path d="M59517 27028
L59479 27028
L59442 27047
L59423 27065
L59404 27103
L59385 27178
L59385 27272
L59404 27347
L59423 27384
L59442 27403
L59479 27422
L59517 27422
L59554 27403
L59573 27384
L59592 27347
L59610 27272
L59610 27178
L59592 27103
L59573 27065
L59554 27047
L59517 27028
" />
<path d="M68204 29922
L68204 29528
L68111 29528
L68054 29547
L68017 29584
L67998 29622
L67979 29697
L67979 29753
L67998 29828
L68017 29865
L68054 29903
L68111 29922
L68204 29922
" />
<path d="M67829 29565
L67811 29547
L67773 29528
L67679 29528
L67642 29547
L67623 29565
L67604 29603
L67604 29640
L67623 29697
L67848 29922
L67604 29922
" />
<path d="M58287 45188
L58681 45188
L58681 45038
L58662 45000
L58643 44982
L58606 44963
L58549 44963
L58512 44982
L58493 45000
L58474 45038
L58474 45188
" />
<path d="M58643 44813
L58662 44794
L58681 44757
L58681 44663
L58662 44625
L58643 44607
L58606 44588
L58568 44588
L58512 44607
L58287 44832
L58287 44588
" />
<path d="M57698 27281
L57717 27319
L57754 27356
L57811 27412
L57829 27450
L57829 27487
" />
<path d="M57736 27469
L57754 27506
L57792 27544
L57867 27562
L57998 27562
L58073 27544
L58111 27506
L58129 27469
L58129 27394
L58111 27356
L58073 27319
L57998 27300
L57867 27300
L57792 27319
L57754 27356
L57736 27394
L57736 27469
" />
<path d="M57736 26925
L57736 27150
" />
<path d="M57736 27037
L58129 27037
L58073 27075
L58036 27112
L58017 27150
" />
<path d="M56673 34120
L56860 34251
" />
<path d="M56673 34345
L57066 34345
L57066 34195
L57048 34158
L57029 34139
L56991 34120
L56935 34120
L56898 34139
L56879 34158
L56860 34195
L56860 34345
" />
<path d="M56673 33745
L56673 33970
" />
<path d="M56673 33858
L57066 33858
L57010 33895
L56973 33933
L56954 33970
" />
<path d="M56424 31989
L56555 31801
" />
<path d="M56649 31989
L56649 31595
L56499 31595
L56462 31614
L56443 31632
L56424 31670
L56424 31726
L56443 31764
L56462 31782
L56499 31801
L56649 31801
" />
<path d="M56274 31632
L56256 31614
L56218 31595
L56124 31595
L56087 31614
L56068 31632
L56049 31670
L56049 31707
L56068 31764
L56293 31989
L56049 31989
" />
<path d="M56444 31241
L56575 31053
" />
<path d="M56669 31241
L56669 30847
L56519 30847
L56481 30866
L56463 30884
L56444 30922
L56444 30978
L56463 31016
L56481 31034
L56519 31053
L56669 31053
" />
<path d="M56313 30847
L56069 30847
L56200 30997
L56144 30997
L56106 31016
L56088 31034
L56069 31072
L56069 31166
L56088 31203
L56106 31222
L56144 31241
L56256 31241
L56294 31222
L56313 31203
" />
<path d="M61326 32422
L61457 32234
" />
<path d="M61551 32422
L61551 32028
L61401 32028
L61363 32047
L61345 32065
L61326 32103
L61326 32159
L61345 32197
L61363 32215
L61401 32234
L61551 32234
" />
<path d="M60988 32028
L61063 32028
L61101 32047
L61120 32065
L61157 32122
L61176 32197
L61176 32347
L61157 32384
L61138 32403
L61101 32422
L61026 32422
L60988 32403
L60970 32384
L60951 32347
L60951 32253
L60970 32215
L60988 32197
L61026 32178
L61101 32178
L61138 32197
L61157 32215
L61176 32253
" />
<path d="M62507 32422
L62638 32234
" />
<path d="M62732 32422
L62732 32028
L62582 32028
L62544 32047
L62526 32065
L62507 32103
L62507 32159
L62526 32197
L62544 32215
L62582 32234
L62732 32234
" />
<path d="M62376 32028
L62113 32028
L62282 32422
" />
<path d="M65617 29449
L65748 29262
" />
<path d="M65842 29449
L65842 29056
L65692 29056
L65655 29074
L65636 29093
L65617 29131
L65617 29187
L65636 29224
L65655 29243
L65692 29262
L65842 29262
" />
<path d="M65392 29224
L65430 29206
L65448 29187
L65467 29149
L65467 29131
L65448 29093
L65430 29074
L65392 29056
L65317 29056
L65280 29074
L65261 29093
L65242 29131
L65242 29149
L65261 29187
L65280 29206
L65317 29224
L65392 29224
L65430 29243
L65448 29262
L65467 29299
L65467 29374
L65448 29412
L65430 29431
L65392 29449
L65317 29449
L65280 29431
L65261 29412
L65242 29374
L65242 29299
L65261 29262
L65280 29243
L65317 29224
" />
<path d="M65184 31319
L65315 31132
" />
<path d="M65409 31319
L65409 30926
L65259 30926
L65222 30944
L65203 30963
L65184 31001
L65184 31057
L65203 31094
L65222 31113
L65259 31132
L65409 31132
" />
<path d="M64997 31319
L64922 31319
L64884 31301
L64865 31282
L64828 31226
L64809 31151
L64809 31001
L64828 30963
L64847 30944
L64884 30926
L64959 30926
L64997 30944
L65015 30963
L65034 31001
L65034 31094
L65015 31132
L64997 31151
L64959 31169
L64884 31169
L64847 31151
L64828 31132
L64809 31094
" />
<path d="M68442 33603
L68574 33415
" />
<path d="M68667 33603
L68667 33209
L68517 33209
L68480 33228
L68461 33247
L68442 33284
L68442 33340
L68461 33378
L68480 33397
L68517 33415
L68667 33415
" />
<path d="M68067 33603
L68292 33603
" />
<path d="M68180 33603
L68180 33209
L68217 33265
L68255 33303
L68292 33322
" />
<path d="M67824 33209
L67786 33209
L67749 33228
L67730 33247
L67711 33284
L67693 33359
L67693 33453
L67711 33528
L67730 33565
L67749 33584
L67786 33603
L67824 33603
L67861 33584
L67880 33565
L67899 33528
L67918 33453
L67918 33359
L67899 33284
L67880 33247
L67861 33228
L67824 33209
" />
<path d="M67340 33603
L67471 33415
" />
<path d="M67565 33603
L67565 33209
L67415 33209
L67378 33228
L67359 33247
L67340 33284
L67340 33340
L67359 33378
L67378 33397
L67415 33415
L67565 33415
" />
<path d="M66965 33603
L67190 33603
" />
<path d="M67078 33603
L67078 33209
L67115 33265
L67153 33303
L67190 33322
" />
<path d="M66590 33603
L66815 33603
" />
<path d="M66703 33603
L66703 33209
L66740 33265
L66778 33303
L66815 33322
" />
<path d="M66001 33445
L66133 33258
" />
<path d="M66226 33445
L66226 33052
L66076 33052
L66039 33070
L66020 33089
L66001 33127
L66001 33183
L66020 33220
L66039 33239
L66076 33258
L66226 33258
" />
<path d="M65627 33445
L65852 33445
" />
<path d="M65739 33445
L65739 33052
L65777 33108
L65814 33145
L65852 33164
" />
<path d="M65477 33089
L65458 33070
L65420 33052
L65327 33052
L65289 33070
L65270 33089
L65252 33127
L65252 33164
L65270 33220
L65495 33445
L65252 33445
" />
<path d="M57303 29268
L57490 29400
" />
<path d="M57303 29493
L57696 29493
L57696 29343
L57678 29306
L57659 29287
L57621 29268
L57565 29268
L57528 29287
L57509 29306
L57490 29343
L57490 29493
" />
<path d="M57303 28893
L57303 29118
" />
<path d="M57303 29006
L57696 29006
L57640 29043
L57603 29081
L57584 29118
" />
<path d="M57696 28762
L57696 28518
L57546 28650
L57546 28593
L57528 28556
L57509 28537
L57471 28518
L57378 28518
L57340 28537
L57321 28556
L57303 28593
L57303 28706
L57321 28743
L57340 28762
" />
<path d="M69192 38127
L69380 38258
" />
<path d="M69192 38352
L69586 38352
L69586 38202
L69567 38164
L69549 38145
L69511 38127
L69455 38127
L69417 38145
L69399 38164
L69380 38202
L69380 38352
" />
<path d="M69192 37752
L69192 37977
" />
<path d="M69192 37864
L69586 37864
L69530 37902
L69492 37939
L69474 37977
" />
<path d="M69455 37414
L69192 37414
" />
<path d="M69605 37508
L69324 37602
L69324 37358
" />
<path d="M53793 30986
L53737 31004
L53643 31004
L53606 30986
L53587 30967
L53568 30929
L53568 30892
L53587 30854
L53606 30836
L53643 30817
L53718 30798
L53756 30779
L53774 30761
L53793 30723
L53793 30686
L53774 30648
L53756 30629
L53718 30611
L53624 30611
L53568 30629
" />
<path d="M53437 30611
L53343 31004
L53268 30723
L53193 31004
L53099 30611
" />
<path d="M52743 31004
L52968 31004
" />
<path d="M52856 31004
L52856 30611
L52893 30667
L52931 30704
L52968 30723
" />
<path d="M68228 29688
L67909 29688
L67872 29669
L67853 29650
L67834 29613
L67834 29538
L67853 29500
L67872 29481
L67909 29463
L68228 29463
" />
<path d="M67834 29069
L67834 29294
" />
<path d="M67834 29181
L68228 29181
L68172 29219
L68134 29256
L68115 29294
" />
<path d="M68720 38095
L68401 38095
L68364 38076
L68345 38057
L68326 38020
L68326 37945
L68345 37907
L68364 37889
L68401 37870
L68720 37870
" />
<path d="M68589 37514
L68326 37514
" />
<path d="M68739 37607
L68457 37701
L68457 37457
" />
<path d="M60492 29709
L60173 29709
L60135 29690
L60117 29671
L60098 29634
L60098 29559
L60117 29521
L60135 29503
L60173 29484
L60492 29484
" />
<path d="M60492 29109
L60492 29296
L60304 29315
L60323 29296
L60342 29259
L60342 29165
L60323 29128
L60304 29109
L60267 29090
L60173 29090
L60135 29109
L60117 29128
L60098 29165
L60098 29259
L60117 29296
L60135 29315
" />
<path d="M59867 27993
L59867 28311
L59849 28349
L59830 28368
L59792 28386
L59717 28386
L59680 28368
L59661 28349
L59642 28311
L59642 27993
" />
<path d="M59286 27993
L59361 27993
L59399 28011
L59417 28030
L59455 28086
L59474 28161
L59474 28311
L59455 28349
L59436 28368
L59399 28386
L59324 28386
L59286 28368
L59267 28349
L59249 28311
L59249 28218
L59267 28180
L59286 28161
L59324 28143
L59399 28143
L59436 28161
L59455 28180
L59474 28218
" />
<path d="M68442 34272
L68574 34085
" />
<path d="M68667 34272
L68667 33878
L68517 33878
L68480 33897
L68461 33916
L68442 33953
L68442 34010
L68461 34047
L68480 34066
L68517 34085
L68667 34085
" />
<path d="M68067 34272
L68292 34272
" />
<path d="M68180 34272
L68180 33878
L68217 33935
L68255 33972
L68292 33991
" />
<path d="M67711 33878
L67899 33878
L67918 34066
L67899 34047
L67861 34028
L67768 34028
L67730 34047
L67711 34066
L67693 34103
L67693 34197
L67711 34235
L67730 34253
L67768 34272
L67861 34272
L67899 34253
L67918 34235
" />
<path d="M67222 34272
L67353 34085
" />
<path d="M67447 34272
L67447 33878
L67297 33878
L67259 33897
L67241 33916
L67222 33953
L67222 34010
L67241 34047
L67259 34066
L67297 34085
L67447 34085
" />
<path d="M66847 34272
L67072 34272
" />
<path d="M66959 34272
L66959 33878
L66997 33935
L67034 33972
L67072 33991
" />
<path d="M66510 33878
L66585 33878
L66622 33897
L66641 33916
L66678 33972
L66697 34047
L66697 34197
L66678 34235
L66660 34253
L66622 34272
L66547 34272
L66510 34253
L66491 34235
L66472 34197
L66472 34103
L66491 34066
L66510 34047
L66547 34028
L66622 34028
L66660 34047
L66678 34066
L66697 34103
" />
<path d="M53714 36458
L53658 36477
L53564 36477
L53527 36458
L53508 36439
L53489 36402
L53489 36364
L53508 36327
L53527 36308
L53564 36289
L53639 36271
L53677 36252
L53696 36233
L53714 36196
L53714 36158
L53696 36121
L53677 36102
L53639 36083
L53546 36083
L53489 36102
" />
<path d="M53358 36083
L53264 36477
L53189 36196
L53114 36477
L53021 36083
" />
<path d="M52889 36121
L52871 36102
L52833 36083
L52739 36083
L52702 36102
L52683 36121
L52664 36158
L52664 36196
L52683 36252
L52908 36477
L52664 36477
" />
<path d="M52722 28150
L52722 28469
L52703 28506
L52684 28525
L52647 28544
L52572 28544
L52534 28525
L52515 28506
L52497 28469
L52497 28150
" />
<path d="M52328 28188
L52309 28169
L52272 28150
L52178 28150
L52140 28169
L52122 28188
L52103 28225
L52103 28263
L52122 28319
L52347 28544
L52103 28544
" />
</g> 
</svg>
