<?xml version="1.0" standalone="no"?>
 <!DOCTYPE svg PUBLIC "-//W3C//DTD SVG 1.1//EN" 
 "http://www.w3.org/Graphics/SVG/1.1/DTD/svg11.dtd"> 
<svg xmlns="http://www.w3.org/2000/svg" version="1.1" 
    width="29.7002cm" height="21.0007cm" viewBox="0 0 116930 82680 ">
<title>SVG Picture created as Sensor-F.SilkS.svg date 2016/03/06 20:55:53 </title>
  <desc>Picture generated by PCBNEW </desc>
<g style="fill:#000000; fill-opacity:1;stroke:#000000; stroke-opacity:1;
stroke-linecap:round; stroke-linejoin:round; "
 transform="translate(0 0) scale(1 1)">
</g>
<g style="fill:#000000; fill-opacity:0.0; 
stroke:#000000; stroke-width:-0.000393701; stroke-opacity:1; 
stroke-linecap:round; stroke-linejoin:round;">
</g>
<g style="fill:#000000; fill-opacity:0.0; 
stroke:#000000; stroke-width:39.3701; stroke-opacity:1; 
stroke-linecap:round; stroke-linejoin:round;">
<path d="M70276 46751
L70276 27263
" />
<path d="M50788 46751
L70276 46751
" />
<path d="M50788 27263
L50788 46751
" />
<path d="M70276 27263
L50788 27263
" />
</g>
<g style="fill:#000000; fill-opacity:0.0; 
stroke:#000000; stroke-width:59.0551; stroke-opacity:1; 
stroke-linecap:round; stroke-linejoin:round;">
<path d="M66132 39370
L66132 38976
" />
<path d="M65601 38976
L65601 39370
" />
<path d="M60426 41787
L60426 44787
" />
<path d="M60426 44787
L62426 44787
" />
<path d="M62426 44787
L62426 40787
" />
<path d="M62426 40787
L61426 40787
" />
<path d="M60315 41287
L60315 40677
" />
<path d="M61426 40787
L61426 41787
" />
<path d="M61426 41787
L60426 41787
" />
<path d="M60315 40677
L60926 40677
" />
<path d="M58268 30875
L57796 30875
" />
<path d="M57796 31564
L58268 31564
" />
<path d="M56870 28366
L56870 30728
" />
<path d="M56870 30728
L59233 30728
" />
<path d="M59233 30728
L59233 28366
" />
<path d="M59233 28366
L56870 28366
" />
<path d="M56162 38041
L56634 38041
" />
<path d="M56634 37352
L56162 37352
" />
<path d="M67746 44055
L67746 43582
" />
<path d="M67057 43582
L67057 44055
" />
<path d="M67588 42068
L68061 42068
" />
<path d="M68061 41379
L67588 41379
" />
<path d="M64292 29872
L63819 29872
" />
<path d="M63819 30561
L64292 30561
" />
<path d="M65473 31820
L65000 31820
" />
<path d="M65000 32509
L65473 32509
" />
<path d="M61496 29438
L61969 29438
" />
<path d="M61969 28750
L61496 28750
" />
<path d="M67372 33425
L67372 33897
" />
<path d="M68061 33897
L68061 33425
" />
<path d="M67796 32273
L68268 32273
" />
<path d="M68268 31584
L67796 31584
" />
<path d="M69036 27677
L69036 29803
" />
<path d="M69036 29803
L70138 29803
" />
<path d="M70138 29803
L70138 27677
" />
<path d="M70138 27677
L69036 27677
" />
<path d="M66752 39704
L67343 39704
" />
<path d="M67343 39704
L67343 38641
" />
<path d="M67343 38641
L66752 38641
" />
<path d="M66752 38641
L66752 39704
" />
<path d="M55985 39291
L56575 39291
" />
<path d="M56575 39291
L56575 38228
" />
<path d="M56575 38228
L55985 38228
" />
<path d="M55985 38228
L55985 39291
" />
<path d="M67028 32657
L67028 32066
" />
<path d="M67028 32066
L65965 32066
" />
<path d="M65965 32066
L65965 32657
" />
<path d="M65965 32657
L67028 32657
" />
<path d="M65561 43436
L66151 43436
" />
<path d="M66151 43436
L66151 42373
" />
<path d="M66151 42373
L65561 42373
" />
<path d="M65561 42373
L65561 43436
" />
<circle cx="68015" cy="30419.7" r="100" /> 
<path d="M68215 30619
L68215 29419
" />
<path d="M68215 29419
L65015 29419
" />
<path d="M65015 29419
L65015 30619
" />
<path d="M65015 30619
L68215 30619
" />
</g>
<g style="fill:#000000; fill-opacity:0.0; 
stroke:#000000; stroke-width:0; stroke-opacity:1; 
stroke-linecap:round; stroke-linejoin:round;">
<path d="M68612 44479
L69399 44479
" />
<path d="M69399 44479
L69399 43692
" />
<path d="M69399 43692
L68612 43692
" />
<path d="M68612 43692
L68612 44479
" />
</g>
<g style="fill:#000000; fill-opacity:0.0; 
stroke:#000000; stroke-width:59.0551; stroke-opacity:1; 
stroke-linecap:round; stroke-linejoin:round;">
<path d="M68100 43121
L68100 42294
" />
<path d="M68100 42294
L67549 42294
" />
<path d="M67549 42294
L67549 43121
" />
<path d="M67549 43121
L68100 43121
" />
<path d="M57835 32234
L58229 32234
" />
<path d="M58229 31702
L57835 31702
" />
<path d="M55187 35590
L55187 35196
" />
<path d="M54656 35196
L54656 35590
" />
<path d="M55443 38956
L55443 38562
" />
<path d="M54912 38562
L54912 38956
" />
<path d="M62678 30482
L63071 30482
" />
<path d="M63071 29950
L62678 29950
" />
<path d="M66693 33198
L66300 33198
" />
<path d="M66300 33730
L66693 33730
" />
<path d="M67678 28494
L68071 28494
" />
<path d="M68071 27962
L67678 27962
" />
<path d="M65433 32687
L65040 32687
" />
<path d="M65040 33218
L65433 33218
" />
<path d="M63977 31289
L64370 31289
" />
<path d="M64370 30757
L63977 30757
" />
<path d="M64341 42708
L64341 43101
" />
<path d="M64872 43101
L64872 42708
" />
<path d="M67983 35039
L67983 34645
" />
<path d="M67451 34645
L67451 35039
" />
<path d="M63189 28828
L62796 28828
" />
<path d="M62796 29360
L63189 29360
" />
<path d="M62796 28572
L63189 28572
" />
<path d="M63189 28041
L62796 28041
" />
<path d="M67874 32942
L68268 32942
" />
<path d="M68268 32411
L67874 32411
" />
<path d="M69311 30836
L68918 30836
" />
<path d="M68918 31368
L69311 31368
" />
<path d="M67963 38661
L67963 39055
" />
<path d="M68494 39055
L68494 38661
" />
<path d="M52666 30421
L55666 30421
" />
<path d="M55666 30421
L55666 28421
" />
<path d="M55666 28421
L51666 28421
" />
<path d="M51666 28421
L51666 29421
" />
<path d="M52166 30531
L51555 30531
" />
<path d="M51666 29421
L52666 29421
" />
<path d="M52666 29421
L52666 30421
" />
<path d="M51555 30531
L51555 29921
" />
<path d="M61181 40797
L61654 40797
" />
<path d="M61654 40108
L61181 40108
" />
<path d="M64940 39238
L65128 39370
" />
<path d="M64940 39463
L65334 39463
L65334 39313
L65315 39276
L65297 39257
L65259 39238
L65203 39238
L65165 39257
L65147 39276
L65128 39313
L65128 39463
" />
<path d="M65203 38901
L64940 38901
" />
<path d="M65353 38995
L65072 39088
L65072 38845
" />
<path d="M59566 41577
L59960 41577
L59960 41428
L59941 41390
L59923 41371
L59885 41353
L59829 41353
L59791 41371
L59773 41390
L59754 41428
L59754 41577
" />
<path d="M59960 41221
L59960 40978
L59810 41109
L59810 41053
L59791 41015
L59773 40996
L59735 40978
L59641 40978
L59604 40996
L59585 41015
L59566 41053
L59566 41165
L59585 41203
L59604 41221
" />
<path d="M59082 32030
L59100 32049
L59157 32067
L59194 32067
L59250 32049
L59288 32011
L59307 31974
L59325 31899
L59325 31842
L59307 31767
L59288 31730
L59250 31692
L59194 31674
L59157 31674
L59100 31692
L59082 31711
" />
<path d="M58726 31674
L58913 31674
L58932 31861
L58913 31842
L58876 31824
L58782 31824
L58744 31842
L58726 31861
L58707 31899
L58707 31992
L58726 32030
L58744 32049
L58782 32067
L58876 32067
L58913 32049
L58932 32030
" />
<path d="M59526 30072
L59507 30015
L59507 29922
L59526 29884
L59545 29865
L59582 29847
L59620 29847
L59657 29865
L59676 29884
L59695 29922
L59714 29997
L59732 30034
L59751 30053
L59789 30072
L59826 30072
L59864 30053
L59882 30034
L59901 29997
L59901 29903
L59882 29847
" />
<path d="M59901 29715
L59507 29622
L59789 29547
L59507 29472
L59901 29378
" />
<path d="M59507 29022
L59507 29247
" />
<path d="M59507 29134
L59901 29134
L59845 29172
L59807 29209
L59789 29247
" />
<path d="M56464 38624
L56482 38643
L56539 38662
L56576 38662
L56632 38643
L56670 38606
L56689 38568
L56707 38493
L56707 38437
L56689 38362
L56670 38324
L56632 38287
L56576 38268
L56539 38268
L56482 38287
L56464 38306
" />
<path d="M56332 38268
L56070 38268
L56239 38662
" />
<path d="M66474 43884
L66455 43903
L66436 43959
L66436 43997
L66455 44053
L66493 44090
L66530 44109
L66605 44128
L66661 44128
L66736 44109
L66774 44090
L66811 44053
L66830 43997
L66830 43959
L66811 43903
L66793 43884
" />
<path d="M66661 43659
L66680 43697
L66699 43715
L66736 43734
L66755 43734
L66793 43715
L66811 43697
L66830 43659
L66830 43584
L66811 43547
L66793 43528
L66755 43509
L66736 43509
L66699 43528
L66680 43547
L66661 43584
L66661 43659
L66643 43697
L66624 43715
L66586 43734
L66511 43734
L66474 43715
L66455 43697
L66436 43659
L66436 43584
L66455 43547
L66474 43528
L66511 43509
L66586 43509
L66624 43528
L66643 43547
L66661 43584
" />
<path d="M67890 41037
L67909 41056
L67965 41075
L68003 41075
L68059 41056
L68096 41019
L68115 40981
L68134 40906
L68134 40850
L68115 40775
L68096 40737
L68059 40700
L68003 40681
L67965 40681
L67909 40700
L67890 40719
" />
<path d="M67703 41075
L67628 41075
L67590 41056
L67572 41037
L67534 40981
L67515 40906
L67515 40756
L67534 40719
L67553 40700
L67590 40681
L67665 40681
L67703 40700
L67722 40719
L67740 40756
L67740 40850
L67722 40887
L67703 40906
L67665 40925
L67590 40925
L67553 40906
L67534 40887
L67515 40850
" />
<path d="M64309 29569
L64327 29588
L64384 29607
L64421 29607
L64477 29588
L64515 29550
L64534 29513
L64552 29438
L64552 29382
L64534 29307
L64515 29269
L64477 29232
L64421 29213
L64384 29213
L64327 29232
L64309 29251
" />
<path d="M63934 29607
L64159 29607
" />
<path d="M64046 29607
L64046 29213
L64084 29269
L64121 29307
L64159 29326
" />
<path d="M63690 29213
L63652 29213
L63615 29232
L63596 29251
L63577 29288
L63559 29363
L63559 29457
L63577 29532
L63596 29569
L63615 29588
L63652 29607
L63690 29607
L63727 29588
L63746 29569
L63765 29532
L63784 29457
L63784 29363
L63765 29288
L63746 29251
L63727 29232
L63690 29213
" />
<path d="M64151 32305
L64170 32324
L64226 32343
L64264 32343
L64320 32324
L64357 32287
L64376 32249
L64395 32174
L64395 32118
L64376 32043
L64357 32005
L64320 31968
L64264 31949
L64226 31949
L64170 31968
L64151 31987
" />
<path d="M63776 32343
L64001 32343
" />
<path d="M63889 32343
L63889 31949
L63926 32005
L63964 32043
L64001 32062
" />
<path d="M63401 32343
L63626 32343
" />
<path d="M63514 32343
L63514 31949
L63551 32005
L63589 32043
L63626 32062
" />
<path d="M61986 28408
L62004 28427
L62061 28445
L62098 28445
L62154 28427
L62192 28389
L62211 28352
L62229 28277
L62229 28220
L62211 28145
L62192 28108
L62154 28070
L62098 28052
L62061 28052
L62004 28070
L61986 28089
" />
<path d="M61611 28445
L61836 28445
" />
<path d="M61723 28445
L61723 28052
L61761 28108
L61798 28145
L61836 28164
" />
<path d="M61461 28089
L61442 28070
L61405 28052
L61311 28052
L61273 28070
L61255 28089
L61236 28127
L61236 28164
L61255 28220
L61480 28445
L61236 28445
" />
<path d="M68285 33914
L68266 33933
L68247 33989
L68247 34026
L68266 34083
L68304 34120
L68341 34139
L68416 34158
L68472 34158
L68547 34139
L68585 34120
L68622 34083
L68641 34026
L68641 33989
L68622 33933
L68604 33914
" />
<path d="M68247 33539
L68247 33764
" />
<path d="M68247 33652
L68641 33652
L68585 33689
L68547 33727
L68529 33764
" />
<path d="M68641 33408
L68641 33164
L68491 33295
L68491 33239
L68472 33202
L68454 33183
L68416 33164
L68322 33164
L68285 33183
L68266 33202
L68247 33239
L68247 33352
L68266 33389
L68285 33408
" />
<path d="M69505 32069
L69524 32088
L69580 32107
L69618 32107
L69674 32088
L69712 32050
L69730 32013
L69749 31938
L69749 31882
L69730 31807
L69712 31769
L69674 31732
L69618 31713
L69580 31713
L69524 31732
L69505 31751
" />
<path d="M69130 32107
L69355 32107
" />
<path d="M69243 32107
L69243 31713
L69280 31769
L69318 31807
L69355 31826
" />
<path d="M68793 31844
L68793 32107
" />
<path d="M68887 31694
L68980 31976
L68737 31976
" />
<path d="M68476 28530
L68870 28530
L68870 28437
L68851 28380
L68813 28343
L68776 28324
L68701 28305
L68645 28305
L68570 28324
L68532 28343
L68495 28380
L68476 28437
L68476 28530
" />
<path d="M68832 28155
L68851 28137
L68870 28099
L68870 28005
L68851 27968
L68832 27949
L68795 27930
L68757 27930
L68701 27949
L68476 28174
L68476 27930
" />
<path d="M63838 36742
L64232 36742
" />
<path d="M63876 36330
L63857 36348
L63838 36405
L63838 36442
L63857 36498
L63894 36536
L63932 36555
L64007 36573
L64063 36573
L64138 36555
L64175 36536
L64213 36498
L64232 36442
L64232 36405
L64213 36348
L64194 36330
" />
<path d="M63838 35955
L63838 36180
" />
<path d="M63838 36067
L64232 36067
L64175 36105
L64138 36142
L64119 36180
" />
<path d="M66832 38226
L66851 38263
L66888 38301
L66944 38357
L66963 38395
L66963 38432
" />
<path d="M66870 38413
L66888 38451
L66926 38488
L67001 38507
L67132 38507
L67207 38488
L67244 38451
L67263 38413
L67263 38338
L67244 38301
L67207 38263
L67132 38245
L67001 38245
L66926 38263
L66888 38301
L66870 38338
L66870 38413
" />
<path d="M66870 37870
L66870 38095
" />
<path d="M66870 37982
L67263 37982
L67207 38020
L67169 38057
L67151 38095
" />
<path d="M56317 39959
L56355 39940
L56392 39903
L56449 39847
L56486 39828
L56524 39828
" />
<path d="M56505 39922
L56542 39903
L56580 39865
L56599 39790
L56599 39659
L56580 39584
L56542 39547
L56505 39528
L56430 39528
L56392 39547
L56355 39584
L56336 39659
L56336 39790
L56355 39865
L56392 39903
L56430 39922
L56505 39922
" />
<path d="M56186 39565
L56167 39547
L56130 39528
L56036 39528
L55999 39547
L55980 39565
L55961 39603
L55961 39640
L55980 39697
L56205 39922
L55961 39922
" />
<path d="M67108 32399
L67126 32437
L67164 32474
L67220 32530
L67239 32568
L67239 32605
" />
<path d="M67145 32587
L67164 32624
L67201 32662
L67276 32680
L67408 32680
L67483 32662
L67520 32624
L67539 32587
L67539 32512
L67520 32474
L67483 32437
L67408 32418
L67276 32418
L67201 32437
L67164 32474
L67145 32512
L67145 32587
" />
<path d="M67408 32080
L67145 32080
" />
<path d="M67558 32174
L67276 32268
L67276 32024
" />
<path d="M65894 41939
L65931 41920
L65969 41883
L66025 41827
L66062 41808
L66100 41808
" />
<path d="M66081 41902
L66119 41883
L66156 41845
L66175 41770
L66175 41639
L66156 41564
L66119 41527
L66081 41508
L66006 41508
L65969 41527
L65931 41564
L65912 41639
L65912 41770
L65931 41845
L65969 41883
L66006 41902
L66081 41902
" />
<path d="M65556 41508
L65744 41508
L65762 41695
L65744 41677
L65706 41658
L65612 41658
L65575 41677
L65556 41695
L65537 41733
L65537 41827
L65556 41864
L65575 41883
L65612 41902
L65706 41902
L65744 41883
L65762 41864
" />
<path d="M66934 27934
L66934 28252
L66915 28290
L66897 28308
L66859 28327
L66784 28327
L66747 28308
L66728 28290
L66709 28252
L66709 27934
" />
<path d="M66540 27971
L66522 27952
L66484 27934
L66391 27934
L66353 27952
L66334 27971
L66316 28008
L66316 28046
L66334 28102
L66559 28327
L66316 28327
" />
<path d="M69306 44854
L69306 45173
L69287 45211
L69268 45229
L69231 45248
L69156 45248
L69118 45229
L69099 45211
L69081 45173
L69081 44854
" />
<path d="M68931 44854
L68687 44854
L68818 45004
L68762 45004
L68725 45023
L68706 45042
L68687 45079
L68687 45173
L68706 45211
L68725 45229
L68762 45248
L68875 45248
L68912 45229
L68931 45211
" />
<path d="M69221 43008
L68903 43008
L68865 42989
L68846 42970
L68828 42933
L68828 42858
L68846 42820
L68865 42802
L68903 42783
L69221 42783
" />
<path d="M69090 42427
L68828 42427
" />
<path d="M69240 42520
L68959 42614
L68959 42370
" />
<path d="M58097 32737
L58229 32549
" />
<path d="M58322 32737
L58322 32343
L58172 32343
L58135 32362
L58116 32380
L58097 32418
L58097 32474
L58116 32512
L58135 32530
L58172 32549
L58322 32549
" />
<path d="M57723 32737
L57947 32737
" />
<path d="M57835 32737
L57835 32343
L57873 32399
L57910 32437
L57947 32455
" />
<path d="M53995 35459
L54183 35590
" />
<path d="M53995 35684
L54389 35684
L54389 35534
L54370 35496
L54352 35478
L54314 35459
L54258 35459
L54220 35478
L54202 35496
L54183 35534
L54183 35684
" />
<path d="M54389 35328
L54389 35084
L54239 35215
L54239 35159
L54220 35121
L54202 35103
L54164 35084
L54070 35084
L54033 35103
L54014 35121
L53995 35159
L53995 35271
L54014 35309
L54033 35328
" />
<path d="M54251 38825
L54439 38956
" />
<path d="M54251 39050
L54645 39050
L54645 38900
L54626 38862
L54608 38844
L54570 38825
L54514 38825
L54476 38844
L54458 38862
L54439 38900
L54439 39050
" />
<path d="M54645 38469
L54645 38656
L54458 38675
L54476 38656
L54495 38619
L54495 38525
L54476 38488
L54458 38469
L54420 38450
L54326 38450
L54289 38469
L54270 38488
L54251 38525
L54251 38619
L54270 38656
L54289 38675
" />
<path d="M62960 31083
L63091 30896
" />
<path d="M63185 31083
L63185 30689
L63035 30689
L62997 30708
L62978 30727
L62960 30764
L62960 30821
L62978 30858
L62997 30877
L63035 30896
L63185 30896
" />
<path d="M62622 30689
L62697 30689
L62735 30708
L62753 30727
L62791 30783
L62810 30858
L62810 31008
L62791 31046
L62772 31064
L62735 31083
L62660 31083
L62622 31064
L62603 31046
L62585 31008
L62585 30914
L62603 30877
L62622 30858
L62660 30839
L62735 30839
L62772 30858
L62791 30877
L62810 30914
" />
<path d="M66562 34390
L66693 34203
" />
<path d="M66787 34390
L66787 33997
L66637 33997
L66600 34015
L66581 34034
L66562 34071
L66562 34128
L66581 34165
L66600 34184
L66637 34203
L66787 34203
" />
<path d="M66431 33997
L66168 33997
L66337 34390
" />
<path d="M67936 27811
L68067 27624
" />
<path d="M68161 27811
L68161 27418
L68011 27418
L67974 27437
L67955 27455
L67936 27493
L67936 27549
L67955 27586
L67974 27605
L68011 27624
L68161 27624
" />
<path d="M67711 27586
L67749 27568
L67767 27549
L67786 27511
L67786 27493
L67767 27455
L67749 27437
L67711 27418
L67636 27418
L67599 27437
L67580 27455
L67561 27493
L67561 27511
L67580 27549
L67599 27568
L67636 27586
L67711 27586
L67749 27605
L67767 27624
L67786 27661
L67786 27736
L67767 27774
L67749 27793
L67711 27811
L67636 27811
L67599 27793
L67580 27774
L67561 27736
L67561 27661
L67580 27624
L67599 27605
L67636 27586
" />
<path d="M65302 33878
L65433 33691
" />
<path d="M65527 33878
L65527 33485
L65377 33485
L65340 33503
L65321 33522
L65302 33560
L65302 33616
L65321 33653
L65340 33672
L65377 33691
L65527 33691
" />
<path d="M65115 33878
L65040 33878
L65002 33860
L64983 33841
L64946 33785
L64927 33710
L64927 33560
L64946 33522
L64965 33503
L65002 33485
L65077 33485
L65115 33503
L65133 33522
L65152 33560
L65152 33653
L65133 33691
L65115 33710
L65077 33728
L65002 33728
L64965 33710
L64946 33691
L64927 33653
" />
<path d="M64427 31792
L64558 31604
" />
<path d="M64652 31792
L64652 31398
L64502 31398
L64464 31417
L64445 31436
L64427 31473
L64427 31529
L64445 31567
L64464 31586
L64502 31604
L64652 31604
" />
<path d="M64052 31792
L64277 31792
" />
<path d="M64164 31792
L64164 31398
L64202 31454
L64239 31492
L64277 31511
" />
<path d="M63808 31398
L63771 31398
L63733 31417
L63714 31436
L63696 31473
L63677 31548
L63677 31642
L63696 31717
L63714 31754
L63733 31773
L63771 31792
L63808 31792
L63846 31773
L63864 31754
L63883 31717
L63902 31642
L63902 31548
L63883 31473
L63864 31436
L63846 31417
L63808 31398
" />
<path d="M63759 43158
L63947 43289
" />
<path d="M63759 43383
L64153 43383
L64153 43233
L64134 43195
L64115 43176
L64078 43158
L64022 43158
L63984 43176
L63965 43195
L63947 43233
L63947 43383
" />
<path d="M63759 42783
L63759 43008
" />
<path d="M63759 42895
L64153 42895
L64097 42933
L64059 42970
L64040 43008
" />
<path d="M63759 42408
L63759 42633
" />
<path d="M63759 42520
L64153 42520
L64097 42558
L64059 42595
L64040 42633
" />
<path d="M68208 35095
L68396 35226
" />
<path d="M68208 35320
L68602 35320
L68602 35170
L68583 35133
L68564 35114
L68527 35095
L68471 35095
L68433 35114
L68414 35133
L68396 35170
L68396 35320
" />
<path d="M68208 34720
L68208 34945
" />
<path d="M68208 34833
L68602 34833
L68546 34870
L68508 34908
L68489 34945
" />
<path d="M68564 34570
L68583 34551
L68602 34514
L68602 34420
L68583 34383
L68564 34364
L68527 34345
L68489 34345
L68433 34364
L68208 34589
L68208 34345
" />
<path d="M64328 28819
L64459 28632
" />
<path d="M64553 28819
L64553 28426
L64403 28426
L64366 28444
L64347 28463
L64328 28501
L64328 28557
L64347 28594
L64366 28613
L64403 28632
L64553 28632
" />
<path d="M63953 28819
L64178 28819
" />
<path d="M64066 28819
L64066 28426
L64103 28482
L64141 28519
L64178 28538
" />
<path d="M63822 28426
L63578 28426
L63710 28576
L63653 28576
L63616 28594
L63597 28613
L63578 28651
L63578 28744
L63597 28782
L63616 28801
L63653 28819
L63766 28819
L63803 28801
L63822 28782
" />
<path d="M63246 27934
L63377 27746
" />
<path d="M63471 27934
L63471 27540
L63321 27540
L63283 27559
L63264 27577
L63246 27615
L63246 27671
L63264 27709
L63283 27727
L63321 27746
L63471 27746
" />
<path d="M62871 27934
L63096 27934
" />
<path d="M62983 27934
L62983 27540
L63021 27596
L63058 27634
L63096 27652
" />
<path d="M62533 27671
L62533 27934
" />
<path d="M62627 27521
L62721 27802
L62477 27802
" />
<path d="M69427 32855
L69558 32667
" />
<path d="M69652 32855
L69652 32461
L69502 32461
L69464 32480
L69445 32499
L69427 32536
L69427 32592
L69445 32630
L69464 32649
L69502 32667
L69652 32667
" />
<path d="M69052 32855
L69277 32855
" />
<path d="M69164 32855
L69164 32461
L69202 32517
L69239 32555
L69277 32574
" />
<path d="M68696 32461
L68883 32461
L68902 32649
L68883 32630
L68846 32611
L68752 32611
L68714 32630
L68696 32649
L68677 32686
L68677 32780
L68696 32817
L68714 32836
L68752 32855
L68846 32855
L68883 32836
L68902 32817
" />
<path d="M69368 30689
L69499 30502
" />
<path d="M69593 30689
L69593 30296
L69443 30296
L69405 30314
L69386 30333
L69368 30371
L69368 30427
L69386 30464
L69405 30483
L69443 30502
L69593 30502
" />
<path d="M68993 30689
L69218 30689
" />
<path d="M69105 30689
L69105 30296
L69143 30352
L69180 30389
L69218 30408
" />
<path d="M68655 30296
L68730 30296
L68768 30314
L68786 30333
L68824 30389
L68843 30464
L68843 30614
L68824 30652
L68805 30671
L68768 30689
L68693 30689
L68655 30671
L68636 30652
L68618 30614
L68618 30521
L68636 30483
L68655 30464
L68693 30446
L68768 30446
L68805 30464
L68824 30483
L68843 30521
" />
<path d="M68799 39111
L68986 39242
" />
<path d="M68799 39336
L69192 39336
L69192 39186
L69174 39148
L69155 39130
L69117 39111
L69061 39111
L69024 39130
L69005 39148
L68986 39186
L68986 39336
" />
<path d="M68799 38736
L68799 38961
" />
<path d="M68799 38848
L69192 38848
L69136 38886
L69099 38923
L69080 38961
" />
<path d="M69192 38605
L69192 38342
L68799 38511
" />
<path d="M52126 31162
L52126 30768
L51976 30768
L51938 30787
L51919 30806
L51901 30843
L51901 30899
L51919 30937
L51938 30956
L51976 30974
L52126 30974
" />
<path d="M51526 31162
L51751 31162
" />
<path d="M51638 31162
L51638 30768
L51676 30824
L51713 30862
L51751 30881
" />
<path d="M61671 39766
L61690 39785
L61746 39804
L61783 39804
L61840 39785
L61877 39747
L61896 39710
L61915 39635
L61915 39579
L61896 39504
L61877 39466
L61840 39429
L61783 39410
L61746 39410
L61690 39429
L61671 39447
" />
<path d="M61296 39804
L61521 39804
" />
<path d="M61408 39804
L61408 39410
L61446 39466
L61483 39504
L61521 39522
" />
<path d="M60940 39410
L61127 39410
L61146 39597
L61127 39579
L61090 39560
L60996 39560
L60958 39579
L60940 39597
L60921 39635
L60921 39729
L60940 39766
L60958 39785
L60996 39804
L61090 39804
L61127 39785
L61146 39766
" />
</g> 
</svg>
