<?xml version="1.0" standalone="no"?>
 <!DOCTYPE svg PUBLIC "-//W3C//DTD SVG 1.1//EN" 
 "http://www.w3.org/Graphics/SVG/1.1/DTD/svg11.dtd"> 
<svg xmlns="http://www.w3.org/2000/svg" version="1.1" 
    width="29.7002cm" height="21.0007cm" viewBox="0 0 116930 82680 ">
<title>SVG Picture created as Sensor-Cmts.User.svg date 2016/08/15 13:14:21 </title>
  <desc>Picture generated by PCBNEW </desc>
<g style="fill:#000000; fill-opacity:1;stroke:#000000; stroke-opacity:1;
stroke-linecap:round; stroke-linejoin:round; "
 transform="translate(0 0) scale(1 1)">
</g>
<g style="fill:#000000; fill-opacity:0.0; 
stroke:#000000; stroke-width:-0.000393701; stroke-opacity:1; 
stroke-linecap:round; stroke-linejoin:round;">
</g>
<g style="fill:#000000; fill-opacity:0.0; 
stroke:#000000; stroke-width:39.3701; stroke-opacity:1; 
stroke-linecap:round; stroke-linejoin:round;">
<path d="M46614 46574
L65905 46574
" />
<path d="M46614 27283
L46614 46574
" />
<path d="M65905 27283
L46614 27283
" />
<path d="M65905 46574
L65905 27283
" />
</g>
<g style="fill:#000000; fill-opacity:0.0; 
stroke:#000000; stroke-width:78.7402; stroke-opacity:1; 
stroke-linecap:round; stroke-linejoin:round;">
<path d="M46830 45649
L58641 45649
" />
<path d="M46830 39350
L46830 45649
" />
<path d="M58641 39350
L46830 39350
" />
<path d="M58641 45649
L58641 39350
" />
</g>
<g style="fill:#000000; fill-opacity:0.0; 
stroke:#000000; stroke-width:118.11; stroke-opacity:1; 
stroke-linecap:round; stroke-linejoin:round;">
<path d="M71719 34763
L71326 34763
" />
<path d="M71944 34623
L71523 34482
L71523 34848
" />
<path d="M71326 35101
L71326 35213
L71354 35269
L71382 35298
L71466 35354
L71579 35382
L71804 35382
L71860 35354
L71888 35326
L71916 35269
L71916 35157
L71888 35101
L71860 35073
L71804 35044
L71663 35044
L71607 35073
L71579 35101
L71551 35157
L71551 35269
L71579 35326
L71607 35354
L71663 35382
" />
<path d="M71354 35663
L71326 35663
L71269 35635
L71241 35607
" />
<path d="M71916 36029
L71916 36085
L71888 36141
L71860 36169
L71804 36197
L71691 36226
L71551 36226
L71438 36197
L71382 36169
L71354 36141
L71326 36085
L71326 36029
L71354 35973
L71382 35944
L71438 35916
L71551 35888
L71691 35888
L71804 35916
L71860 35944
L71888 35973
L71916 36029
" />
<path d="M71916 36591
L71916 36647
L71888 36704
L71860 36732
L71804 36760
L71691 36788
L71551 36788
L71438 36760
L71382 36732
L71354 36704
L71326 36647
L71326 36591
L71354 36535
L71382 36507
L71438 36479
L71551 36451
L71691 36451
L71804 36479
L71860 36507
L71888 36535
L71916 36591
" />
<path d="M71916 37154
L71916 37210
L71888 37266
L71860 37294
L71804 37322
L71691 37350
L71551 37350
L71438 37322
L71382 37294
L71354 37266
L71326 37210
L71326 37154
L71354 37097
L71382 37069
L71438 37041
L71551 37013
L71691 37013
L71804 37041
L71860 37069
L71888 37097
L71916 37154
" />
<path d="M71326 38053
L71719 38053
" />
<path d="M71663 38053
L71691 38082
L71719 38138
L71719 38222
L71691 38278
L71635 38307
L71326 38307
" />
<path d="M71635 38307
L71691 38335
L71719 38391
L71719 38475
L71691 38532
L71635 38560
L71326 38560
" />
<path d="M71326 38841
L71719 38841
" />
<path d="M71663 38841
L71691 38869
L71719 38925
L71719 39010
L71691 39066
L71635 39094
L71326 39094
" />
<path d="M71635 39094
L71691 39122
L71719 39178
L71719 39263
L71691 39319
L71635 39347
L71326 39347
" />
<path d="M71061 27283
L71061 46574
" />
<path d="M65905 27283
L72124 27283
" />
<path d="M65905 46574
L72124 46574
" />
<path d="M71061 46574
L70831 46131
" />
<path d="M71061 46574
L71292 46131
" />
<path d="M71061 27283
L70831 27726
" />
<path d="M71061 27283
L71292 27726
" />
<path d="M54094 22530
L54094 22924
" />
<path d="M53953 22305
L53813 22727
L54178 22727
" />
<path d="M54431 22924
L54544 22924
L54600 22896
L54628 22868
L54685 22784
L54713 22671
L54713 22446
L54685 22390
L54656 22362
L54600 22334
L54488 22334
L54431 22362
L54403 22390
L54375 22446
L54375 22587
L54403 22643
L54431 22671
L54488 22699
L54600 22699
L54656 22671
L54685 22643
L54713 22587
" />
<path d="M54994 22896
L54994 22924
L54966 22980
L54938 23008
" />
<path d="M55359 22334
L55416 22334
L55472 22362
L55500 22390
L55528 22446
L55556 22559
L55556 22699
L55528 22812
L55500 22868
L55472 22896
L55416 22924
L55359 22924
L55303 22896
L55275 22868
L55247 22812
L55219 22699
L55219 22559
L55247 22446
L55275 22390
L55303 22362
L55359 22334
" />
<path d="M55922 22334
L55978 22334
L56034 22362
L56062 22390
L56091 22446
L56119 22559
L56119 22699
L56091 22812
L56062 22868
L56034 22896
L55978 22924
L55922 22924
L55866 22896
L55838 22868
L55809 22812
L55781 22699
L55781 22559
L55809 22446
L55838 22390
L55866 22362
L55922 22334
" />
<path d="M56484 22334
L56541 22334
L56597 22362
L56625 22390
L56653 22446
L56681 22559
L56681 22699
L56653 22812
L56625 22868
L56597 22896
L56541 22924
L56484 22924
L56428 22896
L56400 22868
L56372 22812
L56344 22699
L56344 22559
L56372 22446
L56400 22390
L56428 22362
L56484 22334
" />
<path d="M57384 22924
L57384 22530
" />
<path d="M57384 22587
L57412 22559
L57469 22530
L57553 22530
L57609 22559
L57637 22615
L57637 22924
" />
<path d="M57637 22615
L57665 22559
L57722 22530
L57806 22530
L57862 22559
L57890 22615
L57890 22924
" />
<path d="M58172 22924
L58172 22530
" />
<path d="M58172 22587
L58200 22559
L58256 22530
L58340 22530
L58397 22559
L58425 22615
L58425 22924
" />
<path d="M58425 22615
L58453 22559
L58509 22530
L58593 22530
L58650 22559
L58678 22615
L58678 22924
" />
<path d="M46614 23188
L65905 23188
" />
<path d="M46614 27283
L46614 22125
" />
<path d="M65905 27283
L65905 22125
" />
<path d="M65905 23188
L65462 23419
" />
<path d="M65905 23188
L65462 22958
" />
<path d="M46614 23188
L47057 23419
" />
<path d="M46614 23188
L47057 22958
" />
</g> 
</svg>
