<?xml version="1.0" standalone="no"?>
 <!DOCTYPE svg PUBLIC "-//W3C//DTD SVG 1.1//EN" 
 "http://www.w3.org/Graphics/SVG/1.1/DTD/svg11.dtd"> 
<svg xmlns="http://www.w3.org/2000/svg" version="1.1" 
    width="29.7002cm" height="21.0007cm" viewBox="0 0 116930 82680 ">
<title>SVG Picture created as Sensor-Cmts.User.svg date 2016/03/06 20:55:44 </title>
  <desc>Picture generated by PCBNEW </desc>
<g style="fill:#000000; fill-opacity:1;stroke:#000000; stroke-opacity:1;
stroke-linecap:round; stroke-linejoin:round; "
 transform="translate(0 0) scale(1 1)">
</g>
<g style="fill:#000000; fill-opacity:0.0; 
stroke:#000000; stroke-width:-0.000393701; stroke-opacity:1; 
stroke-linecap:round; stroke-linejoin:round;">
</g>
<g style="fill:#000000; fill-opacity:0.0; 
stroke:#000000; stroke-width:39.3701; stroke-opacity:1; 
stroke-linecap:round; stroke-linejoin:round;">
<path d="M46653 46751
L46653 27263
" />
<path d="M66141 46751
L46653 46751
" />
<path d="M66141 27263
L66141 46751
" />
<path d="M46653 27263
L66141 27263
" />
</g>
<g style="fill:#000000; fill-opacity:0.0; 
stroke:#000000; stroke-width:118.11; stroke-opacity:1; 
stroke-linecap:round; stroke-linejoin:round;">
<path d="M72902 34842
L72508 34842
" />
<path d="M73127 34701
L72705 34561
L72705 34926
" />
<path d="M72508 35179
L72508 35292
L72536 35348
L72564 35376
L72649 35433
L72761 35461
L72986 35461
L73042 35433
L73070 35404
L73098 35348
L73098 35236
L73070 35179
L73042 35151
L72986 35123
L72845 35123
L72789 35151
L72761 35179
L72733 35236
L72733 35348
L72761 35404
L72789 35433
L72845 35461
" />
<path d="M72536 35742
L72508 35742
L72452 35714
L72424 35686
" />
<path d="M73098 36276
L73098 35995
L72817 35967
L72845 35995
L72874 36051
L72874 36192
L72845 36248
L72817 36276
L72761 36304
L72620 36304
L72564 36276
L72536 36248
L72508 36192
L72508 36051
L72536 35995
L72564 35967
" />
<path d="M73098 36670
L73098 36726
L73070 36782
L73042 36811
L72986 36839
L72874 36867
L72733 36867
L72620 36839
L72564 36811
L72536 36782
L72508 36726
L72508 36670
L72536 36614
L72564 36586
L72620 36557
L72733 36529
L72874 36529
L72986 36557
L73042 36586
L73070 36614
L73098 36670
" />
<path d="M73098 37232
L73098 37289
L73070 37345
L73042 37373
L72986 37401
L72874 37429
L72733 37429
L72620 37401
L72564 37373
L72536 37345
L72508 37289
L72508 37232
L72536 37176
L72564 37148
L72620 37120
L72733 37092
L72874 37092
L72986 37120
L73042 37148
L73070 37176
L73098 37232
" />
<path d="M72508 38132
L72902 38132
" />
<path d="M72845 38132
L72874 38160
L72902 38217
L72902 38301
L72874 38357
L72817 38385
L72508 38385
" />
<path d="M72817 38385
L72874 38413
L72902 38470
L72902 38554
L72874 38610
L72817 38638
L72508 38638
" />
<path d="M72508 38920
L72902 38920
" />
<path d="M72845 38920
L72874 38948
L72902 39004
L72902 39088
L72874 39145
L72817 39173
L72508 39173
" />
<path d="M72817 39173
L72874 39201
L72902 39257
L72902 39341
L72874 39398
L72817 39426
L72508 39426
" />
<path d="M72244 27263
L72244 46751
" />
<path d="M66141 27263
L73307 27263
" />
<path d="M66141 46751
L73307 46751
" />
<path d="M72244 46751
L72013 46308
" />
<path d="M72244 46751
L72474 46308
" />
<path d="M72244 27263
L72013 27707
" />
<path d="M72244 27263
L72474 27707
" />
<path d="M54232 22357
L54232 22751
" />
<path d="M54091 22132
L53951 22554
L54316 22554
" />
<path d="M54569 22751
L54682 22751
L54738 22723
L54766 22695
L54822 22610
L54850 22498
L54850 22273
L54822 22217
L54794 22188
L54738 22160
L54625 22160
L54569 22188
L54541 22217
L54513 22273
L54513 22413
L54541 22470
L54569 22498
L54625 22526
L54738 22526
L54794 22498
L54822 22470
L54850 22413
" />
<path d="M55132 22723
L55132 22751
L55104 22807
L55075 22835
" />
<path d="M55666 22160
L55385 22160
L55357 22442
L55385 22413
L55441 22385
L55582 22385
L55638 22413
L55666 22442
L55694 22498
L55694 22638
L55666 22695
L55638 22723
L55582 22751
L55441 22751
L55385 22723
L55357 22695
" />
<path d="M56060 22160
L56116 22160
L56172 22188
L56200 22217
L56228 22273
L56257 22385
L56257 22526
L56228 22638
L56200 22695
L56172 22723
L56116 22751
L56060 22751
L56003 22723
L55975 22695
L55947 22638
L55919 22526
L55919 22385
L55947 22273
L55975 22217
L56003 22188
L56060 22160
" />
<path d="M56622 22160
L56678 22160
L56735 22188
L56763 22217
L56791 22273
L56819 22385
L56819 22526
L56791 22638
L56763 22695
L56735 22723
L56678 22751
L56622 22751
L56566 22723
L56538 22695
L56510 22638
L56482 22526
L56482 22385
L56510 22273
L56538 22217
L56566 22188
L56622 22160
" />
<path d="M57522 22751
L57522 22357
" />
<path d="M57522 22413
L57550 22385
L57606 22357
L57691 22357
L57747 22385
L57775 22442
L57775 22751
" />
<path d="M57775 22442
L57803 22385
L57859 22357
L57944 22357
L58000 22385
L58028 22442
L58028 22751
" />
<path d="M58309 22751
L58309 22357
" />
<path d="M58309 22413
L58338 22385
L58394 22357
L58478 22357
L58534 22385
L58562 22442
L58562 22751
" />
<path d="M58562 22442
L58591 22385
L58647 22357
L58731 22357
L58787 22385
L58816 22442
L58816 22751
" />
<path d="M46653 23015
L66141 23015
" />
<path d="M46653 27263
L46653 21952
" />
<path d="M66141 27263
L66141 21952
" />
<path d="M66141 23015
L65698 23246
" />
<path d="M66141 23015
L65698 22784
" />
<path d="M46653 23015
L47097 23246
" />
<path d="M46653 23015
L47097 22784
" />
</g> 
</svg>
