G04 #@! TF.FileFunction,Copper,L2,Bot,Signal*
%FSLAX46Y46*%
G04 Gerber Fmt 4.6, Leading zero omitted, Abs format (unit mm)*
G04 Created by KiCad (PCBNEW 4.0.0-2.201512091501+6195~38~ubuntu15.10.1-stable) date do 17 dec 2015 22:41:39 CET*
%MOMM*%
G01*
G04 APERTURE LIST*
%ADD10C,0.100000*%
%ADD11C,0.150000*%
%ADD12R,1.727200X1.727200*%
%ADD13O,1.727200X1.727200*%
%ADD14R,2.000000X2.500000*%
%ADD15R,1.727200X2.032000*%
%ADD16O,1.727200X2.032000*%
%ADD17R,2.032000X2.032000*%
%ADD18O,2.032000X2.032000*%
%ADD19R,0.900000X1.700000*%
%ADD20R,1.399540X2.999740*%
%ADD21R,1.998980X1.998980*%
%ADD22C,1.000000*%
%ADD23C,0.600000*%
%ADD24C,0.800000*%
%ADD25C,1.000000*%
%ADD26C,0.400000*%
G04 APERTURE END LIST*
D10*
D11*
X124666666Y-69000000D02*
G75*
G03X124666666Y-69000000I-666666J0D01*
G01*
X123000000Y-69000000D02*
X125000000Y-69000000D01*
X124000000Y-68000000D02*
X124000000Y-70000000D01*
X88966666Y-60400000D02*
G75*
G03X88966666Y-60400000I-666666J0D01*
G01*
X87300000Y-60400000D02*
X89300000Y-60400000D01*
X88300000Y-59400000D02*
X88300000Y-61400000D01*
X98666666Y-91200000D02*
G75*
G03X98666666Y-91200000I-666666J0D01*
G01*
X97000000Y-91200000D02*
X99000000Y-91200000D01*
X98000000Y-90200000D02*
X98000000Y-92200000D01*
X77000000Y-95000000D02*
X77000000Y-57000000D01*
X127000000Y-95000000D02*
X77000000Y-95000000D01*
X127000000Y-57000000D02*
X127000000Y-95000000D01*
X77000000Y-57000000D02*
X127000000Y-57000000D01*
D12*
X100780000Y-64740000D03*
D13*
X100780000Y-62200000D03*
X98240000Y-64740000D03*
X98240000Y-62200000D03*
X95700000Y-64740000D03*
X95700000Y-62200000D03*
X93160000Y-64740000D03*
X93160000Y-62200000D03*
D14*
X107400000Y-63500000D03*
X107400000Y-59200000D03*
D15*
X105700000Y-92900000D03*
D16*
X108240000Y-92900000D03*
X110780000Y-92900000D03*
X113320000Y-92900000D03*
D17*
X112450000Y-66400000D03*
D18*
X112450000Y-68940000D03*
D19*
X113050000Y-60200000D03*
X110150000Y-60200000D03*
D20*
X81980000Y-84799040D03*
X81980000Y-90000960D03*
D21*
X81980000Y-82398740D03*
X81980000Y-92401260D03*
D12*
X81980000Y-64430000D03*
D13*
X84520000Y-64430000D03*
X81980000Y-66970000D03*
X84520000Y-66970000D03*
X81980000Y-69510000D03*
X84520000Y-69510000D03*
X81980000Y-72050000D03*
X84520000Y-72050000D03*
X81980000Y-74590000D03*
X84520000Y-74590000D03*
X81980000Y-77130000D03*
X84520000Y-77130000D03*
D22*
X102400000Y-86700000D03*
X122000000Y-71500000D03*
X117926091Y-82370428D03*
X109000000Y-82850000D03*
X104450000Y-81200000D03*
X87200000Y-66200000D03*
X110400000Y-72100000D03*
X103533548Y-75650000D03*
X92300000Y-79600000D03*
X88600000Y-79100000D03*
X105361890Y-64017668D03*
X103308012Y-73649979D03*
X84900000Y-84700000D03*
X100702832Y-84402832D03*
X104399998Y-60800000D03*
X104400006Y-59200000D03*
X96600000Y-68499992D03*
X97100000Y-66800000D03*
X104361870Y-62418909D03*
X106100000Y-79200000D03*
X114100000Y-78399980D03*
X87300000Y-72100000D03*
X87000000Y-74600000D03*
X84700000Y-79493621D03*
X79900000Y-67100000D03*
X94200000Y-67500000D03*
X105700000Y-90700000D03*
X120600000Y-59500000D03*
X106400000Y-81100000D03*
X89000000Y-68500000D03*
X102868478Y-78982720D03*
X112450000Y-64055051D03*
X91700000Y-89100000D03*
X108800000Y-72500000D03*
D23*
X117926091Y-82370428D02*
X113596519Y-86700000D01*
X113596519Y-86700000D02*
X102400000Y-86700000D01*
X118633197Y-82370428D02*
X117926091Y-82370428D01*
X122000000Y-71500000D02*
X122000000Y-79003625D01*
X122000000Y-79003625D02*
X118633197Y-82370428D01*
D24*
X104450000Y-82150000D02*
X105150000Y-82850000D01*
X105150000Y-82850000D02*
X109000000Y-82850000D01*
X104450000Y-81200000D02*
X104450000Y-82150000D01*
X85600000Y-64600000D02*
X84690000Y-64600000D01*
X84690000Y-64600000D02*
X84520000Y-64430000D01*
X87200000Y-66200000D02*
X85600000Y-64600000D01*
D25*
X81980000Y-90000960D02*
X81980000Y-92401260D01*
D26*
X81980000Y-91001770D02*
X81980000Y-92401260D01*
X92300000Y-79600000D02*
X96250000Y-75650000D01*
X96250000Y-75650000D02*
X103533548Y-75650000D01*
X87993601Y-78493601D02*
X88100001Y-78600001D01*
X88100001Y-78600001D02*
X88600000Y-79100000D01*
X80616399Y-75953601D02*
X80616399Y-77784529D01*
X81980000Y-74590000D02*
X80616399Y-75953601D01*
X80616399Y-77784529D02*
X81325471Y-78493601D01*
X81325471Y-78493601D02*
X87993601Y-78493601D01*
D23*
X107382332Y-64017668D02*
X106068996Y-64017668D01*
X106068996Y-64017668D02*
X105361890Y-64017668D01*
X107400000Y-64000000D02*
X107382332Y-64017668D01*
X110150000Y-60200000D02*
X108900000Y-60200000D01*
X108900000Y-60200000D02*
X107400000Y-58700000D01*
D25*
X81980000Y-84799040D02*
X81980000Y-82398740D01*
D23*
X84900000Y-84700000D02*
X95950021Y-73649979D01*
X95950021Y-73649979D02*
X102600906Y-73649979D01*
X102600906Y-73649979D02*
X103308012Y-73649979D01*
X100702832Y-87302832D02*
X100702832Y-85109938D01*
X102000000Y-88600000D02*
X100702832Y-87302832D01*
X105556000Y-88600000D02*
X102000000Y-88600000D01*
X108240000Y-91284000D02*
X105556000Y-88600000D01*
X100702832Y-85109938D02*
X100702832Y-84402832D01*
X108240000Y-92900000D02*
X108240000Y-91284000D01*
D26*
X95700000Y-62200000D02*
X98299988Y-59600012D01*
X98299988Y-59600012D02*
X103200010Y-59600012D01*
X103200010Y-59600012D02*
X103899999Y-60300001D01*
X103899999Y-60300001D02*
X104399998Y-60800000D01*
X103900007Y-58700001D02*
X104400006Y-59200000D01*
X96660000Y-58700000D02*
X103900007Y-58700001D01*
X93160000Y-62200000D02*
X96660000Y-58700000D01*
D23*
X95700000Y-64740000D02*
X95700000Y-67599992D01*
X95700000Y-67599992D02*
X96100001Y-67999993D01*
X96100001Y-67999993D02*
X96600000Y-68499992D01*
X97100000Y-65880000D02*
X97100000Y-66092894D01*
X97100000Y-66092894D02*
X97100000Y-66800000D01*
X98240000Y-64740000D02*
X97100000Y-65880000D01*
D26*
X98240000Y-62200000D02*
X98240000Y-61160000D01*
X98240000Y-61160000D02*
X99000000Y-60400000D01*
X99000000Y-60400000D02*
X102342961Y-60400000D01*
X102342961Y-60400000D02*
X104361870Y-62418909D01*
D23*
X106100000Y-79200000D02*
X108300000Y-79200000D01*
X108300000Y-79200000D02*
X109100020Y-78399980D01*
X109100020Y-78399980D02*
X113392894Y-78399980D01*
X113392894Y-78399980D02*
X114100000Y-78399980D01*
D26*
X87300000Y-72100000D02*
X84570000Y-72100000D01*
X84570000Y-72100000D02*
X84520000Y-72050000D01*
X87000000Y-74600000D02*
X84530000Y-74600000D01*
X84530000Y-74600000D02*
X84520000Y-74590000D01*
X81980000Y-72050000D02*
X79916389Y-74113611D01*
X81335528Y-79493621D02*
X83992894Y-79493621D01*
X79916389Y-78074482D02*
X81335528Y-79493621D01*
X79916389Y-74113611D02*
X79916389Y-78074482D01*
X83992894Y-79493621D02*
X84700000Y-79493621D01*
X79900000Y-67100000D02*
X81850000Y-67100000D01*
X81850000Y-67100000D02*
X81980000Y-66970000D01*
D23*
X94200000Y-67500000D02*
X94200000Y-67400000D01*
X94200000Y-67400000D02*
X93160000Y-66360000D01*
X93160000Y-66360000D02*
X93160000Y-64740000D01*
X105700000Y-90700000D02*
X105700000Y-92900000D01*
X106400000Y-81100000D02*
X107672806Y-81100000D01*
X107672806Y-81100000D02*
X109272797Y-79500009D01*
X114999991Y-79500009D02*
X116400000Y-78100000D01*
X109272797Y-79500009D02*
X114999991Y-79500009D01*
X116400000Y-78100000D02*
X116400000Y-63700000D01*
X116400000Y-63700000D02*
X120600000Y-59500000D01*
X91700000Y-89100000D02*
X94400000Y-89100000D01*
X94400000Y-89100000D02*
X108300001Y-75199999D01*
X108300001Y-75199999D02*
X108300001Y-72999999D01*
X108300001Y-72999999D02*
X108800000Y-72500000D01*
D25*
X106600000Y-70200000D02*
X90700000Y-70200000D01*
X90700000Y-70200000D02*
X89000000Y-68500000D01*
X89000000Y-65100000D02*
X85700000Y-61800000D01*
X89000000Y-68500000D02*
X89000000Y-65100000D01*
X85700000Y-61800000D02*
X83200000Y-61800000D01*
X83200000Y-61800000D02*
X81980000Y-63020000D01*
X81980000Y-63020000D02*
X81980000Y-64430000D01*
X102400000Y-66400000D02*
X100700000Y-64700000D01*
X112450000Y-66400000D02*
X102400000Y-66400000D01*
X110434000Y-66400000D02*
X112450000Y-66400000D01*
D23*
X113050000Y-60200000D02*
X113050000Y-63455051D01*
X113050000Y-63455051D02*
X112450000Y-64055051D01*
X112450000Y-64055051D02*
X112450000Y-66400000D01*
D25*
X102868478Y-78982720D02*
X105156018Y-76695180D01*
X105156018Y-76695180D02*
X105156018Y-71643982D01*
X108800000Y-68034000D02*
X110434000Y-66400000D01*
X105156018Y-71643982D02*
X106600000Y-70200000D01*
X106600000Y-70200000D02*
X107934000Y-70200000D01*
X108800000Y-69334000D02*
X108800000Y-68034000D01*
X107934000Y-70200000D02*
X108800000Y-69334000D01*
D24*
X108800000Y-69334000D02*
X108800000Y-72500000D01*
M02*
