G04 #@! TF.FileFunction,Other,Comment*
%FSLAX46Y46*%
G04 Gerber Fmt 4.6, Leading zero omitted, Abs format (unit mm)*
G04 Created by KiCad (PCBNEW 4.0.0-2.201512091501+6195~38~ubuntu15.10.1-stable) date do 17 dec 2015 22:41:39 CET*
%MOMM*%
G01*
G04 APERTURE LIST*
%ADD10C,0.100000*%
%ADD11C,0.150000*%
%ADD12C,0.300000*%
G04 APERTURE END LIST*
D10*
D11*
X124666666Y-69000000D02*
G75*
G03X124666666Y-69000000I-666666J0D01*
G01*
X123000000Y-69000000D02*
X125000000Y-69000000D01*
X124000000Y-68000000D02*
X124000000Y-70000000D01*
X88966666Y-60400000D02*
G75*
G03X88966666Y-60400000I-666666J0D01*
G01*
X87300000Y-60400000D02*
X89300000Y-60400000D01*
X88300000Y-59400000D02*
X88300000Y-61400000D01*
X98666666Y-91200000D02*
G75*
G03X98666666Y-91200000I-666666J0D01*
G01*
X97000000Y-91200000D02*
X99000000Y-91200000D01*
X98000000Y-90200000D02*
X98000000Y-92200000D01*
X77000000Y-95000000D02*
X77000000Y-57000000D01*
X127000000Y-95000000D02*
X77000000Y-95000000D01*
X127000000Y-57000000D02*
X127000000Y-95000000D01*
X77000000Y-57000000D02*
X127000000Y-57000000D01*
D12*
X132328571Y-82285713D02*
X132328571Y-81357142D01*
X132900000Y-81857142D01*
X132900000Y-81642856D01*
X132971429Y-81499999D01*
X133042857Y-81428570D01*
X133185714Y-81357142D01*
X133542857Y-81357142D01*
X133685714Y-81428570D01*
X133757143Y-81499999D01*
X133828571Y-81642856D01*
X133828571Y-82071428D01*
X133757143Y-82214285D01*
X133685714Y-82285713D01*
X132971429Y-80499999D02*
X132900000Y-80642857D01*
X132828571Y-80714285D01*
X132685714Y-80785714D01*
X132614286Y-80785714D01*
X132471429Y-80714285D01*
X132400000Y-80642857D01*
X132328571Y-80499999D01*
X132328571Y-80214285D01*
X132400000Y-80071428D01*
X132471429Y-79999999D01*
X132614286Y-79928571D01*
X132685714Y-79928571D01*
X132828571Y-79999999D01*
X132900000Y-80071428D01*
X132971429Y-80214285D01*
X132971429Y-80499999D01*
X133042857Y-80642857D01*
X133114286Y-80714285D01*
X133257143Y-80785714D01*
X133542857Y-80785714D01*
X133685714Y-80714285D01*
X133757143Y-80642857D01*
X133828571Y-80499999D01*
X133828571Y-80214285D01*
X133757143Y-80071428D01*
X133685714Y-79999999D01*
X133542857Y-79928571D01*
X133257143Y-79928571D01*
X133114286Y-79999999D01*
X133042857Y-80071428D01*
X132971429Y-80214285D01*
X133757143Y-79214286D02*
X133828571Y-79214286D01*
X133971429Y-79285714D01*
X134042857Y-79357143D01*
X132328571Y-78285714D02*
X132328571Y-78142857D01*
X132400000Y-78000000D01*
X132471429Y-77928571D01*
X132614286Y-77857142D01*
X132900000Y-77785714D01*
X133257143Y-77785714D01*
X133542857Y-77857142D01*
X133685714Y-77928571D01*
X133757143Y-78000000D01*
X133828571Y-78142857D01*
X133828571Y-78285714D01*
X133757143Y-78428571D01*
X133685714Y-78500000D01*
X133542857Y-78571428D01*
X133257143Y-78642857D01*
X132900000Y-78642857D01*
X132614286Y-78571428D01*
X132471429Y-78500000D01*
X132400000Y-78428571D01*
X132328571Y-78285714D01*
X132328571Y-76857143D02*
X132328571Y-76714286D01*
X132400000Y-76571429D01*
X132471429Y-76500000D01*
X132614286Y-76428571D01*
X132900000Y-76357143D01*
X133257143Y-76357143D01*
X133542857Y-76428571D01*
X133685714Y-76500000D01*
X133757143Y-76571429D01*
X133828571Y-76714286D01*
X133828571Y-76857143D01*
X133757143Y-77000000D01*
X133685714Y-77071429D01*
X133542857Y-77142857D01*
X133257143Y-77214286D01*
X132900000Y-77214286D01*
X132614286Y-77142857D01*
X132471429Y-77071429D01*
X132400000Y-77000000D01*
X132328571Y-76857143D01*
X132328571Y-75428572D02*
X132328571Y-75285715D01*
X132400000Y-75142858D01*
X132471429Y-75071429D01*
X132614286Y-75000000D01*
X132900000Y-74928572D01*
X133257143Y-74928572D01*
X133542857Y-75000000D01*
X133685714Y-75071429D01*
X133757143Y-75142858D01*
X133828571Y-75285715D01*
X133828571Y-75428572D01*
X133757143Y-75571429D01*
X133685714Y-75642858D01*
X133542857Y-75714286D01*
X133257143Y-75785715D01*
X132900000Y-75785715D01*
X132614286Y-75714286D01*
X132471429Y-75642858D01*
X132400000Y-75571429D01*
X132328571Y-75428572D01*
X133828571Y-73142858D02*
X132828571Y-73142858D01*
X132971429Y-73142858D02*
X132900000Y-73071430D01*
X132828571Y-72928572D01*
X132828571Y-72714287D01*
X132900000Y-72571430D01*
X133042857Y-72500001D01*
X133828571Y-72500001D01*
X133042857Y-72500001D02*
X132900000Y-72428572D01*
X132828571Y-72285715D01*
X132828571Y-72071430D01*
X132900000Y-71928572D01*
X133042857Y-71857144D01*
X133828571Y-71857144D01*
X133828571Y-71142858D02*
X132828571Y-71142858D01*
X132971429Y-71142858D02*
X132900000Y-71071430D01*
X132828571Y-70928572D01*
X132828571Y-70714287D01*
X132900000Y-70571430D01*
X133042857Y-70500001D01*
X133828571Y-70500001D01*
X133042857Y-70500001D02*
X132900000Y-70428572D01*
X132828571Y-70285715D01*
X132828571Y-70071430D01*
X132900000Y-69928572D01*
X133042857Y-69857144D01*
X133828571Y-69857144D01*
X131800000Y-95000000D02*
X131800000Y-57000000D01*
X126000000Y-95000000D02*
X134500000Y-95000000D01*
X126000000Y-57000000D02*
X134500000Y-57000000D01*
X131800000Y-57000000D02*
X132386421Y-58126504D01*
X131800000Y-57000000D02*
X131213579Y-58126504D01*
X131800000Y-95000000D02*
X132386421Y-93873496D01*
X131800000Y-95000000D02*
X131213579Y-93873496D01*
X96571430Y-51828571D02*
X95857144Y-51828571D01*
X95785715Y-52542857D01*
X95857144Y-52471429D01*
X96000001Y-52400000D01*
X96357144Y-52400000D01*
X96500001Y-52471429D01*
X96571430Y-52542857D01*
X96642858Y-52685714D01*
X96642858Y-53042857D01*
X96571430Y-53185714D01*
X96500001Y-53257143D01*
X96357144Y-53328571D01*
X96000001Y-53328571D01*
X95857144Y-53257143D01*
X95785715Y-53185714D01*
X97571429Y-51828571D02*
X97714286Y-51828571D01*
X97857143Y-51900000D01*
X97928572Y-51971429D01*
X98000001Y-52114286D01*
X98071429Y-52400000D01*
X98071429Y-52757143D01*
X98000001Y-53042857D01*
X97928572Y-53185714D01*
X97857143Y-53257143D01*
X97714286Y-53328571D01*
X97571429Y-53328571D01*
X97428572Y-53257143D01*
X97357143Y-53185714D01*
X97285715Y-53042857D01*
X97214286Y-52757143D01*
X97214286Y-52400000D01*
X97285715Y-52114286D01*
X97357143Y-51971429D01*
X97428572Y-51900000D01*
X97571429Y-51828571D01*
X98785714Y-53257143D02*
X98785714Y-53328571D01*
X98714286Y-53471429D01*
X98642857Y-53542857D01*
X99714286Y-51828571D02*
X99857143Y-51828571D01*
X100000000Y-51900000D01*
X100071429Y-51971429D01*
X100142858Y-52114286D01*
X100214286Y-52400000D01*
X100214286Y-52757143D01*
X100142858Y-53042857D01*
X100071429Y-53185714D01*
X100000000Y-53257143D01*
X99857143Y-53328571D01*
X99714286Y-53328571D01*
X99571429Y-53257143D01*
X99500000Y-53185714D01*
X99428572Y-53042857D01*
X99357143Y-52757143D01*
X99357143Y-52400000D01*
X99428572Y-52114286D01*
X99500000Y-51971429D01*
X99571429Y-51900000D01*
X99714286Y-51828571D01*
X101142857Y-51828571D02*
X101285714Y-51828571D01*
X101428571Y-51900000D01*
X101500000Y-51971429D01*
X101571429Y-52114286D01*
X101642857Y-52400000D01*
X101642857Y-52757143D01*
X101571429Y-53042857D01*
X101500000Y-53185714D01*
X101428571Y-53257143D01*
X101285714Y-53328571D01*
X101142857Y-53328571D01*
X101000000Y-53257143D01*
X100928571Y-53185714D01*
X100857143Y-53042857D01*
X100785714Y-52757143D01*
X100785714Y-52400000D01*
X100857143Y-52114286D01*
X100928571Y-51971429D01*
X101000000Y-51900000D01*
X101142857Y-51828571D01*
X102571428Y-51828571D02*
X102714285Y-51828571D01*
X102857142Y-51900000D01*
X102928571Y-51971429D01*
X103000000Y-52114286D01*
X103071428Y-52400000D01*
X103071428Y-52757143D01*
X103000000Y-53042857D01*
X102928571Y-53185714D01*
X102857142Y-53257143D01*
X102714285Y-53328571D01*
X102571428Y-53328571D01*
X102428571Y-53257143D01*
X102357142Y-53185714D01*
X102285714Y-53042857D01*
X102214285Y-52757143D01*
X102214285Y-52400000D01*
X102285714Y-52114286D01*
X102357142Y-51971429D01*
X102428571Y-51900000D01*
X102571428Y-51828571D01*
X104857142Y-53328571D02*
X104857142Y-52328571D01*
X104857142Y-52471429D02*
X104928570Y-52400000D01*
X105071428Y-52328571D01*
X105285713Y-52328571D01*
X105428570Y-52400000D01*
X105499999Y-52542857D01*
X105499999Y-53328571D01*
X105499999Y-52542857D02*
X105571428Y-52400000D01*
X105714285Y-52328571D01*
X105928570Y-52328571D01*
X106071428Y-52400000D01*
X106142856Y-52542857D01*
X106142856Y-53328571D01*
X106857142Y-53328571D02*
X106857142Y-52328571D01*
X106857142Y-52471429D02*
X106928570Y-52400000D01*
X107071428Y-52328571D01*
X107285713Y-52328571D01*
X107428570Y-52400000D01*
X107499999Y-52542857D01*
X107499999Y-53328571D01*
X107499999Y-52542857D02*
X107571428Y-52400000D01*
X107714285Y-52328571D01*
X107928570Y-52328571D01*
X108071428Y-52400000D01*
X108142856Y-52542857D01*
X108142856Y-53328571D01*
X77000000Y-54000000D02*
X127000000Y-54000000D01*
X77000000Y-60000000D02*
X77000000Y-51300000D01*
X127000000Y-60000000D02*
X127000000Y-51300000D01*
X127000000Y-54000000D02*
X125873496Y-54586421D01*
X127000000Y-54000000D02*
X125873496Y-53413579D01*
X77000000Y-54000000D02*
X78126504Y-54586421D01*
X77000000Y-54000000D02*
X78126504Y-53413579D01*
M02*
