M48
INCH,TZ
T1C0.012
T2C0.020
T3C0.024
T4C0.030
T5C0.040
T6C0.051
T7C0.087
%
G90
G05
T1
X51594Y-16457
X51594Y-16949
X51594Y-17441
X51594Y-36142
X51594Y-36634
X51594Y-37126
X52382Y-16457
X52382Y-16949
X52382Y-17441
X52382Y-36142
X52382Y-36634
X52382Y-37126
X52657Y-19291
X52657Y-38976
X53169Y-16457
X53169Y-16949
X53169Y-17441
X53169Y-36142
X53169Y-36634
X53169Y-37126
X53445Y-19291
X53445Y-38976
X53957Y-16457
X53957Y-16949
X53957Y-17441
X53957Y-36142
X53957Y-36634
X53957Y-37126
X54232Y-19291
X54232Y-38976
X54331Y-26043
X54331Y-29350
X54331Y-45728
X54331Y-49035
X54744Y-16457
X54744Y-16949
X54744Y-17441
X54744Y-36142
X54744Y-36634
X54744Y-37126
X54961Y-18465
X54961Y-38150
X71280Y-16457
X71280Y-16949
X71280Y-17441
X71280Y-36142
X71280Y-36634
X71280Y-37126
X72067Y-16457
X72067Y-16949
X72067Y-17441
X72067Y-36142
X72067Y-36634
X72067Y-37126
X72343Y-19291
X72343Y-38976
X72854Y-16457
X72854Y-16949
X72854Y-17441
X72854Y-36142
X72854Y-36634
X72854Y-37126
X73130Y-19291
X73130Y-38976
X73642Y-16457
X73642Y-16949
X73642Y-17441
X73642Y-36142
X73642Y-36634
X73642Y-37126
X73917Y-19291
X73917Y-38976
X74016Y-26043
X74016Y-29350
X74016Y-45728
X74016Y-49035
X74429Y-16457
X74429Y-16949
X74429Y-17441
X74429Y-36142
X74429Y-36634
X74429Y-37126
X74646Y-18465
X74646Y-38150
T2
X45205Y-20630
X45205Y-40315
X46205Y-21630
X46205Y-41315
X47205Y-20630
X47205Y-40315
X64890Y-20630
X64890Y-40315
X65890Y-21630
X65890Y-41315
X66890Y-20630
X66890Y-40315
T3
X36555Y-20354
X36555Y-21043
X36555Y-40039
X36555Y-40728
X36654Y-19531
X36654Y-22224
X36654Y-39217
X36654Y-41909
X37244Y-18583
X37244Y-38268
X37343Y-22717
X37343Y-42402
X37835Y-21732
X37835Y-41417
X38425Y-19154
X38425Y-38839
X38583Y-27402
X38583Y-47087
X40000Y-22323
X40000Y-42008
X40098Y-20945
X40098Y-40630
X40394Y-19173
X40394Y-25472
X40394Y-38858
X40394Y-45157
X41378Y-22323
X41378Y-42008
X41969Y-22618
X41969Y-42303
X42126Y-20551
X42126Y-40236
X42480Y-22362
X42480Y-42047
X42638Y-19685
X42638Y-39370
X42717Y-29488
X42717Y-49173
X43051Y-16417
X43051Y-36102
X43150Y-27441
X43150Y-47126
X43425Y-25353
X43425Y-45038
X43465Y-26496
X43465Y-46181
X43504Y-23425
X43504Y-43110
X43543Y-19665
X43543Y-39350
X43583Y-30512
X43583Y-50197
X44567Y-31339
X44567Y-51024
X45276Y-28583
X45276Y-48268
X45512Y-16811
X45512Y-36496
X45669Y-25984
X45669Y-45669
X45827Y-30181
X45827Y-49866
X46594Y-18484
X46594Y-38169
X46693Y-25866
X46693Y-45551
X46850Y-22087
X46850Y-41772
X47250Y-23842
X47250Y-43527
X47382Y-22520
X47382Y-42205
X47953Y-30197
X47953Y-49882
X48445Y-23366
X48445Y-43051
X48563Y-23996
X48563Y-27303
X48563Y-43681
X48563Y-46988
X49134Y-21417
X49134Y-41102
X49980Y-26516
X49980Y-46201
X50039Y-25866
X50039Y-45551
X50512Y-20827
X50512Y-40512
X50886Y-27244
X50886Y-46929
X50981Y-18071
X50981Y-37756
X51201Y-26476
X51201Y-46161
X52008Y-29803
X52008Y-49488
X52441Y-18386
X52441Y-38071
X53110Y-21398
X53110Y-41083
X54335Y-32244
X54335Y-51929
X56240Y-20354
X56240Y-21043
X56240Y-40039
X56240Y-40728
X56339Y-19531
X56339Y-22224
X56339Y-39217
X56339Y-41909
X56929Y-18583
X56929Y-38268
X57028Y-22717
X57028Y-42402
X57520Y-21732
X57520Y-41417
X58110Y-19154
X58110Y-38839
X58268Y-27402
X58268Y-47087
X59685Y-22323
X59685Y-42008
X59783Y-20945
X59783Y-40630
X60079Y-19173
X60079Y-25472
X60079Y-38858
X60079Y-45157
X61063Y-22323
X61063Y-42008
X61654Y-22618
X61654Y-42303
X61811Y-20551
X61811Y-40236
X62165Y-22362
X62165Y-42047
X62323Y-19685
X62323Y-39370
X62402Y-29488
X62402Y-49173
X62736Y-16417
X62736Y-36102
X62835Y-27441
X62835Y-47126
X63110Y-25353
X63110Y-45038
X63150Y-26496
X63150Y-46181
X63189Y-23425
X63189Y-43110
X63228Y-19665
X63228Y-39350
X63268Y-30512
X63268Y-50197
X64252Y-31339
X64252Y-51024
X64961Y-28583
X64961Y-48268
X65197Y-16811
X65197Y-36496
X65354Y-25984
X65354Y-45669
X65512Y-30181
X65512Y-49866
X66280Y-18484
X66280Y-38169
X66378Y-25866
X66378Y-45551
X66535Y-22087
X66535Y-41772
X66935Y-23842
X66935Y-43527
X67067Y-22520
X67067Y-42205
X67638Y-30197
X67638Y-49882
X68130Y-23366
X68130Y-43051
X68248Y-23996
X68248Y-27303
X68248Y-43681
X68248Y-46988
X68819Y-21417
X68819Y-41102
X69665Y-26516
X69665Y-46201
X69724Y-25866
X69724Y-45551
X70197Y-20827
X70197Y-40512
X70571Y-27244
X70571Y-46929
X70666Y-18071
X70666Y-37756
X70886Y-26476
X70886Y-46161
X71693Y-29803
X71693Y-49488
X72126Y-18386
X72126Y-38071
X72795Y-21398
X72795Y-41083
X74020Y-32244
X74020Y-51929
T4
X37087Y-16823
X37087Y-17823
X37087Y-36508
X37087Y-37508
X56772Y-16823
X56772Y-17823
X56772Y-36508
X56772Y-37508
T5
X49669Y-29890
X49669Y-30890
X49669Y-31890
X49669Y-32890
X49669Y-49575
X49669Y-50575
X49669Y-51575
X49669Y-52575
X50669Y-29890
X50669Y-30890
X50669Y-31890
X50669Y-32890
X50669Y-49575
X50669Y-50575
X50669Y-51575
X50669Y-52575
X69354Y-29890
X69354Y-30890
X69354Y-31890
X69354Y-32890
X69354Y-49575
X69354Y-50575
X69354Y-51575
X69354Y-52575
X70354Y-29890
X70354Y-30890
X70354Y-31890
X70354Y-32890
X70354Y-49575
X70354Y-50575
X70354Y-51575
X70354Y-52575
T6
X41874Y-17224
X41874Y-24035
X41874Y-36909
X41874Y-43720
X50535Y-17224
X50535Y-24035
X50535Y-36909
X50535Y-43720
X61559Y-17224
X61559Y-24035
X61559Y-36909
X61559Y-43720
X70220Y-17224
X70220Y-24035
X70220Y-36909
X70220Y-43720
T7
X39409Y-17402
X39409Y-31969
X39409Y-37087
X39409Y-51654
X53150Y-24508
X53150Y-44193
X59094Y-17402
X59094Y-31969
X59094Y-37087
X59094Y-51654
X72835Y-24508
X72835Y-44193
T0
M30
