G04 #@! TF.FileFunction,Paste,Bot*
%FSLAX46Y46*%
G04 Gerber Fmt 4.6, Leading zero omitted, Abs format (unit mm)*
G04 Created by KiCad (PCBNEW 4.0.4+dfsg1-stable) date Sun Feb 12 12:23:04 2017*
%MOMM*%
%LPD*%
G01*
G04 APERTURE LIST*
%ADD10C,0.100000*%
%ADD11R,0.500000X0.900000*%
%ADD12R,0.900000X1.700000*%
%ADD13R,3.600000X1.270000*%
%ADD14R,0.700000X1.300000*%
%ADD15R,0.900000X0.500000*%
G04 APERTURE END LIST*
D10*
X91000000Y-40000000D02*
X191000000Y-40000000D01*
X91000000Y-90000000D02*
X191000000Y-90000000D01*
X141000000Y-40000000D02*
X141000000Y-140000000D01*
X91000000Y-140000000D02*
X191000000Y-140000000D01*
X91000000Y-40000000D02*
X91000000Y-140000000D01*
X191000000Y-40000000D02*
X191000000Y-140000000D01*
D11*
X139350000Y-127300000D03*
X137850000Y-127300000D03*
D12*
X133450000Y-127300000D03*
X136350000Y-127300000D03*
D13*
X116400000Y-126660000D03*
X116400000Y-129200000D03*
X116400000Y-131740000D03*
X122800000Y-126660000D03*
X122800000Y-129200000D03*
X122775000Y-134280000D03*
X122800000Y-131740000D03*
X116425000Y-134280000D03*
D14*
X135900000Y-96900000D03*
X137800000Y-96900000D03*
X98450000Y-100800000D03*
X96550000Y-100800000D03*
D15*
X94700000Y-98550000D03*
X94700000Y-100050000D03*
D14*
X98450000Y-102900000D03*
X96550000Y-102900000D03*
D15*
X94600000Y-105700000D03*
X94600000Y-104200000D03*
D11*
X189350000Y-127300000D03*
X187850000Y-127300000D03*
D12*
X183450000Y-127300000D03*
X186350000Y-127300000D03*
D13*
X166400000Y-126660000D03*
X166400000Y-129200000D03*
X166400000Y-131740000D03*
X172800000Y-126660000D03*
X172800000Y-129200000D03*
X172775000Y-134280000D03*
X172800000Y-131740000D03*
X166425000Y-134280000D03*
D14*
X185900000Y-96900000D03*
X187800000Y-96900000D03*
X148450000Y-100800000D03*
X146550000Y-100800000D03*
D15*
X144700000Y-98550000D03*
X144700000Y-100050000D03*
D14*
X148450000Y-102900000D03*
X146550000Y-102900000D03*
D15*
X144600000Y-105700000D03*
X144600000Y-104200000D03*
D11*
X189350000Y-77300000D03*
X187850000Y-77300000D03*
D12*
X183450000Y-77300000D03*
X186350000Y-77300000D03*
D13*
X166400000Y-76660000D03*
X166400000Y-79200000D03*
X166400000Y-81740000D03*
X172800000Y-76660000D03*
X172800000Y-79200000D03*
X172775000Y-84280000D03*
X172800000Y-81740000D03*
X166425000Y-84280000D03*
D14*
X185900000Y-46900000D03*
X187800000Y-46900000D03*
X148450000Y-50800000D03*
X146550000Y-50800000D03*
D15*
X144700000Y-48550000D03*
X144700000Y-50050000D03*
D14*
X148450000Y-52900000D03*
X146550000Y-52900000D03*
D15*
X144600000Y-55700000D03*
X144600000Y-54200000D03*
D12*
X133450000Y-77300000D03*
X136350000Y-77300000D03*
D14*
X98450000Y-52900000D03*
X96550000Y-52900000D03*
X135900000Y-46900000D03*
X137800000Y-46900000D03*
X98450000Y-50800000D03*
X96550000Y-50800000D03*
D11*
X139350000Y-77300000D03*
X137850000Y-77300000D03*
D15*
X94700000Y-48550000D03*
X94700000Y-50050000D03*
X94600000Y-55700000D03*
X94600000Y-54200000D03*
D13*
X116400000Y-76660000D03*
X116400000Y-79200000D03*
X116400000Y-81740000D03*
X122800000Y-76660000D03*
X122800000Y-79200000D03*
X122775000Y-84280000D03*
X122800000Y-81740000D03*
X116425000Y-84280000D03*
M02*
