G04 #@! TF.FileFunction,Soldermask,Top*
%FSLAX46Y46*%
G04 Gerber Fmt 4.6, Leading zero omitted, Abs format (unit mm)*
G04 Created by KiCad (PCBNEW 4.0.4+dfsg1-stable) date Wed Mar  8 20:57:33 2017*
%MOMM*%
%LPD*%
G01*
G04 APERTURE LIST*
%ADD10C,0.100000*%
%ADD11C,2.000000*%
%ADD12C,1.300000*%
%ADD13R,0.700000X1.300000*%
%ADD14R,0.500000X0.900000*%
%ADD15R,1.000000X0.600000*%
%ADD16R,0.900000X0.500000*%
%ADD17R,0.500000X1.200000*%
%ADD18R,1.200000X0.500000*%
%ADD19R,2.000000X2.000000*%
%ADD20R,1.400000X1.600000*%
%ADD21R,2.000000X0.400000*%
%ADD22R,1.500000X3.000000*%
%ADD23R,3.000000X1.400000*%
%ADD24C,4.400000*%
%ADD25R,1.300000X0.700000*%
%ADD26R,3.200000X1.200000*%
%ADD27R,1.500000X0.600000*%
%ADD28R,0.400000X1.000000*%
%ADD29R,1.000000X0.350000*%
%ADD30C,0.600000*%
%ADD31C,0.200000*%
G04 APERTURE END LIST*
D10*
X91000000Y-40000000D02*
X191000000Y-40000000D01*
X90500000Y-90000000D02*
X191500000Y-90000000D01*
X141000000Y-39500000D02*
X141000000Y-141000000D01*
X91000000Y-140000000D02*
X191000000Y-140000000D01*
X91000000Y-40000000D02*
X91000000Y-140000000D01*
X191000000Y-40000000D02*
X191000000Y-140000000D01*
D11*
X119900000Y-102400000D03*
X114820000Y-102400000D03*
X117360000Y-104940000D03*
D12*
X106360000Y-111050000D03*
X106360000Y-93750000D03*
X128360000Y-93750000D03*
X128360000Y-111050000D03*
D13*
X102050000Y-109400000D03*
X103950000Y-109400000D03*
D14*
X110750000Y-105000000D03*
X112250000Y-105000000D03*
D15*
X109150000Y-106750000D03*
X109150000Y-108650000D03*
X111850000Y-107700000D03*
D16*
X114200000Y-108650000D03*
X114200000Y-107150000D03*
D14*
X102350000Y-107600000D03*
X103850000Y-107600000D03*
X98950000Y-108000000D03*
X100450000Y-108000000D03*
X96150000Y-109700000D03*
X97650000Y-109700000D03*
X96150000Y-108000000D03*
X97650000Y-108000000D03*
X99250000Y-109700000D03*
X100750000Y-109700000D03*
D17*
X120000000Y-112350000D03*
X119200000Y-112350000D03*
X118400000Y-112350000D03*
X117600000Y-112350000D03*
X116800000Y-112350000D03*
X116000000Y-112350000D03*
X115200000Y-112350000D03*
X114400000Y-112350000D03*
D18*
X112950000Y-113800000D03*
X112950000Y-114600000D03*
X112950000Y-115400000D03*
X112950000Y-116200000D03*
X112950000Y-117000000D03*
X112950000Y-117800000D03*
X112950000Y-118600000D03*
X112950000Y-119400000D03*
D17*
X114400000Y-120850000D03*
X115200000Y-120850000D03*
X116000000Y-120850000D03*
X116800000Y-120850000D03*
X117600000Y-120850000D03*
X118400000Y-120850000D03*
X119200000Y-120850000D03*
X120000000Y-120850000D03*
D18*
X121450000Y-119400000D03*
X121450000Y-118600000D03*
X121450000Y-117800000D03*
X121450000Y-117000000D03*
X121450000Y-116200000D03*
X121450000Y-115400000D03*
X121450000Y-114600000D03*
X121450000Y-113800000D03*
D19*
X128700000Y-133540000D03*
D11*
X126160000Y-133540000D03*
X128700000Y-131000000D03*
X126160000Y-131000000D03*
X128700000Y-128460000D03*
X126160000Y-128460000D03*
X128700000Y-125920000D03*
X126160000Y-125920000D03*
D13*
X120550000Y-126700000D03*
X118650000Y-126700000D03*
D10*
G36*
X112578858Y-123059619D02*
X111659619Y-123978858D01*
X111164644Y-123483883D01*
X112083883Y-122564644D01*
X112578858Y-123059619D01*
X112578858Y-123059619D01*
G37*
G36*
X111235356Y-121716117D02*
X110316117Y-122635356D01*
X109821142Y-122140381D01*
X110740381Y-121221142D01*
X111235356Y-121716117D01*
X111235356Y-121716117D01*
G37*
G36*
X120521142Y-111440381D02*
X121440381Y-110521142D01*
X121935356Y-111016117D01*
X121016117Y-111935356D01*
X120521142Y-111440381D01*
X120521142Y-111440381D01*
G37*
G36*
X121864644Y-112783883D02*
X122783883Y-111864644D01*
X123278858Y-112359619D01*
X122359619Y-113278858D01*
X121864644Y-112783883D01*
X121864644Y-112783883D01*
G37*
D20*
X133510000Y-136500000D03*
X138010000Y-136500000D03*
X133510000Y-128100000D03*
X138010000Y-128100000D03*
D10*
G36*
X113978858Y-121659619D02*
X113059619Y-122578858D01*
X112564644Y-122083883D01*
X113483883Y-121164644D01*
X113978858Y-121659619D01*
X113978858Y-121659619D01*
G37*
G36*
X112635356Y-120316117D02*
X111716117Y-121235356D01*
X111221142Y-120740381D01*
X112140381Y-119821142D01*
X112635356Y-120316117D01*
X112635356Y-120316117D01*
G37*
D21*
X138900000Y-97900000D03*
X138900000Y-96900000D03*
X138900000Y-95900000D03*
X134800000Y-95900000D03*
X134800000Y-96900000D03*
X134800000Y-97900000D03*
D22*
X136850000Y-96900000D03*
D14*
X136500000Y-126300000D03*
X135000000Y-126300000D03*
D13*
X134800000Y-128150000D03*
X136700000Y-128150000D03*
D23*
X138200000Y-104350000D03*
X138200000Y-107350000D03*
X131500000Y-104350000D03*
X131500000Y-107350000D03*
D24*
X135000000Y-112250000D03*
D20*
X133500000Y-124550000D03*
X138000000Y-124550000D03*
X133500000Y-116150000D03*
X138000000Y-116150000D03*
D14*
X134250000Y-119200000D03*
X132750000Y-119200000D03*
D25*
X118100000Y-109150000D03*
X118100000Y-107250000D03*
D13*
X117050000Y-92500000D03*
X118950000Y-92500000D03*
X122150000Y-92500000D03*
X120250000Y-92500000D03*
X118250000Y-100600000D03*
X116350000Y-100600000D03*
D25*
X116100000Y-109150000D03*
X116100000Y-107250000D03*
D14*
X113750000Y-105000000D03*
X115250000Y-105000000D03*
D26*
X115000000Y-96940000D03*
X115000000Y-94860000D03*
D14*
X103950000Y-102200000D03*
X105450000Y-102200000D03*
X102850000Y-97450000D03*
X104350000Y-97450000D03*
D11*
X94200000Y-95270000D03*
X94200000Y-92730000D03*
D25*
X106000000Y-95750000D03*
X106000000Y-97650000D03*
D27*
X100050000Y-106260000D03*
X100050000Y-104990000D03*
X100050000Y-103720000D03*
X100050000Y-102450000D03*
X100050000Y-101180000D03*
X100050000Y-99910000D03*
X100050000Y-98640000D03*
X94650000Y-98640000D03*
X94650000Y-99910000D03*
X94650000Y-101180000D03*
X94650000Y-102450000D03*
X94650000Y-103720000D03*
X94650000Y-104990000D03*
X94650000Y-106260000D03*
D25*
X104100000Y-103750000D03*
X104100000Y-105650000D03*
D24*
X100100000Y-94200000D03*
D13*
X106300000Y-99950000D03*
X104400000Y-99950000D03*
X97350000Y-114500000D03*
X95450000Y-114500000D03*
X98750000Y-114500000D03*
X100650000Y-114500000D03*
D24*
X100100000Y-131200000D03*
D13*
X96650000Y-112400000D03*
X98550000Y-112400000D03*
D28*
X97350000Y-118300000D03*
X98000000Y-118300000D03*
X98650000Y-118300000D03*
X98650000Y-116100000D03*
X97350000Y-116100000D03*
D16*
X95800000Y-118150000D03*
X95800000Y-116650000D03*
D14*
X126650000Y-102900000D03*
X125150000Y-102900000D03*
D29*
X119900000Y-95550000D03*
X119900000Y-94900000D03*
X119900000Y-94250000D03*
X117700000Y-94250000D03*
X117700000Y-94900000D03*
X117700000Y-95550000D03*
D15*
X124350000Y-95850000D03*
X124350000Y-93950000D03*
X121650000Y-94900000D03*
D16*
X126000000Y-95650000D03*
X126000000Y-94150000D03*
D14*
X125150000Y-101100000D03*
X126650000Y-101100000D03*
D30*
X131050000Y-94300000D03*
X131050000Y-93050000D03*
D15*
X129650000Y-99350000D03*
X129650000Y-97450000D03*
X126950000Y-98400000D03*
D16*
X131600000Y-97400000D03*
X131600000Y-95900000D03*
D30*
X133750000Y-99000000D03*
D16*
X137380000Y-101800000D03*
X137380000Y-100300000D03*
D30*
X137750000Y-99000000D03*
D15*
X134230000Y-102050000D03*
X134230000Y-100150000D03*
X131530000Y-101100000D03*
D30*
X135750000Y-99000000D03*
X135050000Y-94300000D03*
X135050000Y-93050000D03*
X133050000Y-93050000D03*
X133050000Y-91800000D03*
X131050000Y-91800000D03*
X133050000Y-94300000D03*
X135050000Y-91800000D03*
X137050000Y-93050000D03*
X137050000Y-91800000D03*
X137050000Y-94300000D03*
X139050000Y-93050000D03*
X139050000Y-91800000D03*
X139050000Y-94300000D03*
D11*
X169900000Y-102400000D03*
X164820000Y-102400000D03*
X167360000Y-104940000D03*
D12*
X156360000Y-111050000D03*
X156360000Y-93750000D03*
X178360000Y-93750000D03*
X178360000Y-111050000D03*
D13*
X152050000Y-109400000D03*
X153950000Y-109400000D03*
D14*
X160750000Y-105000000D03*
X162250000Y-105000000D03*
D15*
X159150000Y-106750000D03*
X159150000Y-108650000D03*
X161850000Y-107700000D03*
D16*
X164200000Y-108650000D03*
X164200000Y-107150000D03*
D14*
X152350000Y-107600000D03*
X153850000Y-107600000D03*
X148950000Y-108000000D03*
X150450000Y-108000000D03*
X146150000Y-109700000D03*
X147650000Y-109700000D03*
X146150000Y-108000000D03*
X147650000Y-108000000D03*
X149250000Y-109700000D03*
X150750000Y-109700000D03*
D17*
X170000000Y-112350000D03*
X169200000Y-112350000D03*
X168400000Y-112350000D03*
X167600000Y-112350000D03*
X166800000Y-112350000D03*
X166000000Y-112350000D03*
X165200000Y-112350000D03*
X164400000Y-112350000D03*
D18*
X162950000Y-113800000D03*
X162950000Y-114600000D03*
X162950000Y-115400000D03*
X162950000Y-116200000D03*
X162950000Y-117000000D03*
X162950000Y-117800000D03*
X162950000Y-118600000D03*
X162950000Y-119400000D03*
D17*
X164400000Y-120850000D03*
X165200000Y-120850000D03*
X166000000Y-120850000D03*
X166800000Y-120850000D03*
X167600000Y-120850000D03*
X168400000Y-120850000D03*
X169200000Y-120850000D03*
X170000000Y-120850000D03*
D18*
X171450000Y-119400000D03*
X171450000Y-118600000D03*
X171450000Y-117800000D03*
X171450000Y-117000000D03*
X171450000Y-116200000D03*
X171450000Y-115400000D03*
X171450000Y-114600000D03*
X171450000Y-113800000D03*
D19*
X178700000Y-133540000D03*
D11*
X176160000Y-133540000D03*
X178700000Y-131000000D03*
X176160000Y-131000000D03*
X178700000Y-128460000D03*
X176160000Y-128460000D03*
X178700000Y-125920000D03*
X176160000Y-125920000D03*
D13*
X170550000Y-126700000D03*
X168650000Y-126700000D03*
D10*
G36*
X162578858Y-123059619D02*
X161659619Y-123978858D01*
X161164644Y-123483883D01*
X162083883Y-122564644D01*
X162578858Y-123059619D01*
X162578858Y-123059619D01*
G37*
G36*
X161235356Y-121716117D02*
X160316117Y-122635356D01*
X159821142Y-122140381D01*
X160740381Y-121221142D01*
X161235356Y-121716117D01*
X161235356Y-121716117D01*
G37*
G36*
X170521142Y-111440381D02*
X171440381Y-110521142D01*
X171935356Y-111016117D01*
X171016117Y-111935356D01*
X170521142Y-111440381D01*
X170521142Y-111440381D01*
G37*
G36*
X171864644Y-112783883D02*
X172783883Y-111864644D01*
X173278858Y-112359619D01*
X172359619Y-113278858D01*
X171864644Y-112783883D01*
X171864644Y-112783883D01*
G37*
D20*
X183510000Y-136500000D03*
X188010000Y-136500000D03*
X183510000Y-128100000D03*
X188010000Y-128100000D03*
D10*
G36*
X163978858Y-121659619D02*
X163059619Y-122578858D01*
X162564644Y-122083883D01*
X163483883Y-121164644D01*
X163978858Y-121659619D01*
X163978858Y-121659619D01*
G37*
G36*
X162635356Y-120316117D02*
X161716117Y-121235356D01*
X161221142Y-120740381D01*
X162140381Y-119821142D01*
X162635356Y-120316117D01*
X162635356Y-120316117D01*
G37*
D21*
X188900000Y-97900000D03*
X188900000Y-96900000D03*
X188900000Y-95900000D03*
X184800000Y-95900000D03*
X184800000Y-96900000D03*
X184800000Y-97900000D03*
D22*
X186850000Y-96900000D03*
D14*
X186500000Y-126300000D03*
X185000000Y-126300000D03*
D13*
X184800000Y-128150000D03*
X186700000Y-128150000D03*
D23*
X188200000Y-104350000D03*
X188200000Y-107350000D03*
X181500000Y-104350000D03*
X181500000Y-107350000D03*
D24*
X185000000Y-112250000D03*
D20*
X183500000Y-124550000D03*
X188000000Y-124550000D03*
X183500000Y-116150000D03*
X188000000Y-116150000D03*
D14*
X184250000Y-119200000D03*
X182750000Y-119200000D03*
D25*
X168100000Y-109150000D03*
X168100000Y-107250000D03*
D13*
X167050000Y-92500000D03*
X168950000Y-92500000D03*
X172150000Y-92500000D03*
X170250000Y-92500000D03*
X168250000Y-100600000D03*
X166350000Y-100600000D03*
D25*
X166100000Y-109150000D03*
X166100000Y-107250000D03*
D14*
X163750000Y-105000000D03*
X165250000Y-105000000D03*
D26*
X165000000Y-96940000D03*
X165000000Y-94860000D03*
D14*
X153950000Y-102200000D03*
X155450000Y-102200000D03*
X152850000Y-97450000D03*
X154350000Y-97450000D03*
D11*
X144200000Y-95270000D03*
X144200000Y-92730000D03*
D25*
X156000000Y-95750000D03*
X156000000Y-97650000D03*
D27*
X150050000Y-106260000D03*
X150050000Y-104990000D03*
X150050000Y-103720000D03*
X150050000Y-102450000D03*
X150050000Y-101180000D03*
X150050000Y-99910000D03*
X150050000Y-98640000D03*
X144650000Y-98640000D03*
X144650000Y-99910000D03*
X144650000Y-101180000D03*
X144650000Y-102450000D03*
X144650000Y-103720000D03*
X144650000Y-104990000D03*
X144650000Y-106260000D03*
D25*
X154100000Y-103750000D03*
X154100000Y-105650000D03*
D24*
X150100000Y-94200000D03*
D13*
X156300000Y-99950000D03*
X154400000Y-99950000D03*
X147350000Y-114500000D03*
X145450000Y-114500000D03*
X148750000Y-114500000D03*
X150650000Y-114500000D03*
D24*
X150100000Y-131200000D03*
D13*
X146650000Y-112400000D03*
X148550000Y-112400000D03*
D28*
X147350000Y-118300000D03*
X148000000Y-118300000D03*
X148650000Y-118300000D03*
X148650000Y-116100000D03*
X147350000Y-116100000D03*
D16*
X145800000Y-118150000D03*
X145800000Y-116650000D03*
D14*
X176650000Y-102900000D03*
X175150000Y-102900000D03*
D29*
X169900000Y-95550000D03*
X169900000Y-94900000D03*
X169900000Y-94250000D03*
X167700000Y-94250000D03*
X167700000Y-94900000D03*
X167700000Y-95550000D03*
D15*
X174350000Y-95850000D03*
X174350000Y-93950000D03*
X171650000Y-94900000D03*
D16*
X176000000Y-95650000D03*
X176000000Y-94150000D03*
D14*
X175150000Y-101100000D03*
X176650000Y-101100000D03*
D30*
X181050000Y-94300000D03*
X181050000Y-93050000D03*
D15*
X179650000Y-99350000D03*
X179650000Y-97450000D03*
X176950000Y-98400000D03*
D16*
X181600000Y-97400000D03*
X181600000Y-95900000D03*
D30*
X183750000Y-99000000D03*
D16*
X187380000Y-101800000D03*
X187380000Y-100300000D03*
D30*
X187750000Y-99000000D03*
D15*
X184230000Y-102050000D03*
X184230000Y-100150000D03*
X181530000Y-101100000D03*
D30*
X185750000Y-99000000D03*
X185050000Y-94300000D03*
X185050000Y-93050000D03*
X183050000Y-93050000D03*
X183050000Y-91800000D03*
X181050000Y-91800000D03*
X183050000Y-94300000D03*
X185050000Y-91800000D03*
X187050000Y-93050000D03*
X187050000Y-91800000D03*
X187050000Y-94300000D03*
X189050000Y-93050000D03*
X189050000Y-91800000D03*
X189050000Y-94300000D03*
D11*
X169900000Y-52400000D03*
X164820000Y-52400000D03*
X167360000Y-54940000D03*
D12*
X156360000Y-61050000D03*
X156360000Y-43750000D03*
X178360000Y-43750000D03*
X178360000Y-61050000D03*
D13*
X152050000Y-59400000D03*
X153950000Y-59400000D03*
D14*
X160750000Y-55000000D03*
X162250000Y-55000000D03*
D15*
X159150000Y-56750000D03*
X159150000Y-58650000D03*
X161850000Y-57700000D03*
D16*
X164200000Y-58650000D03*
X164200000Y-57150000D03*
D14*
X152350000Y-57600000D03*
X153850000Y-57600000D03*
X148950000Y-58000000D03*
X150450000Y-58000000D03*
X146150000Y-59700000D03*
X147650000Y-59700000D03*
X146150000Y-58000000D03*
X147650000Y-58000000D03*
X149250000Y-59700000D03*
X150750000Y-59700000D03*
D17*
X170000000Y-62350000D03*
X169200000Y-62350000D03*
X168400000Y-62350000D03*
X167600000Y-62350000D03*
X166800000Y-62350000D03*
X166000000Y-62350000D03*
X165200000Y-62350000D03*
X164400000Y-62350000D03*
D18*
X162950000Y-63800000D03*
X162950000Y-64600000D03*
X162950000Y-65400000D03*
X162950000Y-66200000D03*
X162950000Y-67000000D03*
X162950000Y-67800000D03*
X162950000Y-68600000D03*
X162950000Y-69400000D03*
D17*
X164400000Y-70850000D03*
X165200000Y-70850000D03*
X166000000Y-70850000D03*
X166800000Y-70850000D03*
X167600000Y-70850000D03*
X168400000Y-70850000D03*
X169200000Y-70850000D03*
X170000000Y-70850000D03*
D18*
X171450000Y-69400000D03*
X171450000Y-68600000D03*
X171450000Y-67800000D03*
X171450000Y-67000000D03*
X171450000Y-66200000D03*
X171450000Y-65400000D03*
X171450000Y-64600000D03*
X171450000Y-63800000D03*
D19*
X178700000Y-83540000D03*
D11*
X176160000Y-83540000D03*
X178700000Y-81000000D03*
X176160000Y-81000000D03*
X178700000Y-78460000D03*
X176160000Y-78460000D03*
X178700000Y-75920000D03*
X176160000Y-75920000D03*
D13*
X170550000Y-76700000D03*
X168650000Y-76700000D03*
D10*
G36*
X162578858Y-73059619D02*
X161659619Y-73978858D01*
X161164644Y-73483883D01*
X162083883Y-72564644D01*
X162578858Y-73059619D01*
X162578858Y-73059619D01*
G37*
G36*
X161235356Y-71716117D02*
X160316117Y-72635356D01*
X159821142Y-72140381D01*
X160740381Y-71221142D01*
X161235356Y-71716117D01*
X161235356Y-71716117D01*
G37*
G36*
X170521142Y-61440381D02*
X171440381Y-60521142D01*
X171935356Y-61016117D01*
X171016117Y-61935356D01*
X170521142Y-61440381D01*
X170521142Y-61440381D01*
G37*
G36*
X171864644Y-62783883D02*
X172783883Y-61864644D01*
X173278858Y-62359619D01*
X172359619Y-63278858D01*
X171864644Y-62783883D01*
X171864644Y-62783883D01*
G37*
D20*
X183510000Y-86500000D03*
X188010000Y-86500000D03*
X183510000Y-78100000D03*
X188010000Y-78100000D03*
D10*
G36*
X163978858Y-71659619D02*
X163059619Y-72578858D01*
X162564644Y-72083883D01*
X163483883Y-71164644D01*
X163978858Y-71659619D01*
X163978858Y-71659619D01*
G37*
G36*
X162635356Y-70316117D02*
X161716117Y-71235356D01*
X161221142Y-70740381D01*
X162140381Y-69821142D01*
X162635356Y-70316117D01*
X162635356Y-70316117D01*
G37*
D21*
X188900000Y-47900000D03*
X188900000Y-46900000D03*
X188900000Y-45900000D03*
X184800000Y-45900000D03*
X184800000Y-46900000D03*
X184800000Y-47900000D03*
D22*
X186850000Y-46900000D03*
D14*
X186500000Y-76300000D03*
X185000000Y-76300000D03*
D13*
X184800000Y-78150000D03*
X186700000Y-78150000D03*
D23*
X188200000Y-54350000D03*
X188200000Y-57350000D03*
X181500000Y-54350000D03*
X181500000Y-57350000D03*
D24*
X185000000Y-62250000D03*
D20*
X183500000Y-74550000D03*
X188000000Y-74550000D03*
X183500000Y-66150000D03*
X188000000Y-66150000D03*
D14*
X184250000Y-69200000D03*
X182750000Y-69200000D03*
D25*
X168100000Y-59150000D03*
X168100000Y-57250000D03*
D13*
X167050000Y-42500000D03*
X168950000Y-42500000D03*
X172150000Y-42500000D03*
X170250000Y-42500000D03*
X168250000Y-50600000D03*
X166350000Y-50600000D03*
D25*
X166100000Y-59150000D03*
X166100000Y-57250000D03*
D14*
X163750000Y-55000000D03*
X165250000Y-55000000D03*
D26*
X165000000Y-46940000D03*
X165000000Y-44860000D03*
D14*
X153950000Y-52200000D03*
X155450000Y-52200000D03*
X152850000Y-47450000D03*
X154350000Y-47450000D03*
D11*
X144200000Y-45270000D03*
X144200000Y-42730000D03*
D25*
X156000000Y-45750000D03*
X156000000Y-47650000D03*
D27*
X150050000Y-56260000D03*
X150050000Y-54990000D03*
X150050000Y-53720000D03*
X150050000Y-52450000D03*
X150050000Y-51180000D03*
X150050000Y-49910000D03*
X150050000Y-48640000D03*
X144650000Y-48640000D03*
X144650000Y-49910000D03*
X144650000Y-51180000D03*
X144650000Y-52450000D03*
X144650000Y-53720000D03*
X144650000Y-54990000D03*
X144650000Y-56260000D03*
D25*
X154100000Y-53750000D03*
X154100000Y-55650000D03*
D24*
X150100000Y-44200000D03*
D13*
X156300000Y-49950000D03*
X154400000Y-49950000D03*
X147350000Y-64500000D03*
X145450000Y-64500000D03*
X148750000Y-64500000D03*
X150650000Y-64500000D03*
D24*
X150100000Y-81200000D03*
D13*
X146650000Y-62400000D03*
X148550000Y-62400000D03*
D28*
X147350000Y-68300000D03*
X148000000Y-68300000D03*
X148650000Y-68300000D03*
X148650000Y-66100000D03*
X147350000Y-66100000D03*
D16*
X145800000Y-68150000D03*
X145800000Y-66650000D03*
D14*
X176650000Y-52900000D03*
X175150000Y-52900000D03*
D29*
X169900000Y-45550000D03*
X169900000Y-44900000D03*
X169900000Y-44250000D03*
X167700000Y-44250000D03*
X167700000Y-44900000D03*
X167700000Y-45550000D03*
D15*
X174350000Y-45850000D03*
X174350000Y-43950000D03*
X171650000Y-44900000D03*
D16*
X176000000Y-45650000D03*
X176000000Y-44150000D03*
D14*
X175150000Y-51100000D03*
X176650000Y-51100000D03*
D30*
X181050000Y-44300000D03*
X181050000Y-43050000D03*
D15*
X179650000Y-49350000D03*
X179650000Y-47450000D03*
X176950000Y-48400000D03*
D16*
X181600000Y-47400000D03*
X181600000Y-45900000D03*
D30*
X183750000Y-49000000D03*
D16*
X187380000Y-51800000D03*
X187380000Y-50300000D03*
D30*
X187750000Y-49000000D03*
D15*
X184230000Y-52050000D03*
X184230000Y-50150000D03*
X181530000Y-51100000D03*
D30*
X185750000Y-49000000D03*
X185050000Y-44300000D03*
X185050000Y-43050000D03*
X183050000Y-43050000D03*
X183050000Y-41800000D03*
X181050000Y-41800000D03*
X183050000Y-44300000D03*
X185050000Y-41800000D03*
X187050000Y-43050000D03*
X187050000Y-41800000D03*
X187050000Y-44300000D03*
X189050000Y-43050000D03*
X189050000Y-41800000D03*
X189050000Y-44300000D03*
D20*
X133510000Y-86500000D03*
X138010000Y-86500000D03*
X133510000Y-78100000D03*
X138010000Y-78100000D03*
D30*
X137050000Y-44300000D03*
X139050000Y-44300000D03*
X131050000Y-44300000D03*
X135050000Y-44300000D03*
X133050000Y-44300000D03*
X137050000Y-41800000D03*
X139050000Y-41800000D03*
X131050000Y-41800000D03*
X135050000Y-41800000D03*
X133050000Y-41800000D03*
X139050000Y-43050000D03*
X137050000Y-43050000D03*
X131050000Y-43050000D03*
X133050000Y-43050000D03*
X135050000Y-43050000D03*
X137750000Y-49000000D03*
X135750000Y-49000000D03*
X133750000Y-49000000D03*
D16*
X137380000Y-51800000D03*
X137380000Y-50300000D03*
D15*
X134230000Y-52050000D03*
X134230000Y-50150000D03*
X131530000Y-51100000D03*
D24*
X100100000Y-44200000D03*
X135000000Y-62250000D03*
D17*
X120000000Y-62350000D03*
X119200000Y-62350000D03*
X118400000Y-62350000D03*
X117600000Y-62350000D03*
X116800000Y-62350000D03*
X116000000Y-62350000D03*
X115200000Y-62350000D03*
X114400000Y-62350000D03*
D18*
X112950000Y-63800000D03*
X112950000Y-64600000D03*
X112950000Y-65400000D03*
X112950000Y-66200000D03*
X112950000Y-67000000D03*
X112950000Y-67800000D03*
X112950000Y-68600000D03*
X112950000Y-69400000D03*
D17*
X114400000Y-70850000D03*
X115200000Y-70850000D03*
X116000000Y-70850000D03*
X116800000Y-70850000D03*
X117600000Y-70850000D03*
X118400000Y-70850000D03*
X119200000Y-70850000D03*
X120000000Y-70850000D03*
D18*
X121450000Y-69400000D03*
X121450000Y-68600000D03*
X121450000Y-67800000D03*
X121450000Y-67000000D03*
X121450000Y-66200000D03*
X121450000Y-65400000D03*
X121450000Y-64600000D03*
X121450000Y-63800000D03*
D13*
X120550000Y-76700000D03*
X118650000Y-76700000D03*
D14*
X126650000Y-52900000D03*
X125150000Y-52900000D03*
D10*
G36*
X113978858Y-71659619D02*
X113059619Y-72578858D01*
X112564644Y-72083883D01*
X113483883Y-71164644D01*
X113978858Y-71659619D01*
X113978858Y-71659619D01*
G37*
G36*
X112635356Y-70316117D02*
X111716117Y-71235356D01*
X111221142Y-70740381D01*
X112140381Y-69821142D01*
X112635356Y-70316117D01*
X112635356Y-70316117D01*
G37*
G36*
X120521142Y-61440381D02*
X121440381Y-60521142D01*
X121935356Y-61016117D01*
X121016117Y-61935356D01*
X120521142Y-61440381D01*
X120521142Y-61440381D01*
G37*
G36*
X121864644Y-62783883D02*
X122783883Y-61864644D01*
X123278858Y-62359619D01*
X122359619Y-63278858D01*
X121864644Y-62783883D01*
X121864644Y-62783883D01*
G37*
G36*
X112578858Y-73059619D02*
X111659619Y-73978858D01*
X111164644Y-73483883D01*
X112083883Y-72564644D01*
X112578858Y-73059619D01*
X112578858Y-73059619D01*
G37*
G36*
X111235356Y-71716117D02*
X110316117Y-72635356D01*
X109821142Y-72140381D01*
X110740381Y-71221142D01*
X111235356Y-71716117D01*
X111235356Y-71716117D01*
G37*
D25*
X118100000Y-59150000D03*
X118100000Y-57250000D03*
X116100000Y-59150000D03*
X116100000Y-57250000D03*
D13*
X134800000Y-78150000D03*
X136700000Y-78150000D03*
X118250000Y-50600000D03*
X116350000Y-50600000D03*
X106300000Y-49950000D03*
X104400000Y-49950000D03*
D25*
X106000000Y-45750000D03*
X106000000Y-47650000D03*
D13*
X96650000Y-62400000D03*
X98550000Y-62400000D03*
D25*
X104100000Y-53750000D03*
X104100000Y-55650000D03*
D13*
X102050000Y-59400000D03*
X103950000Y-59400000D03*
X98750000Y-64500000D03*
X100650000Y-64500000D03*
X97350000Y-64500000D03*
X95450000Y-64500000D03*
X122150000Y-42500000D03*
X120250000Y-42500000D03*
X117050000Y-42500000D03*
X118950000Y-42500000D03*
D11*
X94200000Y-45270000D03*
X94200000Y-42730000D03*
D15*
X124350000Y-45850000D03*
X124350000Y-43950000D03*
X121650000Y-44900000D03*
D14*
X136500000Y-76300000D03*
X135000000Y-76300000D03*
X125150000Y-51100000D03*
X126650000Y-51100000D03*
X134250000Y-69200000D03*
X132750000Y-69200000D03*
X113750000Y-55000000D03*
X115250000Y-55000000D03*
X110750000Y-55000000D03*
X112250000Y-55000000D03*
X102850000Y-47450000D03*
X104350000Y-47450000D03*
X103950000Y-52200000D03*
X105450000Y-52200000D03*
X96150000Y-58000000D03*
X97650000Y-58000000D03*
X98950000Y-58000000D03*
X100450000Y-58000000D03*
X102350000Y-57600000D03*
X103850000Y-57600000D03*
D16*
X126000000Y-45650000D03*
X126000000Y-44150000D03*
X95800000Y-68150000D03*
X95800000Y-66650000D03*
D27*
X100050000Y-56260000D03*
X100050000Y-54990000D03*
X100050000Y-53720000D03*
X100050000Y-52450000D03*
X100050000Y-51180000D03*
X100050000Y-49910000D03*
X100050000Y-48640000D03*
X94650000Y-48640000D03*
X94650000Y-49910000D03*
X94650000Y-51180000D03*
X94650000Y-52450000D03*
X94650000Y-53720000D03*
X94650000Y-54990000D03*
X94650000Y-56260000D03*
D28*
X97350000Y-68300000D03*
X98000000Y-68300000D03*
X98650000Y-68300000D03*
X98650000Y-66100000D03*
X97350000Y-66100000D03*
D26*
X115000000Y-46940000D03*
X115000000Y-44860000D03*
D29*
X119900000Y-45550000D03*
X119900000Y-44900000D03*
X119900000Y-44250000D03*
X117700000Y-44250000D03*
X117700000Y-44900000D03*
X117700000Y-45550000D03*
D14*
X96150000Y-59700000D03*
X97650000Y-59700000D03*
X99250000Y-59700000D03*
X100750000Y-59700000D03*
D20*
X133500000Y-74550000D03*
X138000000Y-74550000D03*
X133500000Y-66150000D03*
X138000000Y-66150000D03*
D15*
X129650000Y-49350000D03*
X129650000Y-47450000D03*
X126950000Y-48400000D03*
D16*
X131600000Y-47400000D03*
X131600000Y-45900000D03*
D15*
X109150000Y-56750000D03*
X109150000Y-58650000D03*
X111850000Y-57700000D03*
D16*
X114200000Y-58650000D03*
X114200000Y-57150000D03*
D24*
X100100000Y-81200000D03*
D21*
X138900000Y-47900000D03*
X138900000Y-46900000D03*
X138900000Y-45900000D03*
X134800000Y-45900000D03*
X134800000Y-46900000D03*
X134800000Y-47900000D03*
D22*
X136850000Y-46900000D03*
D23*
X138200000Y-54350000D03*
X138200000Y-57350000D03*
X131500000Y-54350000D03*
X131500000Y-57350000D03*
D19*
X128700000Y-83540000D03*
D11*
X126160000Y-83540000D03*
X128700000Y-81000000D03*
X126160000Y-81000000D03*
X128700000Y-78460000D03*
X126160000Y-78460000D03*
X128700000Y-75920000D03*
X126160000Y-75920000D03*
X119900000Y-52400000D03*
X114820000Y-52400000D03*
X117360000Y-54940000D03*
D12*
X106360000Y-61050000D03*
X106360000Y-43750000D03*
X128360000Y-43750000D03*
X128360000Y-61050000D03*
D31*
G36*
X137500000Y-45600000D02*
X136200000Y-45600000D01*
X136200000Y-44000000D01*
X137500000Y-44000000D01*
X137500000Y-45600000D01*
X137500000Y-45600000D01*
G37*
X137500000Y-45600000D02*
X136200000Y-45600000D01*
X136200000Y-44000000D01*
X137500000Y-44000000D01*
X137500000Y-45600000D01*
G36*
X187500000Y-45600000D02*
X186200000Y-45600000D01*
X186200000Y-44000000D01*
X187500000Y-44000000D01*
X187500000Y-45600000D01*
X187500000Y-45600000D01*
G37*
X187500000Y-45600000D02*
X186200000Y-45600000D01*
X186200000Y-44000000D01*
X187500000Y-44000000D01*
X187500000Y-45600000D01*
G36*
X187500000Y-95600000D02*
X186200000Y-95600000D01*
X186200000Y-94000000D01*
X187500000Y-94000000D01*
X187500000Y-95600000D01*
X187500000Y-95600000D01*
G37*
X187500000Y-95600000D02*
X186200000Y-95600000D01*
X186200000Y-94000000D01*
X187500000Y-94000000D01*
X187500000Y-95600000D01*
G36*
X137500000Y-95600000D02*
X136200000Y-95600000D01*
X136200000Y-94000000D01*
X137500000Y-94000000D01*
X137500000Y-95600000D01*
X137500000Y-95600000D01*
G37*
X137500000Y-95600000D02*
X136200000Y-95600000D01*
X136200000Y-94000000D01*
X137500000Y-94000000D01*
X137500000Y-95600000D01*
M02*
