G04 #@! TF.FileFunction,Soldermask,Bot*
%FSLAX46Y46*%
G04 Gerber Fmt 4.6, Leading zero omitted, Abs format (unit mm)*
G04 Created by KiCad (PCBNEW 4.0.4+dfsg1-stable) date Wed Mar  8 21:16:26 2017*
%MOMM*%
%LPD*%
G01*
G04 APERTURE LIST*
%ADD10C,0.100000*%
%ADD11R,0.700000X1.300000*%
%ADD12R,0.900000X1.700000*%
%ADD13R,0.900000X0.500000*%
%ADD14R,3.600000X1.270000*%
%ADD15C,2.000000*%
%ADD16C,1.300000*%
%ADD17R,2.000000X2.000000*%
%ADD18C,4.400000*%
%ADD19C,0.600000*%
%ADD20C,1.000000*%
%ADD21C,0.700000*%
G04 APERTURE END LIST*
D10*
D11*
X135900000Y-96900000D03*
X137800000Y-96900000D03*
X98450000Y-102900000D03*
X96550000Y-102900000D03*
X98450000Y-100800000D03*
X96550000Y-100800000D03*
D12*
X124850000Y-119200000D03*
X127750000Y-119200000D03*
D13*
X94700000Y-98550000D03*
X94700000Y-100050000D03*
X94600000Y-105700000D03*
X94600000Y-104200000D03*
D14*
X116400000Y-126660000D03*
X116400000Y-129200000D03*
X116400000Y-131740000D03*
X122800000Y-126660000D03*
X122800000Y-129200000D03*
X122775000Y-134280000D03*
X122800000Y-131740000D03*
X116425000Y-134280000D03*
D15*
X119900000Y-102400000D03*
X114820000Y-102400000D03*
X117360000Y-104940000D03*
D16*
X106360000Y-111050000D03*
X106360000Y-93750000D03*
X128360000Y-93750000D03*
X128360000Y-111050000D03*
D17*
X128700000Y-133540000D03*
D15*
X126160000Y-133540000D03*
X128700000Y-131000000D03*
X126160000Y-131000000D03*
X128700000Y-128460000D03*
X126160000Y-128460000D03*
X128700000Y-125920000D03*
X126160000Y-125920000D03*
D18*
X135000000Y-112250000D03*
D15*
X94200000Y-95270000D03*
X94200000Y-92730000D03*
D18*
X100100000Y-94200000D03*
X100100000Y-131200000D03*
D19*
X131050000Y-94300000D03*
X131050000Y-93050000D03*
X133750000Y-99000000D03*
X137750000Y-99000000D03*
X135750000Y-99000000D03*
X135050000Y-94300000D03*
X135050000Y-93050000D03*
X133050000Y-93050000D03*
X133050000Y-91800000D03*
X131050000Y-91800000D03*
X133050000Y-94300000D03*
X135050000Y-91800000D03*
X137050000Y-93050000D03*
X137050000Y-91800000D03*
X137050000Y-94300000D03*
X139050000Y-93050000D03*
X139050000Y-91800000D03*
X139050000Y-94300000D03*
D11*
X185900000Y-96900000D03*
X187800000Y-96900000D03*
X148450000Y-102900000D03*
X146550000Y-102900000D03*
X148450000Y-100800000D03*
X146550000Y-100800000D03*
D12*
X174850000Y-119200000D03*
X177750000Y-119200000D03*
D13*
X144700000Y-98550000D03*
X144700000Y-100050000D03*
X144600000Y-105700000D03*
X144600000Y-104200000D03*
D14*
X166400000Y-126660000D03*
X166400000Y-129200000D03*
X166400000Y-131740000D03*
X172800000Y-126660000D03*
X172800000Y-129200000D03*
X172775000Y-134280000D03*
X172800000Y-131740000D03*
X166425000Y-134280000D03*
D15*
X169900000Y-102400000D03*
X164820000Y-102400000D03*
X167360000Y-104940000D03*
D16*
X156360000Y-111050000D03*
X156360000Y-93750000D03*
X178360000Y-93750000D03*
X178360000Y-111050000D03*
D17*
X178700000Y-133540000D03*
D15*
X176160000Y-133540000D03*
X178700000Y-131000000D03*
X176160000Y-131000000D03*
X178700000Y-128460000D03*
X176160000Y-128460000D03*
X178700000Y-125920000D03*
X176160000Y-125920000D03*
D18*
X185000000Y-112250000D03*
D15*
X144200000Y-95270000D03*
X144200000Y-92730000D03*
D18*
X150100000Y-94200000D03*
X150100000Y-131200000D03*
D19*
X181050000Y-94300000D03*
X181050000Y-93050000D03*
X183750000Y-99000000D03*
X187750000Y-99000000D03*
X185750000Y-99000000D03*
X185050000Y-94300000D03*
X185050000Y-93050000D03*
X183050000Y-93050000D03*
X183050000Y-91800000D03*
X181050000Y-91800000D03*
X183050000Y-94300000D03*
X185050000Y-91800000D03*
X187050000Y-93050000D03*
X187050000Y-91800000D03*
X187050000Y-94300000D03*
X189050000Y-93050000D03*
X189050000Y-91800000D03*
X189050000Y-94300000D03*
D11*
X185900000Y-46900000D03*
X187800000Y-46900000D03*
X148450000Y-52900000D03*
X146550000Y-52900000D03*
X148450000Y-50800000D03*
X146550000Y-50800000D03*
D12*
X174850000Y-69200000D03*
X177750000Y-69200000D03*
D13*
X144700000Y-48550000D03*
X144700000Y-50050000D03*
X144600000Y-55700000D03*
X144600000Y-54200000D03*
D14*
X166400000Y-76660000D03*
X166400000Y-79200000D03*
X166400000Y-81740000D03*
X172800000Y-76660000D03*
X172800000Y-79200000D03*
X172775000Y-84280000D03*
X172800000Y-81740000D03*
X166425000Y-84280000D03*
D15*
X169900000Y-52400000D03*
X164820000Y-52400000D03*
X167360000Y-54940000D03*
D16*
X156360000Y-61050000D03*
X156360000Y-43750000D03*
X178360000Y-43750000D03*
X178360000Y-61050000D03*
D17*
X178700000Y-83540000D03*
D15*
X176160000Y-83540000D03*
X178700000Y-81000000D03*
X176160000Y-81000000D03*
X178700000Y-78460000D03*
X176160000Y-78460000D03*
X178700000Y-75920000D03*
X176160000Y-75920000D03*
D18*
X185000000Y-62250000D03*
D15*
X144200000Y-45270000D03*
X144200000Y-42730000D03*
D18*
X150100000Y-44200000D03*
X150100000Y-81200000D03*
D19*
X181050000Y-44300000D03*
X181050000Y-43050000D03*
X183750000Y-49000000D03*
X187750000Y-49000000D03*
X185750000Y-49000000D03*
X185050000Y-44300000D03*
X185050000Y-43050000D03*
X183050000Y-43050000D03*
X183050000Y-41800000D03*
X181050000Y-41800000D03*
X183050000Y-44300000D03*
X185050000Y-41800000D03*
X187050000Y-43050000D03*
X187050000Y-41800000D03*
X187050000Y-44300000D03*
X189050000Y-43050000D03*
X189050000Y-41800000D03*
X189050000Y-44300000D03*
X137050000Y-44300000D03*
X139050000Y-44300000D03*
X131050000Y-44300000D03*
X135050000Y-44300000D03*
X133050000Y-44300000D03*
X137050000Y-41800000D03*
X139050000Y-41800000D03*
X131050000Y-41800000D03*
X135050000Y-41800000D03*
X133050000Y-41800000D03*
X139050000Y-43050000D03*
X137050000Y-43050000D03*
X131050000Y-43050000D03*
X133050000Y-43050000D03*
X135050000Y-43050000D03*
X137750000Y-49000000D03*
X135750000Y-49000000D03*
X133750000Y-49000000D03*
D12*
X124850000Y-69200000D03*
X127750000Y-69200000D03*
D18*
X100100000Y-44200000D03*
X135000000Y-62250000D03*
D11*
X98450000Y-52900000D03*
X96550000Y-52900000D03*
X135900000Y-46900000D03*
X137800000Y-46900000D03*
X98450000Y-50800000D03*
X96550000Y-50800000D03*
D15*
X94200000Y-45270000D03*
X94200000Y-42730000D03*
D13*
X94700000Y-48550000D03*
X94700000Y-50050000D03*
X94600000Y-55700000D03*
X94600000Y-54200000D03*
D14*
X116400000Y-76660000D03*
X116400000Y-79200000D03*
X116400000Y-81740000D03*
X122800000Y-76660000D03*
X122800000Y-79200000D03*
X122775000Y-84280000D03*
X122800000Y-81740000D03*
X116425000Y-84280000D03*
D18*
X100100000Y-81200000D03*
D17*
X128700000Y-83540000D03*
D15*
X126160000Y-83540000D03*
X128700000Y-81000000D03*
X126160000Y-81000000D03*
X128700000Y-78460000D03*
X126160000Y-78460000D03*
X128700000Y-75920000D03*
X126160000Y-75920000D03*
X119900000Y-52400000D03*
X114820000Y-52400000D03*
X117360000Y-54940000D03*
D16*
X106360000Y-61050000D03*
X106360000Y-43750000D03*
X128360000Y-43750000D03*
X128360000Y-61050000D03*
D20*
X138000000Y-124550000D03*
X138000000Y-116150000D03*
X138010000Y-131900000D03*
D21*
X139600000Y-96900000D03*
D20*
X134900000Y-104350000D03*
X123350000Y-110950006D03*
X121800000Y-126700000D03*
X102600000Y-114700000D03*
X98000000Y-119600000D03*
X116000000Y-116000000D03*
X110500000Y-109500000D03*
X119000000Y-106100000D03*
X92850000Y-101700000D03*
X188000000Y-124550000D03*
X188000000Y-116150000D03*
X188010000Y-131900000D03*
D21*
X189600000Y-96900000D03*
D20*
X184900000Y-104350000D03*
X173350000Y-110950006D03*
X171800000Y-126700000D03*
X152600000Y-114700000D03*
X148000000Y-119600000D03*
X166000000Y-116000000D03*
X160500000Y-109500000D03*
X169000000Y-106100000D03*
X142850000Y-101700000D03*
X188000000Y-74550000D03*
X188000000Y-66150000D03*
X188010000Y-81900000D03*
D21*
X189600000Y-46900000D03*
D20*
X184900000Y-54350000D03*
X173350000Y-60950006D03*
X171800000Y-76700000D03*
X152600000Y-64700000D03*
X148000000Y-69600000D03*
X166000000Y-66000000D03*
X160500000Y-59500000D03*
X169000000Y-56100000D03*
X142850000Y-51700000D03*
X138000000Y-74550000D03*
X138000000Y-66150000D03*
X134900000Y-54350000D03*
X138010000Y-81900000D03*
D21*
X139600000Y-46900000D03*
D20*
X121800000Y-76700000D03*
X116000000Y-66000000D03*
X119000000Y-56100000D03*
X110500000Y-59500000D03*
X123350000Y-60950006D03*
X102600000Y-64700000D03*
X92850000Y-51700000D03*
X98000000Y-69600000D03*
X123050000Y-109350000D03*
X120350000Y-107200008D03*
X116400000Y-126660000D03*
X173050000Y-109350000D03*
X170350000Y-107200008D03*
X166400000Y-126660000D03*
X173050000Y-59350000D03*
X170350000Y-57200008D03*
X166400000Y-76660000D03*
X123050000Y-59350000D03*
X116400000Y-76660000D03*
X120350000Y-57200008D03*
X132100000Y-125700000D03*
X127099994Y-115700000D03*
X118599998Y-115700000D03*
X182100000Y-125700000D03*
X177099994Y-115700000D03*
X168599998Y-115700000D03*
X182100000Y-75700000D03*
X177099994Y-65700000D03*
X168599998Y-65700000D03*
X127099994Y-65700000D03*
X132100000Y-75700000D03*
X118599998Y-65700000D03*
X133200000Y-96700000D03*
X129492798Y-95900000D03*
X94850000Y-107699988D03*
X101850000Y-103200000D03*
X105100000Y-106700000D03*
X109350000Y-91700000D03*
X183200000Y-96700000D03*
X179492798Y-95900000D03*
X144850000Y-107699988D03*
X151850000Y-103200000D03*
X155100000Y-106700000D03*
X159350000Y-91700000D03*
X183200000Y-46700000D03*
X179492798Y-45900000D03*
X144850000Y-57699988D03*
X151850000Y-53200000D03*
X155100000Y-56700000D03*
X159350000Y-41700000D03*
X129492798Y-45900000D03*
X133200000Y-46700000D03*
X94850000Y-57699988D03*
X101850000Y-53200000D03*
X105100000Y-56700000D03*
X109350000Y-41700000D03*
X115600000Y-92700000D03*
X118350000Y-96950000D03*
X165600000Y-92700000D03*
X168350000Y-96950000D03*
X165600000Y-42700000D03*
X168350000Y-46950000D03*
X115600000Y-42700000D03*
X118350000Y-46950000D03*
X110600000Y-99950000D03*
X108300000Y-100000000D03*
X160600000Y-99950000D03*
X158300000Y-100000000D03*
X160600000Y-49950000D03*
X158300000Y-50000000D03*
X108300000Y-50000000D03*
X110600000Y-49950000D03*
X107000000Y-102199998D03*
X102600000Y-98700000D03*
X157000000Y-102199998D03*
X152600000Y-98700000D03*
X157000000Y-52199998D03*
X152600000Y-48700000D03*
X107000000Y-52199998D03*
X102600000Y-48700000D03*
X101600000Y-106700000D03*
X96100000Y-105200000D03*
X151600000Y-106700000D03*
X146100000Y-105200000D03*
X151600000Y-56700000D03*
X146100000Y-55200000D03*
X101600000Y-56700000D03*
X96100000Y-55200000D03*
X123350000Y-119350000D03*
X173350000Y-119350000D03*
X173350000Y-69350000D03*
X123350000Y-69350000D03*
X129250000Y-119200000D03*
X179250000Y-119200000D03*
X179250000Y-69200000D03*
X129250000Y-69200000D03*
X93100000Y-99610000D03*
X143100000Y-99610000D03*
X143100000Y-49610000D03*
X93100000Y-49610000D03*
X106600000Y-107450000D03*
X94600000Y-97200000D03*
X97600000Y-98650002D03*
X156600000Y-107450000D03*
X144600000Y-97200000D03*
X147600000Y-98650002D03*
X156600000Y-57450000D03*
X144600000Y-47200000D03*
X147600000Y-48650002D03*
X97600000Y-48650002D03*
X94600000Y-47200000D03*
X106600000Y-57450000D03*
X113200000Y-129600000D03*
X163200000Y-129600000D03*
X163200000Y-79600000D03*
X113200000Y-79600000D03*
X110300000Y-114395980D03*
X160300000Y-114395980D03*
X160300000Y-64395980D03*
X110300000Y-64395980D03*
X110700000Y-127500000D03*
X160700000Y-127500000D03*
X160700000Y-77500000D03*
X110700000Y-77500000D03*
X108500000Y-124900000D03*
X158500000Y-124900000D03*
X158500000Y-74900000D03*
X108500000Y-74900000D03*
X110400000Y-117300000D03*
X160400000Y-117300000D03*
X160400000Y-67300000D03*
X110400000Y-67300000D03*
X109600002Y-119700000D03*
X159600002Y-119700000D03*
X159600002Y-69700000D03*
X109600002Y-69700000D03*
X120014475Y-110558746D03*
X115000000Y-122600000D03*
X170014475Y-110558746D03*
X165000000Y-122600000D03*
X170014475Y-60558746D03*
X165000000Y-72600000D03*
X115000000Y-72600000D03*
X120014475Y-60558746D03*
X92850000Y-103450000D03*
X142850000Y-103450000D03*
X142850000Y-53450000D03*
X92850000Y-53450000D03*
X130050000Y-117250000D03*
X126950000Y-117350000D03*
X180050000Y-117250000D03*
X176950000Y-117350000D03*
X180050000Y-67250000D03*
X176950000Y-67350000D03*
X130050000Y-67250000D03*
X126950000Y-67350000D03*
X128300000Y-102900000D03*
X124800000Y-104400000D03*
X178300000Y-102900000D03*
X174800000Y-104400000D03*
X178300000Y-52900000D03*
X174800000Y-54400000D03*
X128300000Y-52900000D03*
X124800000Y-54400000D03*
X93100000Y-106450000D03*
X107900000Y-106800000D03*
X143100000Y-106450000D03*
X157900000Y-106800000D03*
X143100000Y-56450000D03*
X157900000Y-56800000D03*
X107900000Y-56800000D03*
X93100000Y-56450000D03*
M02*
