M48
;DRILL file {KiCad 4.0.4+dfsg1-stable} date Wed Mar  8 20:57:35 2017
;FORMAT={-:-/ absolute / inch / decimal}
FMAT,2
INCH,TZ
T1C0.012
T2C0.020
T3C0.024
T4C0.030
T5C0.040
T6C0.051
T7C0.087
%
G90
G05
M72
T1
X5.1594Y1.6457
X5.1594Y1.6949
X5.1594Y1.7441
X5.1594Y3.6142
X5.1594Y3.6634
X5.1594Y3.7126
X5.2382Y1.6457
X5.2382Y1.6949
X5.2382Y1.7441
X5.2382Y3.6142
X5.2382Y3.6634
X5.2382Y3.7126
X5.2657Y1.9291
X5.2657Y3.8976
X5.3169Y1.6457
X5.3169Y1.6949
X5.3169Y1.7441
X5.3169Y3.6142
X5.3169Y3.6634
X5.3169Y3.7126
X5.3445Y1.9291
X5.3445Y3.8976
X5.3957Y1.6457
X5.3957Y1.6949
X5.3957Y1.7441
X5.3957Y3.6142
X5.3957Y3.6634
X5.3957Y3.7126
X5.4232Y1.9291
X5.4232Y3.8976
X5.4331Y2.6043
X5.4331Y2.935
X5.4331Y4.5728
X5.4331Y4.9035
X5.4744Y1.6457
X5.4744Y1.6949
X5.4744Y1.7441
X5.4744Y3.6142
X5.4744Y3.6634
X5.4744Y3.7126
X5.4961Y1.8465
X5.4961Y3.815
X7.128Y1.6457
X7.128Y1.6949
X7.128Y1.7441
X7.128Y3.6142
X7.128Y3.6634
X7.128Y3.7126
X7.2067Y1.6457
X7.2067Y1.6949
X7.2067Y1.7441
X7.2067Y3.6142
X7.2067Y3.6634
X7.2067Y3.7126
X7.2343Y1.9291
X7.2343Y3.8976
X7.2854Y1.6457
X7.2854Y1.6949
X7.2854Y1.7441
X7.2854Y3.6142
X7.2854Y3.6634
X7.2854Y3.7126
X7.313Y1.9291
X7.313Y3.8976
X7.3642Y1.6457
X7.3642Y1.6949
X7.3642Y1.7441
X7.3642Y3.6142
X7.3642Y3.6634
X7.3642Y3.7126
X7.3917Y1.9291
X7.3917Y3.8976
X7.4016Y2.6043
X7.4016Y2.935
X7.4016Y4.5728
X7.4016Y4.9035
X7.4429Y1.6457
X7.4429Y1.6949
X7.4429Y1.7441
X7.4429Y3.6142
X7.4429Y3.6634
X7.4429Y3.7126
X7.4646Y1.8465
X7.4646Y3.815
T2
X4.5205Y2.063
X4.5205Y4.0315
X4.6205Y2.163
X4.6205Y4.1315
X4.7205Y2.063
X4.7205Y4.0315
X6.489Y2.063
X6.489Y4.0315
X6.589Y2.163
X6.589Y4.1315
X6.689Y2.063
X6.689Y4.0315
T3
X3.6555Y2.0354
X3.6555Y2.1043
X3.6555Y4.0039
X3.6555Y4.0728
X3.6654Y1.9531
X3.6654Y2.2224
X3.6654Y3.9217
X3.6654Y4.1909
X3.7244Y1.8583
X3.7244Y3.8268
X3.7343Y2.2717
X3.7343Y4.2402
X3.7835Y2.1732
X3.7835Y4.1417
X3.8425Y1.9154
X3.8425Y3.8839
X3.8583Y2.7402
X3.8583Y4.7087
X4.Y2.2323
X4.Y4.2008
X4.0098Y2.0945
X4.0098Y4.063
X4.0394Y1.9173
X4.0394Y2.5472
X4.0394Y3.8858
X4.0394Y4.5157
X4.1378Y2.2323
X4.1378Y4.2008
X4.1969Y2.2618
X4.1969Y4.2303
X4.2126Y2.0551
X4.2126Y4.0236
X4.248Y2.2362
X4.248Y4.2047
X4.2638Y1.9685
X4.2638Y3.937
X4.2717Y2.9488
X4.2717Y4.9173
X4.3051Y1.6417
X4.3051Y3.6102
X4.315Y2.7441
X4.315Y4.7126
X4.3425Y2.5353
X4.3425Y4.5038
X4.3465Y2.6496
X4.3465Y4.6181
X4.3504Y2.3425
X4.3504Y4.311
X4.3543Y1.9665
X4.3543Y3.935
X4.3583Y3.0512
X4.3583Y5.0197
X4.4567Y3.1339
X4.4567Y5.1024
X4.5276Y2.8583
X4.5276Y4.8268
X4.5512Y1.6811
X4.5512Y3.6496
X4.5669Y2.5984
X4.5669Y4.5669
X4.5827Y3.0181
X4.5827Y4.9866
X4.6594Y1.8484
X4.6594Y3.8169
X4.6693Y2.5866
X4.6693Y4.5551
X4.685Y2.2087
X4.685Y4.1772
X4.725Y2.3842
X4.725Y4.3527
X4.7382Y2.252
X4.7382Y4.2205
X4.7953Y3.0197
X4.7953Y4.9882
X4.8445Y2.3366
X4.8445Y4.3051
X4.8563Y2.3996
X4.8563Y2.7303
X4.8563Y4.3681
X4.8563Y4.6988
X4.9134Y2.1417
X4.9134Y4.1102
X4.998Y2.6516
X4.998Y4.6201
X5.0039Y2.5866
X5.0039Y4.5551
X5.0512Y2.0827
X5.0512Y4.0512
X5.0886Y2.7244
X5.0886Y4.6929
X5.0981Y1.8071
X5.0981Y3.7756
X5.1201Y2.6476
X5.1201Y4.6161
X5.2008Y2.9803
X5.2008Y4.9488
X5.2441Y1.8386
X5.2441Y3.8071
X5.311Y2.1398
X5.311Y4.1083
X5.4335Y3.2244
X5.4335Y5.1929
X5.624Y2.0354
X5.624Y2.1043
X5.624Y4.0039
X5.624Y4.0728
X5.6339Y1.9531
X5.6339Y2.2224
X5.6339Y3.9217
X5.6339Y4.1909
X5.6929Y1.8583
X5.6929Y3.8268
X5.7028Y2.2717
X5.7028Y4.2402
X5.752Y2.1732
X5.752Y4.1417
X5.811Y1.9154
X5.811Y3.8839
X5.8268Y2.7402
X5.8268Y4.7087
X5.9685Y2.2323
X5.9685Y4.2008
X5.9783Y2.0945
X5.9783Y4.063
X6.0079Y1.9173
X6.0079Y2.5472
X6.0079Y3.8858
X6.0079Y4.5157
X6.1063Y2.2323
X6.1063Y4.2008
X6.1654Y2.2618
X6.1654Y4.2303
X6.1811Y2.0551
X6.1811Y4.0236
X6.2165Y2.2362
X6.2165Y4.2047
X6.2323Y1.9685
X6.2323Y3.937
X6.2402Y2.9488
X6.2402Y4.9173
X6.2736Y1.6417
X6.2736Y3.6102
X6.2835Y2.7441
X6.2835Y4.7126
X6.311Y2.5353
X6.311Y4.5038
X6.315Y2.6496
X6.315Y4.6181
X6.3189Y2.3425
X6.3189Y4.311
X6.3228Y1.9665
X6.3228Y3.935
X6.3268Y3.0512
X6.3268Y5.0197
X6.4252Y3.1339
X6.4252Y5.1024
X6.4961Y2.8583
X6.4961Y4.8268
X6.5197Y1.6811
X6.5197Y3.6496
X6.5354Y2.5984
X6.5354Y4.5669
X6.5512Y3.0181
X6.5512Y4.9866
X6.628Y1.8484
X6.628Y3.8169
X6.6378Y2.5866
X6.6378Y4.5551
X6.6535Y2.2087
X6.6535Y4.1772
X6.6935Y2.3842
X6.6935Y4.3527
X6.7067Y2.252
X6.7067Y4.2205
X6.7638Y3.0197
X6.7638Y4.9882
X6.813Y2.3366
X6.813Y4.3051
X6.8248Y2.3996
X6.8248Y2.7303
X6.8248Y4.3681
X6.8248Y4.6988
X6.8819Y2.1417
X6.8819Y4.1102
X6.9665Y2.6516
X6.9665Y4.6201
X6.9724Y2.5866
X6.9724Y4.5551
X7.0197Y2.0827
X7.0197Y4.0512
X7.0571Y2.7244
X7.0571Y4.6929
X7.0666Y1.8071
X7.0666Y3.7756
X7.0886Y2.6476
X7.0886Y4.6161
X7.1693Y2.9803
X7.1693Y4.9488
X7.2126Y1.8386
X7.2126Y3.8071
X7.2795Y2.1398
X7.2795Y4.1083
X7.402Y3.2244
X7.402Y5.1929
T4
X3.7087Y1.6823
X3.7087Y1.7823
X3.7087Y3.6508
X3.7087Y3.7508
X5.6772Y1.6823
X5.6772Y1.7823
X5.6772Y3.6508
X5.6772Y3.7508
T5
X4.9669Y2.989
X4.9669Y3.089
X4.9669Y3.189
X4.9669Y3.289
X4.9669Y4.9575
X4.9669Y5.0575
X4.9669Y5.1575
X4.9669Y5.2575
X5.0669Y2.989
X5.0669Y3.089
X5.0669Y3.189
X5.0669Y3.289
X5.0669Y4.9575
X5.0669Y5.0575
X5.0669Y5.1575
X5.0669Y5.2575
X6.9354Y2.989
X6.9354Y3.089
X6.9354Y3.189
X6.9354Y3.289
X6.9354Y4.9575
X6.9354Y5.0575
X6.9354Y5.1575
X6.9354Y5.2575
X7.0354Y2.989
X7.0354Y3.089
X7.0354Y3.189
X7.0354Y3.289
X7.0354Y4.9575
X7.0354Y5.0575
X7.0354Y5.1575
X7.0354Y5.2575
T6
X4.1874Y1.7224
X4.1874Y2.4035
X4.1874Y3.6909
X4.1874Y4.372
X5.0535Y1.7224
X5.0535Y2.4035
X5.0535Y3.6909
X5.0535Y4.372
X6.1559Y1.7224
X6.1559Y2.4035
X6.1559Y3.6909
X6.1559Y4.372
X7.022Y1.7224
X7.022Y2.4035
X7.022Y3.6909
X7.022Y4.372
T7
X3.9409Y1.7402
X3.9409Y3.1969
X3.9409Y3.7087
X3.9409Y5.1654
X5.315Y2.4508
X5.315Y4.4193
X5.9094Y1.7402
X5.9094Y3.1969
X5.9094Y3.7087
X5.9094Y5.1654
X7.2835Y2.4508
X7.2835Y4.4193
T0
M30
