M48
;DRILL file {KiCad 4.0.4+dfsg1-stable} date Sun Feb 12 12:23:08 2017
;FORMAT={-:-/ absolute / inch / decimal}
FMAT,2
INCH,TZ
T1C0.020
T2C0.024
T3C0.030
T4C0.040
T5C0.051
%
G90
G05
M72
T1
X4.5205Y2.063
X4.5205Y4.0315
X4.6205Y2.163
X4.6205Y4.1315
X4.7205Y2.063
X4.7205Y4.0315
X6.489Y2.063
X6.489Y4.0315
X6.589Y2.163
X6.589Y4.1315
X6.689Y2.063
X6.689Y4.0315
T2
X3.6555Y2.0354
X3.6555Y2.1043
X3.6555Y4.0039
X3.6555Y4.0728
X3.6654Y1.9531
X3.6654Y2.2224
X3.6654Y3.9217
X3.6654Y4.1909
X3.7244Y1.8583
X3.7244Y3.8268
X3.7343Y2.2717
X3.7343Y4.2402
X3.7835Y2.1732
X3.7835Y4.1417
X3.8524Y1.8681
X3.8524Y3.8366
X3.8583Y2.7402
X3.8583Y4.7087
X4.Y2.2323
X4.Y4.2008
X4.0098Y2.0945
X4.0098Y4.063
X4.0394Y1.9173
X4.0394Y2.5472
X4.0394Y3.8858
X4.0394Y4.5157
X4.1378Y2.2323
X4.1378Y4.2008
X4.1969Y2.0551
X4.1969Y2.2618
X4.1969Y4.0236
X4.1969Y4.2303
X4.248Y2.2362
X4.248Y4.2047
X4.2559Y1.9665
X4.2559Y3.935
X4.2717Y2.9488
X4.2717Y4.9173
X4.3051Y1.6417
X4.3051Y3.6102
X4.315Y2.7441
X4.315Y4.7126
X4.3425Y2.5353
X4.3425Y4.5038
X4.3465Y2.6496
X4.3465Y4.6181
X4.3504Y2.3425
X4.3504Y4.311
X4.3543Y1.9665
X4.3543Y3.935
X4.3583Y3.0512
X4.3583Y5.0197
X4.4567Y3.1339
X4.4567Y5.1024
X4.5276Y2.8583
X4.5276Y4.8268
X4.5512Y1.6811
X4.5512Y3.6496
X4.5669Y2.5984
X4.5669Y4.5669
X4.5827Y3.0181
X4.5827Y4.9866
X4.6594Y1.8484
X4.6594Y3.8169
X4.6693Y2.5866
X4.6693Y4.5551
X4.685Y2.2087
X4.685Y4.1772
X4.6929Y2.7244
X4.6929Y4.6929
X4.725Y2.3842
X4.725Y4.3527
X4.7382Y2.252
X4.7382Y4.2205
X4.7598Y2.8346
X4.7598Y4.8031
X4.7953Y3.0197
X4.7953Y4.9882
X4.8071Y2.1929
X4.8071Y4.1614
X4.8466Y2.3307
X4.8466Y4.2992
X4.8504Y2.9528
X4.8504Y4.9213
X4.8563Y2.3996
X4.8563Y4.3681
X4.9116Y2.9528
X4.9116Y4.9213
X4.9134Y2.1417
X4.9134Y4.1102
X4.9882Y2.9488
X4.9882Y4.9173
X5.0236Y2.3504
X5.0236Y4.3189
X5.0335Y2.1831
X5.0335Y4.1516
X5.0512Y2.0827
X5.0512Y4.0512
X5.1299Y2.878
X5.1299Y4.8465
X5.1516Y2.6949
X5.1516Y4.6634
X5.2559Y2.9567
X5.2559Y4.9252
X5.2638Y1.8425
X5.2638Y3.811
X5.3681Y2.1634
X5.3681Y4.1319
X5.3976Y1.6693
X5.3976Y3.6378
X5.4724Y2.0039
X5.4724Y3.9724
X5.4843Y3.1142
X5.4843Y5.0827
X5.4862Y2.3701
X5.4862Y4.3386
X5.624Y2.0354
X5.624Y2.1043
X5.624Y4.0039
X5.624Y4.0728
X5.6339Y1.9531
X5.6339Y2.2224
X5.6339Y3.9217
X5.6339Y4.1909
X5.6929Y1.8583
X5.6929Y3.8268
X5.7028Y2.2717
X5.7028Y4.2402
X5.752Y2.1732
X5.752Y4.1417
X5.8209Y1.8681
X5.8209Y3.8366
X5.8268Y2.7402
X5.8268Y4.7087
X5.9685Y2.2323
X5.9685Y4.2008
X5.9783Y2.0945
X5.9783Y4.063
X6.0079Y1.9173
X6.0079Y2.5472
X6.0079Y3.8858
X6.0079Y4.5157
X6.1063Y2.2323
X6.1063Y4.2008
X6.1654Y2.0551
X6.1654Y2.2618
X6.1654Y4.0236
X6.1654Y4.2303
X6.2165Y2.2362
X6.2165Y4.2047
X6.2244Y1.9665
X6.2244Y3.935
X6.2402Y2.9488
X6.2402Y4.9173
X6.2736Y1.6417
X6.2736Y3.6102
X6.2835Y2.7441
X6.2835Y4.7126
X6.311Y2.5353
X6.311Y4.5038
X6.315Y2.6496
X6.315Y4.6181
X6.3189Y2.3425
X6.3189Y4.311
X6.3228Y1.9665
X6.3228Y3.935
X6.3268Y3.0512
X6.3268Y5.0197
X6.4252Y3.1339
X6.4252Y5.1024
X6.4961Y2.8583
X6.4961Y4.8268
X6.5197Y1.6811
X6.5197Y3.6496
X6.5354Y2.5984
X6.5354Y4.5669
X6.5512Y3.0181
X6.5512Y4.9866
X6.628Y1.8484
X6.628Y3.8169
X6.6378Y2.5866
X6.6378Y4.5551
X6.6535Y2.2087
X6.6535Y4.1772
X6.6614Y2.7244
X6.6614Y4.6929
X6.6935Y2.3842
X6.6935Y4.3527
X6.7067Y2.252
X6.7067Y4.2205
X6.7283Y2.8346
X6.7283Y4.8031
X6.7638Y3.0197
X6.7638Y4.9882
X6.7756Y2.1929
X6.7756Y4.1614
X6.8151Y2.3307
X6.8151Y4.2992
X6.8189Y2.9528
X6.8189Y4.9213
X6.8248Y2.3996
X6.8248Y4.3681
X6.8801Y2.9528
X6.8801Y4.9213
X6.8819Y2.1417
X6.8819Y4.1102
X6.9567Y2.9488
X6.9567Y4.9173
X6.9921Y2.3504
X6.9921Y4.3189
X7.002Y2.1831
X7.002Y4.1516
X7.0197Y2.0827
X7.0197Y4.0512
X7.0984Y2.878
X7.0984Y4.8465
X7.1201Y2.6949
X7.1201Y4.6634
X7.2244Y2.9567
X7.2244Y4.9252
X7.2323Y1.8425
X7.2323Y3.811
X7.3366Y2.1634
X7.3366Y4.1319
X7.3661Y1.6693
X7.3661Y3.6378
X7.4409Y2.0039
X7.4409Y3.9724
X7.4528Y3.1142
X7.4528Y5.0827
X7.4547Y2.3701
X7.4547Y4.3386
T3
X3.7925Y1.75
X3.7925Y3.7185
X3.8925Y1.75
X3.8925Y3.7185
X5.761Y1.75
X5.761Y3.7185
X5.861Y1.75
X5.861Y3.7185
T4
X4.9866Y3.0535
X4.9866Y3.1535
X4.9866Y3.2535
X4.9866Y3.3535
X4.9866Y5.022
X4.9866Y5.122
X4.9866Y5.222
X4.9866Y5.322
X5.0866Y3.0535
X5.0866Y3.1535
X5.0866Y3.2535
X5.0866Y3.3535
X5.0866Y5.022
X5.0866Y5.122
X5.0866Y5.222
X5.0866Y5.322
X5.3016Y3.4291
X5.3016Y5.3976
X5.4016Y3.4291
X5.4016Y5.3976
X6.9551Y3.0535
X6.9551Y3.1535
X6.9551Y3.2535
X6.9551Y3.3535
X6.9551Y5.022
X6.9551Y5.122
X6.9551Y5.222
X6.9551Y5.322
X7.0551Y3.0535
X7.0551Y3.1535
X7.0551Y3.2535
X7.0551Y3.3535
X7.0551Y5.022
X7.0551Y5.122
X7.0551Y5.222
X7.0551Y5.322
X7.2701Y3.4291
X7.2701Y5.3976
X7.3701Y3.4291
X7.3701Y5.3976
T5
X4.1677Y1.7185
X4.1677Y2.4075
X4.1677Y3.687
X4.1677Y4.376
X5.0732Y1.7185
X5.0732Y2.4075
X5.0732Y3.687
X5.0732Y4.376
X6.1362Y1.7185
X6.1362Y2.4075
X6.1362Y3.687
X6.1362Y4.376
X7.0417Y1.7185
X7.0417Y2.4075
X7.0417Y3.687
X7.0417Y4.376
T0
M30
