G04 #@! TF.FileFunction,Legend,Bot*
%FSLAX46Y46*%
G04 Gerber Fmt 4.6, Leading zero omitted, Abs format (unit mm)*
G04 Created by KiCad (PCBNEW 4.0.4+dfsg1-stable) date Wed Mar  8 20:57:33 2017*
%MOMM*%
%LPD*%
G01*
G04 APERTURE LIST*
%ADD10C,0.100000*%
%ADD11C,0.200000*%
%ADD12C,0.150000*%
G04 APERTURE END LIST*
D10*
D11*
X122635716Y-138302381D02*
X122635716Y-137302381D01*
X122207144Y-138302381D02*
X122207144Y-137778571D01*
X122254763Y-137683333D01*
X122350001Y-137635714D01*
X122492859Y-137635714D01*
X122588097Y-137683333D01*
X122635716Y-137730952D01*
X121873811Y-137635714D02*
X121492859Y-137635714D01*
X121730954Y-137302381D02*
X121730954Y-138159524D01*
X121683335Y-138254762D01*
X121588097Y-138302381D01*
X121492859Y-138302381D01*
X121302382Y-137635714D02*
X120921430Y-137635714D01*
X121159525Y-137302381D02*
X121159525Y-138159524D01*
X121111906Y-138254762D01*
X121016668Y-138302381D01*
X120921430Y-138302381D01*
X120588096Y-137635714D02*
X120588096Y-138635714D01*
X120588096Y-137683333D02*
X120492858Y-137635714D01*
X120302381Y-137635714D01*
X120207143Y-137683333D01*
X120159524Y-137730952D01*
X120111905Y-137826190D01*
X120111905Y-138111905D01*
X120159524Y-138207143D01*
X120207143Y-138254762D01*
X120302381Y-138302381D01*
X120492858Y-138302381D01*
X120588096Y-138254762D01*
X119730953Y-138254762D02*
X119635715Y-138302381D01*
X119445239Y-138302381D01*
X119350000Y-138254762D01*
X119302381Y-138159524D01*
X119302381Y-138111905D01*
X119350000Y-138016667D01*
X119445239Y-137969048D01*
X119588096Y-137969048D01*
X119683334Y-137921429D01*
X119730953Y-137826190D01*
X119730953Y-137778571D01*
X119683334Y-137683333D01*
X119588096Y-137635714D01*
X119445239Y-137635714D01*
X119350000Y-137683333D01*
X118873810Y-138207143D02*
X118826191Y-138254762D01*
X118873810Y-138302381D01*
X118921429Y-138254762D01*
X118873810Y-138207143D01*
X118873810Y-138302381D01*
X118873810Y-137683333D02*
X118826191Y-137730952D01*
X118873810Y-137778571D01*
X118921429Y-137730952D01*
X118873810Y-137683333D01*
X118873810Y-137778571D01*
X117683334Y-137254762D02*
X118540477Y-138540476D01*
X116635715Y-137254762D02*
X117492858Y-138540476D01*
X115873810Y-137635714D02*
X115873810Y-138445238D01*
X115921429Y-138540476D01*
X115969048Y-138588095D01*
X116064287Y-138635714D01*
X116207144Y-138635714D01*
X116302382Y-138588095D01*
X115873810Y-138254762D02*
X115969048Y-138302381D01*
X116159525Y-138302381D01*
X116254763Y-138254762D01*
X116302382Y-138207143D01*
X116350001Y-138111905D01*
X116350001Y-137826190D01*
X116302382Y-137730952D01*
X116254763Y-137683333D01*
X116159525Y-137635714D01*
X115969048Y-137635714D01*
X115873810Y-137683333D01*
X115397620Y-138302381D02*
X115397620Y-137635714D01*
X115397620Y-137302381D02*
X115445239Y-137350000D01*
X115397620Y-137397619D01*
X115350001Y-137350000D01*
X115397620Y-137302381D01*
X115397620Y-137397619D01*
X115064287Y-137635714D02*
X114683335Y-137635714D01*
X114921430Y-137302381D02*
X114921430Y-138159524D01*
X114873811Y-138254762D01*
X114778573Y-138302381D01*
X114683335Y-138302381D01*
X114350001Y-138302381D02*
X114350001Y-137302381D01*
X113921429Y-138302381D02*
X113921429Y-137778571D01*
X113969048Y-137683333D01*
X114064286Y-137635714D01*
X114207144Y-137635714D01*
X114302382Y-137683333D01*
X114350001Y-137730952D01*
X113016667Y-137635714D02*
X113016667Y-138302381D01*
X113445239Y-137635714D02*
X113445239Y-138159524D01*
X113397620Y-138254762D01*
X113302382Y-138302381D01*
X113159524Y-138302381D01*
X113064286Y-138254762D01*
X113016667Y-138207143D01*
X112540477Y-138302381D02*
X112540477Y-137302381D01*
X112540477Y-137683333D02*
X112445239Y-137635714D01*
X112254762Y-137635714D01*
X112159524Y-137683333D01*
X112111905Y-137730952D01*
X112064286Y-137826190D01*
X112064286Y-138111905D01*
X112111905Y-138207143D01*
X112159524Y-138254762D01*
X112254762Y-138302381D01*
X112445239Y-138302381D01*
X112540477Y-138254762D01*
X111635715Y-138207143D02*
X111588096Y-138254762D01*
X111635715Y-138302381D01*
X111683334Y-138254762D01*
X111635715Y-138207143D01*
X111635715Y-138302381D01*
X110730953Y-138254762D02*
X110826191Y-138302381D01*
X111016668Y-138302381D01*
X111111906Y-138254762D01*
X111159525Y-138207143D01*
X111207144Y-138111905D01*
X111207144Y-137826190D01*
X111159525Y-137730952D01*
X111111906Y-137683333D01*
X111016668Y-137635714D01*
X110826191Y-137635714D01*
X110730953Y-137683333D01*
X110159525Y-138302381D02*
X110254763Y-138254762D01*
X110302382Y-138207143D01*
X110350001Y-138111905D01*
X110350001Y-137826190D01*
X110302382Y-137730952D01*
X110254763Y-137683333D01*
X110159525Y-137635714D01*
X110016667Y-137635714D01*
X109921429Y-137683333D01*
X109873810Y-137730952D01*
X109826191Y-137826190D01*
X109826191Y-138111905D01*
X109873810Y-138207143D01*
X109921429Y-138254762D01*
X110016667Y-138302381D01*
X110159525Y-138302381D01*
X109397620Y-138302381D02*
X109397620Y-137635714D01*
X109397620Y-137730952D02*
X109350001Y-137683333D01*
X109254763Y-137635714D01*
X109111905Y-137635714D01*
X109016667Y-137683333D01*
X108969048Y-137778571D01*
X108969048Y-138302381D01*
X108969048Y-137778571D02*
X108921429Y-137683333D01*
X108826191Y-137635714D01*
X108683334Y-137635714D01*
X108588096Y-137683333D01*
X108540477Y-137778571D01*
X108540477Y-138302381D01*
X107350001Y-137254762D02*
X108207144Y-138540476D01*
X107016668Y-137635714D02*
X107016668Y-138635714D01*
X107016668Y-137683333D02*
X106921430Y-137635714D01*
X106730953Y-137635714D01*
X106635715Y-137683333D01*
X106588096Y-137730952D01*
X106540477Y-137826190D01*
X106540477Y-138111905D01*
X106588096Y-138207143D01*
X106635715Y-138254762D01*
X106730953Y-138302381D01*
X106921430Y-138302381D01*
X107016668Y-138254762D01*
X105969049Y-138302381D02*
X106064287Y-138254762D01*
X106111906Y-138159524D01*
X106111906Y-137302381D01*
X105159524Y-137635714D02*
X105159524Y-138302381D01*
X105588096Y-137635714D02*
X105588096Y-138159524D01*
X105540477Y-138254762D01*
X105445239Y-138302381D01*
X105302381Y-138302381D01*
X105207143Y-138254762D01*
X105159524Y-138207143D01*
X104778572Y-137635714D02*
X104540477Y-138302381D01*
X104302381Y-137635714D02*
X104540477Y-138302381D01*
X104635715Y-138540476D01*
X104683334Y-138588095D01*
X104778572Y-138635714D01*
X103492857Y-138254762D02*
X103588095Y-138302381D01*
X103778572Y-138302381D01*
X103873810Y-138254762D01*
X103921429Y-138207143D01*
X103969048Y-138111905D01*
X103969048Y-137826190D01*
X103921429Y-137730952D01*
X103873810Y-137683333D01*
X103778572Y-137635714D01*
X103588095Y-137635714D01*
X103492857Y-137683333D01*
X103064286Y-138302381D02*
X103064286Y-137302381D01*
X102969048Y-137921429D02*
X102683333Y-138302381D01*
X102683333Y-137635714D02*
X103064286Y-138016667D01*
X102350000Y-138302381D02*
X101826190Y-137635714D01*
X102350000Y-137635714D02*
X101826190Y-138302381D01*
X100730952Y-137254762D02*
X101588095Y-138540476D01*
X100445238Y-138254762D02*
X100302381Y-138302381D01*
X100064285Y-138302381D01*
X99969047Y-138254762D01*
X99921428Y-138207143D01*
X99873809Y-138111905D01*
X99873809Y-138016667D01*
X99921428Y-137921429D01*
X99969047Y-137873810D01*
X100064285Y-137826190D01*
X100254762Y-137778571D01*
X100350000Y-137730952D01*
X100397619Y-137683333D01*
X100445238Y-137588095D01*
X100445238Y-137492857D01*
X100397619Y-137397619D01*
X100350000Y-137350000D01*
X100254762Y-137302381D01*
X100016666Y-137302381D01*
X99873809Y-137350000D01*
X99064285Y-138254762D02*
X99159523Y-138302381D01*
X99350000Y-138302381D01*
X99445238Y-138254762D01*
X99492857Y-138159524D01*
X99492857Y-137778571D01*
X99445238Y-137683333D01*
X99350000Y-137635714D01*
X99159523Y-137635714D01*
X99064285Y-137683333D01*
X99016666Y-137778571D01*
X99016666Y-137873810D01*
X99492857Y-137969048D01*
X98588095Y-137635714D02*
X98588095Y-138302381D01*
X98588095Y-137730952D02*
X98540476Y-137683333D01*
X98445238Y-137635714D01*
X98302380Y-137635714D01*
X98207142Y-137683333D01*
X98159523Y-137778571D01*
X98159523Y-138302381D01*
X97730952Y-138254762D02*
X97635714Y-138302381D01*
X97445238Y-138302381D01*
X97349999Y-138254762D01*
X97302380Y-138159524D01*
X97302380Y-138111905D01*
X97349999Y-138016667D01*
X97445238Y-137969048D01*
X97588095Y-137969048D01*
X97683333Y-137921429D01*
X97730952Y-137826190D01*
X97730952Y-137778571D01*
X97683333Y-137683333D01*
X97588095Y-137635714D01*
X97445238Y-137635714D01*
X97349999Y-137683333D01*
X96730952Y-138302381D02*
X96826190Y-138254762D01*
X96873809Y-138207143D01*
X96921428Y-138111905D01*
X96921428Y-137826190D01*
X96873809Y-137730952D01*
X96826190Y-137683333D01*
X96730952Y-137635714D01*
X96588094Y-137635714D01*
X96492856Y-137683333D01*
X96445237Y-137730952D01*
X96397618Y-137826190D01*
X96397618Y-138111905D01*
X96445237Y-138207143D01*
X96492856Y-138254762D01*
X96588094Y-138302381D01*
X96730952Y-138302381D01*
X95969047Y-138302381D02*
X95969047Y-137635714D01*
X95969047Y-137826190D02*
X95921428Y-137730952D01*
X95873809Y-137683333D01*
X95778571Y-137635714D01*
X95683332Y-137635714D01*
X95349999Y-138302381D02*
X95349999Y-137302381D01*
X94969046Y-137302381D01*
X94873808Y-137350000D01*
X94826189Y-137397619D01*
X94778570Y-137492857D01*
X94778570Y-137635714D01*
X94826189Y-137730952D01*
X94873808Y-137778571D01*
X94969046Y-137826190D01*
X95349999Y-137826190D01*
X93921427Y-138254762D02*
X94016665Y-138302381D01*
X94207142Y-138302381D01*
X94302380Y-138254762D01*
X94349999Y-138207143D01*
X94397618Y-138111905D01*
X94397618Y-137826190D01*
X94349999Y-137730952D01*
X94302380Y-137683333D01*
X94207142Y-137635714D01*
X94016665Y-137635714D01*
X93921427Y-137683333D01*
X93492856Y-138302381D02*
X93492856Y-137302381D01*
X93492856Y-137683333D02*
X93397618Y-137635714D01*
X93207141Y-137635714D01*
X93111903Y-137683333D01*
X93064284Y-137730952D01*
X93016665Y-137826190D01*
X93016665Y-138111905D01*
X93064284Y-138207143D01*
X93111903Y-138254762D01*
X93207141Y-138302381D01*
X93397618Y-138302381D01*
X93492856Y-138254762D01*
X172635716Y-138302381D02*
X172635716Y-137302381D01*
X172207144Y-138302381D02*
X172207144Y-137778571D01*
X172254763Y-137683333D01*
X172350001Y-137635714D01*
X172492859Y-137635714D01*
X172588097Y-137683333D01*
X172635716Y-137730952D01*
X171873811Y-137635714D02*
X171492859Y-137635714D01*
X171730954Y-137302381D02*
X171730954Y-138159524D01*
X171683335Y-138254762D01*
X171588097Y-138302381D01*
X171492859Y-138302381D01*
X171302382Y-137635714D02*
X170921430Y-137635714D01*
X171159525Y-137302381D02*
X171159525Y-138159524D01*
X171111906Y-138254762D01*
X171016668Y-138302381D01*
X170921430Y-138302381D01*
X170588096Y-137635714D02*
X170588096Y-138635714D01*
X170588096Y-137683333D02*
X170492858Y-137635714D01*
X170302381Y-137635714D01*
X170207143Y-137683333D01*
X170159524Y-137730952D01*
X170111905Y-137826190D01*
X170111905Y-138111905D01*
X170159524Y-138207143D01*
X170207143Y-138254762D01*
X170302381Y-138302381D01*
X170492858Y-138302381D01*
X170588096Y-138254762D01*
X169730953Y-138254762D02*
X169635715Y-138302381D01*
X169445239Y-138302381D01*
X169350000Y-138254762D01*
X169302381Y-138159524D01*
X169302381Y-138111905D01*
X169350000Y-138016667D01*
X169445239Y-137969048D01*
X169588096Y-137969048D01*
X169683334Y-137921429D01*
X169730953Y-137826190D01*
X169730953Y-137778571D01*
X169683334Y-137683333D01*
X169588096Y-137635714D01*
X169445239Y-137635714D01*
X169350000Y-137683333D01*
X168873810Y-138207143D02*
X168826191Y-138254762D01*
X168873810Y-138302381D01*
X168921429Y-138254762D01*
X168873810Y-138207143D01*
X168873810Y-138302381D01*
X168873810Y-137683333D02*
X168826191Y-137730952D01*
X168873810Y-137778571D01*
X168921429Y-137730952D01*
X168873810Y-137683333D01*
X168873810Y-137778571D01*
X167683334Y-137254762D02*
X168540477Y-138540476D01*
X166635715Y-137254762D02*
X167492858Y-138540476D01*
X165873810Y-137635714D02*
X165873810Y-138445238D01*
X165921429Y-138540476D01*
X165969048Y-138588095D01*
X166064287Y-138635714D01*
X166207144Y-138635714D01*
X166302382Y-138588095D01*
X165873810Y-138254762D02*
X165969048Y-138302381D01*
X166159525Y-138302381D01*
X166254763Y-138254762D01*
X166302382Y-138207143D01*
X166350001Y-138111905D01*
X166350001Y-137826190D01*
X166302382Y-137730952D01*
X166254763Y-137683333D01*
X166159525Y-137635714D01*
X165969048Y-137635714D01*
X165873810Y-137683333D01*
X165397620Y-138302381D02*
X165397620Y-137635714D01*
X165397620Y-137302381D02*
X165445239Y-137350000D01*
X165397620Y-137397619D01*
X165350001Y-137350000D01*
X165397620Y-137302381D01*
X165397620Y-137397619D01*
X165064287Y-137635714D02*
X164683335Y-137635714D01*
X164921430Y-137302381D02*
X164921430Y-138159524D01*
X164873811Y-138254762D01*
X164778573Y-138302381D01*
X164683335Y-138302381D01*
X164350001Y-138302381D02*
X164350001Y-137302381D01*
X163921429Y-138302381D02*
X163921429Y-137778571D01*
X163969048Y-137683333D01*
X164064286Y-137635714D01*
X164207144Y-137635714D01*
X164302382Y-137683333D01*
X164350001Y-137730952D01*
X163016667Y-137635714D02*
X163016667Y-138302381D01*
X163445239Y-137635714D02*
X163445239Y-138159524D01*
X163397620Y-138254762D01*
X163302382Y-138302381D01*
X163159524Y-138302381D01*
X163064286Y-138254762D01*
X163016667Y-138207143D01*
X162540477Y-138302381D02*
X162540477Y-137302381D01*
X162540477Y-137683333D02*
X162445239Y-137635714D01*
X162254762Y-137635714D01*
X162159524Y-137683333D01*
X162111905Y-137730952D01*
X162064286Y-137826190D01*
X162064286Y-138111905D01*
X162111905Y-138207143D01*
X162159524Y-138254762D01*
X162254762Y-138302381D01*
X162445239Y-138302381D01*
X162540477Y-138254762D01*
X161635715Y-138207143D02*
X161588096Y-138254762D01*
X161635715Y-138302381D01*
X161683334Y-138254762D01*
X161635715Y-138207143D01*
X161635715Y-138302381D01*
X160730953Y-138254762D02*
X160826191Y-138302381D01*
X161016668Y-138302381D01*
X161111906Y-138254762D01*
X161159525Y-138207143D01*
X161207144Y-138111905D01*
X161207144Y-137826190D01*
X161159525Y-137730952D01*
X161111906Y-137683333D01*
X161016668Y-137635714D01*
X160826191Y-137635714D01*
X160730953Y-137683333D01*
X160159525Y-138302381D02*
X160254763Y-138254762D01*
X160302382Y-138207143D01*
X160350001Y-138111905D01*
X160350001Y-137826190D01*
X160302382Y-137730952D01*
X160254763Y-137683333D01*
X160159525Y-137635714D01*
X160016667Y-137635714D01*
X159921429Y-137683333D01*
X159873810Y-137730952D01*
X159826191Y-137826190D01*
X159826191Y-138111905D01*
X159873810Y-138207143D01*
X159921429Y-138254762D01*
X160016667Y-138302381D01*
X160159525Y-138302381D01*
X159397620Y-138302381D02*
X159397620Y-137635714D01*
X159397620Y-137730952D02*
X159350001Y-137683333D01*
X159254763Y-137635714D01*
X159111905Y-137635714D01*
X159016667Y-137683333D01*
X158969048Y-137778571D01*
X158969048Y-138302381D01*
X158969048Y-137778571D02*
X158921429Y-137683333D01*
X158826191Y-137635714D01*
X158683334Y-137635714D01*
X158588096Y-137683333D01*
X158540477Y-137778571D01*
X158540477Y-138302381D01*
X157350001Y-137254762D02*
X158207144Y-138540476D01*
X157016668Y-137635714D02*
X157016668Y-138635714D01*
X157016668Y-137683333D02*
X156921430Y-137635714D01*
X156730953Y-137635714D01*
X156635715Y-137683333D01*
X156588096Y-137730952D01*
X156540477Y-137826190D01*
X156540477Y-138111905D01*
X156588096Y-138207143D01*
X156635715Y-138254762D01*
X156730953Y-138302381D01*
X156921430Y-138302381D01*
X157016668Y-138254762D01*
X155969049Y-138302381D02*
X156064287Y-138254762D01*
X156111906Y-138159524D01*
X156111906Y-137302381D01*
X155159524Y-137635714D02*
X155159524Y-138302381D01*
X155588096Y-137635714D02*
X155588096Y-138159524D01*
X155540477Y-138254762D01*
X155445239Y-138302381D01*
X155302381Y-138302381D01*
X155207143Y-138254762D01*
X155159524Y-138207143D01*
X154778572Y-137635714D02*
X154540477Y-138302381D01*
X154302381Y-137635714D02*
X154540477Y-138302381D01*
X154635715Y-138540476D01*
X154683334Y-138588095D01*
X154778572Y-138635714D01*
X153492857Y-138254762D02*
X153588095Y-138302381D01*
X153778572Y-138302381D01*
X153873810Y-138254762D01*
X153921429Y-138207143D01*
X153969048Y-138111905D01*
X153969048Y-137826190D01*
X153921429Y-137730952D01*
X153873810Y-137683333D01*
X153778572Y-137635714D01*
X153588095Y-137635714D01*
X153492857Y-137683333D01*
X153064286Y-138302381D02*
X153064286Y-137302381D01*
X152969048Y-137921429D02*
X152683333Y-138302381D01*
X152683333Y-137635714D02*
X153064286Y-138016667D01*
X152350000Y-138302381D02*
X151826190Y-137635714D01*
X152350000Y-137635714D02*
X151826190Y-138302381D01*
X150730952Y-137254762D02*
X151588095Y-138540476D01*
X150445238Y-138254762D02*
X150302381Y-138302381D01*
X150064285Y-138302381D01*
X149969047Y-138254762D01*
X149921428Y-138207143D01*
X149873809Y-138111905D01*
X149873809Y-138016667D01*
X149921428Y-137921429D01*
X149969047Y-137873810D01*
X150064285Y-137826190D01*
X150254762Y-137778571D01*
X150350000Y-137730952D01*
X150397619Y-137683333D01*
X150445238Y-137588095D01*
X150445238Y-137492857D01*
X150397619Y-137397619D01*
X150350000Y-137350000D01*
X150254762Y-137302381D01*
X150016666Y-137302381D01*
X149873809Y-137350000D01*
X149064285Y-138254762D02*
X149159523Y-138302381D01*
X149350000Y-138302381D01*
X149445238Y-138254762D01*
X149492857Y-138159524D01*
X149492857Y-137778571D01*
X149445238Y-137683333D01*
X149350000Y-137635714D01*
X149159523Y-137635714D01*
X149064285Y-137683333D01*
X149016666Y-137778571D01*
X149016666Y-137873810D01*
X149492857Y-137969048D01*
X148588095Y-137635714D02*
X148588095Y-138302381D01*
X148588095Y-137730952D02*
X148540476Y-137683333D01*
X148445238Y-137635714D01*
X148302380Y-137635714D01*
X148207142Y-137683333D01*
X148159523Y-137778571D01*
X148159523Y-138302381D01*
X147730952Y-138254762D02*
X147635714Y-138302381D01*
X147445238Y-138302381D01*
X147349999Y-138254762D01*
X147302380Y-138159524D01*
X147302380Y-138111905D01*
X147349999Y-138016667D01*
X147445238Y-137969048D01*
X147588095Y-137969048D01*
X147683333Y-137921429D01*
X147730952Y-137826190D01*
X147730952Y-137778571D01*
X147683333Y-137683333D01*
X147588095Y-137635714D01*
X147445238Y-137635714D01*
X147349999Y-137683333D01*
X146730952Y-138302381D02*
X146826190Y-138254762D01*
X146873809Y-138207143D01*
X146921428Y-138111905D01*
X146921428Y-137826190D01*
X146873809Y-137730952D01*
X146826190Y-137683333D01*
X146730952Y-137635714D01*
X146588094Y-137635714D01*
X146492856Y-137683333D01*
X146445237Y-137730952D01*
X146397618Y-137826190D01*
X146397618Y-138111905D01*
X146445237Y-138207143D01*
X146492856Y-138254762D01*
X146588094Y-138302381D01*
X146730952Y-138302381D01*
X145969047Y-138302381D02*
X145969047Y-137635714D01*
X145969047Y-137826190D02*
X145921428Y-137730952D01*
X145873809Y-137683333D01*
X145778571Y-137635714D01*
X145683332Y-137635714D01*
X145349999Y-138302381D02*
X145349999Y-137302381D01*
X144969046Y-137302381D01*
X144873808Y-137350000D01*
X144826189Y-137397619D01*
X144778570Y-137492857D01*
X144778570Y-137635714D01*
X144826189Y-137730952D01*
X144873808Y-137778571D01*
X144969046Y-137826190D01*
X145349999Y-137826190D01*
X143921427Y-138254762D02*
X144016665Y-138302381D01*
X144207142Y-138302381D01*
X144302380Y-138254762D01*
X144349999Y-138207143D01*
X144397618Y-138111905D01*
X144397618Y-137826190D01*
X144349999Y-137730952D01*
X144302380Y-137683333D01*
X144207142Y-137635714D01*
X144016665Y-137635714D01*
X143921427Y-137683333D01*
X143492856Y-138302381D02*
X143492856Y-137302381D01*
X143492856Y-137683333D02*
X143397618Y-137635714D01*
X143207141Y-137635714D01*
X143111903Y-137683333D01*
X143064284Y-137730952D01*
X143016665Y-137826190D01*
X143016665Y-138111905D01*
X143064284Y-138207143D01*
X143111903Y-138254762D01*
X143207141Y-138302381D01*
X143397618Y-138302381D01*
X143492856Y-138254762D01*
X172635716Y-88302381D02*
X172635716Y-87302381D01*
X172207144Y-88302381D02*
X172207144Y-87778571D01*
X172254763Y-87683333D01*
X172350001Y-87635714D01*
X172492859Y-87635714D01*
X172588097Y-87683333D01*
X172635716Y-87730952D01*
X171873811Y-87635714D02*
X171492859Y-87635714D01*
X171730954Y-87302381D02*
X171730954Y-88159524D01*
X171683335Y-88254762D01*
X171588097Y-88302381D01*
X171492859Y-88302381D01*
X171302382Y-87635714D02*
X170921430Y-87635714D01*
X171159525Y-87302381D02*
X171159525Y-88159524D01*
X171111906Y-88254762D01*
X171016668Y-88302381D01*
X170921430Y-88302381D01*
X170588096Y-87635714D02*
X170588096Y-88635714D01*
X170588096Y-87683333D02*
X170492858Y-87635714D01*
X170302381Y-87635714D01*
X170207143Y-87683333D01*
X170159524Y-87730952D01*
X170111905Y-87826190D01*
X170111905Y-88111905D01*
X170159524Y-88207143D01*
X170207143Y-88254762D01*
X170302381Y-88302381D01*
X170492858Y-88302381D01*
X170588096Y-88254762D01*
X169730953Y-88254762D02*
X169635715Y-88302381D01*
X169445239Y-88302381D01*
X169350000Y-88254762D01*
X169302381Y-88159524D01*
X169302381Y-88111905D01*
X169350000Y-88016667D01*
X169445239Y-87969048D01*
X169588096Y-87969048D01*
X169683334Y-87921429D01*
X169730953Y-87826190D01*
X169730953Y-87778571D01*
X169683334Y-87683333D01*
X169588096Y-87635714D01*
X169445239Y-87635714D01*
X169350000Y-87683333D01*
X168873810Y-88207143D02*
X168826191Y-88254762D01*
X168873810Y-88302381D01*
X168921429Y-88254762D01*
X168873810Y-88207143D01*
X168873810Y-88302381D01*
X168873810Y-87683333D02*
X168826191Y-87730952D01*
X168873810Y-87778571D01*
X168921429Y-87730952D01*
X168873810Y-87683333D01*
X168873810Y-87778571D01*
X167683334Y-87254762D02*
X168540477Y-88540476D01*
X166635715Y-87254762D02*
X167492858Y-88540476D01*
X165873810Y-87635714D02*
X165873810Y-88445238D01*
X165921429Y-88540476D01*
X165969048Y-88588095D01*
X166064287Y-88635714D01*
X166207144Y-88635714D01*
X166302382Y-88588095D01*
X165873810Y-88254762D02*
X165969048Y-88302381D01*
X166159525Y-88302381D01*
X166254763Y-88254762D01*
X166302382Y-88207143D01*
X166350001Y-88111905D01*
X166350001Y-87826190D01*
X166302382Y-87730952D01*
X166254763Y-87683333D01*
X166159525Y-87635714D01*
X165969048Y-87635714D01*
X165873810Y-87683333D01*
X165397620Y-88302381D02*
X165397620Y-87635714D01*
X165397620Y-87302381D02*
X165445239Y-87350000D01*
X165397620Y-87397619D01*
X165350001Y-87350000D01*
X165397620Y-87302381D01*
X165397620Y-87397619D01*
X165064287Y-87635714D02*
X164683335Y-87635714D01*
X164921430Y-87302381D02*
X164921430Y-88159524D01*
X164873811Y-88254762D01*
X164778573Y-88302381D01*
X164683335Y-88302381D01*
X164350001Y-88302381D02*
X164350001Y-87302381D01*
X163921429Y-88302381D02*
X163921429Y-87778571D01*
X163969048Y-87683333D01*
X164064286Y-87635714D01*
X164207144Y-87635714D01*
X164302382Y-87683333D01*
X164350001Y-87730952D01*
X163016667Y-87635714D02*
X163016667Y-88302381D01*
X163445239Y-87635714D02*
X163445239Y-88159524D01*
X163397620Y-88254762D01*
X163302382Y-88302381D01*
X163159524Y-88302381D01*
X163064286Y-88254762D01*
X163016667Y-88207143D01*
X162540477Y-88302381D02*
X162540477Y-87302381D01*
X162540477Y-87683333D02*
X162445239Y-87635714D01*
X162254762Y-87635714D01*
X162159524Y-87683333D01*
X162111905Y-87730952D01*
X162064286Y-87826190D01*
X162064286Y-88111905D01*
X162111905Y-88207143D01*
X162159524Y-88254762D01*
X162254762Y-88302381D01*
X162445239Y-88302381D01*
X162540477Y-88254762D01*
X161635715Y-88207143D02*
X161588096Y-88254762D01*
X161635715Y-88302381D01*
X161683334Y-88254762D01*
X161635715Y-88207143D01*
X161635715Y-88302381D01*
X160730953Y-88254762D02*
X160826191Y-88302381D01*
X161016668Y-88302381D01*
X161111906Y-88254762D01*
X161159525Y-88207143D01*
X161207144Y-88111905D01*
X161207144Y-87826190D01*
X161159525Y-87730952D01*
X161111906Y-87683333D01*
X161016668Y-87635714D01*
X160826191Y-87635714D01*
X160730953Y-87683333D01*
X160159525Y-88302381D02*
X160254763Y-88254762D01*
X160302382Y-88207143D01*
X160350001Y-88111905D01*
X160350001Y-87826190D01*
X160302382Y-87730952D01*
X160254763Y-87683333D01*
X160159525Y-87635714D01*
X160016667Y-87635714D01*
X159921429Y-87683333D01*
X159873810Y-87730952D01*
X159826191Y-87826190D01*
X159826191Y-88111905D01*
X159873810Y-88207143D01*
X159921429Y-88254762D01*
X160016667Y-88302381D01*
X160159525Y-88302381D01*
X159397620Y-88302381D02*
X159397620Y-87635714D01*
X159397620Y-87730952D02*
X159350001Y-87683333D01*
X159254763Y-87635714D01*
X159111905Y-87635714D01*
X159016667Y-87683333D01*
X158969048Y-87778571D01*
X158969048Y-88302381D01*
X158969048Y-87778571D02*
X158921429Y-87683333D01*
X158826191Y-87635714D01*
X158683334Y-87635714D01*
X158588096Y-87683333D01*
X158540477Y-87778571D01*
X158540477Y-88302381D01*
X157350001Y-87254762D02*
X158207144Y-88540476D01*
X157016668Y-87635714D02*
X157016668Y-88635714D01*
X157016668Y-87683333D02*
X156921430Y-87635714D01*
X156730953Y-87635714D01*
X156635715Y-87683333D01*
X156588096Y-87730952D01*
X156540477Y-87826190D01*
X156540477Y-88111905D01*
X156588096Y-88207143D01*
X156635715Y-88254762D01*
X156730953Y-88302381D01*
X156921430Y-88302381D01*
X157016668Y-88254762D01*
X155969049Y-88302381D02*
X156064287Y-88254762D01*
X156111906Y-88159524D01*
X156111906Y-87302381D01*
X155159524Y-87635714D02*
X155159524Y-88302381D01*
X155588096Y-87635714D02*
X155588096Y-88159524D01*
X155540477Y-88254762D01*
X155445239Y-88302381D01*
X155302381Y-88302381D01*
X155207143Y-88254762D01*
X155159524Y-88207143D01*
X154778572Y-87635714D02*
X154540477Y-88302381D01*
X154302381Y-87635714D02*
X154540477Y-88302381D01*
X154635715Y-88540476D01*
X154683334Y-88588095D01*
X154778572Y-88635714D01*
X153492857Y-88254762D02*
X153588095Y-88302381D01*
X153778572Y-88302381D01*
X153873810Y-88254762D01*
X153921429Y-88207143D01*
X153969048Y-88111905D01*
X153969048Y-87826190D01*
X153921429Y-87730952D01*
X153873810Y-87683333D01*
X153778572Y-87635714D01*
X153588095Y-87635714D01*
X153492857Y-87683333D01*
X153064286Y-88302381D02*
X153064286Y-87302381D01*
X152969048Y-87921429D02*
X152683333Y-88302381D01*
X152683333Y-87635714D02*
X153064286Y-88016667D01*
X152350000Y-88302381D02*
X151826190Y-87635714D01*
X152350000Y-87635714D02*
X151826190Y-88302381D01*
X150730952Y-87254762D02*
X151588095Y-88540476D01*
X150445238Y-88254762D02*
X150302381Y-88302381D01*
X150064285Y-88302381D01*
X149969047Y-88254762D01*
X149921428Y-88207143D01*
X149873809Y-88111905D01*
X149873809Y-88016667D01*
X149921428Y-87921429D01*
X149969047Y-87873810D01*
X150064285Y-87826190D01*
X150254762Y-87778571D01*
X150350000Y-87730952D01*
X150397619Y-87683333D01*
X150445238Y-87588095D01*
X150445238Y-87492857D01*
X150397619Y-87397619D01*
X150350000Y-87350000D01*
X150254762Y-87302381D01*
X150016666Y-87302381D01*
X149873809Y-87350000D01*
X149064285Y-88254762D02*
X149159523Y-88302381D01*
X149350000Y-88302381D01*
X149445238Y-88254762D01*
X149492857Y-88159524D01*
X149492857Y-87778571D01*
X149445238Y-87683333D01*
X149350000Y-87635714D01*
X149159523Y-87635714D01*
X149064285Y-87683333D01*
X149016666Y-87778571D01*
X149016666Y-87873810D01*
X149492857Y-87969048D01*
X148588095Y-87635714D02*
X148588095Y-88302381D01*
X148588095Y-87730952D02*
X148540476Y-87683333D01*
X148445238Y-87635714D01*
X148302380Y-87635714D01*
X148207142Y-87683333D01*
X148159523Y-87778571D01*
X148159523Y-88302381D01*
X147730952Y-88254762D02*
X147635714Y-88302381D01*
X147445238Y-88302381D01*
X147349999Y-88254762D01*
X147302380Y-88159524D01*
X147302380Y-88111905D01*
X147349999Y-88016667D01*
X147445238Y-87969048D01*
X147588095Y-87969048D01*
X147683333Y-87921429D01*
X147730952Y-87826190D01*
X147730952Y-87778571D01*
X147683333Y-87683333D01*
X147588095Y-87635714D01*
X147445238Y-87635714D01*
X147349999Y-87683333D01*
X146730952Y-88302381D02*
X146826190Y-88254762D01*
X146873809Y-88207143D01*
X146921428Y-88111905D01*
X146921428Y-87826190D01*
X146873809Y-87730952D01*
X146826190Y-87683333D01*
X146730952Y-87635714D01*
X146588094Y-87635714D01*
X146492856Y-87683333D01*
X146445237Y-87730952D01*
X146397618Y-87826190D01*
X146397618Y-88111905D01*
X146445237Y-88207143D01*
X146492856Y-88254762D01*
X146588094Y-88302381D01*
X146730952Y-88302381D01*
X145969047Y-88302381D02*
X145969047Y-87635714D01*
X145969047Y-87826190D02*
X145921428Y-87730952D01*
X145873809Y-87683333D01*
X145778571Y-87635714D01*
X145683332Y-87635714D01*
X145349999Y-88302381D02*
X145349999Y-87302381D01*
X144969046Y-87302381D01*
X144873808Y-87350000D01*
X144826189Y-87397619D01*
X144778570Y-87492857D01*
X144778570Y-87635714D01*
X144826189Y-87730952D01*
X144873808Y-87778571D01*
X144969046Y-87826190D01*
X145349999Y-87826190D01*
X143921427Y-88254762D02*
X144016665Y-88302381D01*
X144207142Y-88302381D01*
X144302380Y-88254762D01*
X144349999Y-88207143D01*
X144397618Y-88111905D01*
X144397618Y-87826190D01*
X144349999Y-87730952D01*
X144302380Y-87683333D01*
X144207142Y-87635714D01*
X144016665Y-87635714D01*
X143921427Y-87683333D01*
X143492856Y-88302381D02*
X143492856Y-87302381D01*
X143492856Y-87683333D02*
X143397618Y-87635714D01*
X143207141Y-87635714D01*
X143111903Y-87683333D01*
X143064284Y-87730952D01*
X143016665Y-87826190D01*
X143016665Y-88111905D01*
X143064284Y-88207143D01*
X143111903Y-88254762D01*
X143207141Y-88302381D01*
X143397618Y-88302381D01*
X143492856Y-88254762D01*
D10*
X91000000Y-40000000D02*
X191000000Y-40000000D01*
X90500000Y-90000000D02*
X191500000Y-90000000D01*
X141000000Y-39500000D02*
X141000000Y-141000000D01*
X91000000Y-140000000D02*
X191000000Y-140000000D01*
X91000000Y-40000000D02*
X91000000Y-140000000D01*
X191000000Y-40000000D02*
X191000000Y-140000000D01*
D11*
X122635716Y-88302381D02*
X122635716Y-87302381D01*
X122207144Y-88302381D02*
X122207144Y-87778571D01*
X122254763Y-87683333D01*
X122350001Y-87635714D01*
X122492859Y-87635714D01*
X122588097Y-87683333D01*
X122635716Y-87730952D01*
X121873811Y-87635714D02*
X121492859Y-87635714D01*
X121730954Y-87302381D02*
X121730954Y-88159524D01*
X121683335Y-88254762D01*
X121588097Y-88302381D01*
X121492859Y-88302381D01*
X121302382Y-87635714D02*
X120921430Y-87635714D01*
X121159525Y-87302381D02*
X121159525Y-88159524D01*
X121111906Y-88254762D01*
X121016668Y-88302381D01*
X120921430Y-88302381D01*
X120588096Y-87635714D02*
X120588096Y-88635714D01*
X120588096Y-87683333D02*
X120492858Y-87635714D01*
X120302381Y-87635714D01*
X120207143Y-87683333D01*
X120159524Y-87730952D01*
X120111905Y-87826190D01*
X120111905Y-88111905D01*
X120159524Y-88207143D01*
X120207143Y-88254762D01*
X120302381Y-88302381D01*
X120492858Y-88302381D01*
X120588096Y-88254762D01*
X119730953Y-88254762D02*
X119635715Y-88302381D01*
X119445239Y-88302381D01*
X119350000Y-88254762D01*
X119302381Y-88159524D01*
X119302381Y-88111905D01*
X119350000Y-88016667D01*
X119445239Y-87969048D01*
X119588096Y-87969048D01*
X119683334Y-87921429D01*
X119730953Y-87826190D01*
X119730953Y-87778571D01*
X119683334Y-87683333D01*
X119588096Y-87635714D01*
X119445239Y-87635714D01*
X119350000Y-87683333D01*
X118873810Y-88207143D02*
X118826191Y-88254762D01*
X118873810Y-88302381D01*
X118921429Y-88254762D01*
X118873810Y-88207143D01*
X118873810Y-88302381D01*
X118873810Y-87683333D02*
X118826191Y-87730952D01*
X118873810Y-87778571D01*
X118921429Y-87730952D01*
X118873810Y-87683333D01*
X118873810Y-87778571D01*
X117683334Y-87254762D02*
X118540477Y-88540476D01*
X116635715Y-87254762D02*
X117492858Y-88540476D01*
X115873810Y-87635714D02*
X115873810Y-88445238D01*
X115921429Y-88540476D01*
X115969048Y-88588095D01*
X116064287Y-88635714D01*
X116207144Y-88635714D01*
X116302382Y-88588095D01*
X115873810Y-88254762D02*
X115969048Y-88302381D01*
X116159525Y-88302381D01*
X116254763Y-88254762D01*
X116302382Y-88207143D01*
X116350001Y-88111905D01*
X116350001Y-87826190D01*
X116302382Y-87730952D01*
X116254763Y-87683333D01*
X116159525Y-87635714D01*
X115969048Y-87635714D01*
X115873810Y-87683333D01*
X115397620Y-88302381D02*
X115397620Y-87635714D01*
X115397620Y-87302381D02*
X115445239Y-87350000D01*
X115397620Y-87397619D01*
X115350001Y-87350000D01*
X115397620Y-87302381D01*
X115397620Y-87397619D01*
X115064287Y-87635714D02*
X114683335Y-87635714D01*
X114921430Y-87302381D02*
X114921430Y-88159524D01*
X114873811Y-88254762D01*
X114778573Y-88302381D01*
X114683335Y-88302381D01*
X114350001Y-88302381D02*
X114350001Y-87302381D01*
X113921429Y-88302381D02*
X113921429Y-87778571D01*
X113969048Y-87683333D01*
X114064286Y-87635714D01*
X114207144Y-87635714D01*
X114302382Y-87683333D01*
X114350001Y-87730952D01*
X113016667Y-87635714D02*
X113016667Y-88302381D01*
X113445239Y-87635714D02*
X113445239Y-88159524D01*
X113397620Y-88254762D01*
X113302382Y-88302381D01*
X113159524Y-88302381D01*
X113064286Y-88254762D01*
X113016667Y-88207143D01*
X112540477Y-88302381D02*
X112540477Y-87302381D01*
X112540477Y-87683333D02*
X112445239Y-87635714D01*
X112254762Y-87635714D01*
X112159524Y-87683333D01*
X112111905Y-87730952D01*
X112064286Y-87826190D01*
X112064286Y-88111905D01*
X112111905Y-88207143D01*
X112159524Y-88254762D01*
X112254762Y-88302381D01*
X112445239Y-88302381D01*
X112540477Y-88254762D01*
X111635715Y-88207143D02*
X111588096Y-88254762D01*
X111635715Y-88302381D01*
X111683334Y-88254762D01*
X111635715Y-88207143D01*
X111635715Y-88302381D01*
X110730953Y-88254762D02*
X110826191Y-88302381D01*
X111016668Y-88302381D01*
X111111906Y-88254762D01*
X111159525Y-88207143D01*
X111207144Y-88111905D01*
X111207144Y-87826190D01*
X111159525Y-87730952D01*
X111111906Y-87683333D01*
X111016668Y-87635714D01*
X110826191Y-87635714D01*
X110730953Y-87683333D01*
X110159525Y-88302381D02*
X110254763Y-88254762D01*
X110302382Y-88207143D01*
X110350001Y-88111905D01*
X110350001Y-87826190D01*
X110302382Y-87730952D01*
X110254763Y-87683333D01*
X110159525Y-87635714D01*
X110016667Y-87635714D01*
X109921429Y-87683333D01*
X109873810Y-87730952D01*
X109826191Y-87826190D01*
X109826191Y-88111905D01*
X109873810Y-88207143D01*
X109921429Y-88254762D01*
X110016667Y-88302381D01*
X110159525Y-88302381D01*
X109397620Y-88302381D02*
X109397620Y-87635714D01*
X109397620Y-87730952D02*
X109350001Y-87683333D01*
X109254763Y-87635714D01*
X109111905Y-87635714D01*
X109016667Y-87683333D01*
X108969048Y-87778571D01*
X108969048Y-88302381D01*
X108969048Y-87778571D02*
X108921429Y-87683333D01*
X108826191Y-87635714D01*
X108683334Y-87635714D01*
X108588096Y-87683333D01*
X108540477Y-87778571D01*
X108540477Y-88302381D01*
X107350001Y-87254762D02*
X108207144Y-88540476D01*
X107016668Y-87635714D02*
X107016668Y-88635714D01*
X107016668Y-87683333D02*
X106921430Y-87635714D01*
X106730953Y-87635714D01*
X106635715Y-87683333D01*
X106588096Y-87730952D01*
X106540477Y-87826190D01*
X106540477Y-88111905D01*
X106588096Y-88207143D01*
X106635715Y-88254762D01*
X106730953Y-88302381D01*
X106921430Y-88302381D01*
X107016668Y-88254762D01*
X105969049Y-88302381D02*
X106064287Y-88254762D01*
X106111906Y-88159524D01*
X106111906Y-87302381D01*
X105159524Y-87635714D02*
X105159524Y-88302381D01*
X105588096Y-87635714D02*
X105588096Y-88159524D01*
X105540477Y-88254762D01*
X105445239Y-88302381D01*
X105302381Y-88302381D01*
X105207143Y-88254762D01*
X105159524Y-88207143D01*
X104778572Y-87635714D02*
X104540477Y-88302381D01*
X104302381Y-87635714D02*
X104540477Y-88302381D01*
X104635715Y-88540476D01*
X104683334Y-88588095D01*
X104778572Y-88635714D01*
X103492857Y-88254762D02*
X103588095Y-88302381D01*
X103778572Y-88302381D01*
X103873810Y-88254762D01*
X103921429Y-88207143D01*
X103969048Y-88111905D01*
X103969048Y-87826190D01*
X103921429Y-87730952D01*
X103873810Y-87683333D01*
X103778572Y-87635714D01*
X103588095Y-87635714D01*
X103492857Y-87683333D01*
X103064286Y-88302381D02*
X103064286Y-87302381D01*
X102969048Y-87921429D02*
X102683333Y-88302381D01*
X102683333Y-87635714D02*
X103064286Y-88016667D01*
X102350000Y-88302381D02*
X101826190Y-87635714D01*
X102350000Y-87635714D02*
X101826190Y-88302381D01*
X100730952Y-87254762D02*
X101588095Y-88540476D01*
X100445238Y-88254762D02*
X100302381Y-88302381D01*
X100064285Y-88302381D01*
X99969047Y-88254762D01*
X99921428Y-88207143D01*
X99873809Y-88111905D01*
X99873809Y-88016667D01*
X99921428Y-87921429D01*
X99969047Y-87873810D01*
X100064285Y-87826190D01*
X100254762Y-87778571D01*
X100350000Y-87730952D01*
X100397619Y-87683333D01*
X100445238Y-87588095D01*
X100445238Y-87492857D01*
X100397619Y-87397619D01*
X100350000Y-87350000D01*
X100254762Y-87302381D01*
X100016666Y-87302381D01*
X99873809Y-87350000D01*
X99064285Y-88254762D02*
X99159523Y-88302381D01*
X99350000Y-88302381D01*
X99445238Y-88254762D01*
X99492857Y-88159524D01*
X99492857Y-87778571D01*
X99445238Y-87683333D01*
X99350000Y-87635714D01*
X99159523Y-87635714D01*
X99064285Y-87683333D01*
X99016666Y-87778571D01*
X99016666Y-87873810D01*
X99492857Y-87969048D01*
X98588095Y-87635714D02*
X98588095Y-88302381D01*
X98588095Y-87730952D02*
X98540476Y-87683333D01*
X98445238Y-87635714D01*
X98302380Y-87635714D01*
X98207142Y-87683333D01*
X98159523Y-87778571D01*
X98159523Y-88302381D01*
X97730952Y-88254762D02*
X97635714Y-88302381D01*
X97445238Y-88302381D01*
X97349999Y-88254762D01*
X97302380Y-88159524D01*
X97302380Y-88111905D01*
X97349999Y-88016667D01*
X97445238Y-87969048D01*
X97588095Y-87969048D01*
X97683333Y-87921429D01*
X97730952Y-87826190D01*
X97730952Y-87778571D01*
X97683333Y-87683333D01*
X97588095Y-87635714D01*
X97445238Y-87635714D01*
X97349999Y-87683333D01*
X96730952Y-88302381D02*
X96826190Y-88254762D01*
X96873809Y-88207143D01*
X96921428Y-88111905D01*
X96921428Y-87826190D01*
X96873809Y-87730952D01*
X96826190Y-87683333D01*
X96730952Y-87635714D01*
X96588094Y-87635714D01*
X96492856Y-87683333D01*
X96445237Y-87730952D01*
X96397618Y-87826190D01*
X96397618Y-88111905D01*
X96445237Y-88207143D01*
X96492856Y-88254762D01*
X96588094Y-88302381D01*
X96730952Y-88302381D01*
X95969047Y-88302381D02*
X95969047Y-87635714D01*
X95969047Y-87826190D02*
X95921428Y-87730952D01*
X95873809Y-87683333D01*
X95778571Y-87635714D01*
X95683332Y-87635714D01*
X95349999Y-88302381D02*
X95349999Y-87302381D01*
X94969046Y-87302381D01*
X94873808Y-87350000D01*
X94826189Y-87397619D01*
X94778570Y-87492857D01*
X94778570Y-87635714D01*
X94826189Y-87730952D01*
X94873808Y-87778571D01*
X94969046Y-87826190D01*
X95349999Y-87826190D01*
X93921427Y-88254762D02*
X94016665Y-88302381D01*
X94207142Y-88302381D01*
X94302380Y-88254762D01*
X94349999Y-88207143D01*
X94397618Y-88111905D01*
X94397618Y-87826190D01*
X94349999Y-87730952D01*
X94302380Y-87683333D01*
X94207142Y-87635714D01*
X94016665Y-87635714D01*
X93921427Y-87683333D01*
X93492856Y-88302381D02*
X93492856Y-87302381D01*
X93492856Y-87683333D02*
X93397618Y-87635714D01*
X93207141Y-87635714D01*
X93111903Y-87683333D01*
X93064284Y-87730952D01*
X93016665Y-87826190D01*
X93016665Y-88111905D01*
X93064284Y-88207143D01*
X93111903Y-88254762D01*
X93207141Y-88302381D01*
X93397618Y-88302381D01*
X93492856Y-88254762D01*
D12*
X137450000Y-96025000D02*
X136250000Y-96025000D01*
X136250000Y-97775000D02*
X137450000Y-97775000D01*
X96900000Y-103775000D02*
X98100000Y-103775000D01*
X98100000Y-102025000D02*
X96900000Y-102025000D01*
X96900000Y-101675000D02*
X98100000Y-101675000D01*
X98100000Y-99925000D02*
X96900000Y-99925000D01*
X127300000Y-118125000D02*
X125300000Y-118125000D01*
X125300000Y-120275000D02*
X127300000Y-120275000D01*
X95375000Y-99800000D02*
X95375000Y-98800000D01*
X94025000Y-98800000D02*
X94025000Y-99800000D01*
X93925000Y-104450000D02*
X93925000Y-105450000D01*
X95275000Y-105450000D02*
X95275000Y-104450000D01*
X107360000Y-93750000D02*
G75*
G03X107360000Y-93750000I-1000000J0D01*
G01*
X129360000Y-93750000D02*
G75*
G03X129360000Y-93750000I-1000000J0D01*
G01*
X107360000Y-111050000D02*
G75*
G03X107360000Y-111050000I-1000000J0D01*
G01*
X129360000Y-111050000D02*
G75*
G03X129360000Y-111050000I-1000000J0D01*
G01*
X128360000Y-113400000D02*
X128360000Y-91400000D01*
X128360000Y-91400000D02*
X106360000Y-91400000D01*
X106360000Y-91400000D02*
X106360000Y-113400000D01*
X106360000Y-113400000D02*
X128360000Y-113400000D01*
X120860000Y-98500000D02*
X120360000Y-99000000D01*
X121260000Y-98900000D02*
X120860000Y-98500000D01*
X120760000Y-99400000D02*
X121260000Y-98900000D01*
X121861111Y-102400000D02*
G75*
G03X121861111Y-102400000I-4501111J0D01*
G01*
X119900000Y-102400000D02*
G75*
G03X119900000Y-102400000I-2540000J0D01*
G01*
X187450000Y-96025000D02*
X186250000Y-96025000D01*
X186250000Y-97775000D02*
X187450000Y-97775000D01*
X146900000Y-103775000D02*
X148100000Y-103775000D01*
X148100000Y-102025000D02*
X146900000Y-102025000D01*
X146900000Y-101675000D02*
X148100000Y-101675000D01*
X148100000Y-99925000D02*
X146900000Y-99925000D01*
X177300000Y-118125000D02*
X175300000Y-118125000D01*
X175300000Y-120275000D02*
X177300000Y-120275000D01*
X145375000Y-99800000D02*
X145375000Y-98800000D01*
X144025000Y-98800000D02*
X144025000Y-99800000D01*
X143925000Y-104450000D02*
X143925000Y-105450000D01*
X145275000Y-105450000D02*
X145275000Y-104450000D01*
X157360000Y-93750000D02*
G75*
G03X157360000Y-93750000I-1000000J0D01*
G01*
X179360000Y-93750000D02*
G75*
G03X179360000Y-93750000I-1000000J0D01*
G01*
X157360000Y-111050000D02*
G75*
G03X157360000Y-111050000I-1000000J0D01*
G01*
X179360000Y-111050000D02*
G75*
G03X179360000Y-111050000I-1000000J0D01*
G01*
X178360000Y-113400000D02*
X178360000Y-91400000D01*
X178360000Y-91400000D02*
X156360000Y-91400000D01*
X156360000Y-91400000D02*
X156360000Y-113400000D01*
X156360000Y-113400000D02*
X178360000Y-113400000D01*
X170860000Y-98500000D02*
X170360000Y-99000000D01*
X171260000Y-98900000D02*
X170860000Y-98500000D01*
X170760000Y-99400000D02*
X171260000Y-98900000D01*
X171861111Y-102400000D02*
G75*
G03X171861111Y-102400000I-4501111J0D01*
G01*
X169900000Y-102400000D02*
G75*
G03X169900000Y-102400000I-2540000J0D01*
G01*
X187450000Y-46025000D02*
X186250000Y-46025000D01*
X186250000Y-47775000D02*
X187450000Y-47775000D01*
X146900000Y-53775000D02*
X148100000Y-53775000D01*
X148100000Y-52025000D02*
X146900000Y-52025000D01*
X146900000Y-51675000D02*
X148100000Y-51675000D01*
X148100000Y-49925000D02*
X146900000Y-49925000D01*
X177300000Y-68125000D02*
X175300000Y-68125000D01*
X175300000Y-70275000D02*
X177300000Y-70275000D01*
X145375000Y-49800000D02*
X145375000Y-48800000D01*
X144025000Y-48800000D02*
X144025000Y-49800000D01*
X143925000Y-54450000D02*
X143925000Y-55450000D01*
X145275000Y-55450000D02*
X145275000Y-54450000D01*
X157360000Y-43750000D02*
G75*
G03X157360000Y-43750000I-1000000J0D01*
G01*
X179360000Y-43750000D02*
G75*
G03X179360000Y-43750000I-1000000J0D01*
G01*
X157360000Y-61050000D02*
G75*
G03X157360000Y-61050000I-1000000J0D01*
G01*
X179360000Y-61050000D02*
G75*
G03X179360000Y-61050000I-1000000J0D01*
G01*
X178360000Y-63400000D02*
X178360000Y-41400000D01*
X178360000Y-41400000D02*
X156360000Y-41400000D01*
X156360000Y-41400000D02*
X156360000Y-63400000D01*
X156360000Y-63400000D02*
X178360000Y-63400000D01*
X170860000Y-48500000D02*
X170360000Y-49000000D01*
X171260000Y-48900000D02*
X170860000Y-48500000D01*
X170760000Y-49400000D02*
X171260000Y-48900000D01*
X171861111Y-52400000D02*
G75*
G03X171861111Y-52400000I-4501111J0D01*
G01*
X169900000Y-52400000D02*
G75*
G03X169900000Y-52400000I-2540000J0D01*
G01*
X127300000Y-68125000D02*
X125300000Y-68125000D01*
X125300000Y-70275000D02*
X127300000Y-70275000D01*
X96900000Y-53775000D02*
X98100000Y-53775000D01*
X98100000Y-52025000D02*
X96900000Y-52025000D01*
X137450000Y-46025000D02*
X136250000Y-46025000D01*
X136250000Y-47775000D02*
X137450000Y-47775000D01*
X96900000Y-51675000D02*
X98100000Y-51675000D01*
X98100000Y-49925000D02*
X96900000Y-49925000D01*
X95375000Y-49800000D02*
X95375000Y-48800000D01*
X94025000Y-48800000D02*
X94025000Y-49800000D01*
X93925000Y-54450000D02*
X93925000Y-55450000D01*
X95275000Y-55450000D02*
X95275000Y-54450000D01*
X107360000Y-43750000D02*
G75*
G03X107360000Y-43750000I-1000000J0D01*
G01*
X129360000Y-43750000D02*
G75*
G03X129360000Y-43750000I-1000000J0D01*
G01*
X107360000Y-61050000D02*
G75*
G03X107360000Y-61050000I-1000000J0D01*
G01*
X129360000Y-61050000D02*
G75*
G03X129360000Y-61050000I-1000000J0D01*
G01*
X128360000Y-63400000D02*
X128360000Y-41400000D01*
X128360000Y-41400000D02*
X106360000Y-41400000D01*
X106360000Y-41400000D02*
X106360000Y-63400000D01*
X106360000Y-63400000D02*
X128360000Y-63400000D01*
X120860000Y-48500000D02*
X120360000Y-49000000D01*
X121260000Y-48900000D02*
X120860000Y-48500000D01*
X120760000Y-49400000D02*
X121260000Y-48900000D01*
X121861111Y-52400000D02*
G75*
G03X121861111Y-52400000I-4501111J0D01*
G01*
X119900000Y-52400000D02*
G75*
G03X119900000Y-52400000I-2540000J0D01*
G01*
X137016666Y-99357143D02*
X137064285Y-99404762D01*
X137207142Y-99452381D01*
X137302380Y-99452381D01*
X137445238Y-99404762D01*
X137540476Y-99309524D01*
X137588095Y-99214286D01*
X137635714Y-99023810D01*
X137635714Y-98880952D01*
X137588095Y-98690476D01*
X137540476Y-98595238D01*
X137445238Y-98500000D01*
X137302380Y-98452381D01*
X137207142Y-98452381D01*
X137064285Y-98500000D01*
X137016666Y-98547619D01*
X136540476Y-99452381D02*
X136350000Y-99452381D01*
X136254761Y-99404762D01*
X136207142Y-99357143D01*
X136111904Y-99214286D01*
X136064285Y-99023810D01*
X136064285Y-98642857D01*
X136111904Y-98547619D01*
X136159523Y-98500000D01*
X136254761Y-98452381D01*
X136445238Y-98452381D01*
X136540476Y-98500000D01*
X136588095Y-98547619D01*
X136635714Y-98642857D01*
X136635714Y-98880952D01*
X136588095Y-98976190D01*
X136540476Y-99023810D01*
X136445238Y-99071429D01*
X136254761Y-99071429D01*
X136159523Y-99023810D01*
X136111904Y-98976190D01*
X136064285Y-98880952D01*
X97866666Y-104957143D02*
X97914285Y-105004762D01*
X98057142Y-105052381D01*
X98152380Y-105052381D01*
X98295238Y-105004762D01*
X98390476Y-104909524D01*
X98438095Y-104814286D01*
X98485714Y-104623810D01*
X98485714Y-104480952D01*
X98438095Y-104290476D01*
X98390476Y-104195238D01*
X98295238Y-104100000D01*
X98152380Y-104052381D01*
X98057142Y-104052381D01*
X97914285Y-104100000D01*
X97866666Y-104147619D01*
X97295238Y-104480952D02*
X97390476Y-104433333D01*
X97438095Y-104385714D01*
X97485714Y-104290476D01*
X97485714Y-104242857D01*
X97438095Y-104147619D01*
X97390476Y-104100000D01*
X97295238Y-104052381D01*
X97104761Y-104052381D01*
X97009523Y-104100000D01*
X96961904Y-104147619D01*
X96914285Y-104242857D01*
X96914285Y-104290476D01*
X96961904Y-104385714D01*
X97009523Y-104433333D01*
X97104761Y-104480952D01*
X97295238Y-104480952D01*
X97390476Y-104528571D01*
X97438095Y-104576190D01*
X97485714Y-104671429D01*
X97485714Y-104861905D01*
X97438095Y-104957143D01*
X97390476Y-105004762D01*
X97295238Y-105052381D01*
X97104761Y-105052381D01*
X97009523Y-105004762D01*
X96961904Y-104957143D01*
X96914285Y-104861905D01*
X96914285Y-104671429D01*
X96961904Y-104576190D01*
X97009523Y-104528571D01*
X97104761Y-104480952D01*
X101242857Y-101157143D02*
X101290476Y-101204762D01*
X101433333Y-101252381D01*
X101528571Y-101252381D01*
X101671429Y-101204762D01*
X101766667Y-101109524D01*
X101814286Y-101014286D01*
X101861905Y-100823810D01*
X101861905Y-100680952D01*
X101814286Y-100490476D01*
X101766667Y-100395238D01*
X101671429Y-100300000D01*
X101528571Y-100252381D01*
X101433333Y-100252381D01*
X101290476Y-100300000D01*
X101242857Y-100347619D01*
X100290476Y-101252381D02*
X100861905Y-101252381D01*
X100576191Y-101252381D02*
X100576191Y-100252381D01*
X100671429Y-100395238D01*
X100766667Y-100490476D01*
X100861905Y-100538095D01*
X99671429Y-100252381D02*
X99576190Y-100252381D01*
X99480952Y-100300000D01*
X99433333Y-100347619D01*
X99385714Y-100442857D01*
X99338095Y-100633333D01*
X99338095Y-100871429D01*
X99385714Y-101061905D01*
X99433333Y-101157143D01*
X99480952Y-101204762D01*
X99576190Y-101252381D01*
X99671429Y-101252381D01*
X99766667Y-101204762D01*
X99814286Y-101157143D01*
X99861905Y-101061905D01*
X99909524Y-100871429D01*
X99909524Y-100633333D01*
X99861905Y-100442857D01*
X99814286Y-100347619D01*
X99766667Y-100300000D01*
X99671429Y-100252381D01*
X127438095Y-117552381D02*
X127438095Y-116552381D01*
X127200000Y-116552381D01*
X127057142Y-116600000D01*
X126961904Y-116695238D01*
X126914285Y-116790476D01*
X126866666Y-116980952D01*
X126866666Y-117123810D01*
X126914285Y-117314286D01*
X126961904Y-117409524D01*
X127057142Y-117504762D01*
X127200000Y-117552381D01*
X127438095Y-117552381D01*
X125914285Y-117552381D02*
X126485714Y-117552381D01*
X126200000Y-117552381D02*
X126200000Y-116552381D01*
X126295238Y-116695238D01*
X126390476Y-116790476D01*
X126485714Y-116838095D01*
X96852381Y-99133334D02*
X96376190Y-98800000D01*
X96852381Y-98561905D02*
X95852381Y-98561905D01*
X95852381Y-98942858D01*
X95900000Y-99038096D01*
X95947619Y-99085715D01*
X96042857Y-99133334D01*
X96185714Y-99133334D01*
X96280952Y-99085715D01*
X96328571Y-99038096D01*
X96376190Y-98942858D01*
X96376190Y-98561905D01*
X95852381Y-100038096D02*
X95852381Y-99561905D01*
X96328571Y-99514286D01*
X96280952Y-99561905D01*
X96233333Y-99657143D01*
X96233333Y-99895239D01*
X96280952Y-99990477D01*
X96328571Y-100038096D01*
X96423810Y-100085715D01*
X96661905Y-100085715D01*
X96757143Y-100038096D01*
X96804762Y-99990477D01*
X96852381Y-99895239D01*
X96852381Y-99657143D01*
X96804762Y-99561905D01*
X96757143Y-99514286D01*
X95152381Y-101657143D02*
X94676190Y-101323809D01*
X95152381Y-101085714D02*
X94152381Y-101085714D01*
X94152381Y-101466667D01*
X94200000Y-101561905D01*
X94247619Y-101609524D01*
X94342857Y-101657143D01*
X94485714Y-101657143D01*
X94580952Y-101609524D01*
X94628571Y-101561905D01*
X94676190Y-101466667D01*
X94676190Y-101085714D01*
X95152381Y-102609524D02*
X95152381Y-102038095D01*
X95152381Y-102323809D02*
X94152381Y-102323809D01*
X94295238Y-102228571D01*
X94390476Y-102133333D01*
X94438095Y-102038095D01*
X94152381Y-102942857D02*
X94152381Y-103609524D01*
X95152381Y-103180952D01*
X120338095Y-134732381D02*
X120338095Y-133732381D01*
X119957142Y-133732381D01*
X119861904Y-133780000D01*
X119814285Y-133827619D01*
X119766666Y-133922857D01*
X119766666Y-134065714D01*
X119814285Y-134160952D01*
X119861904Y-134208571D01*
X119957142Y-134256190D01*
X120338095Y-134256190D01*
X118814285Y-134732381D02*
X119385714Y-134732381D01*
X119100000Y-134732381D02*
X119100000Y-133732381D01*
X119195238Y-133875238D01*
X119290476Y-133970476D01*
X119385714Y-134018095D01*
X118121905Y-95852381D02*
X118121905Y-96661905D01*
X118074286Y-96757143D01*
X118026667Y-96804762D01*
X117931429Y-96852381D01*
X117740952Y-96852381D01*
X117645714Y-96804762D01*
X117598095Y-96757143D01*
X117550476Y-96661905D01*
X117550476Y-95852381D01*
X117169524Y-95852381D02*
X116550476Y-95852381D01*
X116883810Y-96233333D01*
X116740952Y-96233333D01*
X116645714Y-96280952D01*
X116598095Y-96328571D01*
X116550476Y-96423810D01*
X116550476Y-96661905D01*
X116598095Y-96757143D01*
X116645714Y-96804762D01*
X116740952Y-96852381D01*
X117026667Y-96852381D01*
X117121905Y-96804762D01*
X117169524Y-96757143D01*
X187016666Y-99357143D02*
X187064285Y-99404762D01*
X187207142Y-99452381D01*
X187302380Y-99452381D01*
X187445238Y-99404762D01*
X187540476Y-99309524D01*
X187588095Y-99214286D01*
X187635714Y-99023810D01*
X187635714Y-98880952D01*
X187588095Y-98690476D01*
X187540476Y-98595238D01*
X187445238Y-98500000D01*
X187302380Y-98452381D01*
X187207142Y-98452381D01*
X187064285Y-98500000D01*
X187016666Y-98547619D01*
X186540476Y-99452381D02*
X186350000Y-99452381D01*
X186254761Y-99404762D01*
X186207142Y-99357143D01*
X186111904Y-99214286D01*
X186064285Y-99023810D01*
X186064285Y-98642857D01*
X186111904Y-98547619D01*
X186159523Y-98500000D01*
X186254761Y-98452381D01*
X186445238Y-98452381D01*
X186540476Y-98500000D01*
X186588095Y-98547619D01*
X186635714Y-98642857D01*
X186635714Y-98880952D01*
X186588095Y-98976190D01*
X186540476Y-99023810D01*
X186445238Y-99071429D01*
X186254761Y-99071429D01*
X186159523Y-99023810D01*
X186111904Y-98976190D01*
X186064285Y-98880952D01*
X147866666Y-104957143D02*
X147914285Y-105004762D01*
X148057142Y-105052381D01*
X148152380Y-105052381D01*
X148295238Y-105004762D01*
X148390476Y-104909524D01*
X148438095Y-104814286D01*
X148485714Y-104623810D01*
X148485714Y-104480952D01*
X148438095Y-104290476D01*
X148390476Y-104195238D01*
X148295238Y-104100000D01*
X148152380Y-104052381D01*
X148057142Y-104052381D01*
X147914285Y-104100000D01*
X147866666Y-104147619D01*
X147295238Y-104480952D02*
X147390476Y-104433333D01*
X147438095Y-104385714D01*
X147485714Y-104290476D01*
X147485714Y-104242857D01*
X147438095Y-104147619D01*
X147390476Y-104100000D01*
X147295238Y-104052381D01*
X147104761Y-104052381D01*
X147009523Y-104100000D01*
X146961904Y-104147619D01*
X146914285Y-104242857D01*
X146914285Y-104290476D01*
X146961904Y-104385714D01*
X147009523Y-104433333D01*
X147104761Y-104480952D01*
X147295238Y-104480952D01*
X147390476Y-104528571D01*
X147438095Y-104576190D01*
X147485714Y-104671429D01*
X147485714Y-104861905D01*
X147438095Y-104957143D01*
X147390476Y-105004762D01*
X147295238Y-105052381D01*
X147104761Y-105052381D01*
X147009523Y-105004762D01*
X146961904Y-104957143D01*
X146914285Y-104861905D01*
X146914285Y-104671429D01*
X146961904Y-104576190D01*
X147009523Y-104528571D01*
X147104761Y-104480952D01*
X151242857Y-101157143D02*
X151290476Y-101204762D01*
X151433333Y-101252381D01*
X151528571Y-101252381D01*
X151671429Y-101204762D01*
X151766667Y-101109524D01*
X151814286Y-101014286D01*
X151861905Y-100823810D01*
X151861905Y-100680952D01*
X151814286Y-100490476D01*
X151766667Y-100395238D01*
X151671429Y-100300000D01*
X151528571Y-100252381D01*
X151433333Y-100252381D01*
X151290476Y-100300000D01*
X151242857Y-100347619D01*
X150290476Y-101252381D02*
X150861905Y-101252381D01*
X150576191Y-101252381D02*
X150576191Y-100252381D01*
X150671429Y-100395238D01*
X150766667Y-100490476D01*
X150861905Y-100538095D01*
X149671429Y-100252381D02*
X149576190Y-100252381D01*
X149480952Y-100300000D01*
X149433333Y-100347619D01*
X149385714Y-100442857D01*
X149338095Y-100633333D01*
X149338095Y-100871429D01*
X149385714Y-101061905D01*
X149433333Y-101157143D01*
X149480952Y-101204762D01*
X149576190Y-101252381D01*
X149671429Y-101252381D01*
X149766667Y-101204762D01*
X149814286Y-101157143D01*
X149861905Y-101061905D01*
X149909524Y-100871429D01*
X149909524Y-100633333D01*
X149861905Y-100442857D01*
X149814286Y-100347619D01*
X149766667Y-100300000D01*
X149671429Y-100252381D01*
X177438095Y-117552381D02*
X177438095Y-116552381D01*
X177200000Y-116552381D01*
X177057142Y-116600000D01*
X176961904Y-116695238D01*
X176914285Y-116790476D01*
X176866666Y-116980952D01*
X176866666Y-117123810D01*
X176914285Y-117314286D01*
X176961904Y-117409524D01*
X177057142Y-117504762D01*
X177200000Y-117552381D01*
X177438095Y-117552381D01*
X175914285Y-117552381D02*
X176485714Y-117552381D01*
X176200000Y-117552381D02*
X176200000Y-116552381D01*
X176295238Y-116695238D01*
X176390476Y-116790476D01*
X176485714Y-116838095D01*
X146852381Y-99133334D02*
X146376190Y-98800000D01*
X146852381Y-98561905D02*
X145852381Y-98561905D01*
X145852381Y-98942858D01*
X145900000Y-99038096D01*
X145947619Y-99085715D01*
X146042857Y-99133334D01*
X146185714Y-99133334D01*
X146280952Y-99085715D01*
X146328571Y-99038096D01*
X146376190Y-98942858D01*
X146376190Y-98561905D01*
X145852381Y-100038096D02*
X145852381Y-99561905D01*
X146328571Y-99514286D01*
X146280952Y-99561905D01*
X146233333Y-99657143D01*
X146233333Y-99895239D01*
X146280952Y-99990477D01*
X146328571Y-100038096D01*
X146423810Y-100085715D01*
X146661905Y-100085715D01*
X146757143Y-100038096D01*
X146804762Y-99990477D01*
X146852381Y-99895239D01*
X146852381Y-99657143D01*
X146804762Y-99561905D01*
X146757143Y-99514286D01*
X145152381Y-101657143D02*
X144676190Y-101323809D01*
X145152381Y-101085714D02*
X144152381Y-101085714D01*
X144152381Y-101466667D01*
X144200000Y-101561905D01*
X144247619Y-101609524D01*
X144342857Y-101657143D01*
X144485714Y-101657143D01*
X144580952Y-101609524D01*
X144628571Y-101561905D01*
X144676190Y-101466667D01*
X144676190Y-101085714D01*
X145152381Y-102609524D02*
X145152381Y-102038095D01*
X145152381Y-102323809D02*
X144152381Y-102323809D01*
X144295238Y-102228571D01*
X144390476Y-102133333D01*
X144438095Y-102038095D01*
X144152381Y-102942857D02*
X144152381Y-103609524D01*
X145152381Y-103180952D01*
X170338095Y-134732381D02*
X170338095Y-133732381D01*
X169957142Y-133732381D01*
X169861904Y-133780000D01*
X169814285Y-133827619D01*
X169766666Y-133922857D01*
X169766666Y-134065714D01*
X169814285Y-134160952D01*
X169861904Y-134208571D01*
X169957142Y-134256190D01*
X170338095Y-134256190D01*
X168814285Y-134732381D02*
X169385714Y-134732381D01*
X169100000Y-134732381D02*
X169100000Y-133732381D01*
X169195238Y-133875238D01*
X169290476Y-133970476D01*
X169385714Y-134018095D01*
X168121905Y-95852381D02*
X168121905Y-96661905D01*
X168074286Y-96757143D01*
X168026667Y-96804762D01*
X167931429Y-96852381D01*
X167740952Y-96852381D01*
X167645714Y-96804762D01*
X167598095Y-96757143D01*
X167550476Y-96661905D01*
X167550476Y-95852381D01*
X167169524Y-95852381D02*
X166550476Y-95852381D01*
X166883810Y-96233333D01*
X166740952Y-96233333D01*
X166645714Y-96280952D01*
X166598095Y-96328571D01*
X166550476Y-96423810D01*
X166550476Y-96661905D01*
X166598095Y-96757143D01*
X166645714Y-96804762D01*
X166740952Y-96852381D01*
X167026667Y-96852381D01*
X167121905Y-96804762D01*
X167169524Y-96757143D01*
X187016666Y-49357143D02*
X187064285Y-49404762D01*
X187207142Y-49452381D01*
X187302380Y-49452381D01*
X187445238Y-49404762D01*
X187540476Y-49309524D01*
X187588095Y-49214286D01*
X187635714Y-49023810D01*
X187635714Y-48880952D01*
X187588095Y-48690476D01*
X187540476Y-48595238D01*
X187445238Y-48500000D01*
X187302380Y-48452381D01*
X187207142Y-48452381D01*
X187064285Y-48500000D01*
X187016666Y-48547619D01*
X186540476Y-49452381D02*
X186350000Y-49452381D01*
X186254761Y-49404762D01*
X186207142Y-49357143D01*
X186111904Y-49214286D01*
X186064285Y-49023810D01*
X186064285Y-48642857D01*
X186111904Y-48547619D01*
X186159523Y-48500000D01*
X186254761Y-48452381D01*
X186445238Y-48452381D01*
X186540476Y-48500000D01*
X186588095Y-48547619D01*
X186635714Y-48642857D01*
X186635714Y-48880952D01*
X186588095Y-48976190D01*
X186540476Y-49023810D01*
X186445238Y-49071429D01*
X186254761Y-49071429D01*
X186159523Y-49023810D01*
X186111904Y-48976190D01*
X186064285Y-48880952D01*
X147866666Y-54957143D02*
X147914285Y-55004762D01*
X148057142Y-55052381D01*
X148152380Y-55052381D01*
X148295238Y-55004762D01*
X148390476Y-54909524D01*
X148438095Y-54814286D01*
X148485714Y-54623810D01*
X148485714Y-54480952D01*
X148438095Y-54290476D01*
X148390476Y-54195238D01*
X148295238Y-54100000D01*
X148152380Y-54052381D01*
X148057142Y-54052381D01*
X147914285Y-54100000D01*
X147866666Y-54147619D01*
X147295238Y-54480952D02*
X147390476Y-54433333D01*
X147438095Y-54385714D01*
X147485714Y-54290476D01*
X147485714Y-54242857D01*
X147438095Y-54147619D01*
X147390476Y-54100000D01*
X147295238Y-54052381D01*
X147104761Y-54052381D01*
X147009523Y-54100000D01*
X146961904Y-54147619D01*
X146914285Y-54242857D01*
X146914285Y-54290476D01*
X146961904Y-54385714D01*
X147009523Y-54433333D01*
X147104761Y-54480952D01*
X147295238Y-54480952D01*
X147390476Y-54528571D01*
X147438095Y-54576190D01*
X147485714Y-54671429D01*
X147485714Y-54861905D01*
X147438095Y-54957143D01*
X147390476Y-55004762D01*
X147295238Y-55052381D01*
X147104761Y-55052381D01*
X147009523Y-55004762D01*
X146961904Y-54957143D01*
X146914285Y-54861905D01*
X146914285Y-54671429D01*
X146961904Y-54576190D01*
X147009523Y-54528571D01*
X147104761Y-54480952D01*
X151242857Y-51157143D02*
X151290476Y-51204762D01*
X151433333Y-51252381D01*
X151528571Y-51252381D01*
X151671429Y-51204762D01*
X151766667Y-51109524D01*
X151814286Y-51014286D01*
X151861905Y-50823810D01*
X151861905Y-50680952D01*
X151814286Y-50490476D01*
X151766667Y-50395238D01*
X151671429Y-50300000D01*
X151528571Y-50252381D01*
X151433333Y-50252381D01*
X151290476Y-50300000D01*
X151242857Y-50347619D01*
X150290476Y-51252381D02*
X150861905Y-51252381D01*
X150576191Y-51252381D02*
X150576191Y-50252381D01*
X150671429Y-50395238D01*
X150766667Y-50490476D01*
X150861905Y-50538095D01*
X149671429Y-50252381D02*
X149576190Y-50252381D01*
X149480952Y-50300000D01*
X149433333Y-50347619D01*
X149385714Y-50442857D01*
X149338095Y-50633333D01*
X149338095Y-50871429D01*
X149385714Y-51061905D01*
X149433333Y-51157143D01*
X149480952Y-51204762D01*
X149576190Y-51252381D01*
X149671429Y-51252381D01*
X149766667Y-51204762D01*
X149814286Y-51157143D01*
X149861905Y-51061905D01*
X149909524Y-50871429D01*
X149909524Y-50633333D01*
X149861905Y-50442857D01*
X149814286Y-50347619D01*
X149766667Y-50300000D01*
X149671429Y-50252381D01*
X177438095Y-67552381D02*
X177438095Y-66552381D01*
X177200000Y-66552381D01*
X177057142Y-66600000D01*
X176961904Y-66695238D01*
X176914285Y-66790476D01*
X176866666Y-66980952D01*
X176866666Y-67123810D01*
X176914285Y-67314286D01*
X176961904Y-67409524D01*
X177057142Y-67504762D01*
X177200000Y-67552381D01*
X177438095Y-67552381D01*
X175914285Y-67552381D02*
X176485714Y-67552381D01*
X176200000Y-67552381D02*
X176200000Y-66552381D01*
X176295238Y-66695238D01*
X176390476Y-66790476D01*
X176485714Y-66838095D01*
X146852381Y-49133334D02*
X146376190Y-48800000D01*
X146852381Y-48561905D02*
X145852381Y-48561905D01*
X145852381Y-48942858D01*
X145900000Y-49038096D01*
X145947619Y-49085715D01*
X146042857Y-49133334D01*
X146185714Y-49133334D01*
X146280952Y-49085715D01*
X146328571Y-49038096D01*
X146376190Y-48942858D01*
X146376190Y-48561905D01*
X145852381Y-50038096D02*
X145852381Y-49561905D01*
X146328571Y-49514286D01*
X146280952Y-49561905D01*
X146233333Y-49657143D01*
X146233333Y-49895239D01*
X146280952Y-49990477D01*
X146328571Y-50038096D01*
X146423810Y-50085715D01*
X146661905Y-50085715D01*
X146757143Y-50038096D01*
X146804762Y-49990477D01*
X146852381Y-49895239D01*
X146852381Y-49657143D01*
X146804762Y-49561905D01*
X146757143Y-49514286D01*
X145152381Y-51657143D02*
X144676190Y-51323809D01*
X145152381Y-51085714D02*
X144152381Y-51085714D01*
X144152381Y-51466667D01*
X144200000Y-51561905D01*
X144247619Y-51609524D01*
X144342857Y-51657143D01*
X144485714Y-51657143D01*
X144580952Y-51609524D01*
X144628571Y-51561905D01*
X144676190Y-51466667D01*
X144676190Y-51085714D01*
X145152381Y-52609524D02*
X145152381Y-52038095D01*
X145152381Y-52323809D02*
X144152381Y-52323809D01*
X144295238Y-52228571D01*
X144390476Y-52133333D01*
X144438095Y-52038095D01*
X144152381Y-52942857D02*
X144152381Y-53609524D01*
X145152381Y-53180952D01*
X170338095Y-84732381D02*
X170338095Y-83732381D01*
X169957142Y-83732381D01*
X169861904Y-83780000D01*
X169814285Y-83827619D01*
X169766666Y-83922857D01*
X169766666Y-84065714D01*
X169814285Y-84160952D01*
X169861904Y-84208571D01*
X169957142Y-84256190D01*
X170338095Y-84256190D01*
X168814285Y-84732381D02*
X169385714Y-84732381D01*
X169100000Y-84732381D02*
X169100000Y-83732381D01*
X169195238Y-83875238D01*
X169290476Y-83970476D01*
X169385714Y-84018095D01*
X168121905Y-45852381D02*
X168121905Y-46661905D01*
X168074286Y-46757143D01*
X168026667Y-46804762D01*
X167931429Y-46852381D01*
X167740952Y-46852381D01*
X167645714Y-46804762D01*
X167598095Y-46757143D01*
X167550476Y-46661905D01*
X167550476Y-45852381D01*
X167169524Y-45852381D02*
X166550476Y-45852381D01*
X166883810Y-46233333D01*
X166740952Y-46233333D01*
X166645714Y-46280952D01*
X166598095Y-46328571D01*
X166550476Y-46423810D01*
X166550476Y-46661905D01*
X166598095Y-46757143D01*
X166645714Y-46804762D01*
X166740952Y-46852381D01*
X167026667Y-46852381D01*
X167121905Y-46804762D01*
X167169524Y-46757143D01*
X127438095Y-67552381D02*
X127438095Y-66552381D01*
X127200000Y-66552381D01*
X127057142Y-66600000D01*
X126961904Y-66695238D01*
X126914285Y-66790476D01*
X126866666Y-66980952D01*
X126866666Y-67123810D01*
X126914285Y-67314286D01*
X126961904Y-67409524D01*
X127057142Y-67504762D01*
X127200000Y-67552381D01*
X127438095Y-67552381D01*
X125914285Y-67552381D02*
X126485714Y-67552381D01*
X126200000Y-67552381D02*
X126200000Y-66552381D01*
X126295238Y-66695238D01*
X126390476Y-66790476D01*
X126485714Y-66838095D01*
X97866666Y-54957143D02*
X97914285Y-55004762D01*
X98057142Y-55052381D01*
X98152380Y-55052381D01*
X98295238Y-55004762D01*
X98390476Y-54909524D01*
X98438095Y-54814286D01*
X98485714Y-54623810D01*
X98485714Y-54480952D01*
X98438095Y-54290476D01*
X98390476Y-54195238D01*
X98295238Y-54100000D01*
X98152380Y-54052381D01*
X98057142Y-54052381D01*
X97914285Y-54100000D01*
X97866666Y-54147619D01*
X97295238Y-54480952D02*
X97390476Y-54433333D01*
X97438095Y-54385714D01*
X97485714Y-54290476D01*
X97485714Y-54242857D01*
X97438095Y-54147619D01*
X97390476Y-54100000D01*
X97295238Y-54052381D01*
X97104761Y-54052381D01*
X97009523Y-54100000D01*
X96961904Y-54147619D01*
X96914285Y-54242857D01*
X96914285Y-54290476D01*
X96961904Y-54385714D01*
X97009523Y-54433333D01*
X97104761Y-54480952D01*
X97295238Y-54480952D01*
X97390476Y-54528571D01*
X97438095Y-54576190D01*
X97485714Y-54671429D01*
X97485714Y-54861905D01*
X97438095Y-54957143D01*
X97390476Y-55004762D01*
X97295238Y-55052381D01*
X97104761Y-55052381D01*
X97009523Y-55004762D01*
X96961904Y-54957143D01*
X96914285Y-54861905D01*
X96914285Y-54671429D01*
X96961904Y-54576190D01*
X97009523Y-54528571D01*
X97104761Y-54480952D01*
X137016666Y-49357143D02*
X137064285Y-49404762D01*
X137207142Y-49452381D01*
X137302380Y-49452381D01*
X137445238Y-49404762D01*
X137540476Y-49309524D01*
X137588095Y-49214286D01*
X137635714Y-49023810D01*
X137635714Y-48880952D01*
X137588095Y-48690476D01*
X137540476Y-48595238D01*
X137445238Y-48500000D01*
X137302380Y-48452381D01*
X137207142Y-48452381D01*
X137064285Y-48500000D01*
X137016666Y-48547619D01*
X136540476Y-49452381D02*
X136350000Y-49452381D01*
X136254761Y-49404762D01*
X136207142Y-49357143D01*
X136111904Y-49214286D01*
X136064285Y-49023810D01*
X136064285Y-48642857D01*
X136111904Y-48547619D01*
X136159523Y-48500000D01*
X136254761Y-48452381D01*
X136445238Y-48452381D01*
X136540476Y-48500000D01*
X136588095Y-48547619D01*
X136635714Y-48642857D01*
X136635714Y-48880952D01*
X136588095Y-48976190D01*
X136540476Y-49023810D01*
X136445238Y-49071429D01*
X136254761Y-49071429D01*
X136159523Y-49023810D01*
X136111904Y-48976190D01*
X136064285Y-48880952D01*
X101242857Y-51157143D02*
X101290476Y-51204762D01*
X101433333Y-51252381D01*
X101528571Y-51252381D01*
X101671429Y-51204762D01*
X101766667Y-51109524D01*
X101814286Y-51014286D01*
X101861905Y-50823810D01*
X101861905Y-50680952D01*
X101814286Y-50490476D01*
X101766667Y-50395238D01*
X101671429Y-50300000D01*
X101528571Y-50252381D01*
X101433333Y-50252381D01*
X101290476Y-50300000D01*
X101242857Y-50347619D01*
X100290476Y-51252381D02*
X100861905Y-51252381D01*
X100576191Y-51252381D02*
X100576191Y-50252381D01*
X100671429Y-50395238D01*
X100766667Y-50490476D01*
X100861905Y-50538095D01*
X99671429Y-50252381D02*
X99576190Y-50252381D01*
X99480952Y-50300000D01*
X99433333Y-50347619D01*
X99385714Y-50442857D01*
X99338095Y-50633333D01*
X99338095Y-50871429D01*
X99385714Y-51061905D01*
X99433333Y-51157143D01*
X99480952Y-51204762D01*
X99576190Y-51252381D01*
X99671429Y-51252381D01*
X99766667Y-51204762D01*
X99814286Y-51157143D01*
X99861905Y-51061905D01*
X99909524Y-50871429D01*
X99909524Y-50633333D01*
X99861905Y-50442857D01*
X99814286Y-50347619D01*
X99766667Y-50300000D01*
X99671429Y-50252381D01*
X96852381Y-49133334D02*
X96376190Y-48800000D01*
X96852381Y-48561905D02*
X95852381Y-48561905D01*
X95852381Y-48942858D01*
X95900000Y-49038096D01*
X95947619Y-49085715D01*
X96042857Y-49133334D01*
X96185714Y-49133334D01*
X96280952Y-49085715D01*
X96328571Y-49038096D01*
X96376190Y-48942858D01*
X96376190Y-48561905D01*
X95852381Y-50038096D02*
X95852381Y-49561905D01*
X96328571Y-49514286D01*
X96280952Y-49561905D01*
X96233333Y-49657143D01*
X96233333Y-49895239D01*
X96280952Y-49990477D01*
X96328571Y-50038096D01*
X96423810Y-50085715D01*
X96661905Y-50085715D01*
X96757143Y-50038096D01*
X96804762Y-49990477D01*
X96852381Y-49895239D01*
X96852381Y-49657143D01*
X96804762Y-49561905D01*
X96757143Y-49514286D01*
X95152381Y-51657143D02*
X94676190Y-51323809D01*
X95152381Y-51085714D02*
X94152381Y-51085714D01*
X94152381Y-51466667D01*
X94200000Y-51561905D01*
X94247619Y-51609524D01*
X94342857Y-51657143D01*
X94485714Y-51657143D01*
X94580952Y-51609524D01*
X94628571Y-51561905D01*
X94676190Y-51466667D01*
X94676190Y-51085714D01*
X95152381Y-52609524D02*
X95152381Y-52038095D01*
X95152381Y-52323809D02*
X94152381Y-52323809D01*
X94295238Y-52228571D01*
X94390476Y-52133333D01*
X94438095Y-52038095D01*
X94152381Y-52942857D02*
X94152381Y-53609524D01*
X95152381Y-53180952D01*
X120338095Y-84732381D02*
X120338095Y-83732381D01*
X119957142Y-83732381D01*
X119861904Y-83780000D01*
X119814285Y-83827619D01*
X119766666Y-83922857D01*
X119766666Y-84065714D01*
X119814285Y-84160952D01*
X119861904Y-84208571D01*
X119957142Y-84256190D01*
X120338095Y-84256190D01*
X118814285Y-84732381D02*
X119385714Y-84732381D01*
X119100000Y-84732381D02*
X119100000Y-83732381D01*
X119195238Y-83875238D01*
X119290476Y-83970476D01*
X119385714Y-84018095D01*
X118121905Y-45852381D02*
X118121905Y-46661905D01*
X118074286Y-46757143D01*
X118026667Y-46804762D01*
X117931429Y-46852381D01*
X117740952Y-46852381D01*
X117645714Y-46804762D01*
X117598095Y-46757143D01*
X117550476Y-46661905D01*
X117550476Y-45852381D01*
X117169524Y-45852381D02*
X116550476Y-45852381D01*
X116883810Y-46233333D01*
X116740952Y-46233333D01*
X116645714Y-46280952D01*
X116598095Y-46328571D01*
X116550476Y-46423810D01*
X116550476Y-46661905D01*
X116598095Y-46757143D01*
X116645714Y-46804762D01*
X116740952Y-46852381D01*
X117026667Y-46852381D01*
X117121905Y-46804762D01*
X117169524Y-46757143D01*
M02*
