G04 #@! TF.FileFunction,Copper,L1,Top,Signal*
%FSLAX46Y46*%
G04 Gerber Fmt 4.6, Leading zero omitted, Abs format (unit mm)*
G04 Created by KiCad (PCBNEW 4.0.4+dfsg1-stable) date Sun Feb 12 12:23:04 2017*
%MOMM*%
%LPD*%
G01*
G04 APERTURE LIST*
%ADD10C,0.100000*%
%ADD11C,2.000000*%
%ADD12C,1.300000*%
%ADD13R,1.000000X0.600000*%
%ADD14R,0.900000X0.500000*%
%ADD15R,0.600000X0.400000*%
%ADD16R,1.500000X5.000000*%
%ADD17R,1.600000X1.400000*%
%ADD18R,1.300000X0.700000*%
%ADD19R,0.700000X1.300000*%
%ADD20R,1.500000X0.600000*%
%ADD21R,0.500000X0.900000*%
%ADD22R,0.400000X1.000000*%
%ADD23R,2.000000X2.000000*%
%ADD24R,0.500000X1.200000*%
%ADD25R,1.200000X0.500000*%
%ADD26R,2.032000X2.032000*%
%ADD27O,2.032000X2.032000*%
%ADD28R,3.200000X1.200000*%
%ADD29R,1.000000X0.350000*%
%ADD30C,1.000000*%
%ADD31C,0.500000*%
%ADD32C,0.300000*%
%ADD33C,0.400000*%
%ADD34C,0.200000*%
G04 APERTURE END LIST*
D10*
X91000000Y-40000000D02*
X191000000Y-40000000D01*
X91000000Y-90000000D02*
X191000000Y-90000000D01*
X141000000Y-40000000D02*
X141000000Y-140000000D01*
X91000000Y-140000000D02*
X191000000Y-140000000D01*
X91000000Y-40000000D02*
X91000000Y-140000000D01*
X191000000Y-40000000D02*
X191000000Y-140000000D01*
D11*
X119900000Y-102400000D03*
X114820000Y-102400000D03*
X117360000Y-104940000D03*
D12*
X105860000Y-111150000D03*
X105860000Y-93650000D03*
X128860000Y-93650000D03*
X128860000Y-111150000D03*
D13*
X134050000Y-100850000D03*
X134050000Y-98950000D03*
X131350000Y-99900000D03*
D14*
X137200000Y-100600000D03*
X137200000Y-99100000D03*
D15*
X138200000Y-97900000D03*
X138200000Y-96900000D03*
X138200000Y-95900000D03*
X135500000Y-95900000D03*
X135500000Y-96900000D03*
X135500000Y-97900000D03*
D16*
X136850000Y-95600000D03*
D14*
X131600000Y-97400000D03*
X131600000Y-95900000D03*
D17*
X139000000Y-106950000D03*
X139000000Y-102450000D03*
X130600000Y-106950000D03*
X130600000Y-102450000D03*
D18*
X104100000Y-103750000D03*
X104100000Y-105650000D03*
D19*
X106300000Y-99950000D03*
X104400000Y-99950000D03*
X102650000Y-95600000D03*
X104550000Y-95600000D03*
D20*
X100050000Y-106260000D03*
X100050000Y-104990000D03*
X100050000Y-103720000D03*
X100050000Y-102450000D03*
X100050000Y-101180000D03*
X100050000Y-99910000D03*
X100050000Y-98640000D03*
X94650000Y-98640000D03*
X94650000Y-99910000D03*
X94650000Y-101180000D03*
X94650000Y-102450000D03*
X94650000Y-103720000D03*
X94650000Y-104990000D03*
X94650000Y-106260000D03*
D21*
X103950000Y-102200000D03*
X105450000Y-102200000D03*
X102850000Y-97450000D03*
X104350000Y-97450000D03*
D11*
X96330000Y-94450000D03*
X98870000Y-94450000D03*
D21*
X125150000Y-101100000D03*
X126650000Y-101100000D03*
X126650000Y-102900000D03*
X125150000Y-102900000D03*
D14*
X127600000Y-108450000D03*
X127600000Y-106950000D03*
D18*
X130400000Y-105650000D03*
X130400000Y-103750000D03*
D13*
X129650000Y-99350000D03*
X129650000Y-97450000D03*
X126950000Y-98400000D03*
D14*
X114200000Y-108650000D03*
X114200000Y-107150000D03*
D21*
X113750000Y-105000000D03*
X115250000Y-105000000D03*
D18*
X116100000Y-109150000D03*
X116100000Y-107250000D03*
D13*
X109150000Y-106750000D03*
X109150000Y-108650000D03*
X111850000Y-107700000D03*
D21*
X110750000Y-105000000D03*
X112250000Y-105000000D03*
D18*
X118100000Y-109150000D03*
X118100000Y-107250000D03*
D19*
X97350000Y-114500000D03*
X95450000Y-114500000D03*
X96650000Y-112400000D03*
X98550000Y-112400000D03*
D14*
X95800000Y-118150000D03*
X95800000Y-116650000D03*
D19*
X98750000Y-114500000D03*
X100650000Y-114500000D03*
D22*
X97350000Y-118300000D03*
X98000000Y-118300000D03*
X98650000Y-118300000D03*
X98650000Y-116100000D03*
X97350000Y-116100000D03*
D17*
X139200000Y-120850000D03*
X139200000Y-116350000D03*
X130800000Y-120850000D03*
X130800000Y-116350000D03*
D23*
X129200000Y-135180000D03*
D11*
X126660000Y-135180000D03*
X129200000Y-132640000D03*
X126660000Y-132640000D03*
X129200000Y-130100000D03*
X126660000Y-130100000D03*
X129200000Y-127560000D03*
X126660000Y-127560000D03*
D10*
G36*
X113978858Y-121659619D02*
X113059619Y-122578858D01*
X112564644Y-122083883D01*
X113483883Y-121164644D01*
X113978858Y-121659619D01*
X113978858Y-121659619D01*
G37*
G36*
X112635356Y-120316117D02*
X111716117Y-121235356D01*
X111221142Y-120740381D01*
X112140381Y-119821142D01*
X112635356Y-120316117D01*
X112635356Y-120316117D01*
G37*
D24*
X120000000Y-112350000D03*
X119200000Y-112350000D03*
X118400000Y-112350000D03*
X117600000Y-112350000D03*
X116800000Y-112350000D03*
X116000000Y-112350000D03*
X115200000Y-112350000D03*
X114400000Y-112350000D03*
D25*
X112950000Y-113800000D03*
X112950000Y-114600000D03*
X112950000Y-115400000D03*
X112950000Y-116200000D03*
X112950000Y-117000000D03*
X112950000Y-117800000D03*
X112950000Y-118600000D03*
X112950000Y-119400000D03*
D24*
X114400000Y-120850000D03*
X115200000Y-120850000D03*
X116000000Y-120850000D03*
X116800000Y-120850000D03*
X117600000Y-120850000D03*
X118400000Y-120850000D03*
X119200000Y-120850000D03*
X120000000Y-120850000D03*
D25*
X121450000Y-119400000D03*
X121450000Y-118600000D03*
X121450000Y-117800000D03*
X121450000Y-117000000D03*
X121450000Y-116200000D03*
X121450000Y-115400000D03*
X121450000Y-114600000D03*
X121450000Y-113800000D03*
D10*
G36*
X112578858Y-123059619D02*
X111659619Y-123978858D01*
X111164644Y-123483883D01*
X112083883Y-122564644D01*
X112578858Y-123059619D01*
X112578858Y-123059619D01*
G37*
G36*
X111235356Y-121716117D02*
X110316117Y-122635356D01*
X109821142Y-122140381D01*
X110740381Y-121221142D01*
X111235356Y-121716117D01*
X111235356Y-121716117D01*
G37*
G36*
X120521142Y-111440381D02*
X121440381Y-110521142D01*
X121935356Y-111016117D01*
X121016117Y-111935356D01*
X120521142Y-111440381D01*
X120521142Y-111440381D01*
G37*
G36*
X121864644Y-112783883D02*
X122783883Y-111864644D01*
X123278858Y-112359619D01*
X122359619Y-113278858D01*
X121864644Y-112783883D01*
X121864644Y-112783883D01*
G37*
D19*
X120550000Y-126700000D03*
X118650000Y-126700000D03*
D26*
X134660000Y-137100000D03*
D27*
X137200000Y-137100000D03*
D21*
X98950000Y-108000000D03*
X100450000Y-108000000D03*
D19*
X102050000Y-109400000D03*
X103950000Y-109400000D03*
D21*
X96150000Y-108000000D03*
X97650000Y-108000000D03*
X102350000Y-107600000D03*
X103850000Y-107600000D03*
X96150000Y-109700000D03*
X97650000Y-109700000D03*
X99250000Y-109700000D03*
X100750000Y-109700000D03*
D13*
X124350000Y-95850000D03*
X124350000Y-93950000D03*
X121650000Y-94900000D03*
D19*
X122150000Y-92500000D03*
X120250000Y-92500000D03*
X117050000Y-92500000D03*
X118950000Y-92500000D03*
D28*
X115000000Y-96940000D03*
X115000000Y-94860000D03*
D19*
X118250000Y-100600000D03*
X116350000Y-100600000D03*
D29*
X119900000Y-95550000D03*
X119900000Y-94900000D03*
X119900000Y-94250000D03*
X117700000Y-94250000D03*
X117700000Y-94900000D03*
X117700000Y-95550000D03*
D14*
X126000000Y-95650000D03*
X126000000Y-94150000D03*
D11*
X169900000Y-102400000D03*
X164820000Y-102400000D03*
X167360000Y-104940000D03*
D12*
X155860000Y-111150000D03*
X155860000Y-93650000D03*
X178860000Y-93650000D03*
X178860000Y-111150000D03*
D13*
X184050000Y-100850000D03*
X184050000Y-98950000D03*
X181350000Y-99900000D03*
D14*
X187200000Y-100600000D03*
X187200000Y-99100000D03*
D15*
X188200000Y-97900000D03*
X188200000Y-96900000D03*
X188200000Y-95900000D03*
X185500000Y-95900000D03*
X185500000Y-96900000D03*
X185500000Y-97900000D03*
D16*
X186850000Y-95600000D03*
D14*
X181600000Y-97400000D03*
X181600000Y-95900000D03*
D17*
X189000000Y-106950000D03*
X189000000Y-102450000D03*
X180600000Y-106950000D03*
X180600000Y-102450000D03*
D18*
X154100000Y-103750000D03*
X154100000Y-105650000D03*
D19*
X156300000Y-99950000D03*
X154400000Y-99950000D03*
X152650000Y-95600000D03*
X154550000Y-95600000D03*
D20*
X150050000Y-106260000D03*
X150050000Y-104990000D03*
X150050000Y-103720000D03*
X150050000Y-102450000D03*
X150050000Y-101180000D03*
X150050000Y-99910000D03*
X150050000Y-98640000D03*
X144650000Y-98640000D03*
X144650000Y-99910000D03*
X144650000Y-101180000D03*
X144650000Y-102450000D03*
X144650000Y-103720000D03*
X144650000Y-104990000D03*
X144650000Y-106260000D03*
D21*
X153950000Y-102200000D03*
X155450000Y-102200000D03*
X152850000Y-97450000D03*
X154350000Y-97450000D03*
D11*
X146330000Y-94450000D03*
X148870000Y-94450000D03*
D21*
X175150000Y-101100000D03*
X176650000Y-101100000D03*
X176650000Y-102900000D03*
X175150000Y-102900000D03*
D14*
X177600000Y-108450000D03*
X177600000Y-106950000D03*
D18*
X180400000Y-105650000D03*
X180400000Y-103750000D03*
D13*
X179650000Y-99350000D03*
X179650000Y-97450000D03*
X176950000Y-98400000D03*
D14*
X164200000Y-108650000D03*
X164200000Y-107150000D03*
D21*
X163750000Y-105000000D03*
X165250000Y-105000000D03*
D18*
X166100000Y-109150000D03*
X166100000Y-107250000D03*
D13*
X159150000Y-106750000D03*
X159150000Y-108650000D03*
X161850000Y-107700000D03*
D21*
X160750000Y-105000000D03*
X162250000Y-105000000D03*
D18*
X168100000Y-109150000D03*
X168100000Y-107250000D03*
D19*
X147350000Y-114500000D03*
X145450000Y-114500000D03*
X146650000Y-112400000D03*
X148550000Y-112400000D03*
D14*
X145800000Y-118150000D03*
X145800000Y-116650000D03*
D19*
X148750000Y-114500000D03*
X150650000Y-114500000D03*
D22*
X147350000Y-118300000D03*
X148000000Y-118300000D03*
X148650000Y-118300000D03*
X148650000Y-116100000D03*
X147350000Y-116100000D03*
D17*
X189200000Y-120850000D03*
X189200000Y-116350000D03*
X180800000Y-120850000D03*
X180800000Y-116350000D03*
D23*
X179200000Y-135180000D03*
D11*
X176660000Y-135180000D03*
X179200000Y-132640000D03*
X176660000Y-132640000D03*
X179200000Y-130100000D03*
X176660000Y-130100000D03*
X179200000Y-127560000D03*
X176660000Y-127560000D03*
D10*
G36*
X163978858Y-121659619D02*
X163059619Y-122578858D01*
X162564644Y-122083883D01*
X163483883Y-121164644D01*
X163978858Y-121659619D01*
X163978858Y-121659619D01*
G37*
G36*
X162635356Y-120316117D02*
X161716117Y-121235356D01*
X161221142Y-120740381D01*
X162140381Y-119821142D01*
X162635356Y-120316117D01*
X162635356Y-120316117D01*
G37*
D24*
X170000000Y-112350000D03*
X169200000Y-112350000D03*
X168400000Y-112350000D03*
X167600000Y-112350000D03*
X166800000Y-112350000D03*
X166000000Y-112350000D03*
X165200000Y-112350000D03*
X164400000Y-112350000D03*
D25*
X162950000Y-113800000D03*
X162950000Y-114600000D03*
X162950000Y-115400000D03*
X162950000Y-116200000D03*
X162950000Y-117000000D03*
X162950000Y-117800000D03*
X162950000Y-118600000D03*
X162950000Y-119400000D03*
D24*
X164400000Y-120850000D03*
X165200000Y-120850000D03*
X166000000Y-120850000D03*
X166800000Y-120850000D03*
X167600000Y-120850000D03*
X168400000Y-120850000D03*
X169200000Y-120850000D03*
X170000000Y-120850000D03*
D25*
X171450000Y-119400000D03*
X171450000Y-118600000D03*
X171450000Y-117800000D03*
X171450000Y-117000000D03*
X171450000Y-116200000D03*
X171450000Y-115400000D03*
X171450000Y-114600000D03*
X171450000Y-113800000D03*
D10*
G36*
X162578858Y-123059619D02*
X161659619Y-123978858D01*
X161164644Y-123483883D01*
X162083883Y-122564644D01*
X162578858Y-123059619D01*
X162578858Y-123059619D01*
G37*
G36*
X161235356Y-121716117D02*
X160316117Y-122635356D01*
X159821142Y-122140381D01*
X160740381Y-121221142D01*
X161235356Y-121716117D01*
X161235356Y-121716117D01*
G37*
G36*
X170521142Y-111440381D02*
X171440381Y-110521142D01*
X171935356Y-111016117D01*
X171016117Y-111935356D01*
X170521142Y-111440381D01*
X170521142Y-111440381D01*
G37*
G36*
X171864644Y-112783883D02*
X172783883Y-111864644D01*
X173278858Y-112359619D01*
X172359619Y-113278858D01*
X171864644Y-112783883D01*
X171864644Y-112783883D01*
G37*
D19*
X170550000Y-126700000D03*
X168650000Y-126700000D03*
D26*
X184660000Y-137100000D03*
D27*
X187200000Y-137100000D03*
D21*
X148950000Y-108000000D03*
X150450000Y-108000000D03*
D19*
X152050000Y-109400000D03*
X153950000Y-109400000D03*
D21*
X146150000Y-108000000D03*
X147650000Y-108000000D03*
X152350000Y-107600000D03*
X153850000Y-107600000D03*
X146150000Y-109700000D03*
X147650000Y-109700000D03*
X149250000Y-109700000D03*
X150750000Y-109700000D03*
D13*
X174350000Y-95850000D03*
X174350000Y-93950000D03*
X171650000Y-94900000D03*
D19*
X172150000Y-92500000D03*
X170250000Y-92500000D03*
X167050000Y-92500000D03*
X168950000Y-92500000D03*
D28*
X165000000Y-96940000D03*
X165000000Y-94860000D03*
D19*
X168250000Y-100600000D03*
X166350000Y-100600000D03*
D29*
X169900000Y-95550000D03*
X169900000Y-94900000D03*
X169900000Y-94250000D03*
X167700000Y-94250000D03*
X167700000Y-94900000D03*
X167700000Y-95550000D03*
D14*
X176000000Y-95650000D03*
X176000000Y-94150000D03*
D11*
X169900000Y-52400000D03*
X164820000Y-52400000D03*
X167360000Y-54940000D03*
D12*
X155860000Y-61150000D03*
X155860000Y-43650000D03*
X178860000Y-43650000D03*
X178860000Y-61150000D03*
D13*
X184050000Y-50850000D03*
X184050000Y-48950000D03*
X181350000Y-49900000D03*
D14*
X187200000Y-50600000D03*
X187200000Y-49100000D03*
D15*
X188200000Y-47900000D03*
X188200000Y-46900000D03*
X188200000Y-45900000D03*
X185500000Y-45900000D03*
X185500000Y-46900000D03*
X185500000Y-47900000D03*
D16*
X186850000Y-45600000D03*
D14*
X181600000Y-47400000D03*
X181600000Y-45900000D03*
D17*
X189000000Y-56950000D03*
X189000000Y-52450000D03*
X180600000Y-56950000D03*
X180600000Y-52450000D03*
D18*
X154100000Y-53750000D03*
X154100000Y-55650000D03*
D19*
X156300000Y-49950000D03*
X154400000Y-49950000D03*
X152650000Y-45600000D03*
X154550000Y-45600000D03*
D20*
X150050000Y-56260000D03*
X150050000Y-54990000D03*
X150050000Y-53720000D03*
X150050000Y-52450000D03*
X150050000Y-51180000D03*
X150050000Y-49910000D03*
X150050000Y-48640000D03*
X144650000Y-48640000D03*
X144650000Y-49910000D03*
X144650000Y-51180000D03*
X144650000Y-52450000D03*
X144650000Y-53720000D03*
X144650000Y-54990000D03*
X144650000Y-56260000D03*
D21*
X153950000Y-52200000D03*
X155450000Y-52200000D03*
X152850000Y-47450000D03*
X154350000Y-47450000D03*
D11*
X146330000Y-44450000D03*
X148870000Y-44450000D03*
D21*
X175150000Y-51100000D03*
X176650000Y-51100000D03*
X176650000Y-52900000D03*
X175150000Y-52900000D03*
D14*
X177600000Y-58450000D03*
X177600000Y-56950000D03*
D18*
X180400000Y-55650000D03*
X180400000Y-53750000D03*
D13*
X179650000Y-49350000D03*
X179650000Y-47450000D03*
X176950000Y-48400000D03*
D14*
X164200000Y-58650000D03*
X164200000Y-57150000D03*
D21*
X163750000Y-55000000D03*
X165250000Y-55000000D03*
D18*
X166100000Y-59150000D03*
X166100000Y-57250000D03*
D13*
X159150000Y-56750000D03*
X159150000Y-58650000D03*
X161850000Y-57700000D03*
D21*
X160750000Y-55000000D03*
X162250000Y-55000000D03*
D18*
X168100000Y-59150000D03*
X168100000Y-57250000D03*
D19*
X147350000Y-64500000D03*
X145450000Y-64500000D03*
X146650000Y-62400000D03*
X148550000Y-62400000D03*
D14*
X145800000Y-68150000D03*
X145800000Y-66650000D03*
D19*
X148750000Y-64500000D03*
X150650000Y-64500000D03*
D22*
X147350000Y-68300000D03*
X148000000Y-68300000D03*
X148650000Y-68300000D03*
X148650000Y-66100000D03*
X147350000Y-66100000D03*
D17*
X189200000Y-70850000D03*
X189200000Y-66350000D03*
X180800000Y-70850000D03*
X180800000Y-66350000D03*
D23*
X179200000Y-85180000D03*
D11*
X176660000Y-85180000D03*
X179200000Y-82640000D03*
X176660000Y-82640000D03*
X179200000Y-80100000D03*
X176660000Y-80100000D03*
X179200000Y-77560000D03*
X176660000Y-77560000D03*
D10*
G36*
X163978858Y-71659619D02*
X163059619Y-72578858D01*
X162564644Y-72083883D01*
X163483883Y-71164644D01*
X163978858Y-71659619D01*
X163978858Y-71659619D01*
G37*
G36*
X162635356Y-70316117D02*
X161716117Y-71235356D01*
X161221142Y-70740381D01*
X162140381Y-69821142D01*
X162635356Y-70316117D01*
X162635356Y-70316117D01*
G37*
D24*
X170000000Y-62350000D03*
X169200000Y-62350000D03*
X168400000Y-62350000D03*
X167600000Y-62350000D03*
X166800000Y-62350000D03*
X166000000Y-62350000D03*
X165200000Y-62350000D03*
X164400000Y-62350000D03*
D25*
X162950000Y-63800000D03*
X162950000Y-64600000D03*
X162950000Y-65400000D03*
X162950000Y-66200000D03*
X162950000Y-67000000D03*
X162950000Y-67800000D03*
X162950000Y-68600000D03*
X162950000Y-69400000D03*
D24*
X164400000Y-70850000D03*
X165200000Y-70850000D03*
X166000000Y-70850000D03*
X166800000Y-70850000D03*
X167600000Y-70850000D03*
X168400000Y-70850000D03*
X169200000Y-70850000D03*
X170000000Y-70850000D03*
D25*
X171450000Y-69400000D03*
X171450000Y-68600000D03*
X171450000Y-67800000D03*
X171450000Y-67000000D03*
X171450000Y-66200000D03*
X171450000Y-65400000D03*
X171450000Y-64600000D03*
X171450000Y-63800000D03*
D10*
G36*
X162578858Y-73059619D02*
X161659619Y-73978858D01*
X161164644Y-73483883D01*
X162083883Y-72564644D01*
X162578858Y-73059619D01*
X162578858Y-73059619D01*
G37*
G36*
X161235356Y-71716117D02*
X160316117Y-72635356D01*
X159821142Y-72140381D01*
X160740381Y-71221142D01*
X161235356Y-71716117D01*
X161235356Y-71716117D01*
G37*
G36*
X170521142Y-61440381D02*
X171440381Y-60521142D01*
X171935356Y-61016117D01*
X171016117Y-61935356D01*
X170521142Y-61440381D01*
X170521142Y-61440381D01*
G37*
G36*
X171864644Y-62783883D02*
X172783883Y-61864644D01*
X173278858Y-62359619D01*
X172359619Y-63278858D01*
X171864644Y-62783883D01*
X171864644Y-62783883D01*
G37*
D19*
X170550000Y-76700000D03*
X168650000Y-76700000D03*
D26*
X184660000Y-87100000D03*
D27*
X187200000Y-87100000D03*
D21*
X148950000Y-58000000D03*
X150450000Y-58000000D03*
D19*
X152050000Y-59400000D03*
X153950000Y-59400000D03*
D21*
X146150000Y-58000000D03*
X147650000Y-58000000D03*
X152350000Y-57600000D03*
X153850000Y-57600000D03*
X146150000Y-59700000D03*
X147650000Y-59700000D03*
X149250000Y-59700000D03*
X150750000Y-59700000D03*
D13*
X174350000Y-45850000D03*
X174350000Y-43950000D03*
X171650000Y-44900000D03*
D19*
X172150000Y-42500000D03*
X170250000Y-42500000D03*
X167050000Y-42500000D03*
X168950000Y-42500000D03*
D28*
X165000000Y-46940000D03*
X165000000Y-44860000D03*
D19*
X168250000Y-50600000D03*
X166350000Y-50600000D03*
D29*
X169900000Y-45550000D03*
X169900000Y-44900000D03*
X169900000Y-44250000D03*
X167700000Y-44250000D03*
X167700000Y-44900000D03*
X167700000Y-45550000D03*
D14*
X176000000Y-45650000D03*
X176000000Y-44150000D03*
D24*
X120000000Y-62350000D03*
X119200000Y-62350000D03*
X118400000Y-62350000D03*
X117600000Y-62350000D03*
X116800000Y-62350000D03*
X116000000Y-62350000D03*
X115200000Y-62350000D03*
X114400000Y-62350000D03*
D25*
X112950000Y-63800000D03*
X112950000Y-64600000D03*
X112950000Y-65400000D03*
X112950000Y-66200000D03*
X112950000Y-67000000D03*
X112950000Y-67800000D03*
X112950000Y-68600000D03*
X112950000Y-69400000D03*
D24*
X114400000Y-70850000D03*
X115200000Y-70850000D03*
X116000000Y-70850000D03*
X116800000Y-70850000D03*
X117600000Y-70850000D03*
X118400000Y-70850000D03*
X119200000Y-70850000D03*
X120000000Y-70850000D03*
D25*
X121450000Y-69400000D03*
X121450000Y-68600000D03*
X121450000Y-67800000D03*
X121450000Y-67000000D03*
X121450000Y-66200000D03*
X121450000Y-65400000D03*
X121450000Y-64600000D03*
X121450000Y-63800000D03*
D19*
X120550000Y-76700000D03*
X118650000Y-76700000D03*
D21*
X126650000Y-52900000D03*
X125150000Y-52900000D03*
D11*
X119900000Y-52400000D03*
X114820000Y-52400000D03*
X117360000Y-54940000D03*
D12*
X105860000Y-61150000D03*
X105860000Y-43650000D03*
X128860000Y-43650000D03*
X128860000Y-61150000D03*
D10*
G36*
X113978858Y-71659619D02*
X113059619Y-72578858D01*
X112564644Y-72083883D01*
X113483883Y-71164644D01*
X113978858Y-71659619D01*
X113978858Y-71659619D01*
G37*
G36*
X112635356Y-70316117D02*
X111716117Y-71235356D01*
X111221142Y-70740381D01*
X112140381Y-69821142D01*
X112635356Y-70316117D01*
X112635356Y-70316117D01*
G37*
G36*
X120521142Y-61440381D02*
X121440381Y-60521142D01*
X121935356Y-61016117D01*
X121016117Y-61935356D01*
X120521142Y-61440381D01*
X120521142Y-61440381D01*
G37*
G36*
X121864644Y-62783883D02*
X122783883Y-61864644D01*
X123278858Y-62359619D01*
X122359619Y-63278858D01*
X121864644Y-62783883D01*
X121864644Y-62783883D01*
G37*
G36*
X112578858Y-73059619D02*
X111659619Y-73978858D01*
X111164644Y-73483883D01*
X112083883Y-72564644D01*
X112578858Y-73059619D01*
X112578858Y-73059619D01*
G37*
G36*
X111235356Y-71716117D02*
X110316117Y-72635356D01*
X109821142Y-72140381D01*
X110740381Y-71221142D01*
X111235356Y-71716117D01*
X111235356Y-71716117D01*
G37*
D18*
X118100000Y-59150000D03*
X118100000Y-57250000D03*
X116100000Y-59150000D03*
X116100000Y-57250000D03*
X130400000Y-55650000D03*
X130400000Y-53750000D03*
D19*
X118250000Y-50600000D03*
X116350000Y-50600000D03*
X106300000Y-49950000D03*
X104400000Y-49950000D03*
X102650000Y-45600000D03*
X104550000Y-45600000D03*
X96650000Y-62400000D03*
X98550000Y-62400000D03*
D18*
X104100000Y-53750000D03*
X104100000Y-55650000D03*
D19*
X102050000Y-59400000D03*
X103950000Y-59400000D03*
X98750000Y-64500000D03*
X100650000Y-64500000D03*
X97350000Y-64500000D03*
X95450000Y-64500000D03*
X122150000Y-42500000D03*
X120250000Y-42500000D03*
X117050000Y-42500000D03*
X118950000Y-42500000D03*
D11*
X96330000Y-44450000D03*
X98870000Y-44450000D03*
D13*
X124350000Y-45850000D03*
X124350000Y-43950000D03*
X121650000Y-44900000D03*
D14*
X127600000Y-58450000D03*
X127600000Y-56950000D03*
D21*
X125150000Y-51100000D03*
X126650000Y-51100000D03*
X113750000Y-55000000D03*
X115250000Y-55000000D03*
X110750000Y-55000000D03*
X112250000Y-55000000D03*
X102850000Y-47450000D03*
X104350000Y-47450000D03*
X103950000Y-52200000D03*
X105450000Y-52200000D03*
X96150000Y-58000000D03*
X97650000Y-58000000D03*
X98950000Y-58000000D03*
X100450000Y-58000000D03*
X102350000Y-57600000D03*
X103850000Y-57600000D03*
D14*
X126000000Y-45650000D03*
X126000000Y-44150000D03*
X95800000Y-68150000D03*
X95800000Y-66650000D03*
D17*
X139000000Y-56950000D03*
X139000000Y-52450000D03*
X130600000Y-56950000D03*
X130600000Y-52450000D03*
D20*
X100050000Y-56260000D03*
X100050000Y-54990000D03*
X100050000Y-53720000D03*
X100050000Y-52450000D03*
X100050000Y-51180000D03*
X100050000Y-49910000D03*
X100050000Y-48640000D03*
X94650000Y-48640000D03*
X94650000Y-49910000D03*
X94650000Y-51180000D03*
X94650000Y-52450000D03*
X94650000Y-53720000D03*
X94650000Y-54990000D03*
X94650000Y-56260000D03*
D22*
X97350000Y-68300000D03*
X98000000Y-68300000D03*
X98650000Y-68300000D03*
X98650000Y-66100000D03*
X97350000Y-66100000D03*
D28*
X115000000Y-46940000D03*
X115000000Y-44860000D03*
D29*
X119900000Y-45550000D03*
X119900000Y-44900000D03*
X119900000Y-44250000D03*
X117700000Y-44250000D03*
X117700000Y-44900000D03*
X117700000Y-45550000D03*
D21*
X96150000Y-59700000D03*
X97650000Y-59700000D03*
X99250000Y-59700000D03*
X100750000Y-59700000D03*
D17*
X139200000Y-70850000D03*
X139200000Y-66350000D03*
X130800000Y-70850000D03*
X130800000Y-66350000D03*
D15*
X138200000Y-47900000D03*
X138200000Y-46900000D03*
X138200000Y-45900000D03*
X135500000Y-45900000D03*
X135500000Y-46900000D03*
X135500000Y-47900000D03*
D16*
X136850000Y-45600000D03*
D13*
X134050000Y-50850000D03*
X134050000Y-48950000D03*
X131350000Y-49900000D03*
X129650000Y-49350000D03*
X129650000Y-47450000D03*
X126950000Y-48400000D03*
D14*
X137200000Y-50600000D03*
X137200000Y-49100000D03*
X131600000Y-47400000D03*
X131600000Y-45900000D03*
D13*
X109150000Y-56750000D03*
X109150000Y-58650000D03*
X111850000Y-57700000D03*
D14*
X114200000Y-58650000D03*
X114200000Y-57150000D03*
D23*
X129200000Y-85180000D03*
D11*
X126660000Y-85180000D03*
X129200000Y-82640000D03*
X126660000Y-82640000D03*
X129200000Y-80100000D03*
X126660000Y-80100000D03*
X129200000Y-77560000D03*
X126660000Y-77560000D03*
D26*
X134660000Y-87100000D03*
D27*
X137200000Y-87100000D03*
D30*
X92850000Y-101700000D03*
X110500000Y-109500000D03*
X102600000Y-114700000D03*
X98000000Y-119600000D03*
X116000000Y-116000000D03*
X130850000Y-118450000D03*
X136350000Y-104950000D03*
X139000000Y-100900000D03*
X137100000Y-92400000D03*
X123350000Y-110950006D03*
X121800000Y-126700000D03*
X119000000Y-106100000D03*
X142850000Y-101700000D03*
X160500000Y-109500000D03*
X152600000Y-114700000D03*
X148000000Y-119600000D03*
X166000000Y-116000000D03*
X180850000Y-118450000D03*
X186350000Y-104950000D03*
X189000000Y-100900000D03*
X187100000Y-92400000D03*
X173350000Y-110950006D03*
X171800000Y-126700000D03*
X169000000Y-106100000D03*
X142850000Y-51700000D03*
X160500000Y-59500000D03*
X152600000Y-64700000D03*
X148000000Y-69600000D03*
X166000000Y-66000000D03*
X180850000Y-68450000D03*
X186350000Y-54950000D03*
X189000000Y-50900000D03*
X187100000Y-42400000D03*
X173350000Y-60950006D03*
X171800000Y-76700000D03*
X169000000Y-56100000D03*
X121800000Y-76700000D03*
X116000000Y-66000000D03*
X119000000Y-56100000D03*
X110500000Y-59500000D03*
X139000000Y-50900000D03*
X137100000Y-42400000D03*
X130850000Y-68450000D03*
X136350000Y-54950000D03*
X123350000Y-60950006D03*
X102600000Y-64700000D03*
X92850000Y-51700000D03*
X98000000Y-69600000D03*
X116400000Y-126660000D03*
X139300000Y-129100000D03*
X139350000Y-110200000D03*
X123104013Y-109200000D03*
X120350000Y-107200008D03*
X127600000Y-109700000D03*
X166400000Y-126660000D03*
X189300000Y-129100000D03*
X189350000Y-110200000D03*
X173104013Y-109200000D03*
X170350000Y-107200008D03*
X177600000Y-109700000D03*
X166400000Y-76660000D03*
X189300000Y-79100000D03*
X189350000Y-60200000D03*
X173104013Y-59200000D03*
X170350000Y-57200008D03*
X177600000Y-59700000D03*
X116400000Y-76660000D03*
X139300000Y-79100000D03*
X139350000Y-60200000D03*
X120350000Y-57200008D03*
X123104013Y-59200000D03*
X127600000Y-59700000D03*
X126700000Y-124900000D03*
X118599998Y-115700000D03*
X127850000Y-105450000D03*
X122100000Y-105700000D03*
X176700000Y-124900000D03*
X168599998Y-115700000D03*
X177850000Y-105450000D03*
X172100000Y-105700000D03*
X176700000Y-74900000D03*
X168599998Y-65700000D03*
X177850000Y-55450000D03*
X172100000Y-55700000D03*
X126700000Y-74900000D03*
X118599998Y-65700000D03*
X122100000Y-55700000D03*
X127850000Y-55450000D03*
X94850000Y-107699988D03*
X105100000Y-106700000D03*
X101850000Y-103200000D03*
X109350000Y-91700000D03*
X133700000Y-96800000D03*
X144850000Y-107699988D03*
X155100000Y-106700000D03*
X151850000Y-103200000D03*
X159350000Y-91700000D03*
X183700000Y-96800000D03*
X144850000Y-57699988D03*
X155100000Y-56700000D03*
X151850000Y-53200000D03*
X159350000Y-41700000D03*
X183700000Y-46800000D03*
X133700000Y-46800000D03*
X94850000Y-57699988D03*
X101850000Y-53200000D03*
X105100000Y-56700000D03*
X109350000Y-41700000D03*
X115600000Y-92700000D03*
X118350000Y-96950000D03*
X165600000Y-92700000D03*
X168350000Y-96950000D03*
X165600000Y-42700000D03*
X168350000Y-46950000D03*
X115600000Y-42700000D03*
X118350000Y-46950000D03*
X110600000Y-99950000D03*
X108100000Y-99950000D03*
X160600000Y-99950000D03*
X158100000Y-99950000D03*
X160600000Y-49950000D03*
X158100000Y-49950000D03*
X108100000Y-49950000D03*
X110600000Y-49950000D03*
X106600000Y-102200000D03*
X102600000Y-98700000D03*
X156600000Y-102200000D03*
X152600000Y-98700000D03*
X156600000Y-52200000D03*
X152600000Y-48700000D03*
X106600000Y-52200000D03*
X102600000Y-48700000D03*
X96100000Y-105200000D03*
X101600000Y-106700000D03*
X146100000Y-105200000D03*
X151600000Y-106700000D03*
X146100000Y-55200000D03*
X151600000Y-56700000D03*
X101600000Y-56700000D03*
X96100000Y-55200000D03*
X133500000Y-125100000D03*
X183500000Y-125100000D03*
X183500000Y-75100000D03*
X133500000Y-75100000D03*
X93100000Y-99610000D03*
X143100000Y-99610000D03*
X143100000Y-49610000D03*
X93100000Y-49610000D03*
X97850000Y-97449990D03*
X94600000Y-97200000D03*
X106600000Y-107450000D03*
X147850000Y-97449990D03*
X144600000Y-97200000D03*
X156600000Y-107450000D03*
X147850000Y-47449990D03*
X144600000Y-47200000D03*
X156600000Y-57450000D03*
X94600000Y-47200000D03*
X97850000Y-47449990D03*
X106600000Y-57450000D03*
X113200000Y-129600000D03*
X163200000Y-129600000D03*
X163200000Y-79600000D03*
X113200000Y-79600000D03*
X110300000Y-114395980D03*
X160300000Y-114395980D03*
X160300000Y-64395980D03*
X110300000Y-64395980D03*
X110700000Y-127500000D03*
X160700000Y-127500000D03*
X160700000Y-77500000D03*
X110700000Y-77500000D03*
X108500000Y-124900000D03*
X158500000Y-124900000D03*
X158500000Y-74900000D03*
X108500000Y-74900000D03*
X110400000Y-117300000D03*
X160400000Y-117300000D03*
X160400000Y-67300000D03*
X110400000Y-67300000D03*
X109600002Y-119700000D03*
X159600002Y-119700000D03*
X159600002Y-69700000D03*
X109600002Y-69700000D03*
X115000000Y-122600000D03*
X120014475Y-110558746D03*
X165000000Y-122600000D03*
X170014475Y-110558746D03*
X165000000Y-72600000D03*
X170014475Y-60558746D03*
X115000000Y-72600000D03*
X120014475Y-60558746D03*
X130300000Y-123100000D03*
X180300000Y-123100000D03*
X180300000Y-73100000D03*
X130300000Y-73100000D03*
X124754013Y-125000000D03*
X119200000Y-119200000D03*
X174754013Y-125000000D03*
X169200000Y-119200000D03*
X174754013Y-75000000D03*
X169200000Y-69200000D03*
X124754013Y-75000000D03*
X119200000Y-69200000D03*
X123200000Y-125000002D03*
X120900000Y-122000000D03*
X173200000Y-125000002D03*
X170900000Y-122000000D03*
X173200000Y-75000002D03*
X170900000Y-72000000D03*
X123200000Y-75000002D03*
X120900000Y-72000000D03*
X92850000Y-103450000D03*
X142850000Y-103450000D03*
X142850000Y-53450000D03*
X92850000Y-53450000D03*
X128300000Y-102900000D03*
X124800000Y-104400000D03*
X178300000Y-102900000D03*
X174800000Y-104400000D03*
X178300000Y-52900000D03*
X174800000Y-54400000D03*
X128300000Y-52900000D03*
X124800000Y-54400000D03*
X93100000Y-106450000D03*
X107900000Y-106800000D03*
X143100000Y-106450000D03*
X157900000Y-106800000D03*
X143100000Y-56450000D03*
X157900000Y-56800000D03*
X107900000Y-56800000D03*
X93100000Y-56450000D03*
D31*
X123350000Y-111793502D02*
X123350000Y-111657112D01*
X121450000Y-113693502D02*
X122571751Y-112571751D01*
X122571751Y-112571751D02*
X123350000Y-111793502D01*
X123350000Y-111657112D02*
X123350000Y-110950006D01*
X121150000Y-91300000D02*
X136000000Y-91300000D01*
X120250000Y-92200000D02*
X121150000Y-91300000D01*
D32*
X119900000Y-94250000D02*
X119900000Y-92850000D01*
D31*
X120250000Y-92500000D02*
X120250000Y-92200000D01*
D32*
X119900000Y-92850000D02*
X120250000Y-92500000D01*
D31*
X118950000Y-92500000D02*
X120250000Y-92500000D01*
X139000000Y-96900000D02*
X139700000Y-96200000D01*
X138200000Y-96900000D02*
X139000000Y-96900000D01*
X139700000Y-95000000D02*
X138800000Y-94100000D01*
X136850000Y-95600000D02*
X136850000Y-92650000D01*
X139700000Y-96200000D02*
X139700000Y-95000000D01*
X137000000Y-95350000D02*
X137100000Y-95250000D01*
X136850000Y-92650000D02*
X137100000Y-92400000D01*
X136000000Y-91300000D02*
X137100000Y-92400000D01*
X130800000Y-116350000D02*
X139200000Y-116350000D01*
X121450000Y-114600000D02*
X121450000Y-113800000D01*
X121450000Y-113800000D02*
X121450000Y-113693502D01*
X130800000Y-116350000D02*
X130800000Y-118400000D01*
X130800000Y-118400000D02*
X130850000Y-118450000D01*
X120550000Y-126700000D02*
X121800000Y-126700000D01*
X136400000Y-104950000D02*
X136350000Y-104950000D01*
X130600000Y-102450000D02*
X139000000Y-102450000D01*
X138900000Y-102450000D02*
X136400000Y-104950000D01*
X130400000Y-102650000D02*
X130600000Y-102450000D01*
X139000000Y-102450000D02*
X139000000Y-100900000D01*
X139000000Y-102450000D02*
X138900000Y-102450000D01*
X130400000Y-103750000D02*
X130400000Y-102650000D01*
X110528249Y-121928249D02*
X111928249Y-120528249D01*
X111928249Y-120528249D02*
X111928249Y-120421751D01*
X111928249Y-120421751D02*
X112950000Y-119400000D01*
X109150000Y-108650000D02*
X109650000Y-108650000D01*
X112950000Y-119400000D02*
X113807106Y-119400000D01*
X109650000Y-108650000D02*
X110500000Y-109500000D01*
X116000000Y-116707106D02*
X116000000Y-116000000D01*
X116000000Y-117207106D02*
X116000000Y-116707106D01*
X113807106Y-119400000D02*
X116000000Y-117207106D01*
X118100000Y-107250000D02*
X118300000Y-107250000D01*
X116100000Y-107250000D02*
X118100000Y-107250000D01*
X94300000Y-114800000D02*
X94300000Y-118257202D01*
X94600000Y-114500000D02*
X94300000Y-114800000D01*
X95450000Y-114500000D02*
X94600000Y-114500000D01*
X102400000Y-114500000D02*
X102600000Y-114700000D01*
X100650000Y-114500000D02*
X102400000Y-114500000D01*
X94300000Y-118257202D02*
X95642798Y-119600000D01*
D32*
X98000000Y-118300000D02*
X98000000Y-119600000D01*
D31*
X97292894Y-119600000D02*
X98000000Y-119600000D01*
X95642798Y-119600000D02*
X97292894Y-119600000D01*
X98550000Y-111900000D02*
X100750000Y-109700000D01*
X98550000Y-112400000D02*
X98550000Y-111900000D01*
X98550000Y-112400000D02*
X100650000Y-114500000D01*
X94650000Y-101180000D02*
X93370000Y-101180000D01*
X94650000Y-102450000D02*
X94650000Y-101180000D01*
X93370000Y-101180000D02*
X92850000Y-101700000D01*
X100450000Y-109400000D02*
X100750000Y-109700000D01*
X100450000Y-108000000D02*
X100450000Y-109400000D01*
X118100000Y-107250000D02*
X118100000Y-107000000D01*
X118100000Y-107000000D02*
X119000000Y-106100000D01*
X114820000Y-102130000D02*
X116350000Y-100600000D01*
X114820000Y-102400000D02*
X114820000Y-102130000D01*
X115250000Y-102830000D02*
X114820000Y-102400000D01*
X115250000Y-105000000D02*
X115250000Y-102830000D01*
X173350000Y-111793502D02*
X173350000Y-111657112D01*
X171450000Y-113693502D02*
X172571751Y-112571751D01*
X172571751Y-112571751D02*
X173350000Y-111793502D01*
X173350000Y-111657112D02*
X173350000Y-110950006D01*
X171150000Y-91300000D02*
X186000000Y-91300000D01*
X170250000Y-92200000D02*
X171150000Y-91300000D01*
D32*
X169900000Y-94250000D02*
X169900000Y-92850000D01*
D31*
X170250000Y-92500000D02*
X170250000Y-92200000D01*
D32*
X169900000Y-92850000D02*
X170250000Y-92500000D01*
D31*
X168950000Y-92500000D02*
X170250000Y-92500000D01*
X189000000Y-96900000D02*
X189700000Y-96200000D01*
X188200000Y-96900000D02*
X189000000Y-96900000D01*
X189700000Y-95000000D02*
X188800000Y-94100000D01*
X186850000Y-95600000D02*
X186850000Y-92650000D01*
X189700000Y-96200000D02*
X189700000Y-95000000D01*
X187000000Y-95350000D02*
X187100000Y-95250000D01*
X186850000Y-92650000D02*
X187100000Y-92400000D01*
X186000000Y-91300000D02*
X187100000Y-92400000D01*
X180800000Y-116350000D02*
X189200000Y-116350000D01*
X171450000Y-114600000D02*
X171450000Y-113800000D01*
X171450000Y-113800000D02*
X171450000Y-113693502D01*
X180800000Y-116350000D02*
X180800000Y-118400000D01*
X180800000Y-118400000D02*
X180850000Y-118450000D01*
X170550000Y-126700000D02*
X171800000Y-126700000D01*
X186400000Y-104950000D02*
X186350000Y-104950000D01*
X180600000Y-102450000D02*
X189000000Y-102450000D01*
X188900000Y-102450000D02*
X186400000Y-104950000D01*
X180400000Y-102650000D02*
X180600000Y-102450000D01*
X189000000Y-102450000D02*
X189000000Y-100900000D01*
X189000000Y-102450000D02*
X188900000Y-102450000D01*
X180400000Y-103750000D02*
X180400000Y-102650000D01*
X160528249Y-121928249D02*
X161928249Y-120528249D01*
X161928249Y-120528249D02*
X161928249Y-120421751D01*
X161928249Y-120421751D02*
X162950000Y-119400000D01*
X159150000Y-108650000D02*
X159650000Y-108650000D01*
X162950000Y-119400000D02*
X163807106Y-119400000D01*
X159650000Y-108650000D02*
X160500000Y-109500000D01*
X166000000Y-116707106D02*
X166000000Y-116000000D01*
X166000000Y-117207106D02*
X166000000Y-116707106D01*
X163807106Y-119400000D02*
X166000000Y-117207106D01*
X168100000Y-107250000D02*
X168300000Y-107250000D01*
X166100000Y-107250000D02*
X168100000Y-107250000D01*
X144300000Y-114800000D02*
X144300000Y-118257202D01*
X144600000Y-114500000D02*
X144300000Y-114800000D01*
X145450000Y-114500000D02*
X144600000Y-114500000D01*
X152400000Y-114500000D02*
X152600000Y-114700000D01*
X150650000Y-114500000D02*
X152400000Y-114500000D01*
X144300000Y-118257202D02*
X145642798Y-119600000D01*
D32*
X148000000Y-118300000D02*
X148000000Y-119600000D01*
D31*
X147292894Y-119600000D02*
X148000000Y-119600000D01*
X145642798Y-119600000D02*
X147292894Y-119600000D01*
X148550000Y-111900000D02*
X150750000Y-109700000D01*
X148550000Y-112400000D02*
X148550000Y-111900000D01*
X148550000Y-112400000D02*
X150650000Y-114500000D01*
X144650000Y-101180000D02*
X143370000Y-101180000D01*
X144650000Y-102450000D02*
X144650000Y-101180000D01*
X143370000Y-101180000D02*
X142850000Y-101700000D01*
X150450000Y-109400000D02*
X150750000Y-109700000D01*
X150450000Y-108000000D02*
X150450000Y-109400000D01*
X168100000Y-107250000D02*
X168100000Y-107000000D01*
X168100000Y-107000000D02*
X169000000Y-106100000D01*
X164820000Y-102130000D02*
X166350000Y-100600000D01*
X164820000Y-102400000D02*
X164820000Y-102130000D01*
X165250000Y-102830000D02*
X164820000Y-102400000D01*
X165250000Y-105000000D02*
X165250000Y-102830000D01*
X173350000Y-61793502D02*
X173350000Y-61657112D01*
X171450000Y-63693502D02*
X172571751Y-62571751D01*
X172571751Y-62571751D02*
X173350000Y-61793502D01*
X173350000Y-61657112D02*
X173350000Y-60950006D01*
X171150000Y-41300000D02*
X186000000Y-41300000D01*
X170250000Y-42200000D02*
X171150000Y-41300000D01*
D32*
X169900000Y-44250000D02*
X169900000Y-42850000D01*
D31*
X170250000Y-42500000D02*
X170250000Y-42200000D01*
D32*
X169900000Y-42850000D02*
X170250000Y-42500000D01*
D31*
X168950000Y-42500000D02*
X170250000Y-42500000D01*
X189000000Y-46900000D02*
X189700000Y-46200000D01*
X188200000Y-46900000D02*
X189000000Y-46900000D01*
X189700000Y-45000000D02*
X188800000Y-44100000D01*
X186850000Y-45600000D02*
X186850000Y-42650000D01*
X189700000Y-46200000D02*
X189700000Y-45000000D01*
X187000000Y-45350000D02*
X187100000Y-45250000D01*
X186850000Y-42650000D02*
X187100000Y-42400000D01*
X186000000Y-41300000D02*
X187100000Y-42400000D01*
X180800000Y-66350000D02*
X189200000Y-66350000D01*
X171450000Y-64600000D02*
X171450000Y-63800000D01*
X171450000Y-63800000D02*
X171450000Y-63693502D01*
X180800000Y-66350000D02*
X180800000Y-68400000D01*
X180800000Y-68400000D02*
X180850000Y-68450000D01*
X170550000Y-76700000D02*
X171800000Y-76700000D01*
X186400000Y-54950000D02*
X186350000Y-54950000D01*
X180600000Y-52450000D02*
X189000000Y-52450000D01*
X188900000Y-52450000D02*
X186400000Y-54950000D01*
X180400000Y-52650000D02*
X180600000Y-52450000D01*
X189000000Y-52450000D02*
X189000000Y-50900000D01*
X189000000Y-52450000D02*
X188900000Y-52450000D01*
X180400000Y-53750000D02*
X180400000Y-52650000D01*
X160528249Y-71928249D02*
X161928249Y-70528249D01*
X161928249Y-70528249D02*
X161928249Y-70421751D01*
X161928249Y-70421751D02*
X162950000Y-69400000D01*
X159150000Y-58650000D02*
X159650000Y-58650000D01*
X162950000Y-69400000D02*
X163807106Y-69400000D01*
X159650000Y-58650000D02*
X160500000Y-59500000D01*
X166000000Y-66707106D02*
X166000000Y-66000000D01*
X166000000Y-67207106D02*
X166000000Y-66707106D01*
X163807106Y-69400000D02*
X166000000Y-67207106D01*
X168100000Y-57250000D02*
X168300000Y-57250000D01*
X166100000Y-57250000D02*
X168100000Y-57250000D01*
X144300000Y-64800000D02*
X144300000Y-68257202D01*
X144600000Y-64500000D02*
X144300000Y-64800000D01*
X145450000Y-64500000D02*
X144600000Y-64500000D01*
X152400000Y-64500000D02*
X152600000Y-64700000D01*
X150650000Y-64500000D02*
X152400000Y-64500000D01*
X144300000Y-68257202D02*
X145642798Y-69600000D01*
D32*
X148000000Y-68300000D02*
X148000000Y-69600000D01*
D31*
X147292894Y-69600000D02*
X148000000Y-69600000D01*
X145642798Y-69600000D02*
X147292894Y-69600000D01*
X148550000Y-61900000D02*
X150750000Y-59700000D01*
X148550000Y-62400000D02*
X148550000Y-61900000D01*
X148550000Y-62400000D02*
X150650000Y-64500000D01*
X144650000Y-51180000D02*
X143370000Y-51180000D01*
X144650000Y-52450000D02*
X144650000Y-51180000D01*
X143370000Y-51180000D02*
X142850000Y-51700000D01*
X150450000Y-59400000D02*
X150750000Y-59700000D01*
X150450000Y-58000000D02*
X150450000Y-59400000D01*
X168100000Y-57250000D02*
X168100000Y-57000000D01*
X168100000Y-57000000D02*
X169000000Y-56100000D01*
X164820000Y-52130000D02*
X166350000Y-50600000D01*
X164820000Y-52400000D02*
X164820000Y-52130000D01*
X165250000Y-52830000D02*
X164820000Y-52400000D01*
X165250000Y-55000000D02*
X165250000Y-52830000D01*
X120550000Y-76700000D02*
X121800000Y-76700000D01*
X116000000Y-66707106D02*
X116000000Y-66000000D01*
X113807106Y-69400000D02*
X116000000Y-67207106D01*
X112950000Y-69400000D02*
X113807106Y-69400000D01*
X116000000Y-67207106D02*
X116000000Y-66707106D01*
X110528249Y-71928249D02*
X111928249Y-70528249D01*
X118100000Y-57250000D02*
X118100000Y-57000000D01*
X118100000Y-57000000D02*
X119000000Y-56100000D01*
X109150000Y-58650000D02*
X109650000Y-58650000D01*
X109650000Y-58650000D02*
X110500000Y-59500000D01*
X139000000Y-52450000D02*
X139000000Y-50900000D01*
X139700000Y-46200000D02*
X139700000Y-45000000D01*
X139700000Y-45000000D02*
X138800000Y-44100000D01*
X120250000Y-42500000D02*
X120250000Y-42200000D01*
X120250000Y-42200000D02*
X121150000Y-41300000D01*
X121150000Y-41300000D02*
X136000000Y-41300000D01*
X136000000Y-41300000D02*
X137100000Y-42400000D01*
X138200000Y-46900000D02*
X139000000Y-46900000D01*
X139000000Y-46900000D02*
X139700000Y-46200000D01*
X136850000Y-45600000D02*
X136850000Y-42650000D01*
X136850000Y-42650000D02*
X137100000Y-42400000D01*
X137000000Y-45350000D02*
X137100000Y-45250000D01*
X130800000Y-66350000D02*
X130800000Y-68400000D01*
X130800000Y-68400000D02*
X130850000Y-68450000D01*
X136400000Y-54950000D02*
X136350000Y-54950000D01*
X138900000Y-52450000D02*
X136400000Y-54950000D01*
X139000000Y-52450000D02*
X138900000Y-52450000D01*
X130600000Y-52450000D02*
X139000000Y-52450000D01*
X130400000Y-53750000D02*
X130400000Y-52650000D01*
X130400000Y-52650000D02*
X130600000Y-52450000D01*
X118100000Y-57250000D02*
X118300000Y-57250000D01*
X116100000Y-57250000D02*
X118100000Y-57250000D01*
X123350000Y-61793502D02*
X123350000Y-61657112D01*
X122571751Y-62571751D02*
X123350000Y-61793502D01*
X123350000Y-61657112D02*
X123350000Y-60950006D01*
X115250000Y-55000000D02*
X115250000Y-52830000D01*
X115250000Y-52830000D02*
X114820000Y-52400000D01*
X114820000Y-52400000D02*
X114820000Y-52130000D01*
X114820000Y-52130000D02*
X116350000Y-50600000D01*
X100650000Y-64500000D02*
X102400000Y-64500000D01*
X102400000Y-64500000D02*
X102600000Y-64700000D01*
X94650000Y-51180000D02*
X93370000Y-51180000D01*
X93370000Y-51180000D02*
X92850000Y-51700000D01*
X94650000Y-52450000D02*
X94650000Y-51180000D01*
X100450000Y-58000000D02*
X100450000Y-59400000D01*
X100450000Y-59400000D02*
X100750000Y-59700000D01*
X98550000Y-62400000D02*
X98550000Y-61900000D01*
X98550000Y-61900000D02*
X100750000Y-59700000D01*
X98550000Y-62400000D02*
X100650000Y-64500000D01*
X94300000Y-64800000D02*
X94300000Y-68257202D01*
X94300000Y-68257202D02*
X95642798Y-69600000D01*
X95642798Y-69600000D02*
X97292894Y-69600000D01*
X97292894Y-69600000D02*
X98000000Y-69600000D01*
X95450000Y-64500000D02*
X94600000Y-64500000D01*
X94600000Y-64500000D02*
X94300000Y-64800000D01*
D32*
X98000000Y-68300000D02*
X98000000Y-69600000D01*
D31*
X118950000Y-42500000D02*
X120250000Y-42500000D01*
D32*
X119900000Y-44250000D02*
X119900000Y-42850000D01*
X119900000Y-42850000D02*
X120250000Y-42500000D01*
D31*
X130800000Y-66350000D02*
X139200000Y-66350000D01*
X111928249Y-70528249D02*
X111928249Y-70421751D01*
X111928249Y-70421751D02*
X112950000Y-69400000D01*
X121450000Y-64600000D02*
X121450000Y-63800000D01*
X121450000Y-63800000D02*
X121450000Y-63693502D01*
X121450000Y-63693502D02*
X122571751Y-62571751D01*
X125150000Y-102900000D02*
X125150000Y-101100000D01*
X122200000Y-95900000D02*
X122200000Y-103600000D01*
X125150000Y-101100000D02*
X125150000Y-97950000D01*
X121838004Y-110697920D02*
X123104013Y-109431911D01*
X122200000Y-103600000D02*
X120350000Y-105450000D01*
X123104013Y-109431911D02*
X123104013Y-109200000D01*
X127600000Y-109700000D02*
X127600000Y-108450000D01*
X128550000Y-108450000D02*
X127600000Y-108450000D01*
X121228249Y-111228249D02*
X121758578Y-110697920D01*
X121758578Y-110697920D02*
X121838004Y-110697920D01*
X120106498Y-112350000D02*
X121228249Y-111228249D01*
X127500000Y-94700000D02*
X126950000Y-94150000D01*
X124550000Y-94150000D02*
X124350000Y-93950000D01*
X126950000Y-94150000D02*
X126000000Y-94150000D01*
X126000000Y-94150000D02*
X124550000Y-94150000D01*
X127500000Y-96100000D02*
X127500000Y-94700000D01*
X126500000Y-96600000D02*
X127000000Y-96600000D01*
X127000000Y-96600000D02*
X127500000Y-96100000D01*
X125900000Y-97200000D02*
X126500000Y-96600000D01*
X125150000Y-97950000D02*
X126500000Y-96600000D01*
X124350000Y-93950000D02*
X124150000Y-93950000D01*
X124150000Y-93950000D02*
X122200000Y-95900000D01*
X134600000Y-137200000D02*
X127296400Y-137200000D01*
X134600000Y-137200000D02*
X134600000Y-133800000D01*
X134600000Y-133800000D02*
X139300000Y-129100000D01*
X127296400Y-137200000D02*
X120000000Y-137200000D01*
X126700000Y-136603600D02*
X126700000Y-135240000D01*
X127296400Y-137200000D02*
X126700000Y-136603600D01*
X131442798Y-110200000D02*
X129692798Y-108450000D01*
X139350000Y-110200000D02*
X131442798Y-110200000D01*
X129692798Y-108450000D02*
X128550000Y-108450000D01*
X111350000Y-137200000D02*
X104850000Y-130700000D01*
X113900000Y-137200000D02*
X111350000Y-137200000D01*
X104850000Y-130700000D02*
X104850000Y-119700000D01*
X114400000Y-119892798D02*
X114546799Y-119745999D01*
X113271751Y-121871751D02*
X113378249Y-121871751D01*
X111871751Y-123271751D02*
X113271751Y-121871751D01*
X114400000Y-120850000D02*
X114400000Y-119892798D01*
X113378249Y-121871751D02*
X114400000Y-120850000D01*
X116440000Y-126700000D02*
X116400000Y-126660000D01*
X118650000Y-126700000D02*
X116440000Y-126700000D01*
X118650000Y-136450000D02*
X119400000Y-137200000D01*
X118650000Y-126700000D02*
X118650000Y-136450000D01*
X119400000Y-137200000D02*
X120000000Y-137200000D01*
X120000000Y-137200000D02*
X113900000Y-137200000D01*
X116800000Y-109850000D02*
X116800000Y-112350000D01*
X116100000Y-109150000D02*
X116800000Y-109850000D01*
X115600000Y-108650000D02*
X116100000Y-109150000D01*
X114200000Y-108650000D02*
X115600000Y-108650000D01*
X116391302Y-119745999D02*
X120000000Y-116137301D01*
X114546799Y-119745999D02*
X116391302Y-119745999D01*
X118100000Y-109150000D02*
X118400000Y-109150000D01*
X118400000Y-109150000D02*
X120349992Y-107200008D01*
X116100000Y-109150000D02*
X118100000Y-109150000D01*
X120000000Y-112350000D02*
X120106498Y-112350000D01*
X120000000Y-113450000D02*
X120000000Y-112350000D01*
X120000000Y-116137301D02*
X120000000Y-113450000D01*
X104850000Y-119700000D02*
X101250000Y-116100000D01*
X98650000Y-116100000D02*
X98650000Y-114600000D01*
X98650000Y-114600000D02*
X98750000Y-114500000D01*
X101250000Y-116100000D02*
X98650000Y-116100000D01*
X120349992Y-107200008D02*
X120350000Y-107200008D01*
X120350000Y-106492902D02*
X120350000Y-107200008D01*
X120350000Y-105450000D02*
X120350000Y-106492902D01*
X175150000Y-102900000D02*
X175150000Y-101100000D01*
X172200000Y-95900000D02*
X172200000Y-103600000D01*
X175150000Y-101100000D02*
X175150000Y-97950000D01*
X171838004Y-110697920D02*
X173104013Y-109431911D01*
X172200000Y-103600000D02*
X170350000Y-105450000D01*
X173104013Y-109431911D02*
X173104013Y-109200000D01*
X177600000Y-109700000D02*
X177600000Y-108450000D01*
X178550000Y-108450000D02*
X177600000Y-108450000D01*
X171228249Y-111228249D02*
X171758578Y-110697920D01*
X171758578Y-110697920D02*
X171838004Y-110697920D01*
X170106498Y-112350000D02*
X171228249Y-111228249D01*
X177500000Y-94700000D02*
X176950000Y-94150000D01*
X174550000Y-94150000D02*
X174350000Y-93950000D01*
X176950000Y-94150000D02*
X176000000Y-94150000D01*
X176000000Y-94150000D02*
X174550000Y-94150000D01*
X177500000Y-96100000D02*
X177500000Y-94700000D01*
X176500000Y-96600000D02*
X177000000Y-96600000D01*
X177000000Y-96600000D02*
X177500000Y-96100000D01*
X175900000Y-97200000D02*
X176500000Y-96600000D01*
X175150000Y-97950000D02*
X176500000Y-96600000D01*
X174350000Y-93950000D02*
X174150000Y-93950000D01*
X174150000Y-93950000D02*
X172200000Y-95900000D01*
X184600000Y-137200000D02*
X177296400Y-137200000D01*
X184600000Y-137200000D02*
X184600000Y-133800000D01*
X184600000Y-133800000D02*
X189300000Y-129100000D01*
X177296400Y-137200000D02*
X170000000Y-137200000D01*
X176700000Y-136603600D02*
X176700000Y-135240000D01*
X177296400Y-137200000D02*
X176700000Y-136603600D01*
X181442798Y-110200000D02*
X179692798Y-108450000D01*
X189350000Y-110200000D02*
X181442798Y-110200000D01*
X179692798Y-108450000D02*
X178550000Y-108450000D01*
X161350000Y-137200000D02*
X154850000Y-130700000D01*
X163900000Y-137200000D02*
X161350000Y-137200000D01*
X154850000Y-130700000D02*
X154850000Y-119700000D01*
X164400000Y-119892798D02*
X164546799Y-119745999D01*
X163271751Y-121871751D02*
X163378249Y-121871751D01*
X161871751Y-123271751D02*
X163271751Y-121871751D01*
X164400000Y-120850000D02*
X164400000Y-119892798D01*
X163378249Y-121871751D02*
X164400000Y-120850000D01*
X166440000Y-126700000D02*
X166400000Y-126660000D01*
X168650000Y-126700000D02*
X166440000Y-126700000D01*
X168650000Y-136450000D02*
X169400000Y-137200000D01*
X168650000Y-126700000D02*
X168650000Y-136450000D01*
X169400000Y-137200000D02*
X170000000Y-137200000D01*
X170000000Y-137200000D02*
X163900000Y-137200000D01*
X166800000Y-109850000D02*
X166800000Y-112350000D01*
X166100000Y-109150000D02*
X166800000Y-109850000D01*
X165600000Y-108650000D02*
X166100000Y-109150000D01*
X164200000Y-108650000D02*
X165600000Y-108650000D01*
X166391302Y-119745999D02*
X170000000Y-116137301D01*
X164546799Y-119745999D02*
X166391302Y-119745999D01*
X168100000Y-109150000D02*
X168400000Y-109150000D01*
X168400000Y-109150000D02*
X170349992Y-107200008D01*
X166100000Y-109150000D02*
X168100000Y-109150000D01*
X170000000Y-112350000D02*
X170106498Y-112350000D01*
X170000000Y-113450000D02*
X170000000Y-112350000D01*
X170000000Y-116137301D02*
X170000000Y-113450000D01*
X154850000Y-119700000D02*
X151250000Y-116100000D01*
X148650000Y-116100000D02*
X148650000Y-114600000D01*
X148650000Y-114600000D02*
X148750000Y-114500000D01*
X151250000Y-116100000D02*
X148650000Y-116100000D01*
X170349992Y-107200008D02*
X170350000Y-107200008D01*
X170350000Y-106492902D02*
X170350000Y-107200008D01*
X170350000Y-105450000D02*
X170350000Y-106492902D01*
X175150000Y-52900000D02*
X175150000Y-51100000D01*
X172200000Y-45900000D02*
X172200000Y-53600000D01*
X175150000Y-51100000D02*
X175150000Y-47950000D01*
X171838004Y-60697920D02*
X173104013Y-59431911D01*
X172200000Y-53600000D02*
X170350000Y-55450000D01*
X173104013Y-59431911D02*
X173104013Y-59200000D01*
X177600000Y-59700000D02*
X177600000Y-58450000D01*
X178550000Y-58450000D02*
X177600000Y-58450000D01*
X171228249Y-61228249D02*
X171758578Y-60697920D01*
X171758578Y-60697920D02*
X171838004Y-60697920D01*
X170106498Y-62350000D02*
X171228249Y-61228249D01*
X177500000Y-44700000D02*
X176950000Y-44150000D01*
X174550000Y-44150000D02*
X174350000Y-43950000D01*
X176950000Y-44150000D02*
X176000000Y-44150000D01*
X176000000Y-44150000D02*
X174550000Y-44150000D01*
X177500000Y-46100000D02*
X177500000Y-44700000D01*
X176500000Y-46600000D02*
X177000000Y-46600000D01*
X177000000Y-46600000D02*
X177500000Y-46100000D01*
X175900000Y-47200000D02*
X176500000Y-46600000D01*
X175150000Y-47950000D02*
X176500000Y-46600000D01*
X174350000Y-43950000D02*
X174150000Y-43950000D01*
X174150000Y-43950000D02*
X172200000Y-45900000D01*
X184600000Y-87200000D02*
X177296400Y-87200000D01*
X184600000Y-87200000D02*
X184600000Y-83800000D01*
X184600000Y-83800000D02*
X189300000Y-79100000D01*
X177296400Y-87200000D02*
X170000000Y-87200000D01*
X176700000Y-86603600D02*
X176700000Y-85240000D01*
X177296400Y-87200000D02*
X176700000Y-86603600D01*
X181442798Y-60200000D02*
X179692798Y-58450000D01*
X189350000Y-60200000D02*
X181442798Y-60200000D01*
X179692798Y-58450000D02*
X178550000Y-58450000D01*
X161350000Y-87200000D02*
X154850000Y-80700000D01*
X163900000Y-87200000D02*
X161350000Y-87200000D01*
X154850000Y-80700000D02*
X154850000Y-69700000D01*
X164400000Y-69892798D02*
X164546799Y-69745999D01*
X163271751Y-71871751D02*
X163378249Y-71871751D01*
X161871751Y-73271751D02*
X163271751Y-71871751D01*
X164400000Y-70850000D02*
X164400000Y-69892798D01*
X163378249Y-71871751D02*
X164400000Y-70850000D01*
X166440000Y-76700000D02*
X166400000Y-76660000D01*
X168650000Y-76700000D02*
X166440000Y-76700000D01*
X168650000Y-86450000D02*
X169400000Y-87200000D01*
X168650000Y-76700000D02*
X168650000Y-86450000D01*
X169400000Y-87200000D02*
X170000000Y-87200000D01*
X170000000Y-87200000D02*
X163900000Y-87200000D01*
X166800000Y-59850000D02*
X166800000Y-62350000D01*
X166100000Y-59150000D02*
X166800000Y-59850000D01*
X165600000Y-58650000D02*
X166100000Y-59150000D01*
X164200000Y-58650000D02*
X165600000Y-58650000D01*
X166391302Y-69745999D02*
X170000000Y-66137301D01*
X164546799Y-69745999D02*
X166391302Y-69745999D01*
X168100000Y-59150000D02*
X168400000Y-59150000D01*
X168400000Y-59150000D02*
X170349992Y-57200008D01*
X166100000Y-59150000D02*
X168100000Y-59150000D01*
X170000000Y-62350000D02*
X170106498Y-62350000D01*
X170000000Y-63450000D02*
X170000000Y-62350000D01*
X170000000Y-66137301D02*
X170000000Y-63450000D01*
X154850000Y-69700000D02*
X151250000Y-66100000D01*
X148650000Y-66100000D02*
X148650000Y-64600000D01*
X148650000Y-64600000D02*
X148750000Y-64500000D01*
X151250000Y-66100000D02*
X148650000Y-66100000D01*
X170349992Y-57200008D02*
X170350000Y-57200008D01*
X170350000Y-56492902D02*
X170350000Y-57200008D01*
X170350000Y-55450000D02*
X170350000Y-56492902D01*
X114400000Y-70850000D02*
X114400000Y-69892798D01*
X114400000Y-69892798D02*
X114546799Y-69745999D01*
X114546799Y-69745999D02*
X116391302Y-69745999D01*
X116391302Y-69745999D02*
X120000000Y-66137301D01*
X120000000Y-66137301D02*
X120000000Y-63450000D01*
X120000000Y-63450000D02*
X120000000Y-62350000D01*
X118650000Y-76700000D02*
X118650000Y-86450000D01*
X118650000Y-86450000D02*
X119400000Y-87200000D01*
X119400000Y-87200000D02*
X120000000Y-87200000D01*
X118650000Y-76700000D02*
X116440000Y-76700000D01*
X116440000Y-76700000D02*
X116400000Y-76660000D01*
X127296400Y-87200000D02*
X120000000Y-87200000D01*
X120000000Y-87200000D02*
X113900000Y-87200000D01*
X113900000Y-87200000D02*
X111350000Y-87200000D01*
X114200000Y-58650000D02*
X115600000Y-58650000D01*
X115600000Y-58650000D02*
X116100000Y-59150000D01*
X124350000Y-43950000D02*
X124150000Y-43950000D01*
X124150000Y-43950000D02*
X122200000Y-45900000D01*
X122200000Y-45900000D02*
X122200000Y-53600000D01*
X122200000Y-53600000D02*
X120350000Y-55450000D01*
X120350000Y-55450000D02*
X120350000Y-56492902D01*
X120350000Y-56492902D02*
X120350000Y-57200008D01*
X125900000Y-47200000D02*
X126500000Y-46600000D01*
X134600000Y-83800000D02*
X139300000Y-79100000D01*
X134600000Y-87200000D02*
X134600000Y-83800000D01*
X139350000Y-60200000D02*
X131442798Y-60200000D01*
X131442798Y-60200000D02*
X129692798Y-58450000D01*
X129692798Y-58450000D02*
X128550000Y-58450000D01*
X128550000Y-58450000D02*
X127600000Y-58450000D01*
X125150000Y-52900000D02*
X125150000Y-51100000D01*
X125150000Y-51100000D02*
X125150000Y-47950000D01*
X127500000Y-44700000D02*
X126950000Y-44150000D01*
X125150000Y-47950000D02*
X126500000Y-46600000D01*
X126500000Y-46600000D02*
X127000000Y-46600000D01*
X127000000Y-46600000D02*
X127500000Y-46100000D01*
X127500000Y-46100000D02*
X127500000Y-44700000D01*
X126950000Y-44150000D02*
X126000000Y-44150000D01*
X118100000Y-59150000D02*
X118400000Y-59150000D01*
X120349992Y-57200008D02*
X120350000Y-57200008D01*
X118400000Y-59150000D02*
X120349992Y-57200008D01*
X123104013Y-59431911D02*
X123104013Y-59200000D01*
X121838004Y-60697920D02*
X123104013Y-59431911D01*
X121758578Y-60697920D02*
X121838004Y-60697920D01*
X121228249Y-61228249D02*
X121758578Y-60697920D01*
X116100000Y-59150000D02*
X118100000Y-59150000D01*
X116100000Y-59150000D02*
X116800000Y-59850000D01*
X116800000Y-59850000D02*
X116800000Y-62350000D01*
X127600000Y-59700000D02*
X127600000Y-58450000D01*
X120000000Y-62350000D02*
X120106498Y-62350000D01*
X120106498Y-62350000D02*
X121228249Y-61228249D01*
X111350000Y-87200000D02*
X104850000Y-80700000D01*
X104850000Y-80700000D02*
X104850000Y-69700000D01*
X104850000Y-69700000D02*
X101250000Y-66100000D01*
X101250000Y-66100000D02*
X98650000Y-66100000D01*
X98650000Y-66100000D02*
X98650000Y-64600000D01*
X98650000Y-64600000D02*
X98750000Y-64500000D01*
X126000000Y-44150000D02*
X124550000Y-44150000D01*
X124550000Y-44150000D02*
X124350000Y-43950000D01*
X113271751Y-71871751D02*
X113378249Y-71871751D01*
X113378249Y-71871751D02*
X114400000Y-70850000D01*
X111871751Y-73271751D02*
X113271751Y-71871751D01*
X134600000Y-87200000D02*
X127296400Y-87200000D01*
X127296400Y-87200000D02*
X126700000Y-86603600D01*
X126700000Y-86603600D02*
X126700000Y-85240000D01*
X122100000Y-106407106D02*
X122100000Y-105700000D01*
X117600000Y-111392798D02*
X122100000Y-106892798D01*
X122100000Y-106892798D02*
X122100000Y-106407106D01*
X127850000Y-105450000D02*
X130200000Y-105450000D01*
X126700000Y-127620000D02*
X126700000Y-124900000D01*
X139000000Y-106950000D02*
X137700000Y-106950000D01*
X137700000Y-106950000D02*
X130600000Y-106950000D01*
X127600000Y-106950000D02*
X130600000Y-106950000D01*
X130200000Y-105450000D02*
X130400000Y-105650000D01*
X130600000Y-106950000D02*
X130600000Y-105850000D01*
X130600000Y-105850000D02*
X130400000Y-105650000D01*
X117600000Y-112350000D02*
X117600000Y-111392798D01*
X118099999Y-115200001D02*
X118599998Y-115700000D01*
X117600000Y-112350000D02*
X117600000Y-114700002D01*
X117600000Y-114700002D02*
X118099999Y-115200001D01*
X172100000Y-106407106D02*
X172100000Y-105700000D01*
X167600000Y-111392798D02*
X172100000Y-106892798D01*
X172100000Y-106892798D02*
X172100000Y-106407106D01*
X177850000Y-105450000D02*
X180200000Y-105450000D01*
X176700000Y-127620000D02*
X176700000Y-124900000D01*
X189000000Y-106950000D02*
X187700000Y-106950000D01*
X187700000Y-106950000D02*
X180600000Y-106950000D01*
X177600000Y-106950000D02*
X180600000Y-106950000D01*
X180200000Y-105450000D02*
X180400000Y-105650000D01*
X180600000Y-106950000D02*
X180600000Y-105850000D01*
X180600000Y-105850000D02*
X180400000Y-105650000D01*
X167600000Y-112350000D02*
X167600000Y-111392798D01*
X168099999Y-115200001D02*
X168599998Y-115700000D01*
X167600000Y-112350000D02*
X167600000Y-114700002D01*
X167600000Y-114700002D02*
X168099999Y-115200001D01*
X172100000Y-56407106D02*
X172100000Y-55700000D01*
X167600000Y-61392798D02*
X172100000Y-56892798D01*
X172100000Y-56892798D02*
X172100000Y-56407106D01*
X177850000Y-55450000D02*
X180200000Y-55450000D01*
X176700000Y-77620000D02*
X176700000Y-74900000D01*
X189000000Y-56950000D02*
X187700000Y-56950000D01*
X187700000Y-56950000D02*
X180600000Y-56950000D01*
X177600000Y-56950000D02*
X180600000Y-56950000D01*
X180200000Y-55450000D02*
X180400000Y-55650000D01*
X180600000Y-56950000D02*
X180600000Y-55850000D01*
X180600000Y-55850000D02*
X180400000Y-55650000D01*
X167600000Y-62350000D02*
X167600000Y-61392798D01*
X168099999Y-65200001D02*
X168599998Y-65700000D01*
X167600000Y-62350000D02*
X167600000Y-64700002D01*
X167600000Y-64700002D02*
X168099999Y-65200001D01*
X126700000Y-77620000D02*
X126700000Y-74900000D01*
X118099999Y-65200001D02*
X118599998Y-65700000D01*
X117600000Y-64700002D02*
X118099999Y-65200001D01*
X117600000Y-62350000D02*
X117600000Y-64700002D01*
X139000000Y-56950000D02*
X137700000Y-56950000D01*
X137700000Y-56950000D02*
X130600000Y-56950000D01*
X122100000Y-56407106D02*
X122100000Y-55700000D01*
X122100000Y-56892798D02*
X122100000Y-56407106D01*
X117600000Y-61392798D02*
X122100000Y-56892798D01*
X117600000Y-62350000D02*
X117600000Y-61392798D01*
X130600000Y-56950000D02*
X130600000Y-55850000D01*
X130600000Y-55850000D02*
X130400000Y-55650000D01*
X127600000Y-56950000D02*
X130600000Y-56950000D01*
X127850000Y-55450000D02*
X130200000Y-55450000D01*
X130200000Y-55450000D02*
X130400000Y-55650000D01*
X109350000Y-91700000D02*
X109350000Y-103200000D01*
X132700000Y-99542798D02*
X132057202Y-98900000D01*
X128650000Y-99350000D02*
X128300000Y-99000000D01*
X129850000Y-99350000D02*
X129650000Y-99350000D01*
X129650000Y-99350000D02*
X128650000Y-99350000D01*
X129492798Y-95900000D02*
X130650000Y-95900000D01*
X128300000Y-99000000D02*
X128300000Y-97092798D01*
X128300000Y-97092798D02*
X129492798Y-95900000D01*
X132800000Y-95900000D02*
X133700000Y-96800000D01*
X133800000Y-96900000D02*
X133700000Y-96800000D01*
X135500000Y-96900000D02*
X133800000Y-96900000D01*
X131600000Y-95900000D02*
X132800000Y-95900000D01*
X132057202Y-98900000D02*
X130300000Y-98900000D01*
X130300000Y-98900000D02*
X129850000Y-99350000D01*
X130650000Y-95900000D02*
X131600000Y-95900000D01*
X132700000Y-100300000D02*
X132700000Y-99542798D01*
X133250000Y-100850000D02*
X132700000Y-100300000D01*
X134050000Y-100850000D02*
X136950000Y-100850000D01*
X134050000Y-100850000D02*
X133250000Y-100850000D01*
X136950000Y-100850000D02*
X137200000Y-100600000D01*
X96800000Y-116650000D02*
X97350000Y-116100000D01*
X97350000Y-113100000D02*
X96650000Y-112400000D01*
X95800000Y-116650000D02*
X96800000Y-116650000D01*
X97350000Y-116100000D02*
X97350000Y-114500000D01*
X97350000Y-114500000D02*
X97350000Y-113100000D01*
X96650000Y-110200000D02*
X96150000Y-109700000D01*
X94850000Y-109450000D02*
X94850000Y-108407094D01*
X96650000Y-112400000D02*
X96650000Y-111250000D01*
X96150000Y-109700000D02*
X96150000Y-108000000D01*
X96650000Y-112400000D02*
X96650000Y-110200000D01*
X96650000Y-111250000D02*
X94850000Y-109450000D01*
X94850000Y-108407094D02*
X94850000Y-107699988D01*
X101300000Y-102450000D02*
X101850000Y-103000000D01*
X101850000Y-103000000D02*
X101850000Y-103200000D01*
X100050000Y-102450000D02*
X101300000Y-102450000D01*
X105850000Y-106700000D02*
X105100000Y-106700000D01*
X109350000Y-103200000D02*
X105850000Y-106700000D01*
X159350000Y-91700000D02*
X159350000Y-103200000D01*
X182700000Y-99542798D02*
X182057202Y-98900000D01*
X178650000Y-99350000D02*
X178300000Y-99000000D01*
X179850000Y-99350000D02*
X179650000Y-99350000D01*
X179650000Y-99350000D02*
X178650000Y-99350000D01*
X179492798Y-95900000D02*
X180650000Y-95900000D01*
X178300000Y-99000000D02*
X178300000Y-97092798D01*
X178300000Y-97092798D02*
X179492798Y-95900000D01*
X182800000Y-95900000D02*
X183700000Y-96800000D01*
X183800000Y-96900000D02*
X183700000Y-96800000D01*
X185500000Y-96900000D02*
X183800000Y-96900000D01*
X181600000Y-95900000D02*
X182800000Y-95900000D01*
X182057202Y-98900000D02*
X180300000Y-98900000D01*
X180300000Y-98900000D02*
X179850000Y-99350000D01*
X180650000Y-95900000D02*
X181600000Y-95900000D01*
X182700000Y-100300000D02*
X182700000Y-99542798D01*
X183250000Y-100850000D02*
X182700000Y-100300000D01*
X184050000Y-100850000D02*
X186950000Y-100850000D01*
X184050000Y-100850000D02*
X183250000Y-100850000D01*
X186950000Y-100850000D02*
X187200000Y-100600000D01*
X146800000Y-116650000D02*
X147350000Y-116100000D01*
X147350000Y-113100000D02*
X146650000Y-112400000D01*
X145800000Y-116650000D02*
X146800000Y-116650000D01*
X147350000Y-116100000D02*
X147350000Y-114500000D01*
X147350000Y-114500000D02*
X147350000Y-113100000D01*
X146650000Y-110200000D02*
X146150000Y-109700000D01*
X144850000Y-109450000D02*
X144850000Y-108407094D01*
X146650000Y-112400000D02*
X146650000Y-111250000D01*
X146150000Y-109700000D02*
X146150000Y-108000000D01*
X146650000Y-112400000D02*
X146650000Y-110200000D01*
X146650000Y-111250000D02*
X144850000Y-109450000D01*
X144850000Y-108407094D02*
X144850000Y-107699988D01*
X151300000Y-102450000D02*
X151850000Y-103000000D01*
X151850000Y-103000000D02*
X151850000Y-103200000D01*
X150050000Y-102450000D02*
X151300000Y-102450000D01*
X155850000Y-106700000D02*
X155100000Y-106700000D01*
X159350000Y-103200000D02*
X155850000Y-106700000D01*
X159350000Y-41700000D02*
X159350000Y-53200000D01*
X182700000Y-49542798D02*
X182057202Y-48900000D01*
X178650000Y-49350000D02*
X178300000Y-49000000D01*
X179850000Y-49350000D02*
X179650000Y-49350000D01*
X179650000Y-49350000D02*
X178650000Y-49350000D01*
X179492798Y-45900000D02*
X180650000Y-45900000D01*
X178300000Y-49000000D02*
X178300000Y-47092798D01*
X178300000Y-47092798D02*
X179492798Y-45900000D01*
X182800000Y-45900000D02*
X183700000Y-46800000D01*
X183800000Y-46900000D02*
X183700000Y-46800000D01*
X185500000Y-46900000D02*
X183800000Y-46900000D01*
X181600000Y-45900000D02*
X182800000Y-45900000D01*
X182057202Y-48900000D02*
X180300000Y-48900000D01*
X180300000Y-48900000D02*
X179850000Y-49350000D01*
X180650000Y-45900000D02*
X181600000Y-45900000D01*
X182700000Y-50300000D02*
X182700000Y-49542798D01*
X183250000Y-50850000D02*
X182700000Y-50300000D01*
X184050000Y-50850000D02*
X186950000Y-50850000D01*
X184050000Y-50850000D02*
X183250000Y-50850000D01*
X186950000Y-50850000D02*
X187200000Y-50600000D01*
X146800000Y-66650000D02*
X147350000Y-66100000D01*
X147350000Y-63100000D02*
X146650000Y-62400000D01*
X145800000Y-66650000D02*
X146800000Y-66650000D01*
X147350000Y-66100000D02*
X147350000Y-64500000D01*
X147350000Y-64500000D02*
X147350000Y-63100000D01*
X146650000Y-60200000D02*
X146150000Y-59700000D01*
X144850000Y-59450000D02*
X144850000Y-58407094D01*
X146650000Y-62400000D02*
X146650000Y-61250000D01*
X146150000Y-59700000D02*
X146150000Y-58000000D01*
X146650000Y-62400000D02*
X146650000Y-60200000D01*
X146650000Y-61250000D02*
X144850000Y-59450000D01*
X144850000Y-58407094D02*
X144850000Y-57699988D01*
X151300000Y-52450000D02*
X151850000Y-53000000D01*
X151850000Y-53000000D02*
X151850000Y-53200000D01*
X150050000Y-52450000D02*
X151300000Y-52450000D01*
X155850000Y-56700000D02*
X155100000Y-56700000D01*
X159350000Y-53200000D02*
X155850000Y-56700000D01*
X131600000Y-45900000D02*
X132800000Y-45900000D01*
X132800000Y-45900000D02*
X133700000Y-46800000D01*
X134050000Y-50850000D02*
X133250000Y-50850000D01*
X130300000Y-48900000D02*
X129850000Y-49350000D01*
X133250000Y-50850000D02*
X132700000Y-50300000D01*
X132700000Y-50300000D02*
X132700000Y-49542798D01*
X132700000Y-49542798D02*
X132057202Y-48900000D01*
X132057202Y-48900000D02*
X130300000Y-48900000D01*
X129850000Y-49350000D02*
X129650000Y-49350000D01*
X134050000Y-50850000D02*
X136950000Y-50850000D01*
X136950000Y-50850000D02*
X137200000Y-50600000D01*
X128300000Y-49000000D02*
X128300000Y-47092798D01*
X129492798Y-45900000D02*
X130650000Y-45900000D01*
X128300000Y-47092798D02*
X129492798Y-45900000D01*
X130650000Y-45900000D02*
X131600000Y-45900000D01*
X129650000Y-49350000D02*
X128650000Y-49350000D01*
X128650000Y-49350000D02*
X128300000Y-49000000D01*
X135500000Y-46900000D02*
X133800000Y-46900000D01*
X133800000Y-46900000D02*
X133700000Y-46800000D01*
X94850000Y-58407094D02*
X94850000Y-57699988D01*
X94850000Y-59450000D02*
X94850000Y-58407094D01*
X96650000Y-61250000D02*
X94850000Y-59450000D01*
X96650000Y-62400000D02*
X96650000Y-61250000D01*
X101850000Y-53000000D02*
X101850000Y-53200000D01*
X101300000Y-52450000D02*
X101850000Y-53000000D01*
X100050000Y-52450000D02*
X101300000Y-52450000D01*
X109350000Y-53200000D02*
X105850000Y-56700000D01*
X105850000Y-56700000D02*
X105100000Y-56700000D01*
X109350000Y-41700000D02*
X109350000Y-53200000D01*
X96150000Y-59700000D02*
X96150000Y-58000000D01*
X96650000Y-62400000D02*
X96650000Y-60200000D01*
X96650000Y-60200000D02*
X96150000Y-59700000D01*
X97350000Y-64500000D02*
X97350000Y-63100000D01*
X97350000Y-63100000D02*
X96650000Y-62400000D01*
X97350000Y-66100000D02*
X97350000Y-64500000D01*
X95800000Y-66650000D02*
X96800000Y-66650000D01*
X96800000Y-66650000D02*
X97350000Y-66100000D01*
X116850000Y-92700000D02*
X117050000Y-92500000D01*
D32*
X117050000Y-93600000D02*
X117700000Y-94250000D01*
X118450000Y-94250000D02*
X117700000Y-94250000D01*
D31*
X115600000Y-92700000D02*
X116850000Y-92700000D01*
D32*
X117050000Y-92500000D02*
X117050000Y-93600000D01*
X119100000Y-94900000D02*
X118450000Y-94250000D01*
D31*
X118250000Y-100600000D02*
X118250000Y-100750000D01*
X118250000Y-100750000D02*
X119900000Y-102400000D01*
X118250000Y-100600000D02*
X118250000Y-97050000D01*
D32*
X119900000Y-94900000D02*
X119100000Y-94900000D01*
D31*
X118250000Y-97050000D02*
X118350000Y-96950000D01*
X166850000Y-92700000D02*
X167050000Y-92500000D01*
D32*
X167050000Y-93600000D02*
X167700000Y-94250000D01*
X168450000Y-94250000D02*
X167700000Y-94250000D01*
D31*
X165600000Y-92700000D02*
X166850000Y-92700000D01*
D32*
X167050000Y-92500000D02*
X167050000Y-93600000D01*
X169100000Y-94900000D02*
X168450000Y-94250000D01*
D31*
X168250000Y-100600000D02*
X168250000Y-100750000D01*
X168250000Y-100750000D02*
X169900000Y-102400000D01*
X168250000Y-100600000D02*
X168250000Y-97050000D01*
D32*
X169900000Y-94900000D02*
X169100000Y-94900000D01*
D31*
X168250000Y-97050000D02*
X168350000Y-96950000D01*
X166850000Y-42700000D02*
X167050000Y-42500000D01*
D32*
X167050000Y-43600000D02*
X167700000Y-44250000D01*
X168450000Y-44250000D02*
X167700000Y-44250000D01*
D31*
X165600000Y-42700000D02*
X166850000Y-42700000D01*
D32*
X167050000Y-42500000D02*
X167050000Y-43600000D01*
X169100000Y-44900000D02*
X168450000Y-44250000D01*
D31*
X168250000Y-50600000D02*
X168250000Y-50750000D01*
X168250000Y-50750000D02*
X169900000Y-52400000D01*
X168250000Y-50600000D02*
X168250000Y-47050000D01*
D32*
X169900000Y-44900000D02*
X169100000Y-44900000D01*
D31*
X168250000Y-47050000D02*
X168350000Y-46950000D01*
X115600000Y-42700000D02*
X116850000Y-42700000D01*
X116850000Y-42700000D02*
X117050000Y-42500000D01*
X118250000Y-50600000D02*
X118250000Y-47050000D01*
X118250000Y-47050000D02*
X118350000Y-46950000D01*
X118250000Y-50600000D02*
X118250000Y-50750000D01*
X118250000Y-50750000D02*
X119900000Y-52400000D01*
D32*
X117050000Y-42500000D02*
X117050000Y-43600000D01*
X117050000Y-43600000D02*
X117700000Y-44250000D01*
X119900000Y-44900000D02*
X119100000Y-44900000D01*
X119100000Y-44900000D02*
X118450000Y-44250000D01*
X118450000Y-44250000D02*
X117700000Y-44250000D01*
D31*
X110750000Y-100100000D02*
X110600000Y-99950000D01*
X110750000Y-105000000D02*
X110750000Y-100100000D01*
X108100000Y-99950000D02*
X106300000Y-99950000D01*
X160750000Y-100100000D02*
X160600000Y-99950000D01*
X160750000Y-105000000D02*
X160750000Y-100100000D01*
X158100000Y-99950000D02*
X156300000Y-99950000D01*
X160750000Y-50100000D02*
X160600000Y-49950000D01*
X160750000Y-55000000D02*
X160750000Y-50100000D01*
X158100000Y-49950000D02*
X156300000Y-49950000D01*
X108100000Y-49950000D02*
X106300000Y-49950000D01*
X110750000Y-55000000D02*
X110750000Y-50100000D01*
X110750000Y-50100000D02*
X110600000Y-49950000D01*
X100090000Y-99950000D02*
X100050000Y-99910000D01*
X104400000Y-99950000D02*
X100090000Y-99950000D01*
X104350000Y-99900000D02*
X104400000Y-99950000D01*
X104350000Y-97450000D02*
X104350000Y-99900000D01*
X104550000Y-95600000D02*
X104550000Y-97250000D01*
X104550000Y-97250000D02*
X104350000Y-97450000D01*
X150090000Y-99950000D02*
X150050000Y-99910000D01*
X154400000Y-99950000D02*
X150090000Y-99950000D01*
X154350000Y-99900000D02*
X154400000Y-99950000D01*
X154350000Y-97450000D02*
X154350000Y-99900000D01*
X154550000Y-95600000D02*
X154550000Y-97250000D01*
X154550000Y-97250000D02*
X154350000Y-97450000D01*
X150090000Y-49950000D02*
X150050000Y-49910000D01*
X154400000Y-49950000D02*
X150090000Y-49950000D01*
X154350000Y-49900000D02*
X154400000Y-49950000D01*
X154350000Y-47450000D02*
X154350000Y-49900000D01*
X154550000Y-45600000D02*
X154550000Y-47250000D01*
X154550000Y-47250000D02*
X154350000Y-47450000D01*
X104400000Y-49950000D02*
X100090000Y-49950000D01*
X100090000Y-49950000D02*
X100050000Y-49910000D01*
X104350000Y-47450000D02*
X104350000Y-49900000D01*
X104350000Y-49900000D02*
X104400000Y-49950000D01*
X104550000Y-45600000D02*
X104550000Y-47250000D01*
X104550000Y-47250000D02*
X104350000Y-47450000D01*
X102850000Y-97450000D02*
X102850000Y-98450000D01*
X102850000Y-97450000D02*
X101240000Y-97450000D01*
X102850000Y-98450000D02*
X102600000Y-98700000D01*
X101240000Y-97450000D02*
X100050000Y-98640000D01*
X102650000Y-95600000D02*
X102650000Y-97250000D01*
X102650000Y-97250000D02*
X102850000Y-97450000D01*
X106600000Y-102200000D02*
X105450000Y-102200000D01*
X152850000Y-97450000D02*
X152850000Y-98450000D01*
X152850000Y-97450000D02*
X151240000Y-97450000D01*
X152850000Y-98450000D02*
X152600000Y-98700000D01*
X151240000Y-97450000D02*
X150050000Y-98640000D01*
X152650000Y-95600000D02*
X152650000Y-97250000D01*
X152650000Y-97250000D02*
X152850000Y-97450000D01*
X156600000Y-102200000D02*
X155450000Y-102200000D01*
X152850000Y-47450000D02*
X152850000Y-48450000D01*
X152850000Y-47450000D02*
X151240000Y-47450000D01*
X152850000Y-48450000D02*
X152600000Y-48700000D01*
X151240000Y-47450000D02*
X150050000Y-48640000D01*
X152650000Y-45600000D02*
X152650000Y-47250000D01*
X152650000Y-47250000D02*
X152850000Y-47450000D01*
X156600000Y-52200000D02*
X155450000Y-52200000D01*
X106600000Y-52200000D02*
X105450000Y-52200000D01*
X102850000Y-47450000D02*
X102850000Y-48450000D01*
X102850000Y-48450000D02*
X102600000Y-48700000D01*
X102850000Y-47450000D02*
X101240000Y-47450000D01*
X101240000Y-47450000D02*
X100050000Y-48640000D01*
X102650000Y-45600000D02*
X102650000Y-47250000D01*
X102650000Y-47250000D02*
X102850000Y-47450000D01*
X103950000Y-102200000D02*
X103950000Y-103600000D01*
X103950000Y-103600000D02*
X104100000Y-103750000D01*
X153950000Y-102200000D02*
X153950000Y-103600000D01*
X153950000Y-103600000D02*
X154100000Y-103750000D01*
X153950000Y-52200000D02*
X153950000Y-53600000D01*
X153950000Y-53600000D02*
X154100000Y-53750000D01*
X103950000Y-52200000D02*
X103950000Y-53600000D01*
X103950000Y-53600000D02*
X104100000Y-53750000D01*
X103850000Y-105900000D02*
X104100000Y-105650000D01*
X103440000Y-104990000D02*
X100050000Y-104990000D01*
X103850000Y-107600000D02*
X103850000Y-105900000D01*
X104100000Y-105650000D02*
X103440000Y-104990000D01*
X103950000Y-107700000D02*
X103850000Y-107600000D01*
X103950000Y-109400000D02*
X103950000Y-107700000D01*
X153850000Y-105900000D02*
X154100000Y-105650000D01*
X153440000Y-104990000D02*
X150050000Y-104990000D01*
X153850000Y-107600000D02*
X153850000Y-105900000D01*
X154100000Y-105650000D02*
X153440000Y-104990000D01*
X153950000Y-107700000D02*
X153850000Y-107600000D01*
X153950000Y-109400000D02*
X153950000Y-107700000D01*
X153850000Y-55900000D02*
X154100000Y-55650000D01*
X153440000Y-54990000D02*
X150050000Y-54990000D01*
X153850000Y-57600000D02*
X153850000Y-55900000D01*
X154100000Y-55650000D02*
X153440000Y-54990000D01*
X153950000Y-57700000D02*
X153850000Y-57600000D01*
X153950000Y-59400000D02*
X153950000Y-57700000D01*
X103850000Y-57600000D02*
X103850000Y-55900000D01*
X103850000Y-55900000D02*
X104100000Y-55650000D01*
X103950000Y-59400000D02*
X103950000Y-57700000D01*
X103950000Y-57700000D02*
X103850000Y-57600000D01*
X104100000Y-55650000D02*
X103440000Y-54990000D01*
X103440000Y-54990000D02*
X100050000Y-54990000D01*
X106732002Y-112350000D02*
X106532001Y-112550001D01*
X114400000Y-112350000D02*
X106732002Y-112350000D01*
X103950001Y-112550001D02*
X102050000Y-110650000D01*
X102050000Y-110650000D02*
X102050000Y-109400000D01*
X106532001Y-112550001D02*
X103950001Y-112550001D01*
X94650000Y-104990000D02*
X95890000Y-104990000D01*
X95890000Y-104990000D02*
X96100000Y-105200000D01*
X102350000Y-107600000D02*
X102350000Y-107450000D01*
X101160000Y-106260000D02*
X101600000Y-106700000D01*
X100050000Y-106260000D02*
X101160000Y-106260000D01*
X102350000Y-107450000D02*
X101600000Y-106700000D01*
X102350000Y-107600000D02*
X102350000Y-109100000D01*
X102350000Y-109100000D02*
X102050000Y-109400000D01*
X156732002Y-112350000D02*
X156532001Y-112550001D01*
X164400000Y-112350000D02*
X156732002Y-112350000D01*
X153950001Y-112550001D02*
X152050000Y-110650000D01*
X152050000Y-110650000D02*
X152050000Y-109400000D01*
X156532001Y-112550001D02*
X153950001Y-112550001D01*
X144650000Y-104990000D02*
X145890000Y-104990000D01*
X145890000Y-104990000D02*
X146100000Y-105200000D01*
X152350000Y-107600000D02*
X152350000Y-107450000D01*
X151160000Y-106260000D02*
X151600000Y-106700000D01*
X150050000Y-106260000D02*
X151160000Y-106260000D01*
X152350000Y-107450000D02*
X151600000Y-106700000D01*
X152350000Y-107600000D02*
X152350000Y-109100000D01*
X152350000Y-109100000D02*
X152050000Y-109400000D01*
X156732002Y-62350000D02*
X156532001Y-62550001D01*
X164400000Y-62350000D02*
X156732002Y-62350000D01*
X153950001Y-62550001D02*
X152050000Y-60650000D01*
X152050000Y-60650000D02*
X152050000Y-59400000D01*
X156532001Y-62550001D02*
X153950001Y-62550001D01*
X144650000Y-54990000D02*
X145890000Y-54990000D01*
X145890000Y-54990000D02*
X146100000Y-55200000D01*
X152350000Y-57600000D02*
X152350000Y-57450000D01*
X151160000Y-56260000D02*
X151600000Y-56700000D01*
X150050000Y-56260000D02*
X151160000Y-56260000D01*
X152350000Y-57450000D02*
X151600000Y-56700000D01*
X152350000Y-57600000D02*
X152350000Y-59100000D01*
X152350000Y-59100000D02*
X152050000Y-59400000D01*
X114400000Y-62350000D02*
X106732002Y-62350000D01*
X106732002Y-62350000D02*
X106532001Y-62550001D01*
X102050000Y-60650000D02*
X102050000Y-59400000D01*
X106532001Y-62550001D02*
X103950001Y-62550001D01*
X103950001Y-62550001D02*
X102050000Y-60650000D01*
X102350000Y-57600000D02*
X102350000Y-57450000D01*
X102350000Y-57450000D02*
X101600000Y-56700000D01*
X100050000Y-56260000D02*
X101160000Y-56260000D01*
X101160000Y-56260000D02*
X101600000Y-56700000D01*
X94650000Y-54990000D02*
X95890000Y-54990000D01*
X95890000Y-54990000D02*
X96100000Y-55200000D01*
X102350000Y-57600000D02*
X102350000Y-59100000D01*
X102350000Y-59100000D02*
X102050000Y-59400000D01*
D32*
X121000000Y-95550000D02*
X121650000Y-94900000D01*
D31*
X121650000Y-93000000D02*
X122150000Y-92500000D01*
X121650000Y-94900000D02*
X121650000Y-93000000D01*
D32*
X119900000Y-95550000D02*
X121000000Y-95550000D01*
X116000000Y-96940000D02*
X117390000Y-95550000D01*
X115000000Y-96940000D02*
X116000000Y-96940000D01*
X119900000Y-95550000D02*
X117700000Y-95550000D01*
X117390000Y-95550000D02*
X117700000Y-95550000D01*
X171000000Y-95550000D02*
X171650000Y-94900000D01*
D31*
X171650000Y-93000000D02*
X172150000Y-92500000D01*
X171650000Y-94900000D02*
X171650000Y-93000000D01*
D32*
X169900000Y-95550000D02*
X171000000Y-95550000D01*
X166000000Y-96940000D02*
X167390000Y-95550000D01*
X165000000Y-96940000D02*
X166000000Y-96940000D01*
X169900000Y-95550000D02*
X167700000Y-95550000D01*
X167390000Y-95550000D02*
X167700000Y-95550000D01*
X171000000Y-45550000D02*
X171650000Y-44900000D01*
D31*
X171650000Y-43000000D02*
X172150000Y-42500000D01*
X171650000Y-44900000D02*
X171650000Y-43000000D01*
D32*
X169900000Y-45550000D02*
X171000000Y-45550000D01*
X166000000Y-46940000D02*
X167390000Y-45550000D01*
X165000000Y-46940000D02*
X166000000Y-46940000D01*
X169900000Y-45550000D02*
X167700000Y-45550000D01*
X167390000Y-45550000D02*
X167700000Y-45550000D01*
X115000000Y-46940000D02*
X116000000Y-46940000D01*
X117390000Y-45550000D02*
X117700000Y-45550000D01*
X116000000Y-46940000D02*
X117390000Y-45550000D01*
X119900000Y-45550000D02*
X117700000Y-45550000D01*
X119900000Y-45550000D02*
X121000000Y-45550000D01*
X121000000Y-45550000D02*
X121650000Y-44900000D01*
D31*
X121650000Y-44900000D02*
X121650000Y-43000000D01*
X121650000Y-43000000D02*
X122150000Y-42500000D01*
X133500000Y-124392894D02*
X131161107Y-122054001D01*
X131161107Y-122054001D02*
X129254001Y-122054001D01*
X133500000Y-125100000D02*
X133500000Y-124392894D01*
X126600000Y-119400000D02*
X121450000Y-119400000D01*
X129254001Y-122054001D02*
X126600000Y-119400000D01*
X183500000Y-124392894D02*
X181161107Y-122054001D01*
X181161107Y-122054001D02*
X179254001Y-122054001D01*
X183500000Y-125100000D02*
X183500000Y-124392894D01*
X176600000Y-119400000D02*
X171450000Y-119400000D01*
X179254001Y-122054001D02*
X176600000Y-119400000D01*
X183500000Y-74392894D02*
X181161107Y-72054001D01*
X181161107Y-72054001D02*
X179254001Y-72054001D01*
X183500000Y-75100000D02*
X183500000Y-74392894D01*
X176600000Y-69400000D02*
X171450000Y-69400000D01*
X179254001Y-72054001D02*
X176600000Y-69400000D01*
X133500000Y-75100000D02*
X133500000Y-74392894D01*
X126600000Y-69400000D02*
X121450000Y-69400000D01*
X133500000Y-74392894D02*
X131161107Y-72054001D01*
X131161107Y-72054001D02*
X129254001Y-72054001D01*
X129254001Y-72054001D02*
X126600000Y-69400000D01*
X92850000Y-99360000D02*
X93100000Y-99610000D01*
X93400000Y-99910000D02*
X94650000Y-99910000D01*
X93100000Y-99610000D02*
X93400000Y-99910000D01*
X92850000Y-95950000D02*
X92850000Y-99360000D01*
X94350000Y-94450000D02*
X92850000Y-95950000D01*
X96330000Y-94450000D02*
X94350000Y-94450000D01*
X142850000Y-99360000D02*
X143100000Y-99610000D01*
X143400000Y-99910000D02*
X144650000Y-99910000D01*
X143100000Y-99610000D02*
X143400000Y-99910000D01*
X142850000Y-95950000D02*
X142850000Y-99360000D01*
X144350000Y-94450000D02*
X142850000Y-95950000D01*
X146330000Y-94450000D02*
X144350000Y-94450000D01*
X142850000Y-49360000D02*
X143100000Y-49610000D01*
X143400000Y-49910000D02*
X144650000Y-49910000D01*
X143100000Y-49610000D02*
X143400000Y-49910000D01*
X142850000Y-45950000D02*
X142850000Y-49360000D01*
X144350000Y-44450000D02*
X142850000Y-45950000D01*
X146330000Y-44450000D02*
X144350000Y-44450000D01*
X92850000Y-49360000D02*
X93100000Y-49610000D01*
X93100000Y-49610000D02*
X93400000Y-49910000D01*
X96330000Y-44450000D02*
X94350000Y-44450000D01*
X94350000Y-44450000D02*
X92850000Y-45950000D01*
X92850000Y-45950000D02*
X92850000Y-49360000D01*
X93400000Y-49910000D02*
X94650000Y-49910000D01*
X114350000Y-110700000D02*
X108350000Y-110700000D01*
X106600000Y-108950000D02*
X106600000Y-107450000D01*
X108350000Y-110700000D02*
X106600000Y-108950000D01*
X115200000Y-111550000D02*
X114350000Y-110700000D01*
X115200000Y-112350000D02*
X115200000Y-111550000D01*
X94600000Y-97200000D02*
X94600000Y-98590000D01*
X97350001Y-97949989D02*
X97850000Y-97449990D01*
X94650000Y-98640000D02*
X96659990Y-98640000D01*
X94600000Y-98590000D02*
X94650000Y-98640000D01*
X96659990Y-98640000D02*
X97350001Y-97949989D01*
X164350000Y-110700000D02*
X158350000Y-110700000D01*
X156600000Y-108950000D02*
X156600000Y-107450000D01*
X158350000Y-110700000D02*
X156600000Y-108950000D01*
X165200000Y-111550000D02*
X164350000Y-110700000D01*
X165200000Y-112350000D02*
X165200000Y-111550000D01*
X144600000Y-97200000D02*
X144600000Y-98590000D01*
X147350001Y-97949989D02*
X147850000Y-97449990D01*
X144650000Y-98640000D02*
X146659990Y-98640000D01*
X144600000Y-98590000D02*
X144650000Y-98640000D01*
X146659990Y-98640000D02*
X147350001Y-97949989D01*
X164350000Y-60700000D02*
X158350000Y-60700000D01*
X156600000Y-58950000D02*
X156600000Y-57450000D01*
X158350000Y-60700000D02*
X156600000Y-58950000D01*
X165200000Y-61550000D02*
X164350000Y-60700000D01*
X165200000Y-62350000D02*
X165200000Y-61550000D01*
X144600000Y-47200000D02*
X144600000Y-48590000D01*
X147350001Y-47949989D02*
X147850000Y-47449990D01*
X144650000Y-48640000D02*
X146659990Y-48640000D01*
X144600000Y-48590000D02*
X144650000Y-48640000D01*
X146659990Y-48640000D02*
X147350001Y-47949989D01*
X94600000Y-47200000D02*
X94600000Y-48590000D01*
X94600000Y-48590000D02*
X94650000Y-48640000D01*
X97350001Y-47949989D02*
X97850000Y-47449990D01*
X94650000Y-48640000D02*
X96659990Y-48640000D01*
X96659990Y-48640000D02*
X97350001Y-47949989D01*
X115200000Y-62350000D02*
X115200000Y-61550000D01*
X115200000Y-61550000D02*
X114350000Y-60700000D01*
X114350000Y-60700000D02*
X108350000Y-60700000D01*
X108350000Y-60700000D02*
X106600000Y-58950000D01*
X106600000Y-58950000D02*
X106600000Y-57450000D01*
X107200000Y-129600000D02*
X106300000Y-128700000D01*
X113200000Y-129600000D02*
X107200000Y-129600000D01*
X106300000Y-128700000D02*
X106300000Y-116300000D01*
X111850000Y-113800000D02*
X112950000Y-113800000D01*
X111250000Y-113200000D02*
X111850000Y-113800000D01*
X109400000Y-113200000D02*
X111250000Y-113200000D01*
X106300000Y-116300000D02*
X109400000Y-113200000D01*
X157200000Y-129600000D02*
X156300000Y-128700000D01*
X163200000Y-129600000D02*
X157200000Y-129600000D01*
X156300000Y-128700000D02*
X156300000Y-116300000D01*
X161850000Y-113800000D02*
X162950000Y-113800000D01*
X161250000Y-113200000D02*
X161850000Y-113800000D01*
X159400000Y-113200000D02*
X161250000Y-113200000D01*
X156300000Y-116300000D02*
X159400000Y-113200000D01*
X157200000Y-79600000D02*
X156300000Y-78700000D01*
X163200000Y-79600000D02*
X157200000Y-79600000D01*
X156300000Y-78700000D02*
X156300000Y-66300000D01*
X161850000Y-63800000D02*
X162950000Y-63800000D01*
X161250000Y-63200000D02*
X161850000Y-63800000D01*
X159400000Y-63200000D02*
X161250000Y-63200000D01*
X156300000Y-66300000D02*
X159400000Y-63200000D01*
X113200000Y-79600000D02*
X107200000Y-79600000D01*
X109400000Y-63200000D02*
X111250000Y-63200000D01*
X107200000Y-79600000D02*
X106300000Y-78700000D01*
X106300000Y-78700000D02*
X106300000Y-66300000D01*
X106300000Y-66300000D02*
X109400000Y-63200000D01*
X111250000Y-63200000D02*
X111850000Y-63800000D01*
X111850000Y-63800000D02*
X112950000Y-63800000D01*
X112950000Y-114600000D02*
X110504020Y-114600000D01*
X110504020Y-114600000D02*
X110300000Y-114395980D01*
X162950000Y-114600000D02*
X160504020Y-114600000D01*
X160504020Y-114600000D02*
X160300000Y-114395980D01*
X162950000Y-64600000D02*
X160504020Y-64600000D01*
X160504020Y-64600000D02*
X160300000Y-64395980D01*
X110504020Y-64600000D02*
X110300000Y-64395980D01*
X112950000Y-64600000D02*
X110504020Y-64600000D01*
X107100000Y-126000000D02*
X108600000Y-127500000D01*
X108600000Y-127500000D02*
X110700000Y-127500000D01*
X107100000Y-117800000D02*
X107100000Y-126000000D01*
X112950000Y-115400000D02*
X109500000Y-115400000D01*
X109500000Y-115400000D02*
X107100000Y-117800000D01*
X157100000Y-126000000D02*
X158600000Y-127500000D01*
X158600000Y-127500000D02*
X160700000Y-127500000D01*
X157100000Y-117800000D02*
X157100000Y-126000000D01*
X162950000Y-115400000D02*
X159500000Y-115400000D01*
X159500000Y-115400000D02*
X157100000Y-117800000D01*
X157100000Y-76000000D02*
X158600000Y-77500000D01*
X158600000Y-77500000D02*
X160700000Y-77500000D01*
X157100000Y-67800000D02*
X157100000Y-76000000D01*
X162950000Y-65400000D02*
X159500000Y-65400000D01*
X159500000Y-65400000D02*
X157100000Y-67800000D01*
X112950000Y-65400000D02*
X109500000Y-65400000D01*
X109500000Y-65400000D02*
X107100000Y-67800000D01*
X107100000Y-76000000D02*
X108600000Y-77500000D01*
X107100000Y-67800000D02*
X107100000Y-76000000D01*
X108600000Y-77500000D02*
X110700000Y-77500000D01*
X108500000Y-124900000D02*
X108500000Y-117600000D01*
X108500000Y-117600000D02*
X109900000Y-116200000D01*
X111850000Y-116200000D02*
X112950000Y-116200000D01*
X109900000Y-116200000D02*
X111850000Y-116200000D01*
X158500000Y-124900000D02*
X158500000Y-117600000D01*
X158500000Y-117600000D02*
X159900000Y-116200000D01*
X161850000Y-116200000D02*
X162950000Y-116200000D01*
X159900000Y-116200000D02*
X161850000Y-116200000D01*
X158500000Y-74900000D02*
X158500000Y-67600000D01*
X158500000Y-67600000D02*
X159900000Y-66200000D01*
X161850000Y-66200000D02*
X162950000Y-66200000D01*
X159900000Y-66200000D02*
X161850000Y-66200000D01*
X108500000Y-74900000D02*
X108500000Y-67600000D01*
X108500000Y-67600000D02*
X109900000Y-66200000D01*
X109900000Y-66200000D02*
X111850000Y-66200000D01*
X111850000Y-66200000D02*
X112950000Y-66200000D01*
X110700000Y-117000000D02*
X112950000Y-117000000D01*
X110400000Y-117300000D02*
X110700000Y-117000000D01*
X160700000Y-117000000D02*
X162950000Y-117000000D01*
X160400000Y-117300000D02*
X160700000Y-117000000D01*
X160700000Y-67000000D02*
X162950000Y-67000000D01*
X160400000Y-67300000D02*
X160700000Y-67000000D01*
X110400000Y-67300000D02*
X110700000Y-67000000D01*
X110700000Y-67000000D02*
X112950000Y-67000000D01*
X110100001Y-119200001D02*
X109600002Y-119700000D01*
X112950000Y-117800000D02*
X111500002Y-117800000D01*
X111500002Y-117800000D02*
X110100001Y-119200001D01*
X160100001Y-119200001D02*
X159600002Y-119700000D01*
X162950000Y-117800000D02*
X161500002Y-117800000D01*
X161500002Y-117800000D02*
X160100001Y-119200001D01*
X160100001Y-69200001D02*
X159600002Y-69700000D01*
X162950000Y-67800000D02*
X161500002Y-67800000D01*
X161500002Y-67800000D02*
X160100001Y-69200001D01*
X112950000Y-67800000D02*
X111500002Y-67800000D01*
X110100001Y-69200001D02*
X109600002Y-69700000D01*
X111500002Y-67800000D02*
X110100001Y-69200001D01*
X123354001Y-98245999D02*
X123354001Y-107219220D01*
X120514474Y-110058747D02*
X120014475Y-110558746D01*
X123354001Y-107219220D02*
X120514474Y-110058747D01*
X124300000Y-97300000D02*
X124300000Y-95900000D01*
X124300000Y-97300000D02*
X123354001Y-98245999D01*
X126000000Y-95650000D02*
X124550000Y-95650000D01*
X124300000Y-95900000D02*
X124350000Y-95850000D01*
X124550000Y-95650000D02*
X124350000Y-95850000D01*
X115200000Y-122400000D02*
X115000000Y-122600000D01*
X115200000Y-120850000D02*
X115200000Y-122400000D01*
X173354001Y-98245999D02*
X173354001Y-107219220D01*
X170514474Y-110058747D02*
X170014475Y-110558746D01*
X173354001Y-107219220D02*
X170514474Y-110058747D01*
X174300000Y-97300000D02*
X174300000Y-95900000D01*
X174300000Y-97300000D02*
X173354001Y-98245999D01*
X176000000Y-95650000D02*
X174550000Y-95650000D01*
X174300000Y-95900000D02*
X174350000Y-95850000D01*
X174550000Y-95650000D02*
X174350000Y-95850000D01*
X165200000Y-122400000D02*
X165000000Y-122600000D01*
X165200000Y-120850000D02*
X165200000Y-122400000D01*
X173354001Y-48245999D02*
X173354001Y-57219220D01*
X170514474Y-60058747D02*
X170014475Y-60558746D01*
X173354001Y-57219220D02*
X170514474Y-60058747D01*
X174300000Y-47300000D02*
X174300000Y-45900000D01*
X174300000Y-47300000D02*
X173354001Y-48245999D01*
X176000000Y-45650000D02*
X174550000Y-45650000D01*
X174300000Y-45900000D02*
X174350000Y-45850000D01*
X174550000Y-45650000D02*
X174350000Y-45850000D01*
X165200000Y-72400000D02*
X165000000Y-72600000D01*
X165200000Y-70850000D02*
X165200000Y-72400000D01*
X115200000Y-70850000D02*
X115200000Y-72400000D01*
X115200000Y-72400000D02*
X115000000Y-72600000D01*
X120514474Y-60058747D02*
X120014475Y-60558746D01*
X123354001Y-57219220D02*
X120514474Y-60058747D01*
X124300000Y-47300000D02*
X123354001Y-48245999D01*
X123354001Y-48245999D02*
X123354001Y-57219220D01*
X126000000Y-45650000D02*
X124550000Y-45650000D01*
X124550000Y-45650000D02*
X124350000Y-45850000D01*
X124300000Y-47300000D02*
X124300000Y-45900000D01*
X124300000Y-45900000D02*
X124350000Y-45850000D01*
X128810074Y-123895998D02*
X131400000Y-126485924D01*
X117822464Y-123895998D02*
X128810074Y-123895998D01*
X131400000Y-130540000D02*
X130103599Y-131836401D01*
X131400000Y-126485924D02*
X131400000Y-130540000D01*
X130103599Y-131836401D02*
X129240000Y-132700000D01*
X116000000Y-120850000D02*
X116000000Y-122073534D01*
X116000000Y-122073534D02*
X117822464Y-123895998D01*
X178810074Y-123895998D02*
X181400000Y-126485924D01*
X167822464Y-123895998D02*
X178810074Y-123895998D01*
X181400000Y-130540000D02*
X180103599Y-131836401D01*
X181400000Y-126485924D02*
X181400000Y-130540000D01*
X180103599Y-131836401D02*
X179240000Y-132700000D01*
X166000000Y-120850000D02*
X166000000Y-122073534D01*
X166000000Y-122073534D02*
X167822464Y-123895998D01*
X178810074Y-73895998D02*
X181400000Y-76485924D01*
X167822464Y-73895998D02*
X178810074Y-73895998D01*
X181400000Y-80540000D02*
X180103599Y-81836401D01*
X181400000Y-76485924D02*
X181400000Y-80540000D01*
X180103599Y-81836401D02*
X179240000Y-82700000D01*
X166000000Y-70850000D02*
X166000000Y-72073534D01*
X166000000Y-72073534D02*
X167822464Y-73895998D01*
X116000000Y-72073534D02*
X117822464Y-73895998D01*
X117822464Y-73895998D02*
X128810074Y-73895998D01*
X128810074Y-73895998D02*
X131400000Y-76485924D01*
X131400000Y-76485924D02*
X131400000Y-80540000D01*
X131400000Y-80540000D02*
X130103599Y-81836401D01*
X116000000Y-70850000D02*
X116000000Y-72073534D01*
X130103599Y-81836401D02*
X129240000Y-82700000D01*
X129592894Y-123100000D02*
X130300000Y-123100000D01*
X118092798Y-123100000D02*
X129592894Y-123100000D01*
X116800000Y-120850000D02*
X116800000Y-121807202D01*
X116800000Y-121807202D02*
X118092798Y-123100000D01*
X179592894Y-123100000D02*
X180300000Y-123100000D01*
X168092798Y-123100000D02*
X179592894Y-123100000D01*
X166800000Y-120850000D02*
X166800000Y-121807202D01*
X166800000Y-121807202D02*
X168092798Y-123100000D01*
X179592894Y-73100000D02*
X180300000Y-73100000D01*
X168092798Y-73100000D02*
X179592894Y-73100000D01*
X166800000Y-70850000D02*
X166800000Y-71807202D01*
X166800000Y-71807202D02*
X168092798Y-73100000D01*
X116800000Y-71807202D02*
X118092798Y-73100000D01*
X116800000Y-70850000D02*
X116800000Y-71807202D01*
X129592894Y-73100000D02*
X130300000Y-73100000D01*
X118092798Y-73100000D02*
X129592894Y-73100000D01*
X124754013Y-125707106D02*
X124754013Y-125000000D01*
X124754013Y-128214013D02*
X124754013Y-125707106D01*
X126700000Y-130160000D02*
X124754013Y-128214013D01*
X119200000Y-119200000D02*
X119200000Y-120850000D01*
X174754013Y-125707106D02*
X174754013Y-125000000D01*
X174754013Y-128214013D02*
X174754013Y-125707106D01*
X176700000Y-130160000D02*
X174754013Y-128214013D01*
X169200000Y-119200000D02*
X169200000Y-120850000D01*
X174754013Y-75707106D02*
X174754013Y-75000000D01*
X174754013Y-78214013D02*
X174754013Y-75707106D01*
X176700000Y-80160000D02*
X174754013Y-78214013D01*
X169200000Y-69200000D02*
X169200000Y-70850000D01*
X124754013Y-78214013D02*
X124754013Y-75707106D01*
X126700000Y-80160000D02*
X124754013Y-78214013D01*
X124754013Y-75707106D02*
X124754013Y-75000000D01*
X119200000Y-69200000D02*
X119200000Y-70850000D01*
X120000000Y-121200000D02*
X120800000Y-122000000D01*
X120800000Y-122000000D02*
X120900000Y-122000000D01*
X123200000Y-125707108D02*
X123200000Y-125000002D01*
X123204002Y-129204002D02*
X123204002Y-125711110D01*
X123204002Y-125711110D02*
X123200000Y-125707108D01*
X126700000Y-132700000D02*
X123204002Y-129204002D01*
X120000000Y-120850000D02*
X120000000Y-121200000D01*
X170000000Y-121200000D02*
X170800000Y-122000000D01*
X170800000Y-122000000D02*
X170900000Y-122000000D01*
X173200000Y-125707108D02*
X173200000Y-125000002D01*
X173204002Y-129204002D02*
X173204002Y-125711110D01*
X173204002Y-125711110D02*
X173200000Y-125707108D01*
X176700000Y-132700000D02*
X173204002Y-129204002D01*
X170000000Y-120850000D02*
X170000000Y-121200000D01*
X170000000Y-71200000D02*
X170800000Y-72000000D01*
X170800000Y-72000000D02*
X170900000Y-72000000D01*
X173200000Y-75707108D02*
X173200000Y-75000002D01*
X173204002Y-79204002D02*
X173204002Y-75711110D01*
X173204002Y-75711110D02*
X173200000Y-75707108D01*
X176700000Y-82700000D02*
X173204002Y-79204002D01*
X170000000Y-70850000D02*
X170000000Y-71200000D01*
X123200000Y-75707108D02*
X123200000Y-75000002D01*
X126700000Y-82700000D02*
X123204002Y-79204002D01*
X123204002Y-79204002D02*
X123204002Y-75711110D01*
X123204002Y-75711110D02*
X123200000Y-75707108D01*
X120000000Y-70850000D02*
X120000000Y-71200000D01*
X120000000Y-71200000D02*
X120800000Y-72000000D01*
X120800000Y-72000000D02*
X120900000Y-72000000D01*
X135500000Y-97900000D02*
X132100000Y-97900000D01*
X131550000Y-97450000D02*
X131600000Y-97400000D01*
X129650000Y-97450000D02*
X131550000Y-97450000D01*
X132100000Y-97900000D02*
X131600000Y-97400000D01*
X185500000Y-97900000D02*
X182100000Y-97900000D01*
X181550000Y-97450000D02*
X181600000Y-97400000D01*
X179650000Y-97450000D02*
X181550000Y-97450000D01*
X182100000Y-97900000D02*
X181600000Y-97400000D01*
X185500000Y-47900000D02*
X182100000Y-47900000D01*
X181550000Y-47450000D02*
X181600000Y-47400000D01*
X179650000Y-47450000D02*
X181550000Y-47450000D01*
X182100000Y-47900000D02*
X181600000Y-47400000D01*
X135500000Y-47900000D02*
X132100000Y-47900000D01*
X132100000Y-47900000D02*
X131600000Y-47400000D01*
X129650000Y-47450000D02*
X131550000Y-47450000D01*
X131550000Y-47450000D02*
X131600000Y-47400000D01*
X137700000Y-99100000D02*
X138200000Y-98600000D01*
X138200000Y-97900000D02*
X139000000Y-97900000D01*
X137200000Y-99100000D02*
X137700000Y-99100000D01*
X138200000Y-98600000D02*
X138200000Y-97900000D01*
X134200000Y-99100000D02*
X134050000Y-98950000D01*
X137200000Y-99100000D02*
X134200000Y-99100000D01*
X187700000Y-99100000D02*
X188200000Y-98600000D01*
X188200000Y-97900000D02*
X189000000Y-97900000D01*
X187200000Y-99100000D02*
X187700000Y-99100000D01*
X188200000Y-98600000D02*
X188200000Y-97900000D01*
X184200000Y-99100000D02*
X184050000Y-98950000D01*
X187200000Y-99100000D02*
X184200000Y-99100000D01*
X187700000Y-49100000D02*
X188200000Y-48600000D01*
X188200000Y-47900000D02*
X189000000Y-47900000D01*
X187200000Y-49100000D02*
X187700000Y-49100000D01*
X188200000Y-48600000D02*
X188200000Y-47900000D01*
X184200000Y-49100000D02*
X184050000Y-48950000D01*
X187200000Y-49100000D02*
X184200000Y-49100000D01*
X137200000Y-49100000D02*
X134200000Y-49100000D01*
X134200000Y-49100000D02*
X134050000Y-48950000D01*
X137200000Y-49100000D02*
X137700000Y-49100000D01*
X137700000Y-49100000D02*
X138200000Y-48600000D01*
X138200000Y-48600000D02*
X138200000Y-47900000D01*
X138200000Y-47900000D02*
X139000000Y-47900000D01*
X113750000Y-105000000D02*
X112250000Y-105000000D01*
X113750000Y-105200000D02*
X113750000Y-105000000D01*
X114750000Y-106200000D02*
X113750000Y-105200000D01*
X117360000Y-104940000D02*
X116100000Y-106200000D01*
X116100000Y-106200000D02*
X114750000Y-106200000D01*
X163750000Y-105000000D02*
X162250000Y-105000000D01*
X163750000Y-105200000D02*
X163750000Y-105000000D01*
X164750000Y-106200000D02*
X163750000Y-105200000D01*
X167360000Y-104940000D02*
X166100000Y-106200000D01*
X166100000Y-106200000D02*
X164750000Y-106200000D01*
X163750000Y-55000000D02*
X162250000Y-55000000D01*
X163750000Y-55200000D02*
X163750000Y-55000000D01*
X164750000Y-56200000D02*
X163750000Y-55200000D01*
X167360000Y-54940000D02*
X166100000Y-56200000D01*
X166100000Y-56200000D02*
X164750000Y-56200000D01*
X113750000Y-55000000D02*
X112250000Y-55000000D01*
X116100000Y-56200000D02*
X114750000Y-56200000D01*
X114750000Y-56200000D02*
X113750000Y-55200000D01*
X113750000Y-55200000D02*
X113750000Y-55000000D01*
X117360000Y-54940000D02*
X116100000Y-56200000D01*
X98350000Y-106450000D02*
X98350000Y-103270000D01*
X98800000Y-101180000D02*
X98350000Y-101630000D01*
X100050000Y-101180000D02*
X98800000Y-101180000D01*
X98350000Y-103270000D02*
X98800000Y-103720000D01*
X98350000Y-101630000D02*
X98350000Y-103270000D01*
X98800000Y-103720000D02*
X100050000Y-103720000D01*
X98950000Y-107050000D02*
X98350000Y-106450000D01*
X97650000Y-108000000D02*
X98950000Y-108000000D01*
X98950000Y-108000000D02*
X98950000Y-107050000D01*
X148350000Y-106450000D02*
X148350000Y-103270000D01*
X148800000Y-101180000D02*
X148350000Y-101630000D01*
X150050000Y-101180000D02*
X148800000Y-101180000D01*
X148350000Y-103270000D02*
X148800000Y-103720000D01*
X148350000Y-101630000D02*
X148350000Y-103270000D01*
X148800000Y-103720000D02*
X150050000Y-103720000D01*
X148950000Y-107050000D02*
X148350000Y-106450000D01*
X147650000Y-108000000D02*
X148950000Y-108000000D01*
X148950000Y-108000000D02*
X148950000Y-107050000D01*
X148350000Y-56450000D02*
X148350000Y-53270000D01*
X148800000Y-51180000D02*
X148350000Y-51630000D01*
X150050000Y-51180000D02*
X148800000Y-51180000D01*
X148350000Y-53270000D02*
X148800000Y-53720000D01*
X148350000Y-51630000D02*
X148350000Y-53270000D01*
X148800000Y-53720000D02*
X150050000Y-53720000D01*
X148950000Y-57050000D02*
X148350000Y-56450000D01*
X147650000Y-58000000D02*
X148950000Y-58000000D01*
X148950000Y-58000000D02*
X148950000Y-57050000D01*
X97650000Y-58000000D02*
X98950000Y-58000000D01*
X98950000Y-58000000D02*
X98950000Y-57050000D01*
X98950000Y-57050000D02*
X98350000Y-56450000D01*
X98350000Y-56450000D02*
X98350000Y-53270000D01*
X100050000Y-51180000D02*
X98800000Y-51180000D01*
X98800000Y-51180000D02*
X98350000Y-51630000D01*
X98800000Y-53720000D02*
X100050000Y-53720000D01*
X98350000Y-51630000D02*
X98350000Y-53270000D01*
X98350000Y-53270000D02*
X98800000Y-53720000D01*
X95800000Y-118150000D02*
X97200000Y-118150000D01*
X97200000Y-118150000D02*
X97295999Y-118245999D01*
X145800000Y-118150000D02*
X147200000Y-118150000D01*
X147200000Y-118150000D02*
X147295999Y-118245999D01*
X145800000Y-68150000D02*
X147200000Y-68150000D01*
X147200000Y-68150000D02*
X147295999Y-68245999D01*
X95800000Y-68150000D02*
X97200000Y-68150000D01*
X97200000Y-68150000D02*
X97295999Y-68245999D01*
X138800000Y-95900000D02*
X138600000Y-95900000D01*
X138200000Y-95900000D02*
X138600000Y-95900000D01*
X188800000Y-95900000D02*
X188600000Y-95900000D01*
X188200000Y-95900000D02*
X188600000Y-95900000D01*
X188800000Y-45900000D02*
X188600000Y-45900000D01*
X188200000Y-45900000D02*
X188600000Y-45900000D01*
X138200000Y-45900000D02*
X138600000Y-45900000D01*
X138800000Y-45900000D02*
X138600000Y-45900000D01*
X135500000Y-95900000D02*
X135000000Y-95900000D01*
X134700000Y-95900000D02*
X135000000Y-95900000D01*
X185500000Y-95900000D02*
X185000000Y-95900000D01*
X184700000Y-95900000D02*
X185000000Y-95900000D01*
X185500000Y-45900000D02*
X185000000Y-45900000D01*
X184700000Y-45900000D02*
X185000000Y-45900000D01*
X135500000Y-45900000D02*
X135000000Y-45900000D01*
X134700000Y-45900000D02*
X135000000Y-45900000D01*
D32*
X117660000Y-94860000D02*
X117700000Y-94900000D01*
X115000000Y-94860000D02*
X117660000Y-94860000D01*
X167660000Y-94860000D02*
X167700000Y-94900000D01*
X165000000Y-94860000D02*
X167660000Y-94860000D01*
X167660000Y-44860000D02*
X167700000Y-44900000D01*
X165000000Y-44860000D02*
X167660000Y-44860000D01*
X115000000Y-44860000D02*
X117660000Y-44860000D01*
X117660000Y-44860000D02*
X117700000Y-44900000D01*
D31*
X112400000Y-107150000D02*
X111850000Y-107700000D01*
X111850000Y-107700000D02*
X111850000Y-108500000D01*
X114200000Y-107150000D02*
X112400000Y-107150000D01*
X111850000Y-108500000D02*
X113150000Y-109800000D01*
X114700000Y-109800000D02*
X116000000Y-111100000D01*
X116000000Y-111100000D02*
X116000000Y-112350000D01*
X113150000Y-109800000D02*
X114700000Y-109800000D01*
X162400000Y-107150000D02*
X161850000Y-107700000D01*
X161850000Y-107700000D02*
X161850000Y-108500000D01*
X164200000Y-107150000D02*
X162400000Y-107150000D01*
X161850000Y-108500000D02*
X163150000Y-109800000D01*
X164700000Y-109800000D02*
X166000000Y-111100000D01*
X166000000Y-111100000D02*
X166000000Y-112350000D01*
X163150000Y-109800000D02*
X164700000Y-109800000D01*
X162400000Y-57150000D02*
X161850000Y-57700000D01*
X161850000Y-57700000D02*
X161850000Y-58500000D01*
X164200000Y-57150000D02*
X162400000Y-57150000D01*
X161850000Y-58500000D02*
X163150000Y-59800000D01*
X164700000Y-59800000D02*
X166000000Y-61100000D01*
X166000000Y-61100000D02*
X166000000Y-62350000D01*
X163150000Y-59800000D02*
X164700000Y-59800000D01*
X111850000Y-57700000D02*
X111850000Y-58500000D01*
X111850000Y-58500000D02*
X113150000Y-59800000D01*
X113150000Y-59800000D02*
X114700000Y-59800000D01*
X114700000Y-59800000D02*
X116000000Y-61100000D01*
X116000000Y-61100000D02*
X116000000Y-62350000D01*
X114200000Y-57150000D02*
X112400000Y-57150000D01*
X112400000Y-57150000D02*
X111850000Y-57700000D01*
X94380000Y-103450000D02*
X94650000Y-103720000D01*
D33*
X95800000Y-103720000D02*
X94650000Y-103720000D01*
X97350000Y-104450000D02*
X96620000Y-103720000D01*
X96620000Y-103720000D02*
X95800000Y-103720000D01*
X97350000Y-106200000D02*
X97350000Y-104450000D01*
D31*
X92850000Y-103450000D02*
X94380000Y-103450000D01*
X97650000Y-109700000D02*
X99250000Y-109700000D01*
D33*
X97650000Y-109700000D02*
X97650000Y-109500000D01*
X97650000Y-109500000D02*
X97054002Y-108904001D01*
X97054002Y-108904001D02*
X97036799Y-108904001D01*
X97036799Y-108904001D02*
X96945999Y-108813201D01*
X96945999Y-108813201D02*
X96945999Y-106604001D01*
X96945999Y-106604001D02*
X97350000Y-106200000D01*
D31*
X144380000Y-103450000D02*
X144650000Y-103720000D01*
D33*
X145800000Y-103720000D02*
X144650000Y-103720000D01*
X147350000Y-104450000D02*
X146620000Y-103720000D01*
X146620000Y-103720000D02*
X145800000Y-103720000D01*
X147350000Y-106200000D02*
X147350000Y-104450000D01*
D31*
X142850000Y-103450000D02*
X144380000Y-103450000D01*
X147650000Y-109700000D02*
X149250000Y-109700000D01*
D33*
X147650000Y-109700000D02*
X147650000Y-109500000D01*
X147650000Y-109500000D02*
X147054002Y-108904001D01*
X147054002Y-108904001D02*
X147036799Y-108904001D01*
X147036799Y-108904001D02*
X146945999Y-108813201D01*
X146945999Y-108813201D02*
X146945999Y-106604001D01*
X146945999Y-106604001D02*
X147350000Y-106200000D01*
D31*
X144380000Y-53450000D02*
X144650000Y-53720000D01*
D33*
X145800000Y-53720000D02*
X144650000Y-53720000D01*
X147350000Y-54450000D02*
X146620000Y-53720000D01*
X146620000Y-53720000D02*
X145800000Y-53720000D01*
X147350000Y-56200000D02*
X147350000Y-54450000D01*
D31*
X142850000Y-53450000D02*
X144380000Y-53450000D01*
X147650000Y-59700000D02*
X149250000Y-59700000D01*
D33*
X147650000Y-59700000D02*
X147650000Y-59500000D01*
X147650000Y-59500000D02*
X147054002Y-58904001D01*
X147054002Y-58904001D02*
X147036799Y-58904001D01*
X147036799Y-58904001D02*
X146945999Y-58813201D01*
X146945999Y-58813201D02*
X146945999Y-56604001D01*
X146945999Y-56604001D02*
X147350000Y-56200000D01*
X97650000Y-59700000D02*
X97650000Y-59500000D01*
X97650000Y-59500000D02*
X97054002Y-58904001D01*
X97054002Y-58904001D02*
X97036799Y-58904001D01*
X96945999Y-58813201D02*
X96945999Y-56604001D01*
X97036799Y-58904001D02*
X96945999Y-58813201D01*
X96945999Y-56604001D02*
X97350000Y-56200000D01*
X97350000Y-56200000D02*
X97350000Y-54450000D01*
X97350000Y-54450000D02*
X96620000Y-53720000D01*
X96620000Y-53720000D02*
X95800000Y-53720000D01*
X95800000Y-53720000D02*
X94650000Y-53720000D01*
D31*
X92850000Y-53450000D02*
X94380000Y-53450000D01*
X94380000Y-53450000D02*
X94650000Y-53720000D01*
X97650000Y-59700000D02*
X99250000Y-59700000D01*
X130800000Y-120850000D02*
X139200000Y-120850000D01*
X130800000Y-120850000D02*
X129500000Y-120850000D01*
X122550000Y-118600000D02*
X121450000Y-118600000D01*
X129500000Y-120850000D02*
X127250000Y-118600000D01*
X127250000Y-118600000D02*
X122550000Y-118600000D01*
X180800000Y-120850000D02*
X189200000Y-120850000D01*
X180800000Y-120850000D02*
X179500000Y-120850000D01*
X172550000Y-118600000D02*
X171450000Y-118600000D01*
X179500000Y-120850000D02*
X177250000Y-118600000D01*
X177250000Y-118600000D02*
X172550000Y-118600000D01*
X180800000Y-70850000D02*
X189200000Y-70850000D01*
X180800000Y-70850000D02*
X179500000Y-70850000D01*
X172550000Y-68600000D02*
X171450000Y-68600000D01*
X179500000Y-70850000D02*
X177250000Y-68600000D01*
X177250000Y-68600000D02*
X172550000Y-68600000D01*
X130800000Y-70850000D02*
X139200000Y-70850000D01*
X130800000Y-70850000D02*
X129500000Y-70850000D01*
X129500000Y-70850000D02*
X127250000Y-68600000D01*
X127250000Y-68600000D02*
X122550000Y-68600000D01*
X122550000Y-68600000D02*
X121450000Y-68600000D01*
D33*
X125945999Y-100104001D02*
X125945999Y-101995999D01*
X125945999Y-101995999D02*
X126650000Y-102700000D01*
X126950000Y-99100000D02*
X125945999Y-100104001D01*
D31*
X126650000Y-103850000D02*
X126650000Y-102900000D01*
D33*
X126650000Y-102700000D02*
X126650000Y-102900000D01*
D31*
X126100000Y-104400000D02*
X126650000Y-103850000D01*
X126100000Y-113200000D02*
X126100000Y-104400000D01*
D33*
X126950000Y-98400000D02*
X126950000Y-99100000D01*
D31*
X121450000Y-116200000D02*
X123100000Y-116200000D01*
X123100000Y-116200000D02*
X126100000Y-113200000D01*
D33*
X175945999Y-100104001D02*
X175945999Y-101995999D01*
X175945999Y-101995999D02*
X176650000Y-102700000D01*
X176950000Y-99100000D02*
X175945999Y-100104001D01*
D31*
X176650000Y-103850000D02*
X176650000Y-102900000D01*
D33*
X176650000Y-102700000D02*
X176650000Y-102900000D01*
D31*
X176100000Y-104400000D02*
X176650000Y-103850000D01*
X176100000Y-113200000D02*
X176100000Y-104400000D01*
D33*
X176950000Y-98400000D02*
X176950000Y-99100000D01*
D31*
X171450000Y-116200000D02*
X173100000Y-116200000D01*
X173100000Y-116200000D02*
X176100000Y-113200000D01*
D33*
X175945999Y-50104001D02*
X175945999Y-51995999D01*
X175945999Y-51995999D02*
X176650000Y-52700000D01*
X176950000Y-49100000D02*
X175945999Y-50104001D01*
D31*
X176650000Y-53850000D02*
X176650000Y-52900000D01*
D33*
X176650000Y-52700000D02*
X176650000Y-52900000D01*
D31*
X176100000Y-54400000D02*
X176650000Y-53850000D01*
X176100000Y-63200000D02*
X176100000Y-54400000D01*
D33*
X176950000Y-48400000D02*
X176950000Y-49100000D01*
D31*
X171450000Y-66200000D02*
X173100000Y-66200000D01*
X173100000Y-66200000D02*
X176100000Y-63200000D01*
X126100000Y-63200000D02*
X126100000Y-54400000D01*
X126100000Y-54400000D02*
X126650000Y-53850000D01*
X126650000Y-53850000D02*
X126650000Y-52900000D01*
D33*
X126950000Y-48400000D02*
X126950000Y-49100000D01*
X126950000Y-49100000D02*
X125945999Y-50104001D01*
X125945999Y-50104001D02*
X125945999Y-51995999D01*
X126650000Y-52700000D02*
X126650000Y-52900000D01*
X125945999Y-51995999D02*
X126650000Y-52700000D01*
D31*
X121450000Y-66200000D02*
X123100000Y-66200000D01*
X123100000Y-66200000D02*
X126100000Y-63200000D01*
X127400000Y-101100000D02*
X126650000Y-101100000D01*
X127900000Y-101100000D02*
X127400000Y-101100000D01*
X124604002Y-104595998D02*
X124800000Y-104400000D01*
X124604002Y-113345998D02*
X124604002Y-104595998D01*
X121450000Y-115400000D02*
X122550000Y-115400000D01*
X122550000Y-115400000D02*
X124604002Y-113345998D01*
X129950000Y-101100000D02*
X127900000Y-101100000D01*
X131350000Y-99900000D02*
X131150000Y-99900000D01*
X131150000Y-99900000D02*
X129950000Y-101100000D01*
X128300000Y-102900000D02*
X128300000Y-101500000D01*
X128300000Y-101500000D02*
X127900000Y-101100000D01*
X177400000Y-101100000D02*
X176650000Y-101100000D01*
X177900000Y-101100000D02*
X177400000Y-101100000D01*
X174604002Y-104595998D02*
X174800000Y-104400000D01*
X174604002Y-113345998D02*
X174604002Y-104595998D01*
X171450000Y-115400000D02*
X172550000Y-115400000D01*
X172550000Y-115400000D02*
X174604002Y-113345998D01*
X179950000Y-101100000D02*
X177900000Y-101100000D01*
X181350000Y-99900000D02*
X181150000Y-99900000D01*
X181150000Y-99900000D02*
X179950000Y-101100000D01*
X178300000Y-102900000D02*
X178300000Y-101500000D01*
X178300000Y-101500000D02*
X177900000Y-101100000D01*
X177400000Y-51100000D02*
X176650000Y-51100000D01*
X177900000Y-51100000D02*
X177400000Y-51100000D01*
X174604002Y-54595998D02*
X174800000Y-54400000D01*
X174604002Y-63345998D02*
X174604002Y-54595998D01*
X171450000Y-65400000D02*
X172550000Y-65400000D01*
X172550000Y-65400000D02*
X174604002Y-63345998D01*
X179950000Y-51100000D02*
X177900000Y-51100000D01*
X181350000Y-49900000D02*
X181150000Y-49900000D01*
X181150000Y-49900000D02*
X179950000Y-51100000D01*
X178300000Y-52900000D02*
X178300000Y-51500000D01*
X178300000Y-51500000D02*
X177900000Y-51100000D01*
X128300000Y-52900000D02*
X128300000Y-51500000D01*
X128300000Y-51500000D02*
X127900000Y-51100000D01*
X129950000Y-51100000D02*
X127900000Y-51100000D01*
X127900000Y-51100000D02*
X127400000Y-51100000D01*
X124604002Y-63345998D02*
X124604002Y-54595998D01*
X124604002Y-54595998D02*
X124800000Y-54400000D01*
X131350000Y-49900000D02*
X131150000Y-49900000D01*
X127400000Y-51100000D02*
X126650000Y-51100000D01*
X131150000Y-49900000D02*
X129950000Y-51100000D01*
X121450000Y-65400000D02*
X122550000Y-65400000D01*
X122550000Y-65400000D02*
X124604002Y-63345998D01*
X94650000Y-106260000D02*
X93290000Y-106260000D01*
X93290000Y-106260000D02*
X93100000Y-106450000D01*
X109100000Y-106800000D02*
X109150000Y-106750000D01*
X107900000Y-106800000D02*
X109100000Y-106800000D01*
X144650000Y-106260000D02*
X143290000Y-106260000D01*
X143290000Y-106260000D02*
X143100000Y-106450000D01*
X159100000Y-106800000D02*
X159150000Y-106750000D01*
X157900000Y-106800000D02*
X159100000Y-106800000D01*
X144650000Y-56260000D02*
X143290000Y-56260000D01*
X143290000Y-56260000D02*
X143100000Y-56450000D01*
X159100000Y-56800000D02*
X159150000Y-56750000D01*
X157900000Y-56800000D02*
X159100000Y-56800000D01*
X107900000Y-56800000D02*
X109100000Y-56800000D01*
X109100000Y-56800000D02*
X109150000Y-56750000D01*
X94650000Y-56260000D02*
X93290000Y-56260000D01*
X93290000Y-56260000D02*
X93100000Y-56450000D01*
D34*
G36*
X139950000Y-45050000D02*
X130100000Y-45050000D01*
X130100000Y-43923291D01*
X130109783Y-43899731D01*
X130110217Y-43402450D01*
X130100000Y-43377723D01*
X130100000Y-41050000D01*
X139950000Y-41050000D01*
X139950000Y-45050000D01*
X139950000Y-45050000D01*
G37*
X139950000Y-45050000D02*
X130100000Y-45050000D01*
X130100000Y-43923291D01*
X130109783Y-43899731D01*
X130110217Y-43402450D01*
X130100000Y-43377723D01*
X130100000Y-41050000D01*
X139950000Y-41050000D01*
X139950000Y-45050000D01*
G36*
X189950000Y-45050000D02*
X180100000Y-45050000D01*
X180100000Y-43923291D01*
X180109783Y-43899731D01*
X180110217Y-43402450D01*
X180100000Y-43377723D01*
X180100000Y-41050000D01*
X189950000Y-41050000D01*
X189950000Y-45050000D01*
X189950000Y-45050000D01*
G37*
X189950000Y-45050000D02*
X180100000Y-45050000D01*
X180100000Y-43923291D01*
X180109783Y-43899731D01*
X180110217Y-43402450D01*
X180100000Y-43377723D01*
X180100000Y-41050000D01*
X189950000Y-41050000D01*
X189950000Y-45050000D01*
G36*
X189950000Y-95050000D02*
X180100000Y-95050000D01*
X180100000Y-93923291D01*
X180109783Y-93899731D01*
X180110217Y-93402450D01*
X180100000Y-93377723D01*
X180100000Y-91050000D01*
X189950000Y-91050000D01*
X189950000Y-95050000D01*
X189950000Y-95050000D01*
G37*
X189950000Y-95050000D02*
X180100000Y-95050000D01*
X180100000Y-93923291D01*
X180109783Y-93899731D01*
X180110217Y-93402450D01*
X180100000Y-93377723D01*
X180100000Y-91050000D01*
X189950000Y-91050000D01*
X189950000Y-95050000D01*
G36*
X139950000Y-95050000D02*
X130100000Y-95050000D01*
X130100000Y-93923291D01*
X130109783Y-93899731D01*
X130110217Y-93402450D01*
X130100000Y-93377723D01*
X130100000Y-91050000D01*
X139950000Y-91050000D01*
X139950000Y-95050000D01*
X139950000Y-95050000D01*
G37*
X139950000Y-95050000D02*
X130100000Y-95050000D01*
X130100000Y-93923291D01*
X130109783Y-93899731D01*
X130110217Y-93402450D01*
X130100000Y-93377723D01*
X130100000Y-91050000D01*
X139950000Y-91050000D01*
X139950000Y-95050000D01*
M02*
