G04 #@! TF.FileFunction,Copper,L2,Bot,Signal*
%FSLAX46Y46*%
G04 Gerber Fmt 4.6, Leading zero omitted, Abs format (unit mm)*
G04 Created by KiCad (PCBNEW 4.0.4+dfsg1-stable) date Sun Feb 26 01:11:18 2017*
%MOMM*%
%LPD*%
G01*
G04 APERTURE LIST*
%ADD10C,0.100000*%
%ADD11C,0.600000*%
%ADD12R,0.900000X1.700000*%
%ADD13C,4.400000*%
%ADD14C,2.000000*%
%ADD15C,1.300000*%
%ADD16R,0.700000X1.300000*%
%ADD17R,0.900000X0.500000*%
%ADD18R,3.600000X1.270000*%
%ADD19R,2.000000X2.000000*%
%ADD20C,1.000000*%
%ADD21C,0.700000*%
%ADD22C,0.500000*%
%ADD23C,0.300000*%
%ADD24C,0.200000*%
G04 APERTURE END LIST*
D10*
X118400000Y-118300000D02*
X167400000Y-118300000D01*
X118400000Y-69300000D02*
X118400000Y-118300000D01*
X167400000Y-69300000D02*
X118400000Y-69300000D01*
X167400000Y-118300000D02*
X167400000Y-69300000D01*
D11*
X163950000Y-73100000D03*
X165950000Y-73100000D03*
X157950000Y-73100000D03*
X161950000Y-73100000D03*
X159950000Y-73100000D03*
X163950000Y-70600000D03*
X165950000Y-70600000D03*
X157950000Y-70600000D03*
X161950000Y-70600000D03*
X159950000Y-70600000D03*
X165950000Y-71850000D03*
X163950000Y-71850000D03*
X157950000Y-71850000D03*
X159950000Y-71850000D03*
X161950000Y-71850000D03*
X164650000Y-77800000D03*
X162650000Y-77800000D03*
X160650000Y-77800000D03*
D12*
X153225000Y-99125000D03*
X156125000Y-99125000D03*
D13*
X127000000Y-73000000D03*
X162150000Y-91800000D03*
D14*
X146800000Y-81200000D03*
X141720000Y-81200000D03*
X144260000Y-83740000D03*
D15*
X132760000Y-89950000D03*
X132760000Y-72450000D03*
X155760000Y-72450000D03*
X155760000Y-89950000D03*
D16*
X125350000Y-81700000D03*
X123450000Y-81700000D03*
X162800000Y-75700000D03*
X164700000Y-75700000D03*
X125350000Y-79600000D03*
X123450000Y-79600000D03*
D14*
X121100000Y-74070000D03*
X121100000Y-71530000D03*
D17*
X121600000Y-77350000D03*
X121600000Y-78850000D03*
X121500000Y-84500000D03*
X121500000Y-83000000D03*
D18*
X143300000Y-105460000D03*
X143300000Y-108000000D03*
X143300000Y-110540000D03*
X149700000Y-105460000D03*
X149700000Y-108000000D03*
X149675000Y-113080000D03*
X149700000Y-110540000D03*
X143325000Y-113080000D03*
D19*
X156100000Y-113980000D03*
D14*
X153560000Y-113980000D03*
X156100000Y-111440000D03*
X153560000Y-111440000D03*
X156100000Y-108900000D03*
X153560000Y-108900000D03*
X156100000Y-106360000D03*
X153560000Y-106360000D03*
D13*
X127000000Y-110000000D03*
D20*
X162150000Y-96800000D03*
X164350000Y-111900000D03*
D21*
X166500000Y-75700000D03*
D20*
X148700000Y-105500000D03*
X142900000Y-94800000D03*
X145900000Y-84900000D03*
X137400000Y-88300000D03*
X157800000Y-85050000D03*
X150250000Y-89750006D03*
X129500000Y-93500000D03*
X119750000Y-80500000D03*
X124900000Y-98400000D03*
X149950000Y-88150000D03*
X143300000Y-105460000D03*
X147250000Y-86000008D03*
X158400000Y-102100000D03*
X145499998Y-94500000D03*
X160100000Y-75500000D03*
X153200000Y-71300000D03*
X121750000Y-86499988D03*
X128750000Y-82000000D03*
X132000000Y-85500000D03*
X136250000Y-70500000D03*
X142500000Y-71500000D03*
X145250000Y-75750000D03*
X135200000Y-78800000D03*
X137500000Y-78750000D03*
X133900000Y-80999998D03*
X129500000Y-77500000D03*
X128500000Y-85500000D03*
X123000000Y-84000000D03*
X152000000Y-99000000D03*
X157300000Y-98300000D03*
X120000000Y-78410000D03*
X124500000Y-77450002D03*
X121500000Y-76000000D03*
X133500000Y-86250000D03*
X140100000Y-108400000D03*
X137200000Y-93195980D03*
X137600000Y-106300000D03*
X135400000Y-103700000D03*
X137300000Y-96100000D03*
X136500002Y-98500000D03*
X141900000Y-101400000D03*
X146914475Y-89358746D03*
X156940000Y-102870000D03*
X151654013Y-103800000D03*
X146100000Y-98000000D03*
X150100000Y-103800002D03*
X147800000Y-100800000D03*
X119750000Y-82250000D03*
X155200000Y-81700000D03*
X151700000Y-83200000D03*
X134800000Y-85600000D03*
X120000000Y-85250000D03*
D22*
X164700000Y-75700000D02*
X164700000Y-71900000D01*
X164700000Y-71900000D02*
X164000000Y-71200000D01*
X149700000Y-105460000D02*
X148740000Y-105460000D01*
X148740000Y-105460000D02*
X148700000Y-105500000D01*
X150250000Y-89750006D02*
X147949994Y-89750006D01*
X147949994Y-89750006D02*
X143399999Y-94300001D01*
X143399999Y-94300001D02*
X142900000Y-94800000D01*
X123450000Y-79600000D02*
X123450000Y-81700000D01*
X119750000Y-80500000D02*
X122550000Y-80500000D01*
X122550000Y-80500000D02*
X123450000Y-79600000D01*
X150000000Y-88200000D02*
X149950000Y-88150000D01*
X149399992Y-88150000D02*
X149950000Y-88150000D01*
X147250000Y-86000008D02*
X149399992Y-88150000D01*
X143300000Y-105460000D02*
X144465000Y-105460000D01*
X158400000Y-102100000D02*
X157850002Y-101550002D01*
X157850002Y-101550002D02*
X152550000Y-101550002D01*
X145499998Y-94500000D02*
X152550000Y-101550002D01*
X152550000Y-101550002D02*
X153560000Y-102560002D01*
X153560000Y-102560002D02*
X153560000Y-103740000D01*
X153560000Y-103740000D02*
X153560000Y-106360000D01*
X136250000Y-70500000D02*
X136749999Y-70000001D01*
X136749999Y-70000001D02*
X151900001Y-70000001D01*
X151900001Y-70000001D02*
X152200000Y-70300000D01*
X152200000Y-70300000D02*
X153200000Y-71300000D01*
X162800000Y-75700000D02*
X160300000Y-75700000D01*
X160300000Y-75700000D02*
X160100000Y-75500000D01*
X129245974Y-86504002D02*
X129249988Y-86499988D01*
X121750000Y-86499988D02*
X127764064Y-86499988D01*
X127764064Y-86499988D02*
X127768078Y-86504002D01*
X127768078Y-86504002D02*
X129245974Y-86504002D01*
X129249988Y-86499988D02*
X130999988Y-86499988D01*
X130999988Y-86499988D02*
X131000000Y-86500000D01*
X129249988Y-86499988D02*
X129250000Y-86500000D01*
X129250000Y-86500000D02*
X129750000Y-86000000D01*
X129750000Y-86000000D02*
X129750000Y-83000000D01*
X129750000Y-83000000D02*
X129249999Y-82499999D01*
X129249999Y-82499999D02*
X128750000Y-82000000D01*
X132000000Y-85500000D02*
X131000000Y-86500000D01*
X128450000Y-81700000D02*
X128750000Y-82000000D01*
X125350000Y-81700000D02*
X128450000Y-81700000D01*
X125350000Y-79600000D02*
X125350000Y-81700000D01*
X145250000Y-75750000D02*
X142500000Y-73000000D01*
X142500000Y-73000000D02*
X142500000Y-71500000D01*
X135250000Y-78750000D02*
X135200000Y-78800000D01*
X137500000Y-78750000D02*
X135250000Y-78750000D01*
X133192894Y-80999998D02*
X133900000Y-80999998D01*
X132999998Y-80999998D02*
X133192894Y-80999998D01*
X129500000Y-77500000D02*
X132999998Y-80999998D01*
X123000000Y-84000000D02*
X124500000Y-85500000D01*
X124500000Y-85500000D02*
X127792894Y-85500000D01*
X127792894Y-85500000D02*
X128500000Y-85500000D01*
X152125000Y-99125000D02*
X152000000Y-99000000D01*
X153225000Y-99125000D02*
X152125000Y-99125000D01*
X157300000Y-98300000D02*
X156950000Y-98300000D01*
X156950000Y-98300000D02*
X156125000Y-99125000D01*
X156075000Y-99175000D02*
X156125000Y-99125000D01*
X121600000Y-78850000D02*
X120440000Y-78850000D01*
X120440000Y-78850000D02*
X120000000Y-78410000D01*
X133500000Y-85292894D02*
X125657108Y-77450002D01*
X133500000Y-86250000D02*
X133500000Y-85292894D01*
X125207106Y-77450002D02*
X124500000Y-77450002D01*
X125657108Y-77450002D02*
X125207106Y-77450002D01*
X121600000Y-77350000D02*
X121600000Y-76100000D01*
X121600000Y-76100000D02*
X121500000Y-76000000D01*
X149700000Y-108000000D02*
X147400000Y-108000000D01*
X147400000Y-108000000D02*
X146100000Y-109300000D01*
X146100000Y-109300000D02*
X141000000Y-109300000D01*
X141000000Y-109300000D02*
X140100000Y-108400000D01*
X149700000Y-108000000D02*
X149096000Y-108000000D01*
X143300000Y-108000000D02*
X142000000Y-108000000D01*
X142000000Y-108000000D02*
X140000000Y-106000000D01*
X140000000Y-106000000D02*
X140000000Y-95995980D01*
X140000000Y-95995980D02*
X137699999Y-93695979D01*
X137699999Y-93695979D02*
X137200000Y-93195980D01*
X149700000Y-110540000D02*
X147400000Y-110540000D01*
X140700000Y-111800000D02*
X137600000Y-108700000D01*
X147400000Y-110540000D02*
X146140000Y-111800000D01*
X146140000Y-111800000D02*
X140700000Y-111800000D01*
X137600000Y-108700000D02*
X137600000Y-106300000D01*
X149700000Y-110540000D02*
X149604511Y-110635489D01*
X149675000Y-113080000D02*
X147375000Y-113080000D01*
X147375000Y-113080000D02*
X146155000Y-114300000D01*
X146155000Y-114300000D02*
X140700000Y-114300000D01*
X140700000Y-114300000D02*
X135400000Y-109000000D01*
X135400000Y-109000000D02*
X135400000Y-103700000D01*
X149675000Y-113080000D02*
X148510000Y-113080000D01*
X137799999Y-96599999D02*
X137300000Y-96100000D01*
X138604001Y-108504001D02*
X138604001Y-97404001D01*
X140640000Y-110540000D02*
X138604001Y-108504001D01*
X143300000Y-110540000D02*
X140640000Y-110540000D01*
X138604001Y-97404001D02*
X137799999Y-96599999D01*
X143325000Y-113080000D02*
X140780000Y-113080000D01*
X140780000Y-113080000D02*
X136500000Y-108800000D01*
X136500000Y-108800000D02*
X136500000Y-99207108D01*
X136500000Y-99207108D02*
X136500002Y-99207106D01*
X136500002Y-99207106D02*
X136500002Y-98500000D01*
X136500002Y-98500002D02*
X136500002Y-98500000D01*
X136700000Y-98700000D02*
X136500002Y-98500002D01*
X141400000Y-100192894D02*
X141400000Y-92600000D01*
X141400000Y-92600000D02*
X144641254Y-89358746D01*
X141900000Y-101400000D02*
X141900000Y-100692894D01*
X141900000Y-100692894D02*
X141400000Y-100192894D01*
X146914475Y-89358746D02*
X144641254Y-89358746D01*
X157649999Y-107450001D02*
X157649999Y-103579999D01*
X157439999Y-103369999D02*
X156940000Y-102870000D01*
X157649999Y-103579999D02*
X157439999Y-103369999D01*
X156140000Y-108960000D02*
X157649999Y-107450001D01*
X146100000Y-98000000D02*
X146561119Y-98000000D01*
X151654013Y-103092894D02*
X151654013Y-103800000D01*
X146561119Y-98000000D02*
X151654013Y-103092894D01*
X150100000Y-103100000D02*
X150100000Y-103800002D01*
X147800000Y-100800000D02*
X150100000Y-103100000D01*
X121500000Y-83000000D02*
X120500000Y-83000000D01*
X120500000Y-83000000D02*
X119750000Y-82250000D01*
X151700000Y-83200000D02*
X153700000Y-83200000D01*
X153700000Y-83200000D02*
X155200000Y-81700000D01*
X134400000Y-88000000D02*
X134800000Y-87600000D01*
X134800000Y-87600000D02*
X134800000Y-85600000D01*
X120000000Y-85250000D02*
X120000000Y-86700000D01*
X120000000Y-86700000D02*
X121300000Y-88000000D01*
X121300000Y-88000000D02*
X134400000Y-88000000D01*
X120000000Y-85250000D02*
X120750000Y-85250000D01*
X120750000Y-85250000D02*
X121500000Y-84500000D01*
D23*
G36*
X120192379Y-70103832D02*
X120097016Y-70379937D01*
X121100000Y-71382922D01*
X122102984Y-70379937D01*
X122007621Y-70103832D01*
X121482733Y-69900000D01*
X135364826Y-69900000D01*
X135360372Y-69904446D01*
X135200182Y-70290226D01*
X135199818Y-70707942D01*
X135359334Y-71094000D01*
X135654446Y-71389628D01*
X136040226Y-71549818D01*
X136457942Y-71550182D01*
X136844000Y-71390666D01*
X137139628Y-71095554D01*
X137262352Y-70800001D01*
X141715000Y-70800001D01*
X141610372Y-70904446D01*
X141450182Y-71290226D01*
X141449818Y-71707942D01*
X141609334Y-72094000D01*
X141700000Y-72184825D01*
X141700000Y-73000000D01*
X141738776Y-73194939D01*
X141760896Y-73306147D01*
X141934315Y-73565685D01*
X144199928Y-75831299D01*
X144199818Y-75957942D01*
X144359334Y-76344000D01*
X144654446Y-76639628D01*
X145040226Y-76799818D01*
X145457942Y-76800182D01*
X145844000Y-76640666D01*
X146139628Y-76345554D01*
X146299818Y-75959774D01*
X146300037Y-75707942D01*
X159049818Y-75707942D01*
X159209334Y-76094000D01*
X159504446Y-76389628D01*
X159890226Y-76549818D01*
X160307942Y-76550182D01*
X160429392Y-76500000D01*
X161917449Y-76500000D01*
X161927576Y-76553818D01*
X162048032Y-76741012D01*
X162231827Y-76866594D01*
X162450000Y-76910775D01*
X163150000Y-76910775D01*
X163353818Y-76872424D01*
X163541012Y-76751968D01*
X163666594Y-76568173D01*
X163692000Y-76442714D01*
X163692000Y-76480885D01*
X163792175Y-76722727D01*
X163977273Y-76907826D01*
X164219116Y-77008000D01*
X164431500Y-77008000D01*
X164596000Y-76843500D01*
X164596000Y-75804000D01*
X164804000Y-75804000D01*
X164804000Y-76843500D01*
X164968500Y-77008000D01*
X165180884Y-77008000D01*
X165422727Y-76907826D01*
X165607825Y-76722727D01*
X165708000Y-76480885D01*
X165708000Y-75968500D01*
X165543500Y-75804000D01*
X164804000Y-75804000D01*
X164596000Y-75804000D01*
X164576000Y-75804000D01*
X164576000Y-75596000D01*
X164596000Y-75596000D01*
X164596000Y-74556500D01*
X164804000Y-74556500D01*
X164804000Y-75596000D01*
X165543500Y-75596000D01*
X165708000Y-75431500D01*
X165708000Y-74919115D01*
X165607825Y-74677273D01*
X165422727Y-74492174D01*
X165180884Y-74392000D01*
X164968500Y-74392000D01*
X164804000Y-74556500D01*
X164596000Y-74556500D01*
X164431500Y-74392000D01*
X164219116Y-74392000D01*
X163977273Y-74492174D01*
X163792175Y-74677273D01*
X163692000Y-74919115D01*
X163692000Y-74950219D01*
X163672424Y-74846182D01*
X163551968Y-74658988D01*
X163368173Y-74533406D01*
X163150000Y-74489225D01*
X162450000Y-74489225D01*
X162246182Y-74527576D01*
X162058988Y-74648032D01*
X161933406Y-74831827D01*
X161919601Y-74900000D01*
X160984676Y-74900000D01*
X160695554Y-74610372D01*
X160309774Y-74450182D01*
X159892058Y-74449818D01*
X159506000Y-74609334D01*
X159210372Y-74904446D01*
X159050182Y-75290226D01*
X159049818Y-75707942D01*
X146300037Y-75707942D01*
X146300182Y-75542058D01*
X146140666Y-75156000D01*
X145845554Y-74860372D01*
X145459774Y-74700182D01*
X145331441Y-74700070D01*
X143338823Y-72707452D01*
X154459774Y-72707452D01*
X154657271Y-73185429D01*
X155022647Y-73551444D01*
X155500279Y-73749774D01*
X156017452Y-73750226D01*
X156495429Y-73552729D01*
X156861444Y-73187353D01*
X157059774Y-72709721D01*
X157060226Y-72192548D01*
X156862729Y-71714571D01*
X156497353Y-71348556D01*
X156019721Y-71150226D01*
X155502548Y-71149774D01*
X155024571Y-71347271D01*
X154658556Y-71712647D01*
X154460226Y-72190279D01*
X154459774Y-72707452D01*
X143338823Y-72707452D01*
X143300000Y-72668630D01*
X143300000Y-72185026D01*
X143389628Y-72095554D01*
X143549818Y-71709774D01*
X143550182Y-71292058D01*
X143390666Y-70906000D01*
X143284852Y-70800001D01*
X151568630Y-70800001D01*
X151634315Y-70865686D01*
X151634318Y-70865688D01*
X152149928Y-71381299D01*
X152149818Y-71507942D01*
X152309334Y-71894000D01*
X152604446Y-72189628D01*
X152990226Y-72349818D01*
X153407942Y-72350182D01*
X153794000Y-72190666D01*
X154089628Y-71895554D01*
X154249818Y-71509774D01*
X154250182Y-71092058D01*
X154090666Y-70706000D01*
X153795554Y-70410372D01*
X153409774Y-70250182D01*
X153281441Y-70250070D01*
X152931370Y-69900000D01*
X166800000Y-69900000D01*
X166800000Y-117700000D01*
X130050000Y-117700000D01*
X130050000Y-103907942D01*
X134349818Y-103907942D01*
X134509334Y-104294000D01*
X134600000Y-104384825D01*
X134600000Y-109000000D01*
X134638942Y-109195775D01*
X134660896Y-109306147D01*
X134834315Y-109565685D01*
X140134315Y-114865686D01*
X140393853Y-115039104D01*
X140700000Y-115100000D01*
X146155000Y-115100000D01*
X146461147Y-115039104D01*
X146720685Y-114865685D01*
X147477385Y-114108986D01*
X147656827Y-114231594D01*
X147875000Y-114275775D01*
X151475000Y-114275775D01*
X151678818Y-114237424D01*
X151866012Y-114116968D01*
X151991594Y-113933173D01*
X152010120Y-113841686D01*
X152009732Y-114286961D01*
X152245208Y-114856857D01*
X152680849Y-115293260D01*
X153250333Y-115529730D01*
X153866961Y-115530268D01*
X154436857Y-115294792D01*
X154494388Y-115237361D01*
X154542175Y-115352727D01*
X154727273Y-115537826D01*
X154969116Y-115638000D01*
X155831500Y-115638000D01*
X155996000Y-115473500D01*
X155996000Y-114084000D01*
X156204000Y-114084000D01*
X156204000Y-115473500D01*
X156368500Y-115638000D01*
X157230884Y-115638000D01*
X157472727Y-115537826D01*
X157657825Y-115352727D01*
X157758000Y-115110885D01*
X157758000Y-114248500D01*
X157593500Y-114084000D01*
X156204000Y-114084000D01*
X155996000Y-114084000D01*
X155976000Y-114084000D01*
X155976000Y-113876000D01*
X155996000Y-113876000D01*
X155996000Y-113856000D01*
X156204000Y-113856000D01*
X156204000Y-113876000D01*
X157593500Y-113876000D01*
X157758000Y-113711500D01*
X157758000Y-112849115D01*
X157657825Y-112607273D01*
X157472727Y-112422174D01*
X157357760Y-112374554D01*
X157413260Y-112319151D01*
X157649730Y-111749667D01*
X157650268Y-111133039D01*
X157414792Y-110563143D01*
X157022032Y-110169696D01*
X157413260Y-109779151D01*
X157649730Y-109209667D01*
X157650268Y-108593039D01*
X157646778Y-108584592D01*
X158215684Y-108015686D01*
X158389103Y-107756148D01*
X158401494Y-107693853D01*
X158449999Y-107450001D01*
X158449999Y-103579999D01*
X158389103Y-103273852D01*
X158343767Y-103206002D01*
X158306294Y-103149919D01*
X158607942Y-103150182D01*
X158994000Y-102990666D01*
X159289628Y-102695554D01*
X159449818Y-102309774D01*
X159450182Y-101892058D01*
X159290666Y-101506000D01*
X158995554Y-101210372D01*
X158609774Y-101050182D01*
X158481440Y-101050070D01*
X158415687Y-100984317D01*
X158156149Y-100810898D01*
X158123712Y-100804446D01*
X157850002Y-100750002D01*
X152881371Y-100750002D01*
X152639757Y-100508388D01*
X152775000Y-100535775D01*
X153675000Y-100535775D01*
X153878818Y-100497424D01*
X154066012Y-100376968D01*
X154191594Y-100193173D01*
X154235775Y-99975000D01*
X154235775Y-98275000D01*
X155114225Y-98275000D01*
X155114225Y-99975000D01*
X155152576Y-100178818D01*
X155273032Y-100366012D01*
X155456827Y-100491594D01*
X155675000Y-100535775D01*
X156575000Y-100535775D01*
X156778818Y-100497424D01*
X156966012Y-100376968D01*
X157091594Y-100193173D01*
X157135775Y-99975000D01*
X157135775Y-99349858D01*
X157507942Y-99350182D01*
X157894000Y-99190666D01*
X158189628Y-98895554D01*
X158349818Y-98509774D01*
X158350182Y-98092058D01*
X158190666Y-97706000D01*
X157895554Y-97410372D01*
X157509774Y-97250182D01*
X157092058Y-97249818D01*
X156706000Y-97409334D01*
X156410372Y-97704446D01*
X156406311Y-97714225D01*
X155675000Y-97714225D01*
X155471182Y-97752576D01*
X155283988Y-97873032D01*
X155158406Y-98056827D01*
X155114225Y-98275000D01*
X154235775Y-98275000D01*
X154197424Y-98071182D01*
X154076968Y-97883988D01*
X153893173Y-97758406D01*
X153675000Y-97714225D01*
X152775000Y-97714225D01*
X152571182Y-97752576D01*
X152383988Y-97873032D01*
X152304420Y-97989483D01*
X152209774Y-97950182D01*
X151792058Y-97949818D01*
X151406000Y-98109334D01*
X151110372Y-98404446D01*
X150950182Y-98790226D01*
X150950157Y-98818788D01*
X146550070Y-94418702D01*
X146550180Y-94292058D01*
X146390664Y-93906000D01*
X146095552Y-93610372D01*
X145709772Y-93450182D01*
X145292056Y-93449818D01*
X144905998Y-93609334D01*
X144610370Y-93904446D01*
X144450180Y-94290226D01*
X144449816Y-94707942D01*
X144609332Y-95094000D01*
X144904444Y-95389628D01*
X145290224Y-95549818D01*
X145418558Y-95549930D01*
X151984314Y-102115687D01*
X151984317Y-102115689D01*
X152760000Y-102891373D01*
X152760000Y-105013451D01*
X152683143Y-105045208D01*
X152246740Y-105480849D01*
X152148042Y-105718542D01*
X151993500Y-105564000D01*
X149804000Y-105564000D01*
X149804000Y-106588500D01*
X149968500Y-106753000D01*
X151630885Y-106753000D01*
X151872727Y-106652825D01*
X152009864Y-106515689D01*
X152009732Y-106666961D01*
X152245208Y-107236857D01*
X152637968Y-107630304D01*
X152246740Y-108020849D01*
X152060775Y-108468703D01*
X152060775Y-107365000D01*
X152022424Y-107161182D01*
X151901968Y-106973988D01*
X151718173Y-106848406D01*
X151500000Y-106804225D01*
X148050000Y-106804225D01*
X148050000Y-106753000D01*
X149431500Y-106753000D01*
X149596000Y-106588500D01*
X149596000Y-105564000D01*
X147406500Y-105564000D01*
X147242000Y-105728500D01*
X147242000Y-105950000D01*
X145660775Y-105950000D01*
X145660775Y-104825000D01*
X145622424Y-104621182D01*
X145501968Y-104433988D01*
X145318173Y-104308406D01*
X145100000Y-104264225D01*
X141500000Y-104264225D01*
X141296182Y-104302576D01*
X141108988Y-104423032D01*
X140983406Y-104606827D01*
X140939225Y-104825000D01*
X140939225Y-105807855D01*
X140800000Y-105668630D01*
X140800000Y-100707223D01*
X140834315Y-100758579D01*
X140972174Y-100896438D01*
X140850182Y-101190226D01*
X140849818Y-101607942D01*
X141009334Y-101994000D01*
X141304446Y-102289628D01*
X141690226Y-102449818D01*
X142107942Y-102450182D01*
X142494000Y-102290666D01*
X142789628Y-101995554D01*
X142949818Y-101609774D01*
X142950182Y-101192058D01*
X142790666Y-100806000D01*
X142700000Y-100715175D01*
X142700000Y-100692894D01*
X142639104Y-100386747D01*
X142614429Y-100349818D01*
X142465686Y-100127209D01*
X142200000Y-99861524D01*
X142200000Y-98207942D01*
X145049818Y-98207942D01*
X145209334Y-98594000D01*
X145504446Y-98889628D01*
X145890226Y-99049818D01*
X146307942Y-99050182D01*
X146429644Y-98999896D01*
X147300172Y-99870423D01*
X147206000Y-99909334D01*
X146910372Y-100204446D01*
X146750182Y-100590226D01*
X146749818Y-101007942D01*
X146909334Y-101394000D01*
X147204446Y-101689628D01*
X147590226Y-101849818D01*
X147718560Y-101849930D01*
X149170089Y-103301460D01*
X149050182Y-103590228D01*
X149049818Y-104007944D01*
X149115539Y-104167000D01*
X147769115Y-104167000D01*
X147527273Y-104267175D01*
X147342174Y-104452273D01*
X147242000Y-104694116D01*
X147242000Y-105191500D01*
X147406500Y-105356000D01*
X149596000Y-105356000D01*
X149596000Y-105336000D01*
X149804000Y-105336000D01*
X149804000Y-105356000D01*
X151993500Y-105356000D01*
X152158000Y-105191500D01*
X152158000Y-104727859D01*
X152248013Y-104690666D01*
X152543641Y-104395554D01*
X152703831Y-104009774D01*
X152704195Y-103592058D01*
X152544679Y-103206000D01*
X152454013Y-103115175D01*
X152454013Y-103092894D01*
X152393117Y-102786747D01*
X152368442Y-102749818D01*
X152219699Y-102527209D01*
X147126804Y-97434315D01*
X146867266Y-97260896D01*
X146840501Y-97255572D01*
X146695554Y-97110372D01*
X146309774Y-96950182D01*
X145892058Y-96949818D01*
X145506000Y-97109334D01*
X145210372Y-97404446D01*
X145050182Y-97790226D01*
X145049818Y-98207942D01*
X142200000Y-98207942D01*
X142200000Y-92931370D01*
X142786761Y-92344609D01*
X159399523Y-92344609D01*
X159817304Y-93355715D01*
X160590216Y-94129977D01*
X161600591Y-94549522D01*
X162694609Y-94550477D01*
X163705715Y-94132696D01*
X164479977Y-93359784D01*
X164899522Y-92349409D01*
X164900477Y-91255391D01*
X164482696Y-90244285D01*
X163709784Y-89470023D01*
X162699409Y-89050478D01*
X161605391Y-89049523D01*
X160594285Y-89467304D01*
X159820023Y-90240216D01*
X159400478Y-91250591D01*
X159399523Y-92344609D01*
X142786761Y-92344609D01*
X144972625Y-90158746D01*
X146229449Y-90158746D01*
X146318921Y-90248374D01*
X146704701Y-90408564D01*
X147122417Y-90408928D01*
X147508475Y-90249412D01*
X147550508Y-90207452D01*
X154459774Y-90207452D01*
X154657271Y-90685429D01*
X155022647Y-91051444D01*
X155500279Y-91249774D01*
X156017452Y-91250226D01*
X156495429Y-91052729D01*
X156861444Y-90687353D01*
X157059774Y-90209721D01*
X157060226Y-89692548D01*
X156862729Y-89214571D01*
X156497353Y-88848556D01*
X156019721Y-88650226D01*
X155502548Y-88649774D01*
X155024571Y-88847271D01*
X154658556Y-89212647D01*
X154460226Y-89690279D01*
X154459774Y-90207452D01*
X147550508Y-90207452D01*
X147804103Y-89954300D01*
X147964293Y-89568520D01*
X147964657Y-89150804D01*
X147805141Y-88764746D01*
X147510029Y-88469118D01*
X147124249Y-88308928D01*
X146706533Y-88308564D01*
X146320475Y-88468080D01*
X146229650Y-88558746D01*
X144641254Y-88558746D01*
X144335107Y-88619642D01*
X144075568Y-88793061D01*
X140834315Y-92034315D01*
X140660896Y-92293853D01*
X140600000Y-92600000D01*
X140600000Y-95481649D01*
X140565686Y-95430295D01*
X138265686Y-93130296D01*
X138265684Y-93130293D01*
X138250072Y-93114681D01*
X138250182Y-92988038D01*
X138090666Y-92601980D01*
X137795554Y-92306352D01*
X137409774Y-92146162D01*
X136992058Y-92145798D01*
X136606000Y-92305314D01*
X136310372Y-92600426D01*
X136150182Y-92986206D01*
X136149818Y-93403922D01*
X136309334Y-93789980D01*
X136604446Y-94085608D01*
X136990226Y-94245798D01*
X137118559Y-94245910D01*
X137134313Y-94261664D01*
X137134316Y-94261666D01*
X139200000Y-96327351D01*
X139200000Y-96883683D01*
X139169687Y-96838316D01*
X138365686Y-96034316D01*
X138365684Y-96034313D01*
X138350072Y-96018701D01*
X138350182Y-95892058D01*
X138190666Y-95506000D01*
X137895554Y-95210372D01*
X137509774Y-95050182D01*
X137092058Y-95049818D01*
X136706000Y-95209334D01*
X136410372Y-95504446D01*
X136250182Y-95890226D01*
X136249818Y-96307942D01*
X136409334Y-96694000D01*
X136704446Y-96989628D01*
X137090226Y-97149818D01*
X137218559Y-97149930D01*
X137234313Y-97165684D01*
X137234316Y-97165686D01*
X137804001Y-97735372D01*
X137804001Y-105250177D01*
X137392058Y-105249818D01*
X137300000Y-105287856D01*
X137300000Y-99214331D01*
X137358801Y-99126329D01*
X137389630Y-99095554D01*
X137406483Y-99054969D01*
X137439104Y-99006147D01*
X137450458Y-98949063D01*
X137549820Y-98709774D01*
X137550184Y-98292058D01*
X137390668Y-97906000D01*
X137095556Y-97610372D01*
X136709776Y-97450182D01*
X136292060Y-97449818D01*
X135906002Y-97609334D01*
X135610374Y-97904446D01*
X135450184Y-98290226D01*
X135449820Y-98707942D01*
X135609336Y-99094000D01*
X135700002Y-99184825D01*
X135700002Y-99207098D01*
X135700000Y-99207108D01*
X135700000Y-102687647D01*
X135609774Y-102650182D01*
X135192058Y-102649818D01*
X134806000Y-102809334D01*
X134510372Y-103104446D01*
X134350182Y-103490226D01*
X134349818Y-103907942D01*
X130050000Y-103907942D01*
X130050000Y-99000000D01*
X130039742Y-98945481D01*
X130007521Y-98895409D01*
X129958358Y-98861818D01*
X129900000Y-98850000D01*
X119000000Y-98850000D01*
X119000000Y-85579392D01*
X119109334Y-85844000D01*
X119200000Y-85934825D01*
X119200000Y-86700000D01*
X119257506Y-86989104D01*
X119260896Y-87006147D01*
X119434315Y-87265685D01*
X120734315Y-88565686D01*
X120993853Y-88739104D01*
X121300000Y-88800000D01*
X132138975Y-88800000D01*
X132024571Y-88847271D01*
X131658556Y-89212647D01*
X131460226Y-89690279D01*
X131459774Y-90207452D01*
X131657271Y-90685429D01*
X132022647Y-91051444D01*
X132500279Y-91249774D01*
X133017452Y-91250226D01*
X133495429Y-91052729D01*
X133861444Y-90687353D01*
X134059774Y-90209721D01*
X134060226Y-89692548D01*
X133862729Y-89214571D01*
X133497353Y-88848556D01*
X133380417Y-88800000D01*
X134400000Y-88800000D01*
X134706147Y-88739104D01*
X134965685Y-88565685D01*
X135365685Y-88165686D01*
X135539104Y-87906147D01*
X135551495Y-87843853D01*
X135600000Y-87600000D01*
X135600000Y-86285026D01*
X135677210Y-86207950D01*
X146199818Y-86207950D01*
X146359334Y-86594008D01*
X146654446Y-86889636D01*
X147040226Y-87049826D01*
X147168560Y-87049938D01*
X148834307Y-88715686D01*
X148960492Y-88800000D01*
X149093845Y-88889104D01*
X149231522Y-88916490D01*
X149354446Y-89039628D01*
X149740226Y-89199818D01*
X150157942Y-89200182D01*
X150544000Y-89040666D01*
X150839628Y-88745554D01*
X150999818Y-88359774D01*
X151000182Y-87942058D01*
X150840666Y-87556000D01*
X150545554Y-87260372D01*
X150159774Y-87100182D01*
X149742058Y-87099818D01*
X149557457Y-87176094D01*
X148300072Y-85918709D01*
X148300182Y-85792066D01*
X148140666Y-85406008D01*
X147845554Y-85110380D01*
X147459774Y-84950190D01*
X147042058Y-84949826D01*
X146656000Y-85109342D01*
X146360372Y-85404454D01*
X146200182Y-85790234D01*
X146199818Y-86207950D01*
X135677210Y-86207950D01*
X135689628Y-86195554D01*
X135849818Y-85809774D01*
X135850182Y-85392058D01*
X135690666Y-85006000D01*
X135395554Y-84710372D01*
X135009774Y-84550182D01*
X134592058Y-84549818D01*
X134206000Y-84709334D01*
X134114664Y-84800510D01*
X134065685Y-84727208D01*
X133385438Y-84046961D01*
X142709732Y-84046961D01*
X142945208Y-84616857D01*
X143380849Y-85053260D01*
X143950333Y-85289730D01*
X144566961Y-85290268D01*
X145136857Y-85054792D01*
X145573260Y-84619151D01*
X145809730Y-84049667D01*
X145810268Y-83433039D01*
X145799899Y-83407942D01*
X150649818Y-83407942D01*
X150809334Y-83794000D01*
X151104446Y-84089628D01*
X151490226Y-84249818D01*
X151907942Y-84250182D01*
X152294000Y-84090666D01*
X152384825Y-84000000D01*
X153700000Y-84000000D01*
X154006147Y-83939104D01*
X154265685Y-83765685D01*
X155281299Y-82750072D01*
X155407942Y-82750182D01*
X155794000Y-82590666D01*
X156089628Y-82295554D01*
X156249818Y-81909774D01*
X156250182Y-81492058D01*
X156090666Y-81106000D01*
X155795554Y-80810372D01*
X155409774Y-80650182D01*
X154992058Y-80649818D01*
X154606000Y-80809334D01*
X154310372Y-81104446D01*
X154150182Y-81490226D01*
X154150070Y-81618559D01*
X153368630Y-82400000D01*
X152385026Y-82400000D01*
X152295554Y-82310372D01*
X151909774Y-82150182D01*
X151492058Y-82149818D01*
X151106000Y-82309334D01*
X150810372Y-82604446D01*
X150650182Y-82990226D01*
X150649818Y-83407942D01*
X145799899Y-83407942D01*
X145574792Y-82863143D01*
X145139151Y-82426740D01*
X144569667Y-82190270D01*
X143953039Y-82189732D01*
X143383143Y-82425208D01*
X142946740Y-82860849D01*
X142710270Y-83430333D01*
X142709732Y-84046961D01*
X133385438Y-84046961D01*
X131688540Y-82350063D01*
X140717016Y-82350063D01*
X140812379Y-82626168D01*
X141427239Y-82864939D01*
X142086668Y-82850238D01*
X142627621Y-82626168D01*
X142722984Y-82350063D01*
X141720000Y-81347078D01*
X140717016Y-82350063D01*
X131688540Y-82350063D01*
X127046419Y-77707942D01*
X128449818Y-77707942D01*
X128609334Y-78094000D01*
X128904446Y-78389628D01*
X129290226Y-78549818D01*
X129418560Y-78549930D01*
X132434313Y-81565684D01*
X132693851Y-81739102D01*
X132999998Y-81799998D01*
X133214974Y-81799998D01*
X133304446Y-81889626D01*
X133690226Y-82049816D01*
X134107942Y-82050180D01*
X134494000Y-81890664D01*
X134789628Y-81595552D01*
X134949818Y-81209772D01*
X134950081Y-80907239D01*
X140055061Y-80907239D01*
X140069762Y-81566668D01*
X140293832Y-82107621D01*
X140569937Y-82202984D01*
X141572922Y-81200000D01*
X141867078Y-81200000D01*
X142870063Y-82202984D01*
X143146168Y-82107621D01*
X143379424Y-81506961D01*
X145249732Y-81506961D01*
X145485208Y-82076857D01*
X145920849Y-82513260D01*
X146490333Y-82749730D01*
X147106961Y-82750268D01*
X147676857Y-82514792D01*
X148113260Y-82079151D01*
X148349730Y-81509667D01*
X148350268Y-80893039D01*
X148114792Y-80323143D01*
X147679151Y-79886740D01*
X147109667Y-79650270D01*
X146493039Y-79649732D01*
X145923143Y-79885208D01*
X145486740Y-80320849D01*
X145250270Y-80890333D01*
X145249732Y-81506961D01*
X143379424Y-81506961D01*
X143384939Y-81492761D01*
X143370238Y-80833332D01*
X143146168Y-80292379D01*
X142870063Y-80197016D01*
X141867078Y-81200000D01*
X141572922Y-81200000D01*
X140569937Y-80197016D01*
X140293832Y-80292379D01*
X140055061Y-80907239D01*
X134950081Y-80907239D01*
X134950182Y-80792056D01*
X134790666Y-80405998D01*
X134495554Y-80110370D01*
X134350016Y-80049937D01*
X140717016Y-80049937D01*
X141720000Y-81052922D01*
X142722984Y-80049937D01*
X142627621Y-79773832D01*
X142012761Y-79535061D01*
X141353332Y-79549762D01*
X140812379Y-79773832D01*
X140717016Y-80049937D01*
X134350016Y-80049937D01*
X134109774Y-79950180D01*
X133692058Y-79949816D01*
X133306000Y-80109332D01*
X133273323Y-80141952D01*
X132139313Y-79007942D01*
X134149818Y-79007942D01*
X134309334Y-79394000D01*
X134604446Y-79689628D01*
X134990226Y-79849818D01*
X135407942Y-79850182D01*
X135794000Y-79690666D01*
X135934912Y-79550000D01*
X136814974Y-79550000D01*
X136904446Y-79639628D01*
X137290226Y-79799818D01*
X137707942Y-79800182D01*
X138094000Y-79640666D01*
X138389628Y-79345554D01*
X138549818Y-78959774D01*
X138550182Y-78542058D01*
X138390666Y-78156000D01*
X138095554Y-77860372D01*
X137709774Y-77700182D01*
X137292058Y-77699818D01*
X136906000Y-77859334D01*
X136815175Y-77950000D01*
X135835113Y-77950000D01*
X135795554Y-77910372D01*
X135409774Y-77750182D01*
X134992058Y-77749818D01*
X134606000Y-77909334D01*
X134310372Y-78204446D01*
X134150182Y-78590226D01*
X134149818Y-79007942D01*
X132139313Y-79007942D01*
X130550072Y-77418702D01*
X130550182Y-77292058D01*
X130390666Y-76906000D01*
X130095554Y-76610372D01*
X129709774Y-76450182D01*
X129292058Y-76449818D01*
X128906000Y-76609334D01*
X128610372Y-76904446D01*
X128450182Y-77290226D01*
X128449818Y-77707942D01*
X127046419Y-77707942D01*
X126222793Y-76884317D01*
X125963255Y-76710898D01*
X125953653Y-76708988D01*
X125657108Y-76650002D01*
X125185026Y-76650002D01*
X125095554Y-76560374D01*
X124709774Y-76400184D01*
X124292058Y-76399820D01*
X123906000Y-76559336D01*
X123610372Y-76854448D01*
X123450182Y-77240228D01*
X123449818Y-77657944D01*
X123609334Y-78044002D01*
X123856899Y-78292000D01*
X123718500Y-78292000D01*
X123554000Y-78456500D01*
X123554000Y-79496000D01*
X123574000Y-79496000D01*
X123574000Y-79704000D01*
X123554000Y-79704000D01*
X123554000Y-81596000D01*
X123574000Y-81596000D01*
X123574000Y-81804000D01*
X123554000Y-81804000D01*
X123554000Y-82843500D01*
X123718500Y-83008000D01*
X123930884Y-83008000D01*
X124172727Y-82907826D01*
X124357825Y-82722727D01*
X124458000Y-82480885D01*
X124458000Y-82449781D01*
X124477576Y-82553818D01*
X124598032Y-82741012D01*
X124781827Y-82866594D01*
X125000000Y-82910775D01*
X125700000Y-82910775D01*
X125903818Y-82872424D01*
X126091012Y-82751968D01*
X126216594Y-82568173D01*
X126230399Y-82500000D01*
X127820494Y-82500000D01*
X127859334Y-82594000D01*
X128154446Y-82889628D01*
X128540226Y-83049818D01*
X128668559Y-83049930D01*
X128684313Y-83065684D01*
X128684316Y-83065686D01*
X128950000Y-83331371D01*
X128950000Y-84549933D01*
X128709774Y-84450182D01*
X128292058Y-84449818D01*
X127906000Y-84609334D01*
X127815175Y-84700000D01*
X124831371Y-84700000D01*
X124050072Y-83918701D01*
X124050182Y-83792058D01*
X123890666Y-83406000D01*
X123595554Y-83110372D01*
X123230650Y-82958850D01*
X123346000Y-82843500D01*
X123346000Y-81804000D01*
X122606500Y-81804000D01*
X122442000Y-81968500D01*
X122442000Y-82480885D01*
X122462946Y-82531453D01*
X122351968Y-82358988D01*
X122168173Y-82233406D01*
X121950000Y-82189225D01*
X121050000Y-82189225D01*
X120992736Y-82200000D01*
X120831371Y-82200000D01*
X120800072Y-82168701D01*
X120800182Y-82042058D01*
X120640666Y-81656000D01*
X120345554Y-81360372D01*
X119959774Y-81200182D01*
X119542058Y-81199818D01*
X119156000Y-81359334D01*
X119000000Y-81515062D01*
X119000000Y-79868500D01*
X122442000Y-79868500D01*
X122442000Y-80380885D01*
X122542175Y-80622727D01*
X122569448Y-80650000D01*
X122542175Y-80677273D01*
X122442000Y-80919115D01*
X122442000Y-81431500D01*
X122606500Y-81596000D01*
X123346000Y-81596000D01*
X123346000Y-79704000D01*
X122606500Y-79704000D01*
X122442000Y-79868500D01*
X119000000Y-79868500D01*
X119000000Y-78739392D01*
X119109334Y-79004000D01*
X119404446Y-79299628D01*
X119790226Y-79459818D01*
X119940560Y-79459949D01*
X120133853Y-79589104D01*
X120440000Y-79650000D01*
X121096791Y-79650000D01*
X121150000Y-79660775D01*
X122050000Y-79660775D01*
X122253818Y-79622424D01*
X122441012Y-79501968D01*
X122510609Y-79400109D01*
X122606500Y-79496000D01*
X123346000Y-79496000D01*
X123346000Y-78456500D01*
X123181500Y-78292000D01*
X122969116Y-78292000D01*
X122727273Y-78392174D01*
X122596312Y-78523136D01*
X122572424Y-78396182D01*
X122451968Y-78208988D01*
X122290619Y-78098743D01*
X122441012Y-78001968D01*
X122566594Y-77818173D01*
X122610775Y-77600000D01*
X122610775Y-77100000D01*
X122572424Y-76896182D01*
X122451968Y-76708988D01*
X122400000Y-76673480D01*
X122400000Y-76570575D01*
X122549818Y-76209774D01*
X122550182Y-75792058D01*
X122390666Y-75406000D01*
X122173519Y-75188473D01*
X122413260Y-74949151D01*
X122649730Y-74379667D01*
X122650268Y-73763039D01*
X122560015Y-73544609D01*
X124249523Y-73544609D01*
X124667304Y-74555715D01*
X125440216Y-75329977D01*
X126450591Y-75749522D01*
X127544609Y-75750477D01*
X128555715Y-75332696D01*
X129329977Y-74559784D01*
X129749522Y-73549409D01*
X129750256Y-72707452D01*
X131459774Y-72707452D01*
X131657271Y-73185429D01*
X132022647Y-73551444D01*
X132500279Y-73749774D01*
X133017452Y-73750226D01*
X133495429Y-73552729D01*
X133861444Y-73187353D01*
X134059774Y-72709721D01*
X134060226Y-72192548D01*
X133862729Y-71714571D01*
X133497353Y-71348556D01*
X133019721Y-71150226D01*
X132502548Y-71149774D01*
X132024571Y-71347271D01*
X131658556Y-71712647D01*
X131460226Y-72190279D01*
X131459774Y-72707452D01*
X129750256Y-72707452D01*
X129750477Y-72455391D01*
X129332696Y-71444285D01*
X128559784Y-70670023D01*
X127549409Y-70250478D01*
X126455391Y-70249523D01*
X125444285Y-70667304D01*
X124670023Y-71440216D01*
X124250478Y-72450591D01*
X124249523Y-73544609D01*
X122560015Y-73544609D01*
X122414792Y-73193143D01*
X122051477Y-72829192D01*
X122102984Y-72680063D01*
X121100000Y-71677078D01*
X120097016Y-72680063D01*
X120148653Y-72829568D01*
X119786740Y-73190849D01*
X119550270Y-73760333D01*
X119549732Y-74376961D01*
X119785208Y-74946857D01*
X120220849Y-75383260D01*
X120560591Y-75524333D01*
X120450182Y-75790226D01*
X120449818Y-76207942D01*
X120609334Y-76594000D01*
X120740376Y-76725271D01*
X120633406Y-76881827D01*
X120589225Y-77100000D01*
X120589225Y-77517744D01*
X120209774Y-77360182D01*
X119792058Y-77359818D01*
X119406000Y-77519334D01*
X119110372Y-77814446D01*
X119000000Y-78080251D01*
X119000000Y-71237239D01*
X119435061Y-71237239D01*
X119449762Y-71896668D01*
X119673832Y-72437621D01*
X119949937Y-72532984D01*
X120952922Y-71530000D01*
X121247078Y-71530000D01*
X122250063Y-72532984D01*
X122526168Y-72437621D01*
X122764939Y-71822761D01*
X122750238Y-71163332D01*
X122526168Y-70622379D01*
X122250063Y-70527016D01*
X121247078Y-71530000D01*
X120952922Y-71530000D01*
X119949937Y-70527016D01*
X119673832Y-70622379D01*
X119435061Y-71237239D01*
X119000000Y-71237239D01*
X119000000Y-69900000D01*
X120684473Y-69900000D01*
X120192379Y-70103832D01*
X120192379Y-70103832D01*
G37*
X120192379Y-70103832D02*
X120097016Y-70379937D01*
X121100000Y-71382922D01*
X122102984Y-70379937D01*
X122007621Y-70103832D01*
X121482733Y-69900000D01*
X135364826Y-69900000D01*
X135360372Y-69904446D01*
X135200182Y-70290226D01*
X135199818Y-70707942D01*
X135359334Y-71094000D01*
X135654446Y-71389628D01*
X136040226Y-71549818D01*
X136457942Y-71550182D01*
X136844000Y-71390666D01*
X137139628Y-71095554D01*
X137262352Y-70800001D01*
X141715000Y-70800001D01*
X141610372Y-70904446D01*
X141450182Y-71290226D01*
X141449818Y-71707942D01*
X141609334Y-72094000D01*
X141700000Y-72184825D01*
X141700000Y-73000000D01*
X141738776Y-73194939D01*
X141760896Y-73306147D01*
X141934315Y-73565685D01*
X144199928Y-75831299D01*
X144199818Y-75957942D01*
X144359334Y-76344000D01*
X144654446Y-76639628D01*
X145040226Y-76799818D01*
X145457942Y-76800182D01*
X145844000Y-76640666D01*
X146139628Y-76345554D01*
X146299818Y-75959774D01*
X146300037Y-75707942D01*
X159049818Y-75707942D01*
X159209334Y-76094000D01*
X159504446Y-76389628D01*
X159890226Y-76549818D01*
X160307942Y-76550182D01*
X160429392Y-76500000D01*
X161917449Y-76500000D01*
X161927576Y-76553818D01*
X162048032Y-76741012D01*
X162231827Y-76866594D01*
X162450000Y-76910775D01*
X163150000Y-76910775D01*
X163353818Y-76872424D01*
X163541012Y-76751968D01*
X163666594Y-76568173D01*
X163692000Y-76442714D01*
X163692000Y-76480885D01*
X163792175Y-76722727D01*
X163977273Y-76907826D01*
X164219116Y-77008000D01*
X164431500Y-77008000D01*
X164596000Y-76843500D01*
X164596000Y-75804000D01*
X164804000Y-75804000D01*
X164804000Y-76843500D01*
X164968500Y-77008000D01*
X165180884Y-77008000D01*
X165422727Y-76907826D01*
X165607825Y-76722727D01*
X165708000Y-76480885D01*
X165708000Y-75968500D01*
X165543500Y-75804000D01*
X164804000Y-75804000D01*
X164596000Y-75804000D01*
X164576000Y-75804000D01*
X164576000Y-75596000D01*
X164596000Y-75596000D01*
X164596000Y-74556500D01*
X164804000Y-74556500D01*
X164804000Y-75596000D01*
X165543500Y-75596000D01*
X165708000Y-75431500D01*
X165708000Y-74919115D01*
X165607825Y-74677273D01*
X165422727Y-74492174D01*
X165180884Y-74392000D01*
X164968500Y-74392000D01*
X164804000Y-74556500D01*
X164596000Y-74556500D01*
X164431500Y-74392000D01*
X164219116Y-74392000D01*
X163977273Y-74492174D01*
X163792175Y-74677273D01*
X163692000Y-74919115D01*
X163692000Y-74950219D01*
X163672424Y-74846182D01*
X163551968Y-74658988D01*
X163368173Y-74533406D01*
X163150000Y-74489225D01*
X162450000Y-74489225D01*
X162246182Y-74527576D01*
X162058988Y-74648032D01*
X161933406Y-74831827D01*
X161919601Y-74900000D01*
X160984676Y-74900000D01*
X160695554Y-74610372D01*
X160309774Y-74450182D01*
X159892058Y-74449818D01*
X159506000Y-74609334D01*
X159210372Y-74904446D01*
X159050182Y-75290226D01*
X159049818Y-75707942D01*
X146300037Y-75707942D01*
X146300182Y-75542058D01*
X146140666Y-75156000D01*
X145845554Y-74860372D01*
X145459774Y-74700182D01*
X145331441Y-74700070D01*
X143338823Y-72707452D01*
X154459774Y-72707452D01*
X154657271Y-73185429D01*
X155022647Y-73551444D01*
X155500279Y-73749774D01*
X156017452Y-73750226D01*
X156495429Y-73552729D01*
X156861444Y-73187353D01*
X157059774Y-72709721D01*
X157060226Y-72192548D01*
X156862729Y-71714571D01*
X156497353Y-71348556D01*
X156019721Y-71150226D01*
X155502548Y-71149774D01*
X155024571Y-71347271D01*
X154658556Y-71712647D01*
X154460226Y-72190279D01*
X154459774Y-72707452D01*
X143338823Y-72707452D01*
X143300000Y-72668630D01*
X143300000Y-72185026D01*
X143389628Y-72095554D01*
X143549818Y-71709774D01*
X143550182Y-71292058D01*
X143390666Y-70906000D01*
X143284852Y-70800001D01*
X151568630Y-70800001D01*
X151634315Y-70865686D01*
X151634318Y-70865688D01*
X152149928Y-71381299D01*
X152149818Y-71507942D01*
X152309334Y-71894000D01*
X152604446Y-72189628D01*
X152990226Y-72349818D01*
X153407942Y-72350182D01*
X153794000Y-72190666D01*
X154089628Y-71895554D01*
X154249818Y-71509774D01*
X154250182Y-71092058D01*
X154090666Y-70706000D01*
X153795554Y-70410372D01*
X153409774Y-70250182D01*
X153281441Y-70250070D01*
X152931370Y-69900000D01*
X166800000Y-69900000D01*
X166800000Y-117700000D01*
X130050000Y-117700000D01*
X130050000Y-103907942D01*
X134349818Y-103907942D01*
X134509334Y-104294000D01*
X134600000Y-104384825D01*
X134600000Y-109000000D01*
X134638942Y-109195775D01*
X134660896Y-109306147D01*
X134834315Y-109565685D01*
X140134315Y-114865686D01*
X140393853Y-115039104D01*
X140700000Y-115100000D01*
X146155000Y-115100000D01*
X146461147Y-115039104D01*
X146720685Y-114865685D01*
X147477385Y-114108986D01*
X147656827Y-114231594D01*
X147875000Y-114275775D01*
X151475000Y-114275775D01*
X151678818Y-114237424D01*
X151866012Y-114116968D01*
X151991594Y-113933173D01*
X152010120Y-113841686D01*
X152009732Y-114286961D01*
X152245208Y-114856857D01*
X152680849Y-115293260D01*
X153250333Y-115529730D01*
X153866961Y-115530268D01*
X154436857Y-115294792D01*
X154494388Y-115237361D01*
X154542175Y-115352727D01*
X154727273Y-115537826D01*
X154969116Y-115638000D01*
X155831500Y-115638000D01*
X155996000Y-115473500D01*
X155996000Y-114084000D01*
X156204000Y-114084000D01*
X156204000Y-115473500D01*
X156368500Y-115638000D01*
X157230884Y-115638000D01*
X157472727Y-115537826D01*
X157657825Y-115352727D01*
X157758000Y-115110885D01*
X157758000Y-114248500D01*
X157593500Y-114084000D01*
X156204000Y-114084000D01*
X155996000Y-114084000D01*
X155976000Y-114084000D01*
X155976000Y-113876000D01*
X155996000Y-113876000D01*
X155996000Y-113856000D01*
X156204000Y-113856000D01*
X156204000Y-113876000D01*
X157593500Y-113876000D01*
X157758000Y-113711500D01*
X157758000Y-112849115D01*
X157657825Y-112607273D01*
X157472727Y-112422174D01*
X157357760Y-112374554D01*
X157413260Y-112319151D01*
X157649730Y-111749667D01*
X157650268Y-111133039D01*
X157414792Y-110563143D01*
X157022032Y-110169696D01*
X157413260Y-109779151D01*
X157649730Y-109209667D01*
X157650268Y-108593039D01*
X157646778Y-108584592D01*
X158215684Y-108015686D01*
X158389103Y-107756148D01*
X158401494Y-107693853D01*
X158449999Y-107450001D01*
X158449999Y-103579999D01*
X158389103Y-103273852D01*
X158343767Y-103206002D01*
X158306294Y-103149919D01*
X158607942Y-103150182D01*
X158994000Y-102990666D01*
X159289628Y-102695554D01*
X159449818Y-102309774D01*
X159450182Y-101892058D01*
X159290666Y-101506000D01*
X158995554Y-101210372D01*
X158609774Y-101050182D01*
X158481440Y-101050070D01*
X158415687Y-100984317D01*
X158156149Y-100810898D01*
X158123712Y-100804446D01*
X157850002Y-100750002D01*
X152881371Y-100750002D01*
X152639757Y-100508388D01*
X152775000Y-100535775D01*
X153675000Y-100535775D01*
X153878818Y-100497424D01*
X154066012Y-100376968D01*
X154191594Y-100193173D01*
X154235775Y-99975000D01*
X154235775Y-98275000D01*
X155114225Y-98275000D01*
X155114225Y-99975000D01*
X155152576Y-100178818D01*
X155273032Y-100366012D01*
X155456827Y-100491594D01*
X155675000Y-100535775D01*
X156575000Y-100535775D01*
X156778818Y-100497424D01*
X156966012Y-100376968D01*
X157091594Y-100193173D01*
X157135775Y-99975000D01*
X157135775Y-99349858D01*
X157507942Y-99350182D01*
X157894000Y-99190666D01*
X158189628Y-98895554D01*
X158349818Y-98509774D01*
X158350182Y-98092058D01*
X158190666Y-97706000D01*
X157895554Y-97410372D01*
X157509774Y-97250182D01*
X157092058Y-97249818D01*
X156706000Y-97409334D01*
X156410372Y-97704446D01*
X156406311Y-97714225D01*
X155675000Y-97714225D01*
X155471182Y-97752576D01*
X155283988Y-97873032D01*
X155158406Y-98056827D01*
X155114225Y-98275000D01*
X154235775Y-98275000D01*
X154197424Y-98071182D01*
X154076968Y-97883988D01*
X153893173Y-97758406D01*
X153675000Y-97714225D01*
X152775000Y-97714225D01*
X152571182Y-97752576D01*
X152383988Y-97873032D01*
X152304420Y-97989483D01*
X152209774Y-97950182D01*
X151792058Y-97949818D01*
X151406000Y-98109334D01*
X151110372Y-98404446D01*
X150950182Y-98790226D01*
X150950157Y-98818788D01*
X146550070Y-94418702D01*
X146550180Y-94292058D01*
X146390664Y-93906000D01*
X146095552Y-93610372D01*
X145709772Y-93450182D01*
X145292056Y-93449818D01*
X144905998Y-93609334D01*
X144610370Y-93904446D01*
X144450180Y-94290226D01*
X144449816Y-94707942D01*
X144609332Y-95094000D01*
X144904444Y-95389628D01*
X145290224Y-95549818D01*
X145418558Y-95549930D01*
X151984314Y-102115687D01*
X151984317Y-102115689D01*
X152760000Y-102891373D01*
X152760000Y-105013451D01*
X152683143Y-105045208D01*
X152246740Y-105480849D01*
X152148042Y-105718542D01*
X151993500Y-105564000D01*
X149804000Y-105564000D01*
X149804000Y-106588500D01*
X149968500Y-106753000D01*
X151630885Y-106753000D01*
X151872727Y-106652825D01*
X152009864Y-106515689D01*
X152009732Y-106666961D01*
X152245208Y-107236857D01*
X152637968Y-107630304D01*
X152246740Y-108020849D01*
X152060775Y-108468703D01*
X152060775Y-107365000D01*
X152022424Y-107161182D01*
X151901968Y-106973988D01*
X151718173Y-106848406D01*
X151500000Y-106804225D01*
X148050000Y-106804225D01*
X148050000Y-106753000D01*
X149431500Y-106753000D01*
X149596000Y-106588500D01*
X149596000Y-105564000D01*
X147406500Y-105564000D01*
X147242000Y-105728500D01*
X147242000Y-105950000D01*
X145660775Y-105950000D01*
X145660775Y-104825000D01*
X145622424Y-104621182D01*
X145501968Y-104433988D01*
X145318173Y-104308406D01*
X145100000Y-104264225D01*
X141500000Y-104264225D01*
X141296182Y-104302576D01*
X141108988Y-104423032D01*
X140983406Y-104606827D01*
X140939225Y-104825000D01*
X140939225Y-105807855D01*
X140800000Y-105668630D01*
X140800000Y-100707223D01*
X140834315Y-100758579D01*
X140972174Y-100896438D01*
X140850182Y-101190226D01*
X140849818Y-101607942D01*
X141009334Y-101994000D01*
X141304446Y-102289628D01*
X141690226Y-102449818D01*
X142107942Y-102450182D01*
X142494000Y-102290666D01*
X142789628Y-101995554D01*
X142949818Y-101609774D01*
X142950182Y-101192058D01*
X142790666Y-100806000D01*
X142700000Y-100715175D01*
X142700000Y-100692894D01*
X142639104Y-100386747D01*
X142614429Y-100349818D01*
X142465686Y-100127209D01*
X142200000Y-99861524D01*
X142200000Y-98207942D01*
X145049818Y-98207942D01*
X145209334Y-98594000D01*
X145504446Y-98889628D01*
X145890226Y-99049818D01*
X146307942Y-99050182D01*
X146429644Y-98999896D01*
X147300172Y-99870423D01*
X147206000Y-99909334D01*
X146910372Y-100204446D01*
X146750182Y-100590226D01*
X146749818Y-101007942D01*
X146909334Y-101394000D01*
X147204446Y-101689628D01*
X147590226Y-101849818D01*
X147718560Y-101849930D01*
X149170089Y-103301460D01*
X149050182Y-103590228D01*
X149049818Y-104007944D01*
X149115539Y-104167000D01*
X147769115Y-104167000D01*
X147527273Y-104267175D01*
X147342174Y-104452273D01*
X147242000Y-104694116D01*
X147242000Y-105191500D01*
X147406500Y-105356000D01*
X149596000Y-105356000D01*
X149596000Y-105336000D01*
X149804000Y-105336000D01*
X149804000Y-105356000D01*
X151993500Y-105356000D01*
X152158000Y-105191500D01*
X152158000Y-104727859D01*
X152248013Y-104690666D01*
X152543641Y-104395554D01*
X152703831Y-104009774D01*
X152704195Y-103592058D01*
X152544679Y-103206000D01*
X152454013Y-103115175D01*
X152454013Y-103092894D01*
X152393117Y-102786747D01*
X152368442Y-102749818D01*
X152219699Y-102527209D01*
X147126804Y-97434315D01*
X146867266Y-97260896D01*
X146840501Y-97255572D01*
X146695554Y-97110372D01*
X146309774Y-96950182D01*
X145892058Y-96949818D01*
X145506000Y-97109334D01*
X145210372Y-97404446D01*
X145050182Y-97790226D01*
X145049818Y-98207942D01*
X142200000Y-98207942D01*
X142200000Y-92931370D01*
X142786761Y-92344609D01*
X159399523Y-92344609D01*
X159817304Y-93355715D01*
X160590216Y-94129977D01*
X161600591Y-94549522D01*
X162694609Y-94550477D01*
X163705715Y-94132696D01*
X164479977Y-93359784D01*
X164899522Y-92349409D01*
X164900477Y-91255391D01*
X164482696Y-90244285D01*
X163709784Y-89470023D01*
X162699409Y-89050478D01*
X161605391Y-89049523D01*
X160594285Y-89467304D01*
X159820023Y-90240216D01*
X159400478Y-91250591D01*
X159399523Y-92344609D01*
X142786761Y-92344609D01*
X144972625Y-90158746D01*
X146229449Y-90158746D01*
X146318921Y-90248374D01*
X146704701Y-90408564D01*
X147122417Y-90408928D01*
X147508475Y-90249412D01*
X147550508Y-90207452D01*
X154459774Y-90207452D01*
X154657271Y-90685429D01*
X155022647Y-91051444D01*
X155500279Y-91249774D01*
X156017452Y-91250226D01*
X156495429Y-91052729D01*
X156861444Y-90687353D01*
X157059774Y-90209721D01*
X157060226Y-89692548D01*
X156862729Y-89214571D01*
X156497353Y-88848556D01*
X156019721Y-88650226D01*
X155502548Y-88649774D01*
X155024571Y-88847271D01*
X154658556Y-89212647D01*
X154460226Y-89690279D01*
X154459774Y-90207452D01*
X147550508Y-90207452D01*
X147804103Y-89954300D01*
X147964293Y-89568520D01*
X147964657Y-89150804D01*
X147805141Y-88764746D01*
X147510029Y-88469118D01*
X147124249Y-88308928D01*
X146706533Y-88308564D01*
X146320475Y-88468080D01*
X146229650Y-88558746D01*
X144641254Y-88558746D01*
X144335107Y-88619642D01*
X144075568Y-88793061D01*
X140834315Y-92034315D01*
X140660896Y-92293853D01*
X140600000Y-92600000D01*
X140600000Y-95481649D01*
X140565686Y-95430295D01*
X138265686Y-93130296D01*
X138265684Y-93130293D01*
X138250072Y-93114681D01*
X138250182Y-92988038D01*
X138090666Y-92601980D01*
X137795554Y-92306352D01*
X137409774Y-92146162D01*
X136992058Y-92145798D01*
X136606000Y-92305314D01*
X136310372Y-92600426D01*
X136150182Y-92986206D01*
X136149818Y-93403922D01*
X136309334Y-93789980D01*
X136604446Y-94085608D01*
X136990226Y-94245798D01*
X137118559Y-94245910D01*
X137134313Y-94261664D01*
X137134316Y-94261666D01*
X139200000Y-96327351D01*
X139200000Y-96883683D01*
X139169687Y-96838316D01*
X138365686Y-96034316D01*
X138365684Y-96034313D01*
X138350072Y-96018701D01*
X138350182Y-95892058D01*
X138190666Y-95506000D01*
X137895554Y-95210372D01*
X137509774Y-95050182D01*
X137092058Y-95049818D01*
X136706000Y-95209334D01*
X136410372Y-95504446D01*
X136250182Y-95890226D01*
X136249818Y-96307942D01*
X136409334Y-96694000D01*
X136704446Y-96989628D01*
X137090226Y-97149818D01*
X137218559Y-97149930D01*
X137234313Y-97165684D01*
X137234316Y-97165686D01*
X137804001Y-97735372D01*
X137804001Y-105250177D01*
X137392058Y-105249818D01*
X137300000Y-105287856D01*
X137300000Y-99214331D01*
X137358801Y-99126329D01*
X137389630Y-99095554D01*
X137406483Y-99054969D01*
X137439104Y-99006147D01*
X137450458Y-98949063D01*
X137549820Y-98709774D01*
X137550184Y-98292058D01*
X137390668Y-97906000D01*
X137095556Y-97610372D01*
X136709776Y-97450182D01*
X136292060Y-97449818D01*
X135906002Y-97609334D01*
X135610374Y-97904446D01*
X135450184Y-98290226D01*
X135449820Y-98707942D01*
X135609336Y-99094000D01*
X135700002Y-99184825D01*
X135700002Y-99207098D01*
X135700000Y-99207108D01*
X135700000Y-102687647D01*
X135609774Y-102650182D01*
X135192058Y-102649818D01*
X134806000Y-102809334D01*
X134510372Y-103104446D01*
X134350182Y-103490226D01*
X134349818Y-103907942D01*
X130050000Y-103907942D01*
X130050000Y-99000000D01*
X130039742Y-98945481D01*
X130007521Y-98895409D01*
X129958358Y-98861818D01*
X129900000Y-98850000D01*
X119000000Y-98850000D01*
X119000000Y-85579392D01*
X119109334Y-85844000D01*
X119200000Y-85934825D01*
X119200000Y-86700000D01*
X119257506Y-86989104D01*
X119260896Y-87006147D01*
X119434315Y-87265685D01*
X120734315Y-88565686D01*
X120993853Y-88739104D01*
X121300000Y-88800000D01*
X132138975Y-88800000D01*
X132024571Y-88847271D01*
X131658556Y-89212647D01*
X131460226Y-89690279D01*
X131459774Y-90207452D01*
X131657271Y-90685429D01*
X132022647Y-91051444D01*
X132500279Y-91249774D01*
X133017452Y-91250226D01*
X133495429Y-91052729D01*
X133861444Y-90687353D01*
X134059774Y-90209721D01*
X134060226Y-89692548D01*
X133862729Y-89214571D01*
X133497353Y-88848556D01*
X133380417Y-88800000D01*
X134400000Y-88800000D01*
X134706147Y-88739104D01*
X134965685Y-88565685D01*
X135365685Y-88165686D01*
X135539104Y-87906147D01*
X135551495Y-87843853D01*
X135600000Y-87600000D01*
X135600000Y-86285026D01*
X135677210Y-86207950D01*
X146199818Y-86207950D01*
X146359334Y-86594008D01*
X146654446Y-86889636D01*
X147040226Y-87049826D01*
X147168560Y-87049938D01*
X148834307Y-88715686D01*
X148960492Y-88800000D01*
X149093845Y-88889104D01*
X149231522Y-88916490D01*
X149354446Y-89039628D01*
X149740226Y-89199818D01*
X150157942Y-89200182D01*
X150544000Y-89040666D01*
X150839628Y-88745554D01*
X150999818Y-88359774D01*
X151000182Y-87942058D01*
X150840666Y-87556000D01*
X150545554Y-87260372D01*
X150159774Y-87100182D01*
X149742058Y-87099818D01*
X149557457Y-87176094D01*
X148300072Y-85918709D01*
X148300182Y-85792066D01*
X148140666Y-85406008D01*
X147845554Y-85110380D01*
X147459774Y-84950190D01*
X147042058Y-84949826D01*
X146656000Y-85109342D01*
X146360372Y-85404454D01*
X146200182Y-85790234D01*
X146199818Y-86207950D01*
X135677210Y-86207950D01*
X135689628Y-86195554D01*
X135849818Y-85809774D01*
X135850182Y-85392058D01*
X135690666Y-85006000D01*
X135395554Y-84710372D01*
X135009774Y-84550182D01*
X134592058Y-84549818D01*
X134206000Y-84709334D01*
X134114664Y-84800510D01*
X134065685Y-84727208D01*
X133385438Y-84046961D01*
X142709732Y-84046961D01*
X142945208Y-84616857D01*
X143380849Y-85053260D01*
X143950333Y-85289730D01*
X144566961Y-85290268D01*
X145136857Y-85054792D01*
X145573260Y-84619151D01*
X145809730Y-84049667D01*
X145810268Y-83433039D01*
X145799899Y-83407942D01*
X150649818Y-83407942D01*
X150809334Y-83794000D01*
X151104446Y-84089628D01*
X151490226Y-84249818D01*
X151907942Y-84250182D01*
X152294000Y-84090666D01*
X152384825Y-84000000D01*
X153700000Y-84000000D01*
X154006147Y-83939104D01*
X154265685Y-83765685D01*
X155281299Y-82750072D01*
X155407942Y-82750182D01*
X155794000Y-82590666D01*
X156089628Y-82295554D01*
X156249818Y-81909774D01*
X156250182Y-81492058D01*
X156090666Y-81106000D01*
X155795554Y-80810372D01*
X155409774Y-80650182D01*
X154992058Y-80649818D01*
X154606000Y-80809334D01*
X154310372Y-81104446D01*
X154150182Y-81490226D01*
X154150070Y-81618559D01*
X153368630Y-82400000D01*
X152385026Y-82400000D01*
X152295554Y-82310372D01*
X151909774Y-82150182D01*
X151492058Y-82149818D01*
X151106000Y-82309334D01*
X150810372Y-82604446D01*
X150650182Y-82990226D01*
X150649818Y-83407942D01*
X145799899Y-83407942D01*
X145574792Y-82863143D01*
X145139151Y-82426740D01*
X144569667Y-82190270D01*
X143953039Y-82189732D01*
X143383143Y-82425208D01*
X142946740Y-82860849D01*
X142710270Y-83430333D01*
X142709732Y-84046961D01*
X133385438Y-84046961D01*
X131688540Y-82350063D01*
X140717016Y-82350063D01*
X140812379Y-82626168D01*
X141427239Y-82864939D01*
X142086668Y-82850238D01*
X142627621Y-82626168D01*
X142722984Y-82350063D01*
X141720000Y-81347078D01*
X140717016Y-82350063D01*
X131688540Y-82350063D01*
X127046419Y-77707942D01*
X128449818Y-77707942D01*
X128609334Y-78094000D01*
X128904446Y-78389628D01*
X129290226Y-78549818D01*
X129418560Y-78549930D01*
X132434313Y-81565684D01*
X132693851Y-81739102D01*
X132999998Y-81799998D01*
X133214974Y-81799998D01*
X133304446Y-81889626D01*
X133690226Y-82049816D01*
X134107942Y-82050180D01*
X134494000Y-81890664D01*
X134789628Y-81595552D01*
X134949818Y-81209772D01*
X134950081Y-80907239D01*
X140055061Y-80907239D01*
X140069762Y-81566668D01*
X140293832Y-82107621D01*
X140569937Y-82202984D01*
X141572922Y-81200000D01*
X141867078Y-81200000D01*
X142870063Y-82202984D01*
X143146168Y-82107621D01*
X143379424Y-81506961D01*
X145249732Y-81506961D01*
X145485208Y-82076857D01*
X145920849Y-82513260D01*
X146490333Y-82749730D01*
X147106961Y-82750268D01*
X147676857Y-82514792D01*
X148113260Y-82079151D01*
X148349730Y-81509667D01*
X148350268Y-80893039D01*
X148114792Y-80323143D01*
X147679151Y-79886740D01*
X147109667Y-79650270D01*
X146493039Y-79649732D01*
X145923143Y-79885208D01*
X145486740Y-80320849D01*
X145250270Y-80890333D01*
X145249732Y-81506961D01*
X143379424Y-81506961D01*
X143384939Y-81492761D01*
X143370238Y-80833332D01*
X143146168Y-80292379D01*
X142870063Y-80197016D01*
X141867078Y-81200000D01*
X141572922Y-81200000D01*
X140569937Y-80197016D01*
X140293832Y-80292379D01*
X140055061Y-80907239D01*
X134950081Y-80907239D01*
X134950182Y-80792056D01*
X134790666Y-80405998D01*
X134495554Y-80110370D01*
X134350016Y-80049937D01*
X140717016Y-80049937D01*
X141720000Y-81052922D01*
X142722984Y-80049937D01*
X142627621Y-79773832D01*
X142012761Y-79535061D01*
X141353332Y-79549762D01*
X140812379Y-79773832D01*
X140717016Y-80049937D01*
X134350016Y-80049937D01*
X134109774Y-79950180D01*
X133692058Y-79949816D01*
X133306000Y-80109332D01*
X133273323Y-80141952D01*
X132139313Y-79007942D01*
X134149818Y-79007942D01*
X134309334Y-79394000D01*
X134604446Y-79689628D01*
X134990226Y-79849818D01*
X135407942Y-79850182D01*
X135794000Y-79690666D01*
X135934912Y-79550000D01*
X136814974Y-79550000D01*
X136904446Y-79639628D01*
X137290226Y-79799818D01*
X137707942Y-79800182D01*
X138094000Y-79640666D01*
X138389628Y-79345554D01*
X138549818Y-78959774D01*
X138550182Y-78542058D01*
X138390666Y-78156000D01*
X138095554Y-77860372D01*
X137709774Y-77700182D01*
X137292058Y-77699818D01*
X136906000Y-77859334D01*
X136815175Y-77950000D01*
X135835113Y-77950000D01*
X135795554Y-77910372D01*
X135409774Y-77750182D01*
X134992058Y-77749818D01*
X134606000Y-77909334D01*
X134310372Y-78204446D01*
X134150182Y-78590226D01*
X134149818Y-79007942D01*
X132139313Y-79007942D01*
X130550072Y-77418702D01*
X130550182Y-77292058D01*
X130390666Y-76906000D01*
X130095554Y-76610372D01*
X129709774Y-76450182D01*
X129292058Y-76449818D01*
X128906000Y-76609334D01*
X128610372Y-76904446D01*
X128450182Y-77290226D01*
X128449818Y-77707942D01*
X127046419Y-77707942D01*
X126222793Y-76884317D01*
X125963255Y-76710898D01*
X125953653Y-76708988D01*
X125657108Y-76650002D01*
X125185026Y-76650002D01*
X125095554Y-76560374D01*
X124709774Y-76400184D01*
X124292058Y-76399820D01*
X123906000Y-76559336D01*
X123610372Y-76854448D01*
X123450182Y-77240228D01*
X123449818Y-77657944D01*
X123609334Y-78044002D01*
X123856899Y-78292000D01*
X123718500Y-78292000D01*
X123554000Y-78456500D01*
X123554000Y-79496000D01*
X123574000Y-79496000D01*
X123574000Y-79704000D01*
X123554000Y-79704000D01*
X123554000Y-81596000D01*
X123574000Y-81596000D01*
X123574000Y-81804000D01*
X123554000Y-81804000D01*
X123554000Y-82843500D01*
X123718500Y-83008000D01*
X123930884Y-83008000D01*
X124172727Y-82907826D01*
X124357825Y-82722727D01*
X124458000Y-82480885D01*
X124458000Y-82449781D01*
X124477576Y-82553818D01*
X124598032Y-82741012D01*
X124781827Y-82866594D01*
X125000000Y-82910775D01*
X125700000Y-82910775D01*
X125903818Y-82872424D01*
X126091012Y-82751968D01*
X126216594Y-82568173D01*
X126230399Y-82500000D01*
X127820494Y-82500000D01*
X127859334Y-82594000D01*
X128154446Y-82889628D01*
X128540226Y-83049818D01*
X128668559Y-83049930D01*
X128684313Y-83065684D01*
X128684316Y-83065686D01*
X128950000Y-83331371D01*
X128950000Y-84549933D01*
X128709774Y-84450182D01*
X128292058Y-84449818D01*
X127906000Y-84609334D01*
X127815175Y-84700000D01*
X124831371Y-84700000D01*
X124050072Y-83918701D01*
X124050182Y-83792058D01*
X123890666Y-83406000D01*
X123595554Y-83110372D01*
X123230650Y-82958850D01*
X123346000Y-82843500D01*
X123346000Y-81804000D01*
X122606500Y-81804000D01*
X122442000Y-81968500D01*
X122442000Y-82480885D01*
X122462946Y-82531453D01*
X122351968Y-82358988D01*
X122168173Y-82233406D01*
X121950000Y-82189225D01*
X121050000Y-82189225D01*
X120992736Y-82200000D01*
X120831371Y-82200000D01*
X120800072Y-82168701D01*
X120800182Y-82042058D01*
X120640666Y-81656000D01*
X120345554Y-81360372D01*
X119959774Y-81200182D01*
X119542058Y-81199818D01*
X119156000Y-81359334D01*
X119000000Y-81515062D01*
X119000000Y-79868500D01*
X122442000Y-79868500D01*
X122442000Y-80380885D01*
X122542175Y-80622727D01*
X122569448Y-80650000D01*
X122542175Y-80677273D01*
X122442000Y-80919115D01*
X122442000Y-81431500D01*
X122606500Y-81596000D01*
X123346000Y-81596000D01*
X123346000Y-79704000D01*
X122606500Y-79704000D01*
X122442000Y-79868500D01*
X119000000Y-79868500D01*
X119000000Y-78739392D01*
X119109334Y-79004000D01*
X119404446Y-79299628D01*
X119790226Y-79459818D01*
X119940560Y-79459949D01*
X120133853Y-79589104D01*
X120440000Y-79650000D01*
X121096791Y-79650000D01*
X121150000Y-79660775D01*
X122050000Y-79660775D01*
X122253818Y-79622424D01*
X122441012Y-79501968D01*
X122510609Y-79400109D01*
X122606500Y-79496000D01*
X123346000Y-79496000D01*
X123346000Y-78456500D01*
X123181500Y-78292000D01*
X122969116Y-78292000D01*
X122727273Y-78392174D01*
X122596312Y-78523136D01*
X122572424Y-78396182D01*
X122451968Y-78208988D01*
X122290619Y-78098743D01*
X122441012Y-78001968D01*
X122566594Y-77818173D01*
X122610775Y-77600000D01*
X122610775Y-77100000D01*
X122572424Y-76896182D01*
X122451968Y-76708988D01*
X122400000Y-76673480D01*
X122400000Y-76570575D01*
X122549818Y-76209774D01*
X122550182Y-75792058D01*
X122390666Y-75406000D01*
X122173519Y-75188473D01*
X122413260Y-74949151D01*
X122649730Y-74379667D01*
X122650268Y-73763039D01*
X122560015Y-73544609D01*
X124249523Y-73544609D01*
X124667304Y-74555715D01*
X125440216Y-75329977D01*
X126450591Y-75749522D01*
X127544609Y-75750477D01*
X128555715Y-75332696D01*
X129329977Y-74559784D01*
X129749522Y-73549409D01*
X129750256Y-72707452D01*
X131459774Y-72707452D01*
X131657271Y-73185429D01*
X132022647Y-73551444D01*
X132500279Y-73749774D01*
X133017452Y-73750226D01*
X133495429Y-73552729D01*
X133861444Y-73187353D01*
X134059774Y-72709721D01*
X134060226Y-72192548D01*
X133862729Y-71714571D01*
X133497353Y-71348556D01*
X133019721Y-71150226D01*
X132502548Y-71149774D01*
X132024571Y-71347271D01*
X131658556Y-71712647D01*
X131460226Y-72190279D01*
X131459774Y-72707452D01*
X129750256Y-72707452D01*
X129750477Y-72455391D01*
X129332696Y-71444285D01*
X128559784Y-70670023D01*
X127549409Y-70250478D01*
X126455391Y-70249523D01*
X125444285Y-70667304D01*
X124670023Y-71440216D01*
X124250478Y-72450591D01*
X124249523Y-73544609D01*
X122560015Y-73544609D01*
X122414792Y-73193143D01*
X122051477Y-72829192D01*
X122102984Y-72680063D01*
X121100000Y-71677078D01*
X120097016Y-72680063D01*
X120148653Y-72829568D01*
X119786740Y-73190849D01*
X119550270Y-73760333D01*
X119549732Y-74376961D01*
X119785208Y-74946857D01*
X120220849Y-75383260D01*
X120560591Y-75524333D01*
X120450182Y-75790226D01*
X120449818Y-76207942D01*
X120609334Y-76594000D01*
X120740376Y-76725271D01*
X120633406Y-76881827D01*
X120589225Y-77100000D01*
X120589225Y-77517744D01*
X120209774Y-77360182D01*
X119792058Y-77359818D01*
X119406000Y-77519334D01*
X119110372Y-77814446D01*
X119000000Y-78080251D01*
X119000000Y-71237239D01*
X119435061Y-71237239D01*
X119449762Y-71896668D01*
X119673832Y-72437621D01*
X119949937Y-72532984D01*
X120952922Y-71530000D01*
X121247078Y-71530000D01*
X122250063Y-72532984D01*
X122526168Y-72437621D01*
X122764939Y-71822761D01*
X122750238Y-71163332D01*
X122526168Y-70622379D01*
X122250063Y-70527016D01*
X121247078Y-71530000D01*
X120952922Y-71530000D01*
X119949937Y-70527016D01*
X119673832Y-70622379D01*
X119435061Y-71237239D01*
X119000000Y-71237239D01*
X119000000Y-69900000D01*
X120684473Y-69900000D01*
X120192379Y-70103832D01*
D24*
G36*
X165500000Y-77100000D02*
X163700000Y-77100000D01*
X163700000Y-74600000D01*
X165500000Y-74600000D01*
X165500000Y-77100000D01*
X165500000Y-77100000D01*
G37*
X165500000Y-77100000D02*
X163700000Y-77100000D01*
X163700000Y-74600000D01*
X165500000Y-74600000D01*
X165500000Y-77100000D01*
M02*
