G04 #@! TF.FileFunction,Legend,Bot*
%FSLAX46Y46*%
G04 Gerber Fmt 4.6, Leading zero omitted, Abs format (unit mm)*
G04 Created by KiCad (PCBNEW 4.0.4+dfsg1-stable) date Sun Feb 26 01:11:18 2017*
%MOMM*%
%LPD*%
G01*
G04 APERTURE LIST*
%ADD10C,0.100000*%
%ADD11C,0.150000*%
G04 APERTURE END LIST*
D10*
X118400000Y-118300000D02*
X167400000Y-118300000D01*
X118400000Y-69300000D02*
X118400000Y-118300000D01*
X167400000Y-69300000D02*
X118400000Y-69300000D01*
X167400000Y-118300000D02*
X167400000Y-69300000D01*
D11*
X155675000Y-98050000D02*
X153675000Y-98050000D01*
X153675000Y-100200000D02*
X155675000Y-100200000D01*
X133360000Y-72450000D02*
G75*
G03X133360000Y-72450000I-600000J0D01*
G01*
X156360000Y-72450000D02*
G75*
G03X156360000Y-72450000I-600000J0D01*
G01*
X133360000Y-89950000D02*
G75*
G03X133360000Y-89950000I-600000J0D01*
G01*
X156360000Y-89950000D02*
G75*
G03X156360000Y-89950000I-600000J0D01*
G01*
X155760000Y-92700000D02*
X155760000Y-69700000D01*
X155760000Y-69700000D02*
X132760000Y-69700000D01*
X132760000Y-69700000D02*
X132760000Y-92700000D01*
X132760000Y-92700000D02*
X155760000Y-92700000D01*
X147760000Y-77300000D02*
X147260000Y-77800000D01*
X148160000Y-77700000D02*
X147760000Y-77300000D01*
X147660000Y-78200000D02*
X148160000Y-77700000D01*
X148761111Y-81200000D02*
G75*
G03X148761111Y-81200000I-4501111J0D01*
G01*
X146800000Y-81200000D02*
G75*
G03X146800000Y-81200000I-2540000J0D01*
G01*
X123800000Y-82575000D02*
X125000000Y-82575000D01*
X125000000Y-80825000D02*
X123800000Y-80825000D01*
X164350000Y-74825000D02*
X163150000Y-74825000D01*
X163150000Y-76575000D02*
X164350000Y-76575000D01*
X123800000Y-80475000D02*
X125000000Y-80475000D01*
X125000000Y-78725000D02*
X123800000Y-78725000D01*
X122275000Y-78600000D02*
X122275000Y-77600000D01*
X120925000Y-77600000D02*
X120925000Y-78600000D01*
X120825000Y-83250000D02*
X120825000Y-84250000D01*
X122175000Y-84250000D02*
X122175000Y-83250000D01*
X155813095Y-97477381D02*
X155813095Y-96477381D01*
X155575000Y-96477381D01*
X155432142Y-96525000D01*
X155336904Y-96620238D01*
X155289285Y-96715476D01*
X155241666Y-96905952D01*
X155241666Y-97048810D01*
X155289285Y-97239286D01*
X155336904Y-97334524D01*
X155432142Y-97429762D01*
X155575000Y-97477381D01*
X155813095Y-97477381D01*
X154289285Y-97477381D02*
X154860714Y-97477381D01*
X154575000Y-97477381D02*
X154575000Y-96477381D01*
X154670238Y-96620238D01*
X154765476Y-96715476D01*
X154860714Y-96763095D01*
X145021905Y-80652381D02*
X145021905Y-81461905D01*
X144974286Y-81557143D01*
X144926667Y-81604762D01*
X144831429Y-81652381D01*
X144640952Y-81652381D01*
X144545714Y-81604762D01*
X144498095Y-81557143D01*
X144450476Y-81461905D01*
X144450476Y-80652381D01*
X144069524Y-80652381D02*
X143450476Y-80652381D01*
X143783810Y-81033333D01*
X143640952Y-81033333D01*
X143545714Y-81080952D01*
X143498095Y-81128571D01*
X143450476Y-81223810D01*
X143450476Y-81461905D01*
X143498095Y-81557143D01*
X143545714Y-81604762D01*
X143640952Y-81652381D01*
X143926667Y-81652381D01*
X144021905Y-81604762D01*
X144069524Y-81557143D01*
X124766666Y-83757143D02*
X124814285Y-83804762D01*
X124957142Y-83852381D01*
X125052380Y-83852381D01*
X125195238Y-83804762D01*
X125290476Y-83709524D01*
X125338095Y-83614286D01*
X125385714Y-83423810D01*
X125385714Y-83280952D01*
X125338095Y-83090476D01*
X125290476Y-82995238D01*
X125195238Y-82900000D01*
X125052380Y-82852381D01*
X124957142Y-82852381D01*
X124814285Y-82900000D01*
X124766666Y-82947619D01*
X124195238Y-83280952D02*
X124290476Y-83233333D01*
X124338095Y-83185714D01*
X124385714Y-83090476D01*
X124385714Y-83042857D01*
X124338095Y-82947619D01*
X124290476Y-82900000D01*
X124195238Y-82852381D01*
X124004761Y-82852381D01*
X123909523Y-82900000D01*
X123861904Y-82947619D01*
X123814285Y-83042857D01*
X123814285Y-83090476D01*
X123861904Y-83185714D01*
X123909523Y-83233333D01*
X124004761Y-83280952D01*
X124195238Y-83280952D01*
X124290476Y-83328571D01*
X124338095Y-83376190D01*
X124385714Y-83471429D01*
X124385714Y-83661905D01*
X124338095Y-83757143D01*
X124290476Y-83804762D01*
X124195238Y-83852381D01*
X124004761Y-83852381D01*
X123909523Y-83804762D01*
X123861904Y-83757143D01*
X123814285Y-83661905D01*
X123814285Y-83471429D01*
X123861904Y-83376190D01*
X123909523Y-83328571D01*
X124004761Y-83280952D01*
X163916666Y-78157143D02*
X163964285Y-78204762D01*
X164107142Y-78252381D01*
X164202380Y-78252381D01*
X164345238Y-78204762D01*
X164440476Y-78109524D01*
X164488095Y-78014286D01*
X164535714Y-77823810D01*
X164535714Y-77680952D01*
X164488095Y-77490476D01*
X164440476Y-77395238D01*
X164345238Y-77300000D01*
X164202380Y-77252381D01*
X164107142Y-77252381D01*
X163964285Y-77300000D01*
X163916666Y-77347619D01*
X163440476Y-78252381D02*
X163250000Y-78252381D01*
X163154761Y-78204762D01*
X163107142Y-78157143D01*
X163011904Y-78014286D01*
X162964285Y-77823810D01*
X162964285Y-77442857D01*
X163011904Y-77347619D01*
X163059523Y-77300000D01*
X163154761Y-77252381D01*
X163345238Y-77252381D01*
X163440476Y-77300000D01*
X163488095Y-77347619D01*
X163535714Y-77442857D01*
X163535714Y-77680952D01*
X163488095Y-77776190D01*
X163440476Y-77823810D01*
X163345238Y-77871429D01*
X163154761Y-77871429D01*
X163059523Y-77823810D01*
X163011904Y-77776190D01*
X162964285Y-77680952D01*
X128142857Y-79957143D02*
X128190476Y-80004762D01*
X128333333Y-80052381D01*
X128428571Y-80052381D01*
X128571429Y-80004762D01*
X128666667Y-79909524D01*
X128714286Y-79814286D01*
X128761905Y-79623810D01*
X128761905Y-79480952D01*
X128714286Y-79290476D01*
X128666667Y-79195238D01*
X128571429Y-79100000D01*
X128428571Y-79052381D01*
X128333333Y-79052381D01*
X128190476Y-79100000D01*
X128142857Y-79147619D01*
X127190476Y-80052381D02*
X127761905Y-80052381D01*
X127476191Y-80052381D02*
X127476191Y-79052381D01*
X127571429Y-79195238D01*
X127666667Y-79290476D01*
X127761905Y-79338095D01*
X126571429Y-79052381D02*
X126476190Y-79052381D01*
X126380952Y-79100000D01*
X126333333Y-79147619D01*
X126285714Y-79242857D01*
X126238095Y-79433333D01*
X126238095Y-79671429D01*
X126285714Y-79861905D01*
X126333333Y-79957143D01*
X126380952Y-80004762D01*
X126476190Y-80052381D01*
X126571429Y-80052381D01*
X126666667Y-80004762D01*
X126714286Y-79957143D01*
X126761905Y-79861905D01*
X126809524Y-79671429D01*
X126809524Y-79433333D01*
X126761905Y-79242857D01*
X126714286Y-79147619D01*
X126666667Y-79100000D01*
X126571429Y-79052381D01*
X123752381Y-77933334D02*
X123276190Y-77600000D01*
X123752381Y-77361905D02*
X122752381Y-77361905D01*
X122752381Y-77742858D01*
X122800000Y-77838096D01*
X122847619Y-77885715D01*
X122942857Y-77933334D01*
X123085714Y-77933334D01*
X123180952Y-77885715D01*
X123228571Y-77838096D01*
X123276190Y-77742858D01*
X123276190Y-77361905D01*
X122752381Y-78838096D02*
X122752381Y-78361905D01*
X123228571Y-78314286D01*
X123180952Y-78361905D01*
X123133333Y-78457143D01*
X123133333Y-78695239D01*
X123180952Y-78790477D01*
X123228571Y-78838096D01*
X123323810Y-78885715D01*
X123561905Y-78885715D01*
X123657143Y-78838096D01*
X123704762Y-78790477D01*
X123752381Y-78695239D01*
X123752381Y-78457143D01*
X123704762Y-78361905D01*
X123657143Y-78314286D01*
X122052381Y-80457143D02*
X121576190Y-80123809D01*
X122052381Y-79885714D02*
X121052381Y-79885714D01*
X121052381Y-80266667D01*
X121100000Y-80361905D01*
X121147619Y-80409524D01*
X121242857Y-80457143D01*
X121385714Y-80457143D01*
X121480952Y-80409524D01*
X121528571Y-80361905D01*
X121576190Y-80266667D01*
X121576190Y-79885714D01*
X122052381Y-81409524D02*
X122052381Y-80838095D01*
X122052381Y-81123809D02*
X121052381Y-81123809D01*
X121195238Y-81028571D01*
X121290476Y-80933333D01*
X121338095Y-80838095D01*
X121052381Y-81742857D02*
X121052381Y-82409524D01*
X122052381Y-81980952D01*
X147238095Y-113532381D02*
X147238095Y-112532381D01*
X146857142Y-112532381D01*
X146761904Y-112580000D01*
X146714285Y-112627619D01*
X146666666Y-112722857D01*
X146666666Y-112865714D01*
X146714285Y-112960952D01*
X146761904Y-113008571D01*
X146857142Y-113056190D01*
X147238095Y-113056190D01*
X145714285Y-113532381D02*
X146285714Y-113532381D01*
X146000000Y-113532381D02*
X146000000Y-112532381D01*
X146095238Y-112675238D01*
X146190476Y-112770476D01*
X146285714Y-112818095D01*
M02*
