G04 #@! TF.FileFunction,Soldermask,Top*
%FSLAX46Y46*%
G04 Gerber Fmt 4.6, Leading zero omitted, Abs format (unit mm)*
G04 Created by KiCad (PCBNEW 4.0.4+dfsg1-stable) date Sun Feb 26 01:11:18 2017*
%MOMM*%
%LPD*%
G01*
G04 APERTURE LIST*
%ADD10C,0.100000*%
%ADD11C,0.600000*%
%ADD12R,0.900000X0.500000*%
%ADD13R,1.000000X0.600000*%
%ADD14C,4.400000*%
%ADD15R,0.500000X1.200000*%
%ADD16R,1.200000X0.500000*%
%ADD17R,0.700000X1.300000*%
%ADD18R,0.500000X0.900000*%
%ADD19C,2.000000*%
%ADD20C,1.300000*%
%ADD21R,1.300000X0.700000*%
%ADD22R,1.400000X1.600000*%
%ADD23R,1.500000X0.600000*%
%ADD24R,0.400000X1.000000*%
%ADD25R,3.200000X1.200000*%
%ADD26R,1.000000X0.350000*%
%ADD27R,1.600000X1.400000*%
%ADD28R,2.000000X2.000000*%
%ADD29R,2.000000X0.400000*%
%ADD30R,1.500000X3.000000*%
%ADD31R,3.000000X1.400000*%
%ADD32C,1.000000*%
%ADD33C,0.700000*%
%ADD34C,0.200000*%
G04 APERTURE END LIST*
D10*
X118400000Y-118300000D02*
X167400000Y-118300000D01*
X118400000Y-69300000D02*
X118400000Y-118300000D01*
X167400000Y-69300000D02*
X118400000Y-69300000D01*
X167400000Y-118300000D02*
X167400000Y-69300000D01*
D11*
X163950000Y-73100000D03*
X165950000Y-73100000D03*
X157950000Y-73100000D03*
X161950000Y-73100000D03*
X159950000Y-73100000D03*
X163950000Y-70600000D03*
X165950000Y-70600000D03*
X157950000Y-70600000D03*
X161950000Y-70600000D03*
X159950000Y-70600000D03*
X165950000Y-71850000D03*
X163950000Y-71850000D03*
X157950000Y-71850000D03*
X159950000Y-71850000D03*
X161950000Y-71850000D03*
X164650000Y-77800000D03*
X162650000Y-77800000D03*
X160650000Y-77800000D03*
D12*
X164280000Y-80600000D03*
X164280000Y-79100000D03*
D13*
X161130000Y-80850000D03*
X161130000Y-78950000D03*
X158430000Y-79900000D03*
D14*
X127000000Y-73000000D03*
X162150000Y-91800000D03*
D15*
X146900000Y-91150000D03*
X146100000Y-91150000D03*
X145300000Y-91150000D03*
X144500000Y-91150000D03*
X143700000Y-91150000D03*
X142900000Y-91150000D03*
X142100000Y-91150000D03*
X141300000Y-91150000D03*
D16*
X139850000Y-92600000D03*
X139850000Y-93400000D03*
X139850000Y-94200000D03*
X139850000Y-95000000D03*
X139850000Y-95800000D03*
X139850000Y-96600000D03*
X139850000Y-97400000D03*
X139850000Y-98200000D03*
D15*
X141300000Y-99650000D03*
X142100000Y-99650000D03*
X142900000Y-99650000D03*
X143700000Y-99650000D03*
X144500000Y-99650000D03*
X145300000Y-99650000D03*
X146100000Y-99650000D03*
X146900000Y-99650000D03*
D16*
X148350000Y-98200000D03*
X148350000Y-97400000D03*
X148350000Y-96600000D03*
X148350000Y-95800000D03*
X148350000Y-95000000D03*
X148350000Y-94200000D03*
X148350000Y-93400000D03*
X148350000Y-92600000D03*
D17*
X147450000Y-105500000D03*
X145550000Y-105500000D03*
D18*
X153550000Y-81700000D03*
X152050000Y-81700000D03*
D19*
X146800000Y-81200000D03*
X141720000Y-81200000D03*
X144260000Y-83740000D03*
D20*
X132760000Y-89950000D03*
X132760000Y-72450000D03*
X155760000Y-72450000D03*
X155760000Y-89950000D03*
D10*
G36*
X140878858Y-100459619D02*
X139959619Y-101378858D01*
X139464644Y-100883883D01*
X140383883Y-99964644D01*
X140878858Y-100459619D01*
X140878858Y-100459619D01*
G37*
G36*
X139535356Y-99116117D02*
X138616117Y-100035356D01*
X138121142Y-99540381D01*
X139040381Y-98621142D01*
X139535356Y-99116117D01*
X139535356Y-99116117D01*
G37*
G36*
X147421142Y-90240381D02*
X148340381Y-89321142D01*
X148835356Y-89816117D01*
X147916117Y-90735356D01*
X147421142Y-90240381D01*
X147421142Y-90240381D01*
G37*
G36*
X148764644Y-91583883D02*
X149683883Y-90664644D01*
X150178858Y-91159619D01*
X149259619Y-92078858D01*
X148764644Y-91583883D01*
X148764644Y-91583883D01*
G37*
G36*
X139478858Y-101859619D02*
X138559619Y-102778858D01*
X138064644Y-102283883D01*
X138983883Y-101364644D01*
X139478858Y-101859619D01*
X139478858Y-101859619D01*
G37*
G36*
X138135356Y-100516117D02*
X137216117Y-101435356D01*
X136721142Y-100940381D01*
X137640381Y-100021142D01*
X138135356Y-100516117D01*
X138135356Y-100516117D01*
G37*
D21*
X145000000Y-87950000D03*
X145000000Y-86050000D03*
X143000000Y-87950000D03*
X143000000Y-86050000D03*
D17*
X161150000Y-107550000D03*
X163050000Y-107550000D03*
X145150000Y-79400000D03*
X143250000Y-79400000D03*
X133200000Y-78750000D03*
X131300000Y-78750000D03*
D21*
X132900000Y-74550000D03*
X132900000Y-76450000D03*
D17*
X123550000Y-91200000D03*
X125450000Y-91200000D03*
D21*
X131000000Y-82550000D03*
X131000000Y-84450000D03*
D17*
X128950000Y-88200000D03*
X130850000Y-88200000D03*
X125650000Y-93300000D03*
X127550000Y-93300000D03*
X124250000Y-93300000D03*
X122350000Y-93300000D03*
X149050000Y-71300000D03*
X147150000Y-71300000D03*
X143950000Y-71300000D03*
X145850000Y-71300000D03*
D19*
X121100000Y-74070000D03*
X121100000Y-71530000D03*
D13*
X151250000Y-74650000D03*
X151250000Y-72750000D03*
X148550000Y-73700000D03*
D18*
X162900000Y-105600000D03*
X161400000Y-105600000D03*
X152050000Y-79900000D03*
X153550000Y-79900000D03*
X156175000Y-100700000D03*
X154675000Y-100700000D03*
X140650000Y-83800000D03*
X142150000Y-83800000D03*
X137650000Y-83800000D03*
X139150000Y-83800000D03*
X129750000Y-76250000D03*
X131250000Y-76250000D03*
X130850000Y-81000000D03*
X132350000Y-81000000D03*
X123050000Y-86800000D03*
X124550000Y-86800000D03*
X125850000Y-86800000D03*
X127350000Y-86800000D03*
X129250000Y-86400000D03*
X130750000Y-86400000D03*
D12*
X152900000Y-74450000D03*
X152900000Y-72950000D03*
X122700000Y-96950000D03*
X122700000Y-95450000D03*
D22*
X159850000Y-115950000D03*
X164350000Y-115950000D03*
X159850000Y-107550000D03*
X164350000Y-107550000D03*
D23*
X126950000Y-85060000D03*
X126950000Y-83790000D03*
X126950000Y-82520000D03*
X126950000Y-81250000D03*
X126950000Y-79980000D03*
X126950000Y-78710000D03*
X126950000Y-77440000D03*
X121550000Y-77440000D03*
X121550000Y-78710000D03*
X121550000Y-79980000D03*
X121550000Y-81250000D03*
X121550000Y-82520000D03*
X121550000Y-83790000D03*
X121550000Y-85060000D03*
D24*
X124250000Y-97100000D03*
X124900000Y-97100000D03*
X125550000Y-97100000D03*
X125550000Y-94900000D03*
X124250000Y-94900000D03*
D25*
X141900000Y-75740000D03*
X141900000Y-73660000D03*
D26*
X146800000Y-74350000D03*
X146800000Y-73700000D03*
X146800000Y-73050000D03*
X144600000Y-73050000D03*
X144600000Y-73700000D03*
X144600000Y-74350000D03*
D18*
X123050000Y-88500000D03*
X124550000Y-88500000D03*
X126150000Y-88500000D03*
X127650000Y-88500000D03*
D27*
X166150000Y-87450000D03*
X166150000Y-82950000D03*
X157750000Y-87450000D03*
X157750000Y-82950000D03*
D13*
X156550000Y-78150000D03*
X156550000Y-76250000D03*
X153850000Y-77200000D03*
D12*
X158500000Y-76200000D03*
X158500000Y-74700000D03*
D13*
X136050000Y-85550000D03*
X136050000Y-87450000D03*
X138750000Y-86500000D03*
D12*
X141100000Y-87450000D03*
X141100000Y-85950000D03*
D28*
X156100000Y-113980000D03*
D19*
X153560000Y-113980000D03*
X156100000Y-111440000D03*
X153560000Y-111440000D03*
X156100000Y-108900000D03*
X153560000Y-108900000D03*
X156100000Y-106360000D03*
X153560000Y-106360000D03*
D14*
X127000000Y-110000000D03*
D29*
X165800000Y-76700000D03*
X165800000Y-75700000D03*
X165800000Y-74700000D03*
X161700000Y-74700000D03*
X161700000Y-75700000D03*
X161700000Y-76700000D03*
D30*
X163750000Y-75700000D03*
D31*
X165450000Y-96800000D03*
X165450000Y-99800000D03*
X158750000Y-96800000D03*
X158750000Y-99800000D03*
D32*
X162150000Y-96800000D03*
X164350000Y-111900000D03*
D33*
X166500000Y-75700000D03*
D32*
X148700000Y-105500000D03*
X142900000Y-94800000D03*
X145900000Y-84900000D03*
X137400000Y-88300000D03*
X157800000Y-85050000D03*
X150250000Y-89750006D03*
X129500000Y-93500000D03*
X119750000Y-80500000D03*
X124900000Y-98400000D03*
X149950000Y-88150000D03*
X143300000Y-105460000D03*
X147250000Y-86000008D03*
X158400000Y-102100000D03*
X145499998Y-94500000D03*
X160100000Y-75500000D03*
X153200000Y-71300000D03*
X121750000Y-86499988D03*
X128750000Y-82000000D03*
X132000000Y-85500000D03*
X136250000Y-70500000D03*
X142500000Y-71500000D03*
X145250000Y-75750000D03*
X135200000Y-78800000D03*
X137500000Y-78750000D03*
X133900000Y-80999998D03*
X129500000Y-77500000D03*
X128500000Y-85500000D03*
X123000000Y-84000000D03*
X152000000Y-99000000D03*
X157300000Y-98300000D03*
X120000000Y-78410000D03*
X124500000Y-77450002D03*
X121500000Y-76000000D03*
X133500000Y-86250000D03*
X140100000Y-108400000D03*
X137200000Y-93195980D03*
X137600000Y-106300000D03*
X135400000Y-103700000D03*
X137300000Y-96100000D03*
X136500002Y-98500000D03*
X141900000Y-101400000D03*
X146914475Y-89358746D03*
X156940000Y-102870000D03*
X151654013Y-103800000D03*
X146100000Y-98000000D03*
X150100000Y-103800002D03*
X147800000Y-100800000D03*
X119750000Y-82250000D03*
X155200000Y-81700000D03*
X151700000Y-83200000D03*
X134800000Y-85600000D03*
X120000000Y-85250000D03*
D34*
G36*
X164400000Y-74400000D02*
X163100000Y-74400000D01*
X163100000Y-72800000D01*
X164400000Y-72800000D01*
X164400000Y-74400000D01*
X164400000Y-74400000D01*
G37*
X164400000Y-74400000D02*
X163100000Y-74400000D01*
X163100000Y-72800000D01*
X164400000Y-72800000D01*
X164400000Y-74400000D01*
M02*
