G04 #@! TF.FileFunction,Paste,Top*
%FSLAX46Y46*%
G04 Gerber Fmt 4.6, Leading zero omitted, Abs format (unit mm)*
G04 Created by KiCad (PCBNEW 4.0.4+dfsg1-stable) date Tue Feb 14 21:55:06 2017*
%MOMM*%
%LPD*%
G01*
G04 APERTURE LIST*
%ADD10C,0.100000*%
%ADD11R,0.500000X1.200000*%
%ADD12R,1.200000X0.500000*%
%ADD13R,0.700000X1.300000*%
%ADD14R,0.500000X0.900000*%
%ADD15R,1.300000X0.700000*%
%ADD16R,1.000000X0.600000*%
%ADD17R,0.900000X0.500000*%
%ADD18R,1.600000X1.400000*%
%ADD19R,1.500000X0.600000*%
%ADD20R,0.400000X1.000000*%
%ADD21R,3.200000X1.200000*%
%ADD22R,1.000000X0.350000*%
%ADD23R,0.600000X0.400000*%
%ADD24R,1.500000X5.000000*%
G04 APERTURE END LIST*
D10*
X118400000Y-118300000D02*
X167400000Y-118300000D01*
X118400000Y-69300000D02*
X118400000Y-118300000D01*
X167400000Y-69300000D02*
X118400000Y-69300000D01*
X167400000Y-118300000D02*
X167400000Y-69300000D01*
D11*
X146900000Y-91150000D03*
X146100000Y-91150000D03*
X145300000Y-91150000D03*
X144500000Y-91150000D03*
X143700000Y-91150000D03*
X142900000Y-91150000D03*
X142100000Y-91150000D03*
X141300000Y-91150000D03*
D12*
X139850000Y-92600000D03*
X139850000Y-93400000D03*
X139850000Y-94200000D03*
X139850000Y-95000000D03*
X139850000Y-95800000D03*
X139850000Y-96600000D03*
X139850000Y-97400000D03*
X139850000Y-98200000D03*
D11*
X141300000Y-99650000D03*
X142100000Y-99650000D03*
X142900000Y-99650000D03*
X143700000Y-99650000D03*
X144500000Y-99650000D03*
X145300000Y-99650000D03*
X146100000Y-99650000D03*
X146900000Y-99650000D03*
D12*
X148350000Y-98200000D03*
X148350000Y-97400000D03*
X148350000Y-96600000D03*
X148350000Y-95800000D03*
X148350000Y-95000000D03*
X148350000Y-94200000D03*
X148350000Y-93400000D03*
X148350000Y-92600000D03*
D13*
X147450000Y-105500000D03*
X145550000Y-105500000D03*
D14*
X153550000Y-81700000D03*
X152050000Y-81700000D03*
D10*
G36*
X140878858Y-100459619D02*
X139959619Y-101378858D01*
X139464644Y-100883883D01*
X140383883Y-99964644D01*
X140878858Y-100459619D01*
X140878858Y-100459619D01*
G37*
G36*
X139535356Y-99116117D02*
X138616117Y-100035356D01*
X138121142Y-99540381D01*
X139040381Y-98621142D01*
X139535356Y-99116117D01*
X139535356Y-99116117D01*
G37*
G36*
X147421142Y-90240381D02*
X148340381Y-89321142D01*
X148835356Y-89816117D01*
X147916117Y-90735356D01*
X147421142Y-90240381D01*
X147421142Y-90240381D01*
G37*
G36*
X148764644Y-91583883D02*
X149683883Y-90664644D01*
X150178858Y-91159619D01*
X149259619Y-92078858D01*
X148764644Y-91583883D01*
X148764644Y-91583883D01*
G37*
G36*
X139478858Y-101859619D02*
X138559619Y-102778858D01*
X138064644Y-102283883D01*
X138983883Y-101364644D01*
X139478858Y-101859619D01*
X139478858Y-101859619D01*
G37*
G36*
X138135356Y-100516117D02*
X137216117Y-101435356D01*
X136721142Y-100940381D01*
X137640381Y-100021142D01*
X138135356Y-100516117D01*
X138135356Y-100516117D01*
G37*
D15*
X145000000Y-87950000D03*
X145000000Y-86050000D03*
X143000000Y-87950000D03*
X143000000Y-86050000D03*
X157300000Y-84450000D03*
X157300000Y-82550000D03*
D13*
X145150000Y-79400000D03*
X143250000Y-79400000D03*
X133200000Y-78750000D03*
X131300000Y-78750000D03*
X129550000Y-74400000D03*
X131450000Y-74400000D03*
X123550000Y-91200000D03*
X125450000Y-91200000D03*
D15*
X131000000Y-82550000D03*
X131000000Y-84450000D03*
D13*
X128950000Y-88200000D03*
X130850000Y-88200000D03*
X125650000Y-93300000D03*
X127550000Y-93300000D03*
X124250000Y-93300000D03*
X122350000Y-93300000D03*
X149050000Y-71300000D03*
X147150000Y-71300000D03*
X143950000Y-71300000D03*
X145850000Y-71300000D03*
D16*
X151250000Y-74650000D03*
X151250000Y-72750000D03*
X148550000Y-73700000D03*
D17*
X154500000Y-87250000D03*
X154500000Y-85750000D03*
D14*
X152050000Y-79900000D03*
X153550000Y-79900000D03*
X140650000Y-83800000D03*
X142150000Y-83800000D03*
X137650000Y-83800000D03*
X139150000Y-83800000D03*
X129750000Y-76250000D03*
X131250000Y-76250000D03*
X130850000Y-81000000D03*
X132350000Y-81000000D03*
X123050000Y-86800000D03*
X124550000Y-86800000D03*
X125850000Y-86800000D03*
X127350000Y-86800000D03*
X129250000Y-86400000D03*
X130750000Y-86400000D03*
D17*
X152900000Y-74450000D03*
X152900000Y-72950000D03*
X122700000Y-96950000D03*
X122700000Y-95450000D03*
D18*
X165900000Y-85750000D03*
X165900000Y-81250000D03*
X157500000Y-85750000D03*
X157500000Y-81250000D03*
D19*
X126950000Y-85060000D03*
X126950000Y-83790000D03*
X126950000Y-82520000D03*
X126950000Y-81250000D03*
X126950000Y-79980000D03*
X126950000Y-78710000D03*
X126950000Y-77440000D03*
X121550000Y-77440000D03*
X121550000Y-78710000D03*
X121550000Y-79980000D03*
X121550000Y-81250000D03*
X121550000Y-82520000D03*
X121550000Y-83790000D03*
X121550000Y-85060000D03*
D20*
X124250000Y-97100000D03*
X124900000Y-97100000D03*
X125550000Y-97100000D03*
X125550000Y-94900000D03*
X124250000Y-94900000D03*
D21*
X141900000Y-75740000D03*
X141900000Y-73660000D03*
D22*
X146800000Y-74350000D03*
X146800000Y-73700000D03*
X146800000Y-73050000D03*
X144600000Y-73050000D03*
X144600000Y-73700000D03*
X144600000Y-74350000D03*
D14*
X123050000Y-88500000D03*
X124550000Y-88500000D03*
X126150000Y-88500000D03*
X127650000Y-88500000D03*
D18*
X166100000Y-99650000D03*
X166100000Y-95150000D03*
X157700000Y-99650000D03*
X157700000Y-95150000D03*
D23*
X165100000Y-76700000D03*
X165100000Y-75700000D03*
X165100000Y-74700000D03*
X162400000Y-74700000D03*
X162400000Y-75700000D03*
X162400000Y-76700000D03*
D24*
X163750000Y-74400000D03*
D16*
X160950000Y-79650000D03*
X160950000Y-77750000D03*
X158250000Y-78700000D03*
X156550000Y-78150000D03*
X156550000Y-76250000D03*
X153850000Y-77200000D03*
D17*
X164100000Y-79400000D03*
X164100000Y-77900000D03*
X158500000Y-76200000D03*
X158500000Y-74700000D03*
D16*
X136050000Y-85550000D03*
X136050000Y-87450000D03*
X138750000Y-86500000D03*
D17*
X141100000Y-87450000D03*
X141100000Y-85950000D03*
M02*
