G04 #@! TF.FileFunction,Copper,L2,Bot,Signal*
%FSLAX46Y46*%
G04 Gerber Fmt 4.6, Leading zero omitted, Abs format (unit mm)*
G04 Created by KiCad (PCBNEW 4.0.0-2.201512091501+6195~38~ubuntu15.10.1-stable) date do 17 dec 2015 22:41:49 CET*
%MOMM*%
G01*
G04 APERTURE LIST*
%ADD10C,0.100000*%
%ADD11C,0.150000*%
%ADD12R,1.727200X1.727200*%
%ADD13O,1.727200X1.727200*%
%ADD14R,2.000000X2.500000*%
%ADD15R,1.727200X2.032000*%
%ADD16O,1.727200X2.032000*%
%ADD17R,2.032000X2.032000*%
%ADD18O,2.032000X2.032000*%
%ADD19R,0.900000X1.700000*%
%ADD20R,1.399540X2.999740*%
%ADD21R,1.998980X1.998980*%
%ADD22C,1.000000*%
%ADD23C,0.600000*%
%ADD24C,0.800000*%
%ADD25C,1.000000*%
%ADD26C,0.400000*%
%ADD27C,0.300000*%
G04 APERTURE END LIST*
D10*
D11*
X124666666Y-69000000D02*
G75*
G03X124666666Y-69000000I-666666J0D01*
G01*
X123000000Y-69000000D02*
X125000000Y-69000000D01*
X124000000Y-68000000D02*
X124000000Y-70000000D01*
X88966666Y-60400000D02*
G75*
G03X88966666Y-60400000I-666666J0D01*
G01*
X87300000Y-60400000D02*
X89300000Y-60400000D01*
X88300000Y-59400000D02*
X88300000Y-61400000D01*
X98666666Y-91200000D02*
G75*
G03X98666666Y-91200000I-666666J0D01*
G01*
X97000000Y-91200000D02*
X99000000Y-91200000D01*
X98000000Y-90200000D02*
X98000000Y-92200000D01*
X77000000Y-95000000D02*
X77000000Y-57000000D01*
X127000000Y-95000000D02*
X77000000Y-95000000D01*
X127000000Y-57000000D02*
X127000000Y-95000000D01*
X77000000Y-57000000D02*
X127000000Y-57000000D01*
D12*
X100780000Y-64740000D03*
D13*
X100780000Y-62200000D03*
X98240000Y-64740000D03*
X98240000Y-62200000D03*
X95700000Y-64740000D03*
X95700000Y-62200000D03*
X93160000Y-64740000D03*
X93160000Y-62200000D03*
D14*
X107400000Y-63500000D03*
X107400000Y-59200000D03*
D15*
X105700000Y-92900000D03*
D16*
X108240000Y-92900000D03*
X110780000Y-92900000D03*
X113320000Y-92900000D03*
D17*
X112450000Y-66400000D03*
D18*
X112450000Y-68940000D03*
D19*
X113050000Y-60200000D03*
X110150000Y-60200000D03*
D20*
X81980000Y-84799040D03*
X81980000Y-90000960D03*
D21*
X81980000Y-82398740D03*
X81980000Y-92401260D03*
D12*
X81980000Y-64430000D03*
D13*
X84520000Y-64430000D03*
X81980000Y-66970000D03*
X84520000Y-66970000D03*
X81980000Y-69510000D03*
X84520000Y-69510000D03*
X81980000Y-72050000D03*
X84520000Y-72050000D03*
X81980000Y-74590000D03*
X84520000Y-74590000D03*
X81980000Y-77130000D03*
X84520000Y-77130000D03*
D22*
X102400000Y-86700000D03*
X122000000Y-71500000D03*
X117926091Y-82370428D03*
X109000000Y-82850000D03*
X104450000Y-81200000D03*
X87200000Y-66200000D03*
X110400000Y-72100000D03*
X103533548Y-75650000D03*
X92300000Y-79600000D03*
X88600000Y-79100000D03*
X105361890Y-64017668D03*
X103308012Y-73649979D03*
X84900000Y-84700000D03*
X100702832Y-84402832D03*
X104399998Y-60800000D03*
X104400006Y-59200000D03*
X96600000Y-68499992D03*
X97100000Y-66800000D03*
X104361870Y-62418909D03*
X106100000Y-79200000D03*
X114100000Y-78399980D03*
X87300000Y-72100000D03*
X87000000Y-74600000D03*
X84700000Y-79493621D03*
X79900000Y-67100000D03*
X94200000Y-67500000D03*
X105700000Y-90700000D03*
X120600000Y-59500000D03*
X106400000Y-81100000D03*
X89000000Y-68500000D03*
X102868478Y-78982720D03*
X112450000Y-64055051D03*
X91700000Y-89100000D03*
X108800000Y-72500000D03*
D23*
X117926091Y-82370428D02*
X113596519Y-86700000D01*
X113596519Y-86700000D02*
X102400000Y-86700000D01*
X118633197Y-82370428D02*
X117926091Y-82370428D01*
X122000000Y-71500000D02*
X122000000Y-79003625D01*
X122000000Y-79003625D02*
X118633197Y-82370428D01*
D24*
X104450000Y-82150000D02*
X105150000Y-82850000D01*
X105150000Y-82850000D02*
X109000000Y-82850000D01*
X104450000Y-81200000D02*
X104450000Y-82150000D01*
X85600000Y-64600000D02*
X84690000Y-64600000D01*
X84690000Y-64600000D02*
X84520000Y-64430000D01*
X87200000Y-66200000D02*
X85600000Y-64600000D01*
D25*
X81980000Y-90000960D02*
X81980000Y-92401260D01*
D26*
X81980000Y-91001770D02*
X81980000Y-92401260D01*
X92300000Y-79600000D02*
X96250000Y-75650000D01*
X96250000Y-75650000D02*
X103533548Y-75650000D01*
X87993601Y-78493601D02*
X88100001Y-78600001D01*
X88100001Y-78600001D02*
X88600000Y-79100000D01*
X80616399Y-75953601D02*
X80616399Y-77784529D01*
X81980000Y-74590000D02*
X80616399Y-75953601D01*
X80616399Y-77784529D02*
X81325471Y-78493601D01*
X81325471Y-78493601D02*
X87993601Y-78493601D01*
D23*
X107382332Y-64017668D02*
X106068996Y-64017668D01*
X106068996Y-64017668D02*
X105361890Y-64017668D01*
X107400000Y-64000000D02*
X107382332Y-64017668D01*
X110150000Y-60200000D02*
X108900000Y-60200000D01*
X108900000Y-60200000D02*
X107400000Y-58700000D01*
D25*
X81980000Y-84799040D02*
X81980000Y-82398740D01*
D23*
X84900000Y-84700000D02*
X95950021Y-73649979D01*
X95950021Y-73649979D02*
X102600906Y-73649979D01*
X102600906Y-73649979D02*
X103308012Y-73649979D01*
X100702832Y-87302832D02*
X100702832Y-85109938D01*
X102000000Y-88600000D02*
X100702832Y-87302832D01*
X105556000Y-88600000D02*
X102000000Y-88600000D01*
X108240000Y-91284000D02*
X105556000Y-88600000D01*
X100702832Y-85109938D02*
X100702832Y-84402832D01*
X108240000Y-92900000D02*
X108240000Y-91284000D01*
D26*
X95700000Y-62200000D02*
X98299988Y-59600012D01*
X98299988Y-59600012D02*
X103200010Y-59600012D01*
X103200010Y-59600012D02*
X103899999Y-60300001D01*
X103899999Y-60300001D02*
X104399998Y-60800000D01*
X103900007Y-58700001D02*
X104400006Y-59200000D01*
X96660000Y-58700000D02*
X103900007Y-58700001D01*
X93160000Y-62200000D02*
X96660000Y-58700000D01*
D23*
X95700000Y-64740000D02*
X95700000Y-67599992D01*
X95700000Y-67599992D02*
X96100001Y-67999993D01*
X96100001Y-67999993D02*
X96600000Y-68499992D01*
X97100000Y-65880000D02*
X97100000Y-66092894D01*
X97100000Y-66092894D02*
X97100000Y-66800000D01*
X98240000Y-64740000D02*
X97100000Y-65880000D01*
D26*
X98240000Y-62200000D02*
X98240000Y-61160000D01*
X98240000Y-61160000D02*
X99000000Y-60400000D01*
X99000000Y-60400000D02*
X102342961Y-60400000D01*
X102342961Y-60400000D02*
X104361870Y-62418909D01*
D23*
X106100000Y-79200000D02*
X108300000Y-79200000D01*
X108300000Y-79200000D02*
X109100020Y-78399980D01*
X109100020Y-78399980D02*
X113392894Y-78399980D01*
X113392894Y-78399980D02*
X114100000Y-78399980D01*
D26*
X87300000Y-72100000D02*
X84570000Y-72100000D01*
X84570000Y-72100000D02*
X84520000Y-72050000D01*
X87000000Y-74600000D02*
X84530000Y-74600000D01*
X84530000Y-74600000D02*
X84520000Y-74590000D01*
X81980000Y-72050000D02*
X79916389Y-74113611D01*
X81335528Y-79493621D02*
X83992894Y-79493621D01*
X79916389Y-78074482D02*
X81335528Y-79493621D01*
X79916389Y-74113611D02*
X79916389Y-78074482D01*
X83992894Y-79493621D02*
X84700000Y-79493621D01*
X79900000Y-67100000D02*
X81850000Y-67100000D01*
X81850000Y-67100000D02*
X81980000Y-66970000D01*
D23*
X94200000Y-67500000D02*
X94200000Y-67400000D01*
X94200000Y-67400000D02*
X93160000Y-66360000D01*
X93160000Y-66360000D02*
X93160000Y-64740000D01*
X105700000Y-90700000D02*
X105700000Y-92900000D01*
X106400000Y-81100000D02*
X107672806Y-81100000D01*
X107672806Y-81100000D02*
X109272797Y-79500009D01*
X114999991Y-79500009D02*
X116400000Y-78100000D01*
X109272797Y-79500009D02*
X114999991Y-79500009D01*
X116400000Y-78100000D02*
X116400000Y-63700000D01*
X116400000Y-63700000D02*
X120600000Y-59500000D01*
X91700000Y-89100000D02*
X94400000Y-89100000D01*
X94400000Y-89100000D02*
X108300001Y-75199999D01*
X108300001Y-75199999D02*
X108300001Y-72999999D01*
X108300001Y-72999999D02*
X108800000Y-72500000D01*
D25*
X106600000Y-70200000D02*
X90700000Y-70200000D01*
X90700000Y-70200000D02*
X89000000Y-68500000D01*
X89000000Y-65100000D02*
X85700000Y-61800000D01*
X89000000Y-68500000D02*
X89000000Y-65100000D01*
X85700000Y-61800000D02*
X83200000Y-61800000D01*
X83200000Y-61800000D02*
X81980000Y-63020000D01*
X81980000Y-63020000D02*
X81980000Y-64430000D01*
X102400000Y-66400000D02*
X100700000Y-64700000D01*
X112450000Y-66400000D02*
X102400000Y-66400000D01*
X110434000Y-66400000D02*
X112450000Y-66400000D01*
D23*
X113050000Y-60200000D02*
X113050000Y-63455051D01*
X113050000Y-63455051D02*
X112450000Y-64055051D01*
X112450000Y-64055051D02*
X112450000Y-66400000D01*
D25*
X102868478Y-78982720D02*
X105156018Y-76695180D01*
X105156018Y-76695180D02*
X105156018Y-71643982D01*
X108800000Y-68034000D02*
X110434000Y-66400000D01*
X105156018Y-71643982D02*
X106600000Y-70200000D01*
X106600000Y-70200000D02*
X107934000Y-70200000D01*
X108800000Y-69334000D02*
X108800000Y-68034000D01*
X107934000Y-70200000D02*
X108800000Y-69334000D01*
D24*
X108800000Y-69334000D02*
X108800000Y-72500000D01*
D27*
G36*
X105883406Y-57731827D02*
X105839225Y-57950000D01*
X105839225Y-60450000D01*
X105877576Y-60653818D01*
X105998032Y-60841012D01*
X106181827Y-60966594D01*
X106400000Y-61010775D01*
X108400000Y-61010775D01*
X108566079Y-60979525D01*
X108574719Y-60985298D01*
X108900000Y-61050000D01*
X109139225Y-61050000D01*
X109177576Y-61253818D01*
X109298032Y-61441012D01*
X109481827Y-61566594D01*
X109700000Y-61610775D01*
X110600000Y-61610775D01*
X110803818Y-61572424D01*
X110991012Y-61451968D01*
X111116594Y-61268173D01*
X111160775Y-61050000D01*
X111160775Y-59350000D01*
X111122424Y-59146182D01*
X111001968Y-58958988D01*
X110818173Y-58833406D01*
X110600000Y-58789225D01*
X109700000Y-58789225D01*
X109496182Y-58827576D01*
X109308988Y-58948032D01*
X109183406Y-59131827D01*
X109158230Y-59256148D01*
X108960775Y-59058693D01*
X108960775Y-57950000D01*
X108922424Y-57746182D01*
X108844446Y-57625000D01*
X126375000Y-57625000D01*
X126375000Y-94375000D01*
X114017124Y-94375000D01*
X114254500Y-94256287D01*
X114644073Y-93807029D01*
X114832068Y-93242885D01*
X114678750Y-93004000D01*
X113424000Y-93004000D01*
X113424000Y-93024000D01*
X113216000Y-93024000D01*
X113216000Y-93004000D01*
X110884000Y-93004000D01*
X110884000Y-93024000D01*
X110676000Y-93024000D01*
X110676000Y-93004000D01*
X110656000Y-93004000D01*
X110656000Y-92796000D01*
X110676000Y-92796000D01*
X110676000Y-91394491D01*
X110884000Y-91394491D01*
X110884000Y-92796000D01*
X113216000Y-92796000D01*
X113216000Y-91394491D01*
X113424000Y-91394491D01*
X113424000Y-92796000D01*
X114678750Y-92796000D01*
X114832068Y-92557115D01*
X114644073Y-91992971D01*
X114254500Y-91543713D01*
X113722658Y-91277736D01*
X113660194Y-91264517D01*
X113424000Y-91394491D01*
X113216000Y-91394491D01*
X112979806Y-91264517D01*
X112917342Y-91277736D01*
X112385500Y-91543713D01*
X112050000Y-91930614D01*
X111714500Y-91543713D01*
X111182658Y-91277736D01*
X111120194Y-91264517D01*
X110884000Y-91394491D01*
X110676000Y-91394491D01*
X110439806Y-91264517D01*
X110377342Y-91277736D01*
X109845500Y-91543713D01*
X109455927Y-91992971D01*
X109445212Y-92025125D01*
X109239566Y-91717354D01*
X109090000Y-91617417D01*
X109090000Y-91284000D01*
X109025298Y-90958719D01*
X108841041Y-90682959D01*
X106157041Y-87998959D01*
X105881281Y-87814702D01*
X105556000Y-87750000D01*
X102608382Y-87750000D01*
X102994000Y-87590666D01*
X103034737Y-87550000D01*
X113596519Y-87550000D01*
X113921800Y-87485298D01*
X114197560Y-87301041D01*
X118078039Y-83420561D01*
X118134033Y-83420610D01*
X118520091Y-83261094D01*
X118560828Y-83220428D01*
X118633197Y-83220428D01*
X118958478Y-83155726D01*
X119234238Y-82971469D01*
X122601038Y-79604668D01*
X122601041Y-79604666D01*
X122785298Y-79328906D01*
X122850000Y-79003625D01*
X122850000Y-72135113D01*
X122889628Y-72095554D01*
X123049818Y-71709774D01*
X123050182Y-71292058D01*
X122890666Y-70906000D01*
X122595554Y-70610372D01*
X122209774Y-70450182D01*
X121792058Y-70449818D01*
X121406000Y-70609334D01*
X121110372Y-70904446D01*
X120950182Y-71290226D01*
X120949818Y-71707942D01*
X121109334Y-72094000D01*
X121150000Y-72134737D01*
X121150000Y-78651544D01*
X118379689Y-81421854D01*
X118135865Y-81320610D01*
X117718149Y-81320246D01*
X117332091Y-81479762D01*
X117036463Y-81774874D01*
X116876273Y-82160654D01*
X116876223Y-82218215D01*
X113244437Y-85850000D01*
X103035113Y-85850000D01*
X102995554Y-85810372D01*
X102609774Y-85650182D01*
X102192058Y-85649818D01*
X101806000Y-85809334D01*
X101552832Y-86062060D01*
X101552832Y-85037945D01*
X101592460Y-84998386D01*
X101752650Y-84612606D01*
X101753014Y-84194890D01*
X101593498Y-83808832D01*
X101298386Y-83513204D01*
X101221008Y-83481074D01*
X105121253Y-79580829D01*
X105209334Y-79794000D01*
X105504446Y-80089628D01*
X105802102Y-80213226D01*
X105510372Y-80504446D01*
X105350182Y-80890226D01*
X105349818Y-81307942D01*
X105509334Y-81694000D01*
X105804446Y-81989628D01*
X106190226Y-82149818D01*
X106607942Y-82150182D01*
X106902599Y-82028432D01*
X110399861Y-82028432D01*
X110521397Y-82322572D01*
X110746245Y-82547812D01*
X111040172Y-82669861D01*
X111358432Y-82670139D01*
X111652572Y-82548603D01*
X111877812Y-82323755D01*
X111999861Y-82029828D01*
X112000139Y-81711568D01*
X111878603Y-81417428D01*
X111653755Y-81192188D01*
X111359828Y-81070139D01*
X111041568Y-81069861D01*
X110747428Y-81191397D01*
X110522188Y-81416245D01*
X110400139Y-81710172D01*
X110399861Y-82028432D01*
X106902599Y-82028432D01*
X106994000Y-81990666D01*
X107034737Y-81950000D01*
X107672806Y-81950000D01*
X107998087Y-81885298D01*
X108273847Y-81701041D01*
X109624879Y-80350009D01*
X114999991Y-80350009D01*
X115325272Y-80285307D01*
X115601032Y-80101050D01*
X117001041Y-78701041D01*
X117185298Y-78425281D01*
X117250001Y-78100000D01*
X117250000Y-78099995D01*
X117250000Y-76050000D01*
X119600000Y-76050000D01*
X119654519Y-76039742D01*
X119704591Y-76007521D01*
X119738182Y-75958358D01*
X119750000Y-75900000D01*
X119750000Y-73500000D01*
X119739742Y-73445481D01*
X119707521Y-73395409D01*
X119658358Y-73361818D01*
X119600000Y-73350000D01*
X117250000Y-73350000D01*
X117250000Y-64052082D01*
X120751949Y-60550133D01*
X120807942Y-60550182D01*
X121194000Y-60390666D01*
X121489628Y-60095554D01*
X121649818Y-59709774D01*
X121650182Y-59292058D01*
X121490666Y-58906000D01*
X121195554Y-58610372D01*
X120809774Y-58450182D01*
X120392058Y-58449818D01*
X120006000Y-58609334D01*
X119710372Y-58904446D01*
X119550182Y-59290226D01*
X119550132Y-59347786D01*
X115798959Y-63098959D01*
X115614702Y-63374719D01*
X115550000Y-63700000D01*
X115550000Y-77747918D01*
X115137229Y-78160689D01*
X114990666Y-77805980D01*
X114695554Y-77510352D01*
X114309774Y-77350162D01*
X113892058Y-77349798D01*
X113506000Y-77509314D01*
X113465263Y-77549980D01*
X109100020Y-77549980D01*
X108774739Y-77614682D01*
X108498979Y-77798939D01*
X107947918Y-78350000D01*
X106735113Y-78350000D01*
X106695554Y-78310372D01*
X106480859Y-78221223D01*
X108901042Y-75801040D01*
X109085299Y-75525280D01*
X109150001Y-75199999D01*
X109150001Y-73500000D01*
X109850000Y-73500000D01*
X109850000Y-75900000D01*
X109860258Y-75954519D01*
X109892479Y-76004591D01*
X109941642Y-76038182D01*
X110000000Y-76050000D01*
X112400000Y-76050000D01*
X112454519Y-76039742D01*
X112504591Y-76007521D01*
X112538182Y-75958358D01*
X112550000Y-75900000D01*
X112550000Y-73500000D01*
X112539742Y-73445481D01*
X112507521Y-73395409D01*
X112458358Y-73361818D01*
X112400000Y-73350000D01*
X110000000Y-73350000D01*
X109945481Y-73360258D01*
X109895409Y-73392479D01*
X109861818Y-73441642D01*
X109850000Y-73500000D01*
X109150001Y-73500000D01*
X109150001Y-73491484D01*
X109394000Y-73390666D01*
X109689628Y-73095554D01*
X109849818Y-72709774D01*
X109850182Y-72292058D01*
X109750000Y-72049599D01*
X109750000Y-69765861D01*
X109770074Y-69735818D01*
X109850000Y-69334000D01*
X109850000Y-69304086D01*
X110816066Y-69304086D01*
X111079772Y-69901651D01*
X111552082Y-70352813D01*
X112085915Y-70573927D01*
X112346000Y-70445913D01*
X112346000Y-69044000D01*
X112554000Y-69044000D01*
X112554000Y-70445913D01*
X112814085Y-70573927D01*
X113347918Y-70352813D01*
X113820228Y-69901651D01*
X114083934Y-69304086D01*
X113956273Y-69044000D01*
X112554000Y-69044000D01*
X112346000Y-69044000D01*
X110943727Y-69044000D01*
X110816066Y-69304086D01*
X109850000Y-69304086D01*
X109850000Y-68468924D01*
X110868924Y-67450000D01*
X110879623Y-67450000D01*
X110911576Y-67619818D01*
X111032032Y-67807012D01*
X111164434Y-67897478D01*
X111079772Y-67978349D01*
X110816066Y-68575914D01*
X110943727Y-68836000D01*
X112346000Y-68836000D01*
X112346000Y-68816000D01*
X112554000Y-68816000D01*
X112554000Y-68836000D01*
X113956273Y-68836000D01*
X114083934Y-68575914D01*
X113820228Y-67978349D01*
X113734714Y-67896664D01*
X113857012Y-67817968D01*
X113982594Y-67634173D01*
X114026775Y-67416000D01*
X114026775Y-65384000D01*
X113988424Y-65180182D01*
X113867968Y-64992988D01*
X113684173Y-64867406D01*
X113466000Y-64823225D01*
X113300000Y-64823225D01*
X113300000Y-64690164D01*
X113339628Y-64650605D01*
X113499818Y-64264825D01*
X113499868Y-64207265D01*
X113651041Y-64056092D01*
X113835298Y-63780332D01*
X113900000Y-63455051D01*
X113900000Y-61438814D01*
X114016594Y-61268173D01*
X114060775Y-61050000D01*
X114060775Y-59350000D01*
X114022424Y-59146182D01*
X113901968Y-58958988D01*
X113718173Y-58833406D01*
X113500000Y-58789225D01*
X112600000Y-58789225D01*
X112396182Y-58827576D01*
X112208988Y-58948032D01*
X112083406Y-59131827D01*
X112039225Y-59350000D01*
X112039225Y-61050000D01*
X112077576Y-61253818D01*
X112198032Y-61441012D01*
X112200000Y-61442357D01*
X112200000Y-63022247D01*
X111856000Y-63164385D01*
X111560372Y-63459497D01*
X111400182Y-63845277D01*
X111399818Y-64262993D01*
X111559334Y-64649051D01*
X111600000Y-64689788D01*
X111600000Y-64823225D01*
X111434000Y-64823225D01*
X111230182Y-64861576D01*
X111042988Y-64982032D01*
X110917406Y-65165827D01*
X110880110Y-65350000D01*
X102834924Y-65350000D01*
X102204375Y-64719451D01*
X102204375Y-63876400D01*
X102166024Y-63672582D01*
X102045568Y-63485388D01*
X101861773Y-63359806D01*
X101757445Y-63338679D01*
X102069257Y-63008149D01*
X102263083Y-62540194D01*
X102133109Y-62304000D01*
X100884000Y-62304000D01*
X100884000Y-62324000D01*
X100676000Y-62324000D01*
X100676000Y-62304000D01*
X100656000Y-62304000D01*
X100656000Y-62096000D01*
X100676000Y-62096000D01*
X100676000Y-62076000D01*
X100884000Y-62076000D01*
X100884000Y-62096000D01*
X102133109Y-62096000D01*
X102263083Y-61859806D01*
X102069257Y-61391851D01*
X101841102Y-61150000D01*
X102032301Y-61150000D01*
X103311860Y-62429559D01*
X103311688Y-62626851D01*
X103471204Y-63012909D01*
X103766316Y-63308537D01*
X104152096Y-63468727D01*
X104452798Y-63468989D01*
X104312072Y-63807894D01*
X104311708Y-64225610D01*
X104471224Y-64611668D01*
X104766336Y-64907296D01*
X105152116Y-65067486D01*
X105569832Y-65067850D01*
X105875284Y-64941640D01*
X105877576Y-64953818D01*
X105998032Y-65141012D01*
X106181827Y-65266594D01*
X106400000Y-65310775D01*
X108400000Y-65310775D01*
X108603818Y-65272424D01*
X108791012Y-65151968D01*
X108916594Y-64968173D01*
X108960775Y-64750000D01*
X108960775Y-62250000D01*
X108922424Y-62046182D01*
X108801968Y-61858988D01*
X108618173Y-61733406D01*
X108400000Y-61689225D01*
X106400000Y-61689225D01*
X106196182Y-61727576D01*
X106008988Y-61848032D01*
X105883406Y-62031827D01*
X105839225Y-62250000D01*
X105839225Y-63078951D01*
X105571664Y-62967850D01*
X105270962Y-62967588D01*
X105411688Y-62628683D01*
X105412052Y-62210967D01*
X105252536Y-61824909D01*
X105056371Y-61628401D01*
X105289626Y-61395554D01*
X105449816Y-61009774D01*
X105450180Y-60592058D01*
X105290664Y-60206000D01*
X105084927Y-59999903D01*
X105289634Y-59795554D01*
X105449824Y-59409774D01*
X105450188Y-58992058D01*
X105290672Y-58606000D01*
X104995560Y-58310372D01*
X104609780Y-58150182D01*
X104400897Y-58150000D01*
X104187020Y-58007091D01*
X103900007Y-57950001D01*
X96660000Y-57950000D01*
X96372987Y-58007090D01*
X96129670Y-58169670D01*
X93458978Y-60840362D01*
X93187694Y-60786400D01*
X93132306Y-60786400D01*
X92591345Y-60894004D01*
X92132740Y-61200434D01*
X91826310Y-61659039D01*
X91718706Y-62200000D01*
X91826310Y-62740961D01*
X92132740Y-63199566D01*
X92537473Y-63470000D01*
X92132740Y-63740434D01*
X91826310Y-64199039D01*
X91718706Y-64740000D01*
X91826310Y-65280961D01*
X92132740Y-65739566D01*
X92310000Y-65858007D01*
X92310000Y-66360000D01*
X92374702Y-66685281D01*
X92558959Y-66961041D01*
X93149954Y-67552036D01*
X93149818Y-67707942D01*
X93309334Y-68094000D01*
X93604446Y-68389628D01*
X93990226Y-68549818D01*
X94407942Y-68550182D01*
X94794000Y-68390666D01*
X95052947Y-68132171D01*
X95098959Y-68201033D01*
X95549867Y-68651941D01*
X95549818Y-68707934D01*
X95709334Y-69093992D01*
X95765244Y-69150000D01*
X91134924Y-69150000D01*
X90050000Y-68065076D01*
X90050000Y-65100000D01*
X89970074Y-64698182D01*
X89742462Y-64357538D01*
X86442462Y-61057538D01*
X86101818Y-60829926D01*
X85700000Y-60750000D01*
X83200000Y-60750000D01*
X82798182Y-60829926D01*
X82468819Y-61050000D01*
X82457538Y-61057538D01*
X81237538Y-62277538D01*
X81009926Y-62618182D01*
X80930000Y-63020000D01*
X80930000Y-63040699D01*
X80912582Y-63043976D01*
X80725388Y-63164432D01*
X80599806Y-63348227D01*
X80555625Y-63566400D01*
X80555625Y-65293600D01*
X80593976Y-65497418D01*
X80714432Y-65684612D01*
X80898227Y-65810194D01*
X81116400Y-65854375D01*
X81126435Y-65854375D01*
X80952740Y-65970434D01*
X80699122Y-66350000D01*
X80634938Y-66350000D01*
X80495554Y-66210372D01*
X80109774Y-66050182D01*
X79692058Y-66049818D01*
X79306000Y-66209334D01*
X79010372Y-66504446D01*
X78850182Y-66890226D01*
X78849818Y-67307942D01*
X79009334Y-67694000D01*
X79304446Y-67989628D01*
X79690226Y-68149818D01*
X80107942Y-68150182D01*
X80494000Y-67990666D01*
X80634912Y-67850000D01*
X80872849Y-67850000D01*
X80952740Y-67969566D01*
X81280130Y-68188321D01*
X81098147Y-68269990D01*
X80690743Y-68701851D01*
X80496917Y-69169806D01*
X80626891Y-69406000D01*
X81876000Y-69406000D01*
X81876000Y-69386000D01*
X82084000Y-69386000D01*
X82084000Y-69406000D01*
X82104000Y-69406000D01*
X82104000Y-69614000D01*
X82084000Y-69614000D01*
X82084000Y-69634000D01*
X81876000Y-69634000D01*
X81876000Y-69614000D01*
X80626891Y-69614000D01*
X80496917Y-69850194D01*
X80690743Y-70318149D01*
X81098147Y-70750010D01*
X81280130Y-70831679D01*
X80952740Y-71050434D01*
X80646310Y-71509039D01*
X80538706Y-72050000D01*
X80601857Y-72367483D01*
X79386059Y-73583281D01*
X79223479Y-73826598D01*
X79166389Y-74113611D01*
X79166389Y-78074482D01*
X79223479Y-78361495D01*
X79386059Y-78604812D01*
X80805198Y-80023951D01*
X81048515Y-80186531D01*
X81335528Y-80243621D01*
X83965062Y-80243621D01*
X84104446Y-80383249D01*
X84490226Y-80543439D01*
X84907942Y-80543803D01*
X85294000Y-80384287D01*
X85589628Y-80089175D01*
X85749818Y-79703395D01*
X85750182Y-79285679D01*
X85732796Y-79243601D01*
X87549874Y-79243601D01*
X87549818Y-79307942D01*
X87709334Y-79694000D01*
X88004446Y-79989628D01*
X88289801Y-80108118D01*
X84748051Y-83649867D01*
X84692058Y-83649818D01*
X84306000Y-83809334D01*
X84010372Y-84104446D01*
X83850182Y-84490226D01*
X83849818Y-84907942D01*
X84009334Y-85294000D01*
X84304446Y-85589628D01*
X84690226Y-85749818D01*
X85107942Y-85750182D01*
X85494000Y-85590666D01*
X85789628Y-85295554D01*
X85949818Y-84909774D01*
X85949868Y-84852214D01*
X91250041Y-79552040D01*
X91249818Y-79807942D01*
X91409334Y-80194000D01*
X91704446Y-80489628D01*
X92090226Y-80649818D01*
X92507942Y-80650182D01*
X92894000Y-80490666D01*
X93189628Y-80195554D01*
X93349818Y-79809774D01*
X93349992Y-79610668D01*
X96560660Y-76400000D01*
X102798610Y-76400000D01*
X102937994Y-76539628D01*
X103323774Y-76699818D01*
X103666158Y-76700116D01*
X102126664Y-78239610D01*
X101978850Y-78387166D01*
X101818660Y-78772946D01*
X101818296Y-79190662D01*
X101977812Y-79576720D01*
X102272924Y-79872348D01*
X102380783Y-79917135D01*
X94047918Y-88250000D01*
X92335113Y-88250000D01*
X92295554Y-88210372D01*
X91909774Y-88050182D01*
X91492058Y-88049818D01*
X91106000Y-88209334D01*
X90810372Y-88504446D01*
X90650182Y-88890226D01*
X90649818Y-89307942D01*
X90809334Y-89694000D01*
X91104446Y-89989628D01*
X91490226Y-90149818D01*
X91907942Y-90150182D01*
X92294000Y-89990666D01*
X92334737Y-89950000D01*
X94400000Y-89950000D01*
X94725281Y-89885298D01*
X95001041Y-89701041D01*
X99780906Y-84921176D01*
X99812166Y-84996832D01*
X99852832Y-85037569D01*
X99852832Y-87302832D01*
X99917534Y-87628113D01*
X100101791Y-87903873D01*
X101398957Y-89201038D01*
X101398959Y-89201041D01*
X101674719Y-89385298D01*
X102000000Y-89450001D01*
X102000005Y-89450000D01*
X105203918Y-89450000D01*
X105429560Y-89675642D01*
X105106000Y-89809334D01*
X104810372Y-90104446D01*
X104650182Y-90490226D01*
X104649818Y-90907942D01*
X104809334Y-91294000D01*
X104838508Y-91323225D01*
X104836400Y-91323225D01*
X104632582Y-91361576D01*
X104445388Y-91482032D01*
X104319806Y-91665827D01*
X104275625Y-91884000D01*
X104275625Y-93916000D01*
X104313976Y-94119818D01*
X104434432Y-94307012D01*
X104533936Y-94375000D01*
X77625000Y-94375000D01*
X77625000Y-92669760D01*
X80322510Y-92669760D01*
X80322510Y-93531634D01*
X80422684Y-93773477D01*
X80607783Y-93958575D01*
X80849625Y-94058750D01*
X81711500Y-94058750D01*
X81876000Y-93894250D01*
X81876000Y-92505260D01*
X82084000Y-92505260D01*
X82084000Y-93894250D01*
X82248500Y-94058750D01*
X83110375Y-94058750D01*
X83352217Y-93958575D01*
X83537316Y-93773477D01*
X83637490Y-93531634D01*
X83637490Y-92669760D01*
X83472990Y-92505260D01*
X82084000Y-92505260D01*
X81876000Y-92505260D01*
X80487010Y-92505260D01*
X80322510Y-92669760D01*
X77625000Y-92669760D01*
X77625000Y-91270886D01*
X80322510Y-91270886D01*
X80322510Y-92132760D01*
X80487010Y-92297260D01*
X81876000Y-92297260D01*
X81876000Y-90104960D01*
X82084000Y-90104960D01*
X82084000Y-92297260D01*
X83472990Y-92297260D01*
X83637490Y-92132760D01*
X83637490Y-91270886D01*
X83537316Y-91029043D01*
X83352217Y-90843945D01*
X83337770Y-90837961D01*
X83337770Y-90269460D01*
X83173270Y-90104960D01*
X82084000Y-90104960D01*
X81876000Y-90104960D01*
X80786730Y-90104960D01*
X80622230Y-90269460D01*
X80622230Y-90837961D01*
X80607783Y-90843945D01*
X80422684Y-91029043D01*
X80322510Y-91270886D01*
X77625000Y-91270886D01*
X77625000Y-88370206D01*
X80622230Y-88370206D01*
X80622230Y-89732460D01*
X80786730Y-89896960D01*
X81876000Y-89896960D01*
X81876000Y-88007590D01*
X82084000Y-88007590D01*
X82084000Y-89896960D01*
X83173270Y-89896960D01*
X83337770Y-89732460D01*
X83337770Y-88370206D01*
X83237596Y-88128363D01*
X83052497Y-87943265D01*
X82810655Y-87843090D01*
X82248500Y-87843090D01*
X82084000Y-88007590D01*
X81876000Y-88007590D01*
X81711500Y-87843090D01*
X81149345Y-87843090D01*
X80907503Y-87943265D01*
X80722404Y-88128363D01*
X80622230Y-88370206D01*
X77625000Y-88370206D01*
X77625000Y-81399250D01*
X80419735Y-81399250D01*
X80419735Y-83398230D01*
X80458086Y-83602048D01*
X80578542Y-83789242D01*
X80719455Y-83885524D01*
X80719455Y-86298910D01*
X80757806Y-86502728D01*
X80878262Y-86689922D01*
X81062057Y-86815504D01*
X81280230Y-86859685D01*
X82679770Y-86859685D01*
X82883588Y-86821334D01*
X83070782Y-86700878D01*
X83196364Y-86517083D01*
X83240545Y-86298910D01*
X83240545Y-83883823D01*
X83370502Y-83800198D01*
X83496084Y-83616403D01*
X83540265Y-83398230D01*
X83540265Y-81399250D01*
X83501914Y-81195432D01*
X83381458Y-81008238D01*
X83197663Y-80882656D01*
X82979490Y-80838475D01*
X80980510Y-80838475D01*
X80776692Y-80876826D01*
X80589498Y-80997282D01*
X80463916Y-81181077D01*
X80419735Y-81399250D01*
X77625000Y-81399250D01*
X77625000Y-57625000D01*
X105956398Y-57625000D01*
X105883406Y-57731827D01*
X105883406Y-57731827D01*
G37*
X105883406Y-57731827D02*
X105839225Y-57950000D01*
X105839225Y-60450000D01*
X105877576Y-60653818D01*
X105998032Y-60841012D01*
X106181827Y-60966594D01*
X106400000Y-61010775D01*
X108400000Y-61010775D01*
X108566079Y-60979525D01*
X108574719Y-60985298D01*
X108900000Y-61050000D01*
X109139225Y-61050000D01*
X109177576Y-61253818D01*
X109298032Y-61441012D01*
X109481827Y-61566594D01*
X109700000Y-61610775D01*
X110600000Y-61610775D01*
X110803818Y-61572424D01*
X110991012Y-61451968D01*
X111116594Y-61268173D01*
X111160775Y-61050000D01*
X111160775Y-59350000D01*
X111122424Y-59146182D01*
X111001968Y-58958988D01*
X110818173Y-58833406D01*
X110600000Y-58789225D01*
X109700000Y-58789225D01*
X109496182Y-58827576D01*
X109308988Y-58948032D01*
X109183406Y-59131827D01*
X109158230Y-59256148D01*
X108960775Y-59058693D01*
X108960775Y-57950000D01*
X108922424Y-57746182D01*
X108844446Y-57625000D01*
X126375000Y-57625000D01*
X126375000Y-94375000D01*
X114017124Y-94375000D01*
X114254500Y-94256287D01*
X114644073Y-93807029D01*
X114832068Y-93242885D01*
X114678750Y-93004000D01*
X113424000Y-93004000D01*
X113424000Y-93024000D01*
X113216000Y-93024000D01*
X113216000Y-93004000D01*
X110884000Y-93004000D01*
X110884000Y-93024000D01*
X110676000Y-93024000D01*
X110676000Y-93004000D01*
X110656000Y-93004000D01*
X110656000Y-92796000D01*
X110676000Y-92796000D01*
X110676000Y-91394491D01*
X110884000Y-91394491D01*
X110884000Y-92796000D01*
X113216000Y-92796000D01*
X113216000Y-91394491D01*
X113424000Y-91394491D01*
X113424000Y-92796000D01*
X114678750Y-92796000D01*
X114832068Y-92557115D01*
X114644073Y-91992971D01*
X114254500Y-91543713D01*
X113722658Y-91277736D01*
X113660194Y-91264517D01*
X113424000Y-91394491D01*
X113216000Y-91394491D01*
X112979806Y-91264517D01*
X112917342Y-91277736D01*
X112385500Y-91543713D01*
X112050000Y-91930614D01*
X111714500Y-91543713D01*
X111182658Y-91277736D01*
X111120194Y-91264517D01*
X110884000Y-91394491D01*
X110676000Y-91394491D01*
X110439806Y-91264517D01*
X110377342Y-91277736D01*
X109845500Y-91543713D01*
X109455927Y-91992971D01*
X109445212Y-92025125D01*
X109239566Y-91717354D01*
X109090000Y-91617417D01*
X109090000Y-91284000D01*
X109025298Y-90958719D01*
X108841041Y-90682959D01*
X106157041Y-87998959D01*
X105881281Y-87814702D01*
X105556000Y-87750000D01*
X102608382Y-87750000D01*
X102994000Y-87590666D01*
X103034737Y-87550000D01*
X113596519Y-87550000D01*
X113921800Y-87485298D01*
X114197560Y-87301041D01*
X118078039Y-83420561D01*
X118134033Y-83420610D01*
X118520091Y-83261094D01*
X118560828Y-83220428D01*
X118633197Y-83220428D01*
X118958478Y-83155726D01*
X119234238Y-82971469D01*
X122601038Y-79604668D01*
X122601041Y-79604666D01*
X122785298Y-79328906D01*
X122850000Y-79003625D01*
X122850000Y-72135113D01*
X122889628Y-72095554D01*
X123049818Y-71709774D01*
X123050182Y-71292058D01*
X122890666Y-70906000D01*
X122595554Y-70610372D01*
X122209774Y-70450182D01*
X121792058Y-70449818D01*
X121406000Y-70609334D01*
X121110372Y-70904446D01*
X120950182Y-71290226D01*
X120949818Y-71707942D01*
X121109334Y-72094000D01*
X121150000Y-72134737D01*
X121150000Y-78651544D01*
X118379689Y-81421854D01*
X118135865Y-81320610D01*
X117718149Y-81320246D01*
X117332091Y-81479762D01*
X117036463Y-81774874D01*
X116876273Y-82160654D01*
X116876223Y-82218215D01*
X113244437Y-85850000D01*
X103035113Y-85850000D01*
X102995554Y-85810372D01*
X102609774Y-85650182D01*
X102192058Y-85649818D01*
X101806000Y-85809334D01*
X101552832Y-86062060D01*
X101552832Y-85037945D01*
X101592460Y-84998386D01*
X101752650Y-84612606D01*
X101753014Y-84194890D01*
X101593498Y-83808832D01*
X101298386Y-83513204D01*
X101221008Y-83481074D01*
X105121253Y-79580829D01*
X105209334Y-79794000D01*
X105504446Y-80089628D01*
X105802102Y-80213226D01*
X105510372Y-80504446D01*
X105350182Y-80890226D01*
X105349818Y-81307942D01*
X105509334Y-81694000D01*
X105804446Y-81989628D01*
X106190226Y-82149818D01*
X106607942Y-82150182D01*
X106902599Y-82028432D01*
X110399861Y-82028432D01*
X110521397Y-82322572D01*
X110746245Y-82547812D01*
X111040172Y-82669861D01*
X111358432Y-82670139D01*
X111652572Y-82548603D01*
X111877812Y-82323755D01*
X111999861Y-82029828D01*
X112000139Y-81711568D01*
X111878603Y-81417428D01*
X111653755Y-81192188D01*
X111359828Y-81070139D01*
X111041568Y-81069861D01*
X110747428Y-81191397D01*
X110522188Y-81416245D01*
X110400139Y-81710172D01*
X110399861Y-82028432D01*
X106902599Y-82028432D01*
X106994000Y-81990666D01*
X107034737Y-81950000D01*
X107672806Y-81950000D01*
X107998087Y-81885298D01*
X108273847Y-81701041D01*
X109624879Y-80350009D01*
X114999991Y-80350009D01*
X115325272Y-80285307D01*
X115601032Y-80101050D01*
X117001041Y-78701041D01*
X117185298Y-78425281D01*
X117250001Y-78100000D01*
X117250000Y-78099995D01*
X117250000Y-76050000D01*
X119600000Y-76050000D01*
X119654519Y-76039742D01*
X119704591Y-76007521D01*
X119738182Y-75958358D01*
X119750000Y-75900000D01*
X119750000Y-73500000D01*
X119739742Y-73445481D01*
X119707521Y-73395409D01*
X119658358Y-73361818D01*
X119600000Y-73350000D01*
X117250000Y-73350000D01*
X117250000Y-64052082D01*
X120751949Y-60550133D01*
X120807942Y-60550182D01*
X121194000Y-60390666D01*
X121489628Y-60095554D01*
X121649818Y-59709774D01*
X121650182Y-59292058D01*
X121490666Y-58906000D01*
X121195554Y-58610372D01*
X120809774Y-58450182D01*
X120392058Y-58449818D01*
X120006000Y-58609334D01*
X119710372Y-58904446D01*
X119550182Y-59290226D01*
X119550132Y-59347786D01*
X115798959Y-63098959D01*
X115614702Y-63374719D01*
X115550000Y-63700000D01*
X115550000Y-77747918D01*
X115137229Y-78160689D01*
X114990666Y-77805980D01*
X114695554Y-77510352D01*
X114309774Y-77350162D01*
X113892058Y-77349798D01*
X113506000Y-77509314D01*
X113465263Y-77549980D01*
X109100020Y-77549980D01*
X108774739Y-77614682D01*
X108498979Y-77798939D01*
X107947918Y-78350000D01*
X106735113Y-78350000D01*
X106695554Y-78310372D01*
X106480859Y-78221223D01*
X108901042Y-75801040D01*
X109085299Y-75525280D01*
X109150001Y-75199999D01*
X109150001Y-73500000D01*
X109850000Y-73500000D01*
X109850000Y-75900000D01*
X109860258Y-75954519D01*
X109892479Y-76004591D01*
X109941642Y-76038182D01*
X110000000Y-76050000D01*
X112400000Y-76050000D01*
X112454519Y-76039742D01*
X112504591Y-76007521D01*
X112538182Y-75958358D01*
X112550000Y-75900000D01*
X112550000Y-73500000D01*
X112539742Y-73445481D01*
X112507521Y-73395409D01*
X112458358Y-73361818D01*
X112400000Y-73350000D01*
X110000000Y-73350000D01*
X109945481Y-73360258D01*
X109895409Y-73392479D01*
X109861818Y-73441642D01*
X109850000Y-73500000D01*
X109150001Y-73500000D01*
X109150001Y-73491484D01*
X109394000Y-73390666D01*
X109689628Y-73095554D01*
X109849818Y-72709774D01*
X109850182Y-72292058D01*
X109750000Y-72049599D01*
X109750000Y-69765861D01*
X109770074Y-69735818D01*
X109850000Y-69334000D01*
X109850000Y-69304086D01*
X110816066Y-69304086D01*
X111079772Y-69901651D01*
X111552082Y-70352813D01*
X112085915Y-70573927D01*
X112346000Y-70445913D01*
X112346000Y-69044000D01*
X112554000Y-69044000D01*
X112554000Y-70445913D01*
X112814085Y-70573927D01*
X113347918Y-70352813D01*
X113820228Y-69901651D01*
X114083934Y-69304086D01*
X113956273Y-69044000D01*
X112554000Y-69044000D01*
X112346000Y-69044000D01*
X110943727Y-69044000D01*
X110816066Y-69304086D01*
X109850000Y-69304086D01*
X109850000Y-68468924D01*
X110868924Y-67450000D01*
X110879623Y-67450000D01*
X110911576Y-67619818D01*
X111032032Y-67807012D01*
X111164434Y-67897478D01*
X111079772Y-67978349D01*
X110816066Y-68575914D01*
X110943727Y-68836000D01*
X112346000Y-68836000D01*
X112346000Y-68816000D01*
X112554000Y-68816000D01*
X112554000Y-68836000D01*
X113956273Y-68836000D01*
X114083934Y-68575914D01*
X113820228Y-67978349D01*
X113734714Y-67896664D01*
X113857012Y-67817968D01*
X113982594Y-67634173D01*
X114026775Y-67416000D01*
X114026775Y-65384000D01*
X113988424Y-65180182D01*
X113867968Y-64992988D01*
X113684173Y-64867406D01*
X113466000Y-64823225D01*
X113300000Y-64823225D01*
X113300000Y-64690164D01*
X113339628Y-64650605D01*
X113499818Y-64264825D01*
X113499868Y-64207265D01*
X113651041Y-64056092D01*
X113835298Y-63780332D01*
X113900000Y-63455051D01*
X113900000Y-61438814D01*
X114016594Y-61268173D01*
X114060775Y-61050000D01*
X114060775Y-59350000D01*
X114022424Y-59146182D01*
X113901968Y-58958988D01*
X113718173Y-58833406D01*
X113500000Y-58789225D01*
X112600000Y-58789225D01*
X112396182Y-58827576D01*
X112208988Y-58948032D01*
X112083406Y-59131827D01*
X112039225Y-59350000D01*
X112039225Y-61050000D01*
X112077576Y-61253818D01*
X112198032Y-61441012D01*
X112200000Y-61442357D01*
X112200000Y-63022247D01*
X111856000Y-63164385D01*
X111560372Y-63459497D01*
X111400182Y-63845277D01*
X111399818Y-64262993D01*
X111559334Y-64649051D01*
X111600000Y-64689788D01*
X111600000Y-64823225D01*
X111434000Y-64823225D01*
X111230182Y-64861576D01*
X111042988Y-64982032D01*
X110917406Y-65165827D01*
X110880110Y-65350000D01*
X102834924Y-65350000D01*
X102204375Y-64719451D01*
X102204375Y-63876400D01*
X102166024Y-63672582D01*
X102045568Y-63485388D01*
X101861773Y-63359806D01*
X101757445Y-63338679D01*
X102069257Y-63008149D01*
X102263083Y-62540194D01*
X102133109Y-62304000D01*
X100884000Y-62304000D01*
X100884000Y-62324000D01*
X100676000Y-62324000D01*
X100676000Y-62304000D01*
X100656000Y-62304000D01*
X100656000Y-62096000D01*
X100676000Y-62096000D01*
X100676000Y-62076000D01*
X100884000Y-62076000D01*
X100884000Y-62096000D01*
X102133109Y-62096000D01*
X102263083Y-61859806D01*
X102069257Y-61391851D01*
X101841102Y-61150000D01*
X102032301Y-61150000D01*
X103311860Y-62429559D01*
X103311688Y-62626851D01*
X103471204Y-63012909D01*
X103766316Y-63308537D01*
X104152096Y-63468727D01*
X104452798Y-63468989D01*
X104312072Y-63807894D01*
X104311708Y-64225610D01*
X104471224Y-64611668D01*
X104766336Y-64907296D01*
X105152116Y-65067486D01*
X105569832Y-65067850D01*
X105875284Y-64941640D01*
X105877576Y-64953818D01*
X105998032Y-65141012D01*
X106181827Y-65266594D01*
X106400000Y-65310775D01*
X108400000Y-65310775D01*
X108603818Y-65272424D01*
X108791012Y-65151968D01*
X108916594Y-64968173D01*
X108960775Y-64750000D01*
X108960775Y-62250000D01*
X108922424Y-62046182D01*
X108801968Y-61858988D01*
X108618173Y-61733406D01*
X108400000Y-61689225D01*
X106400000Y-61689225D01*
X106196182Y-61727576D01*
X106008988Y-61848032D01*
X105883406Y-62031827D01*
X105839225Y-62250000D01*
X105839225Y-63078951D01*
X105571664Y-62967850D01*
X105270962Y-62967588D01*
X105411688Y-62628683D01*
X105412052Y-62210967D01*
X105252536Y-61824909D01*
X105056371Y-61628401D01*
X105289626Y-61395554D01*
X105449816Y-61009774D01*
X105450180Y-60592058D01*
X105290664Y-60206000D01*
X105084927Y-59999903D01*
X105289634Y-59795554D01*
X105449824Y-59409774D01*
X105450188Y-58992058D01*
X105290672Y-58606000D01*
X104995560Y-58310372D01*
X104609780Y-58150182D01*
X104400897Y-58150000D01*
X104187020Y-58007091D01*
X103900007Y-57950001D01*
X96660000Y-57950000D01*
X96372987Y-58007090D01*
X96129670Y-58169670D01*
X93458978Y-60840362D01*
X93187694Y-60786400D01*
X93132306Y-60786400D01*
X92591345Y-60894004D01*
X92132740Y-61200434D01*
X91826310Y-61659039D01*
X91718706Y-62200000D01*
X91826310Y-62740961D01*
X92132740Y-63199566D01*
X92537473Y-63470000D01*
X92132740Y-63740434D01*
X91826310Y-64199039D01*
X91718706Y-64740000D01*
X91826310Y-65280961D01*
X92132740Y-65739566D01*
X92310000Y-65858007D01*
X92310000Y-66360000D01*
X92374702Y-66685281D01*
X92558959Y-66961041D01*
X93149954Y-67552036D01*
X93149818Y-67707942D01*
X93309334Y-68094000D01*
X93604446Y-68389628D01*
X93990226Y-68549818D01*
X94407942Y-68550182D01*
X94794000Y-68390666D01*
X95052947Y-68132171D01*
X95098959Y-68201033D01*
X95549867Y-68651941D01*
X95549818Y-68707934D01*
X95709334Y-69093992D01*
X95765244Y-69150000D01*
X91134924Y-69150000D01*
X90050000Y-68065076D01*
X90050000Y-65100000D01*
X89970074Y-64698182D01*
X89742462Y-64357538D01*
X86442462Y-61057538D01*
X86101818Y-60829926D01*
X85700000Y-60750000D01*
X83200000Y-60750000D01*
X82798182Y-60829926D01*
X82468819Y-61050000D01*
X82457538Y-61057538D01*
X81237538Y-62277538D01*
X81009926Y-62618182D01*
X80930000Y-63020000D01*
X80930000Y-63040699D01*
X80912582Y-63043976D01*
X80725388Y-63164432D01*
X80599806Y-63348227D01*
X80555625Y-63566400D01*
X80555625Y-65293600D01*
X80593976Y-65497418D01*
X80714432Y-65684612D01*
X80898227Y-65810194D01*
X81116400Y-65854375D01*
X81126435Y-65854375D01*
X80952740Y-65970434D01*
X80699122Y-66350000D01*
X80634938Y-66350000D01*
X80495554Y-66210372D01*
X80109774Y-66050182D01*
X79692058Y-66049818D01*
X79306000Y-66209334D01*
X79010372Y-66504446D01*
X78850182Y-66890226D01*
X78849818Y-67307942D01*
X79009334Y-67694000D01*
X79304446Y-67989628D01*
X79690226Y-68149818D01*
X80107942Y-68150182D01*
X80494000Y-67990666D01*
X80634912Y-67850000D01*
X80872849Y-67850000D01*
X80952740Y-67969566D01*
X81280130Y-68188321D01*
X81098147Y-68269990D01*
X80690743Y-68701851D01*
X80496917Y-69169806D01*
X80626891Y-69406000D01*
X81876000Y-69406000D01*
X81876000Y-69386000D01*
X82084000Y-69386000D01*
X82084000Y-69406000D01*
X82104000Y-69406000D01*
X82104000Y-69614000D01*
X82084000Y-69614000D01*
X82084000Y-69634000D01*
X81876000Y-69634000D01*
X81876000Y-69614000D01*
X80626891Y-69614000D01*
X80496917Y-69850194D01*
X80690743Y-70318149D01*
X81098147Y-70750010D01*
X81280130Y-70831679D01*
X80952740Y-71050434D01*
X80646310Y-71509039D01*
X80538706Y-72050000D01*
X80601857Y-72367483D01*
X79386059Y-73583281D01*
X79223479Y-73826598D01*
X79166389Y-74113611D01*
X79166389Y-78074482D01*
X79223479Y-78361495D01*
X79386059Y-78604812D01*
X80805198Y-80023951D01*
X81048515Y-80186531D01*
X81335528Y-80243621D01*
X83965062Y-80243621D01*
X84104446Y-80383249D01*
X84490226Y-80543439D01*
X84907942Y-80543803D01*
X85294000Y-80384287D01*
X85589628Y-80089175D01*
X85749818Y-79703395D01*
X85750182Y-79285679D01*
X85732796Y-79243601D01*
X87549874Y-79243601D01*
X87549818Y-79307942D01*
X87709334Y-79694000D01*
X88004446Y-79989628D01*
X88289801Y-80108118D01*
X84748051Y-83649867D01*
X84692058Y-83649818D01*
X84306000Y-83809334D01*
X84010372Y-84104446D01*
X83850182Y-84490226D01*
X83849818Y-84907942D01*
X84009334Y-85294000D01*
X84304446Y-85589628D01*
X84690226Y-85749818D01*
X85107942Y-85750182D01*
X85494000Y-85590666D01*
X85789628Y-85295554D01*
X85949818Y-84909774D01*
X85949868Y-84852214D01*
X91250041Y-79552040D01*
X91249818Y-79807942D01*
X91409334Y-80194000D01*
X91704446Y-80489628D01*
X92090226Y-80649818D01*
X92507942Y-80650182D01*
X92894000Y-80490666D01*
X93189628Y-80195554D01*
X93349818Y-79809774D01*
X93349992Y-79610668D01*
X96560660Y-76400000D01*
X102798610Y-76400000D01*
X102937994Y-76539628D01*
X103323774Y-76699818D01*
X103666158Y-76700116D01*
X102126664Y-78239610D01*
X101978850Y-78387166D01*
X101818660Y-78772946D01*
X101818296Y-79190662D01*
X101977812Y-79576720D01*
X102272924Y-79872348D01*
X102380783Y-79917135D01*
X94047918Y-88250000D01*
X92335113Y-88250000D01*
X92295554Y-88210372D01*
X91909774Y-88050182D01*
X91492058Y-88049818D01*
X91106000Y-88209334D01*
X90810372Y-88504446D01*
X90650182Y-88890226D01*
X90649818Y-89307942D01*
X90809334Y-89694000D01*
X91104446Y-89989628D01*
X91490226Y-90149818D01*
X91907942Y-90150182D01*
X92294000Y-89990666D01*
X92334737Y-89950000D01*
X94400000Y-89950000D01*
X94725281Y-89885298D01*
X95001041Y-89701041D01*
X99780906Y-84921176D01*
X99812166Y-84996832D01*
X99852832Y-85037569D01*
X99852832Y-87302832D01*
X99917534Y-87628113D01*
X100101791Y-87903873D01*
X101398957Y-89201038D01*
X101398959Y-89201041D01*
X101674719Y-89385298D01*
X102000000Y-89450001D01*
X102000005Y-89450000D01*
X105203918Y-89450000D01*
X105429560Y-89675642D01*
X105106000Y-89809334D01*
X104810372Y-90104446D01*
X104650182Y-90490226D01*
X104649818Y-90907942D01*
X104809334Y-91294000D01*
X104838508Y-91323225D01*
X104836400Y-91323225D01*
X104632582Y-91361576D01*
X104445388Y-91482032D01*
X104319806Y-91665827D01*
X104275625Y-91884000D01*
X104275625Y-93916000D01*
X104313976Y-94119818D01*
X104434432Y-94307012D01*
X104533936Y-94375000D01*
X77625000Y-94375000D01*
X77625000Y-92669760D01*
X80322510Y-92669760D01*
X80322510Y-93531634D01*
X80422684Y-93773477D01*
X80607783Y-93958575D01*
X80849625Y-94058750D01*
X81711500Y-94058750D01*
X81876000Y-93894250D01*
X81876000Y-92505260D01*
X82084000Y-92505260D01*
X82084000Y-93894250D01*
X82248500Y-94058750D01*
X83110375Y-94058750D01*
X83352217Y-93958575D01*
X83537316Y-93773477D01*
X83637490Y-93531634D01*
X83637490Y-92669760D01*
X83472990Y-92505260D01*
X82084000Y-92505260D01*
X81876000Y-92505260D01*
X80487010Y-92505260D01*
X80322510Y-92669760D01*
X77625000Y-92669760D01*
X77625000Y-91270886D01*
X80322510Y-91270886D01*
X80322510Y-92132760D01*
X80487010Y-92297260D01*
X81876000Y-92297260D01*
X81876000Y-90104960D01*
X82084000Y-90104960D01*
X82084000Y-92297260D01*
X83472990Y-92297260D01*
X83637490Y-92132760D01*
X83637490Y-91270886D01*
X83537316Y-91029043D01*
X83352217Y-90843945D01*
X83337770Y-90837961D01*
X83337770Y-90269460D01*
X83173270Y-90104960D01*
X82084000Y-90104960D01*
X81876000Y-90104960D01*
X80786730Y-90104960D01*
X80622230Y-90269460D01*
X80622230Y-90837961D01*
X80607783Y-90843945D01*
X80422684Y-91029043D01*
X80322510Y-91270886D01*
X77625000Y-91270886D01*
X77625000Y-88370206D01*
X80622230Y-88370206D01*
X80622230Y-89732460D01*
X80786730Y-89896960D01*
X81876000Y-89896960D01*
X81876000Y-88007590D01*
X82084000Y-88007590D01*
X82084000Y-89896960D01*
X83173270Y-89896960D01*
X83337770Y-89732460D01*
X83337770Y-88370206D01*
X83237596Y-88128363D01*
X83052497Y-87943265D01*
X82810655Y-87843090D01*
X82248500Y-87843090D01*
X82084000Y-88007590D01*
X81876000Y-88007590D01*
X81711500Y-87843090D01*
X81149345Y-87843090D01*
X80907503Y-87943265D01*
X80722404Y-88128363D01*
X80622230Y-88370206D01*
X77625000Y-88370206D01*
X77625000Y-81399250D01*
X80419735Y-81399250D01*
X80419735Y-83398230D01*
X80458086Y-83602048D01*
X80578542Y-83789242D01*
X80719455Y-83885524D01*
X80719455Y-86298910D01*
X80757806Y-86502728D01*
X80878262Y-86689922D01*
X81062057Y-86815504D01*
X81280230Y-86859685D01*
X82679770Y-86859685D01*
X82883588Y-86821334D01*
X83070782Y-86700878D01*
X83196364Y-86517083D01*
X83240545Y-86298910D01*
X83240545Y-83883823D01*
X83370502Y-83800198D01*
X83496084Y-83616403D01*
X83540265Y-83398230D01*
X83540265Y-81399250D01*
X83501914Y-81195432D01*
X83381458Y-81008238D01*
X83197663Y-80882656D01*
X82979490Y-80838475D01*
X80980510Y-80838475D01*
X80776692Y-80876826D01*
X80589498Y-80997282D01*
X80463916Y-81181077D01*
X80419735Y-81399250D01*
X77625000Y-81399250D01*
X77625000Y-57625000D01*
X105956398Y-57625000D01*
X105883406Y-57731827D01*
G36*
X87950000Y-65534924D02*
X87950000Y-68499084D01*
X87949818Y-68707942D01*
X88109334Y-69094000D01*
X88404446Y-69389628D01*
X88404887Y-69389811D01*
X89957538Y-70942462D01*
X90298182Y-71170074D01*
X90700000Y-71250000D01*
X104184385Y-71250000D01*
X104106018Y-71643982D01*
X104106018Y-72963157D01*
X103903566Y-72760351D01*
X103517786Y-72600161D01*
X103100070Y-72599797D01*
X102714012Y-72759313D01*
X102673275Y-72799979D01*
X95950026Y-72799979D01*
X95950021Y-72799978D01*
X95630431Y-72863549D01*
X95624740Y-72864681D01*
X95348980Y-73048938D01*
X95348978Y-73048941D01*
X89607985Y-78789933D01*
X89490666Y-78506000D01*
X89195554Y-78210372D01*
X88809774Y-78050182D01*
X88610668Y-78050008D01*
X88523931Y-77963271D01*
X88280614Y-77800691D01*
X87993601Y-77743601D01*
X85805154Y-77743601D01*
X85853690Y-77670961D01*
X85961294Y-77130000D01*
X85853690Y-76589039D01*
X85547260Y-76130434D01*
X85142527Y-75860000D01*
X85547260Y-75589566D01*
X85707333Y-75350000D01*
X86265062Y-75350000D01*
X86404446Y-75489628D01*
X86790226Y-75649818D01*
X87207942Y-75650182D01*
X87594000Y-75490666D01*
X87889628Y-75195554D01*
X88049818Y-74809774D01*
X88050182Y-74392058D01*
X87890666Y-74006000D01*
X87595554Y-73710372D01*
X87209774Y-73550182D01*
X86792058Y-73549818D01*
X86406000Y-73709334D01*
X86265088Y-73850000D01*
X85720696Y-73850000D01*
X85547260Y-73590434D01*
X85142527Y-73320000D01*
X85547260Y-73049566D01*
X85680606Y-72850000D01*
X86565062Y-72850000D01*
X86704446Y-72989628D01*
X87090226Y-73149818D01*
X87507942Y-73150182D01*
X87894000Y-72990666D01*
X88189628Y-72695554D01*
X88349818Y-72309774D01*
X88350182Y-71892058D01*
X88190666Y-71506000D01*
X87895554Y-71210372D01*
X87509774Y-71050182D01*
X87092058Y-71049818D01*
X86706000Y-71209334D01*
X86565088Y-71350000D01*
X85747424Y-71350000D01*
X85547260Y-71050434D01*
X85142527Y-70780000D01*
X85547260Y-70509566D01*
X85853690Y-70050961D01*
X85961294Y-69510000D01*
X85853690Y-68969039D01*
X85547260Y-68510434D01*
X85142527Y-68240000D01*
X85547260Y-67969566D01*
X85853690Y-67510961D01*
X85961294Y-66970000D01*
X85853690Y-66429039D01*
X85547260Y-65970434D01*
X85219870Y-65751679D01*
X85401853Y-65670010D01*
X85809257Y-65238149D01*
X86003083Y-64770194D01*
X85873109Y-64534000D01*
X84624000Y-64534000D01*
X84624000Y-64554000D01*
X84416000Y-64554000D01*
X84416000Y-64534000D01*
X84396000Y-64534000D01*
X84396000Y-64326000D01*
X84416000Y-64326000D01*
X84416000Y-63076451D01*
X84624000Y-63076451D01*
X84624000Y-64326000D01*
X85873109Y-64326000D01*
X86003083Y-64089806D01*
X85809257Y-63621851D01*
X85401853Y-63189990D01*
X84860195Y-62946910D01*
X84624000Y-63076451D01*
X84416000Y-63076451D01*
X84179805Y-62946910D01*
X83638147Y-63189990D01*
X83384200Y-63459181D01*
X83366024Y-63362582D01*
X83270614Y-63214310D01*
X83634924Y-62850000D01*
X85265076Y-62850000D01*
X87950000Y-65534924D01*
X87950000Y-65534924D01*
G37*
X87950000Y-65534924D02*
X87950000Y-68499084D01*
X87949818Y-68707942D01*
X88109334Y-69094000D01*
X88404446Y-69389628D01*
X88404887Y-69389811D01*
X89957538Y-70942462D01*
X90298182Y-71170074D01*
X90700000Y-71250000D01*
X104184385Y-71250000D01*
X104106018Y-71643982D01*
X104106018Y-72963157D01*
X103903566Y-72760351D01*
X103517786Y-72600161D01*
X103100070Y-72599797D01*
X102714012Y-72759313D01*
X102673275Y-72799979D01*
X95950026Y-72799979D01*
X95950021Y-72799978D01*
X95630431Y-72863549D01*
X95624740Y-72864681D01*
X95348980Y-73048938D01*
X95348978Y-73048941D01*
X89607985Y-78789933D01*
X89490666Y-78506000D01*
X89195554Y-78210372D01*
X88809774Y-78050182D01*
X88610668Y-78050008D01*
X88523931Y-77963271D01*
X88280614Y-77800691D01*
X87993601Y-77743601D01*
X85805154Y-77743601D01*
X85853690Y-77670961D01*
X85961294Y-77130000D01*
X85853690Y-76589039D01*
X85547260Y-76130434D01*
X85142527Y-75860000D01*
X85547260Y-75589566D01*
X85707333Y-75350000D01*
X86265062Y-75350000D01*
X86404446Y-75489628D01*
X86790226Y-75649818D01*
X87207942Y-75650182D01*
X87594000Y-75490666D01*
X87889628Y-75195554D01*
X88049818Y-74809774D01*
X88050182Y-74392058D01*
X87890666Y-74006000D01*
X87595554Y-73710372D01*
X87209774Y-73550182D01*
X86792058Y-73549818D01*
X86406000Y-73709334D01*
X86265088Y-73850000D01*
X85720696Y-73850000D01*
X85547260Y-73590434D01*
X85142527Y-73320000D01*
X85547260Y-73049566D01*
X85680606Y-72850000D01*
X86565062Y-72850000D01*
X86704446Y-72989628D01*
X87090226Y-73149818D01*
X87507942Y-73150182D01*
X87894000Y-72990666D01*
X88189628Y-72695554D01*
X88349818Y-72309774D01*
X88350182Y-71892058D01*
X88190666Y-71506000D01*
X87895554Y-71210372D01*
X87509774Y-71050182D01*
X87092058Y-71049818D01*
X86706000Y-71209334D01*
X86565088Y-71350000D01*
X85747424Y-71350000D01*
X85547260Y-71050434D01*
X85142527Y-70780000D01*
X85547260Y-70509566D01*
X85853690Y-70050961D01*
X85961294Y-69510000D01*
X85853690Y-68969039D01*
X85547260Y-68510434D01*
X85142527Y-68240000D01*
X85547260Y-67969566D01*
X85853690Y-67510961D01*
X85961294Y-66970000D01*
X85853690Y-66429039D01*
X85547260Y-65970434D01*
X85219870Y-65751679D01*
X85401853Y-65670010D01*
X85809257Y-65238149D01*
X86003083Y-64770194D01*
X85873109Y-64534000D01*
X84624000Y-64534000D01*
X84624000Y-64554000D01*
X84416000Y-64554000D01*
X84416000Y-64534000D01*
X84396000Y-64534000D01*
X84396000Y-64326000D01*
X84416000Y-64326000D01*
X84416000Y-63076451D01*
X84624000Y-63076451D01*
X84624000Y-64326000D01*
X85873109Y-64326000D01*
X86003083Y-64089806D01*
X85809257Y-63621851D01*
X85401853Y-63189990D01*
X84860195Y-62946910D01*
X84624000Y-63076451D01*
X84416000Y-63076451D01*
X84179805Y-62946910D01*
X83638147Y-63189990D01*
X83384200Y-63459181D01*
X83366024Y-63362582D01*
X83270614Y-63214310D01*
X83634924Y-62850000D01*
X85265076Y-62850000D01*
X87950000Y-65534924D01*
M02*
