M48
;DRILL file {KiCad 4.0.4+dfsg1-stable} date Sun Feb 26 01:11:21 2017
;FORMAT={-:-/ absolute / inch / decimal}
FMAT,2
INCH,TZ
T1C0.012
T2C0.020
T3C0.024
T4C0.030
T5C0.040
T6C0.051
T7C0.087
%
G90
G05
M72
T1
X6.2185Y2.7795
X6.2185Y2.8287
X6.2185Y2.878
X6.2972Y2.7795
X6.2972Y2.8287
X6.2972Y2.878
X6.3248Y3.063
X6.376Y2.7795
X6.376Y2.8287
X6.376Y2.878
X6.4035Y3.063
X6.4547Y2.7795
X6.4547Y2.8287
X6.4547Y2.878
X6.4823Y3.063
X6.5335Y2.7795
X6.5335Y2.8287
X6.5335Y2.878
X6.5551Y2.9803
T2
X5.5795Y3.1969
X5.6795Y3.2969
X5.7795Y3.1969
T3
X4.7146Y3.1693
X4.7146Y3.2382
X4.7244Y3.087
X4.7244Y3.3563
X4.7835Y2.9921
X4.7933Y3.4055
X4.8425Y3.3071
X4.9016Y3.0492
X4.9173Y3.874
X5.0591Y3.3661
X5.0689Y3.2283
X5.0984Y3.0512
X5.0984Y3.6811
X5.1969Y3.3661
X5.2559Y3.3957
X5.2717Y3.189
X5.3071Y3.3701
X5.3228Y3.1024
X5.3307Y4.0827
X5.3642Y2.7756
X5.374Y3.878
X5.4016Y3.6691
X5.4055Y3.7835
X5.4094Y3.4764
X5.4134Y3.1004
X5.4173Y4.185
X5.5157Y4.2677
X5.5866Y3.9921
X5.6102Y2.815
X5.626Y3.7323
X5.6417Y4.152
X5.7185Y2.9823
X5.7283Y3.7205
X5.7441Y3.3425
X5.752Y3.8583
X5.784Y3.5181
X5.7972Y3.3858
X5.8189Y3.9685
X5.8543Y4.1535
X5.9035Y3.4705
X5.9094Y4.0866
X5.9154Y3.5335
X5.9706Y4.0866
X5.9724Y3.2756
X5.9843Y3.8976
X6.0315Y2.8071
X6.1102Y3.2165
X6.1787Y4.05
X6.1929Y3.8701
X6.2126Y3.3484
X6.2362Y4.0197
X6.3031Y2.9724
X6.3839Y3.811
X6.4705Y4.4055
T4
X4.7677Y2.8161
X4.7677Y2.9161
T5
X6.0457Y4.1874
X6.0457Y4.2874
X6.0457Y4.3874
X6.0457Y4.4874
X6.1457Y4.1874
X6.1457Y4.2874
X6.1457Y4.3874
X6.1457Y4.4874
T6
X5.2268Y2.8524
X5.2268Y3.5413
X6.1323Y2.8524
X6.1323Y3.5413
T7
X5.Y2.874
X5.Y4.3307
X6.3839Y3.6142
T0
M30
