M48
;DRILL file {KiCad 4.0.4+dfsg1-stable} date Wed Mar  8 20:37:55 2017
;FORMAT={-:-/ absolute / inch / decimal}
FMAT,2
INCH,TZ
T1C0.012
T2C0.020
T3C0.024
T4C0.030
T5C0.040
T6C0.051
T7C0.087
%
G90
G05
M72
T1
X6.2106Y2.7756
X6.2106Y2.8248
X6.2106Y2.874
X6.2894Y2.7756
X6.2894Y2.8248
X6.2894Y2.874
X6.3169Y3.0591
X6.3681Y2.7756
X6.3681Y2.8248
X6.3681Y2.874
X6.3957Y3.0591
X6.4469Y2.7756
X6.4469Y2.8248
X6.4469Y2.874
X6.4744Y3.0591
X6.4843Y3.7343
X6.4843Y4.065
X6.5256Y2.7756
X6.5256Y2.8248
X6.5256Y2.874
X6.5472Y2.9764
T2
X5.5717Y3.1929
X5.6717Y3.2929
X5.7717Y3.1929
T3
X4.7067Y3.1654
X4.7067Y3.2343
X4.7165Y3.0831
X4.7165Y3.3524
X4.7756Y2.9882
X4.7854Y3.4016
X4.8346Y3.3031
X4.8937Y3.0453
X4.9094Y3.8701
X5.0512Y3.3622
X5.061Y3.2244
X5.0906Y3.0472
X5.0906Y3.6772
X5.189Y3.3622
X5.248Y3.3917
X5.2638Y3.185
X5.2992Y3.3661
X5.315Y3.0984
X5.3228Y4.0787
X5.3563Y2.7717
X5.3661Y3.874
X5.3937Y3.6652
X5.3976Y3.7795
X5.4016Y3.4724
X5.4055Y3.0965
X5.4094Y4.1811
X5.5079Y4.2638
X5.5787Y3.9882
X5.6024Y2.811
X5.6181Y3.7283
X5.6339Y4.148
X5.7106Y2.9783
X5.7205Y3.7165
X5.7362Y3.3386
X5.7762Y3.5141
X5.7894Y3.3819
X5.8465Y4.1496
X5.8957Y3.4665
X5.9075Y3.5295
X5.9075Y3.8602
X5.9646Y3.2717
X6.0492Y3.7815
X6.0551Y3.7165
X6.1024Y3.2126
X6.1398Y3.8543
X6.1493Y2.937
X6.1713Y3.7776
X6.252Y4.1102
X6.2953Y2.9685
X6.3622Y3.2697
X6.4846Y4.3543
T4
X4.7598Y2.8122
X4.7598Y2.9122
T5
X6.0181Y4.1189
X6.0181Y4.2189
X6.0181Y4.3189
X6.0181Y4.4189
X6.1181Y4.1189
X6.1181Y4.2189
X6.1181Y4.3189
X6.1181Y4.4189
T6
X5.2386Y2.8524
X5.2386Y3.5335
X6.1047Y2.8524
X6.1047Y3.5335
T7
X4.9921Y2.8701
X4.9921Y4.3268
X6.3661Y3.5807
T0
M30
