G04 #@! TF.FileFunction,Copper,L1,Top,Signal*
%FSLAX46Y46*%
G04 Gerber Fmt 4.6, Leading zero omitted, Abs format (unit mm)*
G04 Created by KiCad (PCBNEW 4.0.0-2.201512091501+6195~38~ubuntu15.10.1-stable) date do 17 dec 2015 22:41:49 CET*
%MOMM*%
G01*
G04 APERTURE LIST*
%ADD10C,0.100000*%
%ADD11C,0.150000*%
%ADD12C,2.000000*%
%ADD13R,0.700000X1.300000*%
%ADD14R,1.300000X0.700000*%
%ADD15R,1.200000X0.500000*%
%ADD16R,0.500000X1.200000*%
%ADD17R,0.599440X1.000760*%
%ADD18R,1.000760X0.599440*%
%ADD19R,1.700000X0.900000*%
%ADD20R,0.900000X1.700000*%
%ADD21R,1.998980X1.998980*%
%ADD22R,1.400000X1.600000*%
%ADD23R,1.200000X3.200000*%
%ADD24R,1.000000X0.350000*%
%ADD25C,1.000000*%
%ADD26C,0.600000*%
%ADD27C,0.300000*%
%ADD28C,0.400000*%
%ADD29C,1.000000*%
%ADD30C,0.800000*%
G04 APERTURE END LIST*
D10*
D11*
X124666666Y-69000000D02*
G75*
G03X124666666Y-69000000I-666666J0D01*
G01*
X123000000Y-69000000D02*
X125000000Y-69000000D01*
X124000000Y-68000000D02*
X124000000Y-70000000D01*
X88966666Y-60400000D02*
G75*
G03X88966666Y-60400000I-666666J0D01*
G01*
X87300000Y-60400000D02*
X89300000Y-60400000D01*
X88300000Y-59400000D02*
X88300000Y-61400000D01*
X98666666Y-91200000D02*
G75*
G03X98666666Y-91200000I-666666J0D01*
G01*
X97000000Y-91200000D02*
X99000000Y-91200000D01*
X98000000Y-90200000D02*
X98000000Y-92200000D01*
X77000000Y-95000000D02*
X77000000Y-57000000D01*
X127000000Y-95000000D02*
X77000000Y-95000000D01*
X127000000Y-57000000D02*
X127000000Y-95000000D01*
X77000000Y-57000000D02*
X127000000Y-57000000D01*
D12*
X118400000Y-74700000D03*
X111200000Y-81870000D03*
X111200000Y-74700000D03*
D13*
X90700000Y-70350000D03*
X92600000Y-70350000D03*
D14*
X104550000Y-72600000D03*
X104550000Y-70700000D03*
D13*
X90700000Y-68150000D03*
X92600000Y-68150000D03*
D14*
X106650000Y-72600000D03*
X106650000Y-70700000D03*
X105900000Y-76750000D03*
X105900000Y-74850000D03*
X101900000Y-79750000D03*
X101900000Y-81650000D03*
D13*
X120650000Y-77100000D03*
X118750000Y-77100000D03*
D14*
X117500000Y-65850000D03*
X117500000Y-67750000D03*
D13*
X121150000Y-69200000D03*
X119250000Y-69200000D03*
D15*
X101400000Y-78050000D03*
X101400000Y-77250000D03*
X101400000Y-76450000D03*
X101400000Y-75650000D03*
X101400000Y-74850000D03*
X101400000Y-74050000D03*
X101400000Y-73250000D03*
X101400000Y-72450000D03*
D16*
X99950000Y-71000000D03*
X99150000Y-71000000D03*
X98350000Y-71000000D03*
X97550000Y-71000000D03*
X96750000Y-71000000D03*
X95950000Y-71000000D03*
X95150000Y-71000000D03*
X94350000Y-71000000D03*
D15*
X92900000Y-72450000D03*
X92900000Y-73250000D03*
X92900000Y-74050000D03*
X92900000Y-74850000D03*
X92900000Y-75650000D03*
X92900000Y-76450000D03*
X92900000Y-77250000D03*
X92900000Y-78050000D03*
D16*
X94350000Y-79500000D03*
X95150000Y-79500000D03*
X95950000Y-79500000D03*
X96750000Y-79500000D03*
X97550000Y-79500000D03*
X98350000Y-79500000D03*
X99150000Y-79500000D03*
X99950000Y-79500000D03*
D17*
X105049760Y-86750040D03*
X106350240Y-86750040D03*
X105700000Y-88649960D03*
D18*
X118750040Y-80450240D03*
X118750040Y-79149760D03*
X120649960Y-79800000D03*
D17*
X88450240Y-87049960D03*
X87149760Y-87049960D03*
X87800000Y-85150040D03*
X116226192Y-61960580D03*
X117526672Y-61960580D03*
X116876432Y-63860500D03*
D19*
X108200000Y-74250000D03*
X108200000Y-77150000D03*
X111200000Y-77000000D03*
X111200000Y-79900000D03*
D20*
X104280000Y-84630000D03*
X107180000Y-84630000D03*
D19*
X116600000Y-80450000D03*
X116600000Y-77550000D03*
D20*
X89350000Y-89100000D03*
X86450000Y-89100000D03*
X87800000Y-82420000D03*
X84900000Y-82420000D03*
D21*
X81980000Y-82398740D03*
X81980000Y-92401260D03*
D20*
X118326432Y-59510540D03*
X115426432Y-59510540D03*
D22*
X118350000Y-93100000D03*
X122850000Y-93100000D03*
X118350000Y-84700000D03*
X122850000Y-84700000D03*
D23*
X119500000Y-63500000D03*
X122900000Y-63500000D03*
D24*
X119500000Y-66100000D03*
X119500000Y-66750000D03*
X119500000Y-67400000D03*
X121700000Y-67400000D03*
X121700000Y-66750000D03*
X121700000Y-66100000D03*
D25*
X102400000Y-86700000D03*
X122000000Y-71500000D03*
X117926091Y-82370428D03*
X109000000Y-82850000D03*
X104450000Y-81200000D03*
X87200000Y-66200000D03*
X110400000Y-72100000D03*
X103533548Y-75650000D03*
X92300000Y-79600000D03*
X88600000Y-79100000D03*
X105361890Y-64017668D03*
X103308012Y-73649979D03*
X84900000Y-84700000D03*
X100702832Y-84402832D03*
X104399998Y-60800000D03*
X104400006Y-59200000D03*
X96600000Y-68499992D03*
X97100000Y-66800000D03*
X104361870Y-62418909D03*
X106100000Y-79200000D03*
X114100000Y-78399980D03*
X87300000Y-72100000D03*
X87000000Y-74600000D03*
X84700000Y-79493621D03*
X79900000Y-67100000D03*
X94200000Y-67500000D03*
X105700000Y-90700000D03*
X120600000Y-59500000D03*
X106400000Y-81100000D03*
X89000000Y-68500000D03*
X102868478Y-78982720D03*
X112450000Y-64055051D03*
X91700000Y-89100000D03*
X108800000Y-72500000D03*
D26*
X102400000Y-86700000D02*
X104999720Y-86700000D01*
X104999720Y-86700000D02*
X105049760Y-86750040D01*
X121150000Y-69200000D02*
X121150000Y-70650000D01*
X121150000Y-70650000D02*
X122000000Y-71500000D01*
X118050000Y-82246519D02*
X117926091Y-82370428D01*
X118050000Y-81500000D02*
X118050000Y-82246519D01*
X116600000Y-80450000D02*
X117000000Y-80450000D01*
X117000000Y-80450000D02*
X118050000Y-81500000D01*
D27*
X119500000Y-66750000D02*
X120300000Y-66750000D01*
X120300000Y-66750000D02*
X120950000Y-67400000D01*
X120950000Y-67400000D02*
X121700000Y-67400000D01*
D28*
X121150000Y-69200000D02*
X121150000Y-68900000D01*
X121150000Y-68900000D02*
X121700000Y-68350000D01*
X121700000Y-68350000D02*
X121700000Y-67425001D01*
D26*
X104280000Y-84630000D02*
X104280000Y-85980280D01*
X104280000Y-85980280D02*
X105049760Y-86750040D01*
X116600000Y-80450000D02*
X118749800Y-80450000D01*
X118749800Y-80450000D02*
X118750040Y-80450240D01*
D27*
X105900000Y-74850000D02*
X106400000Y-74850000D01*
X106400000Y-74850000D02*
X107000000Y-75450000D01*
X107000000Y-75450000D02*
X107450000Y-75450000D01*
X118750000Y-77100000D02*
X118700000Y-77100000D01*
X117500000Y-75900000D02*
X116450000Y-75900000D01*
X118700000Y-77100000D02*
X117500000Y-75900000D01*
X101900000Y-81650000D02*
X101050000Y-81650000D01*
X101050000Y-81650000D02*
X99950000Y-80550000D01*
X99950000Y-80550000D02*
X99950000Y-79500000D01*
X104000000Y-81650000D02*
X104450000Y-81200000D01*
X101900000Y-81650000D02*
X104000000Y-81650000D01*
X99950000Y-78600000D02*
X99950000Y-77550000D01*
X99950000Y-79500000D02*
X99950000Y-78600000D01*
D26*
X109000000Y-70700000D02*
X110400000Y-72100000D01*
X106650000Y-70700000D02*
X109000000Y-70700000D01*
D27*
X119200000Y-69100000D02*
X119500000Y-68800000D01*
X119500000Y-68800000D02*
X119500000Y-67400000D01*
D26*
X122850000Y-93100000D02*
X122850000Y-84700000D01*
D28*
X101750000Y-81650000D02*
X101900000Y-81650000D01*
X99950000Y-79500000D02*
X99950000Y-79850000D01*
X92600000Y-70350000D02*
X93700000Y-70350000D01*
X93700000Y-70350000D02*
X94350000Y-71000000D01*
X92600000Y-68150000D02*
X92600000Y-70350000D01*
D26*
X114100000Y-82400000D02*
X116400000Y-84700000D01*
X116400000Y-84700000D02*
X118350000Y-84700000D01*
X112400000Y-78400000D02*
X109850000Y-78400000D01*
X114100000Y-82400000D02*
X114100000Y-80100000D01*
X109850000Y-78400000D02*
X108600000Y-77150000D01*
X114100000Y-80100000D02*
X112400000Y-78400000D01*
X108600000Y-77150000D02*
X108200000Y-77150000D01*
X105900000Y-76750000D02*
X107800000Y-76750000D01*
X107800000Y-76750000D02*
X108200000Y-77150000D01*
X103533548Y-75650000D02*
X103850000Y-75650000D01*
X103850000Y-75650000D02*
X104900000Y-76700000D01*
X104900000Y-76700000D02*
X105850000Y-76700000D01*
X105850000Y-76700000D02*
X105900000Y-76750000D01*
D28*
X88600000Y-79100000D02*
X91800000Y-79100000D01*
X91800000Y-79100000D02*
X92300000Y-79600000D01*
D26*
X118350000Y-93100000D02*
X118350000Y-91700000D01*
X118350000Y-91700000D02*
X118350000Y-84700000D01*
D28*
X101400000Y-75650000D02*
X103700000Y-75650000D01*
D26*
X120650000Y-77100000D02*
X120650000Y-75450000D01*
X120650000Y-75450000D02*
X119900000Y-74700000D01*
X119900000Y-74700000D02*
X118400000Y-74700000D01*
X120649960Y-79800000D02*
X120649960Y-77100040D01*
X120649960Y-77100040D02*
X120650000Y-77100000D01*
D28*
X105361890Y-64724774D02*
X105361890Y-64017668D01*
X105361890Y-66608005D02*
X105361890Y-64724774D01*
X100969895Y-71000000D02*
X105361890Y-66608005D01*
X99950000Y-71000000D02*
X100969895Y-71000000D01*
D26*
X84800960Y-84799040D02*
X84900000Y-84700000D01*
D28*
X103063604Y-73649979D02*
X103308012Y-73649979D01*
X102663583Y-74050000D02*
X103063604Y-73649979D01*
X101400000Y-74050000D02*
X102663583Y-74050000D01*
D26*
X81980000Y-82398740D02*
X84878740Y-82398740D01*
X84878740Y-82398740D02*
X84900000Y-82420000D01*
X84900000Y-84700000D02*
X84900000Y-82420000D01*
X112199999Y-73700001D02*
X111200000Y-74700000D01*
X108728004Y-68800000D02*
X112199999Y-72271995D01*
X112199999Y-72271995D02*
X112199999Y-73700001D01*
X104600000Y-68800000D02*
X108728004Y-68800000D01*
X102600000Y-70800000D02*
X104600000Y-68800000D01*
X111200000Y-77000000D02*
X111200000Y-74700000D01*
D28*
X102600000Y-72877989D02*
X102600000Y-70800000D01*
X101400000Y-73250000D02*
X102227989Y-73250000D01*
X102227989Y-73250000D02*
X102600000Y-72877989D01*
D26*
X100202833Y-83902833D02*
X100702832Y-84402832D01*
X98350000Y-80550000D02*
X98350000Y-82050000D01*
X98350000Y-82050000D02*
X100202833Y-83902833D01*
D28*
X98350000Y-79500000D02*
X98350000Y-80550000D01*
D26*
X97100000Y-81400000D02*
X97100000Y-82428004D01*
X97100000Y-82428004D02*
X100174830Y-85502834D01*
X100174830Y-85502834D02*
X101397166Y-85502834D01*
X102400000Y-83550000D02*
X103050000Y-82900000D01*
X101397166Y-85502834D02*
X102400000Y-84500000D01*
X102400000Y-84500000D02*
X102400000Y-83550000D01*
X103050000Y-82900000D02*
X105850000Y-82900000D01*
X105850000Y-82900000D02*
X107180000Y-84230000D01*
X107180000Y-84230000D02*
X107180000Y-84630000D01*
D28*
X97550000Y-79500000D02*
X97500001Y-79549999D01*
X97500001Y-79549999D02*
X97500001Y-80500001D01*
X97500001Y-80500001D02*
X97100000Y-80900002D01*
X97100000Y-80900002D02*
X97100000Y-81600000D01*
X97100000Y-81600000D02*
X97100000Y-81400000D01*
D26*
X106350240Y-86750040D02*
X106350240Y-85459760D01*
X106350240Y-85459760D02*
X107180000Y-84630000D01*
D28*
X103300011Y-61899987D02*
X103899999Y-61299999D01*
X103899999Y-61299999D02*
X104399998Y-60800000D01*
X98350000Y-71000000D02*
X98350000Y-69560035D01*
X98350000Y-69560035D02*
X100010046Y-67899989D01*
X100010046Y-67899989D02*
X102089976Y-67899989D01*
X102089976Y-67899989D02*
X103300011Y-66689954D01*
X103300011Y-66689954D02*
X103300011Y-61899987D01*
X104400006Y-59200000D02*
X102600000Y-61000006D01*
X97550000Y-69370070D02*
X97550000Y-70000000D01*
X102600000Y-61000006D02*
X102600000Y-66400000D01*
X102600000Y-66400000D02*
X101800022Y-67199978D01*
X101800022Y-67199978D02*
X99720092Y-67199978D01*
X99720092Y-67199978D02*
X97550000Y-69370070D01*
X97550000Y-70000000D02*
X97550000Y-71000000D01*
X96750000Y-68649992D02*
X96600000Y-68499992D01*
X96900000Y-68500000D02*
X96600008Y-68500000D01*
X96600008Y-68500000D02*
X96600000Y-68499992D01*
X96750000Y-71000000D02*
X96750000Y-68649992D01*
X96392894Y-66800000D02*
X97100000Y-66800000D01*
X95950000Y-69430002D02*
X95599999Y-69080001D01*
X95950000Y-71000000D02*
X95950000Y-69430002D01*
X95599999Y-69080001D02*
X95599999Y-67592895D01*
X95599999Y-67592895D02*
X96392894Y-66800000D01*
X99150000Y-70000000D02*
X99150000Y-71000000D01*
X99150000Y-69810037D02*
X99150000Y-70000000D01*
X104361870Y-66618060D02*
X102379930Y-68600000D01*
X102379930Y-68600000D02*
X100360037Y-68600000D01*
X104361870Y-62418909D02*
X104361870Y-66618060D01*
X100360037Y-68600000D02*
X99150000Y-69810037D01*
X105649998Y-79200000D02*
X106100000Y-79200000D01*
X101400000Y-76450000D02*
X102899998Y-76450000D01*
X102899998Y-76450000D02*
X105649998Y-79200000D01*
D26*
X114599999Y-77899981D02*
X114100000Y-78399980D01*
X114949980Y-77550000D02*
X114599999Y-77899981D01*
X116600000Y-77550000D02*
X114949980Y-77550000D01*
X116600000Y-77550000D02*
X116650000Y-77550000D01*
X118249760Y-79149760D02*
X118750040Y-79149760D01*
X116650000Y-77550000D02*
X118249760Y-79149760D01*
D28*
X92900000Y-74050000D02*
X89250000Y-74050000D01*
X89250000Y-74050000D02*
X87300000Y-72100000D01*
X92900000Y-74850000D02*
X87250000Y-74850000D01*
X87250000Y-74850000D02*
X87000000Y-74600000D01*
D26*
X94350000Y-82350000D02*
X94300000Y-82400000D01*
X94300000Y-82400000D02*
X94300000Y-88800000D01*
X94300000Y-88800000D02*
X91600000Y-91500000D01*
X91600000Y-91500000D02*
X87400000Y-91500000D01*
X87400000Y-91500000D02*
X86450000Y-90550000D01*
X86450000Y-90550000D02*
X86450000Y-89100000D01*
D28*
X94350000Y-79500000D02*
X94350000Y-82350000D01*
D26*
X87149760Y-87049960D02*
X87149760Y-88400240D01*
X87149760Y-88400240D02*
X86450000Y-89100000D01*
D28*
X85199999Y-78993622D02*
X84700000Y-79493621D01*
X86943621Y-77250000D02*
X85199999Y-78993622D01*
X92900000Y-77250000D02*
X86943621Y-77250000D01*
X92900000Y-78050000D02*
X88150000Y-78050000D01*
X88150000Y-78050000D02*
X85706378Y-80493622D01*
X85706378Y-80493622D02*
X83325492Y-80493622D01*
X83325492Y-80493622D02*
X79900000Y-77068130D01*
X79900000Y-77068130D02*
X79900000Y-67100000D01*
X94200000Y-68669967D02*
X94200000Y-68207106D01*
X94200000Y-68207106D02*
X94200000Y-67500000D01*
X95150000Y-71000000D02*
X95150000Y-69619967D01*
X95150000Y-69619967D02*
X94200000Y-68669967D01*
D26*
X105700000Y-88649960D02*
X105700000Y-90700000D01*
X116876432Y-63860500D02*
X116876432Y-65226432D01*
X116876432Y-65226432D02*
X117500000Y-65850000D01*
D27*
X119500000Y-63500000D02*
X119500000Y-66100000D01*
X119500000Y-66100000D02*
X117750000Y-66100000D01*
X117750000Y-66100000D02*
X117500000Y-65850000D01*
X119500000Y-66100000D02*
X121700000Y-66100000D01*
D26*
X120600000Y-59500000D02*
X118336972Y-59500000D01*
X118336972Y-59500000D02*
X118326432Y-59510540D01*
X117576632Y-62010540D02*
X117526672Y-61960580D01*
D28*
X102550000Y-77250000D02*
X106400000Y-81100000D01*
X101400000Y-77250000D02*
X102550000Y-77250000D01*
D26*
X117526672Y-61960580D02*
X117526672Y-60310300D01*
X117526672Y-60310300D02*
X118326432Y-59510540D01*
D27*
X123200000Y-65400000D02*
X123200000Y-65118402D01*
X123200000Y-65118402D02*
X123200000Y-63500000D01*
X121700000Y-66750000D02*
X122500000Y-66750000D01*
X122500000Y-66750000D02*
X123200000Y-66050000D01*
X123200000Y-66050000D02*
X123200000Y-65118402D01*
D26*
X87800000Y-85150040D02*
X87800000Y-82420000D01*
D29*
X90700000Y-70350000D02*
X89750000Y-70350000D01*
X89750000Y-70350000D02*
X89000000Y-69600000D01*
X89000000Y-69600000D02*
X89000000Y-68500000D01*
D26*
X112450000Y-64055051D02*
X114131721Y-64055051D01*
X114131721Y-64055051D02*
X116226192Y-61960580D01*
X108200000Y-74250000D02*
X108200000Y-73100000D01*
X108200000Y-73100000D02*
X108800000Y-72500000D01*
D29*
X102368479Y-79482719D02*
X102868478Y-78982720D01*
X102101198Y-79750000D02*
X102368479Y-79482719D01*
X101900000Y-79750000D02*
X102101198Y-79750000D01*
D26*
X116226192Y-61960580D02*
X116226192Y-60310300D01*
X116226192Y-60310300D02*
X115426432Y-59510540D01*
D28*
X104550000Y-73350000D02*
X104550000Y-72600000D01*
X103053547Y-74649999D02*
X104013549Y-74649999D01*
X104550000Y-74113548D02*
X104550000Y-73350000D01*
X101400000Y-74850000D02*
X102853546Y-74850000D01*
X104013549Y-74649999D02*
X104550000Y-74113548D01*
X102853546Y-74850000D02*
X103053547Y-74649999D01*
D26*
X90550000Y-70200000D02*
X90700000Y-70350000D01*
X108600000Y-72700000D02*
X108800000Y-72500000D01*
D28*
X101900000Y-79750000D02*
X101900000Y-78550000D01*
X101900000Y-78550000D02*
X101400000Y-78050000D01*
D26*
X89350000Y-89100000D02*
X91700000Y-89100000D01*
X88450240Y-87049960D02*
X88450240Y-88200240D01*
X88450240Y-88200240D02*
X89350000Y-89100000D01*
D30*
X104550000Y-72600000D02*
X106650000Y-72600000D01*
X108800000Y-72500000D02*
X106750000Y-72500000D01*
X106750000Y-72500000D02*
X106650000Y-72600000D01*
D28*
X90700000Y-70350000D02*
X90700000Y-68150000D01*
X92900000Y-72450000D02*
X92800000Y-72450000D01*
X92800000Y-72450000D02*
X90700000Y-70350000D01*
D27*
G36*
X106061818Y-57641642D02*
X106050000Y-57700000D01*
X106050000Y-60700000D01*
X106060258Y-60754519D01*
X106092479Y-60804591D01*
X106141642Y-60838182D01*
X106200000Y-60850000D01*
X108600000Y-60850000D01*
X108654519Y-60839742D01*
X108704591Y-60807521D01*
X108738182Y-60758358D01*
X108750000Y-60700000D01*
X108750000Y-57700000D01*
X108739742Y-57645481D01*
X108726563Y-57625000D01*
X126375000Y-57625000D01*
X126375000Y-94375000D01*
X124005552Y-94375000D01*
X124107826Y-94272727D01*
X124208000Y-94030884D01*
X124208000Y-93368500D01*
X124043500Y-93204000D01*
X122954000Y-93204000D01*
X122954000Y-93224000D01*
X122746000Y-93224000D01*
X122746000Y-93204000D01*
X121656500Y-93204000D01*
X121492000Y-93368500D01*
X121492000Y-94030884D01*
X121592174Y-94272727D01*
X121694448Y-94375000D01*
X119327517Y-94375000D01*
X119441012Y-94301968D01*
X119566594Y-94118173D01*
X119610775Y-93900000D01*
X119610775Y-92300000D01*
X119586148Y-92169116D01*
X121492000Y-92169116D01*
X121492000Y-92831500D01*
X121656500Y-92996000D01*
X122746000Y-92996000D01*
X122746000Y-91806500D01*
X122954000Y-91806500D01*
X122954000Y-92996000D01*
X124043500Y-92996000D01*
X124208000Y-92831500D01*
X124208000Y-92169116D01*
X124107826Y-91927273D01*
X123922727Y-91742175D01*
X123680885Y-91642000D01*
X123118500Y-91642000D01*
X122954000Y-91806500D01*
X122746000Y-91806500D01*
X122581500Y-91642000D01*
X122019115Y-91642000D01*
X121777273Y-91742175D01*
X121592174Y-91927273D01*
X121492000Y-92169116D01*
X119586148Y-92169116D01*
X119572424Y-92096182D01*
X119451968Y-91908988D01*
X119268173Y-91783406D01*
X119200000Y-91769601D01*
X119200000Y-86032551D01*
X119253818Y-86022424D01*
X119441012Y-85901968D01*
X119566594Y-85718173D01*
X119610775Y-85500000D01*
X119610775Y-84968500D01*
X121492000Y-84968500D01*
X121492000Y-85630884D01*
X121592174Y-85872727D01*
X121777273Y-86057825D01*
X122019115Y-86158000D01*
X122581500Y-86158000D01*
X122746000Y-85993500D01*
X122746000Y-84804000D01*
X122954000Y-84804000D01*
X122954000Y-85993500D01*
X123118500Y-86158000D01*
X123680885Y-86158000D01*
X123922727Y-86057825D01*
X124107826Y-85872727D01*
X124208000Y-85630884D01*
X124208000Y-84968500D01*
X124043500Y-84804000D01*
X122954000Y-84804000D01*
X122746000Y-84804000D01*
X121656500Y-84804000D01*
X121492000Y-84968500D01*
X119610775Y-84968500D01*
X119610775Y-83900000D01*
X119586148Y-83769116D01*
X121492000Y-83769116D01*
X121492000Y-84431500D01*
X121656500Y-84596000D01*
X122746000Y-84596000D01*
X122746000Y-83406500D01*
X122954000Y-83406500D01*
X122954000Y-84596000D01*
X124043500Y-84596000D01*
X124208000Y-84431500D01*
X124208000Y-83769116D01*
X124107826Y-83527273D01*
X123922727Y-83342175D01*
X123680885Y-83242000D01*
X123118500Y-83242000D01*
X122954000Y-83406500D01*
X122746000Y-83406500D01*
X122581500Y-83242000D01*
X122019115Y-83242000D01*
X121777273Y-83342175D01*
X121592174Y-83527273D01*
X121492000Y-83769116D01*
X119586148Y-83769116D01*
X119572424Y-83696182D01*
X119451968Y-83508988D01*
X119268173Y-83383406D01*
X119050000Y-83339225D01*
X118331000Y-83339225D01*
X118520091Y-83261094D01*
X118815719Y-82965982D01*
X118975909Y-82580202D01*
X118976273Y-82162486D01*
X118900000Y-81977891D01*
X118900000Y-81500000D01*
X118862353Y-81310735D01*
X119250420Y-81310735D01*
X119454238Y-81272384D01*
X119641432Y-81151928D01*
X119767014Y-80968133D01*
X119811195Y-80749960D01*
X119811195Y-80534176D01*
X119931407Y-80616314D01*
X120149580Y-80660495D01*
X121150340Y-80660495D01*
X121354158Y-80622144D01*
X121541352Y-80501688D01*
X121666934Y-80317893D01*
X121711115Y-80099720D01*
X121711115Y-79500280D01*
X121672764Y-79296462D01*
X121552308Y-79109268D01*
X121499960Y-79073500D01*
X121499960Y-77992518D01*
X121516594Y-77968173D01*
X121560775Y-77750000D01*
X121560775Y-76450000D01*
X121522424Y-76246182D01*
X121500000Y-76211334D01*
X121500000Y-75450000D01*
X121435298Y-75124719D01*
X121251041Y-74848959D01*
X120501041Y-74098959D01*
X120225281Y-73914702D01*
X119900000Y-73850000D01*
X119725889Y-73850000D01*
X119714792Y-73823143D01*
X119279151Y-73386740D01*
X118709667Y-73150270D01*
X118093039Y-73149732D01*
X117523143Y-73385208D01*
X117086740Y-73820849D01*
X116850270Y-74390333D01*
X116849732Y-75006961D01*
X117085208Y-75576857D01*
X117520849Y-76013260D01*
X117817643Y-76136499D01*
X117742000Y-76319115D01*
X117742000Y-76633850D01*
X117668173Y-76583406D01*
X117450000Y-76539225D01*
X115750000Y-76539225D01*
X115546182Y-76577576D01*
X115358988Y-76698032D01*
X115357643Y-76700000D01*
X114949980Y-76700000D01*
X114624699Y-76764702D01*
X114348939Y-76948959D01*
X113948051Y-77349847D01*
X113892058Y-77349798D01*
X113506000Y-77509314D01*
X113210372Y-77804426D01*
X113150557Y-77948475D01*
X113001041Y-77798959D01*
X112725281Y-77614702D01*
X112583147Y-77586430D01*
X112610775Y-77450000D01*
X112610775Y-76550000D01*
X112572424Y-76346182D01*
X112451968Y-76158988D01*
X112268173Y-76033406D01*
X112093620Y-75998058D01*
X112513260Y-75579151D01*
X112749730Y-75009667D01*
X112750268Y-74393039D01*
X112738215Y-74363867D01*
X112801040Y-74301042D01*
X112985297Y-74025282D01*
X113049999Y-73700001D01*
X113049999Y-72271995D01*
X112985297Y-71946714D01*
X112801040Y-71670954D01*
X112801037Y-71670952D01*
X110279612Y-69149526D01*
X111391817Y-69149526D01*
X111552549Y-69538526D01*
X111849909Y-69836405D01*
X112238628Y-69997816D01*
X112659526Y-69998183D01*
X113048526Y-69837451D01*
X113346405Y-69540091D01*
X113376132Y-69468500D01*
X118242000Y-69468500D01*
X118242000Y-69980885D01*
X118342175Y-70222727D01*
X118527273Y-70407826D01*
X118769116Y-70508000D01*
X118981500Y-70508000D01*
X119146000Y-70343500D01*
X119146000Y-69304000D01*
X118406500Y-69304000D01*
X118242000Y-69468500D01*
X113376132Y-69468500D01*
X113507816Y-69151372D01*
X113508183Y-68730474D01*
X113347451Y-68341474D01*
X113050091Y-68043595D01*
X112989656Y-68018500D01*
X116192000Y-68018500D01*
X116192000Y-68230884D01*
X116292174Y-68472727D01*
X116477273Y-68657825D01*
X116719115Y-68758000D01*
X117231500Y-68758000D01*
X117396000Y-68593500D01*
X117396000Y-67854000D01*
X116356500Y-67854000D01*
X116192000Y-68018500D01*
X112989656Y-68018500D01*
X112661372Y-67882184D01*
X112240474Y-67881817D01*
X111851474Y-68042549D01*
X111553595Y-68339909D01*
X111392184Y-68728628D01*
X111391817Y-69149526D01*
X110279612Y-69149526D01*
X109329045Y-68198959D01*
X109053285Y-68014702D01*
X108728004Y-67950000D01*
X105080555Y-67950000D01*
X105892220Y-67138335D01*
X105942848Y-67062565D01*
X106054800Y-66895018D01*
X106111587Y-66609526D01*
X111391817Y-66609526D01*
X111552549Y-66998526D01*
X111849909Y-67296405D01*
X112238628Y-67457816D01*
X112659526Y-67458183D01*
X113048526Y-67297451D01*
X113346405Y-67000091D01*
X113507816Y-66611372D01*
X113508183Y-66190474D01*
X113347451Y-65801474D01*
X113050091Y-65503595D01*
X112661372Y-65342184D01*
X112240474Y-65341817D01*
X111851474Y-65502549D01*
X111553595Y-65799909D01*
X111392184Y-66188628D01*
X111391817Y-66609526D01*
X106111587Y-66609526D01*
X106111890Y-66608005D01*
X106111890Y-65117854D01*
X106141642Y-65138182D01*
X106200000Y-65150000D01*
X108600000Y-65150000D01*
X108654519Y-65139742D01*
X108704591Y-65107521D01*
X108738182Y-65058358D01*
X108750000Y-65000000D01*
X108750000Y-64262993D01*
X111399818Y-64262993D01*
X111559334Y-64649051D01*
X111854446Y-64944679D01*
X112240226Y-65104869D01*
X112657942Y-65105233D01*
X113044000Y-64945717D01*
X113084737Y-64905051D01*
X114131721Y-64905051D01*
X114457002Y-64840349D01*
X114732762Y-64656092D01*
X116015937Y-63372917D01*
X116015937Y-64360880D01*
X116026432Y-64416656D01*
X116026432Y-65226432D01*
X116091134Y-65551713D01*
X116275391Y-65827473D01*
X116289225Y-65841307D01*
X116289225Y-66200000D01*
X116327576Y-66403818D01*
X116448032Y-66591012D01*
X116631827Y-66716594D01*
X116757286Y-66742000D01*
X116719115Y-66742000D01*
X116477273Y-66842175D01*
X116292174Y-67027273D01*
X116192000Y-67269116D01*
X116192000Y-67481500D01*
X116356500Y-67646000D01*
X117396000Y-67646000D01*
X117396000Y-67626000D01*
X117604000Y-67626000D01*
X117604000Y-67646000D01*
X117624000Y-67646000D01*
X117624000Y-67854000D01*
X117604000Y-67854000D01*
X117604000Y-68593500D01*
X117768500Y-68758000D01*
X118242000Y-68758000D01*
X118242000Y-68931500D01*
X118406500Y-69096000D01*
X119146000Y-69096000D01*
X119146000Y-69076000D01*
X119354000Y-69076000D01*
X119354000Y-69096000D01*
X119374000Y-69096000D01*
X119374000Y-69304000D01*
X119354000Y-69304000D01*
X119354000Y-70343500D01*
X119518500Y-70508000D01*
X119730884Y-70508000D01*
X119972727Y-70407826D01*
X120157825Y-70222727D01*
X120258000Y-69980885D01*
X120258000Y-69949781D01*
X120277576Y-70053818D01*
X120300000Y-70088666D01*
X120300000Y-70650000D01*
X120364702Y-70975281D01*
X120548959Y-71251041D01*
X120949867Y-71651948D01*
X120949818Y-71707942D01*
X121109334Y-72094000D01*
X121404446Y-72389628D01*
X121790226Y-72549818D01*
X122207942Y-72550182D01*
X122594000Y-72390666D01*
X122889628Y-72095554D01*
X123049818Y-71709774D01*
X123050182Y-71292058D01*
X122890666Y-70906000D01*
X122595554Y-70610372D01*
X122209774Y-70450182D01*
X122152213Y-70450132D01*
X122000000Y-70297918D01*
X122000000Y-70092459D01*
X122016594Y-70068173D01*
X122060775Y-69850000D01*
X122060775Y-69049885D01*
X122230330Y-68880330D01*
X122392910Y-68637013D01*
X122450000Y-68350000D01*
X122450000Y-68067707D01*
X122591012Y-67976968D01*
X122716594Y-67793173D01*
X122760775Y-67575000D01*
X122760775Y-67398129D01*
X122767879Y-67396716D01*
X122994975Y-67244975D01*
X123694972Y-66544977D01*
X123694975Y-66544975D01*
X123846716Y-66317878D01*
X123900000Y-66050000D01*
X123900000Y-65488814D01*
X124016594Y-65318173D01*
X124060775Y-65100000D01*
X124060775Y-61900000D01*
X124022424Y-61696182D01*
X123901968Y-61508988D01*
X123718173Y-61383406D01*
X123500000Y-61339225D01*
X122300000Y-61339225D01*
X122096182Y-61377576D01*
X121908988Y-61498032D01*
X121783406Y-61681827D01*
X121739225Y-61900000D01*
X121739225Y-65100000D01*
X121777576Y-65303818D01*
X121816447Y-65364225D01*
X121200000Y-65364225D01*
X121009872Y-65400000D01*
X120560684Y-65400000D01*
X120616594Y-65318173D01*
X120660775Y-65100000D01*
X120660775Y-61900000D01*
X120622424Y-61696182D01*
X120501968Y-61508988D01*
X120318173Y-61383406D01*
X120100000Y-61339225D01*
X118900000Y-61339225D01*
X118696182Y-61377576D01*
X118508988Y-61498032D01*
X118387167Y-61676323D01*
X118387167Y-61460200D01*
X118376672Y-61404424D01*
X118376672Y-60921315D01*
X118776432Y-60921315D01*
X118980250Y-60882964D01*
X119167444Y-60762508D01*
X119293026Y-60578713D01*
X119337207Y-60360540D01*
X119337207Y-60350000D01*
X119964887Y-60350000D01*
X120004446Y-60389628D01*
X120390226Y-60549818D01*
X120807942Y-60550182D01*
X121194000Y-60390666D01*
X121489628Y-60095554D01*
X121649818Y-59709774D01*
X121650182Y-59292058D01*
X121490666Y-58906000D01*
X121195554Y-58610372D01*
X120809774Y-58450182D01*
X120392058Y-58449818D01*
X120006000Y-58609334D01*
X119965263Y-58650000D01*
X119335224Y-58650000D01*
X119298856Y-58456722D01*
X119178400Y-58269528D01*
X118994605Y-58143946D01*
X118776432Y-58099765D01*
X117876432Y-58099765D01*
X117672614Y-58138116D01*
X117485420Y-58258572D01*
X117359838Y-58442367D01*
X117315657Y-58660540D01*
X117315657Y-59319233D01*
X116925631Y-59709259D01*
X116876432Y-59782890D01*
X116827233Y-59709259D01*
X116827230Y-59709257D01*
X116437207Y-59319234D01*
X116437207Y-58660540D01*
X116398856Y-58456722D01*
X116278400Y-58269528D01*
X116094605Y-58143946D01*
X115876432Y-58099765D01*
X114976432Y-58099765D01*
X114772614Y-58138116D01*
X114585420Y-58258572D01*
X114459838Y-58442367D01*
X114415657Y-58660540D01*
X114415657Y-60360540D01*
X114454008Y-60564358D01*
X114574464Y-60751552D01*
X114758259Y-60877134D01*
X114976432Y-60921315D01*
X115376192Y-60921315D01*
X115376192Y-61408374D01*
X115365697Y-61460200D01*
X115365697Y-61618993D01*
X113779639Y-63205051D01*
X113085113Y-63205051D01*
X113045554Y-63165423D01*
X112659774Y-63005233D01*
X112242058Y-63004869D01*
X111856000Y-63164385D01*
X111560372Y-63459497D01*
X111400182Y-63845277D01*
X111399818Y-64262993D01*
X108750000Y-64262993D01*
X108750000Y-62000000D01*
X108739742Y-61945481D01*
X108707521Y-61895409D01*
X108658358Y-61861818D01*
X108600000Y-61850000D01*
X106200000Y-61850000D01*
X106145481Y-61860258D01*
X106095409Y-61892479D01*
X106061818Y-61941642D01*
X106050000Y-62000000D01*
X106050000Y-63220758D01*
X105957444Y-63128040D01*
X105571664Y-62967850D01*
X105270962Y-62967588D01*
X105411688Y-62628683D01*
X105412052Y-62210967D01*
X105252536Y-61824909D01*
X105056371Y-61628401D01*
X105289626Y-61395554D01*
X105449816Y-61009774D01*
X105450180Y-60592058D01*
X105290664Y-60206000D01*
X105084927Y-59999903D01*
X105289634Y-59795554D01*
X105449824Y-59409774D01*
X105450188Y-58992058D01*
X105290672Y-58606000D01*
X104995560Y-58310372D01*
X104609780Y-58150182D01*
X104192064Y-58149818D01*
X103806006Y-58309334D01*
X103510378Y-58604446D01*
X103350188Y-58990226D01*
X103350014Y-59189332D01*
X102189346Y-60350000D01*
X91400000Y-60350000D01*
X91345481Y-60360258D01*
X91295409Y-60392479D01*
X91261818Y-60441642D01*
X91250000Y-60500000D01*
X91250000Y-66500000D01*
X91260258Y-66554519D01*
X91292479Y-66604591D01*
X91341642Y-66638182D01*
X91400000Y-66650000D01*
X93565263Y-66650000D01*
X93310372Y-66904446D01*
X93298818Y-66932271D01*
X93080884Y-66842000D01*
X92868500Y-66842000D01*
X92704000Y-67006500D01*
X92704000Y-68046000D01*
X92724000Y-68046000D01*
X92724000Y-68254000D01*
X92704000Y-68254000D01*
X92704000Y-70246000D01*
X92724000Y-70246000D01*
X92724000Y-70454000D01*
X92704000Y-70454000D01*
X92704000Y-70474000D01*
X92496000Y-70474000D01*
X92496000Y-70454000D01*
X92476000Y-70454000D01*
X92476000Y-70246000D01*
X92496000Y-70246000D01*
X92496000Y-68254000D01*
X92476000Y-68254000D01*
X92476000Y-68046000D01*
X92496000Y-68046000D01*
X92496000Y-67006500D01*
X92331500Y-66842000D01*
X92119116Y-66842000D01*
X91877273Y-66942174D01*
X91692175Y-67127273D01*
X91592000Y-67369115D01*
X91592000Y-67400219D01*
X91572424Y-67296182D01*
X91451968Y-67108988D01*
X91268173Y-66983406D01*
X91050000Y-66939225D01*
X90350000Y-66939225D01*
X90146182Y-66977576D01*
X89958988Y-67098032D01*
X89833406Y-67281827D01*
X89789225Y-67500000D01*
X89789225Y-67804382D01*
X89595554Y-67610372D01*
X89209774Y-67450182D01*
X88792058Y-67449818D01*
X88406000Y-67609334D01*
X88110372Y-67904446D01*
X87950182Y-68290226D01*
X87949818Y-68707942D01*
X87950000Y-68708382D01*
X87950000Y-69600000D01*
X88029926Y-70001818D01*
X88257538Y-70342462D01*
X89007538Y-71092462D01*
X89348182Y-71320074D01*
X89750000Y-71400000D01*
X89961186Y-71400000D01*
X90131827Y-71516594D01*
X90350000Y-71560775D01*
X90850115Y-71560775D01*
X91739225Y-72449885D01*
X91739225Y-72700000D01*
X91768486Y-72855507D01*
X91739225Y-73000000D01*
X91739225Y-73300000D01*
X89560660Y-73300000D01*
X88350010Y-72089350D01*
X88350182Y-71892058D01*
X88190666Y-71506000D01*
X87895554Y-71210372D01*
X87509774Y-71050182D01*
X87092058Y-71049818D01*
X86706000Y-71209334D01*
X86410372Y-71504446D01*
X86400000Y-71529425D01*
X86400000Y-62750000D01*
X86389742Y-62695481D01*
X86357521Y-62645409D01*
X86308358Y-62611818D01*
X86250000Y-62600000D01*
X80250000Y-62600000D01*
X80195481Y-62610258D01*
X80145409Y-62642479D01*
X80111818Y-62691642D01*
X80100000Y-62750000D01*
X80100000Y-66050173D01*
X79692058Y-66049818D01*
X79306000Y-66209334D01*
X79010372Y-66504446D01*
X78850182Y-66890226D01*
X78849818Y-67307942D01*
X79009334Y-67694000D01*
X79150000Y-67834912D01*
X79150000Y-77068130D01*
X79207090Y-77355143D01*
X79369670Y-77598460D01*
X80100000Y-78328790D01*
X80100000Y-78750000D01*
X80110258Y-78804519D01*
X80142479Y-78854591D01*
X80191642Y-78888182D01*
X80250000Y-78900000D01*
X80671210Y-78900000D01*
X82609685Y-80838475D01*
X80980510Y-80838475D01*
X80776692Y-80876826D01*
X80589498Y-80997282D01*
X80463916Y-81181077D01*
X80419735Y-81399250D01*
X80419735Y-83398230D01*
X80458086Y-83602048D01*
X80578542Y-83789242D01*
X80762337Y-83914824D01*
X80980510Y-83959005D01*
X82979490Y-83959005D01*
X83183308Y-83920654D01*
X83370502Y-83800198D01*
X83496084Y-83616403D01*
X83540265Y-83398230D01*
X83540265Y-83248740D01*
X83889225Y-83248740D01*
X83889225Y-83270000D01*
X83927576Y-83473818D01*
X84048032Y-83661012D01*
X84050000Y-83662357D01*
X84050000Y-84064887D01*
X84010372Y-84104446D01*
X83850182Y-84490226D01*
X83849818Y-84907942D01*
X84009334Y-85294000D01*
X84304446Y-85589628D01*
X84690226Y-85749818D01*
X85107942Y-85750182D01*
X85494000Y-85590666D01*
X85789628Y-85295554D01*
X85949818Y-84909774D01*
X85950182Y-84492058D01*
X85790666Y-84106000D01*
X85750000Y-84065263D01*
X85750000Y-83658814D01*
X85866594Y-83488173D01*
X85910775Y-83270000D01*
X85910775Y-81570000D01*
X85872424Y-81366182D01*
X85783666Y-81228249D01*
X85993391Y-81186532D01*
X86236708Y-81023952D01*
X87667619Y-79593041D01*
X87709334Y-79694000D01*
X88004446Y-79989628D01*
X88390226Y-80149818D01*
X88807942Y-80150182D01*
X89194000Y-79990666D01*
X89334912Y-79850000D01*
X91267196Y-79850000D01*
X91409334Y-80194000D01*
X91704446Y-80489628D01*
X92090226Y-80649818D01*
X92507942Y-80650182D01*
X92894000Y-80490666D01*
X93189628Y-80195554D01*
X93349818Y-79809774D01*
X93350182Y-79392058D01*
X93190666Y-79006000D01*
X93045694Y-78860775D01*
X93500000Y-78860775D01*
X93549037Y-78851548D01*
X93539225Y-78900000D01*
X93539225Y-80100000D01*
X93577576Y-80303818D01*
X93600000Y-80338666D01*
X93600000Y-81947062D01*
X93514702Y-82074719D01*
X93450000Y-82400000D01*
X93450000Y-88447919D01*
X92749959Y-89147960D01*
X92750182Y-88892058D01*
X92590666Y-88506000D01*
X92295554Y-88210372D01*
X91909774Y-88050182D01*
X91492058Y-88049818D01*
X91106000Y-88209334D01*
X91065263Y-88250000D01*
X90360775Y-88250000D01*
X90322424Y-88046182D01*
X90201968Y-87858988D01*
X90018173Y-87733406D01*
X89800000Y-87689225D01*
X89300240Y-87689225D01*
X89300240Y-87602166D01*
X89310735Y-87550340D01*
X89310735Y-86549580D01*
X89272384Y-86345762D01*
X89151928Y-86158568D01*
X88968133Y-86032986D01*
X88749960Y-85988805D01*
X88534176Y-85988805D01*
X88616314Y-85868593D01*
X88660495Y-85650420D01*
X88660495Y-84649660D01*
X88650000Y-84593884D01*
X88650000Y-83658814D01*
X88766594Y-83488173D01*
X88810775Y-83270000D01*
X88810775Y-81570000D01*
X88772424Y-81366182D01*
X88651968Y-81178988D01*
X88468173Y-81053406D01*
X88250000Y-81009225D01*
X87350000Y-81009225D01*
X87146182Y-81047576D01*
X86958988Y-81168032D01*
X86833406Y-81351827D01*
X86789225Y-81570000D01*
X86789225Y-83270000D01*
X86827576Y-83473818D01*
X86948032Y-83661012D01*
X86950000Y-83662357D01*
X86950000Y-84597834D01*
X86939505Y-84649660D01*
X86939505Y-85650420D01*
X86977856Y-85854238D01*
X87064447Y-85988805D01*
X86850040Y-85988805D01*
X86646222Y-86027156D01*
X86459028Y-86147612D01*
X86333446Y-86331407D01*
X86289265Y-86549580D01*
X86289265Y-87550340D01*
X86299760Y-87606116D01*
X86299760Y-87689225D01*
X86000000Y-87689225D01*
X85796182Y-87727576D01*
X85608988Y-87848032D01*
X85483406Y-88031827D01*
X85439225Y-88250000D01*
X85439225Y-89950000D01*
X85477576Y-90153818D01*
X85598032Y-90341012D01*
X85600000Y-90342357D01*
X85600000Y-90550000D01*
X85664702Y-90875281D01*
X85848959Y-91151041D01*
X86798959Y-92101041D01*
X87074719Y-92285298D01*
X87400000Y-92350000D01*
X91600000Y-92350000D01*
X91925281Y-92285298D01*
X92201041Y-92101041D01*
X94901038Y-89401043D01*
X94901041Y-89401041D01*
X95085298Y-89125281D01*
X95090327Y-89100000D01*
X95150001Y-88800000D01*
X95150000Y-88799995D01*
X95150000Y-82601370D01*
X95200001Y-82350000D01*
X95135298Y-82024719D01*
X95100000Y-81971892D01*
X95100000Y-80660775D01*
X95400000Y-80660775D01*
X95555507Y-80631514D01*
X95700000Y-80660775D01*
X96200000Y-80660775D01*
X96355507Y-80631514D01*
X96401550Y-80640839D01*
X96350000Y-80900002D01*
X96350000Y-81021892D01*
X96314702Y-81074719D01*
X96250000Y-81400000D01*
X96250000Y-82428004D01*
X96314702Y-82753285D01*
X96498959Y-83029045D01*
X99573789Y-86103875D01*
X99849549Y-86288132D01*
X100174830Y-86352834D01*
X101397166Y-86352834D01*
X101408138Y-86350651D01*
X101350182Y-86490226D01*
X101349818Y-86907942D01*
X101509334Y-87294000D01*
X101804446Y-87589628D01*
X102190226Y-87749818D01*
X102607942Y-87750182D01*
X102994000Y-87590666D01*
X103034737Y-87550000D01*
X104289237Y-87550000D01*
X104348072Y-87641432D01*
X104531867Y-87767014D01*
X104750040Y-87811195D01*
X104965824Y-87811195D01*
X104883686Y-87931407D01*
X104839505Y-88149580D01*
X104839505Y-89150340D01*
X104850000Y-89206116D01*
X104850000Y-90064887D01*
X104810372Y-90104446D01*
X104650182Y-90490226D01*
X104649818Y-90907942D01*
X104791154Y-91250000D01*
X104000000Y-91250000D01*
X103945481Y-91260258D01*
X103895409Y-91292479D01*
X103861818Y-91341642D01*
X103850000Y-91400000D01*
X103850000Y-94375000D01*
X77625000Y-94375000D01*
X77625000Y-92669760D01*
X80322510Y-92669760D01*
X80322510Y-93531634D01*
X80422684Y-93773477D01*
X80607783Y-93958575D01*
X80849625Y-94058750D01*
X81711500Y-94058750D01*
X81876000Y-93894250D01*
X81876000Y-92505260D01*
X82084000Y-92505260D01*
X82084000Y-93894250D01*
X82248500Y-94058750D01*
X83110375Y-94058750D01*
X83352217Y-93958575D01*
X83537316Y-93773477D01*
X83637490Y-93531634D01*
X83637490Y-92669760D01*
X83472990Y-92505260D01*
X82084000Y-92505260D01*
X81876000Y-92505260D01*
X80487010Y-92505260D01*
X80322510Y-92669760D01*
X77625000Y-92669760D01*
X77625000Y-91270886D01*
X80322510Y-91270886D01*
X80322510Y-92132760D01*
X80487010Y-92297260D01*
X81876000Y-92297260D01*
X81876000Y-90908270D01*
X82084000Y-90908270D01*
X82084000Y-92297260D01*
X83472990Y-92297260D01*
X83637490Y-92132760D01*
X83637490Y-91270886D01*
X83537316Y-91029043D01*
X83352217Y-90843945D01*
X83110375Y-90743770D01*
X82248500Y-90743770D01*
X82084000Y-90908270D01*
X81876000Y-90908270D01*
X81711500Y-90743770D01*
X80849625Y-90743770D01*
X80607783Y-90843945D01*
X80422684Y-91029043D01*
X80322510Y-91270886D01*
X77625000Y-91270886D01*
X77625000Y-57625000D01*
X106073189Y-57625000D01*
X106061818Y-57641642D01*
X106061818Y-57641642D01*
G37*
X106061818Y-57641642D02*
X106050000Y-57700000D01*
X106050000Y-60700000D01*
X106060258Y-60754519D01*
X106092479Y-60804591D01*
X106141642Y-60838182D01*
X106200000Y-60850000D01*
X108600000Y-60850000D01*
X108654519Y-60839742D01*
X108704591Y-60807521D01*
X108738182Y-60758358D01*
X108750000Y-60700000D01*
X108750000Y-57700000D01*
X108739742Y-57645481D01*
X108726563Y-57625000D01*
X126375000Y-57625000D01*
X126375000Y-94375000D01*
X124005552Y-94375000D01*
X124107826Y-94272727D01*
X124208000Y-94030884D01*
X124208000Y-93368500D01*
X124043500Y-93204000D01*
X122954000Y-93204000D01*
X122954000Y-93224000D01*
X122746000Y-93224000D01*
X122746000Y-93204000D01*
X121656500Y-93204000D01*
X121492000Y-93368500D01*
X121492000Y-94030884D01*
X121592174Y-94272727D01*
X121694448Y-94375000D01*
X119327517Y-94375000D01*
X119441012Y-94301968D01*
X119566594Y-94118173D01*
X119610775Y-93900000D01*
X119610775Y-92300000D01*
X119586148Y-92169116D01*
X121492000Y-92169116D01*
X121492000Y-92831500D01*
X121656500Y-92996000D01*
X122746000Y-92996000D01*
X122746000Y-91806500D01*
X122954000Y-91806500D01*
X122954000Y-92996000D01*
X124043500Y-92996000D01*
X124208000Y-92831500D01*
X124208000Y-92169116D01*
X124107826Y-91927273D01*
X123922727Y-91742175D01*
X123680885Y-91642000D01*
X123118500Y-91642000D01*
X122954000Y-91806500D01*
X122746000Y-91806500D01*
X122581500Y-91642000D01*
X122019115Y-91642000D01*
X121777273Y-91742175D01*
X121592174Y-91927273D01*
X121492000Y-92169116D01*
X119586148Y-92169116D01*
X119572424Y-92096182D01*
X119451968Y-91908988D01*
X119268173Y-91783406D01*
X119200000Y-91769601D01*
X119200000Y-86032551D01*
X119253818Y-86022424D01*
X119441012Y-85901968D01*
X119566594Y-85718173D01*
X119610775Y-85500000D01*
X119610775Y-84968500D01*
X121492000Y-84968500D01*
X121492000Y-85630884D01*
X121592174Y-85872727D01*
X121777273Y-86057825D01*
X122019115Y-86158000D01*
X122581500Y-86158000D01*
X122746000Y-85993500D01*
X122746000Y-84804000D01*
X122954000Y-84804000D01*
X122954000Y-85993500D01*
X123118500Y-86158000D01*
X123680885Y-86158000D01*
X123922727Y-86057825D01*
X124107826Y-85872727D01*
X124208000Y-85630884D01*
X124208000Y-84968500D01*
X124043500Y-84804000D01*
X122954000Y-84804000D01*
X122746000Y-84804000D01*
X121656500Y-84804000D01*
X121492000Y-84968500D01*
X119610775Y-84968500D01*
X119610775Y-83900000D01*
X119586148Y-83769116D01*
X121492000Y-83769116D01*
X121492000Y-84431500D01*
X121656500Y-84596000D01*
X122746000Y-84596000D01*
X122746000Y-83406500D01*
X122954000Y-83406500D01*
X122954000Y-84596000D01*
X124043500Y-84596000D01*
X124208000Y-84431500D01*
X124208000Y-83769116D01*
X124107826Y-83527273D01*
X123922727Y-83342175D01*
X123680885Y-83242000D01*
X123118500Y-83242000D01*
X122954000Y-83406500D01*
X122746000Y-83406500D01*
X122581500Y-83242000D01*
X122019115Y-83242000D01*
X121777273Y-83342175D01*
X121592174Y-83527273D01*
X121492000Y-83769116D01*
X119586148Y-83769116D01*
X119572424Y-83696182D01*
X119451968Y-83508988D01*
X119268173Y-83383406D01*
X119050000Y-83339225D01*
X118331000Y-83339225D01*
X118520091Y-83261094D01*
X118815719Y-82965982D01*
X118975909Y-82580202D01*
X118976273Y-82162486D01*
X118900000Y-81977891D01*
X118900000Y-81500000D01*
X118862353Y-81310735D01*
X119250420Y-81310735D01*
X119454238Y-81272384D01*
X119641432Y-81151928D01*
X119767014Y-80968133D01*
X119811195Y-80749960D01*
X119811195Y-80534176D01*
X119931407Y-80616314D01*
X120149580Y-80660495D01*
X121150340Y-80660495D01*
X121354158Y-80622144D01*
X121541352Y-80501688D01*
X121666934Y-80317893D01*
X121711115Y-80099720D01*
X121711115Y-79500280D01*
X121672764Y-79296462D01*
X121552308Y-79109268D01*
X121499960Y-79073500D01*
X121499960Y-77992518D01*
X121516594Y-77968173D01*
X121560775Y-77750000D01*
X121560775Y-76450000D01*
X121522424Y-76246182D01*
X121500000Y-76211334D01*
X121500000Y-75450000D01*
X121435298Y-75124719D01*
X121251041Y-74848959D01*
X120501041Y-74098959D01*
X120225281Y-73914702D01*
X119900000Y-73850000D01*
X119725889Y-73850000D01*
X119714792Y-73823143D01*
X119279151Y-73386740D01*
X118709667Y-73150270D01*
X118093039Y-73149732D01*
X117523143Y-73385208D01*
X117086740Y-73820849D01*
X116850270Y-74390333D01*
X116849732Y-75006961D01*
X117085208Y-75576857D01*
X117520849Y-76013260D01*
X117817643Y-76136499D01*
X117742000Y-76319115D01*
X117742000Y-76633850D01*
X117668173Y-76583406D01*
X117450000Y-76539225D01*
X115750000Y-76539225D01*
X115546182Y-76577576D01*
X115358988Y-76698032D01*
X115357643Y-76700000D01*
X114949980Y-76700000D01*
X114624699Y-76764702D01*
X114348939Y-76948959D01*
X113948051Y-77349847D01*
X113892058Y-77349798D01*
X113506000Y-77509314D01*
X113210372Y-77804426D01*
X113150557Y-77948475D01*
X113001041Y-77798959D01*
X112725281Y-77614702D01*
X112583147Y-77586430D01*
X112610775Y-77450000D01*
X112610775Y-76550000D01*
X112572424Y-76346182D01*
X112451968Y-76158988D01*
X112268173Y-76033406D01*
X112093620Y-75998058D01*
X112513260Y-75579151D01*
X112749730Y-75009667D01*
X112750268Y-74393039D01*
X112738215Y-74363867D01*
X112801040Y-74301042D01*
X112985297Y-74025282D01*
X113049999Y-73700001D01*
X113049999Y-72271995D01*
X112985297Y-71946714D01*
X112801040Y-71670954D01*
X112801037Y-71670952D01*
X110279612Y-69149526D01*
X111391817Y-69149526D01*
X111552549Y-69538526D01*
X111849909Y-69836405D01*
X112238628Y-69997816D01*
X112659526Y-69998183D01*
X113048526Y-69837451D01*
X113346405Y-69540091D01*
X113376132Y-69468500D01*
X118242000Y-69468500D01*
X118242000Y-69980885D01*
X118342175Y-70222727D01*
X118527273Y-70407826D01*
X118769116Y-70508000D01*
X118981500Y-70508000D01*
X119146000Y-70343500D01*
X119146000Y-69304000D01*
X118406500Y-69304000D01*
X118242000Y-69468500D01*
X113376132Y-69468500D01*
X113507816Y-69151372D01*
X113508183Y-68730474D01*
X113347451Y-68341474D01*
X113050091Y-68043595D01*
X112989656Y-68018500D01*
X116192000Y-68018500D01*
X116192000Y-68230884D01*
X116292174Y-68472727D01*
X116477273Y-68657825D01*
X116719115Y-68758000D01*
X117231500Y-68758000D01*
X117396000Y-68593500D01*
X117396000Y-67854000D01*
X116356500Y-67854000D01*
X116192000Y-68018500D01*
X112989656Y-68018500D01*
X112661372Y-67882184D01*
X112240474Y-67881817D01*
X111851474Y-68042549D01*
X111553595Y-68339909D01*
X111392184Y-68728628D01*
X111391817Y-69149526D01*
X110279612Y-69149526D01*
X109329045Y-68198959D01*
X109053285Y-68014702D01*
X108728004Y-67950000D01*
X105080555Y-67950000D01*
X105892220Y-67138335D01*
X105942848Y-67062565D01*
X106054800Y-66895018D01*
X106111587Y-66609526D01*
X111391817Y-66609526D01*
X111552549Y-66998526D01*
X111849909Y-67296405D01*
X112238628Y-67457816D01*
X112659526Y-67458183D01*
X113048526Y-67297451D01*
X113346405Y-67000091D01*
X113507816Y-66611372D01*
X113508183Y-66190474D01*
X113347451Y-65801474D01*
X113050091Y-65503595D01*
X112661372Y-65342184D01*
X112240474Y-65341817D01*
X111851474Y-65502549D01*
X111553595Y-65799909D01*
X111392184Y-66188628D01*
X111391817Y-66609526D01*
X106111587Y-66609526D01*
X106111890Y-66608005D01*
X106111890Y-65117854D01*
X106141642Y-65138182D01*
X106200000Y-65150000D01*
X108600000Y-65150000D01*
X108654519Y-65139742D01*
X108704591Y-65107521D01*
X108738182Y-65058358D01*
X108750000Y-65000000D01*
X108750000Y-64262993D01*
X111399818Y-64262993D01*
X111559334Y-64649051D01*
X111854446Y-64944679D01*
X112240226Y-65104869D01*
X112657942Y-65105233D01*
X113044000Y-64945717D01*
X113084737Y-64905051D01*
X114131721Y-64905051D01*
X114457002Y-64840349D01*
X114732762Y-64656092D01*
X116015937Y-63372917D01*
X116015937Y-64360880D01*
X116026432Y-64416656D01*
X116026432Y-65226432D01*
X116091134Y-65551713D01*
X116275391Y-65827473D01*
X116289225Y-65841307D01*
X116289225Y-66200000D01*
X116327576Y-66403818D01*
X116448032Y-66591012D01*
X116631827Y-66716594D01*
X116757286Y-66742000D01*
X116719115Y-66742000D01*
X116477273Y-66842175D01*
X116292174Y-67027273D01*
X116192000Y-67269116D01*
X116192000Y-67481500D01*
X116356500Y-67646000D01*
X117396000Y-67646000D01*
X117396000Y-67626000D01*
X117604000Y-67626000D01*
X117604000Y-67646000D01*
X117624000Y-67646000D01*
X117624000Y-67854000D01*
X117604000Y-67854000D01*
X117604000Y-68593500D01*
X117768500Y-68758000D01*
X118242000Y-68758000D01*
X118242000Y-68931500D01*
X118406500Y-69096000D01*
X119146000Y-69096000D01*
X119146000Y-69076000D01*
X119354000Y-69076000D01*
X119354000Y-69096000D01*
X119374000Y-69096000D01*
X119374000Y-69304000D01*
X119354000Y-69304000D01*
X119354000Y-70343500D01*
X119518500Y-70508000D01*
X119730884Y-70508000D01*
X119972727Y-70407826D01*
X120157825Y-70222727D01*
X120258000Y-69980885D01*
X120258000Y-69949781D01*
X120277576Y-70053818D01*
X120300000Y-70088666D01*
X120300000Y-70650000D01*
X120364702Y-70975281D01*
X120548959Y-71251041D01*
X120949867Y-71651948D01*
X120949818Y-71707942D01*
X121109334Y-72094000D01*
X121404446Y-72389628D01*
X121790226Y-72549818D01*
X122207942Y-72550182D01*
X122594000Y-72390666D01*
X122889628Y-72095554D01*
X123049818Y-71709774D01*
X123050182Y-71292058D01*
X122890666Y-70906000D01*
X122595554Y-70610372D01*
X122209774Y-70450182D01*
X122152213Y-70450132D01*
X122000000Y-70297918D01*
X122000000Y-70092459D01*
X122016594Y-70068173D01*
X122060775Y-69850000D01*
X122060775Y-69049885D01*
X122230330Y-68880330D01*
X122392910Y-68637013D01*
X122450000Y-68350000D01*
X122450000Y-68067707D01*
X122591012Y-67976968D01*
X122716594Y-67793173D01*
X122760775Y-67575000D01*
X122760775Y-67398129D01*
X122767879Y-67396716D01*
X122994975Y-67244975D01*
X123694972Y-66544977D01*
X123694975Y-66544975D01*
X123846716Y-66317878D01*
X123900000Y-66050000D01*
X123900000Y-65488814D01*
X124016594Y-65318173D01*
X124060775Y-65100000D01*
X124060775Y-61900000D01*
X124022424Y-61696182D01*
X123901968Y-61508988D01*
X123718173Y-61383406D01*
X123500000Y-61339225D01*
X122300000Y-61339225D01*
X122096182Y-61377576D01*
X121908988Y-61498032D01*
X121783406Y-61681827D01*
X121739225Y-61900000D01*
X121739225Y-65100000D01*
X121777576Y-65303818D01*
X121816447Y-65364225D01*
X121200000Y-65364225D01*
X121009872Y-65400000D01*
X120560684Y-65400000D01*
X120616594Y-65318173D01*
X120660775Y-65100000D01*
X120660775Y-61900000D01*
X120622424Y-61696182D01*
X120501968Y-61508988D01*
X120318173Y-61383406D01*
X120100000Y-61339225D01*
X118900000Y-61339225D01*
X118696182Y-61377576D01*
X118508988Y-61498032D01*
X118387167Y-61676323D01*
X118387167Y-61460200D01*
X118376672Y-61404424D01*
X118376672Y-60921315D01*
X118776432Y-60921315D01*
X118980250Y-60882964D01*
X119167444Y-60762508D01*
X119293026Y-60578713D01*
X119337207Y-60360540D01*
X119337207Y-60350000D01*
X119964887Y-60350000D01*
X120004446Y-60389628D01*
X120390226Y-60549818D01*
X120807942Y-60550182D01*
X121194000Y-60390666D01*
X121489628Y-60095554D01*
X121649818Y-59709774D01*
X121650182Y-59292058D01*
X121490666Y-58906000D01*
X121195554Y-58610372D01*
X120809774Y-58450182D01*
X120392058Y-58449818D01*
X120006000Y-58609334D01*
X119965263Y-58650000D01*
X119335224Y-58650000D01*
X119298856Y-58456722D01*
X119178400Y-58269528D01*
X118994605Y-58143946D01*
X118776432Y-58099765D01*
X117876432Y-58099765D01*
X117672614Y-58138116D01*
X117485420Y-58258572D01*
X117359838Y-58442367D01*
X117315657Y-58660540D01*
X117315657Y-59319233D01*
X116925631Y-59709259D01*
X116876432Y-59782890D01*
X116827233Y-59709259D01*
X116827230Y-59709257D01*
X116437207Y-59319234D01*
X116437207Y-58660540D01*
X116398856Y-58456722D01*
X116278400Y-58269528D01*
X116094605Y-58143946D01*
X115876432Y-58099765D01*
X114976432Y-58099765D01*
X114772614Y-58138116D01*
X114585420Y-58258572D01*
X114459838Y-58442367D01*
X114415657Y-58660540D01*
X114415657Y-60360540D01*
X114454008Y-60564358D01*
X114574464Y-60751552D01*
X114758259Y-60877134D01*
X114976432Y-60921315D01*
X115376192Y-60921315D01*
X115376192Y-61408374D01*
X115365697Y-61460200D01*
X115365697Y-61618993D01*
X113779639Y-63205051D01*
X113085113Y-63205051D01*
X113045554Y-63165423D01*
X112659774Y-63005233D01*
X112242058Y-63004869D01*
X111856000Y-63164385D01*
X111560372Y-63459497D01*
X111400182Y-63845277D01*
X111399818Y-64262993D01*
X108750000Y-64262993D01*
X108750000Y-62000000D01*
X108739742Y-61945481D01*
X108707521Y-61895409D01*
X108658358Y-61861818D01*
X108600000Y-61850000D01*
X106200000Y-61850000D01*
X106145481Y-61860258D01*
X106095409Y-61892479D01*
X106061818Y-61941642D01*
X106050000Y-62000000D01*
X106050000Y-63220758D01*
X105957444Y-63128040D01*
X105571664Y-62967850D01*
X105270962Y-62967588D01*
X105411688Y-62628683D01*
X105412052Y-62210967D01*
X105252536Y-61824909D01*
X105056371Y-61628401D01*
X105289626Y-61395554D01*
X105449816Y-61009774D01*
X105450180Y-60592058D01*
X105290664Y-60206000D01*
X105084927Y-59999903D01*
X105289634Y-59795554D01*
X105449824Y-59409774D01*
X105450188Y-58992058D01*
X105290672Y-58606000D01*
X104995560Y-58310372D01*
X104609780Y-58150182D01*
X104192064Y-58149818D01*
X103806006Y-58309334D01*
X103510378Y-58604446D01*
X103350188Y-58990226D01*
X103350014Y-59189332D01*
X102189346Y-60350000D01*
X91400000Y-60350000D01*
X91345481Y-60360258D01*
X91295409Y-60392479D01*
X91261818Y-60441642D01*
X91250000Y-60500000D01*
X91250000Y-66500000D01*
X91260258Y-66554519D01*
X91292479Y-66604591D01*
X91341642Y-66638182D01*
X91400000Y-66650000D01*
X93565263Y-66650000D01*
X93310372Y-66904446D01*
X93298818Y-66932271D01*
X93080884Y-66842000D01*
X92868500Y-66842000D01*
X92704000Y-67006500D01*
X92704000Y-68046000D01*
X92724000Y-68046000D01*
X92724000Y-68254000D01*
X92704000Y-68254000D01*
X92704000Y-70246000D01*
X92724000Y-70246000D01*
X92724000Y-70454000D01*
X92704000Y-70454000D01*
X92704000Y-70474000D01*
X92496000Y-70474000D01*
X92496000Y-70454000D01*
X92476000Y-70454000D01*
X92476000Y-70246000D01*
X92496000Y-70246000D01*
X92496000Y-68254000D01*
X92476000Y-68254000D01*
X92476000Y-68046000D01*
X92496000Y-68046000D01*
X92496000Y-67006500D01*
X92331500Y-66842000D01*
X92119116Y-66842000D01*
X91877273Y-66942174D01*
X91692175Y-67127273D01*
X91592000Y-67369115D01*
X91592000Y-67400219D01*
X91572424Y-67296182D01*
X91451968Y-67108988D01*
X91268173Y-66983406D01*
X91050000Y-66939225D01*
X90350000Y-66939225D01*
X90146182Y-66977576D01*
X89958988Y-67098032D01*
X89833406Y-67281827D01*
X89789225Y-67500000D01*
X89789225Y-67804382D01*
X89595554Y-67610372D01*
X89209774Y-67450182D01*
X88792058Y-67449818D01*
X88406000Y-67609334D01*
X88110372Y-67904446D01*
X87950182Y-68290226D01*
X87949818Y-68707942D01*
X87950000Y-68708382D01*
X87950000Y-69600000D01*
X88029926Y-70001818D01*
X88257538Y-70342462D01*
X89007538Y-71092462D01*
X89348182Y-71320074D01*
X89750000Y-71400000D01*
X89961186Y-71400000D01*
X90131827Y-71516594D01*
X90350000Y-71560775D01*
X90850115Y-71560775D01*
X91739225Y-72449885D01*
X91739225Y-72700000D01*
X91768486Y-72855507D01*
X91739225Y-73000000D01*
X91739225Y-73300000D01*
X89560660Y-73300000D01*
X88350010Y-72089350D01*
X88350182Y-71892058D01*
X88190666Y-71506000D01*
X87895554Y-71210372D01*
X87509774Y-71050182D01*
X87092058Y-71049818D01*
X86706000Y-71209334D01*
X86410372Y-71504446D01*
X86400000Y-71529425D01*
X86400000Y-62750000D01*
X86389742Y-62695481D01*
X86357521Y-62645409D01*
X86308358Y-62611818D01*
X86250000Y-62600000D01*
X80250000Y-62600000D01*
X80195481Y-62610258D01*
X80145409Y-62642479D01*
X80111818Y-62691642D01*
X80100000Y-62750000D01*
X80100000Y-66050173D01*
X79692058Y-66049818D01*
X79306000Y-66209334D01*
X79010372Y-66504446D01*
X78850182Y-66890226D01*
X78849818Y-67307942D01*
X79009334Y-67694000D01*
X79150000Y-67834912D01*
X79150000Y-77068130D01*
X79207090Y-77355143D01*
X79369670Y-77598460D01*
X80100000Y-78328790D01*
X80100000Y-78750000D01*
X80110258Y-78804519D01*
X80142479Y-78854591D01*
X80191642Y-78888182D01*
X80250000Y-78900000D01*
X80671210Y-78900000D01*
X82609685Y-80838475D01*
X80980510Y-80838475D01*
X80776692Y-80876826D01*
X80589498Y-80997282D01*
X80463916Y-81181077D01*
X80419735Y-81399250D01*
X80419735Y-83398230D01*
X80458086Y-83602048D01*
X80578542Y-83789242D01*
X80762337Y-83914824D01*
X80980510Y-83959005D01*
X82979490Y-83959005D01*
X83183308Y-83920654D01*
X83370502Y-83800198D01*
X83496084Y-83616403D01*
X83540265Y-83398230D01*
X83540265Y-83248740D01*
X83889225Y-83248740D01*
X83889225Y-83270000D01*
X83927576Y-83473818D01*
X84048032Y-83661012D01*
X84050000Y-83662357D01*
X84050000Y-84064887D01*
X84010372Y-84104446D01*
X83850182Y-84490226D01*
X83849818Y-84907942D01*
X84009334Y-85294000D01*
X84304446Y-85589628D01*
X84690226Y-85749818D01*
X85107942Y-85750182D01*
X85494000Y-85590666D01*
X85789628Y-85295554D01*
X85949818Y-84909774D01*
X85950182Y-84492058D01*
X85790666Y-84106000D01*
X85750000Y-84065263D01*
X85750000Y-83658814D01*
X85866594Y-83488173D01*
X85910775Y-83270000D01*
X85910775Y-81570000D01*
X85872424Y-81366182D01*
X85783666Y-81228249D01*
X85993391Y-81186532D01*
X86236708Y-81023952D01*
X87667619Y-79593041D01*
X87709334Y-79694000D01*
X88004446Y-79989628D01*
X88390226Y-80149818D01*
X88807942Y-80150182D01*
X89194000Y-79990666D01*
X89334912Y-79850000D01*
X91267196Y-79850000D01*
X91409334Y-80194000D01*
X91704446Y-80489628D01*
X92090226Y-80649818D01*
X92507942Y-80650182D01*
X92894000Y-80490666D01*
X93189628Y-80195554D01*
X93349818Y-79809774D01*
X93350182Y-79392058D01*
X93190666Y-79006000D01*
X93045694Y-78860775D01*
X93500000Y-78860775D01*
X93549037Y-78851548D01*
X93539225Y-78900000D01*
X93539225Y-80100000D01*
X93577576Y-80303818D01*
X93600000Y-80338666D01*
X93600000Y-81947062D01*
X93514702Y-82074719D01*
X93450000Y-82400000D01*
X93450000Y-88447919D01*
X92749959Y-89147960D01*
X92750182Y-88892058D01*
X92590666Y-88506000D01*
X92295554Y-88210372D01*
X91909774Y-88050182D01*
X91492058Y-88049818D01*
X91106000Y-88209334D01*
X91065263Y-88250000D01*
X90360775Y-88250000D01*
X90322424Y-88046182D01*
X90201968Y-87858988D01*
X90018173Y-87733406D01*
X89800000Y-87689225D01*
X89300240Y-87689225D01*
X89300240Y-87602166D01*
X89310735Y-87550340D01*
X89310735Y-86549580D01*
X89272384Y-86345762D01*
X89151928Y-86158568D01*
X88968133Y-86032986D01*
X88749960Y-85988805D01*
X88534176Y-85988805D01*
X88616314Y-85868593D01*
X88660495Y-85650420D01*
X88660495Y-84649660D01*
X88650000Y-84593884D01*
X88650000Y-83658814D01*
X88766594Y-83488173D01*
X88810775Y-83270000D01*
X88810775Y-81570000D01*
X88772424Y-81366182D01*
X88651968Y-81178988D01*
X88468173Y-81053406D01*
X88250000Y-81009225D01*
X87350000Y-81009225D01*
X87146182Y-81047576D01*
X86958988Y-81168032D01*
X86833406Y-81351827D01*
X86789225Y-81570000D01*
X86789225Y-83270000D01*
X86827576Y-83473818D01*
X86948032Y-83661012D01*
X86950000Y-83662357D01*
X86950000Y-84597834D01*
X86939505Y-84649660D01*
X86939505Y-85650420D01*
X86977856Y-85854238D01*
X87064447Y-85988805D01*
X86850040Y-85988805D01*
X86646222Y-86027156D01*
X86459028Y-86147612D01*
X86333446Y-86331407D01*
X86289265Y-86549580D01*
X86289265Y-87550340D01*
X86299760Y-87606116D01*
X86299760Y-87689225D01*
X86000000Y-87689225D01*
X85796182Y-87727576D01*
X85608988Y-87848032D01*
X85483406Y-88031827D01*
X85439225Y-88250000D01*
X85439225Y-89950000D01*
X85477576Y-90153818D01*
X85598032Y-90341012D01*
X85600000Y-90342357D01*
X85600000Y-90550000D01*
X85664702Y-90875281D01*
X85848959Y-91151041D01*
X86798959Y-92101041D01*
X87074719Y-92285298D01*
X87400000Y-92350000D01*
X91600000Y-92350000D01*
X91925281Y-92285298D01*
X92201041Y-92101041D01*
X94901038Y-89401043D01*
X94901041Y-89401041D01*
X95085298Y-89125281D01*
X95090327Y-89100000D01*
X95150001Y-88800000D01*
X95150000Y-88799995D01*
X95150000Y-82601370D01*
X95200001Y-82350000D01*
X95135298Y-82024719D01*
X95100000Y-81971892D01*
X95100000Y-80660775D01*
X95400000Y-80660775D01*
X95555507Y-80631514D01*
X95700000Y-80660775D01*
X96200000Y-80660775D01*
X96355507Y-80631514D01*
X96401550Y-80640839D01*
X96350000Y-80900002D01*
X96350000Y-81021892D01*
X96314702Y-81074719D01*
X96250000Y-81400000D01*
X96250000Y-82428004D01*
X96314702Y-82753285D01*
X96498959Y-83029045D01*
X99573789Y-86103875D01*
X99849549Y-86288132D01*
X100174830Y-86352834D01*
X101397166Y-86352834D01*
X101408138Y-86350651D01*
X101350182Y-86490226D01*
X101349818Y-86907942D01*
X101509334Y-87294000D01*
X101804446Y-87589628D01*
X102190226Y-87749818D01*
X102607942Y-87750182D01*
X102994000Y-87590666D01*
X103034737Y-87550000D01*
X104289237Y-87550000D01*
X104348072Y-87641432D01*
X104531867Y-87767014D01*
X104750040Y-87811195D01*
X104965824Y-87811195D01*
X104883686Y-87931407D01*
X104839505Y-88149580D01*
X104839505Y-89150340D01*
X104850000Y-89206116D01*
X104850000Y-90064887D01*
X104810372Y-90104446D01*
X104650182Y-90490226D01*
X104649818Y-90907942D01*
X104791154Y-91250000D01*
X104000000Y-91250000D01*
X103945481Y-91260258D01*
X103895409Y-91292479D01*
X103861818Y-91341642D01*
X103850000Y-91400000D01*
X103850000Y-94375000D01*
X77625000Y-94375000D01*
X77625000Y-92669760D01*
X80322510Y-92669760D01*
X80322510Y-93531634D01*
X80422684Y-93773477D01*
X80607783Y-93958575D01*
X80849625Y-94058750D01*
X81711500Y-94058750D01*
X81876000Y-93894250D01*
X81876000Y-92505260D01*
X82084000Y-92505260D01*
X82084000Y-93894250D01*
X82248500Y-94058750D01*
X83110375Y-94058750D01*
X83352217Y-93958575D01*
X83537316Y-93773477D01*
X83637490Y-93531634D01*
X83637490Y-92669760D01*
X83472990Y-92505260D01*
X82084000Y-92505260D01*
X81876000Y-92505260D01*
X80487010Y-92505260D01*
X80322510Y-92669760D01*
X77625000Y-92669760D01*
X77625000Y-91270886D01*
X80322510Y-91270886D01*
X80322510Y-92132760D01*
X80487010Y-92297260D01*
X81876000Y-92297260D01*
X81876000Y-90908270D01*
X82084000Y-90908270D01*
X82084000Y-92297260D01*
X83472990Y-92297260D01*
X83637490Y-92132760D01*
X83637490Y-91270886D01*
X83537316Y-91029043D01*
X83352217Y-90843945D01*
X83110375Y-90743770D01*
X82248500Y-90743770D01*
X82084000Y-90908270D01*
X81876000Y-90908270D01*
X81711500Y-90743770D01*
X80849625Y-90743770D01*
X80607783Y-90843945D01*
X80422684Y-91029043D01*
X80322510Y-91270886D01*
X77625000Y-91270886D01*
X77625000Y-57625000D01*
X106073189Y-57625000D01*
X106061818Y-57641642D01*
G36*
X106827576Y-77803818D02*
X106948032Y-77991012D01*
X107131827Y-78116594D01*
X107350000Y-78160775D01*
X108408693Y-78160775D01*
X109248959Y-79001041D01*
X109524719Y-79185298D01*
X109730476Y-79226225D01*
X109692000Y-79319116D01*
X109692000Y-79631500D01*
X109856500Y-79796000D01*
X111096000Y-79796000D01*
X111096000Y-79776000D01*
X111304000Y-79776000D01*
X111304000Y-79796000D01*
X111324000Y-79796000D01*
X111324000Y-80004000D01*
X111304000Y-80004000D01*
X111304000Y-80024000D01*
X111096000Y-80024000D01*
X111096000Y-80004000D01*
X109856500Y-80004000D01*
X109692000Y-80168500D01*
X109692000Y-80480884D01*
X109792174Y-80722727D01*
X109965595Y-80896147D01*
X109773832Y-80962379D01*
X109535061Y-81577239D01*
X109549762Y-82236668D01*
X109773832Y-82777621D01*
X110049937Y-82872984D01*
X111052922Y-81870000D01*
X111038779Y-81855858D01*
X111185858Y-81708779D01*
X111200000Y-81722922D01*
X111214142Y-81708779D01*
X111361221Y-81855858D01*
X111347078Y-81870000D01*
X112350063Y-82872984D01*
X112626168Y-82777621D01*
X112864939Y-82162761D01*
X112850238Y-81503332D01*
X112626168Y-80962379D01*
X112434405Y-80896147D01*
X112607826Y-80722727D01*
X112708000Y-80480884D01*
X112708000Y-80168500D01*
X112543502Y-80004002D01*
X112708000Y-80004002D01*
X112708000Y-79910082D01*
X113250000Y-80452082D01*
X113250000Y-82400000D01*
X113314702Y-82725281D01*
X113498959Y-83001041D01*
X115798959Y-85301041D01*
X116074719Y-85485298D01*
X116400000Y-85550000D01*
X117098633Y-85550000D01*
X117127576Y-85703818D01*
X117248032Y-85891012D01*
X117431827Y-86016594D01*
X117500000Y-86030399D01*
X117500000Y-91767449D01*
X117446182Y-91777576D01*
X117258988Y-91898032D01*
X117133406Y-92081827D01*
X117089225Y-92300000D01*
X117089225Y-93900000D01*
X117127576Y-94103818D01*
X117248032Y-94291012D01*
X117370952Y-94375000D01*
X109650000Y-94375000D01*
X109650000Y-93109526D01*
X109721817Y-93109526D01*
X109882549Y-93498526D01*
X110179909Y-93796405D01*
X110568628Y-93957816D01*
X110989526Y-93958183D01*
X111378526Y-93797451D01*
X111676405Y-93500091D01*
X111837816Y-93111372D01*
X111837817Y-93109526D01*
X112261817Y-93109526D01*
X112422549Y-93498526D01*
X112719909Y-93796405D01*
X113108628Y-93957816D01*
X113529526Y-93958183D01*
X113918526Y-93797451D01*
X114216405Y-93500091D01*
X114377816Y-93111372D01*
X114378183Y-92690474D01*
X114217451Y-92301474D01*
X113920091Y-92003595D01*
X113531372Y-91842184D01*
X113110474Y-91841817D01*
X112721474Y-92002549D01*
X112423595Y-92299909D01*
X112262184Y-92688628D01*
X112261817Y-93109526D01*
X111837817Y-93109526D01*
X111838183Y-92690474D01*
X111677451Y-92301474D01*
X111380091Y-92003595D01*
X110991372Y-91842184D01*
X110570474Y-91841817D01*
X110181474Y-92002549D01*
X109883595Y-92299909D01*
X109722184Y-92688628D01*
X109721817Y-93109526D01*
X109650000Y-93109526D01*
X109650000Y-91400000D01*
X109639742Y-91345481D01*
X109607521Y-91295409D01*
X109558358Y-91261818D01*
X109500000Y-91250000D01*
X106608544Y-91250000D01*
X106749818Y-90909774D01*
X106750182Y-90492058D01*
X106590666Y-90106000D01*
X106550000Y-90065263D01*
X106550000Y-89202166D01*
X106560495Y-89150340D01*
X106560495Y-88149580D01*
X106522144Y-87945762D01*
X106435553Y-87811195D01*
X106649960Y-87811195D01*
X106853778Y-87772844D01*
X107040972Y-87652388D01*
X107166554Y-87468593D01*
X107210735Y-87250420D01*
X107210735Y-86249660D01*
X107200240Y-86193884D01*
X107200240Y-86040775D01*
X107630000Y-86040775D01*
X107833818Y-86002424D01*
X108021012Y-85881968D01*
X108146594Y-85698173D01*
X108190775Y-85480000D01*
X108190775Y-83780000D01*
X108152424Y-83576182D01*
X108031968Y-83388988D01*
X107848173Y-83263406D01*
X107630000Y-83219225D01*
X107371307Y-83219225D01*
X107172145Y-83020063D01*
X110197016Y-83020063D01*
X110292379Y-83296168D01*
X110907239Y-83534939D01*
X111566668Y-83520238D01*
X112107621Y-83296168D01*
X112202984Y-83020063D01*
X111200000Y-82017078D01*
X110197016Y-83020063D01*
X107172145Y-83020063D01*
X106451041Y-82298959D01*
X106227885Y-82149851D01*
X106607942Y-82150182D01*
X106994000Y-81990666D01*
X107289628Y-81695554D01*
X107449818Y-81309774D01*
X107450182Y-80892058D01*
X107290666Y-80506000D01*
X106995554Y-80210372D01*
X106697898Y-80086774D01*
X106989628Y-79795554D01*
X107149818Y-79409774D01*
X107150182Y-78992058D01*
X106990666Y-78606000D01*
X106695554Y-78310372D01*
X106309774Y-78150182D01*
X105892058Y-78149818D01*
X105728186Y-78217528D01*
X105151483Y-77640825D01*
X105250000Y-77660775D01*
X106550000Y-77660775D01*
X106753818Y-77622424D01*
X106788666Y-77600000D01*
X106789225Y-77600000D01*
X106827576Y-77803818D01*
X106827576Y-77803818D01*
G37*
X106827576Y-77803818D02*
X106948032Y-77991012D01*
X107131827Y-78116594D01*
X107350000Y-78160775D01*
X108408693Y-78160775D01*
X109248959Y-79001041D01*
X109524719Y-79185298D01*
X109730476Y-79226225D01*
X109692000Y-79319116D01*
X109692000Y-79631500D01*
X109856500Y-79796000D01*
X111096000Y-79796000D01*
X111096000Y-79776000D01*
X111304000Y-79776000D01*
X111304000Y-79796000D01*
X111324000Y-79796000D01*
X111324000Y-80004000D01*
X111304000Y-80004000D01*
X111304000Y-80024000D01*
X111096000Y-80024000D01*
X111096000Y-80004000D01*
X109856500Y-80004000D01*
X109692000Y-80168500D01*
X109692000Y-80480884D01*
X109792174Y-80722727D01*
X109965595Y-80896147D01*
X109773832Y-80962379D01*
X109535061Y-81577239D01*
X109549762Y-82236668D01*
X109773832Y-82777621D01*
X110049937Y-82872984D01*
X111052922Y-81870000D01*
X111038779Y-81855858D01*
X111185858Y-81708779D01*
X111200000Y-81722922D01*
X111214142Y-81708779D01*
X111361221Y-81855858D01*
X111347078Y-81870000D01*
X112350063Y-82872984D01*
X112626168Y-82777621D01*
X112864939Y-82162761D01*
X112850238Y-81503332D01*
X112626168Y-80962379D01*
X112434405Y-80896147D01*
X112607826Y-80722727D01*
X112708000Y-80480884D01*
X112708000Y-80168500D01*
X112543502Y-80004002D01*
X112708000Y-80004002D01*
X112708000Y-79910082D01*
X113250000Y-80452082D01*
X113250000Y-82400000D01*
X113314702Y-82725281D01*
X113498959Y-83001041D01*
X115798959Y-85301041D01*
X116074719Y-85485298D01*
X116400000Y-85550000D01*
X117098633Y-85550000D01*
X117127576Y-85703818D01*
X117248032Y-85891012D01*
X117431827Y-86016594D01*
X117500000Y-86030399D01*
X117500000Y-91767449D01*
X117446182Y-91777576D01*
X117258988Y-91898032D01*
X117133406Y-92081827D01*
X117089225Y-92300000D01*
X117089225Y-93900000D01*
X117127576Y-94103818D01*
X117248032Y-94291012D01*
X117370952Y-94375000D01*
X109650000Y-94375000D01*
X109650000Y-93109526D01*
X109721817Y-93109526D01*
X109882549Y-93498526D01*
X110179909Y-93796405D01*
X110568628Y-93957816D01*
X110989526Y-93958183D01*
X111378526Y-93797451D01*
X111676405Y-93500091D01*
X111837816Y-93111372D01*
X111837817Y-93109526D01*
X112261817Y-93109526D01*
X112422549Y-93498526D01*
X112719909Y-93796405D01*
X113108628Y-93957816D01*
X113529526Y-93958183D01*
X113918526Y-93797451D01*
X114216405Y-93500091D01*
X114377816Y-93111372D01*
X114378183Y-92690474D01*
X114217451Y-92301474D01*
X113920091Y-92003595D01*
X113531372Y-91842184D01*
X113110474Y-91841817D01*
X112721474Y-92002549D01*
X112423595Y-92299909D01*
X112262184Y-92688628D01*
X112261817Y-93109526D01*
X111837817Y-93109526D01*
X111838183Y-92690474D01*
X111677451Y-92301474D01*
X111380091Y-92003595D01*
X110991372Y-91842184D01*
X110570474Y-91841817D01*
X110181474Y-92002549D01*
X109883595Y-92299909D01*
X109722184Y-92688628D01*
X109721817Y-93109526D01*
X109650000Y-93109526D01*
X109650000Y-91400000D01*
X109639742Y-91345481D01*
X109607521Y-91295409D01*
X109558358Y-91261818D01*
X109500000Y-91250000D01*
X106608544Y-91250000D01*
X106749818Y-90909774D01*
X106750182Y-90492058D01*
X106590666Y-90106000D01*
X106550000Y-90065263D01*
X106550000Y-89202166D01*
X106560495Y-89150340D01*
X106560495Y-88149580D01*
X106522144Y-87945762D01*
X106435553Y-87811195D01*
X106649960Y-87811195D01*
X106853778Y-87772844D01*
X107040972Y-87652388D01*
X107166554Y-87468593D01*
X107210735Y-87250420D01*
X107210735Y-86249660D01*
X107200240Y-86193884D01*
X107200240Y-86040775D01*
X107630000Y-86040775D01*
X107833818Y-86002424D01*
X108021012Y-85881968D01*
X108146594Y-85698173D01*
X108190775Y-85480000D01*
X108190775Y-83780000D01*
X108152424Y-83576182D01*
X108031968Y-83388988D01*
X107848173Y-83263406D01*
X107630000Y-83219225D01*
X107371307Y-83219225D01*
X107172145Y-83020063D01*
X110197016Y-83020063D01*
X110292379Y-83296168D01*
X110907239Y-83534939D01*
X111566668Y-83520238D01*
X112107621Y-83296168D01*
X112202984Y-83020063D01*
X111200000Y-82017078D01*
X110197016Y-83020063D01*
X107172145Y-83020063D01*
X106451041Y-82298959D01*
X106227885Y-82149851D01*
X106607942Y-82150182D01*
X106994000Y-81990666D01*
X107289628Y-81695554D01*
X107449818Y-81309774D01*
X107450182Y-80892058D01*
X107290666Y-80506000D01*
X106995554Y-80210372D01*
X106697898Y-80086774D01*
X106989628Y-79795554D01*
X107149818Y-79409774D01*
X107150182Y-78992058D01*
X106990666Y-78606000D01*
X106695554Y-78310372D01*
X106309774Y-78150182D01*
X105892058Y-78149818D01*
X105728186Y-78217528D01*
X105151483Y-77640825D01*
X105250000Y-77660775D01*
X106550000Y-77660775D01*
X106753818Y-77622424D01*
X106788666Y-77600000D01*
X106789225Y-77600000D01*
X106827576Y-77803818D01*
G36*
X94339225Y-71600000D02*
X94377576Y-71803818D01*
X94454000Y-71922584D01*
X94454000Y-72093500D01*
X94618500Y-72258000D01*
X94730885Y-72258000D01*
X94965605Y-72160775D01*
X95400000Y-72160775D01*
X95555507Y-72131514D01*
X95700000Y-72160775D01*
X96200000Y-72160775D01*
X96355507Y-72131514D01*
X96500000Y-72160775D01*
X97000000Y-72160775D01*
X97155507Y-72131514D01*
X97300000Y-72160775D01*
X97800000Y-72160775D01*
X97955507Y-72131514D01*
X98100000Y-72160775D01*
X98600000Y-72160775D01*
X98755507Y-72131514D01*
X98900000Y-72160775D01*
X99400000Y-72160775D01*
X99555507Y-72131514D01*
X99700000Y-72160775D01*
X100200000Y-72160775D01*
X100249037Y-72151548D01*
X100239225Y-72200000D01*
X100239225Y-72700000D01*
X100268486Y-72855507D01*
X100239225Y-73000000D01*
X100239225Y-73500000D01*
X100268486Y-73655507D01*
X100239225Y-73800000D01*
X100239225Y-74300000D01*
X100268486Y-74455507D01*
X100239225Y-74600000D01*
X100239225Y-75100000D01*
X100268486Y-75255507D01*
X100239225Y-75400000D01*
X100239225Y-75900000D01*
X100268486Y-76055507D01*
X100239225Y-76200000D01*
X100239225Y-76700000D01*
X100268486Y-76855507D01*
X100239225Y-77000000D01*
X100239225Y-77500000D01*
X100268486Y-77655507D01*
X100239225Y-77800000D01*
X100239225Y-78242000D01*
X100218500Y-78242000D01*
X100054000Y-78406500D01*
X100054000Y-79396000D01*
X100074000Y-79396000D01*
X100074000Y-79604000D01*
X100054000Y-79604000D01*
X100054000Y-80593500D01*
X100218500Y-80758000D01*
X100330885Y-80758000D01*
X100572727Y-80657825D01*
X100757826Y-80472727D01*
X100788544Y-80398566D01*
X100848032Y-80491012D01*
X101031827Y-80616594D01*
X101157286Y-80642000D01*
X101119115Y-80642000D01*
X100877273Y-80742175D01*
X100692174Y-80927273D01*
X100592000Y-81169116D01*
X100592000Y-81381500D01*
X100756500Y-81546000D01*
X101796000Y-81546000D01*
X101796000Y-81526000D01*
X102004000Y-81526000D01*
X102004000Y-81546000D01*
X103043500Y-81546000D01*
X103208000Y-81381500D01*
X103208000Y-81169116D01*
X103107826Y-80927273D01*
X102922727Y-80742175D01*
X102680885Y-80642000D01*
X102649781Y-80642000D01*
X102753818Y-80622424D01*
X102941012Y-80501968D01*
X103066594Y-80318173D01*
X103078946Y-80257176D01*
X103610292Y-79725830D01*
X103758106Y-79578274D01*
X103775566Y-79536226D01*
X105349990Y-81110650D01*
X105349818Y-81307942D01*
X105509334Y-81694000D01*
X105804446Y-81989628D01*
X106041639Y-82088119D01*
X105850000Y-82050000D01*
X103208000Y-82050000D01*
X103208000Y-81918500D01*
X103043500Y-81754000D01*
X102004000Y-81754000D01*
X102004000Y-82493500D01*
X102129209Y-82618709D01*
X101798959Y-82948959D01*
X101614702Y-83224719D01*
X101550000Y-83550000D01*
X101550000Y-83765258D01*
X101298386Y-83513204D01*
X100912606Y-83353014D01*
X100855046Y-83352964D01*
X100803874Y-83301792D01*
X100803871Y-83301790D01*
X99420582Y-81918500D01*
X100592000Y-81918500D01*
X100592000Y-82130884D01*
X100692174Y-82372727D01*
X100877273Y-82557825D01*
X101119115Y-82658000D01*
X101631500Y-82658000D01*
X101796000Y-82493500D01*
X101796000Y-81754000D01*
X100756500Y-81754000D01*
X100592000Y-81918500D01*
X99420582Y-81918500D01*
X99200000Y-81697918D01*
X99200000Y-80660775D01*
X99334395Y-80660775D01*
X99569115Y-80758000D01*
X99681500Y-80758000D01*
X99846000Y-80593500D01*
X99846000Y-80421491D01*
X99916594Y-80318173D01*
X99960775Y-80100000D01*
X99960775Y-78900000D01*
X99922424Y-78696182D01*
X99846000Y-78577416D01*
X99846000Y-78406500D01*
X99681500Y-78242000D01*
X99569115Y-78242000D01*
X99334395Y-78339225D01*
X98900000Y-78339225D01*
X98744493Y-78368486D01*
X98600000Y-78339225D01*
X98100000Y-78339225D01*
X97944493Y-78368486D01*
X97800000Y-78339225D01*
X97300000Y-78339225D01*
X97144493Y-78368486D01*
X97000000Y-78339225D01*
X96500000Y-78339225D01*
X96344493Y-78368486D01*
X96200000Y-78339225D01*
X95700000Y-78339225D01*
X95544493Y-78368486D01*
X95400000Y-78339225D01*
X94900000Y-78339225D01*
X94744493Y-78368486D01*
X94600000Y-78339225D01*
X94100000Y-78339225D01*
X94050963Y-78348452D01*
X94060775Y-78300000D01*
X94060775Y-77800000D01*
X94031514Y-77644493D01*
X94060775Y-77500000D01*
X94060775Y-77000000D01*
X94031514Y-76844493D01*
X94060775Y-76700000D01*
X94060775Y-76200000D01*
X94031514Y-76044493D01*
X94060775Y-75900000D01*
X94060775Y-75400000D01*
X94031514Y-75244493D01*
X94060775Y-75100000D01*
X94060775Y-74600000D01*
X94031514Y-74444493D01*
X94060775Y-74300000D01*
X94060775Y-73800000D01*
X94031514Y-73644493D01*
X94060775Y-73500000D01*
X94060775Y-73000000D01*
X94031514Y-72844493D01*
X94060775Y-72700000D01*
X94060775Y-72258000D01*
X94081500Y-72258000D01*
X94246000Y-72093500D01*
X94246000Y-71104000D01*
X94226000Y-71104000D01*
X94226000Y-70896000D01*
X94246000Y-70896000D01*
X94246000Y-70876000D01*
X94339225Y-70876000D01*
X94339225Y-71600000D01*
X94339225Y-71600000D01*
G37*
X94339225Y-71600000D02*
X94377576Y-71803818D01*
X94454000Y-71922584D01*
X94454000Y-72093500D01*
X94618500Y-72258000D01*
X94730885Y-72258000D01*
X94965605Y-72160775D01*
X95400000Y-72160775D01*
X95555507Y-72131514D01*
X95700000Y-72160775D01*
X96200000Y-72160775D01*
X96355507Y-72131514D01*
X96500000Y-72160775D01*
X97000000Y-72160775D01*
X97155507Y-72131514D01*
X97300000Y-72160775D01*
X97800000Y-72160775D01*
X97955507Y-72131514D01*
X98100000Y-72160775D01*
X98600000Y-72160775D01*
X98755507Y-72131514D01*
X98900000Y-72160775D01*
X99400000Y-72160775D01*
X99555507Y-72131514D01*
X99700000Y-72160775D01*
X100200000Y-72160775D01*
X100249037Y-72151548D01*
X100239225Y-72200000D01*
X100239225Y-72700000D01*
X100268486Y-72855507D01*
X100239225Y-73000000D01*
X100239225Y-73500000D01*
X100268486Y-73655507D01*
X100239225Y-73800000D01*
X100239225Y-74300000D01*
X100268486Y-74455507D01*
X100239225Y-74600000D01*
X100239225Y-75100000D01*
X100268486Y-75255507D01*
X100239225Y-75400000D01*
X100239225Y-75900000D01*
X100268486Y-76055507D01*
X100239225Y-76200000D01*
X100239225Y-76700000D01*
X100268486Y-76855507D01*
X100239225Y-77000000D01*
X100239225Y-77500000D01*
X100268486Y-77655507D01*
X100239225Y-77800000D01*
X100239225Y-78242000D01*
X100218500Y-78242000D01*
X100054000Y-78406500D01*
X100054000Y-79396000D01*
X100074000Y-79396000D01*
X100074000Y-79604000D01*
X100054000Y-79604000D01*
X100054000Y-80593500D01*
X100218500Y-80758000D01*
X100330885Y-80758000D01*
X100572727Y-80657825D01*
X100757826Y-80472727D01*
X100788544Y-80398566D01*
X100848032Y-80491012D01*
X101031827Y-80616594D01*
X101157286Y-80642000D01*
X101119115Y-80642000D01*
X100877273Y-80742175D01*
X100692174Y-80927273D01*
X100592000Y-81169116D01*
X100592000Y-81381500D01*
X100756500Y-81546000D01*
X101796000Y-81546000D01*
X101796000Y-81526000D01*
X102004000Y-81526000D01*
X102004000Y-81546000D01*
X103043500Y-81546000D01*
X103208000Y-81381500D01*
X103208000Y-81169116D01*
X103107826Y-80927273D01*
X102922727Y-80742175D01*
X102680885Y-80642000D01*
X102649781Y-80642000D01*
X102753818Y-80622424D01*
X102941012Y-80501968D01*
X103066594Y-80318173D01*
X103078946Y-80257176D01*
X103610292Y-79725830D01*
X103758106Y-79578274D01*
X103775566Y-79536226D01*
X105349990Y-81110650D01*
X105349818Y-81307942D01*
X105509334Y-81694000D01*
X105804446Y-81989628D01*
X106041639Y-82088119D01*
X105850000Y-82050000D01*
X103208000Y-82050000D01*
X103208000Y-81918500D01*
X103043500Y-81754000D01*
X102004000Y-81754000D01*
X102004000Y-82493500D01*
X102129209Y-82618709D01*
X101798959Y-82948959D01*
X101614702Y-83224719D01*
X101550000Y-83550000D01*
X101550000Y-83765258D01*
X101298386Y-83513204D01*
X100912606Y-83353014D01*
X100855046Y-83352964D01*
X100803874Y-83301792D01*
X100803871Y-83301790D01*
X99420582Y-81918500D01*
X100592000Y-81918500D01*
X100592000Y-82130884D01*
X100692174Y-82372727D01*
X100877273Y-82557825D01*
X101119115Y-82658000D01*
X101631500Y-82658000D01*
X101796000Y-82493500D01*
X101796000Y-81754000D01*
X100756500Y-81754000D01*
X100592000Y-81918500D01*
X99420582Y-81918500D01*
X99200000Y-81697918D01*
X99200000Y-80660775D01*
X99334395Y-80660775D01*
X99569115Y-80758000D01*
X99681500Y-80758000D01*
X99846000Y-80593500D01*
X99846000Y-80421491D01*
X99916594Y-80318173D01*
X99960775Y-80100000D01*
X99960775Y-78900000D01*
X99922424Y-78696182D01*
X99846000Y-78577416D01*
X99846000Y-78406500D01*
X99681500Y-78242000D01*
X99569115Y-78242000D01*
X99334395Y-78339225D01*
X98900000Y-78339225D01*
X98744493Y-78368486D01*
X98600000Y-78339225D01*
X98100000Y-78339225D01*
X97944493Y-78368486D01*
X97800000Y-78339225D01*
X97300000Y-78339225D01*
X97144493Y-78368486D01*
X97000000Y-78339225D01*
X96500000Y-78339225D01*
X96344493Y-78368486D01*
X96200000Y-78339225D01*
X95700000Y-78339225D01*
X95544493Y-78368486D01*
X95400000Y-78339225D01*
X94900000Y-78339225D01*
X94744493Y-78368486D01*
X94600000Y-78339225D01*
X94100000Y-78339225D01*
X94050963Y-78348452D01*
X94060775Y-78300000D01*
X94060775Y-77800000D01*
X94031514Y-77644493D01*
X94060775Y-77500000D01*
X94060775Y-77000000D01*
X94031514Y-76844493D01*
X94060775Y-76700000D01*
X94060775Y-76200000D01*
X94031514Y-76044493D01*
X94060775Y-75900000D01*
X94060775Y-75400000D01*
X94031514Y-75244493D01*
X94060775Y-75100000D01*
X94060775Y-74600000D01*
X94031514Y-74444493D01*
X94060775Y-74300000D01*
X94060775Y-73800000D01*
X94031514Y-73644493D01*
X94060775Y-73500000D01*
X94060775Y-73000000D01*
X94031514Y-72844493D01*
X94060775Y-72700000D01*
X94060775Y-72258000D01*
X94081500Y-72258000D01*
X94246000Y-72093500D01*
X94246000Y-71104000D01*
X94226000Y-71104000D01*
X94226000Y-70896000D01*
X94246000Y-70896000D01*
X94246000Y-70876000D01*
X94339225Y-70876000D01*
X94339225Y-71600000D01*
G36*
X118854000Y-76996000D02*
X118874000Y-76996000D01*
X118874000Y-77204000D01*
X118854000Y-77204000D01*
X118854000Y-77224000D01*
X118646000Y-77224000D01*
X118646000Y-77204000D01*
X118626000Y-77204000D01*
X118626000Y-76996000D01*
X118646000Y-76996000D01*
X118646000Y-76976000D01*
X118854000Y-76976000D01*
X118854000Y-76996000D01*
X118854000Y-76996000D01*
G37*
X118854000Y-76996000D02*
X118874000Y-76996000D01*
X118874000Y-77204000D01*
X118854000Y-77204000D01*
X118854000Y-77224000D01*
X118646000Y-77224000D01*
X118646000Y-77204000D01*
X118626000Y-77204000D01*
X118626000Y-76996000D01*
X118646000Y-76996000D01*
X118646000Y-76976000D01*
X118854000Y-76976000D01*
X118854000Y-76996000D01*
G36*
X111349999Y-72624076D02*
X111349999Y-73150131D01*
X110893039Y-73149732D01*
X110323143Y-73385208D01*
X109886740Y-73820849D01*
X109650270Y-74390333D01*
X109649732Y-75006961D01*
X109885208Y-75576857D01*
X110305260Y-75997643D01*
X110146182Y-76027576D01*
X109958988Y-76148032D01*
X109833406Y-76331827D01*
X109789225Y-76550000D01*
X109789225Y-77137143D01*
X109610775Y-76958693D01*
X109610775Y-76700000D01*
X109572424Y-76496182D01*
X109451968Y-76308988D01*
X109268173Y-76183406D01*
X109050000Y-76139225D01*
X108386473Y-76139225D01*
X108125281Y-75964702D01*
X107800000Y-75900000D01*
X106792459Y-75900000D01*
X106768173Y-75883406D01*
X106642714Y-75858000D01*
X106680885Y-75858000D01*
X106922727Y-75757825D01*
X107107826Y-75572727D01*
X107208000Y-75330884D01*
X107208000Y-75232019D01*
X107350000Y-75260775D01*
X109050000Y-75260775D01*
X109253818Y-75222424D01*
X109441012Y-75101968D01*
X109566594Y-74918173D01*
X109610775Y-74700000D01*
X109610775Y-73800000D01*
X109572424Y-73596182D01*
X109451968Y-73408988D01*
X109406659Y-73378029D01*
X109689628Y-73095554D01*
X109849818Y-72709774D01*
X109850182Y-72292058D01*
X109690666Y-71906000D01*
X109395554Y-71610372D01*
X109009774Y-71450182D01*
X108592058Y-71449818D01*
X108349599Y-71550000D01*
X107730552Y-71550000D01*
X107857826Y-71422727D01*
X107958000Y-71180884D01*
X107958000Y-70968500D01*
X107793500Y-70804000D01*
X106754000Y-70804000D01*
X106754000Y-70824000D01*
X106546000Y-70824000D01*
X106546000Y-70804000D01*
X104654000Y-70804000D01*
X104654000Y-70824000D01*
X104446000Y-70824000D01*
X104446000Y-70804000D01*
X104426000Y-70804000D01*
X104426000Y-70596000D01*
X104446000Y-70596000D01*
X104446000Y-70576000D01*
X104654000Y-70576000D01*
X104654000Y-70596000D01*
X106546000Y-70596000D01*
X106546000Y-69856500D01*
X106754000Y-69856500D01*
X106754000Y-70596000D01*
X107793500Y-70596000D01*
X107958000Y-70431500D01*
X107958000Y-70219116D01*
X107857826Y-69977273D01*
X107672727Y-69792175D01*
X107430885Y-69692000D01*
X106918500Y-69692000D01*
X106754000Y-69856500D01*
X106546000Y-69856500D01*
X106381500Y-69692000D01*
X105869115Y-69692000D01*
X105627273Y-69792175D01*
X105600000Y-69819448D01*
X105572727Y-69792175D01*
X105330885Y-69692000D01*
X104910082Y-69692000D01*
X104952082Y-69650000D01*
X108375922Y-69650000D01*
X111349999Y-72624076D01*
X111349999Y-72624076D01*
G37*
X111349999Y-72624076D02*
X111349999Y-73150131D01*
X110893039Y-73149732D01*
X110323143Y-73385208D01*
X109886740Y-73820849D01*
X109650270Y-74390333D01*
X109649732Y-75006961D01*
X109885208Y-75576857D01*
X110305260Y-75997643D01*
X110146182Y-76027576D01*
X109958988Y-76148032D01*
X109833406Y-76331827D01*
X109789225Y-76550000D01*
X109789225Y-77137143D01*
X109610775Y-76958693D01*
X109610775Y-76700000D01*
X109572424Y-76496182D01*
X109451968Y-76308988D01*
X109268173Y-76183406D01*
X109050000Y-76139225D01*
X108386473Y-76139225D01*
X108125281Y-75964702D01*
X107800000Y-75900000D01*
X106792459Y-75900000D01*
X106768173Y-75883406D01*
X106642714Y-75858000D01*
X106680885Y-75858000D01*
X106922727Y-75757825D01*
X107107826Y-75572727D01*
X107208000Y-75330884D01*
X107208000Y-75232019D01*
X107350000Y-75260775D01*
X109050000Y-75260775D01*
X109253818Y-75222424D01*
X109441012Y-75101968D01*
X109566594Y-74918173D01*
X109610775Y-74700000D01*
X109610775Y-73800000D01*
X109572424Y-73596182D01*
X109451968Y-73408988D01*
X109406659Y-73378029D01*
X109689628Y-73095554D01*
X109849818Y-72709774D01*
X109850182Y-72292058D01*
X109690666Y-71906000D01*
X109395554Y-71610372D01*
X109009774Y-71450182D01*
X108592058Y-71449818D01*
X108349599Y-71550000D01*
X107730552Y-71550000D01*
X107857826Y-71422727D01*
X107958000Y-71180884D01*
X107958000Y-70968500D01*
X107793500Y-70804000D01*
X106754000Y-70804000D01*
X106754000Y-70824000D01*
X106546000Y-70824000D01*
X106546000Y-70804000D01*
X104654000Y-70804000D01*
X104654000Y-70824000D01*
X104446000Y-70824000D01*
X104446000Y-70804000D01*
X104426000Y-70804000D01*
X104426000Y-70596000D01*
X104446000Y-70596000D01*
X104446000Y-70576000D01*
X104654000Y-70576000D01*
X104654000Y-70596000D01*
X106546000Y-70596000D01*
X106546000Y-69856500D01*
X106754000Y-69856500D01*
X106754000Y-70596000D01*
X107793500Y-70596000D01*
X107958000Y-70431500D01*
X107958000Y-70219116D01*
X107857826Y-69977273D01*
X107672727Y-69792175D01*
X107430885Y-69692000D01*
X106918500Y-69692000D01*
X106754000Y-69856500D01*
X106546000Y-69856500D01*
X106381500Y-69692000D01*
X105869115Y-69692000D01*
X105627273Y-69792175D01*
X105600000Y-69819448D01*
X105572727Y-69792175D01*
X105330885Y-69692000D01*
X104910082Y-69692000D01*
X104952082Y-69650000D01*
X108375922Y-69650000D01*
X111349999Y-72624076D01*
G36*
X106833406Y-73581827D02*
X106789225Y-73800000D01*
X106789225Y-73886876D01*
X106680885Y-73842000D01*
X106168500Y-73842000D01*
X106004000Y-74006500D01*
X106004000Y-74746000D01*
X106024000Y-74746000D01*
X106024000Y-74954000D01*
X106004000Y-74954000D01*
X106004000Y-74974000D01*
X105796000Y-74974000D01*
X105796000Y-74954000D01*
X105776000Y-74954000D01*
X105776000Y-74746000D01*
X105796000Y-74746000D01*
X105796000Y-74006500D01*
X105631500Y-73842000D01*
X105300000Y-73842000D01*
X105300000Y-73550000D01*
X106650000Y-73550000D01*
X106847198Y-73510775D01*
X106881954Y-73510775D01*
X106833406Y-73581827D01*
X106833406Y-73581827D01*
G37*
X106833406Y-73581827D02*
X106789225Y-73800000D01*
X106789225Y-73886876D01*
X106680885Y-73842000D01*
X106168500Y-73842000D01*
X106004000Y-74006500D01*
X106004000Y-74746000D01*
X106024000Y-74746000D01*
X106024000Y-74954000D01*
X106004000Y-74954000D01*
X106004000Y-74974000D01*
X105796000Y-74974000D01*
X105796000Y-74954000D01*
X105776000Y-74954000D01*
X105776000Y-74746000D01*
X105796000Y-74746000D01*
X105796000Y-74006500D01*
X105631500Y-73842000D01*
X105300000Y-73842000D01*
X105300000Y-73550000D01*
X106650000Y-73550000D01*
X106847198Y-73510775D01*
X106881954Y-73510775D01*
X106833406Y-73581827D01*
M02*
