G04 #@! TF.FileFunction,Copper,L1,Top,Signal*
%FSLAX46Y46*%
G04 Gerber Fmt 4.6, Leading zero omitted, Abs format (unit mm)*
G04 Created by KiCad (PCBNEW 4.0.4+dfsg1-stable) date Wed Mar  8 20:37:53 2017*
%MOMM*%
%LPD*%
G01*
G04 APERTURE LIST*
%ADD10C,0.100000*%
%ADD11R,1.400000X1.600000*%
%ADD12C,0.600000*%
%ADD13R,0.900000X0.500000*%
%ADD14R,1.000000X0.600000*%
%ADD15C,4.400000*%
%ADD16R,0.500000X1.200000*%
%ADD17R,1.200000X0.500000*%
%ADD18R,0.700000X1.300000*%
%ADD19R,0.500000X0.900000*%
%ADD20R,1.300000X0.700000*%
%ADD21C,2.000000*%
%ADD22R,1.500000X0.600000*%
%ADD23R,0.400000X1.000000*%
%ADD24R,3.200000X1.200000*%
%ADD25R,1.000000X0.350000*%
%ADD26R,2.000000X0.400000*%
%ADD27R,1.500000X3.000000*%
%ADD28R,3.000000X1.400000*%
%ADD29R,2.000000X2.000000*%
%ADD30C,1.300000*%
%ADD31C,1.000000*%
%ADD32C,0.700000*%
%ADD33C,0.500000*%
%ADD34C,0.300000*%
%ADD35C,0.400000*%
%ADD36C,0.200000*%
G04 APERTURE END LIST*
D10*
X118200000Y-118200000D02*
X167200000Y-118200000D01*
X118200000Y-69200000D02*
X118200000Y-118200000D01*
X167200000Y-69200000D02*
X118200000Y-69200000D01*
X167200000Y-118200000D02*
X167200000Y-69200000D01*
D11*
X160210000Y-115200000D03*
X164710000Y-115200000D03*
X160210000Y-106800000D03*
X164710000Y-106800000D03*
D12*
X163750000Y-73000000D03*
X165750000Y-73000000D03*
X157750000Y-73000000D03*
X161750000Y-73000000D03*
X159750000Y-73000000D03*
X163750000Y-70500000D03*
X165750000Y-70500000D03*
X157750000Y-70500000D03*
X161750000Y-70500000D03*
X159750000Y-70500000D03*
X165750000Y-71750000D03*
X163750000Y-71750000D03*
X157750000Y-71750000D03*
X159750000Y-71750000D03*
X161750000Y-71750000D03*
X164450000Y-77700000D03*
X162450000Y-77700000D03*
X160450000Y-77700000D03*
D13*
X164080000Y-80500000D03*
X164080000Y-79000000D03*
D14*
X160930000Y-80750000D03*
X160930000Y-78850000D03*
X158230000Y-79800000D03*
D15*
X126800000Y-72900000D03*
X161700000Y-90950000D03*
D16*
X146700000Y-91050000D03*
X145900000Y-91050000D03*
X145100000Y-91050000D03*
X144300000Y-91050000D03*
X143500000Y-91050000D03*
X142700000Y-91050000D03*
X141900000Y-91050000D03*
X141100000Y-91050000D03*
D17*
X139650000Y-92500000D03*
X139650000Y-93300000D03*
X139650000Y-94100000D03*
X139650000Y-94900000D03*
X139650000Y-95700000D03*
X139650000Y-96500000D03*
X139650000Y-97300000D03*
X139650000Y-98100000D03*
D16*
X141100000Y-99550000D03*
X141900000Y-99550000D03*
X142700000Y-99550000D03*
X143500000Y-99550000D03*
X144300000Y-99550000D03*
X145100000Y-99550000D03*
X145900000Y-99550000D03*
X146700000Y-99550000D03*
D17*
X148150000Y-98100000D03*
X148150000Y-97300000D03*
X148150000Y-96500000D03*
X148150000Y-95700000D03*
X148150000Y-94900000D03*
X148150000Y-94100000D03*
X148150000Y-93300000D03*
X148150000Y-92500000D03*
D18*
X147250000Y-105400000D03*
X145350000Y-105400000D03*
D19*
X153350000Y-81600000D03*
X151850000Y-81600000D03*
D10*
G36*
X140678858Y-100359619D02*
X139759619Y-101278858D01*
X139264644Y-100783883D01*
X140183883Y-99864644D01*
X140678858Y-100359619D01*
X140678858Y-100359619D01*
G37*
G36*
X139335356Y-99016117D02*
X138416117Y-99935356D01*
X137921142Y-99440381D01*
X138840381Y-98521142D01*
X139335356Y-99016117D01*
X139335356Y-99016117D01*
G37*
G36*
X147221142Y-90140381D02*
X148140381Y-89221142D01*
X148635356Y-89716117D01*
X147716117Y-90635356D01*
X147221142Y-90140381D01*
X147221142Y-90140381D01*
G37*
G36*
X148564644Y-91483883D02*
X149483883Y-90564644D01*
X149978858Y-91059619D01*
X149059619Y-91978858D01*
X148564644Y-91483883D01*
X148564644Y-91483883D01*
G37*
G36*
X139278858Y-101759619D02*
X138359619Y-102678858D01*
X137864644Y-102183883D01*
X138783883Y-101264644D01*
X139278858Y-101759619D01*
X139278858Y-101759619D01*
G37*
G36*
X137935356Y-100416117D02*
X137016117Y-101335356D01*
X136521142Y-100840381D01*
X137440381Y-99921142D01*
X137935356Y-100416117D01*
X137935356Y-100416117D01*
G37*
D20*
X144800000Y-87850000D03*
X144800000Y-85950000D03*
X142800000Y-87850000D03*
X142800000Y-85950000D03*
D18*
X161500000Y-106850000D03*
X163400000Y-106850000D03*
X144950000Y-79300000D03*
X143050000Y-79300000D03*
X133000000Y-78650000D03*
X131100000Y-78650000D03*
D20*
X132700000Y-74450000D03*
X132700000Y-76350000D03*
D18*
X123350000Y-91100000D03*
X125250000Y-91100000D03*
D20*
X130800000Y-82450000D03*
X130800000Y-84350000D03*
D18*
X128750000Y-88100000D03*
X130650000Y-88100000D03*
X125450000Y-93200000D03*
X127350000Y-93200000D03*
X124050000Y-93200000D03*
X122150000Y-93200000D03*
X148850000Y-71200000D03*
X146950000Y-71200000D03*
X143750000Y-71200000D03*
X145650000Y-71200000D03*
D21*
X120900000Y-73970000D03*
X120900000Y-71430000D03*
D14*
X151050000Y-74550000D03*
X151050000Y-72650000D03*
X148350000Y-73600000D03*
D19*
X163200000Y-105000000D03*
X161700000Y-105000000D03*
X151850000Y-79800000D03*
X153350000Y-79800000D03*
X160950000Y-97900000D03*
X159450000Y-97900000D03*
X140450000Y-83700000D03*
X141950000Y-83700000D03*
X137450000Y-83700000D03*
X138950000Y-83700000D03*
X129550000Y-76150000D03*
X131050000Y-76150000D03*
X130650000Y-80900000D03*
X132150000Y-80900000D03*
X122850000Y-86700000D03*
X124350000Y-86700000D03*
X125650000Y-86700000D03*
X127150000Y-86700000D03*
X129050000Y-86300000D03*
X130550000Y-86300000D03*
D13*
X152700000Y-74350000D03*
X152700000Y-72850000D03*
X122500000Y-96850000D03*
X122500000Y-95350000D03*
D22*
X126750000Y-84960000D03*
X126750000Y-83690000D03*
X126750000Y-82420000D03*
X126750000Y-81150000D03*
X126750000Y-79880000D03*
X126750000Y-78610000D03*
X126750000Y-77340000D03*
X121350000Y-77340000D03*
X121350000Y-78610000D03*
X121350000Y-79880000D03*
X121350000Y-81150000D03*
X121350000Y-82420000D03*
X121350000Y-83690000D03*
X121350000Y-84960000D03*
D23*
X124050000Y-97000000D03*
X124700000Y-97000000D03*
X125350000Y-97000000D03*
X125350000Y-94800000D03*
X124050000Y-94800000D03*
D24*
X141700000Y-75640000D03*
X141700000Y-73560000D03*
D25*
X146600000Y-74250000D03*
X146600000Y-73600000D03*
X146600000Y-72950000D03*
X144400000Y-72950000D03*
X144400000Y-73600000D03*
X144400000Y-74250000D03*
D19*
X122850000Y-88400000D03*
X124350000Y-88400000D03*
X125950000Y-88400000D03*
X127450000Y-88400000D03*
D11*
X160200000Y-103250000D03*
X164700000Y-103250000D03*
X160200000Y-94850000D03*
X164700000Y-94850000D03*
D14*
X156350000Y-78050000D03*
X156350000Y-76150000D03*
X153650000Y-77100000D03*
D13*
X158300000Y-76100000D03*
X158300000Y-74600000D03*
D14*
X135850000Y-85450000D03*
X135850000Y-87350000D03*
X138550000Y-86400000D03*
D13*
X140900000Y-87350000D03*
X140900000Y-85850000D03*
D15*
X126800000Y-109900000D03*
D26*
X165600000Y-76600000D03*
X165600000Y-75600000D03*
X165600000Y-74600000D03*
X161500000Y-74600000D03*
X161500000Y-75600000D03*
X161500000Y-76600000D03*
D27*
X163550000Y-75600000D03*
D28*
X164900000Y-83050000D03*
X164900000Y-86050000D03*
X158200000Y-83050000D03*
X158200000Y-86050000D03*
D29*
X155400000Y-112240000D03*
D21*
X152860000Y-112240000D03*
X155400000Y-109700000D03*
X152860000Y-109700000D03*
X155400000Y-107160000D03*
X152860000Y-107160000D03*
X155400000Y-104620000D03*
X152860000Y-104620000D03*
X146600000Y-81100000D03*
X141520000Y-81100000D03*
X144060000Y-83640000D03*
D30*
X133060000Y-89750000D03*
X133060000Y-72450000D03*
X155060000Y-72450000D03*
X155060000Y-89750000D03*
D31*
X164700000Y-103250000D03*
X164700000Y-94850000D03*
X161600000Y-83050000D03*
X164710000Y-110600000D03*
D32*
X166300000Y-75600000D03*
D31*
X148500000Y-105400000D03*
X142700000Y-94700000D03*
X145700000Y-84800000D03*
X137200000Y-88200000D03*
X150050000Y-89650006D03*
X129300000Y-93400000D03*
X119550000Y-80400000D03*
X124700000Y-98300000D03*
X149750000Y-88050000D03*
X143100000Y-105360000D03*
X147050000Y-85900008D03*
X153799994Y-94400000D03*
X158800000Y-104400000D03*
X145299998Y-94400000D03*
X156192798Y-74600000D03*
X159900000Y-75400000D03*
X121550000Y-86399988D03*
X128550000Y-81900000D03*
X131800000Y-85400000D03*
X136050000Y-70400000D03*
X142300000Y-71400000D03*
X145050000Y-75650000D03*
X135000000Y-78700000D03*
X137300000Y-78650000D03*
X133700000Y-80899998D03*
X129300000Y-77400000D03*
X128300000Y-85400000D03*
X122800000Y-83900000D03*
X150050000Y-98050000D03*
X155950000Y-97900000D03*
X119800000Y-78310000D03*
X124300000Y-77350002D03*
X121300000Y-75900000D03*
X133300000Y-86150000D03*
X139900000Y-108300000D03*
X137000000Y-93095980D03*
X137400000Y-106200000D03*
X135200000Y-103600000D03*
X137100000Y-96000000D03*
X136300002Y-98400000D03*
X141700000Y-101300000D03*
X146714475Y-89258746D03*
X119550000Y-82150000D03*
X156750000Y-95950000D03*
X153650000Y-96050000D03*
X155000000Y-81600000D03*
X151500000Y-83100000D03*
X134600000Y-85500000D03*
X119800000Y-85150000D03*
D33*
X164710000Y-107530000D02*
X164710000Y-108350000D01*
X164710000Y-106800000D02*
X164710000Y-108350000D01*
X164710000Y-108350000D02*
X164710000Y-110600000D01*
X163400000Y-106850000D02*
X164660000Y-106850000D01*
X164660000Y-106850000D02*
X164710000Y-106800000D01*
X164710000Y-110600000D02*
X164710000Y-115200000D01*
X158200000Y-83050000D02*
X161300000Y-83050000D01*
X161600000Y-83050000D02*
X164900000Y-83050000D01*
X161300000Y-83050000D02*
X161600000Y-83050000D01*
X163550000Y-75600000D02*
X163550000Y-71350000D01*
X165600000Y-75600000D02*
X166300000Y-75600000D01*
X163450000Y-77700000D02*
X163000000Y-77700000D01*
X163550000Y-75600000D02*
X163550000Y-77600000D01*
X163550000Y-77600000D02*
X163450000Y-77700000D01*
X163550000Y-71350000D02*
X163800000Y-71100000D01*
X147250000Y-105400000D02*
X148500000Y-105400000D01*
X142700000Y-95407106D02*
X142700000Y-94700000D01*
X140507106Y-98100000D02*
X142700000Y-95907106D01*
X139650000Y-98100000D02*
X140507106Y-98100000D01*
X142700000Y-95907106D02*
X142700000Y-95407106D01*
X137228249Y-100628249D02*
X138628249Y-99228249D01*
X144800000Y-85950000D02*
X144800000Y-85700000D01*
X144800000Y-85700000D02*
X145700000Y-84800000D01*
X135850000Y-87350000D02*
X136350000Y-87350000D01*
X136350000Y-87350000D02*
X137200000Y-88200000D01*
X146950000Y-71200000D02*
X146950000Y-70900000D01*
X146950000Y-70900000D02*
X147850000Y-70000000D01*
X147850000Y-70000000D02*
X162700000Y-70000000D01*
X162700000Y-70000000D02*
X163800000Y-71100000D01*
X144800000Y-85950000D02*
X145000000Y-85950000D01*
X142800000Y-85950000D02*
X144800000Y-85950000D01*
X150050000Y-90493502D02*
X150050000Y-90357112D01*
X149271751Y-91271751D02*
X150050000Y-90493502D01*
X150050000Y-90357112D02*
X150050000Y-89650006D01*
X141950000Y-83700000D02*
X141950000Y-81530000D01*
X141950000Y-81530000D02*
X141520000Y-81100000D01*
X141520000Y-81100000D02*
X141520000Y-80830000D01*
X141520000Y-80830000D02*
X143050000Y-79300000D01*
X127350000Y-93200000D02*
X129100000Y-93200000D01*
X129100000Y-93200000D02*
X129300000Y-93400000D01*
X121350000Y-79880000D02*
X120070000Y-79880000D01*
X120070000Y-79880000D02*
X119550000Y-80400000D01*
X121350000Y-81150000D02*
X121350000Y-79880000D01*
X127150000Y-86700000D02*
X127150000Y-88100000D01*
X127150000Y-88100000D02*
X127450000Y-88400000D01*
X125250000Y-91100000D02*
X125250000Y-90600000D01*
X125250000Y-90600000D02*
X127450000Y-88400000D01*
X125250000Y-91100000D02*
X127350000Y-93200000D01*
X121000000Y-93500000D02*
X121000000Y-96957202D01*
X121000000Y-96957202D02*
X122342798Y-98300000D01*
X122342798Y-98300000D02*
X123992894Y-98300000D01*
X123992894Y-98300000D02*
X124700000Y-98300000D01*
X122150000Y-93200000D02*
X121300000Y-93200000D01*
X121300000Y-93200000D02*
X121000000Y-93500000D01*
D34*
X124700000Y-97000000D02*
X124700000Y-98300000D01*
D33*
X145650000Y-71200000D02*
X146950000Y-71200000D01*
D34*
X146600000Y-72950000D02*
X146600000Y-71550000D01*
X146600000Y-71550000D02*
X146950000Y-71200000D01*
D33*
X138628249Y-99228249D02*
X138628249Y-99121751D01*
X138628249Y-99121751D02*
X139650000Y-98100000D01*
X148150000Y-93300000D02*
X148150000Y-92500000D01*
X148150000Y-92500000D02*
X148150000Y-92393502D01*
X148150000Y-92393502D02*
X149271751Y-91271751D01*
X160950000Y-97900000D02*
X161700000Y-97900000D01*
X161700000Y-97900000D02*
X163200000Y-99400000D01*
X163200000Y-99400000D02*
X163200000Y-100045990D01*
X163200000Y-105000000D02*
X163200000Y-100045990D01*
X164900000Y-86050000D02*
X164900000Y-87800000D01*
X164900000Y-87800000D02*
X166150000Y-89050000D01*
X166150000Y-89050000D02*
X166150000Y-104800000D01*
X166150000Y-104800000D02*
X166150000Y-105800000D01*
X141100000Y-99550000D02*
X141100000Y-98592798D01*
X146700000Y-92150000D02*
X146700000Y-91050000D01*
X141100000Y-98592798D02*
X142142798Y-97550000D01*
X143987301Y-97550000D02*
X146700000Y-94837301D01*
X142142798Y-97550000D02*
X143987301Y-97550000D01*
X146700000Y-94837301D02*
X146700000Y-92150000D01*
X166150000Y-105800000D02*
X166150000Y-116257202D01*
X166150000Y-105800000D02*
X165350000Y-105000000D01*
X165350000Y-105000000D02*
X163200000Y-105000000D01*
X158200000Y-86050000D02*
X160200000Y-86050000D01*
X160200000Y-86050000D02*
X164900000Y-86050000D01*
X155380000Y-115934001D02*
X155400000Y-115914001D01*
X155400000Y-115914001D02*
X155400000Y-112240000D01*
X156600000Y-117154001D02*
X155250401Y-117154001D01*
X156600000Y-117154001D02*
X155380000Y-115934001D01*
X165253201Y-117154001D02*
X156600000Y-117154001D01*
X148850000Y-117154001D02*
X141504001Y-117154001D01*
X155250401Y-117154001D02*
X148850000Y-117154001D01*
X148850000Y-117154001D02*
X147354001Y-117154001D01*
X147354001Y-117154001D02*
X145350000Y-115150000D01*
X145350000Y-115150000D02*
X145350000Y-105400000D01*
X141504001Y-117154001D02*
X131550000Y-107200000D01*
X131550000Y-107200000D02*
X131550000Y-98400000D01*
X131550000Y-98400000D02*
X127950000Y-94800000D01*
X127950000Y-94800000D02*
X125350000Y-94800000D01*
X166150000Y-116257202D02*
X165253201Y-117154001D01*
X152900000Y-72850000D02*
X152700000Y-72850000D01*
X153700000Y-74800000D02*
X153700000Y-73650000D01*
X153700000Y-73650000D02*
X152900000Y-72850000D01*
X153200000Y-75300000D02*
X153700000Y-74800000D01*
X143100000Y-105360000D02*
X141935000Y-105360000D01*
X141935000Y-105360000D02*
X138571751Y-101996751D01*
X138571751Y-101996751D02*
X138571751Y-101971751D01*
X149750000Y-88106498D02*
X149750000Y-88050000D01*
X147928249Y-89928249D02*
X149750000Y-88106498D01*
X145350000Y-105400000D02*
X143140000Y-105400000D01*
X143140000Y-105400000D02*
X143100000Y-105360000D01*
X140900000Y-87350000D02*
X142300000Y-87350000D01*
X142300000Y-87350000D02*
X142800000Y-87850000D01*
X151050000Y-72650000D02*
X150850000Y-72650000D01*
X150850000Y-72650000D02*
X148900000Y-74600000D01*
X148900000Y-74600000D02*
X148900000Y-82300000D01*
X148900000Y-82300000D02*
X147050000Y-84150000D01*
X147050000Y-84150000D02*
X147050000Y-85192902D01*
X147050000Y-85192902D02*
X147050000Y-85900008D01*
X152600000Y-75900000D02*
X153200000Y-75300000D01*
X151850000Y-81600000D02*
X151850000Y-79800000D01*
X151850000Y-79800000D02*
X151850000Y-76650000D01*
X151850000Y-76650000D02*
X153200000Y-75300000D01*
X144800000Y-87850000D02*
X145100000Y-87850000D01*
X147049992Y-85900008D02*
X147050000Y-85900008D01*
X145100000Y-87850000D02*
X147049992Y-85900008D01*
X142800000Y-87850000D02*
X144800000Y-87850000D01*
X142800000Y-87850000D02*
X143500000Y-88550000D01*
X143500000Y-88550000D02*
X143500000Y-91050000D01*
X146700000Y-91050000D02*
X146806498Y-91050000D01*
X146806498Y-91050000D02*
X147928249Y-89928249D01*
X125350000Y-94800000D02*
X125350000Y-93300000D01*
X125350000Y-93300000D02*
X125450000Y-93200000D01*
X152700000Y-72850000D02*
X151250000Y-72850000D01*
X151250000Y-72850000D02*
X151050000Y-72650000D01*
X139971751Y-100571751D02*
X140078249Y-100571751D01*
X140078249Y-100571751D02*
X141100000Y-99550000D01*
X138571751Y-101971751D02*
X139971751Y-100571751D01*
X153799994Y-94400000D02*
X154507100Y-94400000D01*
X154507100Y-94400000D02*
X154900000Y-94792900D01*
X154900000Y-94792900D02*
X154900000Y-98850000D01*
X154900000Y-98850000D02*
X155450000Y-99400000D01*
X158800000Y-101850000D02*
X158800000Y-104400000D01*
X155450000Y-99400000D02*
X157600000Y-99400000D01*
X157600000Y-99400000D02*
X158800000Y-100600000D01*
X158800000Y-100600000D02*
X158800000Y-101850000D01*
X153799994Y-94599994D02*
X153799994Y-94400000D01*
X161500000Y-106850000D02*
X160260000Y-106850000D01*
X160260000Y-106850000D02*
X160210000Y-106800000D01*
X161700000Y-105000000D02*
X161700000Y-106650000D01*
X161700000Y-106650000D02*
X161500000Y-106850000D01*
X160210000Y-114630000D02*
X160210000Y-113900000D01*
X160210000Y-113900000D02*
X160210000Y-113330000D01*
X160210000Y-115200000D02*
X160210000Y-113900000D01*
X160210000Y-106230000D02*
X160210000Y-105810000D01*
X160210000Y-105810000D02*
X158800000Y-104400000D01*
X160250000Y-106190000D02*
X160210000Y-106230000D01*
X160210000Y-113330000D02*
X160210000Y-106230000D01*
X144799999Y-93900001D02*
X145299998Y-94400000D01*
X144300000Y-93400002D02*
X144799999Y-93900001D01*
X144300000Y-91050000D02*
X144300000Y-93400002D01*
X161500000Y-75600000D02*
X160100000Y-75600000D01*
X160100000Y-75600000D02*
X159900000Y-75400000D01*
X158500000Y-74600000D02*
X159300000Y-75400000D01*
X158300000Y-74600000D02*
X158500000Y-74600000D01*
X160000000Y-75500000D02*
X159900000Y-75400000D01*
X159300000Y-75400000D02*
X159900000Y-75400000D01*
X156350000Y-78050000D02*
X158230000Y-78050000D01*
X158230000Y-78050000D02*
X159930000Y-79750000D01*
X159930000Y-79750000D02*
X160930000Y-80750000D01*
X164080000Y-80500000D02*
X161180000Y-80500000D01*
X161180000Y-80500000D02*
X160930000Y-80750000D01*
X136050000Y-70400000D02*
X136200000Y-70550000D01*
X136200000Y-70550000D02*
X136200000Y-81000000D01*
X136200000Y-81000000D02*
X132299999Y-84900001D01*
X132299999Y-84900001D02*
X131800000Y-85400000D01*
X123350000Y-91100000D02*
X122600000Y-91100000D01*
X122600000Y-91100000D02*
X121550000Y-90050000D01*
X121550000Y-90050000D02*
X121550000Y-87107094D01*
X121550000Y-87107094D02*
X121550000Y-86399988D01*
X156550000Y-78050000D02*
X156350000Y-78050000D01*
X155000000Y-77700000D02*
X155000000Y-75792798D01*
X156192798Y-74600000D02*
X157350000Y-74600000D01*
X155000000Y-75792798D02*
X156192798Y-74600000D01*
X157350000Y-74600000D02*
X158300000Y-74600000D01*
X156350000Y-78050000D02*
X155350000Y-78050000D01*
X155350000Y-78050000D02*
X155000000Y-77700000D01*
X128550000Y-81700000D02*
X128550000Y-81900000D01*
X128000000Y-81150000D02*
X128550000Y-81700000D01*
X126750000Y-81150000D02*
X128000000Y-81150000D01*
X122850000Y-88400000D02*
X122850000Y-86700000D01*
X123350000Y-91100000D02*
X123350000Y-88900000D01*
X123350000Y-88900000D02*
X122850000Y-88400000D01*
X124050000Y-93200000D02*
X124050000Y-91800000D01*
X124050000Y-91800000D02*
X123350000Y-91100000D01*
X124050000Y-94800000D02*
X124050000Y-93200000D01*
X122500000Y-95350000D02*
X123500000Y-95350000D01*
X123500000Y-95350000D02*
X124050000Y-94800000D01*
X142300000Y-71400000D02*
X143550000Y-71400000D01*
X143550000Y-71400000D02*
X143750000Y-71200000D01*
X144950000Y-79300000D02*
X144950000Y-75750000D01*
X144950000Y-75750000D02*
X145050000Y-75650000D01*
X144950000Y-79300000D02*
X144950000Y-79450000D01*
X144950000Y-79450000D02*
X146600000Y-81100000D01*
D34*
X143750000Y-71200000D02*
X143750000Y-72300000D01*
X143750000Y-72300000D02*
X144400000Y-72950000D01*
X146600000Y-73600000D02*
X145800000Y-73600000D01*
X145800000Y-73600000D02*
X145150000Y-72950000D01*
X145150000Y-72950000D02*
X144400000Y-72950000D01*
D33*
X134950000Y-78650000D02*
X135000000Y-78700000D01*
X133000000Y-78650000D02*
X134950000Y-78650000D01*
X137450000Y-83700000D02*
X137450000Y-78800000D01*
X137450000Y-78800000D02*
X137300000Y-78650000D01*
X132700000Y-76350000D02*
X131250000Y-76350000D01*
X131250000Y-76350000D02*
X131050000Y-76150000D01*
X131100000Y-78650000D02*
X126790000Y-78650000D01*
X126790000Y-78650000D02*
X126750000Y-78610000D01*
X131050000Y-76150000D02*
X131050000Y-78600000D01*
X131050000Y-78600000D02*
X131100000Y-78650000D01*
X129550000Y-76150000D02*
X131250000Y-74450000D01*
X131250000Y-74450000D02*
X132700000Y-74450000D01*
X133699998Y-80900000D02*
X133700000Y-80899998D01*
X132150000Y-80900000D02*
X133699998Y-80900000D01*
X129550000Y-76150000D02*
X129550000Y-77150000D01*
X129550000Y-77150000D02*
X129300000Y-77400000D01*
X129550000Y-76150000D02*
X127940000Y-76150000D01*
X127940000Y-76150000D02*
X126750000Y-77340000D01*
X130650000Y-80900000D02*
X130650000Y-82300000D01*
X130650000Y-82300000D02*
X130800000Y-82450000D01*
X130550000Y-86300000D02*
X130550000Y-84600000D01*
X130550000Y-84600000D02*
X130800000Y-84350000D01*
X130650000Y-88100000D02*
X130650000Y-86400000D01*
X130650000Y-86400000D02*
X130550000Y-86300000D01*
X130800000Y-84350000D02*
X130140000Y-83690000D01*
X130140000Y-83690000D02*
X126750000Y-83690000D01*
X141100000Y-91050000D02*
X134600000Y-91050000D01*
X134600000Y-91050000D02*
X134100000Y-91550000D01*
X134100000Y-91550000D02*
X130950000Y-91550000D01*
X130950000Y-91550000D02*
X128750000Y-89350000D01*
X128750000Y-89350000D02*
X128750000Y-88100000D01*
X129050000Y-86300000D02*
X129050000Y-86150000D01*
X129050000Y-86150000D02*
X128300000Y-85400000D01*
X126750000Y-84960000D02*
X127860000Y-84960000D01*
X127860000Y-84960000D02*
X128300000Y-85400000D01*
X121350000Y-83690000D02*
X122590000Y-83690000D01*
X122590000Y-83690000D02*
X122800000Y-83900000D01*
X129050000Y-86300000D02*
X129050000Y-87800000D01*
X129050000Y-87800000D02*
X128750000Y-88100000D01*
D34*
X141700000Y-75640000D02*
X142700000Y-75640000D01*
X144090000Y-74250000D02*
X144400000Y-74250000D01*
X142700000Y-75640000D02*
X144090000Y-74250000D01*
X146600000Y-74250000D02*
X144400000Y-74250000D01*
X146600000Y-74250000D02*
X147700000Y-74250000D01*
X147700000Y-74250000D02*
X148350000Y-73600000D01*
D33*
X148350000Y-73600000D02*
X148350000Y-71700000D01*
X148350000Y-71700000D02*
X148850000Y-71200000D01*
X148150000Y-98100000D02*
X150000000Y-98100000D01*
X150000000Y-98100000D02*
X150050000Y-98050000D01*
X159450000Y-97900000D02*
X155950000Y-97900000D01*
X120900000Y-73970000D02*
X119800000Y-75070000D01*
X119800000Y-75070000D02*
X119800000Y-78310000D01*
X119800000Y-78310000D02*
X120100000Y-78610000D01*
X120100000Y-78610000D02*
X121350000Y-78610000D01*
X121350000Y-77340000D02*
X124289998Y-77340000D01*
X124289998Y-77340000D02*
X124300000Y-77350002D01*
X121300000Y-75900000D02*
X121300000Y-77290000D01*
X121300000Y-77290000D02*
X121350000Y-77340000D01*
X141900000Y-91050000D02*
X141900000Y-90250000D01*
X141900000Y-90250000D02*
X141050000Y-89400000D01*
X141050000Y-89400000D02*
X135050000Y-89400000D01*
X135050000Y-89400000D02*
X133300000Y-87650000D01*
X133300000Y-87650000D02*
X133300000Y-86150000D01*
X139900000Y-108300000D02*
X133900000Y-108300000D01*
X136100000Y-91900000D02*
X137950000Y-91900000D01*
X133900000Y-108300000D02*
X133000000Y-107400000D01*
X133000000Y-107400000D02*
X133000000Y-95000000D01*
X133000000Y-95000000D02*
X136100000Y-91900000D01*
X137950000Y-91900000D02*
X138550000Y-92500000D01*
X138550000Y-92500000D02*
X139650000Y-92500000D01*
X137204020Y-93300000D02*
X137000000Y-93095980D01*
X139650000Y-93300000D02*
X137204020Y-93300000D01*
X139650000Y-94100000D02*
X136200000Y-94100000D01*
X136200000Y-94100000D02*
X133800000Y-96500000D01*
X133800000Y-104700000D02*
X135300000Y-106200000D01*
X133800000Y-96500000D02*
X133800000Y-104700000D01*
X135300000Y-106200000D02*
X137400000Y-106200000D01*
X135200000Y-103600000D02*
X135200000Y-96300000D01*
X135200000Y-96300000D02*
X136600000Y-94900000D01*
X136600000Y-94900000D02*
X138550000Y-94900000D01*
X138550000Y-94900000D02*
X139650000Y-94900000D01*
X137100000Y-96000000D02*
X137400000Y-95700000D01*
X137400000Y-95700000D02*
X139650000Y-95700000D01*
X139650000Y-96500000D02*
X138200002Y-96500000D01*
X136800001Y-97900001D02*
X136300002Y-98400000D01*
X138200002Y-96500000D02*
X136800001Y-97900001D01*
X141900000Y-99550000D02*
X141900000Y-101100000D01*
X141900000Y-101100000D02*
X141700000Y-101300000D01*
X147214474Y-88758747D02*
X146714475Y-89258746D01*
X150054001Y-85919220D02*
X147214474Y-88758747D01*
X151000000Y-76000000D02*
X150054001Y-76945999D01*
X150054001Y-76945999D02*
X150054001Y-85919220D01*
X152700000Y-74350000D02*
X151250000Y-74350000D01*
X151250000Y-74350000D02*
X151050000Y-74550000D01*
X151000000Y-76000000D02*
X151000000Y-74600000D01*
X151000000Y-74600000D02*
X151050000Y-74550000D01*
X150600000Y-107440000D02*
X151860001Y-108700001D01*
X150600000Y-105966332D02*
X150600000Y-107440000D01*
X151860001Y-108700001D02*
X152860000Y-109700000D01*
X146162330Y-104162330D02*
X148795998Y-104162330D01*
X142700000Y-100700000D02*
X146162330Y-104162330D01*
X148795998Y-104162330D02*
X150600000Y-105966332D01*
X142700000Y-99550000D02*
X142700000Y-100700000D01*
X152860000Y-107160000D02*
X149100000Y-103400000D01*
X149100000Y-103400000D02*
X146466332Y-103400000D01*
X146466332Y-103400000D02*
X143500000Y-100433668D01*
X143500000Y-100433668D02*
X143500000Y-99550000D01*
X156018893Y-102325999D02*
X156904001Y-103211107D01*
X156399999Y-106160001D02*
X155400000Y-107160000D01*
X156904001Y-103211107D02*
X156904001Y-105655999D01*
X156904001Y-105655999D02*
X156399999Y-106160001D01*
X156018893Y-102325999D02*
X147575999Y-102325999D01*
X147575999Y-102325999D02*
X145900000Y-100650000D01*
X145900000Y-100650000D02*
X145900000Y-99550000D01*
X146700000Y-99550000D02*
X146700000Y-100300000D01*
X147971988Y-101571988D02*
X156414242Y-101571988D01*
X157700000Y-102857746D02*
X157700000Y-107400000D01*
X146700000Y-100300000D02*
X147971988Y-101571988D01*
X156414242Y-101571988D02*
X157700000Y-102857746D01*
X157700000Y-107400000D02*
X155400000Y-109700000D01*
X146700000Y-99550000D02*
X146700000Y-99900000D01*
X158800000Y-76600000D02*
X161500000Y-76600000D01*
X158800000Y-76600000D02*
X158300000Y-76100000D01*
X156350000Y-76150000D02*
X158250000Y-76150000D01*
X158250000Y-76150000D02*
X158300000Y-76100000D01*
X165600000Y-76600000D02*
X166000000Y-76600000D01*
X166000000Y-76600000D02*
X166300000Y-76900000D01*
X166300000Y-76900000D02*
X166300000Y-78300000D01*
X166300000Y-78300000D02*
X165600000Y-79000000D01*
X165600000Y-79000000D02*
X164080000Y-79000000D01*
X164080000Y-79000000D02*
X161080000Y-79000000D01*
X161080000Y-79000000D02*
X160930000Y-78850000D01*
X140450000Y-83700000D02*
X138950000Y-83700000D01*
X142800000Y-84900000D02*
X141450000Y-84900000D01*
X141450000Y-84900000D02*
X140450000Y-83900000D01*
X140450000Y-83900000D02*
X140450000Y-83700000D01*
X144060000Y-83640000D02*
X142800000Y-84900000D01*
X124350000Y-86700000D02*
X125650000Y-86700000D01*
X125650000Y-86700000D02*
X125650000Y-85750000D01*
X125650000Y-85750000D02*
X125050000Y-85150000D01*
X125050000Y-85150000D02*
X125050000Y-81970000D01*
X126750000Y-79880000D02*
X125500000Y-79880000D01*
X125500000Y-79880000D02*
X125050000Y-80330000D01*
X125500000Y-82420000D02*
X126750000Y-82420000D01*
X125050000Y-80330000D02*
X125050000Y-81970000D01*
X125050000Y-81970000D02*
X125500000Y-82420000D01*
X122500000Y-96850000D02*
X123900000Y-96850000D01*
X123900000Y-96850000D02*
X123995999Y-96945999D01*
D34*
X141700000Y-73560000D02*
X144360000Y-73560000D01*
X144360000Y-73560000D02*
X144400000Y-73600000D01*
D33*
X138550000Y-86400000D02*
X138550000Y-87200000D01*
X138550000Y-87200000D02*
X139850000Y-88500000D01*
X139850000Y-88500000D02*
X141400000Y-88500000D01*
X141400000Y-88500000D02*
X142700000Y-89800000D01*
X142700000Y-89800000D02*
X142700000Y-91050000D01*
X140900000Y-85850000D02*
X139100000Y-85850000D01*
X139100000Y-85850000D02*
X138550000Y-86400000D01*
D35*
X124350000Y-88400000D02*
X124350000Y-88200000D01*
X124350000Y-88200000D02*
X123754002Y-87604001D01*
X123754002Y-87604001D02*
X123736799Y-87604001D01*
X123645999Y-87513201D02*
X123645999Y-85304001D01*
X123736799Y-87604001D02*
X123645999Y-87513201D01*
X123645999Y-85304001D02*
X124050000Y-84900000D01*
X124050000Y-84900000D02*
X124050000Y-83150000D01*
X124050000Y-83150000D02*
X123320000Y-82420000D01*
X123320000Y-82420000D02*
X122500000Y-82420000D01*
X122500000Y-82420000D02*
X121350000Y-82420000D01*
D33*
X119550000Y-82150000D02*
X121080000Y-82150000D01*
X121080000Y-82150000D02*
X121350000Y-82420000D01*
X124350000Y-88400000D02*
X125950000Y-88400000D01*
D34*
X160200000Y-94850000D02*
X160200000Y-101650000D01*
X160200000Y-101650000D02*
X160200000Y-103250000D01*
D33*
X152942894Y-96050000D02*
X153650000Y-96050000D01*
X150244076Y-96050000D02*
X152942894Y-96050000D01*
X148994076Y-97300000D02*
X150244076Y-96050000D01*
X148150000Y-97300000D02*
X148994076Y-97300000D01*
X156750000Y-95950000D02*
X157850000Y-94850000D01*
X157850000Y-94850000D02*
X159000000Y-94850000D01*
X159000000Y-94850000D02*
X160200000Y-94850000D01*
X152800000Y-91900000D02*
X152800000Y-83100000D01*
X152800000Y-83100000D02*
X153350000Y-82550000D01*
X153350000Y-82550000D02*
X153350000Y-81600000D01*
D35*
X153650000Y-77100000D02*
X153650000Y-77800000D01*
X153650000Y-77800000D02*
X152645999Y-78804001D01*
X152645999Y-78804001D02*
X152645999Y-80695999D01*
X153350000Y-81400000D02*
X153350000Y-81600000D01*
X152645999Y-80695999D02*
X153350000Y-81400000D01*
D33*
X148150000Y-94900000D02*
X149800000Y-94900000D01*
X149800000Y-94900000D02*
X152800000Y-91900000D01*
X156650000Y-79800000D02*
X155900000Y-79800000D01*
X155900000Y-79800000D02*
X154600000Y-79800000D01*
X158230000Y-79800000D02*
X157230000Y-79800000D01*
X157230000Y-79800000D02*
X155900000Y-79800000D01*
X155000000Y-81600000D02*
X155000000Y-80200000D01*
X155000000Y-80200000D02*
X154600000Y-79800000D01*
X154600000Y-79800000D02*
X154100000Y-79800000D01*
X151304002Y-92045998D02*
X151304002Y-83295998D01*
X151304002Y-83295998D02*
X151500000Y-83100000D01*
X154100000Y-79800000D02*
X153350000Y-79800000D01*
X148150000Y-94100000D02*
X149250000Y-94100000D01*
X149250000Y-94100000D02*
X151304002Y-92045998D01*
X134600000Y-85500000D02*
X135800000Y-85500000D01*
X135800000Y-85500000D02*
X135850000Y-85450000D01*
X121350000Y-84960000D02*
X119990000Y-84960000D01*
X119990000Y-84960000D02*
X119800000Y-85150000D01*
D36*
G36*
X166650000Y-73750000D02*
X164300000Y-73750000D01*
X164261094Y-73757879D01*
X164228319Y-73780273D01*
X164206839Y-73813654D01*
X164200000Y-73850000D01*
X164200000Y-74300000D01*
X162900000Y-74300000D01*
X162900000Y-73850000D01*
X162892121Y-73811094D01*
X162869727Y-73778319D01*
X162836346Y-73756839D01*
X162800000Y-73750000D01*
X156800000Y-73750000D01*
X156800000Y-69750000D01*
X166650000Y-69750000D01*
X166650000Y-73750000D01*
X166650000Y-73750000D01*
G37*
X166650000Y-73750000D02*
X164300000Y-73750000D01*
X164261094Y-73757879D01*
X164228319Y-73780273D01*
X164206839Y-73813654D01*
X164200000Y-73850000D01*
X164200000Y-74300000D01*
X162900000Y-74300000D01*
X162900000Y-73850000D01*
X162892121Y-73811094D01*
X162869727Y-73778319D01*
X162836346Y-73756839D01*
X162800000Y-73750000D01*
X156800000Y-73750000D01*
X156800000Y-69750000D01*
X166650000Y-69750000D01*
X166650000Y-73750000D01*
G36*
X164200000Y-77100000D02*
X164207879Y-77138906D01*
X164230273Y-77171681D01*
X164263654Y-77193161D01*
X164300000Y-77200000D01*
X165579891Y-77200000D01*
X165600000Y-77204000D01*
X165600000Y-78145815D01*
X165545815Y-78200000D01*
X161483998Y-78200000D01*
X161430000Y-78189065D01*
X160430000Y-78189065D01*
X160371886Y-78200000D01*
X159300000Y-78200000D01*
X159300000Y-77204000D01*
X161500000Y-77204000D01*
X161521015Y-77199820D01*
X162800035Y-77199378D01*
X162838937Y-77191486D01*
X162871705Y-77169080D01*
X162893174Y-77135692D01*
X162900000Y-77099378D01*
X162900000Y-76600000D01*
X164200000Y-76600000D01*
X164200000Y-77100000D01*
X164200000Y-77100000D01*
G37*
X164200000Y-77100000D02*
X164207879Y-77138906D01*
X164230273Y-77171681D01*
X164263654Y-77193161D01*
X164300000Y-77200000D01*
X165579891Y-77200000D01*
X165600000Y-77204000D01*
X165600000Y-78145815D01*
X165545815Y-78200000D01*
X161483998Y-78200000D01*
X161430000Y-78189065D01*
X160430000Y-78189065D01*
X160371886Y-78200000D01*
X159300000Y-78200000D01*
X159300000Y-77204000D01*
X161500000Y-77204000D01*
X161521015Y-77199820D01*
X162800035Y-77199378D01*
X162838937Y-77191486D01*
X162871705Y-77169080D01*
X162893174Y-77135692D01*
X162900000Y-77099378D01*
X162900000Y-76600000D01*
X164200000Y-76600000D01*
X164200000Y-77100000D01*
M02*
