G04 #@! TF.FileFunction,Copper,L2,Bot,Signal*
%FSLAX46Y46*%
G04 Gerber Fmt 4.6, Leading zero omitted, Abs format (unit mm)*
G04 Created by KiCad (PCBNEW 4.0.4+dfsg1-stable) date Wed Mar  8 20:37:53 2017*
%MOMM*%
%LPD*%
G01*
G04 APERTURE LIST*
%ADD10C,0.100000*%
%ADD11C,0.600000*%
%ADD12R,0.900000X1.700000*%
%ADD13C,4.400000*%
%ADD14R,0.700000X1.300000*%
%ADD15C,2.000000*%
%ADD16R,0.900000X0.500000*%
%ADD17R,3.600000X1.270000*%
%ADD18R,2.000000X2.000000*%
%ADD19C,1.300000*%
%ADD20C,1.000000*%
%ADD21C,0.700000*%
%ADD22C,0.500000*%
%ADD23C,0.254000*%
G04 APERTURE END LIST*
D10*
X118200000Y-118200000D02*
X167200000Y-118200000D01*
X118200000Y-69200000D02*
X118200000Y-118200000D01*
X167200000Y-69200000D02*
X118200000Y-69200000D01*
X167200000Y-118200000D02*
X167200000Y-69200000D01*
D11*
X163750000Y-73000000D03*
X165750000Y-73000000D03*
X157750000Y-73000000D03*
X161750000Y-73000000D03*
X159750000Y-73000000D03*
X163750000Y-70500000D03*
X165750000Y-70500000D03*
X157750000Y-70500000D03*
X161750000Y-70500000D03*
X159750000Y-70500000D03*
X165750000Y-71750000D03*
X163750000Y-71750000D03*
X157750000Y-71750000D03*
X159750000Y-71750000D03*
X161750000Y-71750000D03*
X164450000Y-77700000D03*
X162450000Y-77700000D03*
X160450000Y-77700000D03*
D12*
X151550000Y-97900000D03*
X154450000Y-97900000D03*
D13*
X126800000Y-72900000D03*
X161700000Y-90950000D03*
D14*
X125150000Y-81600000D03*
X123250000Y-81600000D03*
X162600000Y-75600000D03*
X164500000Y-75600000D03*
X125150000Y-79500000D03*
X123250000Y-79500000D03*
D15*
X120900000Y-73970000D03*
X120900000Y-71430000D03*
D16*
X121400000Y-77250000D03*
X121400000Y-78750000D03*
X121300000Y-84400000D03*
X121300000Y-82900000D03*
D17*
X143100000Y-105360000D03*
X143100000Y-107900000D03*
X143100000Y-110440000D03*
X149500000Y-105360000D03*
X149500000Y-107900000D03*
X149475000Y-112980000D03*
X149500000Y-110440000D03*
X143125000Y-112980000D03*
D13*
X126800000Y-109900000D03*
D18*
X155400000Y-112240000D03*
D15*
X152860000Y-112240000D03*
X155400000Y-109700000D03*
X152860000Y-109700000D03*
X155400000Y-107160000D03*
X152860000Y-107160000D03*
X155400000Y-104620000D03*
X152860000Y-104620000D03*
X146600000Y-81100000D03*
X141520000Y-81100000D03*
X144060000Y-83640000D03*
D19*
X133060000Y-89750000D03*
X133060000Y-72450000D03*
X155060000Y-72450000D03*
X155060000Y-89750000D03*
D20*
X164700000Y-103250000D03*
X164700000Y-94850000D03*
X161600000Y-83050000D03*
X164710000Y-110600000D03*
D21*
X166300000Y-75600000D03*
D20*
X148500000Y-105400000D03*
X142700000Y-94700000D03*
X145700000Y-84800000D03*
X137200000Y-88200000D03*
X150050000Y-89650006D03*
X129300000Y-93400000D03*
X119550000Y-80400000D03*
X124700000Y-98300000D03*
X149750000Y-88050000D03*
X143100000Y-105360000D03*
X147050000Y-85900008D03*
X153799994Y-94400000D03*
X158800000Y-104400000D03*
X145299998Y-94400000D03*
X156192798Y-74600000D03*
X159900000Y-75400000D03*
X121550000Y-86399988D03*
X128550000Y-81900000D03*
X131800000Y-85400000D03*
X136050000Y-70400000D03*
X142300000Y-71400000D03*
X145050000Y-75650000D03*
X135000000Y-78700000D03*
X137300000Y-78650000D03*
X133700000Y-80899998D03*
X129300000Y-77400000D03*
X128300000Y-85400000D03*
X122800000Y-83900000D03*
X150050000Y-98050000D03*
X155950000Y-97900000D03*
X119800000Y-78310000D03*
X124300000Y-77350002D03*
X121300000Y-75900000D03*
X133300000Y-86150000D03*
X139900000Y-108300000D03*
X137000000Y-93095980D03*
X137400000Y-106200000D03*
X135200000Y-103600000D03*
X137100000Y-96000000D03*
X136300002Y-98400000D03*
X141700000Y-101300000D03*
X146714475Y-89258746D03*
X119550000Y-82150000D03*
X156750000Y-95950000D03*
X153650000Y-96050000D03*
X155000000Y-81600000D03*
X151500000Y-83100000D03*
X134600000Y-85500000D03*
X119800000Y-85150000D03*
D22*
X152860000Y-112240000D02*
X152860000Y-113960000D01*
X152860000Y-113960000D02*
X152900000Y-114000000D01*
X152900000Y-112924213D02*
X152900000Y-114000000D01*
X152840000Y-112864213D02*
X152900000Y-112924213D01*
X164500000Y-75600000D02*
X164500000Y-71800000D01*
X164500000Y-71800000D02*
X163800000Y-71100000D01*
X149500000Y-105360000D02*
X148540000Y-105360000D01*
X148540000Y-105360000D02*
X148500000Y-105400000D01*
X150050000Y-89650006D02*
X147749994Y-89650006D01*
X147749994Y-89650006D02*
X143199999Y-94200001D01*
X143199999Y-94200001D02*
X142700000Y-94700000D01*
X123250000Y-79500000D02*
X123250000Y-81600000D01*
X119550000Y-80400000D02*
X122350000Y-80400000D01*
X122350000Y-80400000D02*
X123250000Y-79500000D01*
X149800000Y-88100000D02*
X149750000Y-88050000D01*
X149199992Y-88050000D02*
X149750000Y-88050000D01*
X147050000Y-85900008D02*
X149199992Y-88050000D01*
X143100000Y-105360000D02*
X144265000Y-105360000D01*
X158800000Y-104400000D02*
X155620000Y-104400000D01*
X155620000Y-104400000D02*
X155400000Y-104620000D01*
X145299998Y-94400000D02*
X153799994Y-94400000D01*
X136050000Y-70400000D02*
X136549999Y-69900001D01*
X153000000Y-72462002D02*
X155137998Y-74600000D01*
X136549999Y-69900001D02*
X151700001Y-69900001D01*
X155137998Y-74600000D02*
X156192798Y-74600000D01*
X151700001Y-69900001D02*
X153000000Y-71200000D01*
X153000000Y-71200000D02*
X153000000Y-72462002D01*
X162600000Y-75600000D02*
X160100000Y-75600000D01*
X160100000Y-75600000D02*
X159900000Y-75400000D01*
X129045974Y-86404002D02*
X129049988Y-86399988D01*
X121550000Y-86399988D02*
X127564064Y-86399988D01*
X127564064Y-86399988D02*
X127568078Y-86404002D01*
X127568078Y-86404002D02*
X129045974Y-86404002D01*
X129049988Y-86399988D02*
X130799988Y-86399988D01*
X130799988Y-86399988D02*
X130800000Y-86400000D01*
X129049988Y-86399988D02*
X129050000Y-86400000D01*
X129050000Y-86400000D02*
X129550000Y-85900000D01*
X129550000Y-85900000D02*
X129550000Y-82900000D01*
X129550000Y-82900000D02*
X129049999Y-82399999D01*
X129049999Y-82399999D02*
X128550000Y-81900000D01*
X131800000Y-85400000D02*
X130800000Y-86400000D01*
X128250000Y-81600000D02*
X128550000Y-81900000D01*
X125150000Y-81600000D02*
X128250000Y-81600000D01*
X125150000Y-79500000D02*
X125150000Y-81600000D01*
X145050000Y-75650000D02*
X142300000Y-72900000D01*
X142300000Y-72900000D02*
X142300000Y-71400000D01*
X135050000Y-78650000D02*
X135000000Y-78700000D01*
X137300000Y-78650000D02*
X135050000Y-78650000D01*
X132992894Y-80899998D02*
X133700000Y-80899998D01*
X132799998Y-80899998D02*
X132992894Y-80899998D01*
X129300000Y-77400000D02*
X132799998Y-80899998D01*
X122800000Y-83900000D02*
X124300000Y-85400000D01*
X124300000Y-85400000D02*
X127592894Y-85400000D01*
X127592894Y-85400000D02*
X128300000Y-85400000D01*
X150200000Y-97900000D02*
X150050000Y-98050000D01*
X151550000Y-97900000D02*
X150200000Y-97900000D01*
X154450000Y-97900000D02*
X155950000Y-97900000D01*
X121400000Y-78750000D02*
X120240000Y-78750000D01*
X120240000Y-78750000D02*
X119800000Y-78310000D01*
X133300000Y-85192894D02*
X125457108Y-77350002D01*
X133300000Y-86150000D02*
X133300000Y-85192894D01*
X125007106Y-77350002D02*
X124300000Y-77350002D01*
X125457108Y-77350002D02*
X125007106Y-77350002D01*
X121400000Y-77250000D02*
X121400000Y-76000000D01*
X121400000Y-76000000D02*
X121300000Y-75900000D01*
X149500000Y-107900000D02*
X147200000Y-107900000D01*
X147200000Y-107900000D02*
X145900000Y-109200000D01*
X145900000Y-109200000D02*
X140800000Y-109200000D01*
X140800000Y-109200000D02*
X139900000Y-108300000D01*
X149500000Y-107900000D02*
X148896000Y-107900000D01*
X143100000Y-107900000D02*
X141800000Y-107900000D01*
X141800000Y-107900000D02*
X139800000Y-105900000D01*
X139800000Y-105900000D02*
X139800000Y-95895980D01*
X139800000Y-95895980D02*
X137499999Y-93595979D01*
X137499999Y-93595979D02*
X137000000Y-93095980D01*
X149500000Y-110440000D02*
X147200000Y-110440000D01*
X140500000Y-111700000D02*
X137400000Y-108600000D01*
X147200000Y-110440000D02*
X145940000Y-111700000D01*
X145940000Y-111700000D02*
X140500000Y-111700000D01*
X137400000Y-108600000D02*
X137400000Y-106200000D01*
X149500000Y-110440000D02*
X149404511Y-110535489D01*
X149475000Y-112980000D02*
X147175000Y-112980000D01*
X147175000Y-112980000D02*
X145955000Y-114200000D01*
X145955000Y-114200000D02*
X140500000Y-114200000D01*
X140500000Y-114200000D02*
X135200000Y-108900000D01*
X135200000Y-108900000D02*
X135200000Y-103600000D01*
X149475000Y-112980000D02*
X148310000Y-112980000D01*
X137599999Y-96499999D02*
X137100000Y-96000000D01*
X138404001Y-108404001D02*
X138404001Y-97304001D01*
X140440000Y-110440000D02*
X138404001Y-108404001D01*
X143100000Y-110440000D02*
X140440000Y-110440000D01*
X138404001Y-97304001D02*
X137599999Y-96499999D01*
X143125000Y-112980000D02*
X140580000Y-112980000D01*
X140580000Y-112980000D02*
X136300000Y-108700000D01*
X136300000Y-108700000D02*
X136300000Y-99107108D01*
X136300000Y-99107108D02*
X136300002Y-99107106D01*
X136300002Y-99107106D02*
X136300002Y-98400000D01*
X136300002Y-98400002D02*
X136300002Y-98400000D01*
X136500000Y-98600000D02*
X136300002Y-98400002D01*
X141200000Y-100092894D02*
X141200000Y-92500000D01*
X141200000Y-92500000D02*
X144441254Y-89258746D01*
X141700000Y-101300000D02*
X141700000Y-100592894D01*
X141700000Y-100592894D02*
X141200000Y-100092894D01*
X146714475Y-89258746D02*
X144441254Y-89258746D01*
X121300000Y-82900000D02*
X120300000Y-82900000D01*
X120300000Y-82900000D02*
X119550000Y-82150000D01*
X153650000Y-96050000D02*
X156650000Y-96050000D01*
X156650000Y-96050000D02*
X156750000Y-95950000D01*
X151500000Y-83100000D02*
X153500000Y-83100000D01*
X153500000Y-83100000D02*
X155000000Y-81600000D01*
X134200000Y-87900000D02*
X134600000Y-87500000D01*
X134600000Y-87500000D02*
X134600000Y-85500000D01*
X119800000Y-85150000D02*
X119800000Y-86600000D01*
X119800000Y-86600000D02*
X121100000Y-87900000D01*
X121100000Y-87900000D02*
X134200000Y-87900000D01*
X119800000Y-85150000D02*
X120550000Y-85150000D01*
X120550000Y-85150000D02*
X121300000Y-84400000D01*
D23*
G36*
X135179860Y-69817492D02*
X135023179Y-70194821D01*
X135022822Y-70603387D01*
X135178844Y-70980989D01*
X135467492Y-71270140D01*
X135844821Y-71426821D01*
X136253387Y-71427178D01*
X136630989Y-71271156D01*
X136920140Y-70982508D01*
X137046998Y-70677001D01*
X141570596Y-70677001D01*
X141429860Y-70817492D01*
X141273179Y-71194821D01*
X141272822Y-71603387D01*
X141428844Y-71980989D01*
X141523000Y-72075309D01*
X141523000Y-72900000D01*
X141582146Y-73197345D01*
X141750578Y-73449422D01*
X144022937Y-75721781D01*
X144022822Y-75853387D01*
X144178844Y-76230989D01*
X144467492Y-76520140D01*
X144844821Y-76676821D01*
X145253387Y-76677178D01*
X145630989Y-76521156D01*
X145920140Y-76232508D01*
X146076821Y-75855179D01*
X146077178Y-75446613D01*
X145921156Y-75069011D01*
X145632508Y-74779860D01*
X145255179Y-74623179D01*
X145121907Y-74623063D01*
X143077000Y-72578156D01*
X143077000Y-72075486D01*
X143170140Y-71982508D01*
X143326821Y-71605179D01*
X143327178Y-71196613D01*
X143171156Y-70819011D01*
X143029393Y-70677001D01*
X151378157Y-70677001D01*
X152223000Y-71521844D01*
X152223000Y-72462002D01*
X152282146Y-72759347D01*
X152450578Y-73011424D01*
X154588576Y-75149422D01*
X154840653Y-75317854D01*
X155137998Y-75377000D01*
X155517312Y-75377000D01*
X155610290Y-75470140D01*
X155987619Y-75626821D01*
X156396185Y-75627178D01*
X156453763Y-75603387D01*
X158872822Y-75603387D01*
X159028844Y-75980989D01*
X159317492Y-76270140D01*
X159694821Y-76426821D01*
X160103387Y-76427178D01*
X160224827Y-76377000D01*
X161736573Y-76377000D01*
X161749423Y-76445294D01*
X161864842Y-76624660D01*
X162040951Y-76744990D01*
X162250000Y-76787324D01*
X162950000Y-76787324D01*
X163145294Y-76750577D01*
X163324660Y-76635158D01*
X163444990Y-76459049D01*
X163487324Y-76250000D01*
X163487324Y-75885750D01*
X163515000Y-75885750D01*
X163515000Y-76376310D01*
X163611673Y-76609699D01*
X163790302Y-76788327D01*
X164023691Y-76885000D01*
X164214250Y-76885000D01*
X164373000Y-76726250D01*
X164373000Y-75727000D01*
X164627000Y-75727000D01*
X164627000Y-76726250D01*
X164785750Y-76885000D01*
X164976309Y-76885000D01*
X165209698Y-76788327D01*
X165388327Y-76609699D01*
X165485000Y-76376310D01*
X165485000Y-75885750D01*
X165326250Y-75727000D01*
X164627000Y-75727000D01*
X164373000Y-75727000D01*
X163673750Y-75727000D01*
X163515000Y-75885750D01*
X163487324Y-75885750D01*
X163487324Y-74950000D01*
X163463558Y-74823690D01*
X163515000Y-74823690D01*
X163515000Y-75314250D01*
X163673750Y-75473000D01*
X164373000Y-75473000D01*
X164373000Y-74473750D01*
X164627000Y-74473750D01*
X164627000Y-75473000D01*
X165326250Y-75473000D01*
X165485000Y-75314250D01*
X165485000Y-74823690D01*
X165388327Y-74590301D01*
X165209698Y-74411673D01*
X164976309Y-74315000D01*
X164785750Y-74315000D01*
X164627000Y-74473750D01*
X164373000Y-74473750D01*
X164214250Y-74315000D01*
X164023691Y-74315000D01*
X163790302Y-74411673D01*
X163611673Y-74590301D01*
X163515000Y-74823690D01*
X163463558Y-74823690D01*
X163450577Y-74754706D01*
X163335158Y-74575340D01*
X163159049Y-74455010D01*
X162950000Y-74412676D01*
X162250000Y-74412676D01*
X162054706Y-74449423D01*
X161875340Y-74564842D01*
X161755010Y-74740951D01*
X161738394Y-74823000D01*
X160772804Y-74823000D01*
X160771156Y-74819011D01*
X160482508Y-74529860D01*
X160105179Y-74373179D01*
X159696613Y-74372822D01*
X159319011Y-74528844D01*
X159029860Y-74817492D01*
X158873179Y-75194821D01*
X158872822Y-75603387D01*
X156453763Y-75603387D01*
X156773787Y-75471156D01*
X157062938Y-75182508D01*
X157219619Y-74805179D01*
X157219976Y-74396613D01*
X157063954Y-74019011D01*
X156775306Y-73729860D01*
X156397977Y-73573179D01*
X155989411Y-73572822D01*
X155611809Y-73728844D01*
X155517489Y-73823000D01*
X155459842Y-73823000D01*
X155349103Y-73712261D01*
X155782417Y-73533219D01*
X156141957Y-73174307D01*
X156336778Y-72705125D01*
X156337221Y-72197103D01*
X156143219Y-71727583D01*
X155784307Y-71368043D01*
X155315125Y-71173222D01*
X154807103Y-71172779D01*
X154337583Y-71366781D01*
X153978043Y-71725693D01*
X153797451Y-72160609D01*
X153777000Y-72140158D01*
X153777000Y-71200000D01*
X153717854Y-70902655D01*
X153549422Y-70650578D01*
X152675844Y-69777000D01*
X166623000Y-69777000D01*
X166623000Y-117623000D01*
X129827000Y-117623000D01*
X129827000Y-103803387D01*
X134172822Y-103803387D01*
X134328844Y-104180989D01*
X134423000Y-104275309D01*
X134423000Y-108900000D01*
X134482146Y-109197345D01*
X134650578Y-109449422D01*
X139950578Y-114749422D01*
X140202655Y-114917854D01*
X140500000Y-114977000D01*
X145955000Y-114977000D01*
X146252345Y-114917854D01*
X146504422Y-114749422D01*
X147106844Y-114147000D01*
X147648710Y-114147000D01*
X147675000Y-114152324D01*
X151275000Y-114152324D01*
X151470294Y-114115577D01*
X151649660Y-114000158D01*
X151769990Y-113824049D01*
X151812324Y-113615000D01*
X151812324Y-113467284D01*
X151887074Y-113392534D01*
X151985736Y-113659387D01*
X152595461Y-113885908D01*
X153245460Y-113861856D01*
X153734264Y-113659387D01*
X153832926Y-113392534D01*
X153942266Y-113501874D01*
X154014842Y-113614660D01*
X154190951Y-113734990D01*
X154400000Y-113777324D01*
X156400000Y-113777324D01*
X156595294Y-113740577D01*
X156774660Y-113625158D01*
X156894990Y-113449049D01*
X156937324Y-113240000D01*
X156937324Y-111240000D01*
X156900577Y-111044706D01*
X156785158Y-110865340D01*
X156609049Y-110745010D01*
X156530492Y-110729102D01*
X156693773Y-110566106D01*
X156926735Y-110005072D01*
X156927265Y-109397593D01*
X156695283Y-108836154D01*
X156289506Y-108429668D01*
X156693773Y-108026106D01*
X156926735Y-107465072D01*
X156927265Y-106857593D01*
X156695283Y-106296154D01*
X156289506Y-105889668D01*
X156693773Y-105486106D01*
X156822125Y-105177000D01*
X158124514Y-105177000D01*
X158217492Y-105270140D01*
X158594821Y-105426821D01*
X159003387Y-105427178D01*
X159380989Y-105271156D01*
X159670140Y-104982508D01*
X159826821Y-104605179D01*
X159827178Y-104196613D01*
X159671156Y-103819011D01*
X159382508Y-103529860D01*
X159005179Y-103373179D01*
X158596613Y-103372822D01*
X158219011Y-103528844D01*
X158124691Y-103623000D01*
X156562361Y-103623000D01*
X156266106Y-103326227D01*
X155705072Y-103093265D01*
X155097593Y-103092735D01*
X154536154Y-103324717D01*
X154129668Y-103730494D01*
X153726106Y-103326227D01*
X153165072Y-103093265D01*
X152557593Y-103092735D01*
X151996154Y-103324717D01*
X151566227Y-103753894D01*
X151426612Y-104090125D01*
X151426310Y-104090000D01*
X149785750Y-104090000D01*
X149627000Y-104248750D01*
X149627000Y-105233000D01*
X149647000Y-105233000D01*
X149647000Y-105487000D01*
X149627000Y-105487000D01*
X149627000Y-106471250D01*
X149785750Y-106630000D01*
X151426310Y-106630000D01*
X151426737Y-106629823D01*
X151379426Y-106743760D01*
X151300000Y-106727676D01*
X147723090Y-106727676D01*
X147700000Y-106723000D01*
X145427000Y-106723000D01*
X145427000Y-106045981D01*
X145437324Y-105995000D01*
X145437324Y-105645750D01*
X147065000Y-105645750D01*
X147065000Y-106121309D01*
X147161673Y-106354698D01*
X147340301Y-106533327D01*
X147573690Y-106630000D01*
X149214250Y-106630000D01*
X149373000Y-106471250D01*
X149373000Y-105487000D01*
X147223750Y-105487000D01*
X147065000Y-105645750D01*
X145437324Y-105645750D01*
X145437324Y-104725000D01*
X145413558Y-104598691D01*
X147065000Y-104598691D01*
X147065000Y-105074250D01*
X147223750Y-105233000D01*
X149373000Y-105233000D01*
X149373000Y-104248750D01*
X149214250Y-104090000D01*
X147573690Y-104090000D01*
X147340301Y-104186673D01*
X147161673Y-104365302D01*
X147065000Y-104598691D01*
X145413558Y-104598691D01*
X145400577Y-104529706D01*
X145285158Y-104350340D01*
X145109049Y-104230010D01*
X144900000Y-104187676D01*
X141300000Y-104187676D01*
X141104706Y-104224423D01*
X140925340Y-104339842D01*
X140805010Y-104515951D01*
X140762676Y-104725000D01*
X140762676Y-105763832D01*
X140577000Y-105578156D01*
X140577000Y-100532198D01*
X140650578Y-100642316D01*
X140799315Y-100791053D01*
X140673179Y-101094821D01*
X140672822Y-101503387D01*
X140828844Y-101880989D01*
X141117492Y-102170140D01*
X141494821Y-102326821D01*
X141903387Y-102327178D01*
X142280989Y-102171156D01*
X142570140Y-101882508D01*
X142726821Y-101505179D01*
X142727178Y-101096613D01*
X142571156Y-100719011D01*
X142477000Y-100624691D01*
X142477000Y-100592894D01*
X142417854Y-100295549D01*
X142249422Y-100043472D01*
X141977000Y-99771050D01*
X141977000Y-98253387D01*
X149022822Y-98253387D01*
X149178844Y-98630989D01*
X149467492Y-98920140D01*
X149844821Y-99076821D01*
X150253387Y-99077178D01*
X150597486Y-98934999D01*
X150599423Y-98945294D01*
X150714842Y-99124660D01*
X150890951Y-99244990D01*
X151100000Y-99287324D01*
X152000000Y-99287324D01*
X152195294Y-99250577D01*
X152374660Y-99135158D01*
X152494990Y-98959049D01*
X152537324Y-98750000D01*
X152537324Y-97050000D01*
X152500577Y-96854706D01*
X152385158Y-96675340D01*
X152209049Y-96555010D01*
X152000000Y-96512676D01*
X151100000Y-96512676D01*
X150904706Y-96549423D01*
X150725340Y-96664842D01*
X150605010Y-96840951D01*
X150562676Y-97050000D01*
X150562676Y-97123000D01*
X150495574Y-97123000D01*
X150255179Y-97023179D01*
X149846613Y-97022822D01*
X149469011Y-97178844D01*
X149179860Y-97467492D01*
X149023179Y-97844821D01*
X149022822Y-98253387D01*
X141977000Y-98253387D01*
X141977000Y-94603387D01*
X144272820Y-94603387D01*
X144428842Y-94980989D01*
X144717490Y-95270140D01*
X145094819Y-95426821D01*
X145503385Y-95427178D01*
X145880987Y-95271156D01*
X145975307Y-95177000D01*
X153073474Y-95177000D01*
X153069011Y-95178844D01*
X152779860Y-95467492D01*
X152623179Y-95844821D01*
X152622822Y-96253387D01*
X152778844Y-96630989D01*
X153067492Y-96920140D01*
X153444821Y-97076821D01*
X153462676Y-97076837D01*
X153462676Y-98750000D01*
X153499423Y-98945294D01*
X153614842Y-99124660D01*
X153790951Y-99244990D01*
X154000000Y-99287324D01*
X154900000Y-99287324D01*
X155095294Y-99250577D01*
X155274660Y-99135158D01*
X155394990Y-98959049D01*
X155428145Y-98795325D01*
X155744821Y-98926821D01*
X156153387Y-98927178D01*
X156530989Y-98771156D01*
X156820140Y-98482508D01*
X156976821Y-98105179D01*
X156977178Y-97696613D01*
X156821156Y-97319011D01*
X156532508Y-97029860D01*
X156155179Y-96873179D01*
X155746613Y-96872822D01*
X155428702Y-97004180D01*
X155400577Y-96854706D01*
X155382749Y-96827000D01*
X156184013Y-96827000D01*
X156544821Y-96976821D01*
X156953387Y-96977178D01*
X157330989Y-96821156D01*
X157620140Y-96532508D01*
X157776821Y-96155179D01*
X157777178Y-95746613D01*
X157621156Y-95369011D01*
X157332508Y-95079860D01*
X156955179Y-94923179D01*
X156546613Y-94922822D01*
X156169011Y-95078844D01*
X155974517Y-95273000D01*
X154376520Y-95273000D01*
X154380983Y-95271156D01*
X154670134Y-94982508D01*
X154826815Y-94605179D01*
X154827172Y-94196613D01*
X154671150Y-93819011D01*
X154382502Y-93529860D01*
X154005173Y-93373179D01*
X153596607Y-93372822D01*
X153219005Y-93528844D01*
X153124685Y-93623000D01*
X145975484Y-93623000D01*
X145882506Y-93529860D01*
X145505177Y-93373179D01*
X145096611Y-93372822D01*
X144719009Y-93528844D01*
X144429858Y-93817492D01*
X144273177Y-94194821D01*
X144272820Y-94603387D01*
X141977000Y-94603387D01*
X141977000Y-92821844D01*
X143308790Y-91490054D01*
X158972528Y-91490054D01*
X159386814Y-92492703D01*
X160153262Y-93260490D01*
X161155186Y-93676526D01*
X162240054Y-93677472D01*
X163242703Y-93263186D01*
X164010490Y-92496738D01*
X164426526Y-91494814D01*
X164427472Y-90409946D01*
X164013186Y-89407297D01*
X163246738Y-88639510D01*
X162244814Y-88223474D01*
X161159946Y-88222528D01*
X160157297Y-88636814D01*
X159389510Y-89403262D01*
X158973474Y-90405186D01*
X158972528Y-91490054D01*
X143308790Y-91490054D01*
X144763098Y-90035746D01*
X146038989Y-90035746D01*
X146131967Y-90128886D01*
X146509296Y-90285567D01*
X146917862Y-90285924D01*
X147295464Y-90129902D01*
X147422690Y-90002897D01*
X153782779Y-90002897D01*
X153976781Y-90472417D01*
X154335693Y-90831957D01*
X154804875Y-91026778D01*
X155312897Y-91027221D01*
X155782417Y-90833219D01*
X156141957Y-90474307D01*
X156336778Y-90005125D01*
X156337221Y-89497103D01*
X156143219Y-89027583D01*
X155784307Y-88668043D01*
X155315125Y-88473222D01*
X154807103Y-88472779D01*
X154337583Y-88666781D01*
X153978043Y-89025693D01*
X153783222Y-89494875D01*
X153782779Y-90002897D01*
X147422690Y-90002897D01*
X147584615Y-89841254D01*
X147741296Y-89463925D01*
X147741653Y-89055359D01*
X147585631Y-88677757D01*
X147296983Y-88388606D01*
X146919654Y-88231925D01*
X146511088Y-88231568D01*
X146133486Y-88387590D01*
X146039166Y-88481746D01*
X144441254Y-88481746D01*
X144143909Y-88540892D01*
X143891832Y-88709324D01*
X140650578Y-91950578D01*
X140482146Y-92202655D01*
X140423000Y-92500000D01*
X140423000Y-95456676D01*
X140349422Y-95346558D01*
X138027063Y-93024199D01*
X138027178Y-92892593D01*
X137871156Y-92514991D01*
X137582508Y-92225840D01*
X137205179Y-92069159D01*
X136796613Y-92068802D01*
X136419011Y-92224824D01*
X136129860Y-92513472D01*
X135973179Y-92890801D01*
X135972822Y-93299367D01*
X136128844Y-93676969D01*
X136417492Y-93966120D01*
X136794821Y-94122801D01*
X136928093Y-94122917D01*
X139023000Y-96217824D01*
X139023000Y-96858709D01*
X138953423Y-96754579D01*
X138127063Y-95928219D01*
X138127178Y-95796613D01*
X137971156Y-95419011D01*
X137682508Y-95129860D01*
X137305179Y-94973179D01*
X136896613Y-94972822D01*
X136519011Y-95128844D01*
X136229860Y-95417492D01*
X136073179Y-95794821D01*
X136072822Y-96203387D01*
X136228844Y-96580989D01*
X136517492Y-96870140D01*
X136894821Y-97026821D01*
X137028093Y-97026937D01*
X137627001Y-97625845D01*
X137627001Y-105182240D01*
X137605179Y-105173179D01*
X137196613Y-105172822D01*
X137077000Y-105222245D01*
X137077000Y-99108148D01*
X137142537Y-99010065D01*
X137170142Y-98982508D01*
X137185232Y-98946168D01*
X137217854Y-98897345D01*
X137229209Y-98840258D01*
X137326823Y-98605179D01*
X137327180Y-98196613D01*
X137171158Y-97819011D01*
X136882510Y-97529860D01*
X136505181Y-97373179D01*
X136096615Y-97372822D01*
X135719013Y-97528844D01*
X135429862Y-97817492D01*
X135273181Y-98194821D01*
X135272824Y-98603387D01*
X135428846Y-98980989D01*
X135523002Y-99075309D01*
X135523002Y-99107098D01*
X135523000Y-99107108D01*
X135523000Y-102622103D01*
X135405179Y-102573179D01*
X134996613Y-102572822D01*
X134619011Y-102728844D01*
X134329860Y-103017492D01*
X134173179Y-103394821D01*
X134172822Y-103803387D01*
X129827000Y-103803387D01*
X129827000Y-98900000D01*
X129818315Y-98853841D01*
X129791035Y-98811447D01*
X129749410Y-98783006D01*
X129700000Y-98773000D01*
X118777000Y-98773000D01*
X118777000Y-85363499D01*
X118928844Y-85730989D01*
X119023000Y-85825309D01*
X119023000Y-86600000D01*
X119082146Y-86897345D01*
X119250578Y-87149422D01*
X120550578Y-88449422D01*
X120802655Y-88617854D01*
X121100000Y-88677000D01*
X132327346Y-88677000D01*
X131978043Y-89025693D01*
X131783222Y-89494875D01*
X131782779Y-90002897D01*
X131976781Y-90472417D01*
X132335693Y-90831957D01*
X132804875Y-91026778D01*
X133312897Y-91027221D01*
X133782417Y-90833219D01*
X134141957Y-90474307D01*
X134336778Y-90005125D01*
X134337221Y-89497103D01*
X134143219Y-89027583D01*
X133793248Y-88677000D01*
X134200000Y-88677000D01*
X134497345Y-88617854D01*
X134749422Y-88449422D01*
X135149422Y-88049422D01*
X135317854Y-87797345D01*
X135377000Y-87500000D01*
X135377000Y-86175486D01*
X135449216Y-86103395D01*
X146022822Y-86103395D01*
X146178844Y-86480997D01*
X146467492Y-86770148D01*
X146844821Y-86926829D01*
X146978093Y-86926945D01*
X148650570Y-88599422D01*
X148902647Y-88767854D01*
X149043425Y-88795857D01*
X149167492Y-88920140D01*
X149544821Y-89076821D01*
X149953387Y-89077178D01*
X150330989Y-88921156D01*
X150620140Y-88632508D01*
X150776821Y-88255179D01*
X150777178Y-87846613D01*
X150621156Y-87469011D01*
X150332508Y-87179860D01*
X149955179Y-87023179D01*
X149546613Y-87022822D01*
X149352050Y-87103214D01*
X148077063Y-85828227D01*
X148077178Y-85696621D01*
X147921156Y-85319019D01*
X147632508Y-85029868D01*
X147255179Y-84873187D01*
X146846613Y-84872830D01*
X146469011Y-85028852D01*
X146179860Y-85317500D01*
X146023179Y-85694829D01*
X146022822Y-86103395D01*
X135449216Y-86103395D01*
X135470140Y-86082508D01*
X135626821Y-85705179D01*
X135627178Y-85296613D01*
X135471156Y-84919011D01*
X135182508Y-84629860D01*
X134805179Y-84473179D01*
X134396613Y-84472822D01*
X134019011Y-84628844D01*
X133911416Y-84736252D01*
X133849422Y-84643472D01*
X133148357Y-83942407D01*
X142532735Y-83942407D01*
X142764717Y-84503846D01*
X143193894Y-84933773D01*
X143754928Y-85166735D01*
X144362407Y-85167265D01*
X144923846Y-84935283D01*
X145353773Y-84506106D01*
X145586735Y-83945072D01*
X145587265Y-83337593D01*
X145573132Y-83303387D01*
X150472822Y-83303387D01*
X150628844Y-83680989D01*
X150917492Y-83970140D01*
X151294821Y-84126821D01*
X151703387Y-84127178D01*
X152080989Y-83971156D01*
X152175309Y-83877000D01*
X153500000Y-83877000D01*
X153797345Y-83817854D01*
X154049422Y-83649422D01*
X155071781Y-82627063D01*
X155203387Y-82627178D01*
X155580989Y-82471156D01*
X155870140Y-82182508D01*
X156026821Y-81805179D01*
X156027178Y-81396613D01*
X155871156Y-81019011D01*
X155582508Y-80729860D01*
X155205179Y-80573179D01*
X154796613Y-80572822D01*
X154419011Y-80728844D01*
X154129860Y-81017492D01*
X153973179Y-81394821D01*
X153973063Y-81528093D01*
X153178156Y-82323000D01*
X152175486Y-82323000D01*
X152082508Y-82229860D01*
X151705179Y-82073179D01*
X151296613Y-82072822D01*
X150919011Y-82228844D01*
X150629860Y-82517492D01*
X150473179Y-82894821D01*
X150472822Y-83303387D01*
X145573132Y-83303387D01*
X145355283Y-82776154D01*
X144926106Y-82346227D01*
X144365072Y-82113265D01*
X143757593Y-82112735D01*
X143196154Y-82344717D01*
X142766227Y-82773894D01*
X142533265Y-83334928D01*
X142532735Y-83942407D01*
X133148357Y-83942407D01*
X131458482Y-82252532D01*
X140547073Y-82252532D01*
X140645736Y-82519387D01*
X141255461Y-82745908D01*
X141905460Y-82721856D01*
X142394264Y-82519387D01*
X142492927Y-82252532D01*
X141520000Y-81279605D01*
X140547073Y-82252532D01*
X131458482Y-82252532D01*
X126809337Y-77603387D01*
X128272822Y-77603387D01*
X128428844Y-77980989D01*
X128717492Y-78270140D01*
X129094821Y-78426821D01*
X129228093Y-78426937D01*
X132250576Y-81449420D01*
X132502653Y-81617852D01*
X132799998Y-81676998D01*
X133024514Y-81676998D01*
X133117492Y-81770138D01*
X133494821Y-81926819D01*
X133903387Y-81927176D01*
X134280989Y-81771154D01*
X134570140Y-81482506D01*
X134726821Y-81105177D01*
X134727056Y-80835461D01*
X139874092Y-80835461D01*
X139898144Y-81485460D01*
X140100613Y-81974264D01*
X140367468Y-82072927D01*
X141340395Y-81100000D01*
X141699605Y-81100000D01*
X142672532Y-82072927D01*
X142939387Y-81974264D01*
X143151839Y-81402407D01*
X145072735Y-81402407D01*
X145304717Y-81963846D01*
X145733894Y-82393773D01*
X146294928Y-82626735D01*
X146902407Y-82627265D01*
X147463846Y-82395283D01*
X147893773Y-81966106D01*
X148126735Y-81405072D01*
X148127265Y-80797593D01*
X147895283Y-80236154D01*
X147466106Y-79806227D01*
X146905072Y-79573265D01*
X146297593Y-79572735D01*
X145736154Y-79804717D01*
X145306227Y-80233894D01*
X145073265Y-80794928D01*
X145072735Y-81402407D01*
X143151839Y-81402407D01*
X143165908Y-81364539D01*
X143141856Y-80714540D01*
X142939387Y-80225736D01*
X142672532Y-80127073D01*
X141699605Y-81100000D01*
X141340395Y-81100000D01*
X140367468Y-80127073D01*
X140100613Y-80225736D01*
X139874092Y-80835461D01*
X134727056Y-80835461D01*
X134727178Y-80696611D01*
X134571156Y-80319009D01*
X134282508Y-80029858D01*
X134084092Y-79947468D01*
X140547073Y-79947468D01*
X141520000Y-80920395D01*
X142492927Y-79947468D01*
X142394264Y-79680613D01*
X141784539Y-79454092D01*
X141134540Y-79478144D01*
X140645736Y-79680613D01*
X140547073Y-79947468D01*
X134084092Y-79947468D01*
X133905179Y-79873177D01*
X133496613Y-79872820D01*
X133119011Y-80028842D01*
X133073309Y-80074465D01*
X131902231Y-78903387D01*
X133972822Y-78903387D01*
X134128844Y-79280989D01*
X134417492Y-79570140D01*
X134794821Y-79726821D01*
X135203387Y-79727178D01*
X135580989Y-79571156D01*
X135725396Y-79427000D01*
X136624514Y-79427000D01*
X136717492Y-79520140D01*
X137094821Y-79676821D01*
X137503387Y-79677178D01*
X137880989Y-79521156D01*
X138170140Y-79232508D01*
X138326821Y-78855179D01*
X138327178Y-78446613D01*
X138171156Y-78069011D01*
X137882508Y-77779860D01*
X137505179Y-77623179D01*
X137096613Y-77622822D01*
X136719011Y-77778844D01*
X136624691Y-77873000D01*
X135625573Y-77873000D01*
X135582508Y-77829860D01*
X135205179Y-77673179D01*
X134796613Y-77672822D01*
X134419011Y-77828844D01*
X134129860Y-78117492D01*
X133973179Y-78494821D01*
X133972822Y-78903387D01*
X131902231Y-78903387D01*
X130327063Y-77328219D01*
X130327178Y-77196613D01*
X130171156Y-76819011D01*
X129882508Y-76529860D01*
X129505179Y-76373179D01*
X129096613Y-76372822D01*
X128719011Y-76528844D01*
X128429860Y-76817492D01*
X128273179Y-77194821D01*
X128272822Y-77603387D01*
X126809337Y-77603387D01*
X126006530Y-76800580D01*
X125754453Y-76632148D01*
X125457108Y-76573002D01*
X124975486Y-76573002D01*
X124882508Y-76479862D01*
X124505179Y-76323181D01*
X124096613Y-76322824D01*
X123719011Y-76478846D01*
X123429860Y-76767494D01*
X123273179Y-77144823D01*
X123272822Y-77553389D01*
X123428844Y-77930991D01*
X123712359Y-78215000D01*
X123535750Y-78215000D01*
X123377000Y-78373750D01*
X123377000Y-79373000D01*
X124076250Y-79373000D01*
X124235000Y-79214250D01*
X124235000Y-78723690D01*
X124138327Y-78490301D01*
X123975161Y-78327136D01*
X124094821Y-78376823D01*
X124503387Y-78377180D01*
X124880989Y-78221158D01*
X124975309Y-78127002D01*
X125135264Y-78127002D01*
X125320938Y-78312676D01*
X124800000Y-78312676D01*
X124604706Y-78349423D01*
X124425340Y-78464842D01*
X124305010Y-78640951D01*
X124262676Y-78850000D01*
X124262676Y-80150000D01*
X124299423Y-80345294D01*
X124373000Y-80459636D01*
X124373000Y-80641444D01*
X124305010Y-80740951D01*
X124262676Y-80950000D01*
X124262676Y-82250000D01*
X124299423Y-82445294D01*
X124414842Y-82624660D01*
X124590951Y-82744990D01*
X124800000Y-82787324D01*
X125500000Y-82787324D01*
X125695294Y-82750577D01*
X125874660Y-82635158D01*
X125994990Y-82459049D01*
X126011606Y-82377000D01*
X127635877Y-82377000D01*
X127678844Y-82480989D01*
X127967492Y-82770140D01*
X128344821Y-82926821D01*
X128478093Y-82926937D01*
X128773000Y-83221844D01*
X128773000Y-84484388D01*
X128505179Y-84373179D01*
X128096613Y-84372822D01*
X127719011Y-84528844D01*
X127624691Y-84623000D01*
X124621844Y-84623000D01*
X123827063Y-83828219D01*
X123827178Y-83696613D01*
X123671156Y-83319011D01*
X123382508Y-83029860D01*
X123005179Y-82873179D01*
X122976096Y-82873154D01*
X123123000Y-82726250D01*
X123123000Y-81727000D01*
X123377000Y-81727000D01*
X123377000Y-82726250D01*
X123535750Y-82885000D01*
X123726309Y-82885000D01*
X123959698Y-82788327D01*
X124138327Y-82609699D01*
X124235000Y-82376310D01*
X124235000Y-81885750D01*
X124076250Y-81727000D01*
X123377000Y-81727000D01*
X123123000Y-81727000D01*
X122423750Y-81727000D01*
X122265000Y-81885750D01*
X122265000Y-82376310D01*
X122361673Y-82609699D01*
X122540302Y-82788327D01*
X122744603Y-82872951D01*
X122596613Y-82872822D01*
X122287324Y-83000618D01*
X122287324Y-82650000D01*
X122250577Y-82454706D01*
X122135158Y-82275340D01*
X121959049Y-82155010D01*
X121750000Y-82112676D01*
X120850000Y-82112676D01*
X120795133Y-82123000D01*
X120621844Y-82123000D01*
X120577063Y-82078219D01*
X120577178Y-81946613D01*
X120421156Y-81569011D01*
X120132508Y-81279860D01*
X119755179Y-81123179D01*
X119346613Y-81122822D01*
X118969011Y-81278844D01*
X118777000Y-81470521D01*
X118777000Y-79785750D01*
X122265000Y-79785750D01*
X122265000Y-80276310D01*
X122361673Y-80509699D01*
X122401974Y-80550000D01*
X122361673Y-80590301D01*
X122265000Y-80823690D01*
X122265000Y-81314250D01*
X122423750Y-81473000D01*
X123123000Y-81473000D01*
X123123000Y-79627000D01*
X123377000Y-79627000D01*
X123377000Y-81473000D01*
X124076250Y-81473000D01*
X124235000Y-81314250D01*
X124235000Y-80823690D01*
X124138327Y-80590301D01*
X124098026Y-80550000D01*
X124138327Y-80509699D01*
X124235000Y-80276310D01*
X124235000Y-79785750D01*
X124076250Y-79627000D01*
X123377000Y-79627000D01*
X123123000Y-79627000D01*
X122423750Y-79627000D01*
X122265000Y-79785750D01*
X118777000Y-79785750D01*
X118777000Y-78523499D01*
X118928844Y-78890989D01*
X119217492Y-79180140D01*
X119594821Y-79336821D01*
X119746748Y-79336954D01*
X119942655Y-79467854D01*
X120240000Y-79527000D01*
X120899019Y-79527000D01*
X120950000Y-79537324D01*
X121850000Y-79537324D01*
X122045294Y-79500577D01*
X122224660Y-79385158D01*
X122310409Y-79259659D01*
X122423750Y-79373000D01*
X123123000Y-79373000D01*
X123123000Y-78373750D01*
X122964250Y-78215000D01*
X122773691Y-78215000D01*
X122540302Y-78311673D01*
X122381726Y-78470248D01*
X122350577Y-78304706D01*
X122235158Y-78125340D01*
X122059049Y-78005010D01*
X122041077Y-78001371D01*
X122045294Y-78000577D01*
X122224660Y-77885158D01*
X122344990Y-77709049D01*
X122387324Y-77500000D01*
X122387324Y-77000000D01*
X122350577Y-76804706D01*
X122235158Y-76625340D01*
X122177000Y-76585602D01*
X122177000Y-76465987D01*
X122326821Y-76105179D01*
X122327178Y-75696613D01*
X122171156Y-75319011D01*
X121940992Y-75088446D01*
X122193773Y-74836106D01*
X122426735Y-74275072D01*
X122427265Y-73667593D01*
X122333248Y-73440054D01*
X124072528Y-73440054D01*
X124486814Y-74442703D01*
X125253262Y-75210490D01*
X126255186Y-75626526D01*
X127340054Y-75627472D01*
X128342703Y-75213186D01*
X129110490Y-74446738D01*
X129526526Y-73444814D01*
X129527172Y-72702897D01*
X131782779Y-72702897D01*
X131976781Y-73172417D01*
X132335693Y-73531957D01*
X132804875Y-73726778D01*
X133312897Y-73727221D01*
X133782417Y-73533219D01*
X134141957Y-73174307D01*
X134336778Y-72705125D01*
X134337221Y-72197103D01*
X134143219Y-71727583D01*
X133784307Y-71368043D01*
X133315125Y-71173222D01*
X132807103Y-71172779D01*
X132337583Y-71366781D01*
X131978043Y-71725693D01*
X131783222Y-72194875D01*
X131782779Y-72702897D01*
X129527172Y-72702897D01*
X129527472Y-72359946D01*
X129113186Y-71357297D01*
X128346738Y-70589510D01*
X127344814Y-70173474D01*
X126259946Y-70172528D01*
X125257297Y-70586814D01*
X124489510Y-71353262D01*
X124073474Y-72355186D01*
X124072528Y-73440054D01*
X122333248Y-73440054D01*
X122195283Y-73106154D01*
X121818778Y-72728991D01*
X121872927Y-72582532D01*
X120900000Y-71609605D01*
X119927073Y-72582532D01*
X119981374Y-72729401D01*
X119606227Y-73103894D01*
X119373265Y-73664928D01*
X119372735Y-74272407D01*
X119604717Y-74833846D01*
X120033894Y-75263773D01*
X120390653Y-75411913D01*
X120273179Y-75694821D01*
X120272822Y-76103387D01*
X120428844Y-76480989D01*
X120570108Y-76622499D01*
X120455010Y-76790951D01*
X120412676Y-77000000D01*
X120412676Y-77470081D01*
X120382508Y-77439860D01*
X120005179Y-77283179D01*
X119596613Y-77282822D01*
X119219011Y-77438844D01*
X118929860Y-77727492D01*
X118777000Y-78095619D01*
X118777000Y-71165461D01*
X119254092Y-71165461D01*
X119278144Y-71815460D01*
X119480613Y-72304264D01*
X119747468Y-72402927D01*
X120720395Y-71430000D01*
X121079605Y-71430000D01*
X122052532Y-72402927D01*
X122319387Y-72304264D01*
X122545908Y-71694539D01*
X122521856Y-71044540D01*
X122319387Y-70555736D01*
X122052532Y-70457073D01*
X121079605Y-71430000D01*
X120720395Y-71430000D01*
X119747468Y-70457073D01*
X119480613Y-70555736D01*
X119254092Y-71165461D01*
X118777000Y-71165461D01*
X118777000Y-70277468D01*
X119927073Y-70277468D01*
X120900000Y-71250395D01*
X121872927Y-70277468D01*
X121774264Y-70010613D01*
X121164539Y-69784092D01*
X120514540Y-69808144D01*
X120025736Y-70010613D01*
X119927073Y-70277468D01*
X118777000Y-70277468D01*
X118777000Y-69777000D01*
X135220423Y-69777000D01*
X135179860Y-69817492D01*
X135179860Y-69817492D01*
G37*
X135179860Y-69817492D02*
X135023179Y-70194821D01*
X135022822Y-70603387D01*
X135178844Y-70980989D01*
X135467492Y-71270140D01*
X135844821Y-71426821D01*
X136253387Y-71427178D01*
X136630989Y-71271156D01*
X136920140Y-70982508D01*
X137046998Y-70677001D01*
X141570596Y-70677001D01*
X141429860Y-70817492D01*
X141273179Y-71194821D01*
X141272822Y-71603387D01*
X141428844Y-71980989D01*
X141523000Y-72075309D01*
X141523000Y-72900000D01*
X141582146Y-73197345D01*
X141750578Y-73449422D01*
X144022937Y-75721781D01*
X144022822Y-75853387D01*
X144178844Y-76230989D01*
X144467492Y-76520140D01*
X144844821Y-76676821D01*
X145253387Y-76677178D01*
X145630989Y-76521156D01*
X145920140Y-76232508D01*
X146076821Y-75855179D01*
X146077178Y-75446613D01*
X145921156Y-75069011D01*
X145632508Y-74779860D01*
X145255179Y-74623179D01*
X145121907Y-74623063D01*
X143077000Y-72578156D01*
X143077000Y-72075486D01*
X143170140Y-71982508D01*
X143326821Y-71605179D01*
X143327178Y-71196613D01*
X143171156Y-70819011D01*
X143029393Y-70677001D01*
X151378157Y-70677001D01*
X152223000Y-71521844D01*
X152223000Y-72462002D01*
X152282146Y-72759347D01*
X152450578Y-73011424D01*
X154588576Y-75149422D01*
X154840653Y-75317854D01*
X155137998Y-75377000D01*
X155517312Y-75377000D01*
X155610290Y-75470140D01*
X155987619Y-75626821D01*
X156396185Y-75627178D01*
X156453763Y-75603387D01*
X158872822Y-75603387D01*
X159028844Y-75980989D01*
X159317492Y-76270140D01*
X159694821Y-76426821D01*
X160103387Y-76427178D01*
X160224827Y-76377000D01*
X161736573Y-76377000D01*
X161749423Y-76445294D01*
X161864842Y-76624660D01*
X162040951Y-76744990D01*
X162250000Y-76787324D01*
X162950000Y-76787324D01*
X163145294Y-76750577D01*
X163324660Y-76635158D01*
X163444990Y-76459049D01*
X163487324Y-76250000D01*
X163487324Y-75885750D01*
X163515000Y-75885750D01*
X163515000Y-76376310D01*
X163611673Y-76609699D01*
X163790302Y-76788327D01*
X164023691Y-76885000D01*
X164214250Y-76885000D01*
X164373000Y-76726250D01*
X164373000Y-75727000D01*
X164627000Y-75727000D01*
X164627000Y-76726250D01*
X164785750Y-76885000D01*
X164976309Y-76885000D01*
X165209698Y-76788327D01*
X165388327Y-76609699D01*
X165485000Y-76376310D01*
X165485000Y-75885750D01*
X165326250Y-75727000D01*
X164627000Y-75727000D01*
X164373000Y-75727000D01*
X163673750Y-75727000D01*
X163515000Y-75885750D01*
X163487324Y-75885750D01*
X163487324Y-74950000D01*
X163463558Y-74823690D01*
X163515000Y-74823690D01*
X163515000Y-75314250D01*
X163673750Y-75473000D01*
X164373000Y-75473000D01*
X164373000Y-74473750D01*
X164627000Y-74473750D01*
X164627000Y-75473000D01*
X165326250Y-75473000D01*
X165485000Y-75314250D01*
X165485000Y-74823690D01*
X165388327Y-74590301D01*
X165209698Y-74411673D01*
X164976309Y-74315000D01*
X164785750Y-74315000D01*
X164627000Y-74473750D01*
X164373000Y-74473750D01*
X164214250Y-74315000D01*
X164023691Y-74315000D01*
X163790302Y-74411673D01*
X163611673Y-74590301D01*
X163515000Y-74823690D01*
X163463558Y-74823690D01*
X163450577Y-74754706D01*
X163335158Y-74575340D01*
X163159049Y-74455010D01*
X162950000Y-74412676D01*
X162250000Y-74412676D01*
X162054706Y-74449423D01*
X161875340Y-74564842D01*
X161755010Y-74740951D01*
X161738394Y-74823000D01*
X160772804Y-74823000D01*
X160771156Y-74819011D01*
X160482508Y-74529860D01*
X160105179Y-74373179D01*
X159696613Y-74372822D01*
X159319011Y-74528844D01*
X159029860Y-74817492D01*
X158873179Y-75194821D01*
X158872822Y-75603387D01*
X156453763Y-75603387D01*
X156773787Y-75471156D01*
X157062938Y-75182508D01*
X157219619Y-74805179D01*
X157219976Y-74396613D01*
X157063954Y-74019011D01*
X156775306Y-73729860D01*
X156397977Y-73573179D01*
X155989411Y-73572822D01*
X155611809Y-73728844D01*
X155517489Y-73823000D01*
X155459842Y-73823000D01*
X155349103Y-73712261D01*
X155782417Y-73533219D01*
X156141957Y-73174307D01*
X156336778Y-72705125D01*
X156337221Y-72197103D01*
X156143219Y-71727583D01*
X155784307Y-71368043D01*
X155315125Y-71173222D01*
X154807103Y-71172779D01*
X154337583Y-71366781D01*
X153978043Y-71725693D01*
X153797451Y-72160609D01*
X153777000Y-72140158D01*
X153777000Y-71200000D01*
X153717854Y-70902655D01*
X153549422Y-70650578D01*
X152675844Y-69777000D01*
X166623000Y-69777000D01*
X166623000Y-117623000D01*
X129827000Y-117623000D01*
X129827000Y-103803387D01*
X134172822Y-103803387D01*
X134328844Y-104180989D01*
X134423000Y-104275309D01*
X134423000Y-108900000D01*
X134482146Y-109197345D01*
X134650578Y-109449422D01*
X139950578Y-114749422D01*
X140202655Y-114917854D01*
X140500000Y-114977000D01*
X145955000Y-114977000D01*
X146252345Y-114917854D01*
X146504422Y-114749422D01*
X147106844Y-114147000D01*
X147648710Y-114147000D01*
X147675000Y-114152324D01*
X151275000Y-114152324D01*
X151470294Y-114115577D01*
X151649660Y-114000158D01*
X151769990Y-113824049D01*
X151812324Y-113615000D01*
X151812324Y-113467284D01*
X151887074Y-113392534D01*
X151985736Y-113659387D01*
X152595461Y-113885908D01*
X153245460Y-113861856D01*
X153734264Y-113659387D01*
X153832926Y-113392534D01*
X153942266Y-113501874D01*
X154014842Y-113614660D01*
X154190951Y-113734990D01*
X154400000Y-113777324D01*
X156400000Y-113777324D01*
X156595294Y-113740577D01*
X156774660Y-113625158D01*
X156894990Y-113449049D01*
X156937324Y-113240000D01*
X156937324Y-111240000D01*
X156900577Y-111044706D01*
X156785158Y-110865340D01*
X156609049Y-110745010D01*
X156530492Y-110729102D01*
X156693773Y-110566106D01*
X156926735Y-110005072D01*
X156927265Y-109397593D01*
X156695283Y-108836154D01*
X156289506Y-108429668D01*
X156693773Y-108026106D01*
X156926735Y-107465072D01*
X156927265Y-106857593D01*
X156695283Y-106296154D01*
X156289506Y-105889668D01*
X156693773Y-105486106D01*
X156822125Y-105177000D01*
X158124514Y-105177000D01*
X158217492Y-105270140D01*
X158594821Y-105426821D01*
X159003387Y-105427178D01*
X159380989Y-105271156D01*
X159670140Y-104982508D01*
X159826821Y-104605179D01*
X159827178Y-104196613D01*
X159671156Y-103819011D01*
X159382508Y-103529860D01*
X159005179Y-103373179D01*
X158596613Y-103372822D01*
X158219011Y-103528844D01*
X158124691Y-103623000D01*
X156562361Y-103623000D01*
X156266106Y-103326227D01*
X155705072Y-103093265D01*
X155097593Y-103092735D01*
X154536154Y-103324717D01*
X154129668Y-103730494D01*
X153726106Y-103326227D01*
X153165072Y-103093265D01*
X152557593Y-103092735D01*
X151996154Y-103324717D01*
X151566227Y-103753894D01*
X151426612Y-104090125D01*
X151426310Y-104090000D01*
X149785750Y-104090000D01*
X149627000Y-104248750D01*
X149627000Y-105233000D01*
X149647000Y-105233000D01*
X149647000Y-105487000D01*
X149627000Y-105487000D01*
X149627000Y-106471250D01*
X149785750Y-106630000D01*
X151426310Y-106630000D01*
X151426737Y-106629823D01*
X151379426Y-106743760D01*
X151300000Y-106727676D01*
X147723090Y-106727676D01*
X147700000Y-106723000D01*
X145427000Y-106723000D01*
X145427000Y-106045981D01*
X145437324Y-105995000D01*
X145437324Y-105645750D01*
X147065000Y-105645750D01*
X147065000Y-106121309D01*
X147161673Y-106354698D01*
X147340301Y-106533327D01*
X147573690Y-106630000D01*
X149214250Y-106630000D01*
X149373000Y-106471250D01*
X149373000Y-105487000D01*
X147223750Y-105487000D01*
X147065000Y-105645750D01*
X145437324Y-105645750D01*
X145437324Y-104725000D01*
X145413558Y-104598691D01*
X147065000Y-104598691D01*
X147065000Y-105074250D01*
X147223750Y-105233000D01*
X149373000Y-105233000D01*
X149373000Y-104248750D01*
X149214250Y-104090000D01*
X147573690Y-104090000D01*
X147340301Y-104186673D01*
X147161673Y-104365302D01*
X147065000Y-104598691D01*
X145413558Y-104598691D01*
X145400577Y-104529706D01*
X145285158Y-104350340D01*
X145109049Y-104230010D01*
X144900000Y-104187676D01*
X141300000Y-104187676D01*
X141104706Y-104224423D01*
X140925340Y-104339842D01*
X140805010Y-104515951D01*
X140762676Y-104725000D01*
X140762676Y-105763832D01*
X140577000Y-105578156D01*
X140577000Y-100532198D01*
X140650578Y-100642316D01*
X140799315Y-100791053D01*
X140673179Y-101094821D01*
X140672822Y-101503387D01*
X140828844Y-101880989D01*
X141117492Y-102170140D01*
X141494821Y-102326821D01*
X141903387Y-102327178D01*
X142280989Y-102171156D01*
X142570140Y-101882508D01*
X142726821Y-101505179D01*
X142727178Y-101096613D01*
X142571156Y-100719011D01*
X142477000Y-100624691D01*
X142477000Y-100592894D01*
X142417854Y-100295549D01*
X142249422Y-100043472D01*
X141977000Y-99771050D01*
X141977000Y-98253387D01*
X149022822Y-98253387D01*
X149178844Y-98630989D01*
X149467492Y-98920140D01*
X149844821Y-99076821D01*
X150253387Y-99077178D01*
X150597486Y-98934999D01*
X150599423Y-98945294D01*
X150714842Y-99124660D01*
X150890951Y-99244990D01*
X151100000Y-99287324D01*
X152000000Y-99287324D01*
X152195294Y-99250577D01*
X152374660Y-99135158D01*
X152494990Y-98959049D01*
X152537324Y-98750000D01*
X152537324Y-97050000D01*
X152500577Y-96854706D01*
X152385158Y-96675340D01*
X152209049Y-96555010D01*
X152000000Y-96512676D01*
X151100000Y-96512676D01*
X150904706Y-96549423D01*
X150725340Y-96664842D01*
X150605010Y-96840951D01*
X150562676Y-97050000D01*
X150562676Y-97123000D01*
X150495574Y-97123000D01*
X150255179Y-97023179D01*
X149846613Y-97022822D01*
X149469011Y-97178844D01*
X149179860Y-97467492D01*
X149023179Y-97844821D01*
X149022822Y-98253387D01*
X141977000Y-98253387D01*
X141977000Y-94603387D01*
X144272820Y-94603387D01*
X144428842Y-94980989D01*
X144717490Y-95270140D01*
X145094819Y-95426821D01*
X145503385Y-95427178D01*
X145880987Y-95271156D01*
X145975307Y-95177000D01*
X153073474Y-95177000D01*
X153069011Y-95178844D01*
X152779860Y-95467492D01*
X152623179Y-95844821D01*
X152622822Y-96253387D01*
X152778844Y-96630989D01*
X153067492Y-96920140D01*
X153444821Y-97076821D01*
X153462676Y-97076837D01*
X153462676Y-98750000D01*
X153499423Y-98945294D01*
X153614842Y-99124660D01*
X153790951Y-99244990D01*
X154000000Y-99287324D01*
X154900000Y-99287324D01*
X155095294Y-99250577D01*
X155274660Y-99135158D01*
X155394990Y-98959049D01*
X155428145Y-98795325D01*
X155744821Y-98926821D01*
X156153387Y-98927178D01*
X156530989Y-98771156D01*
X156820140Y-98482508D01*
X156976821Y-98105179D01*
X156977178Y-97696613D01*
X156821156Y-97319011D01*
X156532508Y-97029860D01*
X156155179Y-96873179D01*
X155746613Y-96872822D01*
X155428702Y-97004180D01*
X155400577Y-96854706D01*
X155382749Y-96827000D01*
X156184013Y-96827000D01*
X156544821Y-96976821D01*
X156953387Y-96977178D01*
X157330989Y-96821156D01*
X157620140Y-96532508D01*
X157776821Y-96155179D01*
X157777178Y-95746613D01*
X157621156Y-95369011D01*
X157332508Y-95079860D01*
X156955179Y-94923179D01*
X156546613Y-94922822D01*
X156169011Y-95078844D01*
X155974517Y-95273000D01*
X154376520Y-95273000D01*
X154380983Y-95271156D01*
X154670134Y-94982508D01*
X154826815Y-94605179D01*
X154827172Y-94196613D01*
X154671150Y-93819011D01*
X154382502Y-93529860D01*
X154005173Y-93373179D01*
X153596607Y-93372822D01*
X153219005Y-93528844D01*
X153124685Y-93623000D01*
X145975484Y-93623000D01*
X145882506Y-93529860D01*
X145505177Y-93373179D01*
X145096611Y-93372822D01*
X144719009Y-93528844D01*
X144429858Y-93817492D01*
X144273177Y-94194821D01*
X144272820Y-94603387D01*
X141977000Y-94603387D01*
X141977000Y-92821844D01*
X143308790Y-91490054D01*
X158972528Y-91490054D01*
X159386814Y-92492703D01*
X160153262Y-93260490D01*
X161155186Y-93676526D01*
X162240054Y-93677472D01*
X163242703Y-93263186D01*
X164010490Y-92496738D01*
X164426526Y-91494814D01*
X164427472Y-90409946D01*
X164013186Y-89407297D01*
X163246738Y-88639510D01*
X162244814Y-88223474D01*
X161159946Y-88222528D01*
X160157297Y-88636814D01*
X159389510Y-89403262D01*
X158973474Y-90405186D01*
X158972528Y-91490054D01*
X143308790Y-91490054D01*
X144763098Y-90035746D01*
X146038989Y-90035746D01*
X146131967Y-90128886D01*
X146509296Y-90285567D01*
X146917862Y-90285924D01*
X147295464Y-90129902D01*
X147422690Y-90002897D01*
X153782779Y-90002897D01*
X153976781Y-90472417D01*
X154335693Y-90831957D01*
X154804875Y-91026778D01*
X155312897Y-91027221D01*
X155782417Y-90833219D01*
X156141957Y-90474307D01*
X156336778Y-90005125D01*
X156337221Y-89497103D01*
X156143219Y-89027583D01*
X155784307Y-88668043D01*
X155315125Y-88473222D01*
X154807103Y-88472779D01*
X154337583Y-88666781D01*
X153978043Y-89025693D01*
X153783222Y-89494875D01*
X153782779Y-90002897D01*
X147422690Y-90002897D01*
X147584615Y-89841254D01*
X147741296Y-89463925D01*
X147741653Y-89055359D01*
X147585631Y-88677757D01*
X147296983Y-88388606D01*
X146919654Y-88231925D01*
X146511088Y-88231568D01*
X146133486Y-88387590D01*
X146039166Y-88481746D01*
X144441254Y-88481746D01*
X144143909Y-88540892D01*
X143891832Y-88709324D01*
X140650578Y-91950578D01*
X140482146Y-92202655D01*
X140423000Y-92500000D01*
X140423000Y-95456676D01*
X140349422Y-95346558D01*
X138027063Y-93024199D01*
X138027178Y-92892593D01*
X137871156Y-92514991D01*
X137582508Y-92225840D01*
X137205179Y-92069159D01*
X136796613Y-92068802D01*
X136419011Y-92224824D01*
X136129860Y-92513472D01*
X135973179Y-92890801D01*
X135972822Y-93299367D01*
X136128844Y-93676969D01*
X136417492Y-93966120D01*
X136794821Y-94122801D01*
X136928093Y-94122917D01*
X139023000Y-96217824D01*
X139023000Y-96858709D01*
X138953423Y-96754579D01*
X138127063Y-95928219D01*
X138127178Y-95796613D01*
X137971156Y-95419011D01*
X137682508Y-95129860D01*
X137305179Y-94973179D01*
X136896613Y-94972822D01*
X136519011Y-95128844D01*
X136229860Y-95417492D01*
X136073179Y-95794821D01*
X136072822Y-96203387D01*
X136228844Y-96580989D01*
X136517492Y-96870140D01*
X136894821Y-97026821D01*
X137028093Y-97026937D01*
X137627001Y-97625845D01*
X137627001Y-105182240D01*
X137605179Y-105173179D01*
X137196613Y-105172822D01*
X137077000Y-105222245D01*
X137077000Y-99108148D01*
X137142537Y-99010065D01*
X137170142Y-98982508D01*
X137185232Y-98946168D01*
X137217854Y-98897345D01*
X137229209Y-98840258D01*
X137326823Y-98605179D01*
X137327180Y-98196613D01*
X137171158Y-97819011D01*
X136882510Y-97529860D01*
X136505181Y-97373179D01*
X136096615Y-97372822D01*
X135719013Y-97528844D01*
X135429862Y-97817492D01*
X135273181Y-98194821D01*
X135272824Y-98603387D01*
X135428846Y-98980989D01*
X135523002Y-99075309D01*
X135523002Y-99107098D01*
X135523000Y-99107108D01*
X135523000Y-102622103D01*
X135405179Y-102573179D01*
X134996613Y-102572822D01*
X134619011Y-102728844D01*
X134329860Y-103017492D01*
X134173179Y-103394821D01*
X134172822Y-103803387D01*
X129827000Y-103803387D01*
X129827000Y-98900000D01*
X129818315Y-98853841D01*
X129791035Y-98811447D01*
X129749410Y-98783006D01*
X129700000Y-98773000D01*
X118777000Y-98773000D01*
X118777000Y-85363499D01*
X118928844Y-85730989D01*
X119023000Y-85825309D01*
X119023000Y-86600000D01*
X119082146Y-86897345D01*
X119250578Y-87149422D01*
X120550578Y-88449422D01*
X120802655Y-88617854D01*
X121100000Y-88677000D01*
X132327346Y-88677000D01*
X131978043Y-89025693D01*
X131783222Y-89494875D01*
X131782779Y-90002897D01*
X131976781Y-90472417D01*
X132335693Y-90831957D01*
X132804875Y-91026778D01*
X133312897Y-91027221D01*
X133782417Y-90833219D01*
X134141957Y-90474307D01*
X134336778Y-90005125D01*
X134337221Y-89497103D01*
X134143219Y-89027583D01*
X133793248Y-88677000D01*
X134200000Y-88677000D01*
X134497345Y-88617854D01*
X134749422Y-88449422D01*
X135149422Y-88049422D01*
X135317854Y-87797345D01*
X135377000Y-87500000D01*
X135377000Y-86175486D01*
X135449216Y-86103395D01*
X146022822Y-86103395D01*
X146178844Y-86480997D01*
X146467492Y-86770148D01*
X146844821Y-86926829D01*
X146978093Y-86926945D01*
X148650570Y-88599422D01*
X148902647Y-88767854D01*
X149043425Y-88795857D01*
X149167492Y-88920140D01*
X149544821Y-89076821D01*
X149953387Y-89077178D01*
X150330989Y-88921156D01*
X150620140Y-88632508D01*
X150776821Y-88255179D01*
X150777178Y-87846613D01*
X150621156Y-87469011D01*
X150332508Y-87179860D01*
X149955179Y-87023179D01*
X149546613Y-87022822D01*
X149352050Y-87103214D01*
X148077063Y-85828227D01*
X148077178Y-85696621D01*
X147921156Y-85319019D01*
X147632508Y-85029868D01*
X147255179Y-84873187D01*
X146846613Y-84872830D01*
X146469011Y-85028852D01*
X146179860Y-85317500D01*
X146023179Y-85694829D01*
X146022822Y-86103395D01*
X135449216Y-86103395D01*
X135470140Y-86082508D01*
X135626821Y-85705179D01*
X135627178Y-85296613D01*
X135471156Y-84919011D01*
X135182508Y-84629860D01*
X134805179Y-84473179D01*
X134396613Y-84472822D01*
X134019011Y-84628844D01*
X133911416Y-84736252D01*
X133849422Y-84643472D01*
X133148357Y-83942407D01*
X142532735Y-83942407D01*
X142764717Y-84503846D01*
X143193894Y-84933773D01*
X143754928Y-85166735D01*
X144362407Y-85167265D01*
X144923846Y-84935283D01*
X145353773Y-84506106D01*
X145586735Y-83945072D01*
X145587265Y-83337593D01*
X145573132Y-83303387D01*
X150472822Y-83303387D01*
X150628844Y-83680989D01*
X150917492Y-83970140D01*
X151294821Y-84126821D01*
X151703387Y-84127178D01*
X152080989Y-83971156D01*
X152175309Y-83877000D01*
X153500000Y-83877000D01*
X153797345Y-83817854D01*
X154049422Y-83649422D01*
X155071781Y-82627063D01*
X155203387Y-82627178D01*
X155580989Y-82471156D01*
X155870140Y-82182508D01*
X156026821Y-81805179D01*
X156027178Y-81396613D01*
X155871156Y-81019011D01*
X155582508Y-80729860D01*
X155205179Y-80573179D01*
X154796613Y-80572822D01*
X154419011Y-80728844D01*
X154129860Y-81017492D01*
X153973179Y-81394821D01*
X153973063Y-81528093D01*
X153178156Y-82323000D01*
X152175486Y-82323000D01*
X152082508Y-82229860D01*
X151705179Y-82073179D01*
X151296613Y-82072822D01*
X150919011Y-82228844D01*
X150629860Y-82517492D01*
X150473179Y-82894821D01*
X150472822Y-83303387D01*
X145573132Y-83303387D01*
X145355283Y-82776154D01*
X144926106Y-82346227D01*
X144365072Y-82113265D01*
X143757593Y-82112735D01*
X143196154Y-82344717D01*
X142766227Y-82773894D01*
X142533265Y-83334928D01*
X142532735Y-83942407D01*
X133148357Y-83942407D01*
X131458482Y-82252532D01*
X140547073Y-82252532D01*
X140645736Y-82519387D01*
X141255461Y-82745908D01*
X141905460Y-82721856D01*
X142394264Y-82519387D01*
X142492927Y-82252532D01*
X141520000Y-81279605D01*
X140547073Y-82252532D01*
X131458482Y-82252532D01*
X126809337Y-77603387D01*
X128272822Y-77603387D01*
X128428844Y-77980989D01*
X128717492Y-78270140D01*
X129094821Y-78426821D01*
X129228093Y-78426937D01*
X132250576Y-81449420D01*
X132502653Y-81617852D01*
X132799998Y-81676998D01*
X133024514Y-81676998D01*
X133117492Y-81770138D01*
X133494821Y-81926819D01*
X133903387Y-81927176D01*
X134280989Y-81771154D01*
X134570140Y-81482506D01*
X134726821Y-81105177D01*
X134727056Y-80835461D01*
X139874092Y-80835461D01*
X139898144Y-81485460D01*
X140100613Y-81974264D01*
X140367468Y-82072927D01*
X141340395Y-81100000D01*
X141699605Y-81100000D01*
X142672532Y-82072927D01*
X142939387Y-81974264D01*
X143151839Y-81402407D01*
X145072735Y-81402407D01*
X145304717Y-81963846D01*
X145733894Y-82393773D01*
X146294928Y-82626735D01*
X146902407Y-82627265D01*
X147463846Y-82395283D01*
X147893773Y-81966106D01*
X148126735Y-81405072D01*
X148127265Y-80797593D01*
X147895283Y-80236154D01*
X147466106Y-79806227D01*
X146905072Y-79573265D01*
X146297593Y-79572735D01*
X145736154Y-79804717D01*
X145306227Y-80233894D01*
X145073265Y-80794928D01*
X145072735Y-81402407D01*
X143151839Y-81402407D01*
X143165908Y-81364539D01*
X143141856Y-80714540D01*
X142939387Y-80225736D01*
X142672532Y-80127073D01*
X141699605Y-81100000D01*
X141340395Y-81100000D01*
X140367468Y-80127073D01*
X140100613Y-80225736D01*
X139874092Y-80835461D01*
X134727056Y-80835461D01*
X134727178Y-80696611D01*
X134571156Y-80319009D01*
X134282508Y-80029858D01*
X134084092Y-79947468D01*
X140547073Y-79947468D01*
X141520000Y-80920395D01*
X142492927Y-79947468D01*
X142394264Y-79680613D01*
X141784539Y-79454092D01*
X141134540Y-79478144D01*
X140645736Y-79680613D01*
X140547073Y-79947468D01*
X134084092Y-79947468D01*
X133905179Y-79873177D01*
X133496613Y-79872820D01*
X133119011Y-80028842D01*
X133073309Y-80074465D01*
X131902231Y-78903387D01*
X133972822Y-78903387D01*
X134128844Y-79280989D01*
X134417492Y-79570140D01*
X134794821Y-79726821D01*
X135203387Y-79727178D01*
X135580989Y-79571156D01*
X135725396Y-79427000D01*
X136624514Y-79427000D01*
X136717492Y-79520140D01*
X137094821Y-79676821D01*
X137503387Y-79677178D01*
X137880989Y-79521156D01*
X138170140Y-79232508D01*
X138326821Y-78855179D01*
X138327178Y-78446613D01*
X138171156Y-78069011D01*
X137882508Y-77779860D01*
X137505179Y-77623179D01*
X137096613Y-77622822D01*
X136719011Y-77778844D01*
X136624691Y-77873000D01*
X135625573Y-77873000D01*
X135582508Y-77829860D01*
X135205179Y-77673179D01*
X134796613Y-77672822D01*
X134419011Y-77828844D01*
X134129860Y-78117492D01*
X133973179Y-78494821D01*
X133972822Y-78903387D01*
X131902231Y-78903387D01*
X130327063Y-77328219D01*
X130327178Y-77196613D01*
X130171156Y-76819011D01*
X129882508Y-76529860D01*
X129505179Y-76373179D01*
X129096613Y-76372822D01*
X128719011Y-76528844D01*
X128429860Y-76817492D01*
X128273179Y-77194821D01*
X128272822Y-77603387D01*
X126809337Y-77603387D01*
X126006530Y-76800580D01*
X125754453Y-76632148D01*
X125457108Y-76573002D01*
X124975486Y-76573002D01*
X124882508Y-76479862D01*
X124505179Y-76323181D01*
X124096613Y-76322824D01*
X123719011Y-76478846D01*
X123429860Y-76767494D01*
X123273179Y-77144823D01*
X123272822Y-77553389D01*
X123428844Y-77930991D01*
X123712359Y-78215000D01*
X123535750Y-78215000D01*
X123377000Y-78373750D01*
X123377000Y-79373000D01*
X124076250Y-79373000D01*
X124235000Y-79214250D01*
X124235000Y-78723690D01*
X124138327Y-78490301D01*
X123975161Y-78327136D01*
X124094821Y-78376823D01*
X124503387Y-78377180D01*
X124880989Y-78221158D01*
X124975309Y-78127002D01*
X125135264Y-78127002D01*
X125320938Y-78312676D01*
X124800000Y-78312676D01*
X124604706Y-78349423D01*
X124425340Y-78464842D01*
X124305010Y-78640951D01*
X124262676Y-78850000D01*
X124262676Y-80150000D01*
X124299423Y-80345294D01*
X124373000Y-80459636D01*
X124373000Y-80641444D01*
X124305010Y-80740951D01*
X124262676Y-80950000D01*
X124262676Y-82250000D01*
X124299423Y-82445294D01*
X124414842Y-82624660D01*
X124590951Y-82744990D01*
X124800000Y-82787324D01*
X125500000Y-82787324D01*
X125695294Y-82750577D01*
X125874660Y-82635158D01*
X125994990Y-82459049D01*
X126011606Y-82377000D01*
X127635877Y-82377000D01*
X127678844Y-82480989D01*
X127967492Y-82770140D01*
X128344821Y-82926821D01*
X128478093Y-82926937D01*
X128773000Y-83221844D01*
X128773000Y-84484388D01*
X128505179Y-84373179D01*
X128096613Y-84372822D01*
X127719011Y-84528844D01*
X127624691Y-84623000D01*
X124621844Y-84623000D01*
X123827063Y-83828219D01*
X123827178Y-83696613D01*
X123671156Y-83319011D01*
X123382508Y-83029860D01*
X123005179Y-82873179D01*
X122976096Y-82873154D01*
X123123000Y-82726250D01*
X123123000Y-81727000D01*
X123377000Y-81727000D01*
X123377000Y-82726250D01*
X123535750Y-82885000D01*
X123726309Y-82885000D01*
X123959698Y-82788327D01*
X124138327Y-82609699D01*
X124235000Y-82376310D01*
X124235000Y-81885750D01*
X124076250Y-81727000D01*
X123377000Y-81727000D01*
X123123000Y-81727000D01*
X122423750Y-81727000D01*
X122265000Y-81885750D01*
X122265000Y-82376310D01*
X122361673Y-82609699D01*
X122540302Y-82788327D01*
X122744603Y-82872951D01*
X122596613Y-82872822D01*
X122287324Y-83000618D01*
X122287324Y-82650000D01*
X122250577Y-82454706D01*
X122135158Y-82275340D01*
X121959049Y-82155010D01*
X121750000Y-82112676D01*
X120850000Y-82112676D01*
X120795133Y-82123000D01*
X120621844Y-82123000D01*
X120577063Y-82078219D01*
X120577178Y-81946613D01*
X120421156Y-81569011D01*
X120132508Y-81279860D01*
X119755179Y-81123179D01*
X119346613Y-81122822D01*
X118969011Y-81278844D01*
X118777000Y-81470521D01*
X118777000Y-79785750D01*
X122265000Y-79785750D01*
X122265000Y-80276310D01*
X122361673Y-80509699D01*
X122401974Y-80550000D01*
X122361673Y-80590301D01*
X122265000Y-80823690D01*
X122265000Y-81314250D01*
X122423750Y-81473000D01*
X123123000Y-81473000D01*
X123123000Y-79627000D01*
X123377000Y-79627000D01*
X123377000Y-81473000D01*
X124076250Y-81473000D01*
X124235000Y-81314250D01*
X124235000Y-80823690D01*
X124138327Y-80590301D01*
X124098026Y-80550000D01*
X124138327Y-80509699D01*
X124235000Y-80276310D01*
X124235000Y-79785750D01*
X124076250Y-79627000D01*
X123377000Y-79627000D01*
X123123000Y-79627000D01*
X122423750Y-79627000D01*
X122265000Y-79785750D01*
X118777000Y-79785750D01*
X118777000Y-78523499D01*
X118928844Y-78890989D01*
X119217492Y-79180140D01*
X119594821Y-79336821D01*
X119746748Y-79336954D01*
X119942655Y-79467854D01*
X120240000Y-79527000D01*
X120899019Y-79527000D01*
X120950000Y-79537324D01*
X121850000Y-79537324D01*
X122045294Y-79500577D01*
X122224660Y-79385158D01*
X122310409Y-79259659D01*
X122423750Y-79373000D01*
X123123000Y-79373000D01*
X123123000Y-78373750D01*
X122964250Y-78215000D01*
X122773691Y-78215000D01*
X122540302Y-78311673D01*
X122381726Y-78470248D01*
X122350577Y-78304706D01*
X122235158Y-78125340D01*
X122059049Y-78005010D01*
X122041077Y-78001371D01*
X122045294Y-78000577D01*
X122224660Y-77885158D01*
X122344990Y-77709049D01*
X122387324Y-77500000D01*
X122387324Y-77000000D01*
X122350577Y-76804706D01*
X122235158Y-76625340D01*
X122177000Y-76585602D01*
X122177000Y-76465987D01*
X122326821Y-76105179D01*
X122327178Y-75696613D01*
X122171156Y-75319011D01*
X121940992Y-75088446D01*
X122193773Y-74836106D01*
X122426735Y-74275072D01*
X122427265Y-73667593D01*
X122333248Y-73440054D01*
X124072528Y-73440054D01*
X124486814Y-74442703D01*
X125253262Y-75210490D01*
X126255186Y-75626526D01*
X127340054Y-75627472D01*
X128342703Y-75213186D01*
X129110490Y-74446738D01*
X129526526Y-73444814D01*
X129527172Y-72702897D01*
X131782779Y-72702897D01*
X131976781Y-73172417D01*
X132335693Y-73531957D01*
X132804875Y-73726778D01*
X133312897Y-73727221D01*
X133782417Y-73533219D01*
X134141957Y-73174307D01*
X134336778Y-72705125D01*
X134337221Y-72197103D01*
X134143219Y-71727583D01*
X133784307Y-71368043D01*
X133315125Y-71173222D01*
X132807103Y-71172779D01*
X132337583Y-71366781D01*
X131978043Y-71725693D01*
X131783222Y-72194875D01*
X131782779Y-72702897D01*
X129527172Y-72702897D01*
X129527472Y-72359946D01*
X129113186Y-71357297D01*
X128346738Y-70589510D01*
X127344814Y-70173474D01*
X126259946Y-70172528D01*
X125257297Y-70586814D01*
X124489510Y-71353262D01*
X124073474Y-72355186D01*
X124072528Y-73440054D01*
X122333248Y-73440054D01*
X122195283Y-73106154D01*
X121818778Y-72728991D01*
X121872927Y-72582532D01*
X120900000Y-71609605D01*
X119927073Y-72582532D01*
X119981374Y-72729401D01*
X119606227Y-73103894D01*
X119373265Y-73664928D01*
X119372735Y-74272407D01*
X119604717Y-74833846D01*
X120033894Y-75263773D01*
X120390653Y-75411913D01*
X120273179Y-75694821D01*
X120272822Y-76103387D01*
X120428844Y-76480989D01*
X120570108Y-76622499D01*
X120455010Y-76790951D01*
X120412676Y-77000000D01*
X120412676Y-77470081D01*
X120382508Y-77439860D01*
X120005179Y-77283179D01*
X119596613Y-77282822D01*
X119219011Y-77438844D01*
X118929860Y-77727492D01*
X118777000Y-78095619D01*
X118777000Y-71165461D01*
X119254092Y-71165461D01*
X119278144Y-71815460D01*
X119480613Y-72304264D01*
X119747468Y-72402927D01*
X120720395Y-71430000D01*
X121079605Y-71430000D01*
X122052532Y-72402927D01*
X122319387Y-72304264D01*
X122545908Y-71694539D01*
X122521856Y-71044540D01*
X122319387Y-70555736D01*
X122052532Y-70457073D01*
X121079605Y-71430000D01*
X120720395Y-71430000D01*
X119747468Y-70457073D01*
X119480613Y-70555736D01*
X119254092Y-71165461D01*
X118777000Y-71165461D01*
X118777000Y-70277468D01*
X119927073Y-70277468D01*
X120900000Y-71250395D01*
X121872927Y-70277468D01*
X121774264Y-70010613D01*
X121164539Y-69784092D01*
X120514540Y-69808144D01*
X120025736Y-70010613D01*
X119927073Y-70277468D01*
X118777000Y-70277468D01*
X118777000Y-69777000D01*
X135220423Y-69777000D01*
X135179860Y-69817492D01*
G36*
X153053748Y-112225858D02*
X153039605Y-112240000D01*
X153053748Y-112254143D01*
X152874143Y-112433748D01*
X152860000Y-112419605D01*
X152845858Y-112433748D01*
X152666253Y-112254143D01*
X152680395Y-112240000D01*
X152666253Y-112225858D01*
X152845858Y-112046253D01*
X152860000Y-112060395D01*
X152874143Y-112046253D01*
X153053748Y-112225858D01*
X153053748Y-112225858D01*
G37*
X153053748Y-112225858D02*
X153039605Y-112240000D01*
X153053748Y-112254143D01*
X152874143Y-112433748D01*
X152860000Y-112419605D01*
X152845858Y-112433748D01*
X152666253Y-112254143D01*
X152680395Y-112240000D01*
X152666253Y-112225858D01*
X152845858Y-112046253D01*
X152860000Y-112060395D01*
X152874143Y-112046253D01*
X153053748Y-112225858D01*
G36*
X153273000Y-114173000D02*
X152427000Y-114173000D01*
X152427000Y-111977000D01*
X153273000Y-111977000D01*
X153273000Y-114173000D01*
X153273000Y-114173000D01*
G37*
X153273000Y-114173000D02*
X152427000Y-114173000D01*
X152427000Y-111977000D01*
X153273000Y-111977000D01*
X153273000Y-114173000D01*
M02*
