G04 #@! TF.FileFunction,Legend,Top*
%FSLAX46Y46*%
G04 Gerber Fmt 4.6, Leading zero omitted, Abs format (unit mm)*
G04 Created by KiCad (PCBNEW 4.0.4+dfsg1-stable) date Wed Mar  8 20:37:53 2017*
%MOMM*%
%LPD*%
G01*
G04 APERTURE LIST*
%ADD10C,0.100000*%
%ADD11C,0.250000*%
%ADD12C,0.300000*%
%ADD13C,0.150000*%
G04 APERTURE END LIST*
D10*
D11*
X155450000Y-84011904D02*
X155402381Y-84107142D01*
X155402381Y-84249999D01*
X155450000Y-84392857D01*
X155545238Y-84488095D01*
X155640476Y-84535714D01*
X155830952Y-84583333D01*
X155973810Y-84583333D01*
X156164286Y-84535714D01*
X156259524Y-84488095D01*
X156354762Y-84392857D01*
X156402381Y-84249999D01*
X156402381Y-84154761D01*
X156354762Y-84011904D01*
X156307143Y-83964285D01*
X155973810Y-83964285D01*
X155973810Y-84154761D01*
X156402381Y-83535714D02*
X155402381Y-83535714D01*
X156402381Y-82964285D01*
X155402381Y-82964285D01*
X156402381Y-82488095D02*
X155402381Y-82488095D01*
X155402381Y-82250000D01*
X155450000Y-82107142D01*
X155545238Y-82011904D01*
X155640476Y-81964285D01*
X155830952Y-81916666D01*
X155973810Y-81916666D01*
X156164286Y-81964285D01*
X156259524Y-82011904D01*
X156354762Y-82107142D01*
X156402381Y-82250000D01*
X156402381Y-82488095D01*
X155352381Y-87202381D02*
X156352381Y-86869048D01*
X155352381Y-86535714D01*
X155971429Y-86202381D02*
X155971429Y-85440476D01*
X156352381Y-85821428D02*
X155590476Y-85821428D01*
D12*
X161228572Y-104178571D02*
X160728572Y-103464286D01*
X160371429Y-104178571D02*
X160371429Y-102678571D01*
X160942857Y-102678571D01*
X161085715Y-102750000D01*
X161157143Y-102821429D01*
X161228572Y-102964286D01*
X161228572Y-103178571D01*
X161157143Y-103321429D01*
X161085715Y-103392857D01*
X160942857Y-103464286D01*
X160371429Y-103464286D01*
X161800000Y-104107143D02*
X162014286Y-104178571D01*
X162371429Y-104178571D01*
X162514286Y-104107143D01*
X162585715Y-104035714D01*
X162657143Y-103892857D01*
X162657143Y-103750000D01*
X162585715Y-103607143D01*
X162514286Y-103535714D01*
X162371429Y-103464286D01*
X162085715Y-103392857D01*
X161942857Y-103321429D01*
X161871429Y-103250000D01*
X161800000Y-103107143D01*
X161800000Y-102964286D01*
X161871429Y-102821429D01*
X161942857Y-102750000D01*
X162085715Y-102678571D01*
X162442857Y-102678571D01*
X162657143Y-102750000D01*
X163085714Y-102678571D02*
X163942857Y-102678571D01*
X163514286Y-104178571D02*
X163514286Y-102678571D01*
X157478571Y-97892857D02*
X158692857Y-97892857D01*
X158835714Y-97821429D01*
X158907143Y-97750000D01*
X158978571Y-97607143D01*
X158978571Y-97321429D01*
X158907143Y-97178571D01*
X158835714Y-97107143D01*
X158692857Y-97035714D01*
X157478571Y-97035714D01*
X158907143Y-96392857D02*
X158978571Y-96178571D01*
X158978571Y-95821428D01*
X158907143Y-95678571D01*
X158835714Y-95607142D01*
X158692857Y-95535714D01*
X158550000Y-95535714D01*
X158407143Y-95607142D01*
X158335714Y-95678571D01*
X158264286Y-95821428D01*
X158192857Y-96107142D01*
X158121429Y-96250000D01*
X158050000Y-96321428D01*
X157907143Y-96392857D01*
X157764286Y-96392857D01*
X157621429Y-96321428D01*
X157550000Y-96250000D01*
X157478571Y-96107142D01*
X157478571Y-95750000D01*
X157550000Y-95535714D01*
X158978571Y-94035714D02*
X158264286Y-94535714D01*
X158978571Y-94892857D02*
X157478571Y-94892857D01*
X157478571Y-94321429D01*
X157550000Y-94178571D01*
X157621429Y-94107143D01*
X157764286Y-94035714D01*
X157978571Y-94035714D01*
X158121429Y-94107143D01*
X158192857Y-94178571D01*
X158264286Y-94321429D01*
X158264286Y-94892857D01*
D10*
X118200000Y-118200000D02*
X167200000Y-118200000D01*
X118200000Y-69200000D02*
X118200000Y-118200000D01*
X167200000Y-69200000D02*
X118200000Y-69200000D01*
X167200000Y-118200000D02*
X167200000Y-69200000D01*
D13*
X159460000Y-114000000D02*
X159460000Y-108000000D01*
X159460000Y-108000000D02*
X165460000Y-108000000D01*
X165460000Y-108000000D02*
X165460000Y-114000000D01*
X165460000Y-114000000D02*
X159460000Y-114000000D01*
X164755000Y-79250000D02*
X164755000Y-80250000D01*
X163405000Y-80250000D02*
X163405000Y-79250000D01*
X160330000Y-81150000D02*
X158830000Y-81150000D01*
X158830000Y-81150000D02*
X158830000Y-78450000D01*
X158830000Y-78450000D02*
X160330000Y-78450000D01*
X160330000Y-78450000D02*
X160330000Y-81150000D01*
X145700000Y-104525000D02*
X146900000Y-104525000D01*
X146900000Y-106275000D02*
X145700000Y-106275000D01*
X152100000Y-80925000D02*
X153100000Y-80925000D01*
X153100000Y-82275000D02*
X152100000Y-82275000D01*
X139494454Y-98857017D02*
X140342983Y-99705546D01*
X139105546Y-100942983D02*
X138257017Y-100094454D01*
X148405546Y-91642983D02*
X147557017Y-90794454D01*
X148794454Y-89557017D02*
X149642983Y-90405546D01*
X138094454Y-100257017D02*
X138942983Y-101105546D01*
X137705546Y-102342983D02*
X136857017Y-101494454D01*
X145675000Y-86300000D02*
X145675000Y-87500000D01*
X143925000Y-87500000D02*
X143925000Y-86300000D01*
X143675000Y-86300000D02*
X143675000Y-87500000D01*
X141925000Y-87500000D02*
X141925000Y-86300000D01*
X163050000Y-107725000D02*
X161850000Y-107725000D01*
X161850000Y-105975000D02*
X163050000Y-105975000D01*
X143400000Y-78425000D02*
X144600000Y-78425000D01*
X144600000Y-80175000D02*
X143400000Y-80175000D01*
X131450000Y-77775000D02*
X132650000Y-77775000D01*
X132650000Y-79525000D02*
X131450000Y-79525000D01*
X131825000Y-76000000D02*
X131825000Y-74800000D01*
X133575000Y-74800000D02*
X133575000Y-76000000D01*
X124900000Y-91975000D02*
X123700000Y-91975000D01*
X123700000Y-90225000D02*
X124900000Y-90225000D01*
X129925000Y-84000000D02*
X129925000Y-82800000D01*
X131675000Y-82800000D02*
X131675000Y-84000000D01*
X130300000Y-88975000D02*
X129100000Y-88975000D01*
X129100000Y-87225000D02*
X130300000Y-87225000D01*
X127000000Y-94075000D02*
X125800000Y-94075000D01*
X125800000Y-92325000D02*
X127000000Y-92325000D01*
X122500000Y-92325000D02*
X123700000Y-92325000D01*
X123700000Y-94075000D02*
X122500000Y-94075000D01*
X147300000Y-70325000D02*
X148500000Y-70325000D01*
X148500000Y-72075000D02*
X147300000Y-72075000D01*
X145300000Y-72075000D02*
X144100000Y-72075000D01*
X144100000Y-70325000D02*
X145300000Y-70325000D01*
X119500000Y-75400000D02*
X119500000Y-70000000D01*
X119500000Y-70000000D02*
X122300000Y-70000000D01*
X122300000Y-70000000D02*
X122300000Y-75400000D01*
X122300000Y-75400000D02*
X119500000Y-75400000D01*
X150450000Y-74950000D02*
X148950000Y-74950000D01*
X148950000Y-74950000D02*
X148950000Y-72250000D01*
X148950000Y-72250000D02*
X150450000Y-72250000D01*
X150450000Y-72250000D02*
X150450000Y-74950000D01*
X161950000Y-104325000D02*
X162950000Y-104325000D01*
X162950000Y-105675000D02*
X161950000Y-105675000D01*
X153100000Y-80475000D02*
X152100000Y-80475000D01*
X152100000Y-79125000D02*
X153100000Y-79125000D01*
X159700000Y-97225000D02*
X160700000Y-97225000D01*
X160700000Y-98575000D02*
X159700000Y-98575000D01*
X141700000Y-84375000D02*
X140700000Y-84375000D01*
X140700000Y-83025000D02*
X141700000Y-83025000D01*
X138700000Y-84375000D02*
X137700000Y-84375000D01*
X137700000Y-83025000D02*
X138700000Y-83025000D01*
X130800000Y-76825000D02*
X129800000Y-76825000D01*
X129800000Y-75475000D02*
X130800000Y-75475000D01*
X131900000Y-81575000D02*
X130900000Y-81575000D01*
X130900000Y-80225000D02*
X131900000Y-80225000D01*
X124100000Y-87375000D02*
X123100000Y-87375000D01*
X123100000Y-86025000D02*
X124100000Y-86025000D01*
X126900000Y-87375000D02*
X125900000Y-87375000D01*
X125900000Y-86025000D02*
X126900000Y-86025000D01*
X130300000Y-86975000D02*
X129300000Y-86975000D01*
X129300000Y-85625000D02*
X130300000Y-85625000D01*
X153375000Y-73100000D02*
X153375000Y-74100000D01*
X152025000Y-74100000D02*
X152025000Y-73100000D01*
X123175000Y-95600000D02*
X123175000Y-96600000D01*
X121825000Y-96600000D02*
X121825000Y-95600000D01*
X125320000Y-84706000D02*
G75*
G03X125320000Y-84706000I-254000J0D01*
G01*
X125574000Y-85214000D02*
X122526000Y-85214000D01*
X122526000Y-85214000D02*
X122526000Y-77086000D01*
X122526000Y-77086000D02*
X125574000Y-77086000D01*
X125574000Y-77086000D02*
X125574000Y-85214000D01*
X123600000Y-95200000D02*
X125800000Y-95200000D01*
X125800000Y-95200000D02*
X125800000Y-96600000D01*
X125800000Y-96600000D02*
X123600000Y-96600000D01*
X123600000Y-96600000D02*
X123600000Y-95200000D01*
D10*
X140700000Y-75600000D02*
X140700000Y-73600000D01*
X140700000Y-73600000D02*
X142700000Y-73600000D01*
X142700000Y-73600000D02*
X142700000Y-75600000D01*
X142700000Y-75600000D02*
X140700000Y-75600000D01*
D13*
X144800000Y-74650000D02*
X144800000Y-72550000D01*
X144800000Y-72550000D02*
X146200000Y-72550000D01*
X146200000Y-72550000D02*
X146200000Y-74650000D01*
X146200000Y-74650000D02*
X144800000Y-74650000D01*
X124100000Y-89075000D02*
X123100000Y-89075000D01*
X123100000Y-87725000D02*
X124100000Y-87725000D01*
X127200000Y-89075000D02*
X126200000Y-89075000D01*
X126200000Y-87725000D02*
X127200000Y-87725000D01*
X159450000Y-102050000D02*
X159450000Y-96050000D01*
X159450000Y-96050000D02*
X165450000Y-96050000D01*
X165450000Y-96050000D02*
X165450000Y-102050000D01*
X165450000Y-102050000D02*
X159450000Y-102050000D01*
X155750000Y-78450000D02*
X154250000Y-78450000D01*
X154250000Y-78450000D02*
X154250000Y-75750000D01*
X154250000Y-75750000D02*
X155750000Y-75750000D01*
X155750000Y-75750000D02*
X155750000Y-78450000D01*
X158975000Y-74850000D02*
X158975000Y-75850000D01*
X157625000Y-75850000D02*
X157625000Y-74850000D01*
X136450000Y-85050000D02*
X137950000Y-85050000D01*
X137950000Y-85050000D02*
X137950000Y-87750000D01*
X137950000Y-87750000D02*
X136450000Y-87750000D01*
X136450000Y-87750000D02*
X136450000Y-85050000D01*
X141575000Y-86100000D02*
X141575000Y-87100000D01*
X140225000Y-87100000D02*
X140225000Y-86100000D01*
X163150000Y-81600000D02*
X163150000Y-87500000D01*
X158100000Y-81600000D02*
X165500000Y-81600000D01*
X158100000Y-87500000D02*
X158100000Y-81600000D01*
X165500000Y-87500000D02*
X158100000Y-87500000D01*
X165500000Y-81600000D02*
X165500000Y-87500000D01*
X157813000Y-105890000D02*
X158702000Y-105890000D01*
X157813000Y-110970000D02*
X157813000Y-105890000D01*
X158702000Y-110970000D02*
X157813000Y-110970000D01*
X149558000Y-99540000D02*
X149558000Y-117320000D01*
X158702000Y-99540000D02*
X149558000Y-99540000D01*
X158702000Y-117320000D02*
X158702000Y-99540000D01*
X149558000Y-117320000D02*
X158702000Y-117320000D01*
X156670000Y-110970000D02*
X156670000Y-103350000D01*
X156670000Y-103350000D02*
X151590000Y-103350000D01*
X151590000Y-103350000D02*
X151590000Y-113510000D01*
X151590000Y-113510000D02*
X154130000Y-113510000D01*
X155400000Y-113790000D02*
X156950000Y-113790000D01*
X154130000Y-113510000D02*
X154130000Y-110970000D01*
X154130000Y-110970000D02*
X156670000Y-110970000D01*
X156950000Y-113790000D02*
X156950000Y-112240000D01*
X162864762Y-111733333D02*
X162912381Y-111590476D01*
X162912381Y-111352380D01*
X162864762Y-111257142D01*
X162817143Y-111209523D01*
X162721905Y-111161904D01*
X162626667Y-111161904D01*
X162531429Y-111209523D01*
X162483810Y-111257142D01*
X162436190Y-111352380D01*
X162388571Y-111542857D01*
X162340952Y-111638095D01*
X162293333Y-111685714D01*
X162198095Y-111733333D01*
X162102857Y-111733333D01*
X162007619Y-111685714D01*
X161960000Y-111638095D01*
X161912381Y-111542857D01*
X161912381Y-111304761D01*
X161960000Y-111161904D01*
X161912381Y-110828571D02*
X162912381Y-110590476D01*
X162198095Y-110399999D01*
X162912381Y-110209523D01*
X161912381Y-109971428D01*
X162912381Y-109066666D02*
X162912381Y-109638095D01*
X162912381Y-109352381D02*
X161912381Y-109352381D01*
X162055238Y-109447619D01*
X162150476Y-109542857D01*
X162198095Y-109638095D01*
X163032381Y-80392857D02*
X162556190Y-80726191D01*
X163032381Y-80964286D02*
X162032381Y-80964286D01*
X162032381Y-80583333D01*
X162080000Y-80488095D01*
X162127619Y-80440476D01*
X162222857Y-80392857D01*
X162365714Y-80392857D01*
X162460952Y-80440476D01*
X162508571Y-80488095D01*
X162556190Y-80583333D01*
X162556190Y-80964286D01*
X163032381Y-79440476D02*
X163032381Y-80011905D01*
X163032381Y-79726191D02*
X162032381Y-79726191D01*
X162175238Y-79821429D01*
X162270476Y-79916667D01*
X162318095Y-80011905D01*
X162460952Y-78869048D02*
X162413333Y-78964286D01*
X162365714Y-79011905D01*
X162270476Y-79059524D01*
X162222857Y-79059524D01*
X162127619Y-79011905D01*
X162080000Y-78964286D01*
X162032381Y-78869048D01*
X162032381Y-78678571D01*
X162080000Y-78583333D01*
X162127619Y-78535714D01*
X162222857Y-78488095D01*
X162270476Y-78488095D01*
X162365714Y-78535714D01*
X162413333Y-78583333D01*
X162460952Y-78678571D01*
X162460952Y-78869048D01*
X162508571Y-78964286D01*
X162556190Y-79011905D01*
X162651429Y-79059524D01*
X162841905Y-79059524D01*
X162937143Y-79011905D01*
X162984762Y-78964286D01*
X163032381Y-78869048D01*
X163032381Y-78678571D01*
X162984762Y-78583333D01*
X162937143Y-78535714D01*
X162841905Y-78488095D01*
X162651429Y-78488095D01*
X162556190Y-78535714D01*
X162508571Y-78583333D01*
X162460952Y-78678571D01*
X160127619Y-79895238D02*
X160080000Y-79990476D01*
X159984762Y-80085714D01*
X159841905Y-80228571D01*
X159794286Y-80323810D01*
X159794286Y-80419048D01*
X160032381Y-80371429D02*
X159984762Y-80466667D01*
X159889524Y-80561905D01*
X159699048Y-80609524D01*
X159365714Y-80609524D01*
X159175238Y-80561905D01*
X159080000Y-80466667D01*
X159032381Y-80371429D01*
X159032381Y-80180952D01*
X159080000Y-80085714D01*
X159175238Y-79990476D01*
X159365714Y-79942857D01*
X159699048Y-79942857D01*
X159889524Y-79990476D01*
X159984762Y-80085714D01*
X160032381Y-80180952D01*
X160032381Y-80371429D01*
X159127619Y-79561905D02*
X159080000Y-79514286D01*
X159032381Y-79419048D01*
X159032381Y-79180952D01*
X159080000Y-79085714D01*
X159127619Y-79038095D01*
X159222857Y-78990476D01*
X159318095Y-78990476D01*
X159460952Y-79038095D01*
X160032381Y-79609524D01*
X160032381Y-78990476D01*
X142823810Y-95952381D02*
X142823810Y-94952381D01*
X143871429Y-95857143D02*
X143823810Y-95904762D01*
X143680953Y-95952381D01*
X143585715Y-95952381D01*
X143442857Y-95904762D01*
X143347619Y-95809524D01*
X143300000Y-95714286D01*
X143252381Y-95523810D01*
X143252381Y-95380952D01*
X143300000Y-95190476D01*
X143347619Y-95095238D01*
X143442857Y-95000000D01*
X143585715Y-94952381D01*
X143680953Y-94952381D01*
X143823810Y-95000000D01*
X143871429Y-95047619D01*
X144823810Y-95952381D02*
X144252381Y-95952381D01*
X144538095Y-95952381D02*
X144538095Y-94952381D01*
X144442857Y-95095238D01*
X144347619Y-95190476D01*
X144252381Y-95238095D01*
X148783334Y-106057143D02*
X148735715Y-106104762D01*
X148592858Y-106152381D01*
X148497620Y-106152381D01*
X148354762Y-106104762D01*
X148259524Y-106009524D01*
X148211905Y-105914286D01*
X148164286Y-105723810D01*
X148164286Y-105580952D01*
X148211905Y-105390476D01*
X148259524Y-105295238D01*
X148354762Y-105200000D01*
X148497620Y-105152381D01*
X148592858Y-105152381D01*
X148735715Y-105200000D01*
X148783334Y-105247619D01*
X149116667Y-105152381D02*
X149783334Y-105152381D01*
X149354762Y-106152381D01*
X150033334Y-81852381D02*
X149700000Y-81376190D01*
X149461905Y-81852381D02*
X149461905Y-80852381D01*
X149842858Y-80852381D01*
X149938096Y-80900000D01*
X149985715Y-80947619D01*
X150033334Y-81042857D01*
X150033334Y-81185714D01*
X149985715Y-81280952D01*
X149938096Y-81328571D01*
X149842858Y-81376190D01*
X149461905Y-81376190D01*
X150366667Y-80852381D02*
X150985715Y-80852381D01*
X150652381Y-81233333D01*
X150795239Y-81233333D01*
X150890477Y-81280952D01*
X150938096Y-81328571D01*
X150985715Y-81423810D01*
X150985715Y-81661905D01*
X150938096Y-81757143D01*
X150890477Y-81804762D01*
X150795239Y-81852381D01*
X150509524Y-81852381D01*
X150414286Y-81804762D01*
X150366667Y-81757143D01*
X136329611Y-98634688D02*
X136262268Y-98634688D01*
X136127581Y-98567344D01*
X136060237Y-98500001D01*
X135992893Y-98365313D01*
X135992893Y-98230626D01*
X136026565Y-98129611D01*
X136127580Y-97961253D01*
X136228596Y-97860237D01*
X136396955Y-97759222D01*
X136497970Y-97725550D01*
X136632657Y-97725550D01*
X136767344Y-97792894D01*
X136834688Y-97860237D01*
X136902031Y-97994924D01*
X136902031Y-98062268D01*
X137205076Y-98230626D02*
X137642810Y-98668359D01*
X137137733Y-98702030D01*
X137238749Y-98803046D01*
X137272421Y-98904061D01*
X137272421Y-98971405D01*
X137238748Y-99072421D01*
X137070390Y-99240779D01*
X136969374Y-99274451D01*
X136902031Y-99274451D01*
X136801016Y-99240779D01*
X136598985Y-99038748D01*
X136565313Y-98937733D01*
X136565313Y-98870390D01*
X150329611Y-92434688D02*
X150262268Y-92434688D01*
X150127581Y-92367344D01*
X150060237Y-92300001D01*
X149992893Y-92165313D01*
X149992893Y-92030626D01*
X150026565Y-91929611D01*
X150127580Y-91761253D01*
X150228596Y-91660237D01*
X150396955Y-91559222D01*
X150497970Y-91525550D01*
X150632657Y-91525550D01*
X150767344Y-91592894D01*
X150834688Y-91660237D01*
X150902031Y-91794924D01*
X150902031Y-91862268D01*
X151575466Y-92401016D02*
X151440778Y-92266328D01*
X151339763Y-92232657D01*
X151272420Y-92232657D01*
X151104061Y-92266328D01*
X150935703Y-92367343D01*
X150666328Y-92636718D01*
X150632657Y-92737733D01*
X150632657Y-92805076D01*
X150666328Y-92906092D01*
X150801016Y-93040779D01*
X150902031Y-93074451D01*
X150969374Y-93074451D01*
X151070390Y-93040779D01*
X151238748Y-92872421D01*
X151272421Y-92771405D01*
X151272421Y-92704061D01*
X151238749Y-92603046D01*
X151104061Y-92468359D01*
X151003046Y-92434687D01*
X150935703Y-92434687D01*
X150834687Y-92468359D01*
X136044687Y-102919612D02*
X135977344Y-102919612D01*
X135842657Y-102852268D01*
X135775313Y-102784925D01*
X135707969Y-102650237D01*
X135707969Y-102515550D01*
X135741641Y-102414535D01*
X135842656Y-102246177D01*
X135943672Y-102145161D01*
X136112031Y-102044146D01*
X136213046Y-102010474D01*
X136347733Y-102010474D01*
X136482420Y-102077818D01*
X136549764Y-102145161D01*
X136617107Y-102279848D01*
X136617107Y-102347192D01*
X136650779Y-103660390D02*
X136246717Y-103256329D01*
X136448748Y-103458359D02*
X137155854Y-102751252D01*
X136987496Y-102784924D01*
X136852809Y-102784924D01*
X136751794Y-102751252D01*
X146757143Y-84766666D02*
X146804762Y-84814285D01*
X146852381Y-84957142D01*
X146852381Y-85052380D01*
X146804762Y-85195238D01*
X146709524Y-85290476D01*
X146614286Y-85338095D01*
X146423810Y-85385714D01*
X146280952Y-85385714D01*
X146090476Y-85338095D01*
X145995238Y-85290476D01*
X145900000Y-85195238D01*
X145852381Y-85052380D01*
X145852381Y-84957142D01*
X145900000Y-84814285D01*
X145947619Y-84766666D01*
X145947619Y-84385714D02*
X145900000Y-84338095D01*
X145852381Y-84242857D01*
X145852381Y-84004761D01*
X145900000Y-83909523D01*
X145947619Y-83861904D01*
X146042857Y-83814285D01*
X146138095Y-83814285D01*
X146280952Y-83861904D01*
X146852381Y-84433333D01*
X146852381Y-83814285D01*
X141257143Y-87866666D02*
X141304762Y-87914285D01*
X141352381Y-88057142D01*
X141352381Y-88152380D01*
X141304762Y-88295238D01*
X141209524Y-88390476D01*
X141114286Y-88438095D01*
X140923810Y-88485714D01*
X140780952Y-88485714D01*
X140590476Y-88438095D01*
X140495238Y-88390476D01*
X140400000Y-88295238D01*
X140352381Y-88152380D01*
X140352381Y-88057142D01*
X140400000Y-87914285D01*
X140447619Y-87866666D01*
X140685714Y-87009523D02*
X141352381Y-87009523D01*
X140304762Y-87247619D02*
X141019048Y-87485714D01*
X141019048Y-86866666D01*
X162283334Y-105107143D02*
X162235715Y-105154762D01*
X162092858Y-105202381D01*
X161997620Y-105202381D01*
X161854762Y-105154762D01*
X161759524Y-105059524D01*
X161711905Y-104964286D01*
X161664286Y-104773810D01*
X161664286Y-104630952D01*
X161711905Y-104440476D01*
X161759524Y-104345238D01*
X161854762Y-104250000D01*
X161997620Y-104202381D01*
X162092858Y-104202381D01*
X162235715Y-104250000D01*
X162283334Y-104297619D01*
X163188096Y-104202381D02*
X162711905Y-104202381D01*
X162664286Y-104678571D01*
X162711905Y-104630952D01*
X162807143Y-104583333D01*
X163045239Y-104583333D01*
X163140477Y-104630952D01*
X163188096Y-104678571D01*
X163235715Y-104773810D01*
X163235715Y-105011905D01*
X163188096Y-105107143D01*
X163140477Y-105154762D01*
X163045239Y-105202381D01*
X162807143Y-105202381D01*
X162711905Y-105154762D01*
X162664286Y-105107143D01*
X140457143Y-79257143D02*
X140409524Y-79304762D01*
X140266667Y-79352381D01*
X140171429Y-79352381D01*
X140028571Y-79304762D01*
X139933333Y-79209524D01*
X139885714Y-79114286D01*
X139838095Y-78923810D01*
X139838095Y-78780952D01*
X139885714Y-78590476D01*
X139933333Y-78495238D01*
X140028571Y-78400000D01*
X140171429Y-78352381D01*
X140266667Y-78352381D01*
X140409524Y-78400000D01*
X140457143Y-78447619D01*
X141409524Y-79352381D02*
X140838095Y-79352381D01*
X141123809Y-79352381D02*
X141123809Y-78352381D01*
X141028571Y-78495238D01*
X140933333Y-78590476D01*
X140838095Y-78638095D01*
X142361905Y-79352381D02*
X141790476Y-79352381D01*
X142076190Y-79352381D02*
X142076190Y-78352381D01*
X141980952Y-78495238D01*
X141885714Y-78590476D01*
X141790476Y-78638095D01*
X128357143Y-79357143D02*
X128309524Y-79404762D01*
X128166667Y-79452381D01*
X128071429Y-79452381D01*
X127928571Y-79404762D01*
X127833333Y-79309524D01*
X127785714Y-79214286D01*
X127738095Y-79023810D01*
X127738095Y-78880952D01*
X127785714Y-78690476D01*
X127833333Y-78595238D01*
X127928571Y-78500000D01*
X128071429Y-78452381D01*
X128166667Y-78452381D01*
X128309524Y-78500000D01*
X128357143Y-78547619D01*
X129309524Y-79452381D02*
X128738095Y-79452381D01*
X129023809Y-79452381D02*
X129023809Y-78452381D01*
X128928571Y-78595238D01*
X128833333Y-78690476D01*
X128738095Y-78738095D01*
X129690476Y-78547619D02*
X129738095Y-78500000D01*
X129833333Y-78452381D01*
X130071429Y-78452381D01*
X130166667Y-78500000D01*
X130214286Y-78547619D01*
X130261905Y-78642857D01*
X130261905Y-78738095D01*
X130214286Y-78880952D01*
X129642857Y-79452381D01*
X130261905Y-79452381D01*
X132957143Y-79042857D02*
X133004762Y-79090476D01*
X133052381Y-79233333D01*
X133052381Y-79328571D01*
X133004762Y-79471429D01*
X132909524Y-79566667D01*
X132814286Y-79614286D01*
X132623810Y-79661905D01*
X132480952Y-79661905D01*
X132290476Y-79614286D01*
X132195238Y-79566667D01*
X132100000Y-79471429D01*
X132052381Y-79328571D01*
X132052381Y-79233333D01*
X132100000Y-79090476D01*
X132147619Y-79042857D01*
X133052381Y-78090476D02*
X133052381Y-78661905D01*
X133052381Y-78376191D02*
X132052381Y-78376191D01*
X132195238Y-78471429D01*
X132290476Y-78566667D01*
X132338095Y-78661905D01*
X132052381Y-77757143D02*
X132052381Y-77138095D01*
X132433333Y-77471429D01*
X132433333Y-77328571D01*
X132480952Y-77233333D01*
X132528571Y-77185714D01*
X132623810Y-77138095D01*
X132861905Y-77138095D01*
X132957143Y-77185714D01*
X133004762Y-77233333D01*
X133052381Y-77328571D01*
X133052381Y-77614286D01*
X133004762Y-77709524D01*
X132957143Y-77757143D01*
X120557143Y-91357143D02*
X120509524Y-91404762D01*
X120366667Y-91452381D01*
X120271429Y-91452381D01*
X120128571Y-91404762D01*
X120033333Y-91309524D01*
X119985714Y-91214286D01*
X119938095Y-91023810D01*
X119938095Y-90880952D01*
X119985714Y-90690476D01*
X120033333Y-90595238D01*
X120128571Y-90500000D01*
X120271429Y-90452381D01*
X120366667Y-90452381D01*
X120509524Y-90500000D01*
X120557143Y-90547619D01*
X121509524Y-91452381D02*
X120938095Y-91452381D01*
X121223809Y-91452381D02*
X121223809Y-90452381D01*
X121128571Y-90595238D01*
X121033333Y-90690476D01*
X120938095Y-90738095D01*
X122366667Y-90785714D02*
X122366667Y-91452381D01*
X122128571Y-90404762D02*
X121890476Y-91119048D01*
X122509524Y-91119048D01*
X133257143Y-84042857D02*
X133304762Y-84090476D01*
X133352381Y-84233333D01*
X133352381Y-84328571D01*
X133304762Y-84471429D01*
X133209524Y-84566667D01*
X133114286Y-84614286D01*
X132923810Y-84661905D01*
X132780952Y-84661905D01*
X132590476Y-84614286D01*
X132495238Y-84566667D01*
X132400000Y-84471429D01*
X132352381Y-84328571D01*
X132352381Y-84233333D01*
X132400000Y-84090476D01*
X132447619Y-84042857D01*
X133352381Y-83090476D02*
X133352381Y-83661905D01*
X133352381Y-83376191D02*
X132352381Y-83376191D01*
X132495238Y-83471429D01*
X132590476Y-83566667D01*
X132638095Y-83661905D01*
X132352381Y-82185714D02*
X132352381Y-82661905D01*
X132828571Y-82709524D01*
X132780952Y-82661905D01*
X132733333Y-82566667D01*
X132733333Y-82328571D01*
X132780952Y-82233333D01*
X132828571Y-82185714D01*
X132923810Y-82138095D01*
X133161905Y-82138095D01*
X133257143Y-82185714D01*
X133304762Y-82233333D01*
X133352381Y-82328571D01*
X133352381Y-82566667D01*
X133304762Y-82661905D01*
X133257143Y-82709524D01*
X129457143Y-90257143D02*
X129409524Y-90304762D01*
X129266667Y-90352381D01*
X129171429Y-90352381D01*
X129028571Y-90304762D01*
X128933333Y-90209524D01*
X128885714Y-90114286D01*
X128838095Y-89923810D01*
X128838095Y-89780952D01*
X128885714Y-89590476D01*
X128933333Y-89495238D01*
X129028571Y-89400000D01*
X129171429Y-89352381D01*
X129266667Y-89352381D01*
X129409524Y-89400000D01*
X129457143Y-89447619D01*
X130409524Y-90352381D02*
X129838095Y-90352381D01*
X130123809Y-90352381D02*
X130123809Y-89352381D01*
X130028571Y-89495238D01*
X129933333Y-89590476D01*
X129838095Y-89638095D01*
X131266667Y-89352381D02*
X131076190Y-89352381D01*
X130980952Y-89400000D01*
X130933333Y-89447619D01*
X130838095Y-89590476D01*
X130790476Y-89780952D01*
X130790476Y-90161905D01*
X130838095Y-90257143D01*
X130885714Y-90304762D01*
X130980952Y-90352381D01*
X131171429Y-90352381D01*
X131266667Y-90304762D01*
X131314286Y-90257143D01*
X131361905Y-90161905D01*
X131361905Y-89923810D01*
X131314286Y-89828571D01*
X131266667Y-89780952D01*
X131171429Y-89733333D01*
X130980952Y-89733333D01*
X130885714Y-89780952D01*
X130838095Y-89828571D01*
X130790476Y-89923810D01*
X127157143Y-95457143D02*
X127109524Y-95504762D01*
X126966667Y-95552381D01*
X126871429Y-95552381D01*
X126728571Y-95504762D01*
X126633333Y-95409524D01*
X126585714Y-95314286D01*
X126538095Y-95123810D01*
X126538095Y-94980952D01*
X126585714Y-94790476D01*
X126633333Y-94695238D01*
X126728571Y-94600000D01*
X126871429Y-94552381D01*
X126966667Y-94552381D01*
X127109524Y-94600000D01*
X127157143Y-94647619D01*
X128109524Y-95552381D02*
X127538095Y-95552381D01*
X127823809Y-95552381D02*
X127823809Y-94552381D01*
X127728571Y-94695238D01*
X127633333Y-94790476D01*
X127538095Y-94838095D01*
X128442857Y-94552381D02*
X129109524Y-94552381D01*
X128680952Y-95552381D01*
X119357143Y-93557143D02*
X119309524Y-93604762D01*
X119166667Y-93652381D01*
X119071429Y-93652381D01*
X118928571Y-93604762D01*
X118833333Y-93509524D01*
X118785714Y-93414286D01*
X118738095Y-93223810D01*
X118738095Y-93080952D01*
X118785714Y-92890476D01*
X118833333Y-92795238D01*
X118928571Y-92700000D01*
X119071429Y-92652381D01*
X119166667Y-92652381D01*
X119309524Y-92700000D01*
X119357143Y-92747619D01*
X120309524Y-93652381D02*
X119738095Y-93652381D01*
X120023809Y-93652381D02*
X120023809Y-92652381D01*
X119928571Y-92795238D01*
X119833333Y-92890476D01*
X119738095Y-92938095D01*
X120880952Y-93080952D02*
X120785714Y-93033333D01*
X120738095Y-92985714D01*
X120690476Y-92890476D01*
X120690476Y-92842857D01*
X120738095Y-92747619D01*
X120785714Y-92700000D01*
X120880952Y-92652381D01*
X121071429Y-92652381D01*
X121166667Y-92700000D01*
X121214286Y-92747619D01*
X121261905Y-92842857D01*
X121261905Y-92890476D01*
X121214286Y-92985714D01*
X121166667Y-93033333D01*
X121071429Y-93080952D01*
X120880952Y-93080952D01*
X120785714Y-93128571D01*
X120738095Y-93176190D01*
X120690476Y-93271429D01*
X120690476Y-93461905D01*
X120738095Y-93557143D01*
X120785714Y-93604762D01*
X120880952Y-93652381D01*
X121071429Y-93652381D01*
X121166667Y-93604762D01*
X121214286Y-93557143D01*
X121261905Y-93461905D01*
X121261905Y-93271429D01*
X121214286Y-93176190D01*
X121166667Y-93128571D01*
X121071429Y-93080952D01*
X150357143Y-71557143D02*
X150309524Y-71604762D01*
X150166667Y-71652381D01*
X150071429Y-71652381D01*
X149928571Y-71604762D01*
X149833333Y-71509524D01*
X149785714Y-71414286D01*
X149738095Y-71223810D01*
X149738095Y-71080952D01*
X149785714Y-70890476D01*
X149833333Y-70795238D01*
X149928571Y-70700000D01*
X150071429Y-70652381D01*
X150166667Y-70652381D01*
X150309524Y-70700000D01*
X150357143Y-70747619D01*
X151309524Y-71652381D02*
X150738095Y-71652381D01*
X151023809Y-71652381D02*
X151023809Y-70652381D01*
X150928571Y-70795238D01*
X150833333Y-70890476D01*
X150738095Y-70938095D01*
X151785714Y-71652381D02*
X151976190Y-71652381D01*
X152071429Y-71604762D01*
X152119048Y-71557143D01*
X152214286Y-71414286D01*
X152261905Y-71223810D01*
X152261905Y-70842857D01*
X152214286Y-70747619D01*
X152166667Y-70700000D01*
X152071429Y-70652381D01*
X151880952Y-70652381D01*
X151785714Y-70700000D01*
X151738095Y-70747619D01*
X151690476Y-70842857D01*
X151690476Y-71080952D01*
X151738095Y-71176190D01*
X151785714Y-71223810D01*
X151880952Y-71271429D01*
X152071429Y-71271429D01*
X152166667Y-71223810D01*
X152214286Y-71176190D01*
X152261905Y-71080952D01*
X139457143Y-71257143D02*
X139409524Y-71304762D01*
X139266667Y-71352381D01*
X139171429Y-71352381D01*
X139028571Y-71304762D01*
X138933333Y-71209524D01*
X138885714Y-71114286D01*
X138838095Y-70923810D01*
X138838095Y-70780952D01*
X138885714Y-70590476D01*
X138933333Y-70495238D01*
X139028571Y-70400000D01*
X139171429Y-70352381D01*
X139266667Y-70352381D01*
X139409524Y-70400000D01*
X139457143Y-70447619D01*
X139838095Y-70447619D02*
X139885714Y-70400000D01*
X139980952Y-70352381D01*
X140219048Y-70352381D01*
X140314286Y-70400000D01*
X140361905Y-70447619D01*
X140409524Y-70542857D01*
X140409524Y-70638095D01*
X140361905Y-70780952D01*
X139790476Y-71352381D01*
X140409524Y-71352381D01*
X141028571Y-70352381D02*
X141123810Y-70352381D01*
X141219048Y-70400000D01*
X141266667Y-70447619D01*
X141314286Y-70542857D01*
X141361905Y-70733333D01*
X141361905Y-70971429D01*
X141314286Y-71161905D01*
X141266667Y-71257143D01*
X141219048Y-71304762D01*
X141123810Y-71352381D01*
X141028571Y-71352381D01*
X140933333Y-71304762D01*
X140885714Y-71257143D01*
X140838095Y-71161905D01*
X140790476Y-70971429D01*
X140790476Y-70733333D01*
X140838095Y-70542857D01*
X140885714Y-70447619D01*
X140933333Y-70400000D01*
X141028571Y-70352381D01*
X123602381Y-73438095D02*
X122602381Y-73438095D01*
X122602381Y-73200000D01*
X122650000Y-73057142D01*
X122745238Y-72961904D01*
X122840476Y-72914285D01*
X123030952Y-72866666D01*
X123173810Y-72866666D01*
X123364286Y-72914285D01*
X123459524Y-72961904D01*
X123554762Y-73057142D01*
X123602381Y-73200000D01*
X123602381Y-73438095D01*
X122697619Y-72485714D02*
X122650000Y-72438095D01*
X122602381Y-72342857D01*
X122602381Y-72104761D01*
X122650000Y-72009523D01*
X122697619Y-71961904D01*
X122792857Y-71914285D01*
X122888095Y-71914285D01*
X123030952Y-71961904D01*
X123602381Y-72533333D01*
X123602381Y-71914285D01*
X150247619Y-76295238D02*
X150200000Y-76390476D01*
X150104762Y-76485714D01*
X149961905Y-76628571D01*
X149914286Y-76723810D01*
X149914286Y-76819048D01*
X150152381Y-76771429D02*
X150104762Y-76866667D01*
X150009524Y-76961905D01*
X149819048Y-77009524D01*
X149485714Y-77009524D01*
X149295238Y-76961905D01*
X149200000Y-76866667D01*
X149152381Y-76771429D01*
X149152381Y-76580952D01*
X149200000Y-76485714D01*
X149295238Y-76390476D01*
X149485714Y-76342857D01*
X149819048Y-76342857D01*
X150009524Y-76390476D01*
X150104762Y-76485714D01*
X150152381Y-76580952D01*
X150152381Y-76771429D01*
X150152381Y-75390476D02*
X150152381Y-75961905D01*
X150152381Y-75676191D02*
X149152381Y-75676191D01*
X149295238Y-75771429D01*
X149390476Y-75866667D01*
X149438095Y-75961905D01*
X162283334Y-107352381D02*
X161950000Y-106876190D01*
X161711905Y-107352381D02*
X161711905Y-106352381D01*
X162092858Y-106352381D01*
X162188096Y-106400000D01*
X162235715Y-106447619D01*
X162283334Y-106542857D01*
X162283334Y-106685714D01*
X162235715Y-106780952D01*
X162188096Y-106828571D01*
X162092858Y-106876190D01*
X161711905Y-106876190D01*
X163235715Y-107352381D02*
X162664286Y-107352381D01*
X162950000Y-107352381D02*
X162950000Y-106352381D01*
X162854762Y-106495238D01*
X162759524Y-106590476D01*
X162664286Y-106638095D01*
X151833334Y-78252381D02*
X151500000Y-77776190D01*
X151261905Y-78252381D02*
X151261905Y-77252381D01*
X151642858Y-77252381D01*
X151738096Y-77300000D01*
X151785715Y-77347619D01*
X151833334Y-77442857D01*
X151833334Y-77585714D01*
X151785715Y-77680952D01*
X151738096Y-77728571D01*
X151642858Y-77776190D01*
X151261905Y-77776190D01*
X152214286Y-77347619D02*
X152261905Y-77300000D01*
X152357143Y-77252381D01*
X152595239Y-77252381D01*
X152690477Y-77300000D01*
X152738096Y-77347619D01*
X152785715Y-77442857D01*
X152785715Y-77538095D01*
X152738096Y-77680952D01*
X152166667Y-78252381D01*
X152785715Y-78252381D01*
X160033334Y-100352381D02*
X159700000Y-99876190D01*
X159461905Y-100352381D02*
X159461905Y-99352381D01*
X159842858Y-99352381D01*
X159938096Y-99400000D01*
X159985715Y-99447619D01*
X160033334Y-99542857D01*
X160033334Y-99685714D01*
X159985715Y-99780952D01*
X159938096Y-99828571D01*
X159842858Y-99876190D01*
X159461905Y-99876190D01*
X160890477Y-99685714D02*
X160890477Y-100352381D01*
X160652381Y-99304762D02*
X160414286Y-100019048D01*
X161033334Y-100019048D01*
X139733334Y-82552381D02*
X139400000Y-82076190D01*
X139161905Y-82552381D02*
X139161905Y-81552381D01*
X139542858Y-81552381D01*
X139638096Y-81600000D01*
X139685715Y-81647619D01*
X139733334Y-81742857D01*
X139733334Y-81885714D01*
X139685715Y-81980952D01*
X139638096Y-82028571D01*
X139542858Y-82076190D01*
X139161905Y-82076190D01*
X140590477Y-81552381D02*
X140400000Y-81552381D01*
X140304762Y-81600000D01*
X140257143Y-81647619D01*
X140161905Y-81790476D01*
X140114286Y-81980952D01*
X140114286Y-82361905D01*
X140161905Y-82457143D01*
X140209524Y-82504762D01*
X140304762Y-82552381D01*
X140495239Y-82552381D01*
X140590477Y-82504762D01*
X140638096Y-82457143D01*
X140685715Y-82361905D01*
X140685715Y-82123810D01*
X140638096Y-82028571D01*
X140590477Y-81980952D01*
X140495239Y-81933333D01*
X140304762Y-81933333D01*
X140209524Y-81980952D01*
X140161905Y-82028571D01*
X140114286Y-82123810D01*
X137633334Y-82552381D02*
X137300000Y-82076190D01*
X137061905Y-82552381D02*
X137061905Y-81552381D01*
X137442858Y-81552381D01*
X137538096Y-81600000D01*
X137585715Y-81647619D01*
X137633334Y-81742857D01*
X137633334Y-81885714D01*
X137585715Y-81980952D01*
X137538096Y-82028571D01*
X137442858Y-82076190D01*
X137061905Y-82076190D01*
X137966667Y-81552381D02*
X138633334Y-81552381D01*
X138204762Y-82552381D01*
X132333334Y-76652381D02*
X132000000Y-76176190D01*
X131761905Y-76652381D02*
X131761905Y-75652381D01*
X132142858Y-75652381D01*
X132238096Y-75700000D01*
X132285715Y-75747619D01*
X132333334Y-75842857D01*
X132333334Y-75985714D01*
X132285715Y-76080952D01*
X132238096Y-76128571D01*
X132142858Y-76176190D01*
X131761905Y-76176190D01*
X132904762Y-76080952D02*
X132809524Y-76033333D01*
X132761905Y-75985714D01*
X132714286Y-75890476D01*
X132714286Y-75842857D01*
X132761905Y-75747619D01*
X132809524Y-75700000D01*
X132904762Y-75652381D01*
X133095239Y-75652381D01*
X133190477Y-75700000D01*
X133238096Y-75747619D01*
X133285715Y-75842857D01*
X133285715Y-75890476D01*
X133238096Y-75985714D01*
X133190477Y-76033333D01*
X133095239Y-76080952D01*
X132904762Y-76080952D01*
X132809524Y-76128571D01*
X132761905Y-76176190D01*
X132714286Y-76271429D01*
X132714286Y-76461905D01*
X132761905Y-76557143D01*
X132809524Y-76604762D01*
X132904762Y-76652381D01*
X133095239Y-76652381D01*
X133190477Y-76604762D01*
X133238096Y-76557143D01*
X133285715Y-76461905D01*
X133285715Y-76271429D01*
X133238096Y-76176190D01*
X133190477Y-76128571D01*
X133095239Y-76080952D01*
X128933334Y-81252381D02*
X128600000Y-80776190D01*
X128361905Y-81252381D02*
X128361905Y-80252381D01*
X128742858Y-80252381D01*
X128838096Y-80300000D01*
X128885715Y-80347619D01*
X128933334Y-80442857D01*
X128933334Y-80585714D01*
X128885715Y-80680952D01*
X128838096Y-80728571D01*
X128742858Y-80776190D01*
X128361905Y-80776190D01*
X129409524Y-81252381D02*
X129600000Y-81252381D01*
X129695239Y-81204762D01*
X129742858Y-81157143D01*
X129838096Y-81014286D01*
X129885715Y-80823810D01*
X129885715Y-80442857D01*
X129838096Y-80347619D01*
X129790477Y-80300000D01*
X129695239Y-80252381D01*
X129504762Y-80252381D01*
X129409524Y-80300000D01*
X129361905Y-80347619D01*
X129314286Y-80442857D01*
X129314286Y-80680952D01*
X129361905Y-80776190D01*
X129409524Y-80823810D01*
X129504762Y-80871429D01*
X129695239Y-80871429D01*
X129790477Y-80823810D01*
X129838096Y-80776190D01*
X129885715Y-80680952D01*
X120157143Y-88152381D02*
X119823809Y-87676190D01*
X119585714Y-88152381D02*
X119585714Y-87152381D01*
X119966667Y-87152381D01*
X120061905Y-87200000D01*
X120109524Y-87247619D01*
X120157143Y-87342857D01*
X120157143Y-87485714D01*
X120109524Y-87580952D01*
X120061905Y-87628571D01*
X119966667Y-87676190D01*
X119585714Y-87676190D01*
X121109524Y-88152381D02*
X120538095Y-88152381D01*
X120823809Y-88152381D02*
X120823809Y-87152381D01*
X120728571Y-87295238D01*
X120633333Y-87390476D01*
X120538095Y-87438095D01*
X121728571Y-87152381D02*
X121823810Y-87152381D01*
X121919048Y-87200000D01*
X121966667Y-87247619D01*
X122014286Y-87342857D01*
X122061905Y-87533333D01*
X122061905Y-87771429D01*
X122014286Y-87961905D01*
X121966667Y-88057143D01*
X121919048Y-88104762D01*
X121823810Y-88152381D01*
X121728571Y-88152381D01*
X121633333Y-88104762D01*
X121585714Y-88057143D01*
X121538095Y-87961905D01*
X121490476Y-87771429D01*
X121490476Y-87533333D01*
X121538095Y-87342857D01*
X121585714Y-87247619D01*
X121633333Y-87200000D01*
X121728571Y-87152381D01*
X126457143Y-90252381D02*
X126123809Y-89776190D01*
X125885714Y-90252381D02*
X125885714Y-89252381D01*
X126266667Y-89252381D01*
X126361905Y-89300000D01*
X126409524Y-89347619D01*
X126457143Y-89442857D01*
X126457143Y-89585714D01*
X126409524Y-89680952D01*
X126361905Y-89728571D01*
X126266667Y-89776190D01*
X125885714Y-89776190D01*
X127409524Y-90252381D02*
X126838095Y-90252381D01*
X127123809Y-90252381D02*
X127123809Y-89252381D01*
X127028571Y-89395238D01*
X126933333Y-89490476D01*
X126838095Y-89538095D01*
X128361905Y-90252381D02*
X127790476Y-90252381D01*
X128076190Y-90252381D02*
X128076190Y-89252381D01*
X127980952Y-89395238D01*
X127885714Y-89490476D01*
X127790476Y-89538095D01*
X131957143Y-87752381D02*
X131623809Y-87276190D01*
X131385714Y-87752381D02*
X131385714Y-86752381D01*
X131766667Y-86752381D01*
X131861905Y-86800000D01*
X131909524Y-86847619D01*
X131957143Y-86942857D01*
X131957143Y-87085714D01*
X131909524Y-87180952D01*
X131861905Y-87228571D01*
X131766667Y-87276190D01*
X131385714Y-87276190D01*
X132909524Y-87752381D02*
X132338095Y-87752381D01*
X132623809Y-87752381D02*
X132623809Y-86752381D01*
X132528571Y-86895238D01*
X132433333Y-86990476D01*
X132338095Y-87038095D01*
X133290476Y-86847619D02*
X133338095Y-86800000D01*
X133433333Y-86752381D01*
X133671429Y-86752381D01*
X133766667Y-86800000D01*
X133814286Y-86847619D01*
X133861905Y-86942857D01*
X133861905Y-87038095D01*
X133814286Y-87180952D01*
X133242857Y-87752381D01*
X133861905Y-87752381D01*
X154752381Y-75042857D02*
X154276190Y-75376191D01*
X154752381Y-75614286D02*
X153752381Y-75614286D01*
X153752381Y-75233333D01*
X153800000Y-75138095D01*
X153847619Y-75090476D01*
X153942857Y-75042857D01*
X154085714Y-75042857D01*
X154180952Y-75090476D01*
X154228571Y-75138095D01*
X154276190Y-75233333D01*
X154276190Y-75614286D01*
X154752381Y-74090476D02*
X154752381Y-74661905D01*
X154752381Y-74376191D02*
X153752381Y-74376191D01*
X153895238Y-74471429D01*
X153990476Y-74566667D01*
X154038095Y-74661905D01*
X153752381Y-73757143D02*
X153752381Y-73138095D01*
X154133333Y-73471429D01*
X154133333Y-73328571D01*
X154180952Y-73233333D01*
X154228571Y-73185714D01*
X154323810Y-73138095D01*
X154561905Y-73138095D01*
X154657143Y-73185714D01*
X154704762Y-73233333D01*
X154752381Y-73328571D01*
X154752381Y-73614286D01*
X154704762Y-73709524D01*
X154657143Y-73757143D01*
X121052381Y-96642857D02*
X120576190Y-96976191D01*
X121052381Y-97214286D02*
X120052381Y-97214286D01*
X120052381Y-96833333D01*
X120100000Y-96738095D01*
X120147619Y-96690476D01*
X120242857Y-96642857D01*
X120385714Y-96642857D01*
X120480952Y-96690476D01*
X120528571Y-96738095D01*
X120576190Y-96833333D01*
X120576190Y-97214286D01*
X121052381Y-95690476D02*
X121052381Y-96261905D01*
X121052381Y-95976191D02*
X120052381Y-95976191D01*
X120195238Y-96071429D01*
X120290476Y-96166667D01*
X120338095Y-96261905D01*
X120385714Y-94833333D02*
X121052381Y-94833333D01*
X120004762Y-95071429D02*
X120719048Y-95309524D01*
X120719048Y-94690476D01*
X123438095Y-77352381D02*
X123438095Y-78161905D01*
X123485714Y-78257143D01*
X123533333Y-78304762D01*
X123628571Y-78352381D01*
X123819048Y-78352381D01*
X123914286Y-78304762D01*
X123961905Y-78257143D01*
X124009524Y-78161905D01*
X124009524Y-77352381D01*
X125009524Y-78352381D02*
X124438095Y-78352381D01*
X124723809Y-78352381D02*
X124723809Y-77352381D01*
X124628571Y-77495238D01*
X124533333Y-77590476D01*
X124438095Y-77638095D01*
X126138095Y-96252381D02*
X126138095Y-97061905D01*
X126185714Y-97157143D01*
X126233333Y-97204762D01*
X126328571Y-97252381D01*
X126519048Y-97252381D01*
X126614286Y-97204762D01*
X126661905Y-97157143D01*
X126709524Y-97061905D01*
X126709524Y-96252381D01*
X127614286Y-96585714D02*
X127614286Y-97252381D01*
X127376190Y-96204762D02*
X127138095Y-96919048D01*
X127757143Y-96919048D01*
X138652381Y-75361905D02*
X139461905Y-75361905D01*
X139557143Y-75314286D01*
X139604762Y-75266667D01*
X139652381Y-75171429D01*
X139652381Y-74980952D01*
X139604762Y-74885714D01*
X139557143Y-74838095D01*
X139461905Y-74790476D01*
X138652381Y-74790476D01*
X138652381Y-73838095D02*
X138652381Y-74314286D01*
X139128571Y-74361905D01*
X139080952Y-74314286D01*
X139033333Y-74219048D01*
X139033333Y-73980952D01*
X139080952Y-73885714D01*
X139128571Y-73838095D01*
X139223810Y-73790476D01*
X139461905Y-73790476D01*
X139557143Y-73838095D01*
X139604762Y-73885714D01*
X139652381Y-73980952D01*
X139652381Y-74219048D01*
X139604762Y-74314286D01*
X139557143Y-74361905D01*
X146038095Y-75052381D02*
X146038095Y-75861905D01*
X146085714Y-75957143D01*
X146133333Y-76004762D01*
X146228571Y-76052381D01*
X146419048Y-76052381D01*
X146514286Y-76004762D01*
X146561905Y-75957143D01*
X146609524Y-75861905D01*
X146609524Y-75052381D01*
X147514286Y-75052381D02*
X147323809Y-75052381D01*
X147228571Y-75100000D01*
X147180952Y-75147619D01*
X147085714Y-75290476D01*
X147038095Y-75480952D01*
X147038095Y-75861905D01*
X147085714Y-75957143D01*
X147133333Y-76004762D01*
X147228571Y-76052381D01*
X147419048Y-76052381D01*
X147514286Y-76004762D01*
X147561905Y-75957143D01*
X147609524Y-75861905D01*
X147609524Y-75623810D01*
X147561905Y-75528571D01*
X147514286Y-75480952D01*
X147419048Y-75433333D01*
X147228571Y-75433333D01*
X147133333Y-75480952D01*
X147085714Y-75528571D01*
X147038095Y-75623810D01*
X120157143Y-89852381D02*
X119823809Y-89376190D01*
X119585714Y-89852381D02*
X119585714Y-88852381D01*
X119966667Y-88852381D01*
X120061905Y-88900000D01*
X120109524Y-88947619D01*
X120157143Y-89042857D01*
X120157143Y-89185714D01*
X120109524Y-89280952D01*
X120061905Y-89328571D01*
X119966667Y-89376190D01*
X119585714Y-89376190D01*
X121109524Y-89852381D02*
X120538095Y-89852381D01*
X120823809Y-89852381D02*
X120823809Y-88852381D01*
X120728571Y-88995238D01*
X120633333Y-89090476D01*
X120538095Y-89138095D01*
X122014286Y-88852381D02*
X121538095Y-88852381D01*
X121490476Y-89328571D01*
X121538095Y-89280952D01*
X121633333Y-89233333D01*
X121871429Y-89233333D01*
X121966667Y-89280952D01*
X122014286Y-89328571D01*
X122061905Y-89423810D01*
X122061905Y-89661905D01*
X122014286Y-89757143D01*
X121966667Y-89804762D01*
X121871429Y-89852381D01*
X121633333Y-89852381D01*
X121538095Y-89804762D01*
X121490476Y-89757143D01*
X126857143Y-91552381D02*
X126523809Y-91076190D01*
X126285714Y-91552381D02*
X126285714Y-90552381D01*
X126666667Y-90552381D01*
X126761905Y-90600000D01*
X126809524Y-90647619D01*
X126857143Y-90742857D01*
X126857143Y-90885714D01*
X126809524Y-90980952D01*
X126761905Y-91028571D01*
X126666667Y-91076190D01*
X126285714Y-91076190D01*
X127809524Y-91552381D02*
X127238095Y-91552381D01*
X127523809Y-91552381D02*
X127523809Y-90552381D01*
X127428571Y-90695238D01*
X127333333Y-90790476D01*
X127238095Y-90838095D01*
X128666667Y-90552381D02*
X128476190Y-90552381D01*
X128380952Y-90600000D01*
X128333333Y-90647619D01*
X128238095Y-90790476D01*
X128190476Y-90980952D01*
X128190476Y-91361905D01*
X128238095Y-91457143D01*
X128285714Y-91504762D01*
X128380952Y-91552381D01*
X128571429Y-91552381D01*
X128666667Y-91504762D01*
X128714286Y-91457143D01*
X128761905Y-91361905D01*
X128761905Y-91123810D01*
X128714286Y-91028571D01*
X128666667Y-90980952D01*
X128571429Y-90933333D01*
X128380952Y-90933333D01*
X128285714Y-90980952D01*
X128238095Y-91028571D01*
X128190476Y-91123810D01*
X162854762Y-100383333D02*
X162902381Y-100240476D01*
X162902381Y-100002380D01*
X162854762Y-99907142D01*
X162807143Y-99859523D01*
X162711905Y-99811904D01*
X162616667Y-99811904D01*
X162521429Y-99859523D01*
X162473810Y-99907142D01*
X162426190Y-100002380D01*
X162378571Y-100192857D01*
X162330952Y-100288095D01*
X162283333Y-100335714D01*
X162188095Y-100383333D01*
X162092857Y-100383333D01*
X161997619Y-100335714D01*
X161950000Y-100288095D01*
X161902381Y-100192857D01*
X161902381Y-99954761D01*
X161950000Y-99811904D01*
X161902381Y-99478571D02*
X162902381Y-99240476D01*
X162188095Y-99049999D01*
X162902381Y-98859523D01*
X161902381Y-98621428D01*
X161997619Y-98288095D02*
X161950000Y-98240476D01*
X161902381Y-98145238D01*
X161902381Y-97907142D01*
X161950000Y-97811904D01*
X161997619Y-97764285D01*
X162092857Y-97716666D01*
X162188095Y-97716666D01*
X162330952Y-97764285D01*
X162902381Y-98335714D01*
X162902381Y-97716666D01*
X155547619Y-77095238D02*
X155500000Y-77190476D01*
X155404762Y-77285714D01*
X155261905Y-77428571D01*
X155214286Y-77523810D01*
X155214286Y-77619048D01*
X155452381Y-77571429D02*
X155404762Y-77666667D01*
X155309524Y-77761905D01*
X155119048Y-77809524D01*
X154785714Y-77809524D01*
X154595238Y-77761905D01*
X154500000Y-77666667D01*
X154452381Y-77571429D01*
X154452381Y-77380952D01*
X154500000Y-77285714D01*
X154595238Y-77190476D01*
X154785714Y-77142857D01*
X155119048Y-77142857D01*
X155309524Y-77190476D01*
X155404762Y-77285714D01*
X155452381Y-77380952D01*
X155452381Y-77571429D01*
X154452381Y-76809524D02*
X154452381Y-76190476D01*
X154833333Y-76523810D01*
X154833333Y-76380952D01*
X154880952Y-76285714D01*
X154928571Y-76238095D01*
X155023810Y-76190476D01*
X155261905Y-76190476D01*
X155357143Y-76238095D01*
X155404762Y-76285714D01*
X155452381Y-76380952D01*
X155452381Y-76666667D01*
X155404762Y-76761905D01*
X155357143Y-76809524D01*
X157252381Y-75942857D02*
X156776190Y-76276191D01*
X157252381Y-76514286D02*
X156252381Y-76514286D01*
X156252381Y-76133333D01*
X156300000Y-76038095D01*
X156347619Y-75990476D01*
X156442857Y-75942857D01*
X156585714Y-75942857D01*
X156680952Y-75990476D01*
X156728571Y-76038095D01*
X156776190Y-76133333D01*
X156776190Y-76514286D01*
X157252381Y-74990476D02*
X157252381Y-75561905D01*
X157252381Y-75276191D02*
X156252381Y-75276191D01*
X156395238Y-75371429D01*
X156490476Y-75466667D01*
X156538095Y-75561905D01*
X157252381Y-74514286D02*
X157252381Y-74323810D01*
X157204762Y-74228571D01*
X157157143Y-74180952D01*
X157014286Y-74085714D01*
X156823810Y-74038095D01*
X156442857Y-74038095D01*
X156347619Y-74085714D01*
X156300000Y-74133333D01*
X156252381Y-74228571D01*
X156252381Y-74419048D01*
X156300000Y-74514286D01*
X156347619Y-74561905D01*
X156442857Y-74609524D01*
X156680952Y-74609524D01*
X156776190Y-74561905D01*
X156823810Y-74514286D01*
X156871429Y-74419048D01*
X156871429Y-74228571D01*
X156823810Y-74133333D01*
X156776190Y-74085714D01*
X156680952Y-74038095D01*
X137747619Y-90995238D02*
X137700000Y-91090476D01*
X137604762Y-91185714D01*
X137461905Y-91328571D01*
X137414286Y-91423810D01*
X137414286Y-91519048D01*
X137652381Y-91471429D02*
X137604762Y-91566667D01*
X137509524Y-91661905D01*
X137319048Y-91709524D01*
X136985714Y-91709524D01*
X136795238Y-91661905D01*
X136700000Y-91566667D01*
X136652381Y-91471429D01*
X136652381Y-91280952D01*
X136700000Y-91185714D01*
X136795238Y-91090476D01*
X136985714Y-91042857D01*
X137319048Y-91042857D01*
X137509524Y-91090476D01*
X137604762Y-91185714D01*
X137652381Y-91280952D01*
X137652381Y-91471429D01*
X136985714Y-90185714D02*
X137652381Y-90185714D01*
X136604762Y-90423810D02*
X137319048Y-90661905D01*
X137319048Y-90042857D01*
X139452381Y-87242857D02*
X138976190Y-87576191D01*
X139452381Y-87814286D02*
X138452381Y-87814286D01*
X138452381Y-87433333D01*
X138500000Y-87338095D01*
X138547619Y-87290476D01*
X138642857Y-87242857D01*
X138785714Y-87242857D01*
X138880952Y-87290476D01*
X138928571Y-87338095D01*
X138976190Y-87433333D01*
X138976190Y-87814286D01*
X138547619Y-86861905D02*
X138500000Y-86814286D01*
X138452381Y-86719048D01*
X138452381Y-86480952D01*
X138500000Y-86385714D01*
X138547619Y-86338095D01*
X138642857Y-86290476D01*
X138738095Y-86290476D01*
X138880952Y-86338095D01*
X139452381Y-86909524D01*
X139452381Y-86290476D01*
X138452381Y-85671429D02*
X138452381Y-85576190D01*
X138500000Y-85480952D01*
X138547619Y-85433333D01*
X138642857Y-85385714D01*
X138833333Y-85338095D01*
X139071429Y-85338095D01*
X139261905Y-85385714D01*
X139357143Y-85433333D01*
X139404762Y-85480952D01*
X139452381Y-85576190D01*
X139452381Y-85671429D01*
X139404762Y-85766667D01*
X139357143Y-85814286D01*
X139261905Y-85861905D01*
X139071429Y-85909524D01*
X138833333Y-85909524D01*
X138642857Y-85861905D01*
X138547619Y-85814286D01*
X138500000Y-85766667D01*
X138452381Y-85671429D01*
X162738095Y-72952381D02*
X162738095Y-73761905D01*
X162785714Y-73857143D01*
X162833333Y-73904762D01*
X162928571Y-73952381D01*
X163119048Y-73952381D01*
X163214286Y-73904762D01*
X163261905Y-73857143D01*
X163309524Y-73761905D01*
X163309524Y-72952381D01*
X163738095Y-73047619D02*
X163785714Y-73000000D01*
X163880952Y-72952381D01*
X164119048Y-72952381D01*
X164214286Y-73000000D01*
X164261905Y-73047619D01*
X164309524Y-73142857D01*
X164309524Y-73238095D01*
X164261905Y-73380952D01*
X163690476Y-73952381D01*
X164309524Y-73952381D01*
X157861905Y-88902381D02*
X157861905Y-87902381D01*
X158242858Y-87902381D01*
X158338096Y-87950000D01*
X158385715Y-87997619D01*
X158433334Y-88092857D01*
X158433334Y-88235714D01*
X158385715Y-88330952D01*
X158338096Y-88378571D01*
X158242858Y-88426190D01*
X157861905Y-88426190D01*
X158766667Y-87902381D02*
X159385715Y-87902381D01*
X159052381Y-88283333D01*
X159195239Y-88283333D01*
X159290477Y-88330952D01*
X159338096Y-88378571D01*
X159385715Y-88473810D01*
X159385715Y-88711905D01*
X159338096Y-88807143D01*
X159290477Y-88854762D01*
X159195239Y-88902381D01*
X158909524Y-88902381D01*
X158814286Y-88854762D01*
X158766667Y-88807143D01*
X153391905Y-118534381D02*
X153391905Y-117534381D01*
X153772858Y-117534381D01*
X153868096Y-117582000D01*
X153915715Y-117629619D01*
X153963334Y-117724857D01*
X153963334Y-117867714D01*
X153915715Y-117962952D01*
X153868096Y-118010571D01*
X153772858Y-118058190D01*
X153391905Y-118058190D01*
X154344286Y-117629619D02*
X154391905Y-117582000D01*
X154487143Y-117534381D01*
X154725239Y-117534381D01*
X154820477Y-117582000D01*
X154868096Y-117629619D01*
X154915715Y-117724857D01*
X154915715Y-117820095D01*
X154868096Y-117962952D01*
X154296667Y-118534381D01*
X154915715Y-118534381D01*
M02*
