G04 #@! TF.FileFunction,Legend,Bot*
%FSLAX46Y46*%
G04 Gerber Fmt 4.6, Leading zero omitted, Abs format (unit mm)*
G04 Created by KiCad (PCBNEW 4.0.4+dfsg1-stable) date Wed Mar  8 20:37:53 2017*
%MOMM*%
%LPD*%
G01*
G04 APERTURE LIST*
%ADD10C,0.100000*%
%ADD11C,0.150000*%
G04 APERTURE END LIST*
D10*
X118200000Y-118200000D02*
X167200000Y-118200000D01*
X118200000Y-69200000D02*
X118200000Y-118200000D01*
X167200000Y-69200000D02*
X118200000Y-69200000D01*
X167200000Y-118200000D02*
X167200000Y-69200000D01*
D11*
X154000000Y-96825000D02*
X152000000Y-96825000D01*
X152000000Y-98975000D02*
X154000000Y-98975000D01*
X123600000Y-82475000D02*
X124800000Y-82475000D01*
X124800000Y-80725000D02*
X123600000Y-80725000D01*
X164150000Y-74725000D02*
X162950000Y-74725000D01*
X162950000Y-76475000D02*
X164150000Y-76475000D01*
X123600000Y-80375000D02*
X124800000Y-80375000D01*
X124800000Y-78625000D02*
X123600000Y-78625000D01*
X122075000Y-78500000D02*
X122075000Y-77500000D01*
X120725000Y-77500000D02*
X120725000Y-78500000D01*
X120625000Y-83150000D02*
X120625000Y-84150000D01*
X121975000Y-84150000D02*
X121975000Y-83150000D01*
X134060000Y-72450000D02*
G75*
G03X134060000Y-72450000I-1000000J0D01*
G01*
X156060000Y-72450000D02*
G75*
G03X156060000Y-72450000I-1000000J0D01*
G01*
X134060000Y-89750000D02*
G75*
G03X134060000Y-89750000I-1000000J0D01*
G01*
X156060000Y-89750000D02*
G75*
G03X156060000Y-89750000I-1000000J0D01*
G01*
X155060000Y-92100000D02*
X155060000Y-70100000D01*
X155060000Y-70100000D02*
X133060000Y-70100000D01*
X133060000Y-70100000D02*
X133060000Y-92100000D01*
X133060000Y-92100000D02*
X155060000Y-92100000D01*
X147560000Y-77200000D02*
X147060000Y-77700000D01*
X147960000Y-77600000D02*
X147560000Y-77200000D01*
X147460000Y-78100000D02*
X147960000Y-77600000D01*
X148561111Y-81100000D02*
G75*
G03X148561111Y-81100000I-4501111J0D01*
G01*
X146600000Y-81100000D02*
G75*
G03X146600000Y-81100000I-2540000J0D01*
G01*
X154138095Y-96252381D02*
X154138095Y-95252381D01*
X153900000Y-95252381D01*
X153757142Y-95300000D01*
X153661904Y-95395238D01*
X153614285Y-95490476D01*
X153566666Y-95680952D01*
X153566666Y-95823810D01*
X153614285Y-96014286D01*
X153661904Y-96109524D01*
X153757142Y-96204762D01*
X153900000Y-96252381D01*
X154138095Y-96252381D01*
X152614285Y-96252381D02*
X153185714Y-96252381D01*
X152900000Y-96252381D02*
X152900000Y-95252381D01*
X152995238Y-95395238D01*
X153090476Y-95490476D01*
X153185714Y-95538095D01*
X124566666Y-83657143D02*
X124614285Y-83704762D01*
X124757142Y-83752381D01*
X124852380Y-83752381D01*
X124995238Y-83704762D01*
X125090476Y-83609524D01*
X125138095Y-83514286D01*
X125185714Y-83323810D01*
X125185714Y-83180952D01*
X125138095Y-82990476D01*
X125090476Y-82895238D01*
X124995238Y-82800000D01*
X124852380Y-82752381D01*
X124757142Y-82752381D01*
X124614285Y-82800000D01*
X124566666Y-82847619D01*
X123995238Y-83180952D02*
X124090476Y-83133333D01*
X124138095Y-83085714D01*
X124185714Y-82990476D01*
X124185714Y-82942857D01*
X124138095Y-82847619D01*
X124090476Y-82800000D01*
X123995238Y-82752381D01*
X123804761Y-82752381D01*
X123709523Y-82800000D01*
X123661904Y-82847619D01*
X123614285Y-82942857D01*
X123614285Y-82990476D01*
X123661904Y-83085714D01*
X123709523Y-83133333D01*
X123804761Y-83180952D01*
X123995238Y-83180952D01*
X124090476Y-83228571D01*
X124138095Y-83276190D01*
X124185714Y-83371429D01*
X124185714Y-83561905D01*
X124138095Y-83657143D01*
X124090476Y-83704762D01*
X123995238Y-83752381D01*
X123804761Y-83752381D01*
X123709523Y-83704762D01*
X123661904Y-83657143D01*
X123614285Y-83561905D01*
X123614285Y-83371429D01*
X123661904Y-83276190D01*
X123709523Y-83228571D01*
X123804761Y-83180952D01*
X163716666Y-78057143D02*
X163764285Y-78104762D01*
X163907142Y-78152381D01*
X164002380Y-78152381D01*
X164145238Y-78104762D01*
X164240476Y-78009524D01*
X164288095Y-77914286D01*
X164335714Y-77723810D01*
X164335714Y-77580952D01*
X164288095Y-77390476D01*
X164240476Y-77295238D01*
X164145238Y-77200000D01*
X164002380Y-77152381D01*
X163907142Y-77152381D01*
X163764285Y-77200000D01*
X163716666Y-77247619D01*
X163240476Y-78152381D02*
X163050000Y-78152381D01*
X162954761Y-78104762D01*
X162907142Y-78057143D01*
X162811904Y-77914286D01*
X162764285Y-77723810D01*
X162764285Y-77342857D01*
X162811904Y-77247619D01*
X162859523Y-77200000D01*
X162954761Y-77152381D01*
X163145238Y-77152381D01*
X163240476Y-77200000D01*
X163288095Y-77247619D01*
X163335714Y-77342857D01*
X163335714Y-77580952D01*
X163288095Y-77676190D01*
X163240476Y-77723810D01*
X163145238Y-77771429D01*
X162954761Y-77771429D01*
X162859523Y-77723810D01*
X162811904Y-77676190D01*
X162764285Y-77580952D01*
X127942857Y-79857143D02*
X127990476Y-79904762D01*
X128133333Y-79952381D01*
X128228571Y-79952381D01*
X128371429Y-79904762D01*
X128466667Y-79809524D01*
X128514286Y-79714286D01*
X128561905Y-79523810D01*
X128561905Y-79380952D01*
X128514286Y-79190476D01*
X128466667Y-79095238D01*
X128371429Y-79000000D01*
X128228571Y-78952381D01*
X128133333Y-78952381D01*
X127990476Y-79000000D01*
X127942857Y-79047619D01*
X126990476Y-79952381D02*
X127561905Y-79952381D01*
X127276191Y-79952381D02*
X127276191Y-78952381D01*
X127371429Y-79095238D01*
X127466667Y-79190476D01*
X127561905Y-79238095D01*
X126371429Y-78952381D02*
X126276190Y-78952381D01*
X126180952Y-79000000D01*
X126133333Y-79047619D01*
X126085714Y-79142857D01*
X126038095Y-79333333D01*
X126038095Y-79571429D01*
X126085714Y-79761905D01*
X126133333Y-79857143D01*
X126180952Y-79904762D01*
X126276190Y-79952381D01*
X126371429Y-79952381D01*
X126466667Y-79904762D01*
X126514286Y-79857143D01*
X126561905Y-79761905D01*
X126609524Y-79571429D01*
X126609524Y-79333333D01*
X126561905Y-79142857D01*
X126514286Y-79047619D01*
X126466667Y-79000000D01*
X126371429Y-78952381D01*
X123552381Y-77833334D02*
X123076190Y-77500000D01*
X123552381Y-77261905D02*
X122552381Y-77261905D01*
X122552381Y-77642858D01*
X122600000Y-77738096D01*
X122647619Y-77785715D01*
X122742857Y-77833334D01*
X122885714Y-77833334D01*
X122980952Y-77785715D01*
X123028571Y-77738096D01*
X123076190Y-77642858D01*
X123076190Y-77261905D01*
X122552381Y-78738096D02*
X122552381Y-78261905D01*
X123028571Y-78214286D01*
X122980952Y-78261905D01*
X122933333Y-78357143D01*
X122933333Y-78595239D01*
X122980952Y-78690477D01*
X123028571Y-78738096D01*
X123123810Y-78785715D01*
X123361905Y-78785715D01*
X123457143Y-78738096D01*
X123504762Y-78690477D01*
X123552381Y-78595239D01*
X123552381Y-78357143D01*
X123504762Y-78261905D01*
X123457143Y-78214286D01*
X121852381Y-80357143D02*
X121376190Y-80023809D01*
X121852381Y-79785714D02*
X120852381Y-79785714D01*
X120852381Y-80166667D01*
X120900000Y-80261905D01*
X120947619Y-80309524D01*
X121042857Y-80357143D01*
X121185714Y-80357143D01*
X121280952Y-80309524D01*
X121328571Y-80261905D01*
X121376190Y-80166667D01*
X121376190Y-79785714D01*
X121852381Y-81309524D02*
X121852381Y-80738095D01*
X121852381Y-81023809D02*
X120852381Y-81023809D01*
X120995238Y-80928571D01*
X121090476Y-80833333D01*
X121138095Y-80738095D01*
X120852381Y-81642857D02*
X120852381Y-82309524D01*
X121852381Y-81880952D01*
X147038095Y-113432381D02*
X147038095Y-112432381D01*
X146657142Y-112432381D01*
X146561904Y-112480000D01*
X146514285Y-112527619D01*
X146466666Y-112622857D01*
X146466666Y-112765714D01*
X146514285Y-112860952D01*
X146561904Y-112908571D01*
X146657142Y-112956190D01*
X147038095Y-112956190D01*
X145514285Y-113432381D02*
X146085714Y-113432381D01*
X145800000Y-113432381D02*
X145800000Y-112432381D01*
X145895238Y-112575238D01*
X145990476Y-112670476D01*
X146085714Y-112718095D01*
X144821905Y-74552381D02*
X144821905Y-75361905D01*
X144774286Y-75457143D01*
X144726667Y-75504762D01*
X144631429Y-75552381D01*
X144440952Y-75552381D01*
X144345714Y-75504762D01*
X144298095Y-75457143D01*
X144250476Y-75361905D01*
X144250476Y-74552381D01*
X143869524Y-74552381D02*
X143250476Y-74552381D01*
X143583810Y-74933333D01*
X143440952Y-74933333D01*
X143345714Y-74980952D01*
X143298095Y-75028571D01*
X143250476Y-75123810D01*
X143250476Y-75361905D01*
X143298095Y-75457143D01*
X143345714Y-75504762D01*
X143440952Y-75552381D01*
X143726667Y-75552381D01*
X143821905Y-75504762D01*
X143869524Y-75457143D01*
M02*
