M48
;DRILL file {KiCad 4.0.0-2.201512091501+6195~38~ubuntu15.10.1-stable} date zo 13 dec 2015 16:30:00 CET
;FORMAT={-:-/ absolute / inch / decimal}
FMAT,2
INCH,TZ
T1C0.020
T2C0.024
T3C0.039
T4C0.039
T5C0.040
%
G90
G05
M72
T1
X4.378Y-2.9409
X4.378Y-3.2232
X4.6614Y-2.9409
T2
X3.1457Y-2.6417
X3.3346Y-3.1297
X3.3425Y-3.3346
X3.4252Y-2.937
X3.4331Y-2.6063
X3.437Y-2.8386
X3.4882Y-3.1142
X3.5039Y-2.6969
X3.6102Y-3.5079
X3.6339Y-3.1339
X3.7087Y-2.6575
X3.8031Y-2.6969
X3.8228Y-2.6299
X3.9647Y-3.3229
X4.0315Y-3.4134
X4.0499Y-3.1096
X4.0672Y-2.8996
X4.0761Y-2.9783
X4.1087Y-2.4574
X4.1102Y-2.3937
X4.1102Y-2.3307
X4.1122Y-3.1969
X4.1481Y-2.5204
X4.1614Y-3.5709
X4.1772Y-3.1181
X4.189Y-3.1929
X4.2835Y-2.8543
X4.2913Y-3.2618
X4.3465Y-2.8386
X4.4272Y-2.5219
X4.4921Y-3.0866
X4.6428Y-3.2429
X4.748Y-2.3425
X4.8031Y-2.815
T3
X4.2283Y-2.311
X4.2283Y-2.5197
T4
X3.2276Y-3.244
X3.2276Y-3.6378
T5
X3.2276Y-2.5366
X3.2276Y-2.6366
X3.2276Y-2.7366
X3.2276Y-2.8366
X3.2276Y-2.9366
X3.2276Y-3.0366
X3.3276Y-2.5366
X3.3276Y-2.6366
X3.3276Y-2.7366
X3.3276Y-2.8366
X3.3276Y-2.9366
X3.3276Y-3.0366
X3.6677Y-2.4488
X3.6677Y-2.5488
X3.7677Y-2.4488
X3.7677Y-2.5488
X3.8677Y-2.4488
X3.8677Y-2.5488
X3.9677Y-2.4488
X3.9677Y-2.5488
X4.1614Y-3.6575
X4.2614Y-3.6575
X4.3614Y-3.6575
X4.4272Y-2.6142
X4.4272Y-2.7142
X4.4614Y-3.6575
T0
M30
