<?xml version="1.0" standalone="no"?>
 <!DOCTYPE svg PUBLIC "-//W3C//DTD SVG 1.1//EN" 
 "http://www.w3.org/Graphics/SVG/1.1/DTD/svg11.dtd"> 
<svg xmlns="http://www.w3.org/2000/svg" version="1.1" 
    width="29.7002cm" height="21.0007cm" viewBox="0 0 116930 82680 ">
<title>SVG Picture created as SensorActuator-B.SilkS.svg date 2016/02/14 16:01:00 </title>
  <desc>Picture generated by PCBNEW </desc>
<g style="fill:#000000; fill-opacity:1;stroke:#000000; stroke-opacity:1;
stroke-linecap:round; stroke-linejoin:round; "
 transform="translate(0 0) scale(1 1)">
</g>
<g style="fill:#000000; fill-opacity:0.0; 
stroke:#000000; stroke-width:-0.000393701; stroke-opacity:1; 
stroke-linecap:round; stroke-linejoin:round;">
</g>
<g style="fill:#000000; fill-opacity:0.0; 
stroke:#000000; stroke-width:39.3701; stroke-opacity:1; 
stroke-linecap:round; stroke-linejoin:round;">
<path d="M46456 46751
L46456 27066
" />
<path d="M66141 46751
L46456 46751
" />
<path d="M66141 27066
L66141 46751
" />
<path d="M46456 27066
L66141 27066
" />
</g>
<g style="fill:#000000; fill-opacity:0.0; 
stroke:#000000; stroke-width:59.0551; stroke-opacity:1; 
stroke-linecap:round; stroke-linejoin:round;">
<circle cx="65551.2" cy="35236.2" r="236.22" /> 
<circle cx="56496.1" cy="35236.2" r="236.22" /> 
<circle cx="65551.2" cy="28346.5" r="236.22" /> 
<circle cx="56496.1" cy="28346.5" r="236.22" /> 
<path d="M56496 27263
L56496 36318
" />
<path d="M56496 36318
L65551 36318
" />
<path d="M65551 36318
L65551 27263
" />
<path d="M65551 27263
L56496 27263
" />
<path d="M59645 33326
L59842 33129
" />
<path d="M59488 33169
L59645 33326
" />
<path d="M59685 32972
L59488 33169
" />
<circle cx="61023.6" cy="31791.3" r="1772.09" /> 
<circle cx="61023.6" cy="31791.3" r="1000" /> 
<path d="M62253 40807
L62253 41279
" />
<path d="M62942 41279
L62942 40807
" />
<path d="M62942 39704
L62942 39232
" />
<path d="M62253 39232
L62253 39704
" />
<path d="M61368 40807
L61368 41279
" />
<path d="M62057 41279
L62057 40807
" />
<path d="M63730 39704
L63730 39232
" />
<path d="M63041 39232
L63041 39704
" />
<path d="M64527 38927
L65000 38927
" />
<path d="M65000 38238
L64527 38238
" />
<path d="M52814 49153
L52814 45677
" />
<path d="M53814 49153
L52814 49153
" />
<path d="M53814 45677
L52814 45677
" />
<path d="M54814 45677
L53814 45677
" />
<path d="M54814 49153
L53814 49153
" />
<path d="M53814 49153
L53814 45677
" />
<path d="M54814 49153
L54814 45677
" />
<path d="M55814 49153
L54814 49153
" />
<path d="M55814 45677
L55814 49153
" />
<path d="M55814 45677
L54814 45677
" />
<path d="M56814 45677
L55814 45677
" />
<path d="M56314 44625
L56925 44625
" />
<path d="M56925 44625
L56925 45177
" />
<path d="M56814 45677
L56814 49153
" />
<path d="M56814 49153
L55814 49153
" />
<path d="M55814 49153
L55814 45677
" />
<path d="M47185 27827
L47796 27827
" />
<path d="M49296 27938
L48296 27938
" />
<path d="M48296 27938
L48296 28938
" />
<path d="M47796 29048
L47185 29048
" />
<path d="M47185 29048
L47185 27827
" />
<path d="M48296 28938
L49296 28938
" />
<path d="M49296 28938
L49296 27938
" />
<path d="M61323 33937
L61323 34256
L61304 34294
L61286 34312
L61248 34331
L61173 34331
L61136 34312
L61117 34294
L61098 34256
L61098 33937
" />
<path d="M60704 34331
L60929 34331
" />
<path d="M60817 34331
L60817 33937
L60854 33994
L60892 34031
L60929 34050
" />
<path d="M63526 40977
L63545 40958
L63563 40902
L63563 40865
L63545 40808
L63507 40771
L63470 40752
L63395 40733
L63338 40733
L63263 40752
L63226 40771
L63188 40808
L63170 40865
L63170 40902
L63188 40958
L63207 40977
" />
<path d="M63563 41352
L63563 41127
" />
<path d="M63563 41240
L63170 41240
L63226 41202
L63263 41165
L63282 41127
" />
<path d="M61912 39402
L61931 39384
L61949 39327
L61949 39290
L61931 39234
L61893 39196
L61856 39177
L61781 39159
L61724 39159
L61649 39177
L61612 39196
L61574 39234
L61556 39290
L61556 39327
L61574 39384
L61593 39402
" />
<path d="M61593 39552
L61574 39571
L61556 39609
L61556 39702
L61574 39740
L61593 39759
L61631 39777
L61668 39777
L61724 39759
L61949 39534
L61949 39777
" />
<path d="M61065 40977
L61084 40958
L61103 40902
L61103 40865
L61084 40808
L61047 40771
L61009 40752
L60934 40733
L60878 40733
L60803 40752
L60765 40771
L60728 40808
L60709 40865
L60709 40902
L60728 40958
L60747 40977
" />
<path d="M60709 41108
L60709 41352
L60859 41221
L60859 41277
L60878 41315
L60897 41333
L60934 41352
L61028 41352
L61065 41333
L61084 41315
L61103 41277
L61103 41165
L61084 41127
L61065 41108
" />
<path d="M63549 40593
L63568 40612
L63624 40630
L63662 40630
L63718 40612
L63756 40574
L63774 40537
L63793 40462
L63793 40405
L63774 40330
L63756 40293
L63718 40255
L63662 40237
L63624 40237
L63568 40255
L63549 40274
" />
<path d="M63212 40368
L63212 40630
" />
<path d="M63306 40218
L63399 40499
L63156 40499
" />
<path d="M65223 39510
L65241 39529
L65298 39548
L65335 39548
L65391 39529
L65429 39491
L65448 39454
L65466 39379
L65466 39323
L65448 39248
L65429 39210
L65391 39173
L65335 39154
L65298 39154
L65241 39173
L65223 39191
" />
<path d="M64885 39154
L64960 39154
L64998 39173
L65016 39191
L65054 39248
L65073 39323
L65073 39473
L65054 39510
L65035 39529
L64998 39548
L64923 39548
L64885 39529
L64866 39510
L64848 39473
L64848 39379
L64866 39341
L64885 39323
L64923 39304
L64998 39304
L65035 39323
L65054 39341
L65073 39379
" />
<path d="M56605 44371
L56605 43977
L56455 43977
L56418 43996
L56399 44014
L56380 44052
L56380 44108
L56399 44146
L56418 44164
L56455 44183
L56605 44183
" />
<path d="M56043 44108
L56043 44371
" />
<path d="M56136 43958
L56230 44239
L55986 44239
" />
<path d="M48086 30624
L48086 30230
L47936 30230
L47899 30249
L47880 30267
L47861 30305
L47861 30361
L47880 30399
L47899 30417
L47936 30436
L48086 30436
" />
<path d="M47505 30230
L47693 30230
L47711 30417
L47693 30399
L47655 30380
L47561 30380
L47524 30399
L47505 30417
L47486 30455
L47486 30549
L47505 30586
L47524 30605
L47561 30624
L47655 30624
L47693 30605
L47711 30586
" />
</g> 
</svg>
