<?xml version="1.0" standalone="no"?>
 <!DOCTYPE svg PUBLIC "-//W3C//DTD SVG 1.1//EN" 
 "http://www.w3.org/Graphics/SVG/1.1/DTD/svg11.dtd"> 
<svg xmlns="http://www.w3.org/2000/svg" version="1.1" 
    width="29.7002cm" height="21.0007cm" viewBox="0 0 116930 82680 ">
<title>SVG Picture created as SensorActuator-B.SilkS.svg date 2015/12/13 16:22:07 </title>
  <desc>Picture generated by PCBNEW </desc>
<g style="fill:#000000; fill-opacity:1;stroke:#000000; stroke-opacity:1;
stroke-linecap:round; stroke-linejoin:round; "
 transform="translate(0 0) scale(1 1)">
</g>
<g style="fill:#000000; fill-opacity:0.0; 
stroke:#000000; stroke-width:-0.000393701; stroke-opacity:1; 
stroke-linecap:round; stroke-linejoin:round;">
</g>
<g style="fill:#000000; fill-opacity:0.0; 
stroke:#000000; stroke-width:59.0551; stroke-opacity:1; 
stroke-linecap:round; stroke-linejoin:round;">
<circle cx="48818.9" cy="27165.4" r="262.467" /> 
<path d="M48425 27165
L49212 27165
" />
<path d="M48818 26771
L48818 27559
" />
<circle cx="34763.8" cy="23779.5" r="262.467" /> 
<path d="M34370 23779
L35157 23779
" />
<path d="M34763 23385
L34763 24173
" />
<circle cx="38582.7" cy="35905.5" r="262.467" /> 
<path d="M38188 35905
L38976 35905
" />
<path d="M38582 35511
L38582 36299
" />
<path d="M30314 37401
L30314 22440
" />
<path d="M50000 37401
L30314 37401
" />
<path d="M50000 22440
L50000 37401
" />
<path d="M30314 22440
L50000 22440
" />
<circle cx="45196.9" cy="30818.9" r="2019.99" /> 
<circle cx="45196.9" cy="30828.7" r="3612.69" /> 
<path d="M43543 24124
L44330 24124
" />
<path d="M44330 23277
L43543 23277
" />
<path d="M32725 35059
L32725 33759
" />
<path d="M31825 34409
L31825 33759
" />
<path d="M31825 34409
L31825 35059
" />
<path d="M49170 30518
L49488 30518
L49526 30537
L49545 30556
L49563 30593
L49563 30668
L49545 30706
L49526 30725
L49488 30743
L49170 30743
" />
<path d="M49563 31137
L49563 30912
" />
<path d="M49563 31025
L49170 31025
L49226 30987
L49263 30950
L49282 30912
" />
<path d="M44041 23012
L44173 22825
" />
<path d="M44266 23012
L44266 22619
L44116 22619
L44079 22637
L44060 22656
L44041 22694
L44041 22750
L44060 22787
L44079 22806
L44116 22825
L44266 22825
" />
<path d="M43892 22656
L43873 22637
L43835 22619
L43742 22619
L43704 22637
L43685 22656
L43667 22694
L43667 22731
L43685 22787
L43910 23012
L43667 23012
" />
<path d="M31508 34382
L31321 34251
" />
<path d="M31508 34157
L31114 34157
L31114 34307
L31133 34345
L31152 34364
L31189 34382
L31246 34382
L31283 34364
L31302 34345
L31321 34307
L31321 34157
" />
<path d="M31508 34570
L31508 34645
L31489 34682
L31471 34701
L31414 34739
L31339 34757
L31189 34757
L31152 34739
L31133 34720
L31114 34682
L31114 34607
L31133 34570
L31152 34551
L31189 34532
L31283 34532
L31321 34551
L31339 34570
L31358 34607
L31358 34682
L31339 34720
L31321 34739
L31283 34757
" />
</g> 
</svg>
