<?xml version="1.0" standalone="no"?>
 <!DOCTYPE svg PUBLIC "-//W3C//DTD SVG 1.1//EN" 
 "http://www.w3.org/Graphics/SVG/1.1/DTD/svg11.dtd"> 
<svg xmlns="http://www.w3.org/2000/svg" version="1.1" 
    width="29.7002cm" height="21.0007cm" viewBox="0 0 116930 82680 ">
<title>SVG Picture created as SensorActuator-Cmts.User.svg date 2015/12/13 16:22:07 </title>
  <desc>Picture generated by PCBNEW </desc>
<g style="fill:#000000; fill-opacity:1;stroke:#000000; stroke-opacity:1;
stroke-linecap:round; stroke-linejoin:round; "
 transform="translate(0 0) scale(1 1)">
</g>
<g style="fill:#000000; fill-opacity:0.0; 
stroke:#000000; stroke-width:-0.000393701; stroke-opacity:1; 
stroke-linecap:round; stroke-linejoin:round;">
</g>
<g style="fill:#000000; fill-opacity:0.0; 
stroke:#000000; stroke-width:59.0551; stroke-opacity:1; 
stroke-linecap:round; stroke-linejoin:round;">
<circle cx="48818.9" cy="27165.4" r="262.467" /> 
<path d="M48425 27165
L49212 27165
" />
<path d="M48818 26771
L48818 27559
" />
<circle cx="34763.8" cy="23779.5" r="262.467" /> 
<path d="M34370 23779
L35157 23779
" />
<path d="M34763 23385
L34763 24173
" />
<circle cx="38582.7" cy="35905.5" r="262.467" /> 
<path d="M38188 35905
L38976 35905
" />
<path d="M38582 35511
L38582 36299
" />
<path d="M30314 37401
L30314 22440
" />
<path d="M50000 37401
L30314 37401
" />
<path d="M50000 22440
L50000 37401
" />
<path d="M30314 22440
L50000 22440
" />
</g>
<g style="fill:#000000; fill-opacity:0.0; 
stroke:#000000; stroke-width:118.11; stroke-opacity:1; 
stroke-linecap:round; stroke-linejoin:round;">
<path d="M52097 32395
L52097 32030
L52322 32227
L52322 32142
L52350 32086
L52379 32058
L52435 32030
L52575 32030
L52632 32058
L52660 32086
L52688 32142
L52688 32311
L52660 32367
L52632 32395
" />
<path d="M52350 31692
L52322 31749
L52294 31777
L52238 31805
L52210 31805
L52154 31777
L52125 31749
L52097 31692
L52097 31580
L52125 31524
L52154 31496
L52210 31467
L52238 31467
L52294 31496
L52322 31524
L52350 31580
L52350 31692
L52379 31749
L52407 31777
L52463 31805
L52575 31805
L52632 31777
L52660 31749
L52688 31692
L52688 31580
L52660 31524
L52632 31496
L52575 31467
L52463 31467
L52407 31496
L52379 31524
L52350 31580
" />
<path d="M52660 31186
L52688 31186
L52744 31214
L52772 31242
" />
<path d="M52097 30821
L52097 30764
L52125 30708
L52154 30680
L52210 30652
L52322 30624
L52463 30624
L52575 30652
L52632 30680
L52660 30708
L52688 30764
L52688 30821
L52660 30877
L52632 30905
L52575 30933
L52463 30961
L52322 30961
L52210 30933
L52154 30905
L52125 30877
L52097 30821
" />
<path d="M52097 30258
L52097 30202
L52125 30146
L52154 30118
L52210 30089
L52322 30061
L52463 30061
L52575 30089
L52632 30118
L52660 30146
L52688 30202
L52688 30258
L52660 30314
L52632 30343
L52575 30371
L52463 30399
L52322 30399
L52210 30371
L52154 30343
L52125 30314
L52097 30258
" />
<path d="M52097 29696
L52097 29640
L52125 29583
L52154 29555
L52210 29527
L52322 29499
L52463 29499
L52575 29527
L52632 29555
L52660 29583
L52688 29640
L52688 29696
L52660 29752
L52632 29780
L52575 29808
L52463 29836
L52322 29836
L52210 29808
L52154 29780
L52125 29752
L52097 29696
" />
<path d="M52688 28796
L52294 28796
" />
<path d="M52350 28796
L52322 28768
L52294 28712
L52294 28627
L52322 28571
L52379 28543
L52688 28543
" />
<path d="M52379 28543
L52322 28515
L52294 28458
L52294 28374
L52322 28318
L52379 28290
L52688 28290
" />
<path d="M52688 28008
L52294 28008
" />
<path d="M52350 28008
L52322 27980
L52294 27924
L52294 27840
L52322 27784
L52379 27755
L52688 27755
" />
<path d="M52379 27755
L52322 27727
L52294 27671
L52294 27587
L52322 27530
L52379 27502
L52688 27502
" />
<path d="M51889 37401
L51889 22440
" />
<path d="M49606 37401
L52952 37401
" />
<path d="M49606 22440
L52952 22440
" />
<path d="M51889 22440
L52120 22884
" />
<path d="M51889 22440
L51658 22884
" />
<path d="M51889 37401
L52120 36958
" />
<path d="M51889 37401
L51658 36958
" />
<path d="M38020 20404
L37739 20404
L37710 20686
L37739 20658
L37795 20629
L37935 20629
L37992 20658
L38020 20686
L38048 20742
L38048 20883
L38020 20939
L37992 20967
L37935 20995
L37795 20995
L37739 20967
L37710 20939
" />
<path d="M38413 20404
L38470 20404
L38526 20433
L38554 20461
L38582 20517
L38610 20629
L38610 20770
L38582 20883
L38554 20939
L38526 20967
L38470 20995
L38413 20995
L38357 20967
L38329 20939
L38301 20883
L38273 20770
L38273 20629
L38301 20517
L38329 20461
L38357 20433
L38413 20404
" />
<path d="M38892 20967
L38892 20995
L38863 21051
L38835 21079
" />
<path d="M39257 20404
L39313 20404
L39370 20433
L39398 20461
L39426 20517
L39454 20629
L39454 20770
L39426 20883
L39398 20939
L39370 20967
L39313 20995
L39257 20995
L39201 20967
L39173 20939
L39145 20883
L39116 20770
L39116 20629
L39145 20517
L39173 20461
L39201 20433
L39257 20404
" />
<path d="M39820 20404
L39876 20404
L39932 20433
L39960 20461
L39988 20517
L40016 20629
L40016 20770
L39988 20883
L39960 20939
L39932 20967
L39876 20995
L39820 20995
L39763 20967
L39735 20939
L39707 20883
L39679 20770
L39679 20629
L39707 20517
L39735 20461
L39763 20433
L39820 20404
" />
<path d="M40382 20404
L40438 20404
L40494 20433
L40523 20461
L40551 20517
L40579 20629
L40579 20770
L40551 20883
L40523 20939
L40494 20967
L40438 20995
L40382 20995
L40326 20967
L40298 20939
L40269 20883
L40241 20770
L40241 20629
L40269 20517
L40298 20461
L40326 20433
L40382 20404
" />
<path d="M41282 20995
L41282 20601
" />
<path d="M41282 20658
L41310 20629
L41366 20601
L41451 20601
L41507 20629
L41535 20686
L41535 20995
" />
<path d="M41535 20686
L41563 20629
L41619 20601
L41704 20601
L41760 20629
L41788 20686
L41788 20995
" />
<path d="M42069 20995
L42069 20601
" />
<path d="M42069 20658
L42097 20629
L42154 20601
L42238 20601
L42294 20629
L42322 20686
L42322 20995
" />
<path d="M42322 20686
L42350 20629
L42407 20601
L42491 20601
L42547 20629
L42575 20686
L42575 20995
" />
<path d="M30314 21259
L50000 21259
" />
<path d="M30314 23622
L30314 20196
" />
<path d="M50000 23622
L50000 20196
" />
<path d="M50000 21259
L49556 21490
" />
<path d="M50000 21259
L49556 21028
" />
<path d="M30314 21259
L30758 21490
" />
<path d="M30314 21259
L30758 21028
" />
</g> 
</svg>
