<?xml version="1.0" standalone="no"?>
 <!DOCTYPE svg PUBLIC "-//W3C//DTD SVG 1.1//EN" 
 "http://www.w3.org/Graphics/SVG/1.1/DTD/svg11.dtd"> 
<svg xmlns="http://www.w3.org/2000/svg" version="1.1" 
    width="29.7002cm" height="21.0007cm" viewBox="0 0 116930 82680 ">
<title>SVG Picture created as SensorActuator-F.Paste.svg date 2015/12/13 16:22:20 </title>
  <desc>Picture generated by PCBNEW </desc>
<g style="fill:#000000; fill-opacity:1;stroke:#000000; stroke-opacity:1;
stroke-linecap:round; stroke-linejoin:round; "
 transform="translate(0 0) scale(1 1)">
</g>
<g style="fill:#000000; fill-opacity:0.0; 
stroke:#000000; stroke-width:-0.000393701; stroke-opacity:1; 
stroke-linecap:round; stroke-linejoin:round;">
</g>
<g style="fill:#000000; fill-opacity:0.0; 
stroke:#000000; stroke-width:59.0551; stroke-opacity:1; 
stroke-linecap:round; stroke-linejoin:round;">
<circle cx="68111.1" cy="27165.4" r="262.467" /> 
<path d="M68504 27165
L67717 27165
" />
<path d="M68111 26771
L68111 27559
" />
<circle cx="82166.2" cy="23779.5" r="262.467" /> 
<path d="M82559 23779
L81772 23779
" />
<path d="M82166 23385
L82166 24173
" />
<circle cx="78347.3" cy="35905.5" r="262.467" /> 
<path d="M78741 35905
L77953 35905
" />
<path d="M78347 35511
L78347 36299
" />
<path d="M86615 37401
L86615 22440
" />
<path d="M66930 37401
L86615 37401
" />
<path d="M66930 22440
L66930 37401
" />
<path d="M86615 22440
L66930 22440
" />
</g>
<g style="fill:#000000; fill-opacity:0.0; 
stroke:#000000; stroke-width:0; stroke-opacity:1; 
stroke-linecap:round; stroke-linejoin:round;">
</g>
<g style="fill:#000000; fill-opacity:1.0; 
stroke:#000000; stroke-width:0; stroke-opacity:1; 
stroke-linecap:round; stroke-linejoin:round;">
<polyline style="fill-rule:evenodd;"
points="81359,27952
81359,27440
81083,27440
81083,27952
81359,27952
" /> 
<polyline style="fill-rule:evenodd;"
points="80611,27952
80611,27440
80335,27440
80335,27952
80611,27952
" /> 
<polyline style="fill-rule:evenodd;"
points="75512,28720
76024,28720
76024,28444
75512,28444
75512,28720
" /> 
<polyline style="fill-rule:evenodd;"
points="75512,27972
76024,27972
76024,27696
75512,27696
75512,27972
" /> 
<polyline style="fill-rule:evenodd;"
points="81359,27086
81359,26574
81083,26574
81083,27086
81359,27086
" /> 
<polyline style="fill-rule:evenodd;"
points="80611,27086
80611,26574
80335,26574
80335,27086
80611,27086
" /> 
<polyline style="fill-rule:evenodd;"
points="74685,28720
75197,28720
75197,28444
74685,28444
74685,28720
" /> 
<polyline style="fill-rule:evenodd;"
points="74685,27972
75197,27972
75197,27696
74685,27696
74685,27972
" /> 
<polyline style="fill-rule:evenodd;"
points="74981,30354
75492,30354
75492,30078
74981,30078
74981,30354
" /> 
<polyline style="fill-rule:evenodd;"
points="74981,29606
75492,29606
75492,29330
74981,29330
74981,29606
" /> 
<polyline style="fill-rule:evenodd;"
points="77067,31259
76555,31259
76555,31535
77067,31535
77067,31259
" /> 
<polyline style="fill-rule:evenodd;"
points="77067,32007
76555,32007
76555,32283
77067,32283
77067,32007
" /> 
<polyline style="fill-rule:evenodd;"
points="69292,30098
69292,30610
69567,30610
69567,30098
69292,30098
" /> 
<polyline style="fill-rule:evenodd;"
points="70040,30098
70040,30610
70315,30610
70315,30098
70040,30098
" /> 
<polyline style="fill-rule:evenodd;"
points="70926,25787
70414,25787
70414,26062
70926,26062
70926,25787
" /> 
<polyline style="fill-rule:evenodd;"
points="70926,26535
70414,26535
70414,26811
70926,26811
70926,26535
" /> 
<polyline style="fill-rule:evenodd;"
points="69095,26988
69095,27500
69370,27500
69370,26988
69095,26988
" /> 
<polyline style="fill-rule:evenodd;"
points="69843,26988
69843,27500
70118,27500
70118,26988
69843,26988
" /> 
<polyline style="fill-rule:evenodd;"
points="76772,30826
77244,30826
77244,30629
76772,30629
76772,30826
" /> 
<polyline style="fill-rule:evenodd;"
points="76772,30511
77244,30511
77244,30314
76772,30314
76772,30511
" /> 
<polyline style="fill-rule:evenodd;"
points="76772,30196
77244,30196
77244,30000
76772,30000
76772,30196
" /> 
<polyline style="fill-rule:evenodd;"
points="76772,29881
77244,29881
77244,29685
76772,29685
76772,29881
" /> 
<polyline style="fill-rule:evenodd;"
points="76772,29566
77244,29566
77244,29370
76772,29370
76772,29566
" /> 
<polyline style="fill-rule:evenodd;"
points="76772,29251
77244,29251
77244,29055
76772,29055
76772,29251
" /> 
<polyline style="fill-rule:evenodd;"
points="76772,28937
77244,28937
77244,28740
76772,28740
76772,28937
" /> 
<polyline style="fill-rule:evenodd;"
points="76772,28622
77244,28622
77244,28425
76772,28425
76772,28622
" /> 
<polyline style="fill-rule:evenodd;"
points="77481,28188
77678,28188
77678,27716
77481,27716
77481,28188
" /> 
<polyline style="fill-rule:evenodd;"
points="77796,28188
77992,28188
77992,27716
77796,27716
77796,28188
" /> 
<polyline style="fill-rule:evenodd;"
points="78111,28188
78307,28188
78307,27716
78111,27716
78111,28188
" /> 
<polyline style="fill-rule:evenodd;"
points="78426,28188
78622,28188
78622,27716
78426,27716
78426,28188
" /> 
<polyline style="fill-rule:evenodd;"
points="78741,28188
78937,28188
78937,27716
78741,27716
78741,28188
" /> 
<polyline style="fill-rule:evenodd;"
points="79055,28188
79252,28188
79252,27716
79055,27716
79055,28188
" /> 
<polyline style="fill-rule:evenodd;"
points="79370,28188
79567,28188
79567,27716
79370,27716
79370,28188
" /> 
<polyline style="fill-rule:evenodd;"
points="79685,28188
79882,28188
79882,27716
79685,27716
79685,28188
" /> 
<polyline style="fill-rule:evenodd;"
points="80118,28622
80591,28622
80591,28425
80118,28425
80118,28622
" /> 
<polyline style="fill-rule:evenodd;"
points="80118,28937
80591,28937
80591,28740
80118,28740
80118,28937
" /> 
<polyline style="fill-rule:evenodd;"
points="80118,29251
80591,29251
80591,29055
80118,29055
80118,29251
" /> 
<polyline style="fill-rule:evenodd;"
points="80118,29566
80591,29566
80591,29370
80118,29370
80118,29566
" /> 
<polyline style="fill-rule:evenodd;"
points="80118,29881
80591,29881
80591,29685
80118,29685
80118,29881
" /> 
<polyline style="fill-rule:evenodd;"
points="80118,30196
80591,30196
80591,30000
80118,30000
80118,30196
" /> 
<polyline style="fill-rule:evenodd;"
points="80118,30511
80591,30511
80591,30314
80118,30314
80118,30511
" /> 
<polyline style="fill-rule:evenodd;"
points="80118,30826
80591,30826
80591,30629
80118,30629
80118,30826
" /> 
<polyline style="fill-rule:evenodd;"
points="79685,31535
79882,31535
79882,31062
79685,31062
79685,31535
" /> 
<polyline style="fill-rule:evenodd;"
points="79370,31535
79567,31535
79567,31062
79370,31062
79370,31535
" /> 
<polyline style="fill-rule:evenodd;"
points="79055,31535
79252,31535
79252,31062
79055,31062
79055,31535
" /> 
<polyline style="fill-rule:evenodd;"
points="78741,31535
78937,31535
78937,31062
78741,31062
78741,31535
" /> 
<polyline style="fill-rule:evenodd;"
points="78426,31535
78622,31535
78622,31062
78426,31062
78426,31535
" /> 
<polyline style="fill-rule:evenodd;"
points="78111,31535
78307,31535
78307,31062
78111,31062
78111,31535
" /> 
<polyline style="fill-rule:evenodd;"
points="77796,31535
77992,31535
77992,31062
77796,31062
77796,31535
" /> 
<polyline style="fill-rule:evenodd;"
points="77481,31535
77678,31535
77678,31062
77481,31062
77481,31535
" /> 
<polyline style="fill-rule:evenodd;"
points="75689,34350
75689,33956
75453,33956
75453,34350
75689,34350
" /> 
<polyline style="fill-rule:evenodd;"
points="75177,34350
75177,33956
74941,33956
74941,34350
75177,34350
" /> 
<polyline style="fill-rule:evenodd;"
points="75433,35098
75433,34704
75197,34704
75197,35098
75433,35098
" /> 
<polyline style="fill-rule:evenodd;"
points="69981,31791
70375,31791
70375,31555
69981,31555
69981,31791
" /> 
<polyline style="fill-rule:evenodd;"
points="69981,31279
70375,31279
70375,31043
69981,31043
69981,31279
" /> 
<polyline style="fill-rule:evenodd;"
points="69233,31535
69627,31535
69627,31299
69233,31299
69233,31535
" /> 
<polyline style="fill-rule:evenodd;"
points="81989,34074
81989,34468
82225,34468
82225,34074
81989,34074
" /> 
<polyline style="fill-rule:evenodd;"
points="82501,34074
82501,34468
82737,34468
82737,34074
82501,34074
" /> 
<polyline style="fill-rule:evenodd;"
points="82245,33326
82245,33720
82481,33720
82481,33326
82245,33326
" /> 
<polyline style="fill-rule:evenodd;"
points="71289,24590
71289,24196
71053,24196
71053,24590
71289,24590
" /> 
<polyline style="fill-rule:evenodd;"
points="70777,24590
70777,24196
70541,24196
70541,24590
70777,24590
" /> 
<polyline style="fill-rule:evenodd;"
points="71033,25338
71033,24944
70797,24944
70797,25338
71033,25338
" /> 
<polyline style="fill-rule:evenodd;"
points="74666,29055
73996,29055
73996,29409
74666,29409
74666,29055
" /> 
<polyline style="fill-rule:evenodd;"
points="74666,30196
73996,30196
73996,30551
74666,30551
74666,30196
" /> 
<polyline style="fill-rule:evenodd;"
points="73485,30137
72815,30137
72815,30492
73485,30492
73485,30137
" /> 
<polyline style="fill-rule:evenodd;"
points="73485,31279
72815,31279
72815,31633
73485,31633
73485,31279
" /> 
<polyline style="fill-rule:evenodd;"
points="76052,33653
76052,32984
75697,32984
75697,33653
76052,33653
" /> 
<polyline style="fill-rule:evenodd;"
points="74910,33653
74910,32984
74555,32984
74555,33653
74910,33653
" /> 
<polyline style="fill-rule:evenodd;"
points="70689,31850
71359,31850
71359,31496
70689,31496
70689,31850
" /> 
<polyline style="fill-rule:evenodd;"
points="70689,30708
71359,30708
71359,30354
70689,30354
70689,30708
" /> 
<polyline style="fill-rule:evenodd;"
points="81575,34744
81575,35413
81930,35413
81930,34744
81575,34744
" /> 
<polyline style="fill-rule:evenodd;"
points="82717,34744
82717,35413
83071,35413
83071,34744
82717,34744
" /> 
<polyline style="fill-rule:evenodd;"
points="82185,32114
82185,32783
82540,32783
82540,32114
82185,32114
" /> 
<polyline style="fill-rule:evenodd;"
points="83327,32114
83327,32783
83681,32783
83681,32114
83327,32114
" /> 
<polyline style="fill-rule:evenodd;"
points="70167,23094
70167,23763
70521,23763
70521,23094
70167,23094
" /> 
<polyline style="fill-rule:evenodd;"
points="71309,23094
71309,23763
71663,23763
71663,23094
71309,23094
" /> 
<polyline style="fill-rule:evenodd;"
points="70059,36968
70611,36968
70611,36338
70059,36338
70059,36968
" /> 
<polyline style="fill-rule:evenodd;"
points="68288,36968
68839,36968
68839,36338
68288,36338
68288,36968
" /> 
<polyline style="fill-rule:evenodd;"
points="70059,33661
70611,33661
70611,33031
70059,33031
70059,33661
" /> 
<polyline style="fill-rule:evenodd;"
points="68288,33661
68839,33661
68839,33031
68288,33031
68288,33661
" /> 
<polyline style="fill-rule:evenodd;"
points="70118,25629
70118,24370
69646,24370
69646,25629
70118,25629
" /> 
<polyline style="fill-rule:evenodd;"
points="68780,25629
68780,24370
68307,24370
68307,25629
68780,25629
" /> 
<polyline style="fill-rule:evenodd;"
points="70079,25954
69685,25954
69685,26092
70079,26092
70079,25954
" /> 
<polyline style="fill-rule:evenodd;"
points="70079,26210
69685,26210
69685,26348
70079,26348
70079,26210
" /> 
<polyline style="fill-rule:evenodd;"
points="70079,26466
69685,26466
69685,26604
70079,26604
70079,26466
" /> 
<polyline style="fill-rule:evenodd;"
points="69213,26466
68819,26466
68819,26604
69213,26604
69213,26466
" /> 
<polyline style="fill-rule:evenodd;"
points="69213,26210
68819,26210
68819,26348
69213,26348
69213,26210
" /> 
<polyline style="fill-rule:evenodd;"
points="69213,25954
68819,25954
68819,26092
69213,26092
69213,25954
" /> 
</g> 
</svg>
