<?xml version="1.0" standalone="no"?>
 <!DOCTYPE svg PUBLIC "-//W3C//DTD SVG 1.1//EN" 
 "http://www.w3.org/Graphics/SVG/1.1/DTD/svg11.dtd"> 
<svg xmlns="http://www.w3.org/2000/svg" version="1.1" 
    width="29.7002cm" height="21.0007cm" viewBox="0 0 116930 82680 ">
<title>SVG Picture created as SensorActuator-Cmts.User.svg date 2016/02/14 16:01:00 </title>
  <desc>Picture generated by PCBNEW </desc>
<g style="fill:#000000; fill-opacity:1;stroke:#000000; stroke-opacity:1;
stroke-linecap:round; stroke-linejoin:round; "
 transform="translate(0 0) scale(1 1)">
</g>
<g style="fill:#000000; fill-opacity:0.0; 
stroke:#000000; stroke-width:-0.000393701; stroke-opacity:1; 
stroke-linecap:round; stroke-linejoin:round;">
</g>
<g style="fill:#000000; fill-opacity:0.0; 
stroke:#000000; stroke-width:39.3701; stroke-opacity:1; 
stroke-linecap:round; stroke-linejoin:round;">
<path d="M46456 46751
L46456 27066
" />
<path d="M66141 46751
L46456 46751
" />
<path d="M66141 27066
L66141 46751
" />
<path d="M46456 27066
L66141 27066
" />
</g>
<g style="fill:#000000; fill-opacity:0.0; 
stroke:#000000; stroke-width:118.11; stroke-opacity:1; 
stroke-linecap:round; stroke-linejoin:round;">
<path d="M73098 34772
L73098 34491
L72817 34462
L72845 34491
L72874 34547
L72874 34687
L72845 34744
L72817 34772
L72761 34800
L72620 34800
L72564 34772
L72536 34744
L72508 34687
L72508 34547
L72536 34491
L72564 34462
" />
<path d="M73098 35165
L73098 35222
L73070 35278
L73042 35306
L72986 35334
L72874 35362
L72733 35362
L72620 35334
L72564 35306
L72536 35278
L72508 35222
L72508 35165
L72536 35109
L72564 35081
L72620 35053
L72733 35025
L72874 35025
L72986 35053
L73042 35081
L73070 35109
L73098 35165
" />
<path d="M72536 35643
L72508 35643
L72452 35615
L72424 35587
" />
<path d="M73098 36009
L73098 36065
L73070 36122
L73042 36150
L72986 36178
L72874 36206
L72733 36206
L72620 36178
L72564 36150
L72536 36122
L72508 36065
L72508 36009
L72536 35953
L72564 35925
L72620 35897
L72733 35868
L72874 35868
L72986 35897
L73042 35925
L73070 35953
L73098 36009
" />
<path d="M73098 36571
L73098 36628
L73070 36684
L73042 36712
L72986 36740
L72874 36768
L72733 36768
L72620 36740
L72564 36712
L72536 36684
L72508 36628
L72508 36571
L72536 36515
L72564 36487
L72620 36459
L72733 36431
L72874 36431
L72986 36459
L73042 36487
L73070 36515
L73098 36571
" />
<path d="M73098 37134
L73098 37190
L73070 37246
L73042 37275
L72986 37303
L72874 37331
L72733 37331
L72620 37303
L72564 37275
L72536 37246
L72508 37190
L72508 37134
L72536 37078
L72564 37050
L72620 37021
L72733 36993
L72874 36993
L72986 37021
L73042 37050
L73070 37078
L73098 37134
" />
<path d="M72508 38034
L72902 38034
" />
<path d="M72845 38034
L72874 38062
L72902 38118
L72902 38203
L72874 38259
L72817 38287
L72508 38287
" />
<path d="M72817 38287
L72874 38315
L72902 38371
L72902 38456
L72874 38512
L72817 38540
L72508 38540
" />
<path d="M72508 38821
L72902 38821
" />
<path d="M72845 38821
L72874 38849
L72902 38906
L72902 38990
L72874 39046
L72817 39074
L72508 39074
" />
<path d="M72817 39074
L72874 39102
L72902 39159
L72902 39243
L72874 39299
L72817 39327
L72508 39327
" />
<path d="M72244 27066
L72244 46751
" />
<path d="M66141 27066
L73307 27066
" />
<path d="M66141 46751
L73307 46751
" />
<path d="M72244 46751
L72013 46308
" />
<path d="M72244 46751
L72474 46308
" />
<path d="M72244 27066
L72013 27510
" />
<path d="M72244 27066
L72474 27510
" />
<path d="M54161 20897
L53880 20897
L53852 21178
L53880 21150
L53937 21122
L54077 21122
L54133 21150
L54161 21178
L54190 21234
L54190 21375
L54161 21431
L54133 21459
L54077 21487
L53937 21487
L53880 21459
L53852 21431
" />
<path d="M54555 20897
L54611 20897
L54668 20925
L54696 20953
L54724 21009
L54752 21122
L54752 21262
L54724 21375
L54696 21431
L54668 21459
L54611 21487
L54555 21487
L54499 21459
L54471 21431
L54443 21375
L54415 21262
L54415 21122
L54443 21009
L54471 20953
L54499 20925
L54555 20897
" />
<path d="M55033 21459
L55033 21487
L55005 21543
L54977 21571
" />
<path d="M55399 20897
L55455 20897
L55511 20925
L55539 20953
L55568 21009
L55596 21122
L55596 21262
L55568 21375
L55539 21431
L55511 21459
L55455 21487
L55399 21487
L55343 21459
L55314 21431
L55286 21375
L55258 21262
L55258 21122
L55286 21009
L55314 20953
L55343 20925
L55399 20897
" />
<path d="M55961 20897
L56017 20897
L56074 20925
L56102 20953
L56130 21009
L56158 21122
L56158 21262
L56130 21375
L56102 21431
L56074 21459
L56017 21487
L55961 21487
L55905 21459
L55877 21431
L55849 21375
L55821 21262
L55821 21122
L55849 21009
L55877 20953
L55905 20925
L55961 20897
" />
<path d="M56524 20897
L56580 20897
L56636 20925
L56664 20953
L56692 21009
L56721 21122
L56721 21262
L56692 21375
L56664 21431
L56636 21459
L56580 21487
L56524 21487
L56467 21459
L56439 21431
L56411 21375
L56383 21262
L56383 21122
L56411 21009
L56439 20953
L56467 20925
L56524 20897
" />
<path d="M57424 21487
L57424 21093
" />
<path d="M57424 21150
L57452 21122
L57508 21093
L57592 21093
L57649 21122
L57677 21178
L57677 21487
" />
<path d="M57677 21178
L57705 21122
L57761 21093
L57845 21093
L57902 21122
L57930 21178
L57930 21487
" />
<path d="M58211 21487
L58211 21093
" />
<path d="M58211 21150
L58239 21122
L58295 21093
L58380 21093
L58436 21122
L58464 21178
L58464 21487
" />
<path d="M58464 21178
L58492 21122
L58548 21093
L58633 21093
L58689 21122
L58717 21178
L58717 21487
" />
<path d="M46456 21751
L66141 21751
" />
<path d="M46456 27066
L46456 20688
" />
<path d="M66141 27066
L66141 20688
" />
<path d="M66141 21751
L65698 21982
" />
<path d="M66141 21751
L65698 21521
" />
<path d="M46456 21751
L46900 21982
" />
<path d="M46456 21751
L46900 21521
" />
</g> 
</svg>
